<svg width="51" height="58" viewBox="0 0 51 58" fill="none" xmlns="http://www.w3.org/2000/svg">
<circle cx="22" cy="21" r="12" fill="white"/>
<path d="M21 20.1197V54.4668C21 55.4751 22.3232 55.8496 22.8517 54.9908L30.1101 43.195C30.2921 42.8993 30.6145 42.7191 30.9618 42.7191H48.2138C49.1519 42.7191 49.5737 41.5439 48.8497 40.9473L22.6359 19.3479C21.9836 18.8104 21 19.2745 21 20.1197Z" fill="#30AB5E" stroke="#30AB5E"/>
<mask id="path-3-inside-1_543_3632" fill="white">
<path d="M42.2208 27.2357C43.3342 23.2135 43.2529 18.9542 41.9867 14.9774C40.7206 11.0006 38.3244 7.47828 35.0904 4.84017C31.8565 2.20205 27.9247 0.562192 23.7746 0.120659C19.6245 -0.320875 15.4357 0.455004 11.7191 2.35364C8.00245 4.25227 4.91878 7.19157 2.84425 10.8129C0.769729 14.4343 -0.205957 18.5812 0.0362311 22.7476C0.278419 26.9141 1.72801 30.92 4.20815 34.2766C6.68829 37.6332 10.0918 40.1955 14.0033 41.6507L14.3506 40.7172C10.6203 39.3294 7.37445 36.8859 5.00921 33.6847C2.64396 30.4836 1.26152 26.6633 1.03055 22.6898C0.799585 18.7164 1.73007 14.7616 3.70849 11.308C5.68691 7.85442 8.62773 5.05128 12.1722 3.2406C15.7166 1.42993 19.7114 0.68999 23.6692 1.11107C27.627 1.53215 31.3767 3.09604 34.4608 5.61194C37.545 8.12785 39.8302 11.487 41.0377 15.2796C42.2451 19.0721 42.3227 23.1341 41.2609 26.97L42.2208 27.2357Z"/>
</mask>
<path d="M42.2208 27.2357C43.3342 23.2135 43.2529 18.9542 41.9867 14.9774C40.7206 11.0006 38.3244 7.47828 35.0904 4.84017C31.8565 2.20205 27.9247 0.562192 23.7746 0.120659C19.6245 -0.320875 15.4357 0.455004 11.7191 2.35364C8.00245 4.25227 4.91878 7.19157 2.84425 10.8129C0.769729 14.4343 -0.205957 18.5812 0.0362311 22.7476C0.278419 26.9141 1.72801 30.92 4.20815 34.2766C6.68829 37.6332 10.0918 40.1955 14.0033 41.6507L14.3506 40.7172C10.6203 39.3294 7.37445 36.8859 5.00921 33.6847C2.64396 30.4836 1.26152 26.6633 1.03055 22.6898C0.799585 18.7164 1.73007 14.7616 3.70849 11.308C5.68691 7.85442 8.62773 5.05128 12.1722 3.2406C15.7166 1.42993 19.7114 0.68999 23.6692 1.11107C27.627 1.53215 31.3767 3.09604 34.4608 5.61194C37.545 8.12785 39.8302 11.487 41.0377 15.2796C42.2451 19.0721 42.3227 23.1341 41.2609 26.97L42.2208 27.2357Z" stroke="#30AB5E" stroke-width="2" mask="url(#path-3-inside-1_543_3632)"/>
<mask id="path-4-inside-2_543_3632" fill="white">
<path d="M37.4201 25.9019C38.2487 22.815 38.1882 19.5462 37.2459 16.4943C36.3037 13.4423 34.5205 10.7391 32.1138 8.71455C29.7072 6.68994 26.7811 5.43145 23.6927 5.0926C20.6043 4.75375 17.487 5.34919 14.7212 6.80628C11.9553 8.26337 9.66049 10.5191 8.11665 13.2983C6.57282 16.0775 5.84673 19.26 6.02696 22.4575C6.2072 25.655 7.28596 28.7293 9.13165 31.3053C10.9773 33.8813 13.5101 35.8477 16.4211 36.9645L16.7713 35.9936C14.0431 34.9469 11.6693 33.104 9.93953 30.6897C8.20972 28.2754 7.19868 25.3942 7.02976 22.3974C6.86084 19.4006 7.54135 16.4179 8.98826 13.8132C10.4352 11.2085 12.5859 9.09437 15.1781 7.72876C17.7703 6.36315 20.6919 5.80509 23.5864 6.12266C26.481 6.44024 29.2233 7.61973 31.4789 9.51722C33.7344 11.4147 35.4057 13.9482 36.2888 16.8085C37.1719 19.6689 37.2286 22.7325 36.452 25.6255L37.4201 25.9019Z"/>
</mask>
<path d="M37.4201 25.9019C38.2487 22.815 38.1882 19.5462 37.2459 16.4943C36.3037 13.4423 34.5205 10.7391 32.1138 8.71455C29.7072 6.68994 26.7811 5.43145 23.6927 5.0926C20.6043 4.75375 17.487 5.34919 14.7212 6.80628C11.9553 8.26337 9.66049 10.5191 8.11665 13.2983C6.57282 16.0775 5.84673 19.26 6.02696 22.4575C6.2072 25.655 7.28596 28.7293 9.13165 31.3053C10.9773 33.8813 13.5101 35.8477 16.4211 36.9645L16.7713 35.9936C14.0431 34.9469 11.6693 33.104 9.93953 30.6897C8.20972 28.2754 7.19868 25.3942 7.02976 22.3974C6.86084 19.4006 7.54135 16.4179 8.98826 13.8132C10.4352 11.2085 12.5859 9.09437 15.1781 7.72876C17.7703 6.36315 20.6919 5.80509 23.5864 6.12266C26.481 6.44024 29.2233 7.61973 31.4789 9.51722C33.7344 11.4147 35.4057 13.9482 36.2888 16.8085C37.1719 19.6689 37.2286 22.7325 36.452 25.6255L37.4201 25.9019Z" stroke="#E0EBE4" stroke-width="2" mask="url(#path-4-inside-2_543_3632)"/>
</svg>
