<svg width="57" height="56" viewBox="0 0 57 56" fill="none" xmlns="http://www.w3.org/2000/svg">
<path d="M23.5 37.0399C17.5 35.8399 13.3333 37.5399 12 38.5399L9.5 40.5399L11.5 53.0398C15.5 51.0398 21.5 51.5398 23.5 52.5398C25.5 53.5398 28.5 53.5398 33.5 53.5398C37.5 53.5398 40.5 52.5398 41.5 52.0398C42.1667 51.7065 44.2 50.7398 47 49.5398C49.8 48.3398 53.8333 44.3731 55.5 42.5398V41.5398C53.1 38.7398 49.8333 39.0398 48.5 39.5398L43.5 43.0398C42.6667 42.0398 40.8 39.9398 40 39.5398C39 39.0398 35.5 37.5398 32.5 38.0398C29.5 38.5398 31 38.5399 23.5 37.0399Z" fill="#F4FFF8"/>
<rect x="4.05591" y="0.5" width="48.7778" height="29.2223" rx="1.5" fill="#30AB5E" stroke="#30AB5E"/>
<path d="M16.4441 8.00012H11.5552V22.6668H16.4441" stroke="#E0EBE4" stroke-linecap="round" stroke-linejoin="round"/>
<path d="M40.8895 8.00012H45.7784V22.6668H40.8895" stroke="#E0EBE4" stroke-linecap="round" stroke-linejoin="round"/>
<circle cx="28.4445" cy="15.1111" r="7.50001" fill="#F4FFF8" stroke="#30AB5E"/>
<path d="M11.5552 53.3334C12.8886 52.1482 17.4219 50.4 24.8886 52.8889C34.2219 56 48.8886 51.5556 55.5553 41.7778C54.6664 40.7408 52.0886 38.8445 48.8886 39.5556C44.8886 40.4445 46.2219 46.6667 24.4441 44.889" stroke="#30AB5E" stroke-linecap="round" stroke-linejoin="round"/>
<path d="M11.5552 39.1112C12.7404 38.0742 16.3552 36.1779 21.333 36.889C27.5553 37.7779 28.9527 39.028 32.4442 38.2223C37.333 37.0941 41.3331 40.0001 43.5553 43.1112" stroke="#30AB5E" stroke-linecap="round" stroke-linejoin="round"/>
<rect x="0.5" y="36.9445" width="11.4445" height="18.5556" rx="1.5" fill="#30AB5E" stroke="#30AB5E"/>
</svg>
