<svg width="57" height="56" viewBox="0 0 57 56" fill="none" xmlns="http://www.w3.org/2000/svg">
<path d="M54 14.5L52 17H51.5L51 16.5L50.5 16L49.5 15L48.5 13.5L46.5 11.5L49 9.5L54 14.5Z" fill="#30AB5E"/>
<circle cx="31.4979" cy="31.0621" r="19.5414" fill="#30AB5E" stroke="#30AB5E"/>
<path d="M9.27732 25.834H1.87073" stroke="#30AB5E" stroke-linecap="round"/>
<path d="M9.27732 37.1617H1.87073" stroke="#30AB5E" stroke-linecap="round"/>
<path d="M8.40659 31.0621H1" stroke="#30AB5E" stroke-linecap="round"/>
<path d="M31.4976 17.4996V13.1428" stroke="#F4FFF8" stroke-linecap="round"/>
<path d="M31.4976 48.9817V44.6249" stroke="#F4FFF8" stroke-linecap="round"/>
<path d="M45.0594 31.0621L49.4163 31.0621" stroke="#F4FFF8" stroke-linecap="round"/>
<path d="M13.5773 31.0621L17.9341 31.0621" stroke="#F4FFF8" stroke-linecap="round"/>
<path d="M23.6547 1H39.3392" stroke="#30AB5E" stroke-linecap="round"/>
<path d="M31.4982 6.66386V1" stroke="#30AB5E" stroke-linecap="round"/>
<path d="M27.9645 26.8243C27.7896 26.6105 27.4746 26.579 27.2609 26.7539C27.0472 26.9288 27.0157 27.2438 27.1905 27.4575L27.9645 26.8243ZM31.4986 31.9334L31.1117 32.25C31.2513 32.4206 31.4861 32.4797 31.6898 32.3954L31.4986 31.9334ZM44.3246 27.1672C44.5798 27.0616 44.701 26.7692 44.5954 26.514C44.4898 26.2589 44.1974 26.1376 43.9422 26.2432L44.3246 27.1672ZM27.1905 27.4575L31.1117 32.25L31.8856 31.6168L27.9645 26.8243L27.1905 27.4575ZM31.6898 32.3954L44.3246 27.1672L43.9422 26.2432L31.3075 31.4714L31.6898 32.3954Z" fill="#F4FFF8"/>
<circle cx="31.4979" cy="31.0621" r="19.5414" stroke="#30AB5E"/>
<path d="M46.7466 11.4565L48.925 9.27808L54.1532 14.5063L51.5391 17.1203" stroke="#30AB5E" stroke-linecap="round" stroke-linejoin="round"/>
<path d="M4.92151 20.1665H9.66806C12.1083 15.2773 16.1192 11.3487 21.058 9.01047C25.9968 6.67219 31.5776 6.05953 36.9061 7.27069C42.2345 8.48185 47.0022 11.4467 50.4449 15.6901C53.8877 19.9335 55.8064 25.2098 55.8934 30.6735C55.9804 36.1372 54.2307 41.4719 50.9248 45.8228C47.6189 50.1737 42.9481 53.2889 37.6609 54.6691C32.3737 56.0493 26.7762 55.6147 21.7654 53.4348C16.7547 51.255 12.6207 47.4561 10.0261 42.6471H4.92151" stroke="#30AB5E" stroke-linecap="round"/>
</svg>
