<svg width="47" height="56" viewBox="0 0 47 56" fill="none" xmlns="http://www.w3.org/2000/svg">
<path d="M46.1667 27.4104L46.1668 27.4141L46.1668 27.4142V27.4144L46.1668 27.4157L46.1668 27.4242L46.1665 27.4623C46.1661 27.497 46.1652 27.5502 46.163 27.6207C46.1587 27.7619 46.1493 27.9729 46.129 28.2461C46.0886 28.7925 46.0049 29.5875 45.832 30.5705C45.4861 32.5372 44.7837 35.2524 43.3584 38.2352C40.5274 44.1602 34.8317 51.1701 23.3334 55.4666C11.8351 51.1701 6.13944 44.1602 3.30836 38.2352C1.88308 35.2524 1.18067 32.5372 0.834746 30.5705C0.661834 29.5875 0.578173 28.7925 0.537732 28.2461C0.517514 27.9729 0.508107 27.7619 0.503743 27.6207C0.501562 27.5502 0.500641 27.497 0.50026 27.4623L0.500002 27.4242L0.500008 27.4157L0.500013 27.4144H0.500028V27.4104V11.4501C12.3486 10.1729 21.4375 2.41223 23.3334 0.683603C25.2293 2.41223 34.3182 10.1729 46.1667 11.4501L46.1667 27.4104Z" fill="#30AB5E" stroke="#30AB5E"/>
<path d="M41.9999 27.5157L41.9999 27.5193L41.9999 27.5197L41.9999 27.5204L41.9999 27.5269L41.9997 27.5574C41.9994 27.5853 41.9987 27.6283 41.9969 27.6857C41.9933 27.8004 41.9857 27.9725 41.9692 28.1955C41.9361 28.6418 41.8678 29.2918 41.7263 30.0961C41.4433 31.7051 40.8684 33.9275 39.7018 36.369C37.388 41.2114 32.734 46.945 23.3332 50.4665C13.9325 46.945 9.27844 41.2114 6.96465 36.369C5.79801 33.9275 5.22316 31.7051 4.94012 30.096C4.79866 29.2918 4.73028 28.6418 4.69725 28.1955C4.68075 27.9725 4.67308 27.8004 4.66954 27.6857C4.66776 27.6283 4.66702 27.5853 4.66671 27.5574L4.66651 27.5269L4.66651 27.5204L4.66651 27.5197H4.66653V27.5157V14.4855C14.2681 13.4206 21.6507 7.20473 23.3332 5.68216C25.0157 7.20473 32.3984 13.4206 41.9999 14.4855L41.9999 27.5157Z" stroke="white"/>
<path d="M19.25 26.5H19.75V26V23.75C19.75 21.9584 21.2084 20.5 23 20.5C24.7916 20.5 26.25 21.9584 26.25 23.75V26V26.5H26.75H27.5C27.7652 26.5 28.0196 26.6054 28.2071 26.7929C28.3946 26.9804 28.5 27.2348 28.5 27.5V33.5C28.5 33.7652 28.3946 34.0196 28.2071 34.2071C28.0196 34.3946 27.7652 34.5 27.5 34.5H18.5C18.2348 34.5 17.9804 34.3946 17.7929 34.2071C17.6054 34.0196 17.5 33.7652 17.5 33.5V27.5C17.5 27.2348 17.6054 26.9804 17.7929 26.7929C17.9804 26.6054 18.2348 26.5 18.5 26.5H19.25ZM25.25 26.5H25.75V26V23.75C25.75 22.2334 24.5166 21 23 21C21.4834 21 20.25 22.2334 20.25 23.75V26V26.5H20.75H25.25ZM24.25 34V33.5V32.0552C24.4428 31.9014 24.6061 31.7126 24.7308 31.4977C24.9066 31.1948 24.9994 30.851 25 30.5008V30.5C25 30.2006 24.9328 29.905 24.8034 29.635C24.674 29.3649 24.4855 29.1274 24.2521 28.9399C24.0186 28.7524 23.746 28.6197 23.4544 28.5516C23.1634 28.4836 22.8609 28.4817 22.569 28.5459C22.175 28.6316 21.8162 28.8347 21.5399 29.1284C21.2636 29.4221 21.0828 29.7926 21.0214 30.1911C20.9599 30.5897 21.0207 30.9974 21.1957 31.3607C21.3264 31.6322 21.5163 31.8693 21.75 32.0554V33.5V34H22.25H23.75H24.25Z" fill="#F4FFF8" stroke="#F4FFF8"/>
</svg>
