<svg width="65" height="51" viewBox="0 0 65 51" fill="none" xmlns="http://www.w3.org/2000/svg">
<rect x="5.84375" y="0.53125" width="52.0625" height="38.25" rx="1.59375" fill="#E0EBE4" stroke="#30AB5E" stroke-width="1.0625"/>
<rect x="10.625" y="5.3125" width="42.5" height="30.8125" rx="1.0625" fill="white"/>
<path d="M64.2699 38.7812C63.9918 45.283 58.6327 50.4688 52.0625 50.4688H12.75C6.17977 50.4688 0.820731 45.283 0.542591 38.7812H64.2699Z" fill="#30AB5E" stroke="#30AB5E" stroke-width="1.0625"/>
<path d="M42.4014 22.2548C42.6089 22.4054 42.7638 22.6196 42.8433 22.864C42.9253 23.1101 42.927 23.3745 42.8508 23.6222C42.3203 25.3183 41.4179 26.8745 40.2096 28.1775C40.0351 28.3645 39.8069 28.4929 39.5565 28.5449C39.306 28.5969 39.0456 28.57 38.8111 28.4679L37.175 27.7498C36.9962 27.6703 36.8013 27.6336 36.6059 27.6427C36.4111 27.654 36.2218 27.7114 36.0535 27.8101C35.885 27.9076 35.742 28.0437 35.6362 28.2072C35.5304 28.3708 35.465 28.557 35.4451 28.7507L35.2484 30.5333C35.2201 30.7871 35.114 31.0259 34.9447 31.2171C34.7755 31.4082 34.5512 31.5424 34.3027 31.6012C32.5654 32.0155 30.7543 32.0155 29.0169 31.6012C28.7702 31.5415 28.5476 31.4076 28.3793 31.2176C28.211 31.0276 28.1049 30.7905 28.0754 30.5384L27.8787 28.7591C27.8447 28.4559 27.7002 28.1759 27.4728 27.9724C27.2951 27.8157 27.0765 27.7124 26.8425 27.6746C26.6085 27.6369 26.3686 27.6661 26.1505 27.759L24.5144 28.4779C24.2806 28.58 24.0208 28.6072 23.7709 28.5558C23.521 28.5044 23.2931 28.3769 23.1185 28.1909C21.9081 26.8866 21.0045 25.3282 20.4739 23.6298C20.3978 23.3837 20.4001 23.1201 20.4805 22.8754C20.5608 22.6307 20.7153 22.417 20.9225 22.264L22.3661 21.1969C22.5239 21.0813 22.6521 20.9301 22.7406 20.7556C22.829 20.5811 22.8751 20.3883 22.8751 20.1926C22.8751 19.997 22.829 19.8042 22.7406 19.6297C22.6521 19.4552 22.5239 19.304 22.3661 19.1884L20.9225 18.123C20.7164 17.9708 20.5626 17.7584 20.4823 17.5152C20.4019 17.2719 20.399 17.0097 20.4739 16.7647C21.0044 15.0677 21.9077 13.5107 23.1176 12.2078C23.2348 12.0815 23.3771 11.981 23.5361 11.9141C23.691 11.8485 23.8575 11.8147 24.0257 11.8147C24.1939 11.8147 24.3604 11.8485 24.5153 11.9141L26.1447 12.6321C26.3239 12.7091 26.5187 12.7431 26.7135 12.7313C26.9082 12.7195 27.0975 12.6622 27.2661 12.5641C27.4348 12.466 27.5781 12.3297 27.6846 12.1663C27.7911 12.0029 27.8579 11.8167 27.8796 11.6228L28.0771 9.84694C28.1058 9.59051 28.2138 9.34942 28.386 9.15726C28.5582 8.9651 28.7861 8.83143 29.0378 8.77488C29.9028 8.58405 30.785 8.48253 31.6707 8.47192C32.5511 8.48197 33.4282 8.58323 34.2877 8.77488C34.54 8.83104 34.7683 8.96493 34.9406 9.15771C35.1128 9.35048 35.2202 9.59242 35.2476 9.84945L35.4451 11.6237C35.466 11.8173 35.5322 12.0032 35.6384 12.1665C35.7445 12.3298 35.8875 12.4658 36.0559 12.5636C36.2243 12.6613 36.4134 12.7181 36.6078 12.7293C36.8022 12.7405 36.9965 12.7058 37.175 12.6279L38.8036 11.9107C39.0384 11.8085 39.2991 11.7815 39.55 11.8334C39.8008 11.8852 40.0294 12.0134 40.2045 12.2003C41.4138 13.5018 42.3165 15.0574 42.8466 16.753C42.9233 16.9989 42.9211 17.2625 42.8405 17.5071C42.76 17.7517 42.605 17.965 42.3972 18.1171L40.9577 19.1825C40.7994 19.2971 40.6704 19.4476 40.5813 19.6217C40.4922 19.7957 40.4456 19.9883 40.4453 20.1838C40.445 20.3793 40.4909 20.5722 40.5794 20.7465C40.6679 20.9208 40.7964 21.0717 40.9544 21.1869L42.4014 22.2548ZM31.6623 23.5335C32.5502 23.5335 33.4016 23.1808 34.0294 22.5531C34.6572 21.9253 35.0099 21.0738 35.0099 20.186C35.0099 19.2981 34.6572 18.4466 34.0294 17.8189C33.4016 17.1911 32.5502 16.8384 31.6623 16.8384C30.7745 16.8384 29.923 17.1911 29.2952 17.8189C28.6674 18.4466 28.3148 19.2981 28.3148 20.186C28.3148 21.0738 28.6674 21.9253 29.2952 22.5531C29.923 23.1808 30.7745 23.5335 31.6623 23.5335Z" fill="#30AB5E"/>
</svg>
