<svg width="49" height="63" viewBox="0 0 49 63" fill="none" xmlns="http://www.w3.org/2000/svg">
<path d="M1 3.7398C12.7562 13.1049 21.507 5.81541 24.4128 1C32.5824 12.557 43.4254 7.64194 47.8257 3.7398C48.1578 6.89472 48.6227 17.0901 47.8257 32.6322C47.0286 48.1744 31.885 58.3697 24.4128 61.5247C5.68257 51.5618 1 38.1118 1 32.6322V3.7398Z" fill="#30AB5E" stroke="#30AB5E" stroke-linecap="round" stroke-linejoin="round"/>
<path d="M24.6425 30.3166V12.3484C21.3325 18.0226 14.2398 17.5497 12.3484 16.1312C10.8353 14.9963 9.82652 14.7126 9.51129 14.7126V30.3166H24.6425Z" fill="#E8F5ED" stroke="#30AB5E" stroke-linecap="round" stroke-linejoin="round"/>
<path d="M24.6425 50.1763V30.3167H39.3008C39.6791 42.0433 29.6862 48.4425 24.6425 50.1763Z" fill="#E8F5ED" stroke="#30AB5E"/>
<path d="M9.51129 14.0608C17.0383 19.914 22.6411 15.358 24.5016 12.3484C29.7322 19.5715 36.6745 16.4996 39.4919 14.0608C39.7045 16.0326 40.0022 22.4047 39.4919 32.1185C38.9816 41.8324 29.2857 48.2045 24.5016 50.1763C12.5093 43.9495 9.51129 35.5433 9.51129 32.1185V14.0608Z" stroke="#30AB5E" stroke-linecap="round" stroke-linejoin="round"/>
<path d="M9.51129 14.0608C17.0383 19.914 22.6411 15.358 24.5016 12.3484C29.7322 19.5715 36.6745 16.4996 39.4919 14.0608C39.7045 16.0326 40.0022 22.4047 39.4919 32.1185C38.9816 41.8324 29.2857 48.2045 24.5016 50.1763C12.5093 43.9495 9.51129 35.5433 9.51129 32.1185V14.0608Z" fill="#30AB5E" stroke="#F4FFF8" stroke-linecap="round" stroke-linejoin="round"/>
</svg>
