<svg width="72" height="56" viewBox="0 0 72 56" fill="none" xmlns="http://www.w3.org/2000/svg">
<rect x="53.25" y="40" width="4.5" height="12.75" rx="2.25" fill="#30AB5E" stroke="#30AB5E"/>
<rect x="63.25" y="51" width="4.5" height="15.5" rx="2.25" transform="rotate(90 63.25 51)" fill="#30AB5E" stroke="#30AB5E"/>
<rect x="39" y="24.375" width="33" height="20.625" rx="2.75" fill="#30AB5E"/>
<rect x="41" y="26" width="29" height="17" rx="2.75" fill="#EAF8EF"/>
<rect x="0.5" y="0.5" width="30" height="10" rx="0.5" fill="#30AB5E" stroke="#30AB5E"/>
<rect x="0.5" y="14.5" width="30" height="10" rx="0.5" fill="#30AB5E" stroke="#30AB5E"/>
<path d="M10.5 5.5H25.5" stroke="white" stroke-linecap="round"/>
<path d="M10.5 19.5H25.5" stroke="white" stroke-linecap="round"/>
<circle cx="5.5" cy="5.5" r="2" stroke="white"/>
<circle cx="5.5" cy="19.5" r="2" stroke="white"/>
<path d="M15 28.5V38.5C15 39.0523 15.4477 39.5 16 39.5H33" stroke="#30AB5E" stroke-linecap="round"/>
<path d="M56 17L56 7C56 6.44771 55.5523 6 55 6L38 6" stroke="#30AB5E" stroke-linecap="round"/>
</svg>
