<svg width="64" height="56" viewBox="0 0 64 56" fill="none" xmlns="http://www.w3.org/2000/svg">
<path d="M10 37.5001L9 39.5001L9.5 53.5L13.5 51L15.5 50L20 51L28 53.5C30 54 34.7 55 37.5 55C40.3 55 43.3333 52.6667 44.5 51.5L55 44.5L63 39V38L62.5 37.5C61.7 35.1 56.8333 36.8333 54.5 38L45.5 42C45.5 41.8333 45.2 41 44 39C42.8 37 36.5 37.5 33.5 38H30L27.5 37.5C27.3333 37.5 26.2 37.0001 23 35.0001C19.8 33.0001 15.3333 34.1667 13.5 35.0001L10 37.5001Z" fill="#F4FFF8"/>
<rect x="20.5" y="0.469697" width="31" height="30.0606" rx="1.40909" fill="#30AB5E" stroke="#30AB5E" stroke-width="0.939394"/>
<path d="M10.5 37.5001C11.5 36.0001 14.8 33.2001 20 34.0001C26.5 35.0001 24.5 38.4999 32 38C39.5 37.5001 42.5 36.5 44.5 39.5C45.0811 40.3717 45.46 41.2258 45.6988 42M31 45H46C46.1061 44.4693 46.1176 43.3574 45.6988 42M10.5 53C11.1667 52.6667 12.8 51.7 14 50.5C15.5 49 23 51.5 26.5 53C30 54.5 37 56.5 41.5 53.5C46 50.5 60.5 40.5 62.5 39.5C64.5 38.5 62.5 34.5 56.5 37C50.5 39.5 47.3977 42 45.6988 42" stroke="#30AB5E" stroke-linecap="round"/>
<rect x="22.8486" y="21" width="26.303" height="6.57576" rx="0.1" fill="#F4FFF8"/>
<rect x="31.3032" y="23" width="14.0909" height="2" fill="#30AB5E"/>
<rect x="26.606" y="23" width="2.81818" height="2" fill="#30AB5E"/>
<rect x="22.8486" y="3" width="26.303" height="6.57576" rx="0.1" fill="#F4FFF8"/>
<rect x="26.606" y="5" width="2.81818" height="2" fill="#30AB5E"/>
<rect x="31.3032" y="5" width="14.0909" height="2" fill="#30AB5E"/>
<rect x="22.8486" y="12" width="26.303" height="6.57576" rx="0.1" fill="#F4FFF8"/>
<rect x="26.606" y="14" width="2.81818" height="2" fill="#30AB5E"/>
<rect x="31.3032" y="14" width="14.0909" height="2" fill="#30AB5E"/>
<rect x="0.5" y="33.5" width="10" height="22" rx="1.5" fill="#30AB5E" stroke="#30AB5E"/>
</svg>
