<svg width="52" height="53" viewBox="0 0 52 53" fill="none" xmlns="http://www.w3.org/2000/svg">
<rect x="12.9092" y="13.5" width="26.1818" height="27" rx="13.0909" fill="#30AB5E"/>
<path d="M16 18L3 3.5" stroke="#30AB5E" stroke-linecap="round"/>
<path d="M36 35.5L49 50" stroke="#30AB5E" stroke-linecap="round"/>
<path d="M36 18L49 3.5" stroke="#30AB5E" stroke-linecap="round"/>
<path d="M16 35.5L3 50" stroke="#30AB5E" stroke-linecap="round"/>
<path d="M1 18V3C1 1.89543 1.89543 1 3 1H18" stroke="#30AB5E" stroke-linecap="round"/>
<path d="M51 35.5L51 50.5C51 51.6046 50.1046 52.5 49 52.5L34 52.5" stroke="#30AB5E" stroke-linecap="round"/>
<path d="M51 18V3C51 1.89543 50.1046 1 49 1H34" stroke="#30AB5E" stroke-linecap="round"/>
<path d="M1 35.5L1 50.5C1 51.6046 1.89543 52.5 3 52.5L18 52.5" stroke="#30AB5E" stroke-linecap="round"/>
<rect x="20.5" y="21.8667" width="11" height="10.2667" rx="1.1" fill="#F4FFF8" stroke="#30AB5E" stroke-width="0.733333"/>
</svg>
