<svg width="42" height="56" viewBox="0 0 42 56" fill="none" xmlns="http://www.w3.org/2000/svg">
<path d="M0.55785 3.78272C0.530276 1.97789 1.98576 0.5 3.79081 0.5H37.2759C39.0809 0.5 40.5364 1.9779 40.5088 3.78273L39.7673 52.3161C39.7403 54.0823 38.3008 55.5 36.5344 55.5H4.53228C2.76582 55.5 1.32632 54.0823 1.29933 52.3161L0.55785 3.78272Z" fill="white" stroke="#30AB5E"/>
<path d="M3.04381 14.0429C3.01977 12.9218 3.922 12 5.04335 12H35.9566C37.078 12 37.9802 12.9218 37.9562 14.0429L37.3128 44.0429C37.2895 45.1305 36.4011 46 35.3133 46H5.68674C4.59888 46 3.71052 45.1305 3.68719 44.0429L3.04381 14.0429Z" fill="#30AB5E"/>
<circle cx="5.60007" cy="5.60007" r="1.86667" fill="#30AB5E"/>
<circle cx="35.4668" cy="5.60007" r="1.86667" fill="#30AB5E"/>
<circle cx="35.4668" cy="52.2666" r="1.86667" fill="#30AB5E"/>
<circle cx="5.60007" cy="52.2666" r="1.86667" fill="#30AB5E"/>
<path d="M1 10.2666H40" stroke="#30AB5E" stroke-width="0.933333" stroke-linecap="round" stroke-linejoin="round"/>
<path d="M2 48.5334H40" stroke="#30AB5E" stroke-width="0.897809" stroke-linecap="round" stroke-linejoin="round"/>
<path d="M14.975 25.4832C14.9152 25.5928 14.8231 25.6475 14.6987 25.6475C14.624 25.6475 14.5394 25.6201 14.4448 25.5654C14.3503 25.5106 14.2333 25.4509 14.0939 25.3862C13.9595 25.3165 13.7977 25.2543 13.6086 25.1995C13.4194 25.1398 13.1954 25.1099 12.9366 25.1099C12.7126 25.1099 12.511 25.1398 12.3318 25.1995C12.1526 25.2543 11.9983 25.3314 11.8688 25.431C11.7444 25.5305 11.6473 25.6475 11.5776 25.7819C11.5129 25.9113 11.4806 26.0532 11.4806 26.2075C11.4806 26.4016 11.5353 26.5634 11.6448 26.6928C11.7593 26.8223 11.9087 26.9343 12.0928 27.0288C12.277 27.1234 12.4861 27.208 12.72 27.2827C12.954 27.3524 13.1929 27.4296 13.4368 27.5142C13.6857 27.5938 13.9271 27.6834 14.1611 27.783C14.3951 27.8825 14.6041 28.007 14.7883 28.1563C14.9725 28.3056 15.1193 28.4898 15.2288 28.7088C15.3433 28.9229 15.4006 29.1817 15.4006 29.4854C15.4006 29.8338 15.3383 30.1574 15.2139 30.456C15.0895 30.7497 14.9053 31.0061 14.6614 31.2251C14.4175 31.4392 14.1188 31.6084 13.7654 31.7328C13.4119 31.8573 13.0038 31.9195 12.5408 31.9195C12.0132 31.9195 11.5353 31.8349 11.1072 31.6656C10.6791 31.4914 10.3158 31.2699 10.0171 31.0011L10.3307 30.4934C10.3705 30.4287 10.4178 30.3789 10.4726 30.344C10.5273 30.3092 10.5995 30.2918 10.6891 30.2918C10.7787 30.2918 10.8733 30.3266 10.9728 30.3963C11.0724 30.466 11.1919 30.5432 11.3312 30.6278C11.4756 30.7124 11.6473 30.7896 11.8464 30.8592C12.0505 30.9289 12.3044 30.9638 12.608 30.9638C12.8669 30.9638 13.0934 30.9314 13.2875 30.8667C13.4816 30.797 13.6434 30.7049 13.7728 30.5904C13.9023 30.476 13.9968 30.344 14.0566 30.1947C14.1213 30.0454 14.1536 29.8861 14.1536 29.7168C14.1536 29.5078 14.0964 29.336 13.9819 29.2016C13.8724 29.0623 13.7255 28.9453 13.5414 28.8507C13.3572 28.7512 13.1456 28.6665 12.9067 28.5968C12.6727 28.5222 12.4313 28.445 12.1824 28.3654C11.9385 28.2857 11.6971 28.1961 11.4582 28.0966C11.2242 27.992 11.0151 27.8626 10.831 27.7083C10.6468 27.554 10.4975 27.3648 10.383 27.1408C10.2735 26.9119 10.2187 26.6356 10.2187 26.312C10.2187 26.0233 10.2784 25.7471 10.3979 25.4832C10.5174 25.2144 10.6916 24.9805 10.9206 24.7814C11.1495 24.5773 11.4308 24.4155 11.7643 24.296C12.0978 24.1766 12.4786 24.1168 12.9067 24.1168C13.4045 24.1168 13.85 24.1965 14.2432 24.3558C14.6415 24.5101 14.9849 24.7241 15.2736 24.9979L14.975 25.4832ZM21.45 25.4832C21.3902 25.5928 21.2981 25.6475 21.1737 25.6475C21.099 25.6475 21.0144 25.6201 20.9198 25.5654C20.8253 25.5106 20.7083 25.4509 20.5689 25.3862C20.4345 25.3165 20.2727 25.2543 20.0836 25.1995C19.8944 25.1398 19.6704 25.1099 19.4116 25.1099C19.1876 25.1099 18.986 25.1398 18.8068 25.1995C18.6276 25.2543 18.4733 25.3314 18.3438 25.431C18.2194 25.5305 18.1223 25.6475 18.0526 25.7819C17.9879 25.9113 17.9556 26.0532 17.9556 26.2075C17.9556 26.4016 18.0103 26.5634 18.1198 26.6928C18.2343 26.8223 18.3837 26.9343 18.5678 27.0288C18.752 27.1234 18.9611 27.208 19.195 27.2827C19.429 27.3524 19.6679 27.4296 19.9118 27.5142C20.1607 27.5938 20.4021 27.6834 20.6361 27.783C20.8701 27.8825 21.0791 28.007 21.2633 28.1563C21.4475 28.3056 21.5943 28.4898 21.7038 28.7088C21.8183 28.9229 21.8756 29.1817 21.8756 29.4854C21.8756 29.8338 21.8133 30.1574 21.6889 30.456C21.5645 30.7497 21.3803 31.0061 21.1364 31.2251C20.8925 31.4392 20.5938 31.6084 20.2404 31.7328C19.8869 31.8573 19.4788 31.9195 19.0158 31.9195C18.4882 31.9195 18.0103 31.8349 17.5822 31.6656C17.1541 31.4914 16.7908 31.2699 16.4921 31.0011L16.8057 30.4934C16.8455 30.4287 16.8928 30.3789 16.9476 30.344C17.0023 30.3092 17.0745 30.2918 17.1641 30.2918C17.2537 30.2918 17.3483 30.3266 17.4478 30.3963C17.5474 30.466 17.6669 30.5432 17.8062 30.6278C17.9506 30.7124 18.1223 30.7896 18.3214 30.8592C18.5255 30.9289 18.7794 30.9638 19.083 30.9638C19.3419 30.9638 19.5684 30.9314 19.7625 30.8667C19.9566 30.797 20.1184 30.7049 20.2478 30.5904C20.3773 30.476 20.4718 30.344 20.5316 30.1947C20.5963 30.0454 20.6286 29.8861 20.6286 29.7168C20.6286 29.5078 20.5714 29.336 20.4569 29.2016C20.3474 29.0623 20.2005 28.9453 20.0164 28.8507C19.8322 28.7512 19.6206 28.6665 19.3817 28.5968C19.1477 28.5222 18.9063 28.445 18.6574 28.3654C18.4135 28.2857 18.1721 28.1961 17.9332 28.0966C17.6992 27.992 17.4901 27.8626 17.306 27.7083C17.1218 27.554 16.9725 27.3648 16.858 27.1408C16.7485 26.9119 16.6937 26.6356 16.6937 26.312C16.6937 26.0233 16.7534 25.7471 16.8729 25.4832C16.9924 25.2144 17.1666 24.9805 17.3956 24.7814C17.6245 24.5773 17.9058 24.4155 18.2393 24.296C18.5728 24.1766 18.9536 24.1168 19.3817 24.1168C19.8795 24.1168 20.325 24.1965 20.7182 24.3558C21.1165 24.5101 21.4599 24.7241 21.7486 24.9979L21.45 25.4832ZM28.918 31.8C28.7289 31.8 28.6094 31.708 28.5596 31.5238L28.4402 30.6054C28.1166 30.9986 27.7458 31.3147 27.3276 31.5536C26.9145 31.7876 26.4391 31.9046 25.9015 31.9046C25.4684 31.9046 25.0752 31.8224 24.7218 31.6582C24.3683 31.4889 24.0672 31.2425 23.8183 30.919C23.5694 30.5954 23.3778 30.1922 23.2434 29.7094C23.109 29.2265 23.0418 28.6715 23.0418 28.0443C23.0418 27.4868 23.1164 26.9691 23.2658 26.4912C23.4151 26.0084 23.6291 25.5903 23.9079 25.2368C24.1916 24.8834 24.5351 24.6072 24.9383 24.408C25.3415 24.204 25.7995 24.1019 26.3122 24.1019C26.7751 24.1019 27.1708 24.1816 27.4994 24.3408C27.8279 24.4952 28.1216 24.7142 28.3804 24.9979V20.8016H29.7095V31.8H28.918ZM26.342 30.8294C26.7751 30.8294 27.1534 30.7298 27.477 30.5307C27.8055 30.3316 28.1067 30.0504 28.3804 29.687V26.0283C28.1365 25.6998 27.8677 25.4708 27.574 25.3414C27.2853 25.207 26.9643 25.1398 26.6108 25.1398C25.904 25.1398 25.3614 25.3912 24.9831 25.8939C24.6048 26.3967 24.4156 27.1135 24.4156 28.0443C24.4156 28.5371 24.4579 28.9602 24.5426 29.3136C24.6272 29.6621 24.7516 29.9508 24.9159 30.1798C25.0802 30.4038 25.2818 30.568 25.5207 30.6726C25.7596 30.7771 26.0334 30.8294 26.342 30.8294Z" fill="white"/>
</svg>
