<svg width="17" height="16" viewBox="0 0 17 16" fill="none" xmlns="http://www.w3.org/2000/svg">
<path d="M0.0283203 14C0.0283203 14.5304 0.239035 15.0391 0.614107 15.4142C0.98918 15.7893 1.49789 16 2.02832 16H14.0283C14.5588 16 15.0675 15.7893 15.4425 15.4142C15.8176 15.0391 16.0283 14.5304 16.0283 14V2C16.0283 1.46957 15.8176 0.960859 15.4425 0.585786C15.0675 0.210714 14.5588 0 14.0283 0L2.02832 0C1.49789 0 0.98918 0.210714 0.614107 0.585786C0.239035 0.960859 0.0283203 1.46957 0.0283203 2V14ZM4.52832 7.5H10.3213L8.17432 5.354C8.08043 5.26011 8.02769 5.13278 8.02769 5C8.02769 4.86722 8.08043 4.73989 8.17432 4.646C8.26821 4.55211 8.39554 4.49937 8.52832 4.49937C8.6611 4.49937 8.78843 4.55211 8.88232 4.646L11.8823 7.646C11.9289 7.69245 11.9658 7.74762 11.991 7.80837C12.0162 7.86911 12.0292 7.93423 12.0292 8C12.0292 8.06577 12.0162 8.13089 11.991 8.19163C11.9658 8.25238 11.9289 8.30755 11.8823 8.354L8.88232 11.354C8.78843 11.4479 8.6611 11.5006 8.52832 11.5006C8.39554 11.5006 8.26821 11.4479 8.17432 11.354C8.08043 11.2601 8.02769 11.1328 8.02769 11C8.02769 10.8672 8.08043 10.7399 8.17432 10.646L10.3213 8.5H4.52832C4.39571 8.5 4.26853 8.44732 4.17477 8.35355C4.081 8.25979 4.02832 8.13261 4.02832 8C4.02832 7.86739 4.081 7.74021 4.17477 7.64645C4.26853 7.55268 4.39571 7.5 4.52832 7.5Z" fill="#30AB5E"/>
</svg>
