<svg width="52" height="57" viewBox="0 0 52 57" fill="none" xmlns="http://www.w3.org/2000/svg">
<path d="M26.4705 47.8708V37.3938" stroke="#30AB5E" stroke-width="1.15778" stroke-linecap="round"/>
<path d="M8.05649 41.9702L11.4998 36.6469" stroke="#30AB5E" stroke-width="1.15778" stroke-linecap="round"/>
<path d="M43.4704 41.9702L40.0271 36.6469" stroke="#30AB5E" stroke-width="1.15778" stroke-linecap="round"/>
<path d="M35.0387 9.51315C35.0387 14.3244 31.1606 18.2185 26.3843 18.2185C21.6081 18.2185 17.7299 14.3244 17.7299 9.51315C17.7299 4.7019 21.6081 0.807814 26.3843 0.807814C31.1606 0.807814 35.0387 4.7019 35.0387 9.51315Z" fill="#30AB5E" stroke="#30AB5E" stroke-width="1.33145"/>
<path d="M30.494 51.9155C30.494 54.139 28.7023 55.9353 26.4997 55.9353C24.2971 55.9353 22.5053 54.139 22.5053 51.9155C22.5053 49.692 24.2971 47.8957 26.4997 47.8957C28.7023 47.8957 30.494 49.692 30.494 51.9155Z" stroke="#30AB5E" stroke-width="1.33145"/>
<path d="M9.8269 47.4077C8.82792 49.3894 6.42252 50.1786 4.45626 49.1765C2.49001 48.1744 1.70096 45.7572 2.69993 43.7756C3.69891 41.7939 6.10432 41.0047 8.07057 42.0067C10.0368 43.0088 10.8259 45.426 9.8269 47.4077Z" stroke="#30AB5E" stroke-width="1.33145"/>
<path d="M41.7 47.4077C42.6989 49.3894 45.1043 50.1786 47.0706 49.1765C49.0369 48.1744 49.8259 45.7572 48.8269 43.7756C47.8279 41.7939 45.4225 41.0047 43.4563 42.0067C41.49 43.0088 40.701 45.426 41.7 47.4077Z" stroke="#30AB5E" stroke-width="1.33145"/>
<mask id="path-8-inside-1_543_3568" fill="white">
<path d="M43.6926 32.9404C43.6926 29.9225 41.869 27.0282 38.6229 24.8942C35.3769 22.7602 30.9744 21.5613 26.3838 21.5613C21.7932 21.5613 17.3906 22.7601 14.1446 24.8942C10.8986 27.0282 9.07495 29.9225 9.07495 32.9404L26.3838 32.9404H43.6926Z"/>
</mask>
<path d="M43.6926 32.9404C43.6926 29.9225 41.869 27.0282 38.6229 24.8942C35.3769 22.7602 30.9744 21.5613 26.3838 21.5613C21.7932 21.5613 17.3906 22.7601 14.1446 24.8942C10.8986 27.0282 9.07495 29.9225 9.07495 32.9404L26.3838 32.9404H43.6926Z" fill="#30AB5E" stroke="#30AB5E" stroke-width="2.66289" stroke-linejoin="round" mask="url(#path-8-inside-1_543_3568)"/>
</svg>
