<svg width="66" height="58" viewBox="0 0 66 58" fill="none" xmlns="http://www.w3.org/2000/svg">
<path d="M5 3V48.3676C5 49.0701 5.3686 49.7212 5.97101 50.0826L12.1537 53.7922C12.3823 53.9294 12.63 54.0187 12.8939 54.0559C20.0731 55.0689 35.3248 56.8927 42 56.5C48.8 56.1 50.1667 51 50 48.5V3C50 1.89543 49.1046 1 48 1H7C5.89543 1 5 1.89543 5 3Z" fill="#30AB5E"/>
<path d="M35.092 47.5H1.96906C1.43833 47.5 0.995427 47.9187 1.00066 48.4494C1.06391 54.86 5.6368 56.5 8.02307 56.5H40.4698C40.5052 56.5 40.5406 56.4965 40.5753 56.4896C41.1428 56.376 41.2035 55.3927 40.6989 55.1092C37.7942 53.4772 36.5323 50.4686 36.146 48.4213C36.0487 47.9058 35.6166 47.5 35.092 47.5Z" fill="#E0EBE4"/>
<path d="M9.55142 47.5V3C9.55142 1.89543 10.4468 1 11.5514 1H52.5514C53.656 1 54.5514 1.89543 54.5514 3V48.5C54.5514 51.3333 52.6514 56.9 45.0514 56.5C39.0554 56.1844 36.8148 52.5285 36.2179 49.6079C35.9875 48.4805 35.0811 47.5 33.9303 47.5H2.85194C1.82842 47.5 0.951822 48.2766 1.03059 49.2971C1.27592 52.4752 3.07064 56.5 9.05127 56.5C16.2513 56.5 34.8334 56.49 44 56.49" stroke="#30AB5E" stroke-linecap="round" stroke-linejoin="round"/>
<path d="M22.7059 20.1176L18 25.4118L22.7059 30.7059" stroke="white" stroke-linecap="round" stroke-linejoin="round"/>
<path d="M33.2941 20.1176L38 25.4118L33.2941 30.7059" stroke="white" stroke-linecap="round" stroke-linejoin="round"/>
<path d="M29.7647 16L26.2353 36" stroke="white" stroke-linecap="round" stroke-linejoin="round"/>
<path d="M48.0599 41.9961L42.095 45.5375C41.3263 45.994 40.3907 45.2893 40.6171 44.4244L42.1252 38.664C42.1533 38.5567 42.1991 38.4547 42.2607 38.3624L59.2149 12.9429C59.3447 12.7482 59.5401 12.6026 59.7669 12.5448C63.8889 11.495 64.9303 14.3493 64.9476 16.1721C64.9493 16.3506 64.8909 16.5224 64.793 16.6717L48.3856 41.6847C48.3021 41.8119 48.1908 41.9184 48.0599 41.9961Z" fill="white"/>
<path d="M43.2935 38.5344L47.6365 40.9417C48.0897 41.1929 48.6598 41.0562 48.9499 40.6268L62.5089 20.5527C62.823 20.0877 62.6931 19.4553 62.221 19.1518L57.8888 16.3666C57.429 16.071 56.817 16.1994 56.5147 16.6549L42.9451 37.1069C42.6224 37.5933 42.7831 38.2515 43.2935 38.5344Z" fill="white"/>
<path d="M48.2588 41.878L40 46.7814L42.1677 38.5019L59.4158 12.6416C64.0505 11.2703 65.0314 14.605 64.9425 16.4437L48.2588 41.878Z" stroke="#30AB5E" stroke-linecap="round" stroke-linejoin="round"/>
</svg>
