<svg width="64" height="58" viewBox="0 0 64 58" fill="none" xmlns="http://www.w3.org/2000/svg">
<path d="M31.8236 1C20.4546 1 15.274 9.82915 14.1048 14.2437C1.103 13.2762 -0.529792 24.8266 2.0101 31.0554C4.04201 36.0384 9.62978 37.5261 12.1697 37.647H48.3329C53.1506 38.0905 62.7135 36.3529 62.4233 25.8547C62.133 15.3564 53.3925 13.7398 49.0586 14.2437C48.0507 9.82915 43.1926 1 31.8236 1Z" fill="#30AB5E" stroke="#30AB5E" stroke-width="1.21277" stroke-linecap="round" stroke-linejoin="round"/>
<path d="M11.4418 51.6612H19.7267V39.8084" stroke="#30AB5E" stroke-width="1.96552" stroke-linecap="round" stroke-linejoin="round"/>
<path d="M51.7177 51.6612H43.4328V39.8084" stroke="#30AB5E" stroke-width="1.96552" stroke-linecap="round" stroke-linejoin="round"/>
<path d="M31.0961 51.6612V39.8084" stroke="#30AB5E" stroke-width="1.96552" stroke-linecap="round" stroke-linejoin="round"/>
<circle cx="7.77306" cy="51.9363" r="5.45745" fill="white" stroke="#30AB5E" stroke-width="1.21277"/>
<circle cx="30.816" cy="51.9363" r="5.45745" fill="white" stroke="#30AB5E" stroke-width="1.21277"/>
<circle cx="53.8581" cy="51.9363" r="5.45745" fill="white" stroke="#30AB5E" stroke-width="1.21277"/>
</svg>
