<svg width="52" height="53" viewBox="0 0 52 53" fill="none" xmlns="http://www.w3.org/2000/svg">
<path d="M14 28C18 22.8333 28.5 15.6 38.5 28C34.5 32.8333 24 39.6 14 28Z" fill="#30AB5E" stroke="#30AB5E"/>
<circle cx="26" cy="28" r="6.5" fill="#F4FFF8" stroke="#30AB5E"/>
<circle cx="26" cy="28" r="2.5" fill="#30AB5E" stroke="#30AB5E"/>
<path d="M1 18V3C1 1.89543 1.89543 1 3 1H18" stroke="#30AB5E" stroke-linecap="round"/>
<path d="M51 35.5L51 50.5C51 51.6046 50.1046 52.5 49 52.5L34 52.5" stroke="#30AB5E" stroke-linecap="round"/>
<path d="M51 18V3C51 1.89543 50.1046 1 49 1H34" stroke="#30AB5E" stroke-linecap="round"/>
<path d="M1 35.5L1 50.5C1 51.6046 1.89543 52.5 3 52.5L18 52.5" stroke="#30AB5E" stroke-linecap="round"/>
</svg>
