<svg width="57" height="47" viewBox="0 0 57 47" fill="none" xmlns="http://www.w3.org/2000/svg">
<path d="M6 27.8086C7.2 28.2108 10.1667 27.6411 11.5 27.3059L49 27.8086H49.5H50.5H52.5C53 27.8086 53 27.3059 53.5 27.3059C53.9 27.3059 54.3333 26.3004 54.5 25.7977L55.5 24.7922C55.6667 24.6247 56 24.189 56 23.7868V22.7813V21.7758L55.5 19.2622C55.1667 18.927 54.5 18.1562 54.5 17.754C54.5 17.3518 53.5 16.9161 53 16.7485L51.5 16.2458H49.5L46 17.2513L47 14.7376V11.7212V9.20753L46 6.69387L44 4.18021L41 2.16928L37.5 1.16382H33L30 2.16928L26 4.68294L24.5 7.69934L23.5 10.7157L21.5 8.7048L19.5 8.20207H17L13.5 9.71027L11.5 11.7212L11 15.7431V17.2513L8.5 15.7431H6L4 16.7485L2 18.2567L1 20.2676C1 20.6028 1.1 21.6753 1.5 23.284C2 25.295 4.5 27.3059 6 27.8086Z" fill="#F4FFF8"/>
<path d="M7.51904 27.7772C5.51904 27.9448 1.41904 26.9728 1.01904 21.7444C0.519041 15.2089 10.019 13.7007 11.519 18.728C10.6857 16.7171 10.119 11.9915 14.519 9.17621C18.919 6.36091 22.3524 9.00863 23.519 10.6844C24.019 6.66248 27.919 -0.778077 39.519 1.63504C43.3524 2.80811 50.019 7.66792 46.019 17.7226C48.019 16.2144 52.719 14.5051 55.519 19.7335C57.1344 22.7499 55.819 28.5815 49.019 27.7772" stroke="#30AB5E" stroke-linecap="round" stroke-linejoin="round"/>
<path d="M11.3427 18.2462C11.41 18.3996 11.469 18.5601 11.519 18.728C11.4582 18.5813 11.3988 18.4201 11.3427 18.2462Z" fill="#F4FFF8"/>
<rect x="10.0195" y="25.7637" width="36" height="9.05465" rx="2.5" fill="#30AB5E" stroke="#30AB5E"/>
<rect x="10.0195" y="36.8237" width="36" height="9.05465" rx="2.5" fill="#30AB5E" stroke="#30AB5E"/>
<path d="M13.5195 30.291H32.0195" stroke="white" stroke-linecap="round" stroke-linejoin="round"/>
<path d="M13.5195 41.3511H32.0195" stroke="white" stroke-linecap="round" stroke-linejoin="round"/>
<path d="M34.5195 30.291H37.5195" stroke="white" stroke-linecap="round" stroke-linejoin="round"/>
<path d="M34.5195 41.3511H37.5195" stroke="white" stroke-linecap="round" stroke-linejoin="round"/>
<ellipse cx="41.5195" cy="30.2912" rx="2" ry="2.01093" fill="white"/>
<ellipse cx="41.5195" cy="41.3513" rx="2" ry="2.01093" fill="white"/>
<path d="M23.2267 15.3593C23.1015 15.234 22.8985 15.234 22.7733 15.3593L20.7329 17.3997C20.6077 17.5249 20.6077 17.7279 20.7329 17.8531C20.8581 17.9783 21.0611 17.9783 21.1863 17.8531L23 16.0394L24.8137 17.8531C24.9389 17.9783 25.1419 17.9783 25.2671 17.8531C25.3923 17.7279 25.3923 17.5249 25.2671 17.3997L23.2267 15.3593ZM23.3206 21.8701L23.3206 15.586L22.6794 15.586L22.6794 21.8701L23.3206 21.8701Z" fill="#30AB5E"/>
<path d="M32.7733 22.0968C32.8985 22.222 33.1015 22.222 33.2267 22.0968L35.2671 20.0564C35.3923 19.9312 35.3923 19.7282 35.2671 19.603C35.1419 19.4778 34.9389 19.4778 34.8137 19.603L33 21.4167L31.1863 19.603C31.0611 19.4778 30.8581 19.4778 30.7329 19.603C30.6077 19.7282 30.6077 19.9312 30.7329 20.0564L32.7733 22.0968ZM32.6794 15.5859L32.6794 21.8701L33.3206 21.8701L33.3206 15.5859L32.6794 15.5859Z" fill="#30AB5E"/>
</svg>
