<svg width="39" height="39" viewBox="0 0 39 39" fill="none" xmlns="http://www.w3.org/2000/svg">
<path d="M37.7703 28.5305V34.0661C37.7724 34.5799 37.6669 35.0886 37.4606 35.5595C37.2543 36.0303 36.9518 36.453 36.5724 36.8004C36.1929 37.1478 35.745 37.4123 35.2572 37.5769C34.7695 37.7416 34.2526 37.8027 33.7398 37.7564C28.0505 37.1395 22.5856 35.1993 17.7841 32.0917C13.317 29.2587 9.52962 25.4788 6.691 21.0205C3.56639 16.2068 1.62188 10.7262 1.01501 5.0227C0.968805 4.51245 1.02957 3.99818 1.19342 3.51264C1.35728 3.0271 1.62064 2.58094 1.96674 2.20255C2.31283 1.82416 2.73408 1.52183 3.20367 1.31483C3.67325 1.10782 4.18088 1.00066 4.69423 1.00018H10.2408C11.1381 0.991365 12.0079 1.30847 12.6883 1.89239C13.3686 2.47631 13.8129 3.2872 13.9385 4.17391C14.1726 5.94542 14.6068 7.68481 15.2327 9.35891C15.4815 10.0193 15.5353 10.7371 15.3878 11.4272C15.2404 12.1172 14.8978 12.7506 14.4007 13.2523L12.0527 15.5957C14.6846 20.2152 18.5171 24.0401 23.1458 26.6668L25.4939 24.3234C25.9966 23.8273 26.6312 23.4854 27.3226 23.3383C28.014 23.1911 28.7332 23.2448 29.395 23.4931C31.0724 24.1178 32.8152 24.5511 34.5903 24.7847C35.4884 24.9112 36.3086 25.3627 36.8949 26.0533C37.4812 26.7439 37.7928 27.6255 37.7703 28.5305Z" fill="#30AB5E" stroke="#F4FFF8" stroke-linecap="round" stroke-linejoin="round"/>
</svg>
