<svg width="812" height="528" viewBox="0 0 812 528" fill="none" xmlns="http://www.w3.org/2000/svg">
<path d="M730.101 473.331H676.435V473.606H730.101V473.331Z" fill="#EBEBEB"/>
<path d="M537.651 479.944H523.546V480.221H537.651V479.944Z" fill="#EBEBEB"/>
<path d="M674.814 460.653H643.685V460.929H674.814V460.653Z" fill="#EBEBEB"/>
<path d="M155.831 462.858H85.7904V463.134H155.831V462.858Z" fill="#EBEBEB"/>
<path d="M180.474 462.858H170.26V463.134H180.474V462.858Z" fill="#EBEBEB"/>
<path d="M365.792 468.784H213.875V469.059H365.792V468.784Z" fill="#EBEBEB"/>
<path d="M384.923 389.688H71.8475C66.8214 389.688 62.606 386.106 62.606 381.834V7.8544C62.606 3.58271 66.8214 0 71.8475 0H384.923C389.95 0 394.165 3.58271 394.165 7.8544V381.834C394.165 386.243 390.112 389.688 384.923 389.688ZM71.8475 0.275593C66.9835 0.275593 62.9302 3.58271 62.9302 7.8544V381.834C62.9302 385.968 66.8214 389.413 71.8475 389.413H384.923C389.787 389.413 393.841 386.106 393.841 381.834V7.8544C393.841 3.7205 389.95 0.275593 384.923 0.275593H71.8475Z" fill="#30AB5E"/>
<path d="M735.613 389.688H422.537C417.511 389.688 413.296 386.106 413.296 381.834V7.8544C413.296 3.58271 417.511 0 422.537 0H735.613C740.639 0 744.855 3.58271 744.855 7.8544V381.834C744.855 386.243 740.802 389.688 735.613 389.688ZM422.537 0.275593C417.673 0.275593 413.62 3.58271 413.62 7.8544V381.834C413.62 385.968 417.511 389.413 422.537 389.413H735.613C740.477 389.413 744.531 386.106 744.531 381.834V7.8544C744.531 3.7205 740.639 0.275593 735.613 0.275593H422.537Z" fill="#30AB5E"/>
<path d="M811.329 451.145H0.671387V451.421H811.329V451.145Z" fill="#EBEBEB"/>
<path d="M676.436 288.683H432.752L434.373 274.628H678.057L676.436 288.683Z" fill="#B4DCC3"/>
<path d="M636.389 288.683H408.594L410.215 274.628H638.172L636.389 288.683Z" fill="#FCFFFD"/>
<path d="M679.029 293.781H407.297L410.215 269.116H682.11L679.029 293.781ZM408.756 291.025H678.219L680.489 272.01H411.026L408.756 291.025Z" fill="#CAEED8"/>
<path d="M417.511 287.305H410.702L412.161 276.006H418.97L417.511 287.305Z" fill="#CAEED8"/>
<path d="M425.942 287.305H419.133L420.43 276.005H427.402L425.942 287.305Z" fill="#CAEED8"/>
<path d="M434.373 287.305H427.401L428.86 276.005H435.67L434.373 287.305Z" fill="#CAEED8"/>
<path d="M442.642 287.305H435.832L437.291 276.005H444.101L442.642 287.305Z" fill="#CAEED8"/>
<path d="M451.073 287.305H444.263L445.56 276.005H452.37L451.073 287.305Z" fill="#CAEED8"/>
<path d="M459.341 287.305H452.531L453.99 276.005H460.8L459.341 287.305Z" fill="#CAEED8"/>
<path d="M467.772 287.305H460.962L462.259 276.005H469.231L467.772 287.305Z" fill="#CAEED8"/>
<path d="M476.203 287.305H469.231L470.691 276.005H477.5L476.203 287.305Z" fill="#CAEED8"/>
<path d="M484.471 287.305H477.662L478.959 276.005H485.93L484.471 287.305Z" fill="#CAEED8"/>
<path d="M492.902 287.305H485.93L487.39 276.005H494.199L492.902 287.305Z" fill="#CAEED8"/>
<path d="M501.171 287.305H494.362L495.821 276.005H502.63L501.171 287.305Z" fill="#CAEED8"/>
<path d="M509.601 287.305H502.792L504.089 276.005H511.061L509.601 287.305Z" fill="#CAEED8"/>
<path d="M518.033 287.305H511.061L512.52 276.005H519.33L518.033 287.305Z" fill="#CAEED8"/>
<path d="M526.302 287.305H519.492L520.789 276.005H527.761L526.302 287.305Z" fill="#CAEED8"/>
<path d="M534.732 287.305H527.761L529.22 276.005H536.029L534.732 287.305Z" fill="#CAEED8"/>
<path d="M543.001 287.305H536.191L537.65 276.005H544.46L543.001 287.305Z" fill="#CAEED8"/>
<path d="M551.432 287.305H544.622L545.919 276.005H552.891L551.432 287.305Z" fill="#CAEED8"/>
<path d="M559.863 287.305H552.891L554.351 276.005H561.16L559.863 287.305Z" fill="#CAEED8"/>
<path d="M568.131 287.305H561.322L562.619 276.005H569.59L568.131 287.305Z" fill="#CAEED8"/>
<path d="M576.563 287.305H569.591L571.05 276.005H577.86L576.563 287.305Z" fill="#CAEED8"/>
<path d="M584.831 287.305H578.021L579.481 276.005H586.29L584.831 287.305Z" fill="#CAEED8"/>
<path d="M593.261 287.305H586.452L587.749 276.005H594.721L593.261 287.305Z" fill="#CAEED8"/>
<path d="M601.693 287.305H594.721L596.18 276.005H602.99L601.693 287.305Z" fill="#CAEED8"/>
<path d="M609.962 287.305H603.152L604.449 276.005H611.421L609.962 287.305Z" fill="#CAEED8"/>
<path d="M618.392 287.305H611.42L612.879 276.005H619.689L618.392 287.305Z" fill="#CAEED8"/>
<path d="M626.661 287.305H619.852L621.311 276.005H628.12L626.661 287.305Z" fill="#CAEED8"/>
<path d="M635.092 287.305H628.282L629.579 276.005H636.551L635.092 287.305Z" fill="#CAEED8"/>
<path d="M712.429 293.368H686.001L688.271 270.907H695.891L695.729 272.836H690.379L688.433 291.439H710.483L712.267 272.836H706.916L707.078 270.907H714.861L712.429 293.368Z" fill="#CAEED8"/>
<path d="M701.565 282.207H699.295L701.565 260.71H703.673L701.565 282.207Z" fill="#CAEED8"/>
<path d="M709.186 265.257L702.538 261.812L694.918 264.982L693.945 263.19L702.701 259.608L710.483 263.604L709.186 265.257Z" fill="#CAEED8"/>
<path d="M697.351 225.986H453.667L455.451 211.931H699.134L697.351 225.986Z" fill="#B4DCC3"/>
<path d="M674.49 225.986H429.509L431.292 211.931H676.111L674.49 225.986Z" fill="#FCFFFD"/>
<path d="M700.107 231.222H428.212L431.13 206.557H703.025L700.107 231.222ZM429.833 228.328H699.296L701.566 209.313H432.103L429.833 228.328Z" fill="#CAEED8"/>
<path d="M438.589 224.608H431.779L433.076 213.309H440.048L438.589 224.608Z" fill="#CAEED8"/>
<path d="M447.02 224.608H440.048L441.507 213.308H448.317L447.02 224.608Z" fill="#CAEED8"/>
<path d="M455.288 224.608H448.478L449.937 213.308H456.747L455.288 224.608Z" fill="#CAEED8"/>
<path d="M463.719 224.608H456.91L458.207 213.308H465.178L463.719 224.608Z" fill="#CAEED8"/>
<path d="M472.15 224.608H465.179L466.638 213.308H473.447L472.15 224.608Z" fill="#CAEED8"/>
<path d="M480.418 224.608H473.609L474.906 213.308H481.878L480.418 224.608Z" fill="#CAEED8"/>
<path d="M488.849 224.608H481.877L483.337 213.308H490.146L488.849 224.608Z" fill="#CAEED8"/>
<path d="M497.118 224.608H490.309L491.768 213.308H498.577L497.118 224.608Z" fill="#CAEED8"/>
<path d="M505.549 224.608H498.739L500.036 213.308H507.008L505.549 224.608Z" fill="#CAEED8"/>
<path d="M513.98 224.608H507.008L508.467 213.308H515.277L513.98 224.608Z" fill="#CAEED8"/>
<path d="M522.248 224.608H515.439L516.736 213.308H523.708L522.248 224.608Z" fill="#CAEED8"/>
<path d="M530.68 224.608H523.708L525.167 213.308H531.977L530.68 224.608Z" fill="#CAEED8"/>
<path d="M538.948 224.608H532.138L533.597 213.308H540.407L538.948 224.608Z" fill="#CAEED8"/>
<path d="M547.379 224.608H540.569L541.866 213.308H548.838L547.379 224.608Z" fill="#CAEED8"/>
<path d="M555.81 224.608H548.839L550.298 213.308H557.107L555.81 224.608Z" fill="#CAEED8"/>
<path d="M564.078 224.608H557.269L558.566 213.308H565.537L564.078 224.608Z" fill="#CAEED8"/>
<path d="M572.509 224.608H565.537L566.997 213.308H573.806L572.509 224.608Z" fill="#CAEED8"/>
<path d="M580.778 224.608H573.969L575.428 213.308H582.237L580.778 224.608Z" fill="#CAEED8"/>
<path d="M589.209 224.608H582.399L583.696 213.308H590.668L589.209 224.608Z" fill="#CAEED8"/>
<path d="M597.64 224.608H590.668L592.127 213.308H598.937L597.64 224.608Z" fill="#CAEED8"/>
<path d="M605.909 224.608H599.099L600.396 213.308H607.368L605.909 224.608Z" fill="#CAEED8"/>
<path d="M614.339 224.608H607.367L608.826 213.308H615.636L614.339 224.608Z" fill="#CAEED8"/>
<path d="M622.608 224.608H615.798L617.257 213.308H624.067L622.608 224.608Z" fill="#CAEED8"/>
<path d="M631.039 224.608H624.229L625.527 213.308H632.498L631.039 224.608Z" fill="#CAEED8"/>
<path d="M639.469 224.608H632.498L633.957 213.308H640.766L639.469 224.608Z" fill="#CAEED8"/>
<path d="M647.738 224.608H640.929L642.226 213.308H649.198L647.738 224.608Z" fill="#CAEED8"/>
<path d="M656.169 224.608H649.197L650.657 213.308H657.466L656.169 224.608Z" fill="#CAEED8"/>
<path d="M664.437 224.608H657.628L659.087 213.308H665.896L664.437 224.608Z" fill="#CAEED8"/>
<path d="M672.868 224.608H666.059L667.356 213.308H674.166L672.868 224.608Z" fill="#CAEED8"/>
<path d="M733.343 230.809H706.916L709.186 208.348H716.806L716.644 210.277H711.294L709.348 229.017H731.398L733.181 210.277H727.831L727.993 208.348H735.613L733.343 230.809Z" fill="#CAEED8"/>
<path d="M722.48 219.647H720.211L722.48 198.151H724.75L722.48 219.647Z" fill="#CAEED8"/>
<path d="M721.184 220.75L713.239 217.029L714.374 215.376L721.346 218.545L728.804 214.963L729.777 216.616L721.184 220.75Z" fill="#CAEED8"/>
<path d="M113.676 177.758L113.514 179.687H312.45L312.612 177.758H113.676Z" fill="#E9F4EC"/>
<path opacity="0.2" d="M312.612 177.758H113.676L113.514 179.687H312.45L312.612 177.758Z" fill="#E9F4EC"/>
<path d="M314.881 156.261H116.108L128.106 39.5477H326.879L314.881 156.261Z" fill="#E2F3E9"/>
<path d="M121.62 202.286C115.946 202.286 111.892 198.427 112.379 193.604C112.865 188.782 117.891 184.923 123.404 184.923C129.078 184.923 133.132 188.782 132.645 193.604C132.159 198.427 127.133 202.286 121.62 202.286Z" fill="#DCF8E6"/>
<path d="M214.035 170.592H114.649L115.459 163.151H214.846L214.035 170.592Z" fill="#E2F3E9"/>
<path d="M310.504 197.324H272.078L272.889 189.883H311.314L310.504 197.324Z" fill="#DCF8E6"/>
<path d="M313.422 170.592H304.667L305.316 163.151H314.233L313.422 170.592Z" fill="#E2F3E9"/>
<path d="M298.507 170.592H289.752L290.562 163.151H299.317L298.507 170.592Z" fill="#E2F3E9"/>
<path d="M283.59 170.592H274.835L275.646 163.151H284.401L283.59 170.592Z" fill="#E2F3E9"/>
<path opacity="0.5" d="M327.689 32.3822H178.528L179.177 26.0437H328.338L327.689 32.3822Z" fill="#E9F4EC"/>
<path d="M166.855 32.9336H128.43L129.241 25.4926H167.504L166.855 32.9336Z" fill="#E2F3E9"/>
<path d="M211.441 71.103L246.786 94.804L206.577 118.505L211.441 71.103Z" fill="white"/>
<path d="M299.966 147.855L140.266 150.06L140.59 146.477H307.424L299.966 147.855Z" fill="#DCF8E6"/>
<path d="M291.372 150.06H123.728L124.052 146.477H291.696L291.372 150.06Z" fill="white"/>
<path d="M309.207 151.3H123.242L123.891 145.1H309.856L309.207 151.3ZM124.053 150.611H308.396L308.883 145.926H124.539L124.053 150.611Z" fill="#DCF8E6"/>
<path d="M406 527.209C579.623 527.209 720.373 520.238 720.373 511.638C720.373 503.038 579.623 496.067 406 496.067C232.376 496.067 91.6266 503.038 91.6266 511.638C91.6266 520.238 232.376 527.209 406 527.209Z" fill="#D9ECE0"/>
<path d="M655.034 461.618C655.034 461.618 643.685 440.535 656.655 419.728C669.626 398.921 673.517 393.96 665.086 389.688C656.817 385.417 652.926 406.362 652.926 406.362C652.926 406.362 645.954 392.031 651.629 376.873C657.466 361.853 661.033 337.326 653.088 334.57C645.144 331.952 651.629 365.161 644.82 376.46C644.82 376.46 639.145 363.783 638.172 351.794C637.199 339.668 638.659 320.377 632.498 315.416C626.337 310.455 622.283 313.9 628.444 340.633C634.605 367.365 634.443 388.999 634.443 388.999C634.443 388.999 620.986 353.999 611.907 352.897C602.828 351.932 602.828 363.231 610.61 373.015C618.392 382.799 633.308 400.436 635.74 409.531C635.74 409.531 620.824 383.212 607.529 391.204C594.235 399.334 619.203 415.181 630.228 420.968C641.415 426.756 649.035 462.72 649.035 462.72L655.034 461.618Z" fill="#30AB5E"/>
<path opacity="0.2" d="M655.034 461.618C655.034 461.618 643.685 440.535 656.655 419.728C669.626 398.921 673.517 393.96 665.086 389.688C656.817 385.417 652.926 406.362 652.926 406.362C652.926 406.362 645.954 392.031 651.629 376.873C657.466 361.853 661.033 337.326 653.088 334.57C645.144 331.952 651.629 365.161 644.82 376.46C644.82 376.46 639.145 363.783 638.172 351.794C637.199 339.668 638.659 320.377 632.498 315.416C626.337 310.455 622.283 313.9 628.444 340.633C634.605 367.365 634.443 388.999 634.443 388.999C634.443 388.999 620.986 353.999 611.907 352.897C602.828 351.932 602.828 363.231 610.61 373.015C618.392 382.799 633.308 400.436 635.74 409.531C635.74 409.531 620.824 383.212 607.529 391.204C594.235 399.334 619.203 415.181 630.228 420.968C641.415 426.756 649.035 462.72 649.035 462.72L655.034 461.618Z" fill="black"/>
<path d="M645.954 470.161C645.954 470.161 656.979 448.941 643.684 428.271C630.39 407.602 626.499 402.779 634.767 398.369C643.036 393.96 647.089 414.905 647.089 414.905C647.089 414.905 653.899 400.436 647.9 385.416C641.901 370.397 638.01 345.869 645.792 343.251C653.574 340.495 647.738 373.841 654.709 385.141C654.709 385.141 660.222 372.463 661.033 360.337C661.843 348.211 660.06 328.92 666.221 323.821C672.382 318.723 676.435 322.168 670.598 348.9C664.924 375.633 665.248 397.405 665.248 397.405C665.248 397.405 678.218 362.267 687.298 361.026C696.377 359.924 696.539 371.223 688.919 381.145C681.299 391.066 666.545 408.842 664.275 417.936C664.275 417.936 678.705 391.342 692.162 399.334C705.619 407.188 680.813 423.448 669.788 429.374C658.763 435.299 651.467 471.401 651.467 471.401L645.954 470.161Z" fill="#30AB5E"/>
<path d="M697.188 455.004H605.583L612.879 510.811H689.729L697.188 455.004Z" fill="#9FC6AD"/>
<path d="M453.343 290.337L468.259 257.266H465.989L449.938 290.337H453.343Z" fill="#154B2A"/>
<path d="M459.017 290.475L477.663 266.774L475.879 266.36L456.423 290.061L459.017 290.475Z" fill="#154B2A"/>
<path d="M388.165 290.198L373.249 257.128H375.519L391.57 290.198H388.165Z" fill="#154B2A"/>
<path d="M382.491 290.474L363.846 266.636L365.629 266.222L385.085 289.923L382.491 290.474Z" fill="#154B2A"/>
<path d="M423.673 286.616H420.43L421.241 249.136H422.7L423.673 286.616Z" fill="#154B2A"/>
<path d="M388.814 290.199L389.625 291.714H391.733L391.084 290.199H388.814Z" fill="#154B2A"/>
<path d="M452.857 290.199L452.046 291.714H449.776L450.425 290.199H452.857Z" fill="#154B2A"/>
<path d="M383.14 290.337L384.112 291.991H386.382L384.437 290.061L383.14 290.337Z" fill="#154B2A"/>
<path d="M458.531 290.337L457.396 291.991H455.288L457.072 290.061L458.531 290.337Z" fill="#154B2A"/>
<path d="M420.917 286.617V289.648H423.187V286.617H420.917Z" fill="#154B2A"/>
<path d="M394.165 300.396H384.923V305.356H394.165V300.396Z" fill="#154B2A"/>
<path d="M456.91 300.396H447.669V305.356H456.91V300.396Z" fill="#154B2A"/>
<path d="M460.153 302.463L440.048 304.392C427.24 305.632 414.432 305.632 401.785 304.392L381.681 302.6V291.99L398.056 290.199C413.297 288.545 428.699 288.545 443.939 290.199L460.315 291.99V302.463H460.153Z" fill="#30AB5E"/>
<path d="M393.354 297.502C393.354 299.293 391.733 300.671 389.625 300.671C387.517 300.671 385.896 299.293 385.896 297.502C385.896 295.711 387.517 294.333 389.625 294.333C391.571 294.333 393.354 295.711 393.354 297.502Z" fill="white"/>
<path d="M391.732 297.502C391.732 298.604 390.76 299.431 389.463 299.431C388.166 299.431 387.193 298.604 387.193 297.502C387.193 296.399 388.166 295.573 389.463 295.573C390.76 295.71 391.732 296.537 391.732 297.502Z" fill="#30AB5E"/>
<path d="M410.54 297.503C410.54 298.054 410.053 298.467 409.405 298.467C408.756 298.467 408.27 298.054 408.27 297.503C408.27 296.951 408.756 296.538 409.405 296.538C410.053 296.538 410.54 296.951 410.54 297.503Z" fill="white"/>
<path d="M414.755 297.502C414.755 298.053 414.269 298.467 413.62 298.467C412.972 298.467 412.485 298.053 412.485 297.502C412.485 296.951 412.972 296.538 413.62 296.538C414.269 296.538 414.755 296.951 414.755 297.502Z" fill="white"/>
<path d="M418.971 297.502C418.971 298.053 418.485 298.467 417.836 298.467C417.188 298.467 416.701 298.053 416.701 297.502C416.701 296.951 417.188 296.538 417.836 296.538C418.485 296.538 418.971 296.951 418.971 297.502Z" fill="white"/>
<path d="M423.186 297.502C423.186 298.053 422.699 298.467 422.051 298.467C421.402 298.467 420.916 298.053 420.916 297.502C420.916 296.951 421.402 296.538 422.051 296.538C422.699 296.538 423.186 296.951 423.186 297.502Z" fill="white"/>
<path d="M427.402 297.502C427.402 298.053 426.915 298.467 426.267 298.467C425.618 298.467 425.132 298.053 425.132 297.502C425.132 296.951 425.618 296.538 426.267 296.538C426.915 296.538 427.402 296.951 427.402 297.502Z" fill="white"/>
<path d="M431.617 297.502C431.617 298.053 431.131 298.467 430.482 298.467C429.833 298.467 429.347 298.053 429.347 297.502C429.347 296.951 429.833 296.538 430.482 296.538C431.131 296.538 431.617 296.951 431.617 297.502Z" fill="white"/>
<path d="M435.833 297.502C435.833 298.053 435.346 298.467 434.698 298.467C434.049 298.467 433.563 298.053 433.563 297.502C433.563 296.951 434.049 296.538 434.698 296.538C435.184 296.538 435.833 296.951 435.833 297.502Z" fill="white"/>
<path d="M320.395 305.908H356.064L355.253 302.601C351.524 293.919 332.068 293.919 332.068 293.919C327.204 294.195 322.503 298.053 321.206 303.427L320.395 305.908Z" fill="#C6EED5"/>
<path d="M292.832 269.255H260.406L264.621 301.086H300.452L292.832 269.255Z" fill="#263238"/>
<path d="M306.613 305.081H304.992V305.495H244.355V301.085H300.452L292.832 269.255H260.406L258.622 255.751C258.784 253.959 260.568 252.443 262.676 252.443H290.562C292.67 252.443 294.453 253.959 294.615 255.751L306.613 305.081Z" fill="#263238"/>
<path d="M300.29 301.086H264.621L260.73 271.735L260.406 269.255H292.832L300.29 301.086Z" fill="#30AB5E"/>
<path opacity="0.1" d="M261.865 279.865L260.406 269.255H297.858L300.452 279.865H261.865Z" fill="black"/>
<path d="M206.579 302.05H202.364C201.877 302.05 201.553 301.774 201.553 301.361V297.916C201.553 297.503 201.877 297.227 202.364 297.227H205.444C205.768 297.227 206.093 297.365 206.255 297.641L207.39 301.085C207.39 301.637 207.065 302.05 206.579 302.05Z" fill="#263238"/>
<path d="M212.416 302.05H208.201C207.714 302.05 207.39 301.775 207.39 301.361V297.916C207.39 297.503 207.714 297.227 208.201 297.227H211.281C211.605 297.227 211.93 297.365 212.092 297.641L213.227 301.086C213.389 301.637 212.902 302.05 212.416 302.05Z" fill="#263238"/>
<path d="M218.253 302.05H214.038C213.551 302.05 213.227 301.775 213.227 301.361V297.916C213.227 297.503 213.551 297.227 214.038 297.227H217.118C217.442 297.227 217.767 297.365 217.929 297.641L219.064 301.086C219.226 301.637 218.74 302.05 218.253 302.05Z" fill="#263238"/>
<path d="M224.089 302.05H219.874C219.387 302.05 219.063 301.775 219.063 301.361V297.916C219.063 297.503 219.387 297.227 219.874 297.227H222.954C223.279 297.227 223.603 297.365 223.765 297.641L224.9 301.086C225.062 301.637 224.738 302.05 224.089 302.05Z" fill="#263238"/>
<path d="M230.088 302.05H225.873C225.386 302.05 225.062 301.775 225.062 301.361V297.916C225.062 297.503 225.386 297.227 225.873 297.227H228.953C229.278 297.227 229.602 297.365 229.764 297.641L230.899 301.086C230.899 301.637 230.575 302.05 230.088 302.05Z" fill="#263238"/>
<path d="M235.925 302.05H231.71C231.224 302.05 230.899 301.775 230.899 301.361V297.916C230.899 297.503 231.224 297.227 231.71 297.227H234.79C235.115 297.227 235.439 297.365 235.601 297.641L236.736 301.086C236.736 301.637 236.412 302.05 235.925 302.05Z" fill="#263238"/>
<path d="M241.762 302.05H237.547C237.06 302.05 236.736 301.775 236.736 301.361V297.916C236.736 297.503 237.06 297.227 237.547 297.227H240.627C240.951 297.227 241.276 297.365 241.438 297.641L242.573 301.086C242.735 301.637 242.248 302.05 241.762 302.05Z" fill="#263238"/>
<path d="M247.598 302.05H243.383C242.896 302.05 242.572 301.775 242.572 301.361V297.916C242.572 297.503 242.896 297.227 243.383 297.227H246.463C246.788 297.227 247.112 297.365 247.274 297.641L248.409 301.086C248.571 301.637 248.085 302.05 247.598 302.05Z" fill="#263238"/>
<path d="M253.435 302.05H249.22C248.734 302.05 248.409 301.775 248.409 301.361V297.916C248.409 297.503 248.734 297.227 249.22 297.227H252.3C252.625 297.227 252.949 297.365 253.111 297.641L254.246 301.086C254.408 301.637 254.084 302.05 253.435 302.05Z" fill="#263238"/>
<path d="M259.434 302.05H255.219C254.732 302.05 254.408 301.775 254.408 301.361V297.916C254.408 297.503 254.732 297.227 255.219 297.227H258.299C258.624 297.227 258.948 297.365 259.11 297.641L260.245 301.086C260.245 301.637 259.921 302.05 259.434 302.05Z" fill="#263238"/>
<path d="M265.271 302.05H261.056C260.57 302.05 260.245 301.775 260.245 301.361V297.916C260.245 297.503 260.57 297.227 261.056 297.227H264.136C264.461 297.227 264.785 297.365 264.947 297.641L266.082 301.086C266.082 301.637 265.758 302.05 265.271 302.05Z" fill="#263238"/>
<path d="M271.108 302.05H266.892C266.406 302.05 266.081 301.775 266.081 301.361V297.916C266.081 297.503 266.406 297.227 266.892 297.227H269.973C270.297 297.227 270.621 297.365 270.783 297.641L271.918 301.086C272.08 301.637 271.594 302.05 271.108 302.05Z" fill="#263238"/>
<path d="M276.944 302.05H272.729C272.242 302.05 271.918 301.775 271.918 301.361V297.916C271.918 297.503 272.242 297.227 272.729 297.227H275.809C276.134 297.227 276.458 297.365 276.62 297.641L277.755 301.086C277.917 301.637 277.431 302.05 276.944 302.05Z" fill="#263238"/>
<path d="M282.781 302.05H278.566C278.08 302.05 277.755 301.775 277.755 301.361V297.916C277.755 297.503 278.08 297.227 278.566 297.227H281.646C281.971 297.227 282.295 297.365 282.457 297.641L283.592 301.086C283.754 301.637 283.43 302.05 282.781 302.05Z" fill="#263238"/>
<path d="M288.78 302.05H284.403C283.916 302.05 283.592 301.775 283.592 301.361V297.916C283.592 297.503 283.916 297.227 284.403 297.227H287.483C287.807 297.227 288.132 297.365 288.294 297.641L289.429 301.086C289.591 301.637 289.267 302.05 288.78 302.05Z" fill="#263238"/>
<path d="M292.995 302.326C292.995 303.842 291.374 305.082 289.428 305.082H201.553C199.607 305.082 197.986 303.842 197.986 302.326C197.986 301.499 198.31 300.81 198.959 300.397C199.607 299.984 200.418 299.57 201.391 299.57H289.266C289.59 299.57 289.915 299.57 290.239 299.708C291.86 300.121 292.995 301.086 292.995 302.326Z" fill="#263238"/>
<path opacity="0.2" d="M292.995 302.326C292.995 303.842 291.374 305.082 289.428 305.082H201.553C199.607 305.082 197.986 303.842 197.986 302.326C197.986 301.499 198.31 300.81 198.959 300.397C199.607 299.984 200.418 299.57 201.391 299.57H289.266C289.59 299.57 289.915 299.57 290.239 299.708C291.86 300.121 292.995 301.086 292.995 302.326Z" fill="white"/>
<path d="M292.995 302.326C292.995 303.841 291.374 305.082 289.428 305.082H259.596C258.137 304.668 257.164 303.704 257.164 302.463C257.164 302.326 257.164 302.188 257.164 301.912C257.326 301.361 257.651 300.81 258.137 300.397C258.299 300.259 258.623 300.121 258.948 299.983C259.11 299.983 259.272 299.845 259.434 299.845C259.92 299.708 260.245 299.708 260.731 299.708H290.401C291.86 300.121 292.995 301.085 292.995 302.326Z" fill="#263238"/>
<path d="M355.253 180.1H346.336L336.284 273.113H345.201C346.66 273.113 347.957 271.873 348.119 270.495L357.685 182.718C357.847 181.203 356.712 180.1 355.253 180.1Z" fill="#1C3826"/>
<path d="M341.472 273.113H206.902C205.443 273.113 204.308 271.873 204.471 270.495L214.036 182.718C214.198 181.203 215.495 180.1 216.955 180.1H351.524C352.983 180.1 354.118 181.341 353.956 182.718L344.39 270.495C344.228 271.873 342.931 273.113 341.472 273.113Z" fill="#8BC6A1"/>
<path opacity="0.2" d="M341.472 273.113H206.902C205.443 273.113 204.308 271.873 204.471 270.495L214.036 182.718C214.198 181.203 215.495 180.1 216.955 180.1H351.524C352.983 180.1 354.118 181.341 353.956 182.718L344.39 270.495C344.228 271.873 342.931 273.113 341.472 273.113Z" fill="white"/>
<path d="M337.418 254.373H215.171L221.98 188.644H344.065L337.418 254.373Z" fill="#407BFF"/>
<path d="M335.635 259.608H215.171C211.767 259.608 209.172 257.266 209.497 254.372L216.306 188.919C216.631 186.025 219.549 183.682 222.954 183.682H343.417C346.822 183.682 349.416 186.025 349.092 188.919L342.282 254.372C342.12 257.266 339.04 259.608 335.635 259.608Z" fill="#1C3826"/>
<path d="M337.418 254.373H215.171L221.98 188.644H344.065L337.418 254.373Z" fill="#DFFFEB"/>
<path opacity="0.4" d="M337.418 254.373H215.171L221.98 188.644H344.065L337.418 254.373Z" fill="white"/>
<path d="M249.707 212.481H234.304L235.601 199.253H239.979V200.355H236.736L235.601 211.379H248.572L249.707 200.355H246.464L246.626 199.253H251.004L249.707 212.481Z" fill="#30AB5E" fill-opacity="0.3"/>
<path d="M243.384 205.867H242.087L243.384 193.328H244.681L243.384 205.867Z" fill="#30AB5E" fill-opacity="0.3"/>
<path d="M242.573 206.557L237.872 204.352L238.682 203.387L242.736 205.179L247.113 203.112L247.599 204.076L242.573 206.557Z" fill="#30AB5E" fill-opacity="0.3"/>
<path d="M244.842 243.624H229.44L230.737 230.396H235.114V231.498H232.034L230.899 242.384H243.707L244.842 231.498H241.6L241.762 230.396H246.301L244.842 243.624Z" fill="#30AB5E" fill-opacity="0.3"/>
<path d="M238.519 237.01H237.222L238.519 224.471H239.816L238.519 237.01Z" fill="#30AB5E" fill-opacity="0.3"/>
<path d="M242.896 227.089L239.005 225.022L234.628 226.951L234.141 225.986L239.167 223.782L243.707 226.124L242.896 227.089Z" fill="#30AB5E" fill-opacity="0.3"/>
<path opacity="0.1" d="M298.021 183.683L274.187 259.608H282.132L305.803 183.683H298.021Z" fill="#30AB5E"/>
<path opacity="0.1" d="M310.343 183.682L286.51 259.608H302.399L326.07 183.682H310.343Z" fill="#30AB5E"/>
<path d="M233.167 321.341H244.03L261.378 495.378C261.54 497.307 259.757 498.961 257.487 498.961C255.541 498.961 253.758 497.72 253.596 495.929L233.167 321.341Z" fill="#263238"/>
<path d="M492.74 320.101H503.603L520.951 495.378C521.113 497.307 519.329 498.961 517.059 498.961C515.114 498.961 513.33 497.72 513.168 495.929L492.74 320.101Z" fill="#263238"/>
<path d="M185.177 320.101H174.314L174.152 507.366C174.152 509.157 175.935 510.673 178.043 510.673C180.151 510.673 181.934 509.157 181.934 507.366L185.177 320.101Z" fill="#263238"/>
<path d="M444.749 320.101H433.886L433.562 507.366C433.562 509.157 435.345 510.673 437.453 510.673C439.561 510.673 441.344 509.157 441.344 507.366L444.749 320.101Z" fill="#263238"/>
<path opacity="0.2" d="M174.476 320.101L174.152 507.366C174.152 509.157 175.935 510.673 178.043 510.673C180.151 510.673 181.934 509.157 181.934 507.366L185.177 320.101H174.476Z" fill="white"/>
<path opacity="0.2" d="M444.749 320.101H433.886L433.562 507.366C433.562 509.157 435.345 510.673 437.453 510.673C439.561 510.673 441.344 509.157 441.344 507.366L444.749 320.101Z" fill="white"/>
<path d="M165.396 312.66C165.396 308.526 167.18 305.082 169.45 305.082H508.305C510.574 305.082 512.358 308.526 512.358 312.66C512.358 316.794 510.574 320.239 508.305 320.239H169.45C167.342 320.239 165.396 316.794 165.396 312.66Z" fill="#263238"/>
<path opacity="0.1" d="M165.396 312.66C165.396 308.526 167.18 305.082 169.45 305.082H508.305C510.574 305.082 512.358 308.526 512.358 312.66C512.358 316.794 510.574 320.239 508.305 320.239H169.45C167.342 320.239 165.396 316.794 165.396 312.66Z" fill="white"/>
<path d="M424.969 312.66C424.969 308.526 426.753 305.081 429.023 305.081H508.305C510.575 305.081 512.358 308.526 512.358 312.66C512.358 316.794 510.575 320.239 508.305 320.239H429.023C426.915 320.239 424.969 316.794 424.969 312.66Z" fill="#263238"/>
<path d="M411.999 243.211C417.025 238.664 425.456 238.388 430.807 242.66C430.969 242.798 431.131 242.935 431.293 243.073C433.725 245.14 437.616 241.971 435.184 239.766C427.888 233.565 416.053 233.427 408.757 239.628C408.595 239.766 408.595 239.766 408.432 239.904C405.838 242.109 409.567 245.416 411.999 243.211Z" fill="#30AB5E"/>
<path d="M395.624 224.195C402.92 218.821 411.675 215.514 421.403 215.514C431.131 215.376 440.535 218.407 447.668 224.057C450.262 226.124 453.991 222.817 451.56 220.75C443.453 214.273 432.59 210.829 421.565 210.829C410.378 210.829 400.326 214.687 392.057 220.888C389.301 222.954 393.192 226.262 395.624 224.195Z" fill="#30AB5E"/>
<path d="M402.11 234.806C411.837 225.573 428.537 224.884 439.4 233.152C439.886 233.565 440.373 233.979 440.859 234.392C443.291 236.459 447.182 233.29 444.75 231.085C432.59 220.337 412.486 219.924 399.84 230.258C399.353 230.672 398.867 231.085 398.381 231.498C395.949 233.703 399.84 236.872 402.11 234.806Z" fill="#30AB5E"/>
<path d="M270.459 489.867L284.888 486.146L280.511 456.933L262.676 462.307L270.459 489.867Z" fill="#FF8B7B"/>
<path opacity="0.2" d="M260.569 454.177L279.538 448.114L282.294 469.197L265.595 473.193L260.569 454.177Z" fill="black"/>
<path d="M286.185 484.079L269.648 487.937C268.999 488.075 268.675 488.626 268.837 489.178L271.431 502.681C271.755 504.059 273.215 505.024 274.674 504.748C280.348 503.37 283.105 502.406 290.401 500.615C294.94 499.512 305.155 497.032 311.478 496.067C317.801 495.103 316.504 488.764 313.748 488.626C301.263 487.937 294.13 486.697 289.104 484.355C288.131 483.941 287.158 483.803 286.185 484.079Z" fill="#263238"/>
<path d="M296.563 484.768C296.887 484.217 296.887 483.528 296.563 483.115C296.401 482.701 295.914 482.564 295.59 482.426C293.644 482.15 290.077 485.458 289.753 485.871C289.753 486.009 289.753 486.146 289.753 486.146C289.753 486.284 289.915 486.284 290.077 486.284C291.374 486.284 292.834 486.147 294.131 486.009C294.941 485.871 295.914 485.457 296.563 484.768ZM295.428 483.115C295.59 483.115 295.914 483.253 295.914 483.528C296.238 483.804 296.238 484.217 296.076 484.631C295.59 485.32 293.644 485.733 290.888 485.871C292.185 484.493 294.293 482.977 295.428 483.115Z" fill="#30AB5E"/>
<path d="M290.077 486.284C291.374 485.181 292.833 482.15 292.022 480.91C291.698 480.496 291.212 480.221 290.563 480.221C290.077 480.221 289.428 480.496 289.266 480.91C288.131 482.426 289.428 486.008 289.59 486.146C289.59 486.284 289.752 486.284 289.915 486.422H290.077C290.077 486.422 290.077 486.422 290.077 486.284ZM290.725 480.91C291.212 480.91 291.536 481.048 291.536 481.185C291.698 482.701 291.212 484.355 290.077 485.457C289.428 484.079 289.428 482.701 289.915 481.323C290.077 481.048 290.239 480.91 290.563 480.91H290.725Z" fill="#30AB5E"/>
<path d="M196.526 331.125C196.526 331.125 282.78 337.326 280.672 369.157C278.889 395.201 274.349 388.173 283.267 465.752L261.541 466.717C261.541 466.717 239.491 403.331 242.409 378.114C218.09 378.114 162.316 379.905 154.21 361.303C150.157 351.795 148.211 341.873 148.373 331.677L196.526 331.125Z" fill="#263238"/>
<path d="M258.298 470.437L286.671 466.303L286.185 455.555L256.677 461.067L258.298 470.437Z" fill="#30AB5E"/>
<path d="M326.718 493.725L340.5 488.075L330.772 459.827L314.072 467.406L326.718 493.725Z" fill="#FF8B7B"/>
<path opacity="0.2" d="M310.667 459.689L328.177 451.283L334.825 471.677L318.936 477.878L310.667 459.689Z" fill="black"/>
<path d="M341.31 485.87L325.583 491.795C325.097 491.933 324.773 492.622 324.935 493.173L329.799 506.126C330.447 507.504 332.069 508.193 333.366 507.779C338.716 505.575 341.31 504.335 348.12 501.716C352.335 500.063 362.063 496.342 368.062 494.551C374.061 492.76 371.791 486.697 368.872 486.972C356.388 487.937 349.255 487.661 343.742 485.87C343.094 485.594 342.121 485.594 341.31 485.87Z" fill="#263238"/>
<path d="M351.687 485.319C352.011 484.768 351.849 484.079 351.363 483.666C351.201 483.39 350.714 483.115 350.228 483.115C348.282 483.115 345.364 486.835 345.04 487.249C345.04 487.386 345.04 487.524 345.202 487.524C345.202 487.662 345.364 487.662 345.526 487.662C346.823 487.524 348.12 487.249 349.417 486.835C350.228 486.56 351.201 486.008 351.687 485.319ZM350.228 483.804C350.39 483.804 350.714 483.941 350.714 484.079C351.039 484.355 351.201 484.768 351.039 485.182C350.714 486.008 348.769 486.56 346.012 487.111C347.31 485.595 349.093 483.804 350.228 483.804Z" fill="#30AB5E"/>
<path d="M345.526 487.662C346.661 486.421 347.472 483.252 346.499 482.012C346.175 481.599 345.526 481.461 344.877 481.599C344.391 481.736 343.905 482.012 343.743 482.425C342.932 484.079 344.877 487.386 344.877 487.524C344.877 487.662 345.04 487.662 345.202 487.662C345.364 487.799 345.364 487.662 345.526 487.662ZM345.202 482.15C345.688 482.012 346.012 482.15 346.012 482.288C346.499 483.803 346.175 485.457 345.364 486.697C344.553 485.457 344.229 483.941 344.391 482.563C344.553 482.288 344.715 482.15 345.04 482.012L345.202 482.15Z" fill="#30AB5E"/>
<path d="M222.143 331.125C222.792 331.125 318.936 339.531 319.098 367.228C319.26 413.114 334.662 465.615 334.662 465.615L315.693 473.607C315.693 473.607 282.618 416.559 283.105 380.87C256.677 374.393 188.095 385.279 180.151 366.677C173.504 351.381 177.071 331.125 177.071 331.125H222.143Z" fill="#263238"/>
<path d="M312.612 476.088L338.229 466.304L336.121 457.485L309.208 465.339L312.612 476.088Z" fill="#30AB5E"/>
<path d="M179.341 233.29C176.584 237.837 174.152 242.109 171.883 246.656C169.451 251.203 167.343 255.751 165.397 260.436C163.452 265.121 161.668 269.944 160.209 274.904C158.588 280.141 157.615 285.377 157.291 290.751C157.129 293.92 157.453 297.09 158.426 300.121C158.912 302.05 159.885 303.842 161.02 305.495C161.668 306.46 162.479 307.287 163.29 308.113L163.938 308.802C164.262 309.078 164.749 309.491 165.235 309.767C165.884 310.18 166.694 310.594 167.505 311.007C168.64 311.558 169.937 311.834 171.234 312.109C172.207 312.385 173.18 312.523 174.315 312.661C176.098 312.798 177.882 312.936 179.503 312.936C182.583 312.936 185.664 312.798 188.744 312.523C200.256 311.283 211.605 309.078 222.63 305.771L220.684 297.641C209.659 298.33 198.472 299.019 187.934 298.881C185.34 298.743 182.745 298.743 180.476 298.605C179.341 298.468 178.368 298.33 177.395 298.192C176.584 298.054 175.774 297.779 176.098 297.779C176.26 297.779 176.422 297.916 176.584 298.054C176.747 298.192 176.909 298.192 177.071 298.33C177.071 298.33 177.071 298.192 176.909 298.054C176.747 297.641 176.584 297.227 176.422 296.676C176.098 295.023 176.098 293.369 176.26 291.716C176.747 287.582 177.719 283.448 179.179 279.452C180.638 275.18 182.421 270.908 184.367 266.637C186.312 262.365 188.258 258.093 190.528 253.822C192.798 249.55 195.067 245.278 197.337 241.282L179.341 233.29Z" fill="#FF8B7B"/>
<path d="M215.658 299.294L227.331 294.334L232.357 305.082C232.357 305.082 218.738 309.216 216.144 306.184L215.658 299.294Z" fill="#FF8B7B"/>
<path d="M236.573 296.677L241.275 303.98L232.52 304.944L227.332 294.196L236.573 296.677Z" fill="#FF8B7B"/>
<path d="M214.199 251.478C216.307 256.164 214.037 250.79 216.469 255.337C218.901 259.884 221.333 264.294 223.765 268.703C228.953 277.798 234.627 286.617 240.95 295.022C242.734 297.227 244.355 299.294 246.301 301.499C247.274 302.601 248.409 303.703 249.543 304.806C250.192 305.357 250.678 305.908 251.327 306.459L252.3 307.286L252.948 307.699C254.57 308.94 256.515 309.766 258.623 310.18C259.758 310.455 260.893 310.593 262.028 310.731C263.811 310.869 265.757 311.007 267.54 310.869C270.783 310.731 273.863 310.455 277.106 310.042C288.779 308.251 300.291 305.495 311.316 301.774L311.478 291.439C300.291 292.542 288.941 293.782 278.241 294.195C275.647 294.333 273.215 294.195 270.621 294.058C269.648 294.058 268.675 293.92 267.54 293.644C267.216 293.644 266.892 293.506 266.567 293.369C266.405 293.369 266.567 293.231 267.054 293.506C267.216 293.644 267.378 293.644 267.54 293.782L267.378 293.644L266.892 293.231C266.567 292.955 266.243 292.542 265.919 292.128C265.27 291.302 264.46 290.613 263.811 289.648C262.352 287.857 261.055 285.928 259.596 283.998C256.839 280.14 254.245 275.868 251.813 271.735C249.219 267.463 246.949 263.191 244.517 258.919C239.816 250.238 239.816 251.203 235.438 242.522L214.199 251.478Z" fill="#FF8B7B"/>
<path d="M304.182 293.231L319.746 290.475L325.907 304.806C325.907 304.806 307.911 306.321 304.506 302.187L304.182 293.231Z" fill="#FF8B7B"/>
<path d="M331.582 294.195L337.581 303.84L325.907 304.943L319.746 290.474L331.582 294.195Z" fill="#FF8B7B"/>
<path d="M221.981 192.915C222.954 195.809 224.413 198.565 226.196 201.183C224.089 202.423 221.008 201.459 221.008 201.459L221.981 192.915Z" fill="#A02724"/>
<path d="M223.115 200.907C222.791 201.045 222.305 201.045 221.981 201.045C218.9 201.045 216.468 198.427 216.306 194.982C216.144 191.537 218.576 188.781 221.656 188.781C223.115 188.781 224.575 189.47 225.71 190.573C226.682 191.675 227.331 193.191 227.331 194.844C227.331 197.6 225.547 200.218 223.115 200.907ZM220.684 189.608C218.576 190.159 217.117 192.364 217.117 194.982C217.117 198.014 219.386 200.356 221.981 200.356C222.305 200.356 222.629 200.356 222.953 200.218C225.061 199.667 226.52 197.325 226.52 194.844C226.52 193.466 226.034 192.088 225.061 190.986C224.088 190.021 222.953 189.332 221.656 189.47C221.332 189.47 220.846 189.47 220.684 189.608Z" fill="#263238"/>
<path d="M182.583 201.597L191.014 209.175L202.687 219.51C201.714 220.75 201.066 221.991 200.741 223.369C199.769 226.4 198.796 228.743 206.74 231.636C208.524 232.188 209.659 233.565 209.659 235.219C209.659 237.148 207.875 239.215 200.093 239.353C192.635 239.353 185.339 237.286 179.34 233.428C176.422 231.636 176.746 229.983 178.529 227.365C183.718 220.061 183.718 209.727 182.583 201.597Z" fill="#FF8B7B"/>
<path d="M224.738 192.364C224.9 193.329 224.413 194.294 223.765 194.294C223.116 194.294 222.63 193.605 222.468 192.502C222.306 191.537 222.792 190.573 223.441 190.573C224.089 190.573 224.738 191.4 224.738 192.364Z" fill="#263238"/>
<path d="M222.143 206.144C220.359 211.931 215.333 216.341 209.497 218.27C207.389 218.959 205.119 219.372 203.011 219.51C197.823 219.786 192.473 218.27 188.419 214.411C181.124 207.797 181.61 200.218 181.124 187.541C180.961 184.923 181.61 182.305 182.745 179.962C187.122 170.868 199.444 166.596 210.145 170.454C224.413 175.691 225.71 194.707 222.143 206.144Z" fill="#FF8B7B"/>
<path opacity="0.2" d="M209.497 218.27C207.389 218.959 205.119 219.372 203.012 219.51L202.687 219.372L204.147 217.029C204.147 217.029 204.957 219.096 209.497 218.27Z" fill="black"/>
<path d="M205.65 187.985L205.432 188.649L227.771 193.926L227.988 193.262L205.65 187.985Z" fill="#263238"/>
<path d="M209.821 195.533C207.227 199.254 203.984 202.974 203.174 207.384C202.85 209.175 186.636 211.931 182.583 208.486C178.692 205.041 176.26 200.494 174.639 195.809C172.693 190.159 171.72 183.958 173.504 178.309C174.476 175.002 176.584 171.832 179.827 169.765C183.069 167.699 187.609 167.01 191.176 168.525C198.634 164.391 208.848 164.254 216.469 168.112C224.089 171.97 228.791 179.825 227.98 187.266C227.98 187.679 227.818 188.23 227.494 188.506C227.007 188.919 226.359 188.781 225.71 188.781C222.63 188.506 219.549 188.092 216.469 187.817C215.334 187.679 213.874 187.403 213.712 186.439C213.55 185.75 212.74 182.581 212.74 182.167L209.821 195.533Z" fill="#263238"/>
<path d="M199.607 194.293C200.255 197.049 202.201 199.667 204.957 201.321C208.524 203.526 212.091 200.356 211.929 196.774C211.929 193.467 209.335 189.057 205.443 188.23C201.39 187.679 198.796 190.849 199.607 194.293Z" fill="#FF8B7B"/>
<path d="M186.798 163.013C188.906 162.875 190.851 164.116 191.662 165.769C192.148 166.734 192.472 169.076 191.175 169.628C189.716 167.285 188.743 164.942 186.798 163.013Z" fill="#263238"/>
<path d="M154.048 233.427C155.345 230.534 161.344 227.64 165.073 227.64H167.505C171.72 227.64 177.071 227.916 182.259 228.467C192.149 229.431 201.877 230.809 211.605 232.601C215.982 233.565 220.36 234.805 223.765 235.908C228.142 237.424 230.574 238.388 230.574 238.388C230.574 238.388 225.872 265.258 223.278 291.991C221.981 306.873 222.468 321.617 221.981 331.814H148.698C146.104 319.55 146.59 308.94 146.428 286.892C146.266 273.664 148.698 245.416 154.048 233.427Z" fill="#30AB5E"/>
<path opacity="0.2" d="M224.9 276.971C224.413 282.621 223.765 288.408 223.116 294.333C214.523 283.585 209.659 254.372 209.659 254.372L224.9 276.971Z" fill="black"/>
<path d="M234.79 240.317C245.328 245.415 255.705 271.183 255.705 271.183L231.547 286.616C222.306 279.175 208.849 260.848 207.39 253.545C204.958 242.246 217.928 232.187 234.79 240.317Z" fill="#30AB5E"/>
<path d="M255.543 514.945C255.543 518.528 258.947 521.284 263.001 521.284C267.216 521.284 270.459 518.39 270.459 514.945C270.459 511.501 267.054 508.607 263.001 508.607C258.947 508.607 255.543 511.363 255.543 514.945Z" fill="#263238"/>
<path d="M143.834 514.945C143.834 518.528 140.429 521.284 136.376 521.284C132.16 521.284 128.918 518.39 128.918 514.945C128.918 511.363 132.322 508.607 136.376 508.607C140.429 508.607 143.834 511.363 143.834 514.945Z" fill="#263238"/>
<path d="M206.903 512.878C206.903 516.461 203.498 519.217 199.445 519.217C195.229 519.217 191.987 516.323 191.987 512.878C191.987 509.296 195.392 506.54 199.445 506.54C203.66 506.54 206.903 509.433 206.903 512.878Z" fill="#263238"/>
<path d="M201.715 505.024V492.76H223.116C227.331 492.76 231.547 493.036 235.6 493.725L275.484 500.339C277.43 500.615 278.727 502.268 278.403 503.922C278.079 505.437 276.457 506.402 274.674 506.402L201.715 505.024Z" fill="#263238"/>
<path d="M201.714 505.024V492.76H180.313C176.098 492.76 171.882 493.036 167.829 493.725L122.918 499.788C120.973 500.064 119.676 501.717 120 503.371C120.324 504.886 121.946 505.851 123.729 505.851L201.714 505.024Z" fill="#263238"/>
<path d="M215.009 431.441H188.42V496.48H215.009V431.441Z" fill="#263238"/>
<path d="M211.28 390.24H192.311V431.716H211.28V390.24Z" fill="#263238"/>
<path opacity="0.5" d="M211.28 397.956L192.311 402.09V390.24H211.28V397.956Z" fill="black"/>
<path d="M272.566 330.987H263.001V365.85H272.566V330.987Z" fill="#FCC72F"/>
<path opacity="0.7" d="M272.566 330.987H263.001V365.85H272.566V330.987Z" fill="white"/>
<path d="M214.685 390.24V238.526C214.685 232.739 211.767 227.365 206.741 223.507L194.094 213.999C189.879 210.829 184.366 209.038 178.692 209.038H132.647L110.11 229.294V390.103H214.685V390.24Z" fill="#FCC72F"/>
<path d="M283.267 360.889H178.368V390.239H300.291C307.1 390.239 312.613 385.554 312.775 379.767C312.775 377.838 312.126 376.046 310.991 374.393C305.155 365.987 294.616 360.889 283.267 360.889Z" fill="#FCC72F"/>
<path opacity="0.7" d="M110.11 229.431V390.24H300.291C307.1 390.24 312.613 385.555 312.613 379.767C312.613 377.838 311.964 376.047 310.829 374.393C304.992 366.125 294.454 360.889 283.105 360.889H230.25C221.657 360.889 214.523 354.964 214.523 347.523V238.388C214.523 232.6 211.605 227.226 206.579 223.368L193.932 213.86C189.717 210.691 184.204 208.899 178.53 208.899H132.647L110.11 229.431Z" fill="white"/>
<path d="M199.445 390.24V238.526C199.445 232.739 196.527 227.365 191.5 223.507L178.854 213.999C174.639 210.829 169.126 209.038 163.452 209.038H127.458C120.973 209.038 114.812 211.243 110.435 215.377L101.355 223.644C97.302 227.365 95.0322 232.188 95.0322 237.286V375.083C95.0322 383.488 102.977 390.24 112.867 390.24H199.445Z" fill="#FCC72F"/>
<path opacity="0.5" d="M199.445 390.24V238.526C199.445 232.739 196.527 227.365 191.5 223.507L178.854 213.999C174.639 210.829 169.126 209.038 163.452 209.038H127.458C120.973 209.038 114.812 211.243 110.435 215.377L101.355 223.644C97.302 227.365 95.0322 232.188 95.0322 237.286V375.083C95.0322 383.488 102.977 390.24 112.867 390.24H199.445Z" fill="white"/>
<path d="M235.114 341.597C256.353 335.259 279.376 335.259 300.615 341.597C304.993 342.975 310.019 341.46 312.127 337.877C314.072 334.294 311.478 329.747 306.128 328.231C281.322 320.928 254.408 320.928 229.764 328.231C224.413 329.747 221.819 334.432 223.765 337.877C225.873 341.46 230.737 342.975 235.114 341.597Z" fill="#30AB5E"/>
<path opacity="0.7" d="M235.114 341.597C256.353 335.259 279.376 335.259 300.615 341.597C304.993 342.975 310.019 341.46 312.127 337.877C314.072 334.294 311.478 329.747 306.128 328.231C281.322 320.928 254.408 320.928 229.764 328.231C224.413 329.747 221.819 334.432 223.765 337.877C225.873 341.46 230.737 342.975 235.114 341.597Z" fill="white"/>
<path d="M509.44 66.2802C493.551 77.7172 481.229 92.737 474.42 109.686L466.151 109.273C470.042 89.8433 479.77 72.0676 493.713 56.91L509.44 66.2802Z" fill="#30AB5E"/>
<path opacity="0.6" d="M509.44 66.2802C493.551 77.7172 481.229 92.737 474.42 109.686L466.151 109.273C470.042 89.8433 479.77 72.0676 493.713 56.91L509.44 66.2802Z" fill="white"/>
<path d="M558.403 45.0594C540.245 48.6421 523.383 56.0832 509.44 66.1423L493.551 56.9099C507.656 41.6145 525.977 29.3506 546.568 21.0828L558.403 45.0594Z" fill="#30AB5E"/>
<path opacity="0.5" d="M558.403 45.0594C540.245 48.6421 523.383 56.0832 509.44 66.1423L493.551 56.9099C507.656 41.6145 525.977 29.3506 546.568 21.0828L558.403 45.0594Z" fill="white"/>
<path d="M611.097 10.6108L605.26 44.7844C599.747 43.682 593.911 43.1308 587.912 42.8552C577.86 42.4418 567.97 43.2686 558.566 45.1978L546.73 21.2212C566.024 13.6424 587.425 9.78405 609.313 10.6108C609.8 10.473 610.448 10.6108 611.097 10.6108Z" fill="#30AB5E"/>
<path opacity="0.4" d="M611.097 10.6108L605.26 44.7844C599.747 43.682 593.911 43.1308 587.912 42.8552C577.86 42.4418 567.97 43.2686 558.566 45.1978L546.73 21.2212C566.024 13.6424 587.425 9.78405 609.313 10.6108C609.8 10.473 610.448 10.6108 611.097 10.6108Z" fill="white"/>
<path d="M670.598 27.4216L642.712 59.2526C632.011 52.3627 619.365 47.2643 605.259 44.6462L611.096 10.4727C633.47 11.7128 653.899 17.7759 670.598 27.4216Z" fill="#30AB5E"/>
<path opacity="0.3" d="M670.598 27.4216L642.712 59.2526C632.011 52.3627 619.365 47.2643 605.259 44.6462L611.096 10.4727C633.47 11.7128 653.899 17.7759 670.598 27.4216Z" fill="white"/>
<path d="M710.483 67.6583L668.491 84.745C662.005 74.8237 653.25 66.1425 642.712 59.2527L670.761 27.4218C688.109 37.4809 701.728 51.3983 710.483 67.6583Z" fill="#30AB5E"/>
<path opacity="0.2" d="M710.483 67.6583L668.491 84.745C662.005 74.8237 653.25 66.1425 642.712 59.2527L670.761 27.4218C688.109 37.4809 701.728 51.3983 710.483 67.6583Z" fill="white"/>
<path d="M719.563 121.537L679.354 119.608C678.706 107.068 674.814 95.2176 668.329 84.8828L710.321 67.796C718.752 83.7804 722.319 102.107 719.563 121.537Z" fill="#30AB5E"/>
<path opacity="0.1" d="M719.563 121.537L679.354 119.608C678.706 107.068 674.814 95.2176 668.329 84.8828L710.321 67.796C718.752 83.7804 722.319 102.107 719.563 121.537Z" fill="white"/>
<path d="M719.401 122.501C719.401 122.639 719.401 122.777 719.401 122.915C717.779 132.56 712.429 148.269 706.917 157.364L674.652 149.923L677.895 139.45C678.219 138.072 678.544 136.694 678.706 135.316L678.868 134.489C679.678 129.391 679.841 124.43 679.516 119.607L719.725 121.537C719.725 121.674 719.725 121.95 719.725 122.088C719.563 122.226 719.563 122.363 719.401 122.501Z" fill="#30AB5E"/>
<path d="M469.069 146.202L466.637 146.615C465.989 143.997 465.503 141.241 465.178 138.486C464.043 130.356 464.205 121.95 465.34 113.269V112.855C465.34 112.718 465.34 112.58 465.503 112.442C465.665 111.34 465.827 110.375 466.151 109.273L474.42 109.686C472.312 115.06 470.691 120.71 469.718 126.635C469.718 126.773 469.718 126.911 469.556 127.048C469.394 127.186 469.556 127.324 469.556 127.462C469.069 130.907 468.745 134.352 468.745 137.659C468.583 140.415 468.745 143.308 469.069 146.202Z" fill="#30AB5E"/>
<path opacity="0.7" d="M469.069 146.202L466.637 146.615C465.989 143.997 465.503 141.241 465.178 138.486C464.043 130.356 464.205 121.95 465.34 113.269V112.855C465.34 112.718 465.34 112.58 465.503 112.442C465.665 111.34 465.827 110.375 466.151 109.273L474.42 109.686C472.312 115.06 470.691 120.71 469.718 126.635C469.718 126.773 469.718 126.911 469.556 127.048C469.394 127.186 469.556 127.324 469.556 127.462C469.069 130.907 468.745 134.352 468.745 137.659C468.583 140.415 468.745 143.308 469.069 146.202Z" fill="white"/>
<path d="M715.348 149.922L711.619 157.088L704.647 155.434L640.605 140.552L613.043 134.076C615.15 132.009 616.934 129.804 618.231 127.324C619.852 124.43 620.825 121.398 621.311 118.367L682.273 138.761L715.348 149.922Z" fill="#287E48"/>
<path d="M621.149 118.367C620.339 124.017 617.582 129.529 613.043 134.076L588.236 128.288L597.154 110.237L621.149 118.367Z" fill="#287E48"/>
<path d="M606.233 117.816C605.746 121.675 603.801 125.533 600.558 128.564C598.45 130.769 595.694 132.561 592.451 133.938C581.102 138.486 568.294 134.903 563.754 125.671C559.214 116.576 564.727 105.277 576.076 100.73C587.425 96.0446 600.234 99.7651 604.773 108.997C606.233 111.753 606.719 114.785 606.233 117.816Z" fill="#44B36E"/>
<path d="M664.113 100.867C663.789 100.867 663.465 100.591 663.465 100.316C662.168 94.9418 659.249 89.1544 655.034 83.6425C654.872 83.3669 654.872 82.9535 655.196 82.6779C655.52 82.5401 656.007 82.5401 656.331 82.8157C660.708 88.4654 663.627 94.3906 664.924 100.04C665.086 100.454 664.762 100.729 664.275 100.867C664.113 100.867 664.113 100.867 664.113 100.867Z" fill="#30AB5E"/>
<path d="M488.201 98.3867C488.039 98.3867 487.876 98.3867 487.876 98.2489C487.552 98.1111 487.39 97.6977 487.552 97.4221C487.876 96.871 522.41 48.7801 578.508 48.6423C605.908 48.6423 631.687 58.1503 649.035 74.8236C649.359 75.0992 649.359 75.5126 649.035 75.7882C648.711 76.0638 648.225 76.0638 647.9 75.7882C630.714 59.2526 605.422 49.8825 578.508 49.8825C523.221 50.0203 489.173 97.5599 488.849 97.9733C488.687 98.2489 488.363 98.3867 488.201 98.3867Z" fill="#30AB5E"/>
<path d="M703.998 162.187H703.836L694.432 159.982C693.946 159.844 693.783 159.568 693.946 159.155C694.108 158.742 694.432 158.604 694.918 158.742L704.322 160.946C704.808 161.084 704.97 161.36 704.808 161.773C704.646 162.049 704.322 162.187 703.998 162.187Z" fill="#30AB5E"/>
<path d="M687.785 158.328H687.623L611.745 140.139C611.259 140.001 611.096 139.726 611.259 139.312C611.421 138.899 611.745 138.761 612.231 138.899L688.109 157.088C688.595 157.226 688.757 157.501 688.595 157.915C688.433 158.19 688.109 158.328 687.785 158.328Z" fill="#30AB5E"/>
</svg>
