<svg width="430" height="375" viewBox="0 0 430 375" fill="none" xmlns="http://www.w3.org/2000/svg">
<g opacity="0.9">
<path d="M35.3822 276.728L32.622 272.772C30.7651 274.032 28.7549 275.018 26.9484 275.63C25.441 276.144 23.8731 275.407 23.3248 273.935L23.265 273.763C22.6689 272.153 23.5715 270.288 25.2288 269.754C26.9206 269.207 28.6899 268.374 30.3391 267.138C32.7446 265.368 33.748 263.228 32.5853 261.567C31.4696 259.985 29.4367 260 25.5815 261.26C20.0231 263.091 15.5088 263.297 12.6783 259.251C10.1178 255.589 10.7326 250.796 14.6231 246.58L11.9093 242.645L16.0442 239.588L18.6047 243.25C20.175 242.182 21.5874 241.45 22.8293 240.962C24.3585 240.341 26.0307 241.096 26.5909 242.602C27.1751 244.177 26.3295 245.98 24.7306 246.57C23.5345 247.02 22.1559 247.68 20.6785 248.79C17.9294 250.812 17.8462 252.61 18.6797 253.773C19.6427 255.14 21.7194 254.912 26.2441 253.605C32.4825 251.643 36.1073 252.435 38.7148 256.176C41.2872 259.873 40.8497 265.007 36.5803 269.431L39.5403 273.682L35.3822 276.728Z" fill="#C0CBDC"/>
<g opacity="0.1">
<path d="M250.947 358.66C261.653 344.238 270.26 344.108 270.26 344.108C270.26 344.108 274.174 318.766 271.037 308.002C267.927 297.237 253.85 306.679 253.85 306.679C253.85 306.679 272.515 270.053 264.868 265.955C250.61 258.303 228.135 297.133 228.135 297.133C228.135 297.133 233.397 280.04 223.313 280.092C208.097 280.195 206.775 319.389 206.775 319.389C206.775 319.389 203.768 311.659 194.384 316.095C184.274 320.867 181.526 349.555 180.956 371.733H234.227C241.9 367.064 248.122 362.499 250.947 358.66Z" fill="#197BDD"/>
<path d="M230 294.02C230 294.02 230.622 274.54 220.538 274.592C205.321 274.696 206.773 319.388 206.773 319.388C206.773 319.388 200.422 306.73 191.038 311.166C180.746 316.016 179.502 347.739 179.917 371.732H197.622L264.866 265.954C250.608 258.302 230 294.02 230 294.02Z" fill="#0052CA"/>
</g>
<g opacity="0.1">
<path d="M149.536 369.477C149.536 369.477 80.296 335.316 68.3975 317.522C56.4989 299.702 73.9968 298.69 73.9968 298.69C73.9968 298.69 43.0968 268.601 47.4519 255.969C51.8069 243.311 68.0086 255.398 68.0086 255.398C68.0086 255.398 47.9444 210.654 57.3025 206.219C74.7485 197.944 99.2196 245.542 99.2196 245.542C99.2196 245.542 93.9573 224.868 105.985 225.543C124.106 226.555 123.354 273.348 123.354 273.348C123.354 273.348 125.402 255.398 136.315 261.235C155.887 271.662 149.536 369.477 149.536 369.477Z" fill="#0052CA"/>
<path d="M140.257 253.972C131.728 249.225 123.225 263.077 123.225 263.077C123.225 263.077 124.081 226.529 105.961 225.518C93.9586 224.843 99.195 245.516 99.195 245.516C99.195 245.516 74.7239 197.919 57.2778 206.193L149.589 368.699C150.263 357.364 157.132 263.362 140.257 253.972Z" fill="#197BDD"/>
</g>
<g opacity="0.2">
<path d="M147.745 369.892C147.745 369.892 91.1301 376.922 76.4578 370.671C61.7855 364.393 72.3102 356.664 72.3102 356.664C72.3102 356.664 40.8399 350.464 38.4032 340.815C35.9664 331.166 51.0017 332.1 51.0017 332.1C51.0017 332.1 20.3091 312.334 24.353 305.746C31.8706 293.477 66.4776 313.216 66.4776 313.216C66.4776 313.216 54.7864 302.452 62.5632 297.99C74.2803 291.246 92.8151 320.738 92.8151 320.738C92.8151 320.738 91.6745 313.476 100.851 312.672C117.286 311.245 147.745 369.892 147.745 369.892Z" fill="#0052CA"/>
<path d="M101.188 307.406C92.0115 308.21 92.7892 320.764 92.7892 320.764C92.7892 320.764 73.9174 285.825 62.2003 292.543C54.4235 297.004 63.626 311.686 63.626 311.686C63.626 311.686 31.8706 293.503 24.353 305.746L147.927 369.555C143.701 362.24 116.56 306.057 101.188 307.406Z" fill="#197BDD"/>
</g>
<g opacity="0.1">
<path d="M263.002 370.33C263.002 370.33 332.242 337.192 344.14 319.932C356.039 302.645 338.541 301.664 338.541 301.664C338.541 301.664 369.441 272.477 365.086 260.223C360.731 247.944 344.529 259.669 344.529 259.669C344.529 259.669 364.593 216.265 355.235 211.963C337.789 203.936 313.318 250.108 313.318 250.108C313.318 250.108 318.58 230.054 306.552 230.708C288.432 231.689 289.184 277.081 289.184 277.081C289.184 277.081 287.136 259.669 276.222 265.331C256.651 275.446 263.002 370.33 263.002 370.33Z" fill="#0052CA"/>
<path d="M272.281 258.285C280.81 253.68 289.312 267.117 289.312 267.117C289.312 267.117 288.457 231.664 306.577 230.683C318.579 230.028 313.343 250.082 313.343 250.082C313.343 250.082 337.814 203.911 355.26 211.937L262.949 369.575C262.275 358.58 255.405 267.394 272.281 258.285Z" fill="#197BDD"/>
</g>
<g opacity="0.2">
<path d="M264.792 370.733C264.792 370.733 321.407 377.551 336.08 371.488C350.752 365.398 340.227 357.9 340.227 357.9C340.227 357.9 371.698 351.887 374.134 342.526C376.571 333.166 361.536 334.072 361.536 334.072C361.536 334.072 392.229 314.899 388.185 308.508C380.667 296.606 346.06 315.754 346.06 315.754C346.06 315.754 357.751 305.312 349.974 300.984C338.257 294.442 319.722 323.051 319.722 323.051C319.722 323.051 320.863 316.006 311.686 315.226C295.251 313.842 264.792 370.733 264.792 370.733Z" fill="#0052CA"/>
<path d="M311.349 310.118C320.526 310.898 319.748 323.076 319.748 323.076C319.748 323.076 338.62 289.183 350.337 295.7C358.114 300.028 348.912 314.27 348.912 314.27C348.912 314.27 380.667 296.631 388.185 308.508L264.611 370.405C268.836 363.31 295.977 308.809 311.349 310.118Z" fill="#197BDD"/>
</g>
<path d="M29.9536 372.797C29.9536 373.679 30.6535 374.379 31.5349 374.379H428.335C429.216 374.379 429.916 373.653 429.916 372.797C429.916 371.915 429.216 371.214 428.335 371.214H31.5349C30.6535 371.214 29.9536 371.915 29.9536 372.797Z" fill="#9CC2E6"/>
<path d="M307.689 95.7974L305.667 100.829L297.217 98.4691L293.354 105.473L286.744 104.746L286.355 108.092L295.221 109.078L298.876 102.438L307.664 104.876L310.696 97.3018L307.689 95.7974Z" fill="#466EB6"/>
<path d="M337.759 230.652L339.833 225.49C337.552 224.453 335.426 223.078 333.793 221.703C332.419 220.562 332.186 218.539 333.249 217.112L333.378 216.93C334.545 215.348 336.826 215.063 338.304 216.36C339.807 217.683 341.648 218.902 343.773 219.758C346.858 221.003 349.476 220.666 350.332 218.487C351.161 216.412 349.943 214.414 346.469 211.431C341.44 207.126 338.589 202.82 340.715 197.554C342.633 192.782 347.506 190.395 353.78 191.588L355.853 186.427L361.168 188.579L359.249 193.352C361.194 194.234 362.697 195.168 363.915 196.076C365.393 197.191 365.704 199.292 364.589 200.771C363.449 202.301 361.271 202.612 359.768 201.419C358.653 200.537 357.175 199.603 355.283 198.825C351.758 197.399 349.995 198.462 349.399 199.992C348.673 201.782 350.124 203.702 354.039 207.281C359.586 212.158 360.986 216.204 359.016 221.081C357.072 225.905 351.991 228.655 345.303 227.228L343.073 232.779L337.759 230.652Z" fill="url(#paint0_linear_659_14366)"/>
<path d="M255.298 371H120.702C115.334 371 111 367.649 111 363.5C111 359.351 115.334 356 120.702 356H255.298C260.666 356 265 359.351 265 363.5C265 367.649 260.666 371 255.298 371Z" fill="white"/>
<path d="M239.307 356.274H140.774C136.601 356.274 133.231 352.902 133.231 348.726C133.231 344.55 136.601 341.177 140.774 341.177H239.307C243.481 341.177 246.85 344.55 246.85 348.726C246.85 352.876 243.481 356.274 239.307 356.274Z" fill="#71A3EF"/>
<path d="M225.255 341.151H131.026C126.956 341.151 123.638 337.857 123.638 333.759V333.421C123.638 329.349 126.93 326.029 131.026 326.029H225.255C229.325 326.029 232.643 329.323 232.643 333.421V333.759C232.643 337.857 229.325 341.151 225.255 341.151Z" fill="white"/>
<path d="M225.178 326.081H130.482C126.49 326.081 123.224 322.839 123.224 318.818V318.222C123.224 314.227 126.464 310.959 130.482 310.959H225.178C229.17 310.959 232.436 314.201 232.436 318.222V318.818C232.41 322.839 229.17 326.081 225.178 326.081Z" fill="#71A3EF"/>
<path d="M228.287 311.867H132.736C128.562 311.867 125.192 308.495 125.192 304.318C125.192 300.142 128.562 296.77 132.736 296.77H228.287C232.461 296.77 235.831 300.142 235.831 304.318C235.831 308.469 232.461 311.867 228.287 311.867Z" fill="white"/>
<path d="M224.166 296.952H128.615C124.441 296.952 121.071 293.579 121.071 289.403C121.071 285.227 124.441 281.855 128.615 281.855H224.166C228.34 281.855 231.71 285.227 231.71 289.403C231.71 293.554 228.34 296.952 224.166 296.952Z" fill="#71A3EF"/>
<path d="M228.961 267.745H137.428C133.332 267.745 130.04 264.425 130.04 260.352V260.041C130.04 255.943 133.358 252.649 137.428 252.649H228.961C233.057 252.649 236.349 255.969 236.349 260.041V260.352C236.349 264.451 233.031 267.745 228.961 267.745Z" fill="#71A3EF"/>
<path d="M237.154 282.27H149.224C145.206 282.27 141.965 279.028 141.965 275.008V274.437C141.965 270.416 145.206 267.174 149.224 267.174H237.154C241.172 267.174 244.412 270.416 244.412 274.437V275.008C244.412 279.028 241.172 282.27 237.154 282.27Z" fill="white"/>
<path d="M129.731 210.005C130.327 210.965 130.146 212.184 129.316 212.962C127.709 214.467 125.143 216.205 122.006 217.372C117.418 219.084 112.337 219.266 107.774 217.165C104.923 215.868 102.305 213.533 100.438 210.498L97.7422 211.51C96.8349 211.847 95.798 211.38 95.461 210.472L95.4351 210.395C95.0981 209.487 95.5647 208.449 96.472 208.112L98.7013 207.282C98.3384 206.556 98.1051 206.089 97.9496 205.674C97.6903 204.973 97.457 204.117 97.2496 203.158L94.9684 204.014C94.0611 204.351 93.0242 203.884 92.6872 202.976C92.3502 202.068 92.8168 201.031 93.7241 200.693L96.4979 199.656C96.0572 196.18 96.5238 192.756 97.8199 189.903C100.023 185.026 104.197 181.577 108.967 179.787C111.766 178.749 114.048 178.438 115.914 178.412C117.21 178.386 118.273 179.398 118.325 180.695V180.747C118.377 182.095 117.34 183.211 116.018 183.263C114.488 183.315 112.7 183.626 110.626 184.404C107.567 185.545 104.897 187.672 103.342 190.941C102.486 192.86 102.071 195.143 102.538 197.425L118.143 191.563C119.051 191.226 120.088 191.693 120.425 192.601C120.762 193.508 120.295 194.546 119.388 194.883L103.082 201.005C103.29 201.783 103.523 202.587 103.704 203.08C103.938 203.702 104.171 204.325 104.56 205.129L120.891 198.982C121.824 198.618 122.887 199.111 123.224 200.045C123.587 200.979 123.095 202.042 122.161 202.379L106.53 208.242C107.774 210.083 109.382 211.432 111.118 212.21C114.514 213.689 117.677 213.637 121.125 212.34C123.25 211.536 124.987 210.446 126.335 209.409C127.398 208.527 129.005 208.812 129.731 210.005Z" fill="#71A3EF"/>
<path d="M274.587 157.817L279.564 155.301L284.463 157.973C285.034 158.284 285.682 157.817 285.578 157.168L284.723 151.644L288.766 147.805C289.233 147.364 289 146.585 288.352 146.482L282.83 145.6L280.445 140.542C280.16 139.971 279.357 139.945 279.071 140.516L276.531 145.496L270.983 146.222C270.361 146.3 270.102 147.078 270.543 147.519L274.483 151.488L273.446 156.987C273.368 157.609 274.042 158.102 274.587 157.817Z" fill="#F7CC7F"/>
<path d="M174.656 56.5258L169.497 57.0446L167.734 48.848L160.113 48.6923L157.806 42.7783L154.825 43.9456L157.91 51.8569L165.142 52.0125L166.957 60.5463L174.707 59.7682L174.656 56.5258Z" fill="#50BFA5"/>
<path d="M364.087 129.836L359.684 127.097L363.292 119.529L357.351 114.753L359.134 108.661L356.06 107.765L353.674 115.915L359.307 120.453L355.535 128.32L362.149 132.435L364.087 129.836Z" fill="#E0EBE4"/>
<path d="M280.393 179.319L285.889 181.135C285.889 181.135 294.625 178.308 295.48 176.518C296.336 174.728 296.595 170.422 297.813 170.293C299.058 170.163 301.469 170.578 302.039 173.535C302.454 175.688 299.317 181.887 299.81 182.536C300.121 182.951 303.257 184.092 305.564 184.87C307.068 185.389 308.183 186.738 308.416 188.346C308.571 189.436 307.949 190.499 306.938 190.888L305.357 191.511L305.875 193.145C306.264 194.364 305.59 195.661 304.372 196.076L303.154 196.491L303.542 197.477C304.035 198.748 303.335 200.226 302.013 200.589L300.95 200.9L301.002 201.186C301.183 202.379 300.432 203.52 299.291 203.832L298.228 204.117L283.556 199.266C282.182 198.825 280.912 198.073 279.849 197.113L274.976 194.545C274.457 194.26 274.224 193.638 274.405 193.067L278.916 180.046C279.097 179.449 279.771 179.112 280.393 179.319Z" fill="#B8C7B9"/>
<path d="M103.86 161.551C103.782 161.344 102.071 158.387 99.8415 155.196C89.4984 140.256 74.1262 125.886 56.1357 126.43V126.327C64.2755 125.445 72.2597 127.598 79.2589 131.462C90.8204 137.688 102.071 149.568 108.215 158.698L103.86 161.551Z" fill="#F7CC7F"/>
<path d="M222.274 142.928C222.274 142.928 222.792 141.864 222.766 139.4C222.714 136.339 222.118 131.748 221.988 131.333C221.755 130.607 231.632 127.494 231.632 127.494C231.632 127.494 247.471 126.69 249.804 124.926C252.163 123.163 254.133 122.436 253.044 124.252C251.048 127.572 246.408 132.423 245.397 133.097C244.36 133.771 232.072 136.858 231.865 136.858C231.632 136.858 231.709 144.588 231.709 144.588L222.274 142.928Z" fill="#F7A491"/>
<path d="M232.537 139.633C232.537 139.633 222.298 137.896 222.09 138.907C217.943 161.604 217.243 169.1 216.802 169.333C215.247 170.137 192.927 150.554 189.246 149.257C187.483 148.634 185.565 148.738 183.724 148.79C179.344 148.92 180.821 148.816 178.514 148.92C178.384 148.92 178.307 148.945 178.307 148.945L178.333 153.07C183.284 157.505 194.586 224.868 195.545 224.842C196.608 224.79 218.954 230.419 218.565 228.525C218.513 228.214 203.4 215.867 199.123 198.022C197.697 192.03 196.971 185.597 196.193 179.942C201.171 182.432 220.561 191.978 223.62 190.733C233.211 186.842 232.537 139.633 232.537 139.633Z" fill="#30AB5E"/>
<path d="M271.034 259.236C271.034 259.236 291.824 275.526 292.524 278.431C293.535 282.581 312.562 277.134 307.974 276.278C306.911 276.07 303.541 275.214 303.256 275.085C301.779 274.281 283.27 251.973 283.27 251.973L271.034 259.236Z" fill="#F7A491"/>
<path d="M316.918 276.278L303.645 275.189C303.645 275.189 299.86 278.328 292.55 278.483C292.55 278.483 291.384 281.829 291.928 285.72C292.032 286.394 292.135 288.418 292.809 288.366C295.272 288.21 301.805 286.576 309.244 285.072C309.244 285.072 319.251 282.945 325.031 279.495C330.812 276.045 316.918 276.278 316.918 276.278Z" fill="#062D74"/>
<path d="M177.867 218.358C177.867 218.358 193.084 220.926 209.934 216.983C229.428 212.418 250.969 208.216 257.295 211.873C262.375 214.83 294.105 262.817 294.105 262.817L281.843 271.766L246.899 232.598C246.899 232.598 202.312 249.069 192.306 247.228C169.494 243.077 169.183 224.842 177.867 218.358Z" fill="#062D74"/>
<path d="M194.509 208.656L209.751 226.787L181.469 235.399L177.866 218.357L194.509 208.656Z" fill="#052765"/>
<path d="M225.487 291.427C225.487 291.427 224.554 316.587 223.984 320.867C223.414 325.121 234.664 337.883 233.212 333.448C232.875 332.436 232.02 329.038 232.02 328.727C232.02 327.041 236.194 298.326 236.194 298.326L225.487 291.427Z" fill="#F7A491"/>
<path d="M237.464 341.307L232.098 329.09C232.098 329.09 227.536 327.249 223.932 320.894C223.932 320.894 220.459 321.438 217.27 323.799C216.726 324.214 212.993 326.911 213.252 327.56C214.211 329.868 219.266 334.823 224.814 340.218C224.814 340.218 232.668 346.547 238.449 349.997C244.256 353.447 237.464 341.307 237.464 341.307Z" fill="#062D74"/>
<path d="M250.165 241.806C244.851 234.699 201.871 227.955 201.871 227.955L189.894 204.896L163.401 221.237C163.401 221.237 166.045 242.325 168.042 247.98C170.686 255.502 188.495 255.865 199.382 255.761C209.388 255.658 227.664 257.707 227.664 257.707L221.468 312.282C221.468 312.282 233.626 315.057 237.048 314.59C237.411 314.564 256.775 250.651 250.165 241.806Z" fill="#062D74"/>
<path d="M178.489 148.997L163.532 149.827C163.532 149.827 163.195 149.957 163.091 149.957C161.873 150.19 162.988 193.767 164.076 210.057C165.165 226.346 167.369 233.168 167.369 233.168C167.369 233.168 187.64 229.562 193.862 227.15C196.454 226.139 202.701 218.331 202.701 218.331C202.701 218.331 196.324 209.745 193.11 195.79C190.621 185.026 187.562 165.961 185.826 161.966C181.756 152.836 178.489 148.997 178.489 148.997Z" fill="white"/>
<path d="M163.947 136.626L163.532 149.829C163.532 149.829 173.201 166.507 178.179 164.199C182.352 162.253 178.645 149.543 178.645 149.543C178.645 149.543 177.919 146.638 176.934 143.292C176.234 140.958 175.664 138.416 175.69 136.574C175.794 132.061 163.947 136.626 163.947 136.626Z" fill="#F7A491"/>
<path d="M175.507 106.51C175.507 106.51 180.433 113.954 180.796 120.205C181.158 126.456 179.836 130.736 179.836 130.736L163.998 111.801L175.507 106.51Z" fill="#184655"/>
<path d="M182.454 118.934C182.688 121.139 181.832 123.006 180.562 123.136C179.292 123.266 178.073 121.606 177.84 119.401C177.607 117.196 178.462 115.328 179.732 115.199C181.029 115.069 182.221 116.729 182.454 118.934Z" fill="#F48C7F"/>
<path d="M158.917 114.836C158.554 114.758 158.58 132.993 163.868 137.273C169.156 141.553 178.333 141.942 181.029 137.61C183.984 132.837 181.185 113.617 173.33 109.544C165.449 105.472 158.917 114.836 158.917 114.836Z" fill="#F7A491"/>
<path d="M157.569 103.527C153.551 107.055 151.581 109.648 148.859 115.926C145.515 123.655 152.151 131.67 157.724 134.835C163.298 138.025 163.764 141.916 163.764 141.916L163.998 139.478C164.231 137.584 163.661 136.521 163.142 135.38C162.676 134.368 161.146 130.892 160.55 129.958C158.969 127.546 158.683 127.001 159.435 124.719C160.031 122.955 159.332 119.038 160.265 116.107L167.782 114.499C167.782 114.499 172.474 113.358 174.859 110.634C181.677 102.801 168.197 94.0333 157.569 103.527Z" fill="#184655"/>
<path d="M161.225 126.741C162.158 128.738 161.951 130.787 160.785 131.332C159.618 131.877 157.933 130.684 157 128.686C156.067 126.689 156.274 124.64 157.44 124.095C158.633 123.551 160.318 124.744 161.225 126.741Z" fill="#F7A491"/>
<path d="M60.1006 133.279L58.8822 124.875L65.1037 119.116C65.8036 118.468 65.4666 117.275 64.5075 117.119L56.1603 115.692L52.6089 107.989C52.1942 107.107 50.9758 107.081 50.5092 107.937L46.5689 115.433L38.144 116.445C37.1849 116.548 36.7701 117.716 37.4441 118.416L43.3545 124.486L41.6954 132.812C41.514 133.772 42.499 134.524 43.3545 134.083L50.9499 130.322L58.3379 134.472C59.2452 134.939 60.2561 134.239 60.1006 133.279Z" fill="#F7CC7F"/>
<path d="M110.081 76.4737C110.937 79.9754 112.466 85.5263 112.466 85.5263C112.336 87.0567 111.896 93.3858 111.351 101.167L122.783 96.6022C122.783 96.6022 122.654 83.9441 123.146 83.1659C123.587 82.5174 124.313 83.3215 127.812 78.3154C128.823 76.8628 129.005 74.2949 129.005 74.2949C129.005 74.2949 129.212 71.1044 128.486 70.8191C127.761 70.5337 126.957 71.0006 126.698 71.5454C126.438 72.0901 126.516 73.387 126.257 73.9317C125.998 74.4764 124.339 75.1508 123.639 75.099C122.939 75.073 123.717 65.6832 123.717 65.6832C123.717 65.6832 124.105 63.0115 124.313 62.1555C124.468 61.4033 125.168 59.2504 125.168 59.2504C125.168 59.2504 125.972 56.0859 124.987 55.8524C124.416 55.7227 122.939 58.2647 121.928 60.9883C120.839 63.9194 120.217 67.032 119.906 66.9801C119.18 66.8764 119.569 61.7405 119.569 61.7405C119.569 61.7405 120.295 59.3801 120.269 58.2647C120.943 56.9159 121.409 54.3739 120.191 54.1664C119.958 54.1405 118.376 57.3309 118.376 57.3309C118.376 57.3309 117.754 59.5876 117.391 60.6511C116.743 62.5187 116.64 65.4498 116.303 66.7467C116.018 67.8361 115.758 67.3692 115.655 67.4211C115.577 67.447 115.732 65.9685 115.888 63.9194C115.966 62.8818 115.862 61.6886 116.147 60.5214C116.406 59.432 116.562 57.8757 116.64 56.9419C116.847 54.2702 115.162 54.5555 114.592 56.9937C114.358 57.9275 114.151 58.9391 113.918 59.9507C113.01 63.9453 113.036 67.7842 112.622 67.8102C112.051 67.8621 112.44 60.8586 112.44 60.8586C112.44 60.8586 111.585 56.9937 110.729 60.5733C109.744 64.7494 109.848 68.1474 109.848 68.303C109.952 69.3406 109.226 72.972 110.081 76.4737Z" fill="#F8A492"/>
<path d="M163.506 149.854C163.506 149.854 148.705 149.154 144.868 147.416C142.561 146.378 123.508 130.997 123.508 130.997L123.715 89.8839L110.313 88.8723C110.313 88.8723 103.366 134.317 105.776 139.297C108.265 144.433 136.132 165.573 141.705 174.755C144.92 180.047 151.608 251.949 152.619 252.597C159.825 256.359 182.119 260.094 181.575 257.837C167.136 194.858 163.506 149.854 163.506 149.854Z" fill="#30AB5E"/>
<path d="M278.268 64.9898C290.225 53.0255 290.225 33.6276 278.268 21.6633C266.311 9.69899 246.925 9.69899 234.968 21.6633C223.011 33.6276 223.011 53.0255 234.968 64.9898C246.925 76.9541 266.311 76.9541 278.268 64.9898Z" fill="white"/>
<path d="M228.548 132.216C228.548 132.216 232.67 130.452 233.784 130.089C234.899 129.726 238.424 129.051 238.424 129.051C238.424 129.051 243.92 123.422 245.32 123.267C246.72 123.111 242.105 129.414 242.105 129.414L240.187 131.256C240.187 131.256 243.272 128.61 243.868 128.247C244.464 127.884 249.105 121.166 250.271 121.607C251.438 122.048 248.275 126.769 246.746 129.259C245.19 131.775 238.139 133.305 238.139 133.305L228.548 132.216Z" fill="#F7A491"/>
<path d="M277.825 150.399C277.825 151.514 252.784 151.8 247.599 174.029L244.255 172.94C251.695 150.347 276.477 151.281 277.696 150.451C277.722 150.451 277.722 150.425 277.722 150.425H277.825V150.399Z" fill="#F7CC7F"/>
<path d="M383.15 293.294L384.006 290.337C388.568 289.481 392.483 286.369 393.779 281.933C394.193 280.506 394.479 279.313 394.686 277.705L388.594 275.941L389.683 272.206L395.179 273.814C395.386 271.947 395.723 269.534 396.397 267.226C398.419 260.248 404.537 257.058 411.121 258.977C412.988 259.522 414.439 260.222 415.528 260.949C416.513 261.597 416.772 262.946 416.124 263.932C415.476 264.917 414.154 265.203 413.143 264.58C412.314 264.061 411.251 263.569 409.903 263.179C405.288 261.831 402.463 264.476 401.245 268.678C400.493 271.22 400.311 273.218 400.104 275.215L408.632 277.705L407.544 281.44L399.482 279.106C399.015 281.414 398.471 283.697 397.33 285.668C395.93 288.029 393.908 289.741 391.394 290.882L391.368 291.012L406.922 295.525C408.062 295.862 408.736 297.055 408.399 298.223L408.347 298.378C408.01 299.52 406.818 300.194 405.651 299.857L383.15 293.294Z" fill="#71A3EF"/>
</g>
<defs>
<linearGradient id="paint0_linear_659_14366" x1="348.922" y1="186.427" x2="348.922" y2="232.779" gradientUnits="userSpaceOnUse">
<stop stop-color="#30AB5E"/>
<stop offset="1" stop-color="#41AB30"/>
</linearGradient>
</defs>
</svg>
