<svg width="63" height="55" viewBox="0 0 63 55" fill="none" xmlns="http://www.w3.org/2000/svg">
<path d="M17.0367 10.2081C7.69345 9.37525 5.51848 18.4114 5.61298 24.209C5.62481 24.9345 5.2782 25.6247 4.70146 26.0649C-2.60564 31.643 2.48736 38.1638 6.49162 41.1431C6.81601 41.3845 7.21133 41.5032 7.61565 41.5032H55.1063C55.3982 41.5032 55.6948 41.437 55.9569 41.3085C65.3513 36.7012 62.6549 29.7512 59.5959 26.1625C59.1645 25.6564 58.9573 24.9865 59.054 24.3286C60.726 12.9531 52.5003 10.268 46.5283 10.3364C45.315 10.3502 44.2176 9.39873 43.7708 8.27063C42.7313 5.64566 39.7696 2.327 32.935 1.20273C25.2379 -0.0634276 21.169 4.8653 19.5805 8.65501C19.1611 9.65559 18.1174 10.3044 17.0367 10.2081Z" fill="#30AB5E" stroke="#30AB5E"/>
<path d="M21.95 27.5367L27.8821 23.1656C28.4121 22.7751 28.4267 21.9879 27.9116 21.578L23.1138 17.76" stroke="white" stroke-linecap="round"/>
<path d="M31.7361 28.9333H39.4177" stroke="white" stroke-linecap="round"/>
<circle cx="32.4346" cy="43.1285" r="11.8716" fill="#E0EBE4"/>
</svg>
