<svg width="53" height="53" viewBox="0 0 53 53" fill="none" xmlns="http://www.w3.org/2000/svg">
<path d="M43.7 33.25C43.3839 33.9663 43.2895 34.761 43.4292 35.5314C43.5689 36.3018 43.9362 37.0128 44.4837 37.5725L44.6263 37.715C45.0679 38.1561 45.4182 38.68 45.6573 39.2567C45.8963 39.8333 46.0194 40.4514 46.0194 41.0756C46.0194 41.6998 45.8963 42.318 45.6573 42.8946C45.4182 43.4712 45.0679 43.9951 44.6263 44.4362C44.1851 44.8779 43.6612 45.2282 43.0846 45.4673C42.5079 45.7063 41.8898 45.8294 41.2656 45.8294C40.6414 45.8294 40.0233 45.7063 39.4467 45.4673C38.87 45.2282 38.3461 44.8779 37.905 44.4362L37.7625 44.2938C37.2028 43.7462 36.4918 43.3789 35.7214 43.2392C34.951 43.0995 34.1563 43.1939 33.44 43.51C32.7375 43.8111 32.1385 44.311 31.7165 44.9481C31.2945 45.5853 31.068 46.332 31.065 47.0962V47.5C31.065 48.7598 30.5646 49.968 29.6738 50.8588C28.783 51.7496 27.5748 52.25 26.315 52.25C25.0552 52.25 23.847 51.7496 22.9562 50.8588C22.0654 49.968 21.565 48.7598 21.565 47.5V47.2863C21.5466 46.5001 21.2922 45.7377 20.8347 45.0982C20.3773 44.4586 19.738 43.9714 19 43.7C18.2837 43.3839 17.489 43.2895 16.7186 43.4292C15.9482 43.5689 15.2372 43.9362 14.6775 44.4837L14.535 44.6263C14.0939 45.0679 13.57 45.4182 12.9933 45.6573C12.4167 45.8963 11.7986 46.0194 11.1744 46.0194C10.5502 46.0194 9.93205 45.8963 9.35541 45.6573C8.77877 45.4182 8.2549 45.0679 7.81375 44.6263C7.37211 44.1851 7.02176 43.6612 6.78272 43.0846C6.54368 42.5079 6.42064 41.8898 6.42064 41.2656C6.42064 40.6414 6.54368 40.0233 6.78272 39.4467C7.02176 38.87 7.37211 38.3461 7.81375 37.905L7.95625 37.7625C8.50377 37.2028 8.87107 36.4918 9.01076 35.7214C9.15046 34.951 9.05615 34.1563 8.74 33.44C8.43894 32.7375 7.93904 32.1385 7.30186 31.7165C6.66467 31.2945 5.91799 31.068 5.15375 31.065H4.75C3.49022 31.065 2.28204 30.5646 1.39124 29.6738C0.500445 28.783 0 27.5748 0 26.315C0 25.0552 0.500445 23.847 1.39124 22.9562C2.28204 22.0654 3.49022 21.565 4.75 21.565H4.96375C5.74986 21.5466 6.51226 21.2922 7.15184 20.8347C7.79141 20.3773 8.27857 19.738 8.55 19C8.86615 18.2837 8.96046 17.489 8.82076 16.7186C8.68107 15.9482 8.31378 15.2372 7.76625 14.6775L7.62375 14.535C7.18211 14.0939 6.83176 13.57 6.59272 12.9933C6.35368 12.4167 6.23064 11.7986 6.23064 11.1744C6.23064 10.5502 6.35368 9.93205 6.59272 9.35541C6.83176 8.77877 7.18211 8.2549 7.62375 7.81375C8.0649 7.37211 8.58877 7.02176 9.16541 6.78272C9.74205 6.54368 10.3602 6.42064 10.9844 6.42064C11.6086 6.42064 12.2267 6.54368 12.8033 6.78272C13.38 7.02176 13.9039 7.37211 14.345 7.81375L14.4875 7.95625C15.0472 8.50377 15.7582 8.87107 16.5286 9.01076C17.299 9.15046 18.0937 9.05615 18.81 8.74H19C19.7025 8.43894 20.3015 7.93904 20.7235 7.30186C21.1455 6.66467 21.372 5.91799 21.375 5.15375V4.75C21.375 3.49022 21.8754 2.28204 22.7662 1.39124C23.657 0.500445 24.8652 0 26.125 0C27.3848 0 28.593 0.500445 29.4838 1.39124C30.3746 2.28204 30.875 3.49022 30.875 4.75V4.96375C30.878 5.72799 31.1045 6.47467 31.5265 7.11186C31.9485 7.74904 32.5475 8.24894 33.25 8.55C33.9663 8.86615 34.761 8.96046 35.5314 8.82076C36.3018 8.68107 37.0128 8.31378 37.5725 7.76625L37.715 7.62375C38.1561 7.18211 38.68 6.83176 39.2567 6.59272C39.8333 6.35368 40.4514 6.23064 41.0756 6.23064C41.6998 6.23064 42.318 6.35368 42.8946 6.59272C43.4712 6.83176 43.9951 7.18211 44.4362 7.62375C44.8779 8.0649 45.2282 8.58877 45.4673 9.16541C45.7063 9.74205 45.8294 10.3602 45.8294 10.9844C45.8294 11.6086 45.7063 12.2267 45.4673 12.8033C45.2282 13.38 44.8779 13.9039 44.4362 14.345L44.2938 14.4875C43.7462 15.0472 43.3789 15.7582 43.2392 16.5286C43.0995 17.299 43.1939 18.0937 43.51 18.81V19C43.8111 19.7025 44.311 20.3015 44.9481 20.7235C45.5853 21.1455 46.332 21.372 47.0962 21.375H47.5C48.7598 21.375 49.968 21.8754 50.8588 22.7662C51.7496 23.657 52.25 24.8652 52.25 26.125C52.25 27.3848 51.7496 28.593 50.8588 29.4838C49.968 30.3746 48.7598 30.875 47.5 30.875H47.2863C46.522 30.878 45.7753 31.1045 45.1381 31.5265C44.501 31.9485 44.0011 32.5475 43.7 33.25Z" fill="#30AB5E"/>
<path d="M26 36.625C31.5228 36.625 36 32.1478 36 26.625C36 21.1022 31.5228 16.625 26 16.625C20.4772 16.625 16 21.1022 16 26.625C16 32.1478 20.4772 36.625 26 36.625Z" fill="white"/>
<path d="M30.5 30.125L26 27.125V20.125" stroke="#30AB5E" stroke-linecap="round"/>
</svg>
