<svg width="365" height="267" viewBox="0 0 365 267" fill="none" xmlns="http://www.w3.org/2000/svg">
<path d="M280.243 205.168C283.522 217.347 306.474 227.653 338.796 222.5C367.838 202.826 369.413 159.251 359.407 135.374C338.796 86.1895 264.318 135.374 239.023 66.0475C213.728 -3.27883 133.628 31.3843 97.0916 51.9949C60.5548 72.6054 76.4811 126.005 45.0969 135.374C13.7127 144.742 -30.7873 168.632 31.0443 205.168C92.8758 241.705 262.06 137.616 280.243 205.168Z" fill="#30AB5E"/>
<g clip-path="url(#clip0_659_19216)">
<path d="M299.009 201.049C299.161 201.049 299.237 201.049 299.389 200.972L315.793 192.453C316.401 192.149 316.78 191.54 316.78 190.855C316.78 190.171 316.401 189.562 315.793 189.258L299.541 180.282C299.389 180.206 299.389 180.054 299.389 179.978C299.389 179.902 299.389 179.749 299.541 179.673L315.641 170.773C316.249 170.469 316.552 169.86 316.552 169.176C316.552 168.491 316.249 167.883 315.641 167.578L293.01 153.962C291.339 152.973 289.212 152.897 287.466 153.886L274.859 161.037C274.479 161.265 274.403 161.721 274.555 162.102C274.783 162.482 275.239 162.558 275.618 162.406L288.225 155.255C289.44 154.571 290.959 154.571 292.25 155.331L314.882 168.872C315.034 168.948 315.034 169.1 315.034 169.176C315.034 169.252 315.034 169.404 314.882 169.48L298.781 178.456C298.174 178.76 297.87 179.369 297.87 180.054C297.87 180.738 298.25 181.347 298.857 181.651L315.109 190.551C315.261 190.627 315.261 190.779 315.261 190.855C315.261 190.931 315.261 191.084 315.109 191.16L298.706 199.679C298.326 199.908 298.174 200.364 298.402 200.668C298.478 200.896 298.781 201.049 299.009 201.049Z" fill="#318450"/>
<path d="M297.268 204.305L295.228 200.742L302.87 196.353L304.91 199.916L297.268 204.305Z" fill="#318450"/>
<path d="M305.237 198.995C305.237 198.082 304.629 196.941 303.794 196.485C303.034 196.028 302.351 196.409 302.351 197.321C302.351 198.234 302.958 199.375 303.794 199.832C304.629 200.288 305.237 199.908 305.237 198.995Z" fill="#318450"/>
<path d="M287.275 211.505L283.989 205.764L295.913 198.916L299.2 204.657L287.275 211.505Z" fill="#318450"/>
<path d="M296.427 199.984L299.01 198.539C300.073 199.299 300.908 200.745 301.06 202.114L298.478 203.559C297.415 202.798 296.579 201.353 296.427 199.984Z" fill="#229B85"/>
<path d="M299.845 203.103C299.845 201.581 298.782 199.832 297.49 199.071C296.199 198.31 295.136 198.919 295.136 200.44C295.136 201.962 296.199 203.711 297.49 204.472C298.857 205.157 299.845 204.624 299.845 203.103Z" fill="#318450"/>
<path d="M302.198 198.159C301.652 198.157 301.211 197.918 301.212 197.624C301.213 197.33 301.655 197.093 302.201 197.094C302.746 197.096 303.187 197.336 303.186 197.63C303.186 197.924 302.743 198.161 302.198 198.159Z" fill="#73C4A2"/>
<path d="M247.519 145.747L287.77 122.774C289.213 121.937 289.061 120.416 287.39 119.427L264.227 106.039C262.556 105.05 259.974 104.974 258.455 105.811L218.205 128.784C216.762 129.62 216.914 131.142 218.584 132.131L241.747 145.519C243.418 146.431 246 146.584 247.519 145.747Z" fill="#D4ECDD"/>
<path d="M214.559 121.025V26.9282L251.924 17.1154L258.835 13.1599C260.43 12.247 263.164 12.3992 264.986 13.3881L271.441 17.1154H291.339L285.415 107.941C285.491 108.55 285.111 109.158 284.352 109.615L247.063 137.76C245.468 138.673 242.735 138.521 240.912 137.532L216.078 123.155C215.015 122.546 214.559 121.785 214.559 121.025Z" fill="#229B85"/>
<path d="M261.645 12.5513C262.784 12.5513 263.999 12.8555 264.91 13.388L271.366 17.1154H291.263V111.44C291.339 112.049 290.959 112.657 290.2 113.114L247.063 137.76C246.304 138.216 245.241 138.368 244.177 138.368L243.722 43.435L261.645 12.5513Z" fill="#73C4A2"/>
<path d="M246.684 137.988C245.317 138.597 243.342 138.52 241.747 137.912V42.2939H246.684V137.988Z" fill="#318450"/>
<path d="M247.063 43.435L290.276 18.7889C291.871 17.876 291.643 16.2786 289.82 15.2136L264.986 0.83672C263.164 -0.228237 260.43 -0.304305 258.835 0.608515L215.698 25.2547C214.104 26.1675 214.331 27.7649 216.154 28.8299L240.912 43.2068C242.735 44.2718 245.545 44.3478 247.063 43.435Z" fill="#73C4A2"/>
<path d="M216.078 27.0801L240.912 41.4571C242.735 42.522 245.469 42.5981 247.063 41.6853L290.276 17.0391C290.655 16.8109 290.883 16.5827 291.035 16.3545C291.567 17.1912 291.339 18.1801 290.276 18.7887L247.139 43.4348C245.544 44.3477 242.81 44.1955 240.988 43.2066L216.154 28.8297C214.711 27.993 214.331 26.8519 214.939 25.9391C215.091 26.3955 215.546 26.7759 216.078 27.0801Z" fill="#FAFDFF"/>
<path d="M245.848 33.4702L274.631 16.8112C275.391 16.3548 275.315 15.6702 274.403 15.1377L262.784 8.36759C261.948 7.91117 260.657 7.83511 259.898 8.21545L231.191 24.8744C230.432 25.3308 230.507 26.0155 231.419 26.5479L243.038 33.2419C243.874 33.8505 245.165 33.9266 245.848 33.4702Z" fill="white"/>
<path d="M261.417 17.4958L263.088 16.5069C263.164 16.4308 263.164 16.3548 263.088 16.2787L261.493 15.3659C261.341 15.2898 261.189 15.2898 261.113 15.3659L259.442 16.3548C259.366 16.4308 259.366 16.5069 259.442 16.583L260.961 17.4958C261.113 17.5719 261.265 17.5719 261.417 17.4958Z" fill="#73C4A2"/>
<path d="M255.797 20.6907L257.468 19.7779C257.544 19.7018 257.544 19.6258 257.468 19.5497L255.873 18.6369C255.721 18.5608 255.569 18.5608 255.493 18.6369L253.823 19.6258C253.747 19.7018 253.747 19.7779 253.823 19.854L255.417 20.7668C255.569 20.7668 255.721 20.7668 255.797 20.6907Z" fill="#73C4A2"/>
<path d="M250.253 23.9616L251.924 22.9727C251.999 22.8967 251.999 22.8206 251.924 22.7445L250.329 21.8317C250.177 21.7556 250.025 21.7556 249.949 21.8317L248.278 22.8206C248.202 22.8967 248.202 22.9727 248.278 23.0488L249.873 23.9616C249.949 23.9616 250.177 23.9616 250.253 23.9616Z" fill="#73C4A2"/>
<path d="M244.709 27.1564L246.38 26.1676C246.456 26.0915 246.456 26.0154 246.38 25.9394L244.785 25.0265C244.633 24.9505 244.481 24.9505 244.405 25.0265L242.735 26.0154C242.659 26.0915 242.659 26.1676 242.735 26.2436L244.33 27.1564C244.405 27.1564 244.557 27.2325 244.709 27.1564Z" fill="#73C4A2"/>
<path d="M274.631 16.811C274.555 16.811 274.479 16.735 274.403 16.735L262.784 10.041C261.948 9.58455 260.657 9.50848 259.898 9.88882L231.191 26.5478C230.507 26.0914 230.507 25.4068 231.191 25.0264L259.898 8.29139C260.657 7.83498 261.948 7.91105 262.784 8.44352L274.403 15.1375C275.238 15.594 275.314 16.3546 274.631 16.811Z" fill="#318450"/>
<path d="M236.051 62.0717L219.723 52.7153C218.812 52.1828 218.053 50.7375 218.053 49.5204V43.6632C218.053 42.4461 218.812 41.8375 219.723 42.37L236.051 51.7264C236.963 52.2589 237.722 53.7042 237.722 54.9213V60.8546C237.722 62.0717 236.963 62.6042 236.051 62.0717Z" fill="white"/>
<path d="M218.964 42.218C218.736 42.4462 218.508 42.9026 218.508 43.4351V49.2924C218.508 50.5095 219.268 51.9548 220.179 52.4873L236.507 61.8437C236.811 61.9958 237.039 62.0719 237.342 61.9958C237.039 62.3001 236.583 62.3001 236.127 62.0719L219.799 52.7155C218.888 52.183 218.128 50.7377 218.128 49.5206V43.6633C218.052 42.8266 218.432 42.3702 218.964 42.218Z" fill="white"/>
<path d="M231.191 55.7581L229.672 54.9214C229.444 54.7692 229.292 54.465 229.292 54.2368V52.6393C229.292 52.335 229.444 52.259 229.672 52.3351L231.191 53.1718C231.419 53.3239 231.571 53.6282 231.571 53.8564V55.4539C231.495 55.7581 231.343 55.8342 231.191 55.7581Z" fill="#229B85"/>
<path d="M226.179 52.8675L224.66 52.0308C224.432 51.8786 224.28 51.5743 224.28 51.3461V49.7487C224.28 49.4444 224.432 49.3684 224.66 49.4444L226.179 50.2812C226.407 50.4333 226.559 50.7376 226.559 50.9658V52.5632C226.483 52.8675 226.331 52.9436 226.179 52.8675Z" fill="white"/>
<path d="M236.051 104.366L219.723 95.0093C218.812 94.4768 218.053 93.0315 218.053 91.8144V85.9571C218.053 84.74 218.812 84.1315 219.723 84.664L236.051 94.0204C236.963 94.5529 237.722 95.9982 237.722 97.2153V103.073C237.722 104.366 236.963 104.898 236.051 104.366Z" fill="white"/>
<path d="M218.964 84.512C218.736 84.7402 218.508 85.1966 218.508 85.7291V91.5863C218.508 92.8034 219.268 94.2487 220.179 94.7812L236.507 104.214C236.811 104.366 237.039 104.442 237.342 104.366C237.039 104.67 236.583 104.67 236.127 104.442L219.799 95.0855C218.888 94.553 218.128 93.1077 218.128 91.8906V85.9573C218.052 85.1205 218.432 84.6641 218.964 84.512Z" fill="white"/>
<path d="M231.191 98.0521L229.672 97.2153C229.444 97.0632 229.292 96.7589 229.292 96.5307V94.9333C229.292 94.629 229.444 94.5529 229.672 94.629L231.191 95.4657C231.419 95.6179 231.571 95.9222 231.571 96.1504V97.7478C231.495 98.0521 231.343 98.1281 231.191 98.0521Z" fill="#229B85"/>
<path d="M226.179 95.1614L224.66 94.3247C224.432 94.1726 224.28 93.8683 224.28 93.6401V92.0426C224.28 91.7384 224.432 91.6623 224.66 91.7384L226.179 92.5751C226.407 92.7273 226.559 93.0315 226.559 93.2597V94.8572C226.483 95.1614 226.331 95.2375 226.179 95.1614Z" fill="white"/>
<path d="M236.051 125.513L219.723 116.156C218.812 115.624 218.053 114.179 218.053 112.962V107.104C218.053 105.887 218.812 105.279 219.723 105.811L236.051 115.168C236.963 115.7 237.722 117.145 237.722 118.362V124.22C237.722 125.513 236.963 126.045 236.051 125.513Z" fill="white"/>
<path d="M218.964 105.735C218.736 105.963 218.508 106.42 218.508 106.952V112.809C218.508 114.027 219.268 115.472 220.179 116.004L236.507 125.361C236.811 125.513 237.039 125.589 237.342 125.513C237.039 125.817 236.583 125.817 236.127 125.589L219.799 116.233C218.888 115.7 218.128 114.255 218.128 113.038V107.18C218.052 106.268 218.432 105.811 218.964 105.735Z" fill="white"/>
<path d="M231.191 119.199L229.672 118.363C229.444 118.21 229.292 117.906 229.292 117.678V116.08C229.292 115.776 229.444 115.7 229.672 115.776L231.191 116.613C231.419 116.765 231.571 117.069 231.571 117.298V118.895C231.495 119.199 231.343 119.275 231.191 119.199Z" fill="#229B85"/>
<path d="M226.179 116.309L224.66 115.472C224.432 115.32 224.28 115.016 224.28 114.787V113.19C224.28 112.886 224.432 112.81 224.66 112.886L226.179 113.722C226.407 113.874 226.559 114.179 226.559 114.407V116.004C226.483 116.309 226.331 116.385 226.179 116.309Z" fill="white"/>
<path d="M236.051 83.2187L219.723 73.8623C218.812 73.3298 218.053 71.8845 218.053 70.6674V64.8102C218.053 63.5931 218.812 62.9845 219.723 63.517L236.051 72.8734C236.963 73.4059 237.722 74.8512 237.722 76.0683V81.9255C237.722 83.2187 236.963 83.7512 236.051 83.2187Z" fill="white"/>
<path d="M218.964 63.365C218.736 63.5932 218.508 64.0496 218.508 64.5821V70.4393C218.508 71.6564 219.268 73.1017 220.179 73.6342L236.507 82.9906C236.811 83.1428 237.039 83.2188 237.342 83.1428C237.039 83.447 236.583 83.447 236.127 83.2188L219.799 73.8624C218.888 73.3299 218.128 71.8846 218.128 70.6676V64.8103C218.052 63.9735 218.432 63.5171 218.964 63.365Z" fill="white"/>
<path d="M231.191 76.9051L229.672 76.0684C229.444 75.9162 229.292 75.6119 229.292 75.3837V73.7863C229.292 73.482 229.444 73.406 229.672 73.482L231.191 74.3188C231.419 74.4709 231.571 74.7752 231.571 75.0034V76.6008C231.495 76.9051 231.343 76.9812 231.191 76.9051Z" fill="#229B85"/>
<path d="M226.179 74.0145L224.66 73.1777C224.432 73.0256 224.28 72.7213 224.28 72.4931V70.8957C224.28 70.5914 224.432 70.5153 224.66 70.5914L226.179 71.4282C226.407 71.5803 226.559 71.8846 226.559 72.1128V73.7102C226.483 74.0145 226.331 74.0905 226.179 74.0145Z" fill="white"/>
<path d="M250.253 56.1385L287.922 34.3069C288.757 33.8505 289.44 32.4812 289.44 31.4163V24.1898C289.44 23.0488 288.757 22.5163 287.922 23.0488L250.253 44.8804C249.418 45.3368 248.734 46.706 248.734 47.771V54.9975C248.734 56.0624 249.418 56.5949 250.253 56.1385Z" fill="#318450"/>
<path opacity="0.4" d="M251.316 53.5523L286.858 33.0138C287.314 32.7856 287.618 32.101 287.618 31.4924V26.0916C287.618 25.483 287.238 25.2548 286.858 25.483L251.316 46.0215C250.861 46.2497 250.557 46.9343 250.557 47.5429V52.9437C250.557 53.5523 250.861 53.8565 251.316 53.5523Z" fill="#73C4A2"/>
<path d="M279.416 34.6111L284.732 31.5684C285.111 31.3402 285.491 30.6556 285.491 30.1231C285.491 29.5906 285.187 29.2863 284.732 29.5906L279.416 32.6333C279.036 32.8615 278.656 33.5462 278.656 34.0786C278.656 34.535 279.036 34.8393 279.416 34.6111Z" fill="#73C4A2"/>
<path d="M275.171 36.7196C274.845 36.5305 274.852 35.9054 275.187 35.3232C275.523 34.7411 276.06 34.4225 276.387 34.6115C276.714 34.8006 276.707 35.4258 276.371 36.0079C276.035 36.59 275.498 36.9086 275.171 36.7196Z" fill="white"/>
<path d="M271.897 37.9581C271.897 38.4906 272.277 38.7188 272.732 38.4906C273.188 38.1863 273.568 37.5017 273.568 36.9692C273.568 36.4367 273.188 36.2085 272.732 36.4367C272.277 36.741 271.897 37.4256 271.897 37.9581Z" fill="white"/>
<path d="M268.783 39.7079C268.783 40.2404 269.163 40.4686 269.619 40.2404C270.074 39.9361 270.454 39.2515 270.454 38.719C270.454 38.1865 270.074 37.9583 269.619 38.1865C269.163 38.4908 268.783 39.1754 268.783 39.7079Z" fill="#73C4A2"/>
<path d="M265.746 41.5333C265.746 42.0658 266.125 42.294 266.581 42.0658C267.037 41.7615 267.417 41.0769 267.417 40.5444C267.417 40.0119 267.037 39.7837 266.581 40.0119C266.125 40.2401 265.746 40.9248 265.746 41.5333Z" fill="white"/>
<path d="M252.835 50.5855L254.658 49.5205C254.961 49.3684 255.113 48.988 255.113 48.6077V46.706C255.113 46.3256 254.885 46.1735 254.658 46.3256L252.835 47.3906C252.531 47.5427 252.379 47.9231 252.379 48.3034V50.2051C252.303 50.5855 252.531 50.7376 252.835 50.5855Z" fill="white"/>
<path d="M250.253 68.8419L287.922 47.0103C288.757 46.5538 289.44 45.1846 289.44 44.1197V36.8932C289.44 35.7521 288.757 35.2197 287.922 35.7521L250.253 57.5838C249.418 58.0402 248.734 59.4094 248.734 60.4744V67.7008C248.734 68.7658 249.418 69.2983 250.253 68.8419Z" fill="#318450"/>
<path opacity="0.4" d="M251.316 66.2556L286.858 45.7172C287.314 45.489 287.618 44.8044 287.618 44.1958V38.795C287.618 38.1864 287.238 37.9582 286.858 38.1864L251.316 58.7249C250.861 58.9531 250.557 59.6377 250.557 60.2462V65.6471C250.557 66.2556 250.861 66.5599 251.316 66.2556Z" fill="#73C4A2"/>
<path d="M279.416 47.2383L284.732 44.1956C285.111 43.9674 285.491 43.2828 285.491 42.7503C285.491 42.2178 285.187 41.9135 284.732 42.2178L279.416 45.2605C279.036 45.4887 278.656 46.1734 278.656 46.7058C278.656 47.2383 279.036 47.5426 279.416 47.2383Z" fill="#73C4A2"/>
<path d="M274.935 48.912C274.935 49.4445 275.315 49.6727 275.771 49.4445C276.226 49.1402 276.606 48.4556 276.606 47.9231C276.606 47.3906 276.226 47.1624 275.771 47.3906C275.315 47.6188 274.935 48.3034 274.935 48.912Z" fill="white"/>
<path d="M271.897 50.6615C271.897 51.194 272.277 51.4222 272.732 51.194C273.188 50.8897 273.568 50.2051 273.568 49.6726C273.568 49.1401 273.188 48.9119 272.732 49.1401C272.277 49.4444 271.897 50.129 271.897 50.6615Z" fill="white"/>
<path d="M268.783 52.4112C268.783 52.9437 269.163 53.1719 269.619 52.9437C270.074 52.6394 270.454 51.9548 270.454 51.4223C270.454 50.8899 270.074 50.6617 269.619 50.8899C269.163 51.1181 268.783 51.8788 268.783 52.4112Z" fill="#73C4A2"/>
<path d="M265.977 54.7523C265.65 54.5632 265.657 53.9381 265.992 53.356C266.328 52.7738 266.865 52.4552 267.192 52.6443C267.519 52.8333 267.512 53.4585 267.176 54.0406C266.841 54.6227 266.304 54.9413 265.977 54.7523Z" fill="white"/>
<path d="M252.835 63.2888L254.658 62.2239C254.961 62.0717 255.113 61.6914 255.113 61.311V59.4093C255.113 59.029 254.885 58.8769 254.658 59.029L252.835 60.094C252.531 60.2461 252.379 60.6264 252.379 61.0068V62.9085C252.303 63.2888 252.531 63.441 252.835 63.2888Z" fill="white"/>
<path d="M250.253 81.4692L287.922 59.7136C288.757 59.2572 289.44 57.888 289.44 56.823V49.5965C289.44 48.4555 288.757 47.923 287.922 48.4555L250.253 70.2871C249.418 70.7435 248.734 72.1128 248.734 73.1777V80.4042C248.734 81.4692 249.418 82.0016 250.253 81.4692Z" fill="#318450"/>
<path opacity="0.4" d="M251.316 78.959L286.858 58.4206C287.314 58.1923 287.618 57.5077 287.618 56.8992V51.4983C287.618 50.8898 287.238 50.6616 286.858 50.8898L251.316 71.4282C250.861 71.6565 250.557 72.3411 250.557 72.9496V78.3505C250.557 78.959 250.861 79.2633 251.316 78.959Z" fill="#73C4A2"/>
<path d="M279.416 59.9417L284.732 56.899C285.111 56.6707 285.491 55.9861 285.491 55.4537C285.491 54.9212 285.187 54.6169 284.732 54.9212L279.416 57.9639C279.036 58.1921 278.656 58.8767 278.656 59.4092C278.656 59.9417 279.036 60.246 279.416 59.9417Z" fill="#73C4A2"/>
<path d="M274.935 61.6153C274.935 62.1478 275.315 62.376 275.771 62.1478C276.226 61.8435 276.606 61.1589 276.606 60.6265C276.606 60.094 276.226 59.8658 275.771 60.094C275.315 60.3222 274.935 61.0068 274.935 61.6153Z" fill="white"/>
<path d="M271.897 63.3648C271.897 63.8973 272.277 64.1255 272.732 63.8973C273.188 63.5931 273.568 62.9084 273.568 62.376C273.568 61.8435 273.188 61.6153 272.732 61.8435C272.277 62.1478 271.897 62.8324 271.897 63.3648Z" fill="white"/>
<path d="M268.783 65.1146C268.783 65.6471 269.163 65.8753 269.619 65.6471C270.074 65.3428 270.454 64.6582 270.454 64.1257C270.454 63.5932 270.074 63.365 269.619 63.5932C269.163 63.8975 268.783 64.5821 268.783 65.1146Z" fill="#73C4A2"/>
<path d="M265.746 66.94C265.746 67.4725 266.125 67.7007 266.581 67.4725C267.037 67.1682 267.417 66.4836 267.417 65.9512C267.417 65.4187 267.037 65.1905 266.581 65.4187C266.125 65.6469 265.746 66.3315 265.746 66.94Z" fill="white"/>
<path d="M252.835 75.9922L254.658 74.9272C254.961 74.7751 255.113 74.3948 255.113 74.0144V72.1127C255.113 71.7324 254.885 71.5802 254.658 71.7324L252.835 72.7973C252.531 72.9495 252.379 73.3298 252.379 73.7101V75.6119C252.303 75.9922 252.531 76.1443 252.835 75.9922Z" fill="white"/>
<path d="M250.253 94.1725L287.922 72.417C288.757 71.9606 289.44 70.5913 289.44 69.5264V62.2999C289.44 61.1589 288.757 60.6264 287.922 61.1589L250.253 82.9144C249.418 83.3708 248.734 84.7401 248.734 85.805V93.0315C248.734 94.1725 249.418 94.705 250.253 94.1725Z" fill="#318450"/>
<path opacity="0.4" d="M251.316 91.6624L286.858 71.1239C287.314 70.8957 287.618 70.2111 287.618 69.6026V64.2017C287.618 63.5932 287.238 63.3649 286.858 63.5932L251.316 84.1316C250.861 84.3598 250.557 85.0444 250.557 85.653V91.0538C250.557 91.6624 250.861 91.8906 251.316 91.6624Z" fill="#73C4A2"/>
<path d="M279.416 72.645L284.732 69.6023C285.111 69.3741 285.491 68.6895 285.491 68.157C285.491 67.6245 285.187 67.3203 284.732 67.6245L279.416 70.6673C279.036 70.8955 278.656 71.5801 278.656 72.1126C278.656 72.645 279.036 72.9493 279.416 72.645Z" fill="#73C4A2"/>
<path d="M274.935 74.2428C274.935 74.7753 275.315 75.0035 275.771 74.7753C276.226 74.471 276.606 73.7864 276.606 73.2539C276.606 72.7214 276.226 72.4932 275.771 72.7214C275.315 73.0257 274.935 73.7103 274.935 74.2428Z" fill="white"/>
<path d="M272.135 76.5948C271.808 76.4058 271.815 75.7806 272.151 75.1985C272.487 74.6164 273.024 74.2977 273.35 74.4868C273.677 74.6758 273.67 75.301 273.335 75.8831C272.999 76.4652 272.462 76.7839 272.135 76.5948Z" fill="white"/>
<path d="M268.783 77.818C268.783 78.3505 269.163 78.5787 269.619 78.3505C270.074 78.0462 270.454 77.3616 270.454 76.8291C270.454 76.2966 270.074 76.0684 269.619 76.2966C269.163 76.6009 268.783 77.2855 268.783 77.818Z" fill="#73C4A2"/>
<path d="M265.746 79.5675C265.746 80.1 266.125 80.3282 266.581 80.1C267.037 79.7957 267.417 79.1111 267.417 78.5786C267.417 78.0461 267.037 77.8179 266.581 78.0461C266.125 78.3504 265.746 79.035 265.746 79.5675Z" fill="white"/>
<path d="M252.835 88.6956L254.658 87.6306C254.961 87.4785 255.113 87.0981 255.113 86.7178V84.8161C255.113 84.4357 254.885 84.2836 254.658 84.4357L252.835 85.5007C252.531 85.6528 252.379 86.0332 252.379 86.4135V88.3152C252.303 88.6195 252.531 88.8477 252.835 88.6956Z" fill="#73C4A2"/>
<path d="M250.253 106.876L287.922 85.1204C288.757 84.664 289.44 83.2947 289.44 82.2298V75.0033C289.44 73.8622 288.757 73.3298 287.922 73.8622L250.253 95.6939C249.418 96.1503 248.734 97.5195 248.734 98.5845V105.811C248.734 106.876 249.418 107.408 250.253 106.876Z" fill="#318450"/>
<path opacity="0.4" d="M251.316 104.366L286.858 83.8273C287.314 83.5991 287.618 82.9145 287.618 82.3059V76.9051C287.618 76.2965 287.238 76.0683 286.858 76.2965L251.316 96.835C250.861 97.0632 250.557 97.7478 250.557 98.3564V103.757C250.557 104.366 250.861 104.594 251.316 104.366Z" fill="#73C4A2"/>
<path d="M279.416 85.3484L284.732 82.3057C285.111 82.0775 285.491 81.3929 285.491 80.8604C285.491 80.3279 285.187 80.0236 284.732 80.3279L279.416 83.3706C279.036 83.5988 278.656 84.2835 278.656 84.8159C278.656 85.3484 279.036 85.5766 279.416 85.3484Z" fill="#73C4A2"/>
<path d="M274.935 86.9462C274.935 87.4786 275.315 87.7068 275.771 87.4786C276.226 87.1744 276.606 86.4897 276.606 85.9573C276.606 85.4248 276.226 85.1966 275.771 85.4248C275.315 85.7291 274.935 86.4137 274.935 86.9462Z" fill="white"/>
<path d="M271.897 88.7716C271.897 89.3041 272.277 89.5323 272.732 89.3041C273.188 88.9998 273.568 88.3152 273.568 87.7827C273.568 87.2502 273.188 87.022 272.732 87.2502C272.277 87.5545 271.897 88.163 271.897 88.7716Z" fill="white"/>
<path d="M268.783 90.5213C268.783 91.0538 269.163 91.282 269.619 91.0538C270.074 90.7495 270.454 90.0649 270.454 89.5325C270.454 89 270.074 88.7718 269.619 89C269.163 89.3043 268.783 89.9889 268.783 90.5213Z" fill="#73C4A2"/>
<path d="M265.746 92.2709C265.746 92.8033 266.125 93.0315 266.581 92.8033C267.037 92.4991 267.417 91.8144 267.417 91.282C267.417 90.7495 267.037 90.5213 266.581 90.7495C266.125 91.0538 265.746 91.7384 265.746 92.2709Z" fill="white"/>
<path d="M252.835 101.323L254.658 100.258C254.961 100.106 255.113 99.7256 255.113 99.3452V97.4435C255.113 97.0632 254.885 96.911 254.658 97.0632L252.835 98.1281C252.531 98.2803 252.379 98.6606 252.379 99.041V100.943C252.303 101.323 252.531 101.551 252.835 101.323Z" fill="#73C4A2"/>
<path d="M250.253 119.58L287.922 97.824C288.757 97.3676 289.44 95.9983 289.44 94.9334V87.7069C289.44 86.5659 288.757 86.0334 287.922 86.5659L250.253 108.397C249.418 108.854 248.734 110.223 248.734 111.288V118.515C248.734 119.58 249.418 120.112 250.253 119.58Z" fill="#318450"/>
<path opacity="0.4" d="M251.316 117.069L286.858 96.5309C287.314 96.3027 287.618 95.6181 287.618 95.0095V89.6087C287.618 89.0001 287.238 88.7719 286.858 89.0001L251.316 109.539C250.861 109.767 250.557 110.451 250.557 111.06V116.461C250.557 117.069 250.861 117.298 251.316 117.069Z" fill="#73C4A2"/>
<path d="M279.416 98.052L284.732 95.0093C285.111 94.7811 285.491 94.0965 285.491 93.564C285.491 93.0315 285.187 92.7272 284.732 93.0315L279.416 96.0742C279.036 96.3025 278.656 96.9871 278.656 97.5195C278.656 98.052 279.036 98.2802 279.416 98.052Z" fill="#73C4A2"/>
<path d="M275.161 100.233C274.834 100.044 274.841 99.419 275.176 98.8369C275.512 98.2548 276.049 97.9362 276.376 98.1252C276.703 98.3143 276.696 98.9394 276.36 99.5215C276.025 100.104 275.488 100.422 275.161 100.233Z" fill="white"/>
<path d="M271.897 101.475C271.897 102.008 272.277 102.236 272.732 102.008C273.188 101.703 273.568 101.019 273.568 100.486C273.568 99.9538 273.188 99.7256 272.732 99.9538C272.277 100.182 271.897 100.867 271.897 101.475Z" fill="white"/>
<path d="M268.783 103.225C268.783 103.757 269.163 103.986 269.619 103.757C270.074 103.453 270.454 102.769 270.454 102.236C270.454 101.704 270.074 101.475 269.619 101.704C269.163 101.932 268.783 102.692 268.783 103.225Z" fill="#73C4A2"/>
<path d="M265.746 104.974C265.746 105.507 266.125 105.735 266.581 105.507C267.037 105.203 267.417 104.518 267.417 103.986C267.417 103.453 267.037 103.225 266.581 103.453C266.125 103.757 265.746 104.442 265.746 104.974Z" fill="white"/>
<path d="M252.835 114.027L254.658 112.962C254.961 112.81 255.113 112.429 255.113 112.049V110.147C255.113 109.767 254.885 109.615 254.658 109.767L252.835 110.832C252.531 110.984 252.379 111.364 252.379 111.745V113.646C252.303 114.027 252.531 114.179 252.835 114.027Z" fill="white"/>
<path d="M250.253 132.283L287.922 110.527C288.757 110.071 289.44 108.702 289.44 107.637V100.41C289.44 99.2692 288.757 98.7367 287.922 99.2692L250.253 121.101C249.418 121.557 248.734 122.926 248.734 123.991V131.218C248.734 132.283 249.418 132.815 250.253 132.283Z" fill="#318450"/>
<path opacity="0.4" d="M251.316 129.773L286.858 109.234C287.314 109.006 287.618 108.321 287.618 107.713V102.312C287.618 101.704 287.238 101.475 286.858 101.704L251.316 122.242C250.861 122.47 250.557 123.155 250.557 123.763V129.164C250.557 129.773 250.861 130.001 251.316 129.773Z" fill="#73C4A2"/>
<path d="M279.416 110.755L284.732 107.713C285.111 107.484 285.491 106.8 285.491 106.267C285.491 105.735 285.187 105.431 284.732 105.735L279.416 108.778C279.036 109.006 278.656 109.69 278.656 110.223C278.656 110.755 279.036 110.984 279.416 110.755Z" fill="#73C4A2"/>
<path d="M273.948 113.038C273.948 114.103 274.707 114.483 275.619 113.95C276.53 113.418 277.29 112.125 277.29 111.136C277.29 110.071 276.53 109.691 275.619 110.223C274.707 110.756 273.948 112.049 273.948 113.038Z" fill="white"/>
<path d="M267.568 116.765C267.568 117.297 267.948 117.525 268.404 117.297C268.86 116.993 269.239 116.308 269.239 115.776C269.239 115.243 268.86 115.015 268.404 115.243C268.024 115.548 267.568 116.232 267.568 116.765Z" fill="white"/>
<path d="M264.531 118.591C264.531 119.123 264.911 119.351 265.366 119.123C265.822 118.819 266.202 118.134 266.202 117.602C266.202 117.069 265.822 116.841 265.366 117.069C264.911 117.298 264.531 117.982 264.531 118.591Z" fill="#73C4A2"/>
<path d="M261.493 120.34C261.493 120.873 261.873 121.101 262.328 120.873C262.784 120.568 263.164 119.884 263.164 119.351C263.164 118.819 262.784 118.591 262.328 118.819C261.873 119.123 261.493 119.808 261.493 120.34Z" fill="white"/>
<path d="M252.835 126.73L254.658 125.665C254.961 125.513 255.113 125.133 255.113 124.752V122.851C255.113 122.47 254.885 122.318 254.658 122.47L252.835 123.535C252.531 123.687 252.379 124.068 252.379 124.448V126.35C252.303 126.73 252.531 126.882 252.835 126.73Z" fill="#73C4A2"/>
<path d="M252.759 164.155C252.911 164.155 252.987 164.155 253.139 164.079L295.972 139.661C296.503 139.357 296.807 138.825 296.807 138.216C296.807 137.608 296.503 137.075 295.972 136.771L277.593 125.893C276.91 125.513 276.53 124.828 276.53 124.067V112.125C276.53 111.668 276.226 111.364 275.771 111.364C275.315 111.364 275.011 111.668 275.011 112.125V124.067C275.011 125.361 275.695 126.578 276.834 127.186L295.212 138.064C295.288 138.064 295.288 138.14 295.288 138.216C295.288 138.292 295.288 138.292 295.212 138.368L252.38 162.786C252 163.014 251.924 163.471 252.076 163.851C252.228 164.079 252.456 164.155 252.759 164.155Z" fill="#318450"/>
<path d="M260.875 161.252L258.835 157.689L266.477 153.3L268.517 156.863L260.875 161.252Z" fill="#318450"/>
<path d="M268.936 155.94C268.936 155.027 268.328 153.886 267.493 153.43C266.733 152.974 266.05 153.354 266.05 154.267C266.05 155.18 266.657 156.321 267.493 156.777C268.328 157.157 268.936 156.853 268.936 155.94Z" fill="#318450"/>
<path d="M250.882 168.453L247.596 162.712L259.52 155.864L262.807 161.605L250.882 168.453Z" fill="#318450"/>
<path d="M260.126 156.929L262.708 155.484C263.772 156.245 264.607 157.69 264.759 159.059L262.177 160.504C261.113 159.744 260.278 158.298 260.126 156.929Z" fill="#229B85"/>
<path d="M263.543 160.048C263.543 158.527 262.48 156.777 261.189 156.016C259.898 155.256 258.835 155.864 258.835 157.386C258.835 158.907 259.898 160.657 261.189 161.417C262.48 162.102 263.543 161.493 263.543 160.048Z" fill="#318450"/>
<path d="M266.505 154.951C266.885 154.723 266.885 154.419 266.505 154.191C266.126 153.962 265.518 153.962 265.138 154.191C264.759 154.419 264.759 154.723 265.138 154.951C265.594 155.18 266.201 155.18 266.505 154.951Z" fill="#73C4A2"/>
<path d="M270.161 166.857L268.121 163.293L275.763 158.904L277.803 162.468L270.161 166.857Z" fill="#318450"/>
<path d="M278.201 161.493C278.201 160.58 277.593 159.439 276.758 158.983C275.998 158.527 275.315 158.907 275.315 159.82C275.315 160.733 275.922 161.874 276.758 162.33C277.593 162.786 278.201 162.406 278.201 161.493Z" fill="#318450"/>
<path d="M260.168 174.055L256.882 168.314L268.806 161.466L272.093 167.207L260.168 174.055Z" fill="#318450"/>
<path d="M269.391 162.558L271.973 161.113C273.037 161.873 273.872 163.319 274.024 164.688L271.442 166.133C270.379 165.373 269.543 163.851 269.391 162.558Z" fill="#229B85"/>
<path d="M272.809 165.677C272.809 164.156 271.745 162.406 270.454 161.645C269.163 160.885 268.1 161.493 268.1 163.015C268.1 164.536 269.163 166.286 270.454 167.046C271.745 167.731 272.809 167.122 272.809 165.677Z" fill="#318450"/>
<path d="M275.847 160.581C276.226 160.352 276.226 160.048 275.847 159.82C275.467 159.592 274.859 159.592 274.48 159.82C274.1 160.048 274.1 160.352 274.48 160.581C274.859 160.809 275.467 160.809 275.847 160.581Z" fill="#73C4A2"/>
<path d="M122.059 95.8463C122.135 95.8463 122.135 95.8463 122.211 95.8463C122.591 95.7702 122.895 95.3138 122.743 94.9334L115.3 62.7565C115.224 62.3762 114.769 62.0719 114.389 62.148C114.009 62.224 113.705 62.6804 113.781 63.0608L121.224 95.2377C121.376 95.618 121.68 95.8463 122.059 95.8463Z" fill="#318450"/>
<path d="M131.932 93.5643C132.008 93.5643 132.008 93.5643 132.084 93.5643C132.464 93.4882 132.767 93.0318 132.691 92.6515L125.249 60.4745C125.173 60.0942 124.717 59.7899 124.338 59.866C123.958 59.9421 123.654 60.3985 123.73 60.7788L131.173 92.9557C131.248 93.3361 131.552 93.5643 131.932 93.5643Z" fill="#318450"/>
<path d="M141.729 91.282C141.805 91.282 141.805 91.282 141.881 91.282C142.26 91.206 142.564 90.7496 142.488 90.3692L135.046 58.1923C134.97 57.812 134.514 57.5077 134.134 57.5838C133.755 57.6598 133.451 58.1162 133.527 58.4966L140.969 90.6735C141.045 91.0538 141.425 91.282 141.729 91.282Z" fill="#318450"/>
<path d="M134.106 66.8378L138.099 65.9004L140.109 74.4914L136.117 75.4287L134.106 66.8378Z" fill="#318450"/>
<path d="M136.869 76.0686C137.78 76.2968 138.995 76.0686 139.679 75.3839C140.362 74.7754 140.21 74.0147 139.299 73.7865C138.388 73.5583 137.173 73.7865 136.489 74.4711C135.806 75.0797 136.033 75.7643 136.869 76.0686Z" fill="#318450"/>
<path d="M130.074 55.174L136.507 53.6638L139.644 67.0687L133.211 68.5789L130.074 55.174Z" fill="#318450"/>
<path d="M138.388 67.3206L139.071 70.2112C138.008 71.048 136.413 71.4283 135.122 71.1241L134.439 68.2335C135.502 67.3967 137.097 67.0164 138.388 67.3206Z" fill="#229B85"/>
<path d="M134.515 69.6787C135.958 70.1351 138.008 69.6026 139.071 68.6138C140.135 67.6249 139.907 66.4078 138.464 65.9514C137.021 65.495 134.97 66.0274 133.907 67.0163C132.768 68.0813 133.072 69.2223 134.515 69.6787Z" fill="#318450"/>
<path d="M138.464 74.0146C138.54 74.471 138.919 74.5471 139.223 74.2428C139.527 73.9385 139.679 73.33 139.603 72.9496C139.527 72.5693 139.147 72.4172 138.843 72.7214C138.54 73.0257 138.388 73.5582 138.464 74.0146Z" fill="#73C4A2"/>
<path d="M124.982 72.236L128.975 71.2986L130.985 79.8896L126.993 80.8269L124.982 72.236Z" fill="#318450"/>
<path d="M127.755 81.4692C128.666 81.6974 129.881 81.4692 130.565 80.7846C131.248 80.176 131.097 79.4153 130.185 79.1871C129.274 78.9589 128.059 79.1871 127.375 79.8718C126.692 80.4803 126.844 81.241 127.755 81.4692Z" fill="#318450"/>
<path d="M120.949 60.572L127.382 59.0618L130.519 72.4667L124.086 73.9769L120.949 60.572Z" fill="#318450"/>
<path d="M129.274 72.7213L129.957 75.6119C128.894 76.4486 127.299 76.829 126.008 76.5247L125.324 73.6341C126.312 72.8734 127.982 72.4931 129.274 72.7213Z" fill="#229B85"/>
<path d="M125.325 75.1558C126.768 75.6122 128.818 75.0797 129.881 74.0908C130.945 73.1019 130.717 71.8848 129.274 71.4284C127.831 70.972 125.78 71.5045 124.717 72.4934C123.654 73.5583 123.958 74.6994 125.325 75.1558Z" fill="#318450"/>
<path d="M129.35 79.4916C129.426 79.948 129.806 80.0241 130.11 79.7198C130.413 79.4155 130.565 78.807 130.489 78.4266C130.413 77.9702 130.034 77.8942 129.73 78.1984C129.426 78.4266 129.274 79.0352 129.35 79.4916Z" fill="#73C4A2"/>
<path d="M115.718 77.6449L119.711 76.7075L121.721 85.2985L117.729 86.2359L115.718 77.6449Z" fill="#318450"/>
<path d="M118.49 86.8703C119.401 87.0985 120.616 86.8703 121.3 86.1857C121.983 85.5772 121.831 84.8165 120.92 84.5883C120.009 84.3601 118.794 84.5883 118.11 85.2729C117.503 85.8814 117.654 86.6421 118.49 86.8703Z" fill="#318450"/>
<path d="M111.684 65.9807L118.117 64.4705L121.254 77.8753L114.821 79.3856L111.684 65.9807Z" fill="#318450"/>
<path d="M120.009 78.1224L120.692 81.013C119.629 81.8498 118.034 82.2301 116.743 81.9258L116.06 79.0352C117.123 78.2746 118.718 77.8942 120.009 78.1224Z" fill="#229B85"/>
<path d="M116.136 80.5566C117.579 81.0131 119.629 80.4806 120.692 79.4917C121.756 78.5028 121.528 77.2857 120.085 76.8293C118.642 76.3729 116.591 76.9054 115.528 77.8943C114.389 78.9592 114.693 80.1002 116.136 80.5566Z" fill="#318450"/>
<path d="M120.085 84.8925C120.161 85.3489 120.54 85.425 120.844 85.1207C121.148 84.8164 121.3 84.2079 121.224 83.8275C121.148 83.3711 120.768 83.295 120.464 83.5993C120.161 83.8275 120.009 84.4361 120.085 84.8925Z" fill="#73C4A2"/>
<path d="M182.511 237.79L270.683 186.824C273.189 185.379 272.885 182.868 269.999 181.195L209.927 146.508C207.041 144.834 202.713 144.682 200.206 146.127L112.035 197.169C109.529 198.614 109.833 201.125 112.718 202.798L172.79 237.485C175.6 239.083 180.005 239.235 182.511 237.79Z" fill="#D4ECDD"/>
<path d="M91.3019 106.724L179.549 55.6821C180.537 55.0736 181.6 54.9975 182.511 55.3018L182.663 55.3778C182.663 55.3778 182.663 55.3778 182.739 55.3778L185.929 56.5949L183.043 57.9642C183.043 58.0402 183.043 58.0402 183.119 58.1163L197.472 123.611C198.156 126.882 196.789 130.686 194.282 132.131L108.238 181.88L108.541 185.531L105.048 184.162C103.909 183.629 102.921 182.336 102.542 180.586L88.1882 115.092C87.4288 111.973 88.7958 108.169 91.3019 106.724Z" fill="white"/>
<path d="M91.3016 106.724L179.549 55.6821C180.536 55.0736 181.599 54.9975 182.511 55.3018L182.663 55.3778C182.663 55.3778 182.663 55.3778 182.739 55.3778L185.928 56.5949L183.042 57.9642C183.042 58.0402 183.042 58.0402 183.118 58.1163L192.611 101.323L149.475 135.021L88.6436 110.223C89.0992 108.702 90.0865 107.409 91.3016 106.724Z" fill="#229B85"/>
<path d="M94.6436 116.765L87.9605 113.875C87.8086 111.288 88.9477 108.55 90.6944 107.104L101.327 111.593L94.6436 116.765Z" fill="#3A8D59"/>
<path d="M111.503 185.303L199.675 134.261C202.181 132.815 203.624 129.012 202.864 125.741L188.511 60.2462C187.827 56.9753 185.169 55.4539 182.663 56.8992L94.4917 107.941C91.9855 109.386 90.5426 113.19 91.302 116.461L105.655 181.956C106.415 185.303 108.997 186.748 111.503 185.303Z" fill="#00898F"/>
<path d="M113.402 180.434L196.333 132.511C198.612 131.218 199.903 127.719 199.295 124.676L186.157 64.7344C185.473 61.7677 183.119 60.3985 180.841 61.6917L97.9094 109.615C95.631 110.908 94.34 114.407 94.9475 117.45L108.086 177.392C108.769 180.434 111.124 181.804 113.402 180.434Z" fill="white"/>
<path d="M113.402 180.434L196.333 132.511C198.612 131.218 199.903 127.719 199.295 124.676L186.157 64.7344C185.473 61.7677 183.119 60.3985 180.841 61.6917L97.9094 109.615C95.631 110.908 94.34 114.407 94.9475 117.45L108.086 177.392C108.769 180.434 111.124 181.804 113.402 180.434Z" fill="white"/>
<path d="M110.288 187.509L122.363 185.911L200.206 140.879C202.712 139.433 207.041 139.586 209.927 141.259L265.062 173.132L272.353 172.143V176.251C272.429 177.239 271.821 178.152 270.682 178.837L182.511 229.879C180.005 231.324 175.676 231.172 172.79 229.498L112.718 194.811C111.123 193.898 110.288 192.681 110.364 191.54V187.509H110.288Z" fill="white"/>
<path d="M168.765 159.135L174.309 155.94H235.064L265.062 173.284L272.353 172.295V176.403C272.429 177.391 271.821 178.304 270.682 178.989L182.511 230.031C181.22 230.791 179.321 231.096 177.499 230.944L168.765 159.135Z" fill="#229B85"/>
<path d="M269.164 172.675L272.429 172.219V176.326C272.505 177.315 271.898 178.228 270.758 178.913L269.24 179.826V172.675H269.164Z" fill="#318450"/>
<path d="M181.6 230.411C179.245 231.324 175.828 231.096 173.322 229.879V220.598H181.6V230.411Z" fill="#3A8D59"/>
<path d="M182.511 225.847L270.683 174.805C273.189 173.36 272.885 170.85 269.999 169.176L209.927 134.489C207.041 132.815 202.713 132.663 200.206 134.109L112.035 185.15C109.529 186.596 109.833 189.106 112.718 190.779L172.79 225.467C175.6 227.064 180.005 227.292 182.511 225.847Z" fill="#00898F"/>
<path d="M112.718 189.182L172.79 223.869C175.676 225.543 180.005 225.695 182.511 224.25L270.682 173.284C271.518 172.827 271.974 172.219 272.201 171.61C272.581 172.827 272.125 173.968 270.682 174.805L182.511 225.847C180.005 227.292 175.676 227.14 172.79 225.467L112.718 190.78C110.82 189.639 109.984 188.117 110.44 186.824C110.744 187.661 111.503 188.498 112.718 189.182Z" fill="white"/>
<path d="M233.166 157.918L237.191 155.636C237.495 155.484 237.495 155.103 237.115 154.875L232.407 152.137C232.027 151.908 231.495 151.908 231.191 152.061L227.166 154.343C226.863 154.495 226.863 154.875 227.242 155.103L231.951 157.842C232.255 158.07 232.862 158.146 233.166 157.918Z" fill="white"/>
<path d="M227.015 161.493L231.04 159.211C231.343 159.059 231.343 158.679 230.964 158.45L226.255 155.712C225.875 155.484 225.344 155.484 225.04 155.636L221.015 157.918C220.711 158.07 220.711 158.45 221.091 158.679L225.799 161.417C226.103 161.645 226.711 161.721 227.015 161.493Z" fill="white"/>
<path d="M220.863 165.069L224.888 162.786C225.192 162.634 225.192 162.254 224.812 162.026L220.103 159.287C219.724 159.059 219.192 159.059 218.888 159.211L214.863 161.493C214.559 161.645 214.559 162.026 214.939 162.254L219.648 164.992C219.951 165.221 220.559 165.221 220.863 165.069Z" fill="white"/>
<path d="M212.281 162.102L216.306 159.82C216.61 159.668 216.61 159.287 216.23 159.059L212.281 156.777C211.901 156.549 211.37 156.549 211.066 156.701L207.041 158.983C206.737 159.135 206.737 159.516 207.117 159.744L211.066 162.026C211.446 162.254 211.977 162.33 212.281 162.102Z" fill="white"/>
<path d="M206.13 165.677L210.155 163.395C210.459 163.243 210.459 162.862 210.079 162.634L206.13 160.352C205.75 160.124 205.218 160.124 204.915 160.276L200.89 162.558C200.586 162.71 200.586 163.09 200.966 163.319L204.915 165.601C205.294 165.829 205.826 165.905 206.13 165.677Z" fill="white"/>
<path d="M199.978 169.252L204.003 166.97C204.307 166.818 204.307 166.437 203.927 166.209L199.978 163.927C199.598 163.699 199.067 163.699 198.763 163.851L194.738 166.133C194.434 166.285 194.434 166.666 194.814 166.894L198.763 169.176C199.143 169.404 199.674 169.404 199.978 169.252Z" fill="white"/>
<path d="M193.827 172.827L197.852 170.545C198.156 170.393 198.156 170.013 197.776 169.784L193.827 167.502C193.447 167.274 192.916 167.274 192.612 167.426L188.587 169.708C188.283 169.861 188.283 170.241 188.663 170.469L192.612 172.751C192.916 172.979 193.523 172.979 193.827 172.827Z" fill="white"/>
<path d="M187.675 176.403L191.7 174.121C192.004 173.968 192.004 173.588 191.624 173.36L187.675 171.078C187.296 170.85 186.764 170.85 186.46 171.002L182.435 173.284C182.131 173.436 182.131 173.816 182.511 174.045L186.46 176.327C186.764 176.555 187.371 176.555 187.675 176.403Z" fill="white"/>
<path d="M181.524 179.978L185.549 177.696C185.853 177.544 185.853 177.163 185.473 176.935L181.524 174.653C181.144 174.425 180.613 174.425 180.309 174.577L176.284 176.859C175.98 177.011 175.98 177.392 176.36 177.62L180.309 179.902C180.613 180.13 181.22 180.13 181.524 179.978Z" fill="white"/>
<path d="M175.372 183.477L179.397 181.195C179.701 181.043 179.701 180.662 179.321 180.434L175.372 178.152C174.992 177.924 174.461 177.924 174.157 178.076L170.132 180.358C169.828 180.51 169.828 180.891 170.208 181.119L174.157 183.401C174.461 183.705 174.992 183.705 175.372 183.477Z" fill="white"/>
<path d="M169.145 187.052L173.17 184.77C173.474 184.618 173.474 184.238 173.094 184.01L169.145 181.728C168.765 181.499 168.234 181.499 167.93 181.651L163.905 183.933C163.601 184.086 163.601 184.466 163.981 184.694L167.93 186.976C168.31 187.204 168.841 187.28 169.145 187.052Z" fill="white"/>
<path d="M162.994 190.627L167.019 188.345C167.322 188.193 167.322 187.813 166.943 187.585L162.994 185.303C162.614 185.075 162.082 185.074 161.778 185.227L157.753 187.509C157.45 187.661 157.45 188.041 157.829 188.269L161.778 190.551C162.158 190.78 162.69 190.856 162.994 190.627Z" fill="white"/>
<path d="M156.842 194.203L160.867 191.921C161.171 191.769 161.171 191.388 160.791 191.16L156.842 188.878C156.462 188.65 155.93 188.65 155.627 188.802L151.602 191.084C151.298 191.236 151.298 191.616 151.678 191.845L155.627 194.127C156.006 194.355 156.538 194.355 156.842 194.203Z" fill="white"/>
<path d="M203.244 160.428L207.269 158.146C207.573 157.994 207.573 157.614 207.193 157.386L203.244 155.103C202.864 154.875 202.333 154.875 202.029 155.027L198.004 157.309C197.7 157.462 197.7 157.842 198.08 158.07L202.029 160.352C202.333 160.58 202.94 160.656 203.244 160.428Z" fill="#229B85"/>
<path d="M209.471 156.853L213.496 154.571C213.8 154.419 213.8 154.038 213.42 153.81L209.471 151.528C209.091 151.3 208.56 151.3 208.256 151.452L204.231 153.734C203.927 153.886 203.927 154.267 204.307 154.495L208.256 156.777C208.636 157.005 209.167 157.005 209.471 156.853Z" fill="#229B85"/>
<path d="M215.775 153.202L224.357 148.257C224.66 148.105 224.66 147.725 224.281 147.497L220.332 145.215C219.952 144.986 219.42 144.986 219.116 145.139L210.535 150.083C210.231 150.235 210.231 150.615 210.611 150.844L214.56 153.126C214.864 153.354 215.471 153.354 215.775 153.202Z" fill="white"/>
<path d="M211.37 148.79L218.357 144.758C218.661 144.606 218.661 144.226 218.281 143.997L214.332 141.715C213.952 141.487 213.421 141.487 213.117 141.639L206.13 145.671C205.826 145.823 205.826 146.203 206.206 146.432L210.155 148.714C210.535 148.942 211.066 148.942 211.37 148.79Z" fill="white"/>
<path d="M197.092 164.003L201.117 161.721C201.421 161.569 201.421 161.189 201.041 160.961L197.092 158.679C196.713 158.45 196.181 158.45 195.877 158.603L191.852 160.885C191.548 161.037 191.548 161.417 191.928 161.645L195.877 163.927C196.181 164.156 196.788 164.156 197.092 164.003Z" fill="#229B85"/>
<path d="M190.941 167.579L194.966 165.297C195.27 165.144 195.27 164.764 194.89 164.536L190.941 162.254C190.561 162.026 190.03 162.026 189.726 162.178L185.701 164.46C185.397 164.612 185.397 164.992 185.777 165.221L189.726 167.503C190.03 167.731 190.561 167.731 190.941 167.579Z" fill="white"/>
<path d="M184.714 171.154L188.739 168.872C189.043 168.72 189.043 168.339 188.663 168.111L184.714 165.829C184.334 165.601 183.802 165.601 183.499 165.753L179.474 168.035C179.17 168.187 179.17 168.568 179.55 168.796L183.499 171.078C183.878 171.306 184.41 171.306 184.714 171.154Z" fill="white"/>
<path d="M178.562 174.729L182.587 172.447C182.891 172.295 182.891 171.915 182.511 171.686L178.562 169.404C178.182 169.176 177.651 169.176 177.347 169.328L173.322 171.61C173.018 171.762 173.018 172.143 173.398 172.371L177.347 174.653C177.727 174.881 178.258 174.881 178.562 174.729Z" fill="white"/>
<path d="M172.411 178.228L176.436 175.946C176.739 175.794 176.739 175.414 176.36 175.185L172.411 172.903C172.031 172.675 171.499 172.675 171.195 172.827L167.17 175.109C166.867 175.261 166.867 175.642 167.246 175.87L171.195 178.152C171.575 178.456 172.107 178.456 172.411 178.228Z" fill="white"/>
<path d="M166.259 181.803L170.284 179.521C170.588 179.369 170.588 178.989 170.208 178.761L166.259 176.478C165.879 176.25 165.347 176.25 165.044 176.402L161.019 178.684C160.715 178.837 160.715 179.217 161.095 179.445L165.044 181.727C165.347 181.955 165.955 182.031 166.259 181.803Z" fill="white"/>
<path d="M160.107 185.378L164.132 183.096C164.436 182.944 164.436 182.564 164.056 182.336L160.107 180.054C159.728 179.825 159.196 179.825 158.892 179.978L154.867 182.26C154.563 182.412 154.563 182.792 154.943 183.02L158.892 185.302C159.196 185.531 159.804 185.607 160.107 185.378Z" fill="white"/>
<path d="M153.956 188.954L157.981 186.672C158.285 186.52 158.285 186.139 157.905 185.911L153.956 183.629C153.576 183.401 153.045 183.401 152.741 183.553L148.716 185.835C148.412 185.987 148.412 186.368 148.792 186.596L152.741 188.878C153.045 189.106 153.576 189.106 153.956 188.954Z" fill="white"/>
<path d="M147.805 192.529L151.83 190.247C152.133 190.095 152.133 189.715 151.754 189.486L147.805 187.204C147.425 186.976 146.893 186.976 146.59 187.128L142.564 189.41C142.261 189.562 142.261 189.943 142.64 190.171L146.59 192.453C146.893 192.681 147.425 192.681 147.805 192.529Z" fill="white"/>
<path d="M136.792 198.843L145.526 193.822C145.83 193.67 145.83 193.29 145.45 193.062L141.501 190.78C141.121 190.551 140.59 190.551 140.286 190.703L131.552 195.724C131.248 195.876 131.248 196.256 131.628 196.485L135.577 198.767C135.957 198.995 136.489 199.071 136.792 198.843Z" fill="white"/>
<path d="M124.794 191.92L132.16 187.661C132.464 187.508 132.464 187.128 132.084 186.9L128.135 184.618C127.755 184.39 127.224 184.39 126.92 184.542L119.553 188.802C119.25 188.954 119.25 189.334 119.629 189.562L123.579 191.844C123.958 192.073 124.49 192.073 124.794 191.92Z" fill="white"/>
<path d="M186.308 163.319L190.333 161.037C190.637 160.884 190.637 160.504 190.257 160.276L186.308 157.994C185.928 157.766 185.397 157.766 185.093 157.918L181.068 160.2C180.764 160.352 180.764 160.732 181.144 160.961L185.093 163.243C185.397 163.471 185.928 163.471 186.308 163.319Z" fill="white"/>
<path d="M192.612 159.668L196.637 157.385C196.941 157.233 196.941 156.853 196.561 156.625L192.612 154.343C192.232 154.115 191.7 154.115 191.397 154.267L187.372 156.549C187.068 156.701 187.068 157.081 187.448 157.309L191.397 159.591C191.7 159.82 192.308 159.82 192.612 159.668Z" fill="white"/>
<path d="M198.915 156.016L202.94 153.734C203.244 153.582 203.244 153.202 202.864 152.974L198.915 150.692C198.535 150.463 198.004 150.463 197.7 150.616L193.675 152.898C193.371 153.05 193.371 153.43 193.751 153.658L197.7 155.94C198.004 156.169 198.611 156.169 198.915 156.016Z" fill="#229B85"/>
<path d="M205.219 152.365L209.244 150.083C209.548 149.931 209.548 149.551 209.168 149.322L205.219 147.04C204.839 146.812 204.307 146.812 204.004 146.964L199.979 149.246C199.675 149.398 199.675 149.779 200.054 150.007L204.004 152.289C204.383 152.517 204.915 152.517 205.219 152.365Z" fill="white"/>
<path d="M180.157 166.894L184.182 164.612C184.486 164.46 184.486 164.08 184.106 163.851L180.157 161.569C179.777 161.341 179.246 161.341 178.942 161.493L174.917 163.775C174.613 163.927 174.613 164.308 174.993 164.536L178.942 166.818C179.246 167.046 179.777 167.046 180.157 166.894Z" fill="white"/>
<path d="M173.93 170.469L177.955 168.187C178.258 168.035 178.258 167.655 177.879 167.427L173.93 165.145C173.55 164.916 173.018 164.916 172.715 165.068L168.689 167.35C168.386 167.503 168.386 167.883 168.765 168.111L172.715 170.393C173.094 170.621 173.626 170.621 173.93 170.469Z" fill="white"/>
<path d="M167.778 173.968L171.803 171.686C172.107 171.534 172.107 171.154 171.727 170.926L167.778 168.644C167.398 168.415 166.866 168.415 166.563 168.567L162.538 170.85C162.234 171.002 162.234 171.382 162.614 171.61L166.563 173.892C166.942 174.12 167.474 174.197 167.778 173.968Z" fill="white"/>
<path d="M161.626 177.544L165.651 175.261C165.955 175.109 165.955 174.729 165.576 174.501L161.626 172.219C161.247 171.991 160.715 171.991 160.411 172.143L156.386 174.425C156.082 174.577 156.082 174.957 156.462 175.185L160.411 177.467C160.715 177.696 161.323 177.772 161.626 177.544Z" fill="white"/>
<path d="M155.475 181.119L159.5 178.837C159.804 178.685 159.804 178.304 159.424 178.076L155.475 175.794C155.095 175.566 154.564 175.566 154.26 175.718L150.235 178C149.931 178.152 149.931 178.533 150.311 178.761L154.26 181.043C154.564 181.271 155.171 181.347 155.475 181.119Z" fill="white"/>
<path d="M149.324 184.694L153.349 182.412C153.653 182.26 153.653 181.88 153.273 181.651L149.324 179.369C148.944 179.141 148.412 179.141 148.109 179.293L144.084 181.575C143.78 181.727 143.78 182.108 144.159 182.336L148.109 184.618C148.412 184.846 149.02 184.846 149.324 184.694Z" fill="white"/>
<path d="M143.172 188.269L147.197 185.987C147.501 185.835 147.501 185.455 147.121 185.226L143.172 182.944C142.792 182.716 142.261 182.716 141.957 182.868L137.932 185.15C137.628 185.302 137.628 185.683 138.008 185.911L141.957 188.193C142.261 188.421 142.792 188.421 143.172 188.269Z" fill="white"/>
<path d="M136.944 191.844L140.969 189.562C141.273 189.41 141.273 189.03 140.893 188.802L136.944 186.519C136.565 186.291 136.033 186.291 135.729 186.443L131.704 188.725C131.4 188.878 131.4 189.258 131.78 189.486L135.729 191.768C136.109 191.996 136.641 191.996 136.944 191.844Z" fill="white"/>
<path d="M130.793 195.344L134.818 193.062C135.122 192.909 135.122 192.529 134.742 192.301L130.793 190.019C130.413 189.791 129.882 189.791 129.578 189.943L125.553 192.225C125.249 192.377 125.249 192.757 125.629 192.985L129.578 195.268C129.958 195.572 130.489 195.572 130.793 195.344Z" fill="white"/>
<path d="M189.498 154.495L193.523 152.213C193.827 152.061 193.827 151.68 193.447 151.452L189.498 149.17C189.118 148.942 188.587 148.942 188.283 149.094L184.258 151.376C183.954 151.528 183.954 151.909 184.334 152.137L188.283 154.419C188.663 154.647 189.194 154.647 189.498 154.495Z" fill="white"/>
<path d="M195.649 150.92L199.674 148.638C199.978 148.486 199.978 148.105 199.598 147.877L195.649 145.595C195.27 145.367 194.738 145.367 194.434 145.519L190.409 147.801C190.105 147.953 190.105 148.333 190.485 148.562L194.434 150.844C194.814 151.072 195.346 151.148 195.649 150.92Z" fill="white"/>
<path d="M201.801 147.42L205.826 145.138C206.13 144.986 206.13 144.606 205.75 144.378L201.801 142.096C201.422 141.867 200.89 141.867 200.586 142.02L196.561 144.302C196.257 144.454 196.257 144.834 196.637 145.062L200.586 147.344C200.89 147.573 201.497 147.573 201.801 147.42Z" fill="white"/>
<path d="M207.953 143.845L211.978 141.563C212.281 141.411 212.281 141.031 211.902 140.803L207.953 138.52C207.573 138.292 207.041 138.292 206.737 138.444L202.712 140.726C202.409 140.879 202.409 141.259 202.788 141.487L206.737 143.769C207.041 143.997 207.573 143.997 207.953 143.845Z" fill="white"/>
<path d="M201.649 140.194L205.674 137.912C205.978 137.76 205.978 137.379 205.598 137.151L204.307 136.391C203.928 136.162 203.396 136.162 203.092 136.315L199.067 138.597C198.763 138.749 198.763 139.129 199.143 139.357L200.434 140.118C200.738 140.346 201.27 140.422 201.649 140.194Z" fill="white"/>
<path d="M193.599 144.834L197.624 142.552C197.928 142.4 197.928 142.02 197.548 141.792L196.257 141.031C195.877 140.803 195.346 140.803 195.042 140.955L191.017 143.237C190.713 143.389 190.713 143.769 191.093 143.998L192.384 144.758C192.764 144.987 193.295 144.987 193.599 144.834Z" fill="white"/>
<path d="M187.523 148.333L191.548 146.051C191.852 145.899 191.852 145.519 191.472 145.29L190.181 144.53C189.802 144.302 189.27 144.302 188.966 144.454L184.941 146.736C184.638 146.888 184.638 147.268 185.017 147.496L186.308 148.257C186.612 148.561 187.22 148.561 187.523 148.333Z" fill="white"/>
<path d="M181.372 151.909L185.397 149.627C185.7 149.474 185.7 149.094 185.321 148.866L184.03 148.105C183.65 147.877 183.118 147.877 182.814 148.029L178.789 150.311C178.486 150.463 178.486 150.844 178.865 151.072L180.156 151.833C180.536 152.061 181.068 152.061 181.372 151.909Z" fill="white"/>
<path d="M175.296 155.408L179.321 153.126C179.625 152.973 179.625 152.593 179.245 152.365L177.954 151.604C177.575 151.376 177.043 151.376 176.739 151.528L172.714 153.81C172.41 153.962 172.41 154.343 172.79 154.571L174.081 155.332C174.385 155.56 174.993 155.636 175.296 155.408Z" fill="white"/>
<path d="M141.197 175.109L145.222 172.827C145.526 172.675 145.526 172.295 145.146 172.067L143.855 171.306C143.476 171.078 142.944 171.078 142.64 171.23L138.615 173.512C138.311 173.664 138.311 174.044 138.691 174.273L139.982 175.033C140.286 175.337 140.893 175.337 141.197 175.109Z" fill="white"/>
<path d="M135.122 178.685L139.147 176.403C139.451 176.251 139.451 175.87 139.071 175.642L137.78 174.881C137.4 174.653 136.869 174.653 136.565 174.805L132.54 177.087C132.236 177.239 132.236 177.62 132.616 177.848L133.907 178.609C134.211 178.837 134.742 178.837 135.122 178.685Z" fill="white"/>
<path d="M128.97 182.184L132.995 179.902C133.299 179.75 133.299 179.369 132.919 179.141L131.628 178.38C131.249 178.152 130.717 178.152 130.413 178.304L126.388 180.586C126.084 180.738 126.084 181.119 126.464 181.347L127.755 182.108C128.135 182.336 128.666 182.412 128.97 182.184Z" fill="white"/>
<path d="M122.894 185.759L126.92 183.477C127.223 183.325 127.223 182.944 126.844 182.716L125.553 181.956C125.173 181.727 124.641 181.727 124.337 181.879L120.312 184.162C120.009 184.314 120.009 184.694 120.388 184.922L121.679 185.683C121.983 185.911 122.591 185.911 122.894 185.759Z" fill="white"/>
<path d="M183.347 158.07L187.372 155.788C187.675 155.636 187.675 155.256 187.296 155.027L183.347 152.745C182.967 152.517 182.435 152.517 182.132 152.669L178.106 154.951C177.803 155.103 177.803 155.484 178.182 155.712L182.132 157.994C182.511 158.222 183.043 158.222 183.347 158.07Z" fill="white"/>
<path d="M177.195 161.645L181.22 159.363C181.524 159.211 181.524 158.831 181.144 158.603L177.195 156.321C176.815 156.092 176.283 156.092 175.98 156.244L171.955 158.527C171.651 158.679 171.651 159.059 172.031 159.287L175.98 161.569C176.283 161.797 176.891 161.797 177.195 161.645Z" fill="white"/>
<path d="M171.043 165.145L175.068 162.863C175.372 162.71 175.372 162.33 174.993 162.102L171.043 159.82C170.664 159.592 170.132 159.592 169.828 159.744L165.803 162.026C165.5 162.178 165.5 162.558 165.879 162.786L169.828 165.069C170.132 165.373 170.74 165.373 171.043 165.145Z" fill="white"/>
<path d="M164.892 168.72L168.917 166.437C169.221 166.285 169.221 165.905 168.841 165.677L164.892 163.395C164.512 163.167 163.981 163.167 163.677 163.319L159.652 165.601C159.348 165.753 159.348 166.133 159.728 166.361L163.677 168.643C163.981 168.872 164.588 168.948 164.892 168.72Z" fill="white"/>
<path d="M158.741 172.295L162.766 170.013C163.07 169.861 163.07 169.48 162.69 169.252L158.741 166.97C158.361 166.742 157.829 166.742 157.526 166.894L153.501 169.176C153.197 169.328 153.197 169.709 153.576 169.937L157.526 172.219C157.829 172.447 158.361 172.523 158.741 172.295Z" fill="white"/>
<path d="M152.513 175.87L156.538 173.588C156.842 173.436 156.842 173.056 156.462 172.827L152.513 170.545C152.133 170.317 151.602 170.317 151.298 170.469L147.273 172.751C146.969 172.904 146.969 173.284 147.349 173.512L151.298 175.794C151.678 176.022 152.209 176.022 152.513 175.87Z" fill="white"/>
<path d="M146.362 179.445L150.387 177.163C150.691 177.011 150.691 176.631 150.311 176.403L146.362 174.121C145.982 173.892 145.45 173.892 145.147 174.045L141.122 176.327C140.818 176.479 140.818 176.859 141.198 177.087L145.147 179.369C145.526 179.597 146.058 179.597 146.362 179.445Z" fill="white"/>
<path d="M140.21 183.021L144.235 180.738C144.539 180.586 144.539 180.206 144.16 179.978L140.21 177.696C139.831 177.468 139.299 177.468 138.995 177.62L134.97 179.902C134.666 180.054 134.666 180.434 135.046 180.662L138.995 182.944C139.375 183.173 139.907 183.173 140.21 183.021Z" fill="white"/>
<path d="M134.059 186.596L138.084 184.314C138.387 184.162 138.387 183.781 138.008 183.553L134.059 181.271C133.679 181.043 133.147 181.043 132.843 181.195L128.818 183.477C128.515 183.629 128.515 184.009 128.894 184.238L132.843 186.52C133.147 186.748 133.755 186.748 134.059 186.596Z" fill="white"/>
<path d="M218.585 158.526L230.356 151.756C230.66 151.604 230.66 151.224 230.28 150.996L226.331 148.714C225.951 148.485 225.42 148.485 225.116 148.638L213.345 155.408C213.041 155.56 213.041 155.94 213.42 156.168L217.37 158.45C217.749 158.679 218.281 158.679 218.585 158.526Z" fill="white"/>
<path d="M142.868 202.266L154.639 195.496C154.943 195.344 154.943 194.963 154.563 194.735L150.614 192.453C150.234 192.225 149.703 192.225 149.399 192.377L137.628 199.147C137.324 199.299 137.324 199.68 137.704 199.908L141.653 202.19C142.033 202.418 142.564 202.494 142.868 202.266Z" fill="white"/>
<path d="M167.55 195.876L171.575 193.594C171.879 193.442 171.879 193.062 171.499 192.833L166.791 190.095C166.411 189.867 165.879 189.867 165.576 190.019L161.551 192.301C161.247 192.453 161.247 192.833 161.627 193.062L166.335 195.8C166.639 196.028 167.246 196.104 167.55 195.876Z" fill="white"/>
<path d="M212.281 170.013L218.661 166.286C218.965 166.133 218.965 165.753 218.585 165.525L213.876 162.786C213.497 162.558 212.965 162.558 212.661 162.71L206.282 166.438C205.978 166.59 205.978 166.97 206.358 167.198L211.066 169.937C211.446 170.165 211.978 170.165 212.281 170.013Z" fill="white"/>
<path d="M173.474 192.453L179.853 188.726C180.157 188.574 180.157 188.193 179.777 187.965L175.069 185.227C174.689 184.998 174.157 184.998 173.854 185.15L167.474 188.878C167.17 189.03 167.17 189.41 167.55 189.639L172.259 192.377C172.562 192.605 173.17 192.681 173.474 192.453Z" fill="white"/>
<path d="M203.396 175.185L209.775 171.458C210.079 171.306 210.079 170.926 209.699 170.697L204.991 167.959C204.611 167.731 204.079 167.731 203.775 167.883L197.396 171.61C197.092 171.762 197.092 172.143 197.472 172.371L202.181 175.109C202.484 175.338 203.092 175.338 203.396 175.185Z" fill="white"/>
<path d="M203.7 167.959L175.98 184.009C175.6 184.238 175.6 184.542 175.98 184.694L180.764 187.509C181.144 187.737 181.676 187.737 181.98 187.509L209.699 171.458L203.7 167.959Z" fill="white"/>
<path d="M150.311 202.342L145.83 204.928C145.602 205.08 145.602 205.309 145.906 205.537L147.805 206.678C148.108 206.83 148.564 206.906 148.792 206.754L153.273 204.167C153.5 204.015 153.5 203.787 153.197 203.559L151.298 202.418C150.994 202.19 150.539 202.19 150.311 202.342Z" fill="white"/>
<path d="M156.538 198.767L152.058 201.353C151.83 201.505 151.83 201.733 152.134 201.962L154.032 203.103C154.336 203.255 154.792 203.331 155.019 203.179L159.5 200.592C159.728 200.44 159.728 200.212 159.424 199.984L157.526 198.843C157.222 198.615 156.766 198.615 156.538 198.767Z" fill="white"/>
<path d="M162.69 195.191L158.209 197.778C157.981 197.93 157.981 198.158 158.285 198.386L160.184 199.527C160.487 199.68 160.943 199.756 161.171 199.603L165.652 197.017C165.879 196.865 165.879 196.637 165.576 196.409L163.677 195.268C163.373 195.039 162.918 195.039 162.69 195.191Z" fill="white"/>
<path d="M153.121 196.789L148.64 199.375C148.412 199.527 148.412 199.756 148.716 199.984L150.615 201.125C150.918 201.277 151.374 201.353 151.602 201.201L156.083 198.615C156.311 198.462 156.311 198.234 156.007 198.006L154.108 196.865C153.804 196.637 153.349 196.637 153.121 196.789Z" fill="white"/>
<path d="M161.246 87.5548L167.17 84.1317C167.702 83.8274 168.005 83.0668 167.853 82.3821C167.702 81.6975 167.17 81.4693 166.562 81.7736L160.639 85.1967C160.107 85.5009 159.803 86.2616 159.955 86.9462C160.183 87.6309 160.715 87.8591 161.246 87.5548Z" fill="#00898F"/>
<path d="M147.272 95.6942L156.006 90.6737C156.538 90.3694 156.841 89.6087 156.689 88.9241C156.538 88.2395 156.006 88.0113 155.398 88.3156L146.665 93.3361C146.133 93.6404 145.829 94.4011 145.981 95.0857C146.133 95.6942 146.665 95.9985 147.272 95.6942Z" fill="#00898F"/>
<path d="M171.575 115.092L177.499 111.669C178.03 111.364 178.334 110.604 178.182 109.919C178.03 109.234 177.499 109.006 176.891 109.31L170.967 112.734C170.436 113.038 170.132 113.798 170.284 114.483C170.436 115.168 171.043 115.472 171.575 115.092Z" fill="#00898F"/>
<path d="M159.044 122.394L167.777 117.374C168.309 117.069 168.613 116.309 168.461 115.624C168.309 114.939 167.777 114.711 167.17 115.016L158.436 120.036C157.905 120.34 157.601 121.101 157.753 121.786C157.905 122.394 158.512 122.698 159.044 122.394Z" fill="#00898F"/>
<path d="M178.714 83.067L182.435 80.9371C182.967 80.6329 183.271 79.8722 183.119 79.1876C182.967 78.5029 182.435 78.2747 181.828 78.579L178.106 80.7089C177.575 81.0132 177.271 81.7739 177.423 82.4585C177.575 83.1431 178.106 83.3713 178.714 83.067Z" fill="#00898F"/>
<path d="M167.322 95.2378L178.562 88.6959C179.093 88.3916 179.397 87.631 179.245 86.9463C179.093 86.2617 178.562 86.0335 177.954 86.3378L166.714 92.8797C166.183 93.1839 165.879 93.9446 166.031 94.6293C166.183 95.2378 166.79 95.5421 167.322 95.2378Z" fill="#00898F"/>
<path d="M177.195 100.715L180.916 98.5848C181.448 98.2806 181.751 97.5199 181.6 96.8353C181.448 96.1506 180.916 95.9224 180.309 96.2267L176.587 98.3566C176.056 98.6609 175.752 99.4216 175.904 100.106C176.056 100.715 176.587 101.019 177.195 100.715Z" fill="#00898F"/>
<path d="M157.145 134.641L167.018 128.936C167.55 128.632 167.854 127.871 167.702 127.187C167.55 126.502 167.018 126.274 166.411 126.578L156.538 132.283C156.006 132.587 155.702 133.348 155.854 134.033C156.006 134.717 156.614 134.946 157.145 134.641Z" fill="#00898F"/>
<path d="M180.764 109.767L183.118 108.398C183.65 108.094 183.954 107.333 183.802 106.648C183.65 105.964 183.118 105.735 182.511 106.04L180.156 107.409C179.625 107.713 179.321 108.474 179.473 109.159C179.625 109.843 180.232 110.147 180.764 109.767Z" fill="#00898F"/>
<path d="M182.435 119.96L185.397 118.287C185.928 117.982 186.232 117.222 186.08 116.537C185.928 115.853 185.397 115.624 184.789 115.929L181.827 117.602C181.296 117.906 180.992 118.667 181.144 119.352C181.372 120.036 181.903 120.341 182.435 119.96Z" fill="#00898F"/>
<path d="M171.043 126.578L178.79 122.09C179.321 121.786 179.625 121.025 179.473 120.34C179.321 119.656 178.79 119.428 178.182 119.732L170.436 124.22C169.904 124.524 169.6 125.285 169.752 125.969C169.904 126.654 170.512 126.882 171.043 126.578Z" fill="#00898F"/>
<path d="M180.992 126.426L186.536 123.231C187.067 122.927 187.371 122.166 187.219 121.482C187.067 120.797 186.536 120.569 185.928 120.873L180.384 124.068C179.853 124.372 179.549 125.133 179.701 125.817C179.853 126.502 180.384 126.73 180.992 126.426Z" fill="#00898F"/>
<path d="M148.715 139.51L152.285 137.456C152.816 137.152 153.12 136.391 152.968 135.706C152.816 135.022 152.285 134.794 151.677 135.098L148.108 137.152C147.576 137.456 147.272 138.217 147.424 138.901C147.576 139.586 148.184 139.89 148.715 139.51Z" fill="#00898F"/>
<path d="M163.449 108.626L173.321 102.921C173.853 102.617 174.157 101.856 174.005 101.171C173.853 100.487 173.321 100.258 172.714 100.563L162.841 106.268C162.309 106.572 162.006 107.333 162.158 108.017C162.385 108.702 162.917 108.93 163.449 108.626Z" fill="#00898F"/>
<path d="M162.537 103.529L179.701 93.6403C180.232 93.336 180.536 92.5753 180.384 91.8907C180.232 91.2061 179.701 90.9779 179.093 91.2821L161.93 101.171C161.398 101.475 161.094 102.236 161.246 102.921C161.474 103.605 162.006 103.909 162.537 103.529Z" fill="#00898F"/>
<path d="M172.182 109.158L182.055 103.453C182.587 103.149 182.891 102.388 182.739 101.704C182.587 101.019 182.055 100.791 181.448 101.095L171.575 106.8C171.043 107.105 170.74 107.865 170.891 108.55C171.043 109.234 171.575 109.539 172.182 109.158Z" fill="#00898F"/>
<path d="M156.006 112.962L159.576 110.908C160.107 110.604 160.411 109.843 160.259 109.158C160.107 108.474 159.576 108.245 158.968 108.55L155.399 110.604C154.867 110.908 154.563 111.669 154.715 112.353C154.867 112.962 155.475 113.266 156.006 112.962Z" fill="#00898F"/>
<path d="M120.692 110.984L141.881 98.7369C142.413 98.4327 142.716 97.672 142.564 96.9874C142.413 96.3027 141.881 96.0745 141.273 96.3788L120.085 108.626C119.553 108.93 119.249 109.691 119.401 110.375C119.629 111.06 120.161 111.364 120.692 110.984Z" fill="#00898F"/>
<path d="M172.41 120.188L184.257 113.342C184.789 113.038 185.093 112.277 184.941 111.593C184.789 110.908 184.257 110.68 183.65 110.984L171.803 117.83C171.271 118.134 170.967 118.895 171.119 119.58C171.347 120.264 171.878 120.493 172.41 120.188Z" fill="#00898F"/>
<path d="M172.562 81.0131L181.296 75.9925C181.828 75.6883 182.131 74.9276 181.979 74.243C181.828 73.5584 181.296 73.3302 180.688 73.6344L171.955 78.6549C171.423 78.9592 171.119 79.7199 171.271 80.4045C171.423 81.0891 171.955 81.3934 172.562 81.0131Z" fill="#00898F"/>
<path d="M182.511 131.142L192.611 125.285C193.143 124.981 193.447 124.22 193.295 123.535C193.143 122.851 192.611 122.622 192.004 122.927L181.903 128.784C181.372 129.088 181.068 129.849 181.22 130.533C181.372 131.142 181.979 131.446 182.511 131.142Z" fill="#00898F"/>
<path d="M114.389 152.365L120.313 148.942C120.845 148.638 121.148 147.877 120.997 147.192C120.845 146.508 120.313 146.28 119.705 146.584L113.782 150.007C113.25 150.311 112.946 151.072 113.098 151.757C113.25 152.441 113.782 152.745 114.389 152.365Z" fill="#00898F"/>
<path d="M110.136 132.511L121.376 125.969C121.908 125.665 122.211 124.904 122.06 124.22C121.908 123.535 121.376 123.307 120.768 123.611L109.529 130.153C108.997 130.457 108.693 131.218 108.845 131.903C108.997 132.511 109.605 132.815 110.136 132.511Z" fill="#00898F"/>
<path d="M119.933 137.988L123.654 135.858C124.186 135.554 124.49 134.793 124.338 134.109C124.186 133.424 123.654 133.196 123.047 133.5L119.326 135.63C118.794 135.934 118.49 136.695 118.642 137.38C118.87 138.064 119.401 138.292 119.933 137.988Z" fill="#00898F"/>
<path d="M123.578 147.04L125.933 145.671C126.464 145.367 126.768 144.606 126.616 143.921C126.464 143.237 125.933 143.009 125.325 143.313L122.971 144.682C122.439 144.986 122.135 145.747 122.287 146.432C122.439 147.116 122.971 147.421 123.578 147.04Z" fill="#00898F"/>
<path d="M106.263 145.899L116.136 140.194C116.667 139.89 116.971 139.129 116.819 138.445C116.667 137.76 116.136 137.532 115.528 137.836L105.655 143.541C105.124 143.845 104.82 144.606 104.972 145.291C105.124 145.975 105.731 146.204 106.263 145.899Z" fill="#00898F"/>
<path d="M105.352 140.803L122.515 130.914C123.047 130.609 123.351 129.849 123.199 129.164C123.047 128.48 122.515 128.251 121.908 128.556L104.744 138.444C104.213 138.749 103.909 139.509 104.061 140.194C104.213 140.879 104.82 141.183 105.352 140.803Z" fill="#00898F"/>
<path d="M114.921 146.508L124.794 140.803C125.325 140.498 125.629 139.738 125.477 139.053C125.325 138.368 124.794 138.14 124.186 138.444L114.313 144.15C113.782 144.454 113.478 145.215 113.63 145.899C113.858 146.508 114.389 146.812 114.921 146.508Z" fill="#00898F"/>
<path d="M115.225 157.462L127.072 150.615C127.603 150.311 127.907 149.55 127.755 148.866C127.603 148.181 127.072 147.953 126.464 148.257L114.617 155.103C114.085 155.408 113.782 156.168 113.933 156.853C114.085 157.538 114.693 157.766 115.225 157.462Z" fill="#00898F"/>
<path d="M88.7197 86.4895L79.4545 82.8382L81.5809 69.0698L86.0617 73.1014L88.7197 86.4895Z" fill="#318450"/>
<path d="M150.918 22.6682L128.514 13.6921C128.514 13.6921 132.615 22.6682 132.691 22.6682L144.691 25.4827L150.918 22.6682Z" fill="#E0A607"/>
<path d="M80.5176 59.9417C81.7327 59.2571 82.9479 58.8768 84.163 58.7246C82.9479 50.4332 86.5172 41.6853 93.3522 37.7298C95.4027 36.5127 97.6811 35.8281 99.8075 35.6759C97.1494 25.6349 101.25 14.2246 109.756 9.35626C114.161 6.76993 118.945 6.46566 123.122 8.0631L123.35 8.13917C123.426 8.21523 123.578 8.21523 123.654 8.2913L130.717 11.0298L127.907 13.464C131.704 14.681 134.97 17.7238 136.716 22.2879C139.906 30.6554 136.641 40.9246 129.35 45.1084L86.2135 81.5451C80.7455 84.6639 77.4799 83.3708 75.0497 77.0571C72.6194 70.7434 75.1256 63.0605 80.5176 59.9417Z" fill="#E0A707"/>
<path d="M134.742 18.5605L110.515 8.89984C114.692 6.76993 119.173 6.61779 123.122 8.06309L123.35 8.13916C123.426 8.21523 123.578 8.21523 123.654 8.29129L130.717 11.0298L127.907 13.4639C130.489 14.3007 132.919 16.0503 134.742 18.5605Z" fill="#E0A607"/>
<path d="M101.022 54.9212L85.0738 48.5314C86.5168 43.9673 89.4786 39.9357 93.5036 37.6536C94.0353 37.3494 94.5669 37.0451 95.0985 36.8169L117.046 45.6408L101.022 54.9212Z" fill="#E0A607"/>
<path d="M125.705 12.0188L118.87 15.9744L106.946 11.2581C107.782 10.5735 108.693 9.88888 109.68 9.3564C111.199 8.44358 112.794 7.83504 114.313 7.53076L125.705 12.0188Z" fill="#FEBC06"/>
<path d="M86.0613 45.8691L97.5288 50.4332L94.1113 55.2256L84.2386 51.27C84.6942 49.4444 85.3018 47.5426 86.0613 45.8691Z" fill="#FEBC06"/>
<path d="M88.2637 62.9086C89.4789 62.2239 90.694 61.8436 91.9091 61.6915C90.694 53.4 94.3393 44.6521 101.174 40.6205C103.225 39.4034 105.351 38.7949 107.478 38.6427C104.82 28.6017 108.921 17.1915 117.426 12.3231C126.54 7.07437 137.172 11.3342 141.121 21.8316C141.273 22.212 141.349 22.5163 141.501 22.8966C148.412 19.7778 156.082 23.2769 159.12 31.188C162.309 39.5556 159.044 49.8248 151.753 54.0086L96.9214 85.7291C91.4534 88.8479 85.0741 86.3376 82.7198 80.0239C80.3655 73.7103 82.7958 66.1034 88.2637 62.9086Z" fill="#FEBC06"/>
<path d="M87.1251 62.2997C88.3402 61.615 89.5553 61.2347 90.7704 61.0826C89.5553 52.7911 93.2006 44.0433 100.036 40.0116C102.086 38.7945 104.213 38.186 106.339 38.0338C103.681 27.9928 107.782 16.5826 116.288 11.7142C121.68 8.59539 127.679 8.82359 132.464 11.7903C127.907 9.43214 122.439 9.43214 117.427 12.3227C108.997 17.1911 104.82 28.6014 107.478 38.6424C105.352 38.7945 103.225 39.4031 101.175 40.6202C94.3398 44.5757 90.6945 53.3997 91.9096 61.6911C90.6945 61.8433 89.4794 62.2236 88.2643 62.9082C82.7963 66.027 80.366 73.7099 82.7203 80.0236C83.6316 82.4578 85.1505 84.3595 86.9732 85.5005C84.6189 84.3595 82.6444 82.3056 81.5812 79.339C79.1509 73.1014 81.6571 65.4945 87.1251 62.2997Z" fill="white"/>
<path d="M141.501 22.9721C141.425 22.6678 141.273 22.3636 141.197 22.0593C144.918 20.6901 148.867 21.1465 152.057 23.2003C148.792 21.5268 145.07 21.3747 141.501 22.9721Z" fill="white"/>
<path d="M147.652 24.6459C148.639 24.6459 149.626 24.8741 150.538 25.2545C152.74 26.2434 154.563 28.4493 155.702 31.3399C158.512 38.7186 155.474 48.075 149.095 51.7263L94.2631 83.4468C92.5163 84.4357 90.7696 84.6639 89.4026 84.1314C88.0356 83.5989 86.8205 82.0775 86.0611 80.0998C84.0106 74.775 86.213 68.0049 90.7696 65.3425C91.605 64.8861 92.5163 64.5818 93.3517 64.4297L95.5541 64.1254L95.2503 62.2237C94.1112 54.6169 97.6046 46.5536 103.604 43.0545C105.275 42.0656 106.946 41.5331 108.617 41.457L111.351 41.3049L110.743 39.0228C108.313 29.8186 112.262 19.169 119.78 14.8331C123.274 12.7793 126.995 12.3989 130.185 13.6921C133.374 14.9852 136.032 17.9519 137.551 21.9835C137.703 22.2878 137.779 22.5921 137.855 22.9724L139.298 27.5365L143.627 25.6348C145.146 24.8741 146.437 24.6459 147.652 24.6459Z" fill="#FFEEBF"/>
<path d="M120.844 59.8657L118.946 59.105L120.389 58.04L120.844 59.8657Z" fill="#C08D00"/>
<path d="M121.755 39.4033L119.933 38.6426L120.085 39.4033H121.755Z" fill="#318450"/>
<path d="M114.92 55.0733L112.946 54.3126L115.756 51.498L114.92 55.0733Z" fill="#C08D00"/>
<path d="M119.401 59.105L126.692 54.8452C127.071 54.617 127.299 54.0845 127.223 53.6281L125.477 45.3367L116.819 50.3572L118.566 58.6486C118.717 59.105 119.021 59.3333 119.401 59.105Z" fill="#C08D00"/>
<path d="M119.933 38.6426L129.805 43.6631C130.261 43.8913 130.109 44.652 129.578 44.9563L121.527 49.5965L113.477 54.2366C112.946 54.5409 112.566 54.0845 112.794 53.476L118.642 39.4033C118.945 38.7948 119.553 38.4144 119.933 38.6426Z" fill="#C08D00"/>
<path d="M121.376 59.8655L128.666 55.6057C129.046 55.3775 129.274 54.845 129.198 54.3886L127.451 46.0972L118.793 51.1177L120.54 59.4091C120.616 59.8655 120.996 60.0938 121.376 59.8655Z" fill="#FEBC06"/>
<path d="M121.907 39.4792L131.78 44.4997C132.236 44.7279 132.084 45.4886 131.552 45.7929L123.502 50.4331L115.452 55.0732C114.92 55.3775 114.541 54.9211 114.768 54.3126L120.616 40.2399C120.844 39.5553 121.452 39.251 121.907 39.4792Z" fill="#FEBC06"/>
<path d="M306.908 225.619L277.669 208.808C275.391 207.514 271.366 207.667 268.708 209.188L208.712 244.027C206.054 245.549 205.75 247.907 208.104 249.2L237.343 266.011C239.621 267.304 243.646 267.152 246.304 265.631L306.3 230.791C308.958 229.27 309.186 226.988 306.908 225.619Z" fill="#D4ECDD"/>
<path d="M236.128 260.534L206.205 243.266C204.914 242.506 204.231 241.517 204.231 240.452V235.279L205.218 236.953C205.674 236.42 206.281 235.888 207.117 235.431L267.417 200.364C270.834 198.386 275.998 198.158 278.96 199.831L308.882 217.099C309.186 217.251 309.49 217.479 309.718 217.708L310.857 216.262V221.131C310.933 222.5 309.945 223.869 308.047 225.01L247.671 260.002C244.254 261.979 239.089 262.208 236.128 260.534Z" fill="#229B85"/>
<path d="M308.806 213.295L278.884 196.028C275.922 194.354 270.758 194.583 267.34 196.56L207.041 231.628C203.623 233.606 203.243 236.572 206.205 238.322L236.127 255.59C239.089 257.263 244.253 257.035 247.671 255.057L307.971 219.99C311.388 218.012 311.768 214.969 308.806 213.295Z" fill="#73C4A2"/>
<path d="M206.206 238.322L236.128 255.59C239.089 257.263 244.254 257.035 247.671 255.057L307.971 219.99C309.642 219.001 310.553 217.86 310.781 216.643C311.009 218.088 310.097 219.685 307.971 220.826L247.671 255.894C244.254 257.872 239.089 258.1 236.128 256.426L206.206 239.159C204.687 238.246 204.003 237.029 204.231 235.812C204.383 236.725 204.99 237.637 206.206 238.322Z" fill="white"/>
<path d="M306.908 213.98L277.669 197.169C275.391 195.876 271.366 196.028 268.708 197.549L208.712 232.389C206.054 233.91 205.75 236.268 208.104 237.561L237.343 254.373C239.621 255.666 243.646 255.514 246.304 253.992L306.3 219.153C308.958 217.632 309.186 215.349 306.908 213.98Z" fill="white"/>
<path d="M259.823 220.142L270.683 213.904C271.062 213.676 271.062 213.296 270.607 212.991C270.151 212.687 269.467 212.687 269.012 212.915L258.152 219.153C257.772 219.381 257.772 219.762 258.228 220.066C258.683 220.294 259.367 220.37 259.823 220.142Z" fill="#D4ECDD"/>
<path d="M270.075 218.012L273.948 215.806C274.327 215.578 274.327 215.197 273.872 214.893C273.416 214.589 272.733 214.589 272.277 214.817L268.404 217.023C268.024 217.251 268.024 217.631 268.48 217.936C268.935 218.164 269.619 218.24 270.075 218.012Z" fill="#D4ECDD"/>
<path d="M263.544 221.739L267.417 219.533C267.797 219.305 267.797 218.925 267.341 218.62C266.885 218.316 266.202 218.316 265.746 218.544L261.873 220.75C261.493 220.978 261.493 221.359 261.949 221.663C262.481 221.967 263.164 221.967 263.544 221.739Z" fill="#229B85"/>
<path d="M250.481 229.346L260.961 223.261C261.341 223.032 261.341 222.652 260.885 222.348C260.43 222.044 259.746 222.044 259.291 222.272L248.81 228.357C248.431 228.585 248.431 228.966 248.886 229.27C249.342 229.498 250.101 229.574 250.481 229.346Z" fill="#D4ECDD"/>
<path d="M263.696 225.467L277.214 217.632C277.594 217.403 277.594 217.023 277.138 216.719C276.682 216.414 275.999 216.414 275.543 216.643L262.025 224.478C261.645 224.706 261.645 225.086 262.101 225.391C262.557 225.695 263.316 225.695 263.696 225.467Z" fill="#D4ECDD"/>
<path d="M247.443 238.702L280.555 219.533C280.935 219.305 280.935 218.925 280.479 218.62C280.023 218.316 279.34 218.316 278.884 218.544L245.773 237.713C245.393 237.942 245.393 238.322 245.849 238.626C246.304 238.931 246.988 238.931 247.443 238.702Z" fill="#229B85"/>
<path d="M237.799 232.845L256.785 221.815C257.164 221.587 257.164 221.207 256.709 220.903C256.253 220.598 255.569 220.598 255.114 220.826L236.052 231.856C235.672 232.085 235.672 232.465 236.128 232.769C236.659 233.074 237.343 233.074 237.799 232.845Z" fill="#D4ECDD"/>
<path d="M261.114 250.797L263.923 249.2C264.227 249.048 264.455 248.591 264.455 248.211C264.455 247.831 264.227 247.679 263.923 247.831L261.114 249.428C260.81 249.58 260.582 250.037 260.582 250.417C260.582 250.797 260.81 251.026 261.114 250.797Z" fill="#73C4A2"/>
<path d="M256.709 253.384L259.519 251.786C259.822 251.634 260.05 251.178 260.05 250.798C260.05 250.417 259.822 250.265 259.519 250.417L256.709 252.015C256.405 252.167 256.177 252.623 256.177 253.003C256.177 253.384 256.405 253.536 256.709 253.384Z" fill="#73C4A2"/>
</g>
<defs>
<clipPath id="clip0_659_19216">
<rect width="242.642" height="267" fill="white" transform="matrix(-1 0 0 1 316.78 0)"/>
</clipPath>
</defs>
</svg>
