<svg width="526" height="472" viewBox="0 0 526 472" fill="none" xmlns="http://www.w3.org/2000/svg">
<path d="M245.336 11.8782C386.437 -0.638819 386.71 78.9352 450.308 153.127C513.905 227.318 527.515 260.955 503.539 346.423C479.563 431.892 398.772 499.028 298.841 461.045C198.909 423.062 141.65 459.543 78.6096 425.77C15.5695 391.997 -7.87145 326.874 38.3049 250.065C84.4813 173.256 71.3043 27.3765 245.336 11.8782Z" fill="#30AB5E"/>
<path opacity="0.7" d="M245.336 11.8782C386.437 -0.638819 386.71 78.9352 450.308 153.127C513.905 227.318 527.515 260.955 503.539 346.423C479.563 431.892 398.772 499.028 298.841 461.045C198.909 423.062 141.65 459.543 78.6096 425.77C15.5695 391.997 -7.87145 326.874 38.3049 250.065C84.4813 173.256 71.3043 27.3765 245.336 11.8782Z" fill="white"/>
<path d="M253.4 72.7605L252.931 70.884C261.187 69.3828 270.445 69.9458 274.041 70.4149C302.939 73.7925 320.796 94.6526 326.113 104.66L327.99 108.413L327.52 108.882L325.644 109.352L323.298 108.413H321.422L318.607 108.882L315.793 111.228L313.916 114.512L315.323 114.981L315.793 116.857C315.417 120.235 313.134 121.079 312.04 121.079L306.41 122.018L305.941 122.956L309.225 129.054C311.852 128.304 312.196 128.742 312.04 129.054C312.509 129.68 313.447 131.306 313.447 132.807C313.447 134.309 313.134 134.997 312.978 135.153L311.101 137.029L310.632 138.906L305.003 138.437L304.065 142.659L300.781 145.474L298.904 145.004L298.435 143.597L297.028 142.19H296.09L292.806 147.819L295.151 148.288L297.028 149.696L297.966 150.634L298.904 152.51L307.818 154.856L308.287 156.732L310.163 158.14L310.632 162.831L313.916 164.707L317.669 165.176L321.891 159.078L323.298 163.3L323.768 165.176L322.829 167.991C322.829 168.304 322.548 169.398 321.422 171.275C320.296 173.151 319.076 172.995 318.607 172.682H316.731V174.559V179.25L317.669 180.188H268.412L268.881 178.312L270.757 179.25L272.165 178.781L273.572 177.373L274.51 171.275L270.757 169.398H267.474L263.721 167.522L260.906 162.831L257.622 158.14L260.906 152.041L266.066 154.856L269.35 152.979L270.757 148.288C271.539 147.506 273.291 145.943 274.041 145.943C274.792 145.943 275.292 146.881 275.449 147.35L279.201 142.19L277.794 141.251L276.856 140.313L274.51 139.375L270.288 134.215L266.535 135.622L266.066 137.029L265.597 137.968L260.906 135.153L259.499 130.462L260.437 129.054L260.906 124.832L256.684 122.487C253.306 121.361 252.462 117.952 252.462 116.388L253.869 112.635L252.462 109.352L248.24 101.377L249.178 97.6236L251.524 96.6854L252.462 91.5251L248.24 86.834L251.524 80.2663L252.931 76.9825L253.4 72.7605Z" fill="#30AB5E"/>
<path d="M193.353 152.042L194.292 152.511L198.514 147.35L203.205 145.474L206.489 147.35L207.896 146.412L208.365 145.005V144.536L206.958 143.128L207.896 138.906C210.554 139.532 216.246 140.408 217.747 138.906L218.686 137.03L218.216 135.623C218.373 135.466 218.779 134.684 219.155 132.808C219.53 130.931 219.624 129.837 219.624 129.524H220.093C220.249 129.524 220.656 129.618 221.031 129.993L222.438 131.401H222.908L223.846 129.055L231.352 123.426L236.043 122.487H237.919L238.388 123.895L241.203 125.302L238.388 131.401L236.981 133.277V137.03L237.919 139.375L234.636 143.598L233.697 144.536L232.759 145.005L229.006 144.536L222.908 140.314L220.562 144.536V145.943L219.624 146.881L223.846 150.634L225.722 154.387L227.13 156.733L224.784 160.955L225.722 164.239L229.006 168.93L231.352 176.905L231.821 179.25L234.636 180.189H239.327L243.08 177.843L244.487 180.189H239.327H234.636H218.686V178.312L217.278 177.374V175.028L213.056 175.967L212.118 179.72L208.365 180.658L207.427 179.72L206.489 176.905L206.958 175.967H210.711L213.056 171.745L212.587 169.399L211.18 168.461L210.241 164.239L208.834 160.955L207.427 159.078L206.019 158.609L201.797 160.955L197.575 161.424L197.106 165.646L193.822 155.795L193.353 152.042Z" fill="#30AB5E"/>
<path d="M327.869 174.963C323.482 183.311 317.492 190.711 310.241 196.741C302.99 202.77 294.621 207.309 285.613 210.099C276.605 212.888 267.135 213.873 257.746 212.997C248.357 212.121 239.232 209.401 230.896 204.992C229.314 204.162 227.778 203.274 226.288 202.341C224.797 201.408 223.363 200.452 221.975 199.428C220.283 198.207 218.667 196.917 217.127 195.559C217.031 195.482 216.94 195.398 216.854 195.309V195.309C206.766 186.385 199.392 174.803 195.574 161.886C191.757 148.97 191.65 135.24 195.265 122.265C198.881 109.291 206.074 97.5952 216.022 88.5149C225.969 79.4346 238.271 73.3359 251.521 70.9156C264.77 68.4954 278.433 69.8512 290.949 74.8283C303.465 79.8053 314.328 88.2027 322.297 99.061C330.266 109.919 335.02 122.8 336.015 136.232C337.011 149.664 334.207 163.106 327.926 175.02L327.869 174.963Z" stroke="#263238" stroke-linecap="round" stroke-linejoin="round"/>
<path d="M328.096 108.51C327.322 109.193 326.071 109.409 324.091 108.795C316.979 106.598 313.28 114.586 314.532 114.678C315.784 114.769 316.649 118.364 314.1 120.094C311.551 121.824 305.565 121.232 305.964 123.018C306.362 124.805 309.286 129.243 309.286 129.243C309.286 129.243 311.904 128.014 312.7 129.55C313.497 131.086 314.282 135.24 312.359 135.991C311.821 136.222 311.378 136.63 311.105 137.148C310.832 137.665 310.744 138.261 310.857 138.835L305.099 138.494L304.2 142.738L300.672 145.697L298.772 144.696C298.772 144.696 297.111 140.36 295.506 142.977L293.913 145.583L292.889 147.927C292.889 147.927 297.02 148.849 298.055 150.647L299.079 152.445L308.046 154.971L308.752 157.531L310.413 158.407L310.834 162.891L314.179 164.643L317.525 164.905L321.61 159.215C322.437 160.813 323.159 162.463 323.772 164.154C324.17 165.622 323.01 169.274 323.01 169.274C322.339 170.638 321.337 171.811 320.097 172.688C318.469 173.53 316.489 171.288 316.683 174.031L316.819 176.773L316.41 179.811L318.925 181.143L321.314 182.406L322.702 183.544" stroke="#263238" stroke-linecap="round" stroke-linejoin="round"/>
<path d="M193.379 152.08L194.38 152.274L198.932 147.244L203.028 145.583L205.964 147.13C207.182 147.768 208.399 144.718 208.399 144.718L207.614 144.001C206.829 143.284 207.967 139.063 207.967 139.063C210.227 139.402 212.509 139.562 214.794 139.541C216.592 139.324 217.446 139.393 218.208 137.868C218.97 136.343 218.402 136.024 218.402 136.024C219.058 134.103 219.5 132.114 219.721 130.096C219.721 128.127 222.657 131.643 222.657 131.643L224.091 128.924L227.311 126.375L231.499 123.462C231.499 123.462 237.587 121.709 238.065 123.029C238.543 124.349 241 125.419 241 125.419L239.954 127.41C239.954 127.41 238.611 131.552 237.314 132.429C236.016 133.305 237.837 139.643 237.837 139.643C236.64 140.78 235.578 142.051 234.674 143.432C233.877 144.946 233.103 144.934 233.103 144.934L229.132 144.388C229.132 144.388 224.58 141.225 223.078 140.417C223.078 140.417 220.416 143.273 220.677 144.968C220.939 146.664 219.744 146.743 219.744 146.743L223.943 150.555L224.626 152.945L227.118 156.302L226.31 157.838L224.785 160.728L225.457 163.88L228.176 167.533L229.701 170.856L231.362 176.227L231.897 179.197L236.79 181.393L238.952 180.255L243.162 177.979L245.154 181.939L245.939 183.93L242.377 187.117L243.618 189.7L244.027 192.624L243.674 196.538L242.958 199.042L245.882 200.578L251.071 199.827L250.889 195.856C252.602 194.837 254.413 193.991 256.294 193.329C258.501 192.704 258.285 192.738 261.005 191.907C263.724 191.076 262.882 191.293 264.191 190.86C265.5 190.428 266.774 189.904 266.774 189.904L266.865 185.774L269.016 178.286L270.347 179.163C271.678 180.05 273.647 176.887 273.647 176.887L274.58 171.197L271.952 169.809C270.387 169.495 268.801 169.309 267.206 169.251L263.451 167.271L260.322 161.741C259.298 160.626 258.422 159.383 257.716 158.043L259.161 155.312L260.937 151.898L262.791 152.877L264.498 153.776L266.307 154.732L269.266 152.809L270.916 148.189L273.192 146.175C274.671 144.832 275.707 147.312 275.707 147.312L278.142 144.251C280.588 141.202 278.563 142.613 277.311 141.043C277.025 140.608 276.635 140.254 276.175 140.011C275.716 139.768 275.202 139.645 274.682 139.654L270.233 134.34L266.74 135.603L266.239 137.276C265.75 138.96 266.239 137.276 261.107 135.262L259.412 130.358L260.424 129.22L260.675 124.668C260.675 124.668 257.716 123.223 255.486 122.017C253.256 120.811 252.732 117.727 252.732 117.727C252.696 116.037 253.042 114.36 253.745 112.822L252.607 109.591L248.408 101.386L249.125 97.6882L251.56 96.1521L252.527 91.2363L248.067 86.9805L249.831 83.6351L251.082 81.2568L252.55 78.4803L253.688 72.8477C253.688 72.8477 253.415 71.8122 253.142 70.6401" stroke="#263238" stroke-linecap="round" stroke-linejoin="round"/>
<path d="M217.128 195.56C217.041 195.457 216.942 195.365 216.832 195.287V195.287L218.061 192.806L217.549 188.255L215.876 187.378C215.876 187.378 217.913 185.353 217.788 183.737C217.788 183.273 217.907 182.817 218.134 182.413C218.362 182.008 218.689 181.669 219.085 181.427L218.539 178.423L217.628 177.945C216.718 177.467 217.275 174.941 217.275 174.941L213.384 175.704L212.326 179.8L208.366 180.813C207.83 180.427 207.383 179.931 207.055 179.357C206.727 178.784 206.526 178.148 206.465 177.49C206.534 175.59 207.262 175.977 207.262 175.977H210.892L213.168 171.653L212.712 169.582L211.062 168.717" stroke="#263238" stroke-linecap="round" stroke-linejoin="round"/>
<path d="M211.085 168.648C211.267 168.75 210.095 163.47 210.095 163.47C210.095 163.47 208.638 159.601 207.045 158.919C205.452 158.236 201.856 160.671 201.856 160.671L197.84 161.24L196.929 166.065" stroke="#263238" stroke-linecap="round" stroke-linejoin="round"/>
<path d="M227.243 199.394L226.288 202.33C224.77 201.412 223.333 200.441 221.975 199.417L226.47 194.968L226.094 190.109C226.094 190.109 225.263 188.311 226.856 188.664C227.519 188.828 228.216 188.793 228.859 188.565C229.502 188.336 230.064 187.923 230.475 187.378C231.408 186.32 231.294 185.865 233.707 187.139C236.119 188.413 236.278 189.267 236.631 190.234C236.984 191.201 232.478 198.12 232.478 198.12L234.071 198.962C234.071 198.962 233.138 201.124 234.719 201.602L227.243 199.394Z" stroke="#263238" stroke-linecap="round" stroke-linejoin="round"/>
<path d="M280.714 211.388C272.458 213.326 263.925 213.785 255.509 212.742L256.385 209.578C256.385 209.578 255.566 208.201 258.9 208.497C262.234 208.793 264.772 209.135 264.772 209.135L267.423 204.105H272.077L273.59 204.902L274.899 206.813L277.721 209.544C278.75 210.106 279.749 210.721 280.714 211.388V211.388Z" stroke="#263238" stroke-linecap="round" stroke-linejoin="round"/>
<path d="M278.392 163.414L281.18 162.526L283.627 164.996C283.627 164.996 288.463 165.621 286.585 167.727C284.708 169.832 281.089 169.809 281.089 169.809L279.792 172.324L277.516 169.559L276.378 167.283L277.243 165.644L278.392 163.414Z" fill="#C1E6CF" stroke="#263238" stroke-linecap="round" stroke-linejoin="round"/>
<path d="M282.421 152.843C281.85 153.528 281.431 154.327 281.192 155.187L281.01 156.256L276.458 153.855L278.927 149.156L282.421 152.843Z" fill="#C1E6CF" stroke="#263238" stroke-linecap="round" stroke-linejoin="round"/>
<path d="M426.537 61.9122C430.886 61.9122 434.411 58.3868 434.411 54.0379C434.411 49.689 430.886 46.1636 426.537 46.1636C422.188 46.1636 418.662 49.689 418.662 54.0379C418.662 58.3868 422.188 61.9122 426.537 61.9122Z" fill="white" stroke="#21452F" stroke-linecap="round" stroke-linejoin="round"/>
<path d="M384.901 183.031C387.647 183.031 389.873 180.805 389.873 178.059C389.873 175.312 387.647 173.086 384.901 173.086C382.154 173.086 379.928 175.312 379.928 178.059C379.928 180.805 382.154 183.031 384.901 183.031Z" stroke="#21452F" stroke-linecap="round" stroke-linejoin="round"/>
<path d="M242.047 10.4624C244.794 10.4624 247.02 8.23608 247.02 5.48975C247.02 2.74343 244.794 0.51709 242.047 0.51709C239.301 0.51709 237.075 2.74343 237.075 5.48975C237.075 8.23608 239.301 10.4624 242.047 10.4624Z" fill="white" stroke="#21452F" stroke-linecap="round" stroke-linejoin="round"/>
<path d="M506.145 183.032C512.97 183.032 518.502 177.499 518.502 170.674C518.502 163.849 512.97 158.316 506.145 158.316C499.32 158.316 493.787 163.849 493.787 170.674C493.787 177.499 499.32 183.032 506.145 183.032Z" fill="white" stroke="#21452F" stroke-linecap="round" stroke-linejoin="round"/>
<path d="M81.2042 55.5739C85.4085 55.5739 88.8168 52.1656 88.8168 47.9612C88.8168 43.7569 85.4085 40.3486 81.2042 40.3486C76.9998 40.3486 73.5916 43.7569 73.5916 47.9612C73.5916 52.1656 76.9998 55.5739 81.2042 55.5739Z" fill="white" stroke="#21452F" stroke-linecap="round" stroke-linejoin="round"/>
<path d="M41.6731 215.086C49.0134 215.086 54.9639 209.135 54.9639 201.795C54.9639 194.455 49.0134 188.504 41.6731 188.504C34.3328 188.504 28.3823 194.455 28.3823 201.795C28.3823 209.135 34.3328 215.086 41.6731 215.086Z" fill="white" stroke="#21452F" stroke-linecap="round" stroke-linejoin="round"/>
<path d="M159.674 115.03C161.792 115.03 163.509 113.313 163.509 111.195C163.509 109.077 161.792 107.36 159.674 107.36C157.556 107.36 155.84 109.077 155.84 111.195C155.84 113.313 157.556 115.03 159.674 115.03Z" stroke="white" stroke-linecap="round" stroke-linejoin="round"/>
<path d="M246.087 54.1064L247.02 61.9011" stroke="#30AB5E" stroke-linecap="round" stroke-linejoin="round"/>
<path d="M243.185 29.9258L245.518 49.4295" stroke="#30AB5E" stroke-linecap="round" stroke-linejoin="round"/>
<path d="M342.661 95.7539C340.56 96.7022 338.447 97.6315 336.323 98.5418" stroke="#30AB5E" stroke-linecap="round" stroke-linejoin="round"/>
<path d="M386.698 73.8262C373.954 80.4147 361.255 87.1056 348.26 93.1706" stroke="#30AB5E" stroke-linecap="round" stroke-linejoin="round"/>
<path d="M405.633 64.2222C400.869 66.5587 396.128 68.9483 391.409 71.391" stroke="#30AB5E" stroke-linecap="round" stroke-linejoin="round"/>
<path d="M414.213 60.1147L410.242 61.9468" stroke="#30AB5E" stroke-linecap="round" stroke-linejoin="round"/>
<path d="M357.545 154.402C352.865 153.848 348.184 153.283 343.504 152.706" stroke="#30AB5E" stroke-linecap="round" stroke-linejoin="round"/>
<path d="M425.524 161.991C404.685 159.715 383.85 157.398 363.019 155.039" stroke="#30AB5E" stroke-linecap="round" stroke-linejoin="round"/>
<path d="M488.541 168.728C469.334 166.733 450.129 164.684 430.929 162.583" stroke="#30AB5E" stroke-linecap="round" stroke-linejoin="round"/>
<path d="M365.181 171.185C356.76 168.568 348.112 166.634 339.908 163.288" stroke="#30AB5E" stroke-linecap="round" stroke-linejoin="round"/>
<path d="M376.332 175.237C374.42 174.395 372.475 173.644 370.506 172.961" stroke="#30AB5E" stroke-linecap="round" stroke-linejoin="round"/>
<path d="M167.651 113.334L189.692 119.24" stroke="#30AB5E" stroke-linecap="round" stroke-linejoin="round"/>
<path d="M157.501 88.3916C169.324 94.9687 181.204 101.443 193.379 107.349" stroke="#30AB5E" stroke-linecap="round" stroke-linejoin="round"/>
<path d="M103.45 59.3745C120.314 67.5219 136.62 76.739 152.972 85.8423" stroke="#30AB5E" stroke-linecap="round" stroke-linejoin="round"/>
<path d="M93.8235 54.6416L97.9541 56.6557" stroke="#30AB5E" stroke-linecap="round" stroke-linejoin="round"/>
<path d="M181.681 171.72L187.086 170.469" stroke="#30AB5E" stroke-linecap="round" stroke-linejoin="round"/>
<path d="M95.9626 189.984C122.692 184.067 149.444 178.116 176.31 172.916" stroke="#30AB5E" stroke-linecap="round" stroke-linejoin="round"/>
<path d="M60.3804 197.755C70.6974 195.54 81.0031 193.287 91.2974 190.996" stroke="#30AB5E" stroke-linecap="round" stroke-linejoin="round"/>
<path d="M500.307 294.353V291.349H339.475C338.032 291.349 336.602 291.633 335.269 292.186C333.935 292.738 332.723 293.548 331.703 294.569C330.682 295.589 329.872 296.801 329.32 298.135C328.767 299.468 328.483 300.898 328.483 302.341C328.483 303.785 328.767 305.214 329.32 306.548C329.872 307.881 330.682 309.093 331.703 310.114C332.723 311.135 333.935 311.944 335.269 312.497C336.602 313.049 338.032 313.334 339.475 313.334H500.262V310.341H496.404V294.353H500.307Z" fill="white"/>
<path opacity="0.6" d="M428.426 294.353H500.319V291.349H339.475C338.032 291.349 336.602 291.633 335.269 292.186C333.935 292.738 332.723 293.548 331.703 294.569C330.682 295.589 329.872 296.801 329.32 298.135C328.767 299.468 328.483 300.898 328.483 302.341C328.483 303.785 328.767 305.214 329.32 306.548C329.872 307.881 330.682 309.093 331.703 310.114C332.723 311.135 333.935 311.944 335.269 312.497C336.602 313.049 338.032 313.334 339.475 313.334H500.262V310.341H428.426C426.306 310.341 424.272 309.499 422.773 307.999C421.274 306.5 420.432 304.467 420.432 302.347C420.432 300.227 421.274 298.194 422.773 296.695C424.272 295.195 426.306 294.353 428.426 294.353Z" fill="#30AB5E"/>
<path opacity="0.6" d="M422.77 296.698C421.633 297.812 420.855 299.241 420.538 300.802C420.221 302.362 420.379 303.982 420.991 305.452C421.604 306.921 422.643 308.174 423.974 309.048C425.305 309.921 426.868 310.376 428.46 310.353H500.353V313.345H428.54C425.624 313.345 422.828 312.187 420.767 310.126C418.705 308.064 417.547 305.268 417.547 302.353C417.547 299.438 418.705 296.642 420.767 294.58C422.828 292.519 425.624 291.361 428.54 291.361H500.308V294.354H428.426C427.375 294.352 426.334 294.558 425.364 294.961C424.393 295.363 423.512 295.953 422.77 296.698Z" fill="#30AB5E"/>
<path d="M422.77 296.698C421.633 297.812 420.855 299.241 420.538 300.802C420.221 302.362 420.379 303.982 420.991 305.452C421.604 306.921 422.643 308.174 423.974 309.048C425.305 309.921 426.868 310.376 428.46 310.353H500.353V313.345H428.54C425.624 313.345 422.828 312.187 420.767 310.126C418.705 308.064 417.547 305.268 417.547 302.353C417.547 299.438 418.705 296.642 420.767 294.58C422.828 292.519 425.624 291.361 428.54 291.361H500.308V294.354H428.426C427.375 294.352 426.334 294.558 425.364 294.961C424.393 295.363 423.512 295.953 422.77 296.698V296.698Z" stroke="#263238" stroke-linecap="round" stroke-linejoin="round"/>
<path d="M496.45 294.354V310.341" stroke="#263238" stroke-linecap="round" stroke-linejoin="round"/>
<path d="M496.45 297.266H458.797" stroke="#263238" stroke-linecap="round" stroke-linejoin="round"/>
<path d="M455.667 297.266H451.753" stroke="#263238" stroke-linecap="round" stroke-linejoin="round"/>
<path d="M433.717 302.353H468.184" stroke="#263238" stroke-linecap="round" stroke-linejoin="round"/>
<path d="M472.485 302.353H481.748" stroke="#263238" stroke-linecap="round" stroke-linejoin="round"/>
<path d="M484.456 302.353H496.45" stroke="#263238" stroke-linecap="round" stroke-linejoin="round"/>
<path d="M492.296 306.836H479.529" stroke="#263238" stroke-linecap="round" stroke-linejoin="round"/>
<path d="M443.537 306.836H440.988" stroke="#263238" stroke-linecap="round" stroke-linejoin="round"/>
<path d="M424.352 295.469C424.352 295.469 427.675 298.655 427.675 302.296C427.675 305.938 424.352 309.124 424.352 309.124" stroke="#263238" stroke-linecap="round" stroke-linejoin="round"/>
<path d="M448.385 313.334H339.475C338.032 313.334 336.602 313.049 335.269 312.497C333.935 311.944 332.723 311.135 331.703 310.114C330.682 309.093 329.872 307.881 329.32 306.548C328.767 305.214 328.483 303.785 328.483 302.341C328.483 300.898 328.767 299.468 329.32 298.135C329.872 296.801 330.682 295.589 331.703 294.569C332.723 293.548 333.935 292.738 335.269 292.186C336.602 291.633 338.032 291.349 339.475 291.349H448.339" stroke="#263238" stroke-linecap="round" stroke-linejoin="round"/>
<path d="M343.367 332.598V335.591H504.153C507.069 335.591 509.865 334.433 511.926 332.371C513.988 330.31 515.146 327.514 515.146 324.599C515.146 321.683 513.988 318.887 511.926 316.826C509.865 314.765 507.069 313.606 504.153 313.606H343.367V316.599H347.224V332.587L343.367 332.598Z" fill="white"/>
<path opacity="0.6" d="M474.602 332.598H343.367V335.591H504.153C507.069 335.591 509.865 334.433 511.926 332.371C513.988 330.31 515.146 327.514 515.146 324.599C515.146 321.683 513.988 318.887 511.926 316.826C509.865 314.765 507.069 313.606 504.153 313.606H343.367V316.599H474.602C476.722 316.599 478.755 317.441 480.254 318.94C481.754 320.44 482.596 322.473 482.596 324.593C482.596 326.713 481.754 328.746 480.254 330.245C478.755 331.745 476.722 332.587 474.602 332.587V332.598Z" fill="#C1A03F"/>
<path d="M504.153 313.606H474.488C475.932 313.606 477.361 313.891 478.695 314.443C480.028 314.996 481.24 315.805 482.261 316.826C483.282 317.847 484.091 319.058 484.644 320.392C485.196 321.726 485.48 323.155 485.48 324.599C485.48 326.042 485.196 327.472 484.644 328.805C484.091 330.139 483.282 331.351 482.261 332.371C481.24 333.392 480.028 334.202 478.695 334.754C477.361 335.307 475.932 335.591 474.488 335.591H504.153C507.069 335.591 509.865 334.433 511.926 332.371C513.988 330.31 515.146 327.514 515.146 324.599C515.146 321.683 513.988 318.887 511.926 316.826C509.865 314.765 507.069 313.606 504.153 313.606Z" fill="#FFDA71"/>
<path d="M480.257 330.254C481.395 329.14 482.172 327.71 482.489 326.15C482.807 324.59 482.649 322.97 482.036 321.5C481.424 320.03 480.385 318.778 479.054 317.904C477.722 317.031 476.16 316.576 474.568 316.599H343.367V313.606H474.488C475.932 313.606 477.361 313.891 478.695 314.443C480.028 314.996 481.24 315.805 482.261 316.826C483.282 317.847 484.091 319.058 484.644 320.392C485.196 321.726 485.48 323.155 485.48 324.599C485.48 326.042 485.196 327.472 484.644 328.805C484.091 330.139 483.282 331.351 482.261 332.371C481.24 333.392 480.028 334.202 478.695 334.754C477.361 335.307 475.932 335.591 474.488 335.591H343.367V332.598H474.602C475.653 332.6 476.693 332.393 477.664 331.991C478.634 331.589 479.516 330.998 480.257 330.254Z" stroke="#263238" stroke-linecap="round" stroke-linejoin="round"/>
<path d="M347.236 332.598V316.611" stroke="#263238" stroke-linecap="round" stroke-linejoin="round"/>
<path d="M347.236 329.697H444.22" stroke="#263238" stroke-linecap="round" stroke-linejoin="round"/>
<path d="M447.36 329.697H451.263" stroke="#263238" stroke-linecap="round" stroke-linejoin="round"/>
<path d="M469.299 324.599H420.005" stroke="#263238" stroke-linecap="round" stroke-linejoin="round"/>
<path d="M415.693 324.599H406.441" stroke="#263238" stroke-linecap="round" stroke-linejoin="round"/>
<path d="M403.733 324.599H347.236" stroke="#263238" stroke-linecap="round" stroke-linejoin="round"/>
<path d="M351.389 320.116H408.649" stroke="#263238" stroke-linecap="round" stroke-linejoin="round"/>
<path d="M459.479 320.116H462.028" stroke="#263238" stroke-linecap="round" stroke-linejoin="round"/>
<path d="M478.676 331.483C478.676 331.483 475.353 328.297 475.353 324.656C475.353 321.014 478.676 317.828 478.676 317.828" stroke="#263238" stroke-linecap="round" stroke-linejoin="round"/>
<path d="M454.632 313.606H504.154C505.597 313.606 507.026 313.891 508.36 314.443C509.694 314.996 510.905 315.805 511.926 316.826C512.947 317.847 513.757 319.058 514.309 320.392C514.861 321.726 515.146 323.155 515.146 324.599C515.146 326.042 514.861 327.472 514.309 328.805C513.757 330.139 512.947 331.351 511.926 332.371C510.905 333.392 509.694 334.202 508.36 334.754C507.026 335.307 505.597 335.591 504.154 335.591H454.632" stroke="#263238" stroke-linecap="round" stroke-linejoin="round"/>
<path d="M513.666 338.857V335.865H323.215C320.299 335.865 317.503 337.023 315.442 339.084C313.381 341.146 312.222 343.942 312.222 346.857C312.222 349.772 313.381 352.568 315.442 354.63C317.503 356.691 320.299 357.849 323.215 357.849H513.666V354.845H509.809V338.857H513.666Z" fill="white"/>
<path opacity="0.6" d="M412.097 338.857H513.655V335.865H323.215C320.299 335.865 317.503 337.023 315.442 339.084C313.381 341.146 312.222 343.942 312.222 346.857C312.222 349.772 313.381 352.568 315.442 354.63C317.503 356.691 320.299 357.849 323.215 357.849H513.666V354.845H412.097C409.977 354.845 407.943 354.003 406.444 352.504C404.945 351.005 404.103 348.971 404.103 346.851C404.103 344.731 404.945 342.698 406.444 341.199C407.943 339.7 409.977 338.857 412.097 338.857Z" fill="#30AB5E"/>
<path opacity="0.6" d="M406.453 341.201C405.315 342.315 404.538 343.745 404.221 345.305C403.904 346.866 404.061 348.485 404.674 349.955C405.286 351.425 406.325 352.677 407.656 353.551C408.988 354.425 410.55 354.879 412.142 354.856H513.701V357.803H412.222C409.307 357.803 406.511 356.645 404.449 354.584C402.388 352.522 401.23 349.726 401.23 346.811C401.23 343.896 402.388 341.1 404.449 339.038C406.511 336.977 409.307 335.819 412.222 335.819H513.667V338.812H412.097C411.045 338.817 410.004 339.032 409.036 339.442C408.067 339.852 407.189 340.45 406.453 341.201Z" fill="#30AB5E"/>
<path d="M406.453 341.201C405.315 342.315 404.538 343.745 404.221 345.305C403.904 346.866 404.061 348.485 404.674 349.955C405.286 351.425 406.325 352.677 407.656 353.551C408.988 354.425 410.55 354.879 412.142 354.856H513.701V357.803H412.222C409.307 357.803 406.511 356.645 404.449 354.584C402.388 352.522 401.23 349.726 401.23 346.811C401.23 343.896 402.388 341.1 404.449 339.038C406.511 336.977 409.307 335.819 412.222 335.819H513.667V338.812H412.097C411.045 338.817 410.004 339.032 409.036 339.442C408.067 339.852 407.189 340.45 406.453 341.201V341.201Z" stroke="#263238" stroke-linecap="round" stroke-linejoin="round"/>
<path d="M509.798 338.857V354.856" stroke="#263238" stroke-linecap="round" stroke-linejoin="round"/>
<path d="M509.797 341.77H442.479" stroke="#263238" stroke-linecap="round" stroke-linejoin="round"/>
<path d="M439.349 341.77H435.435" stroke="#263238" stroke-linecap="round" stroke-linejoin="round"/>
<path d="M417.399 346.856H451.867" stroke="#263238" stroke-linecap="round" stroke-linejoin="round"/>
<path d="M456.168 346.856H480.258" stroke="#263238" stroke-linecap="round" stroke-linejoin="round"/>
<path d="M482.977 346.856H509.798" stroke="#263238" stroke-linecap="round" stroke-linejoin="round"/>
<path d="M505.644 351.34H478.05" stroke="#263238" stroke-linecap="round" stroke-linejoin="round"/>
<path d="M427.219 351.34H424.671" stroke="#263238" stroke-linecap="round" stroke-linejoin="round"/>
<path d="M408.034 339.972C408.034 339.972 411.357 343.158 411.357 346.8C411.357 350.441 408.034 353.627 408.034 353.627" stroke="#263238" stroke-linecap="round" stroke-linejoin="round"/>
<path d="M432.067 357.803H323.215C320.299 357.803 317.503 356.645 315.442 354.584C313.381 352.522 312.222 349.726 312.222 346.811C312.222 343.896 313.381 341.1 315.442 339.038C317.503 336.977 320.299 335.819 323.215 335.819H432.078" stroke="#263238" stroke-linecap="round" stroke-linejoin="round"/>
<path d="M37.2582 313.356C37.2582 313.356 21.4981 311.08 20.7016 320.377C19.9051 329.674 30.9428 350.953 46.9418 347.949V342.544C46.9418 342.544 31.3866 345.479 27.1991 325.475C24.9232 314.414 39.7161 320.354 39.7161 320.354L37.2582 313.356Z" fill="white"/>
<path opacity="0.4" d="M37.2582 313.356C37.2582 313.356 21.4981 311.08 20.7016 320.377C19.9051 329.674 30.9428 350.953 46.9418 347.949V342.544C46.9418 342.544 31.3866 345.479 27.1991 325.475C24.9232 314.414 39.7161 320.354 39.7161 320.354L37.2582 313.356Z" fill="#FFCA2C"/>
<path d="M37.2582 313.356C37.2582 313.356 21.4981 311.08 20.7016 320.377C19.9051 329.674 30.9428 350.953 46.9418 347.949V342.544C46.9418 342.544 31.3866 345.479 27.1991 325.475C24.9232 314.414 39.7161 320.354 39.7161 320.354L37.2582 313.356Z" stroke="#263238" stroke-linecap="round" stroke-linejoin="round"/>
<path d="M84.1967 347.949C79.7247 351.613 73.6824 354.002 65.5577 354.002C30.2825 354.002 34.2993 308.85 34.2993 308.85H96.8047C96.8047 308.85 99.1829 335.636 84.1967 347.949Z" fill="white"/>
<path opacity="0.4" d="M84.1967 347.949C79.7247 351.613 73.6824 354.002 65.5577 354.002C30.2825 354.002 34.2993 308.85 34.2993 308.85H45.7922C45.7922 308.85 47.1236 328.695 54.3379 338.322C61.5523 347.949 84.0146 347.949 84.1967 347.949Z" fill="#FFE59C"/>
<path d="M84.1967 347.949C79.7247 351.613 73.6824 354.002 65.5577 354.002C30.2825 354.002 34.2993 308.85 34.2993 308.85H96.8047C96.8047 308.85 99.1829 335.636 84.1967 347.949Z" stroke="#263238" stroke-linecap="round" stroke-linejoin="round"/>
<path d="M91.775 357.849H35.8468L22.0439 352.649H105.578L91.775 357.849Z" fill="white"/>
<path opacity="0.4" d="M91.775 357.849H35.8468L22.0439 352.649H105.578L91.775 357.849Z" fill="#30AB5E"/>
<path d="M91.775 357.849H35.8468L22.0439 352.649H105.578L91.775 357.849Z" stroke="#263238" stroke-linecap="round" stroke-linejoin="round"/>
<path d="M109.424 349.428H18.2096C17.5623 349.428 17.0376 349.953 17.0376 350.6V352.444C17.0376 353.091 17.5623 353.616 18.2096 353.616H109.424C110.072 353.616 110.596 353.091 110.596 352.444V350.6C110.596 349.953 110.072 349.428 109.424 349.428Z" fill="white" stroke="#263238" stroke-linecap="round" stroke-linejoin="round"/>
<path d="M63.1453 257.872C48.6142 270.161 73.671 289.927 63.1453 298.2C63.1453 298.2 73.4548 294.194 67.037 280.573C60.6192 266.953 63.1453 257.872 63.1453 257.872Z" fill="white" stroke="#263238" stroke-linecap="round" stroke-linejoin="round"/>
<path d="M1.01562 358.486H525" stroke="#263238" stroke-linecap="round" stroke-linejoin="round"/>
<path d="M430.098 399.041H98.6482C87.4625 399.041 54.1445 394.319 54.1445 394.319H474.613C474.613 394.319 441.295 399.041 430.098 399.041Z" fill="#999999" stroke="#263238" stroke-linecap="round" stroke-linejoin="round"/>
<path d="M102.756 180.187H426.025C427.117 180.187 428.165 180.621 428.938 181.393C429.71 182.166 430.144 183.213 430.144 184.306V382.154H98.6484V184.306C98.6484 183.215 99.0809 182.169 99.8509 181.397C100.621 180.625 101.666 180.19 102.756 180.187Z" fill="#263238"/>
<path d="M474.613 394.318H54.1333C53.8045 394.326 53.4847 394.21 53.2376 393.993C52.9904 393.776 52.8341 393.473 52.7997 393.146C52.7652 392.819 52.8552 392.491 53.0518 392.227C53.2483 391.964 53.5369 391.784 53.8602 391.723L98.6369 382.153H430.098L474.887 391.723C475.21 391.784 475.498 391.964 475.695 392.227C475.892 392.491 475.982 392.819 475.947 393.146C475.913 393.473 475.756 393.776 475.509 393.993C475.262 394.21 474.942 394.326 474.613 394.318Z" fill="#BFBFBF" stroke="#263238" stroke-miterlimit="10"/>
<path d="M426.435 189.04H102.312V368.659H426.435V189.04Z" fill="white" stroke="#263238" stroke-linecap="round" stroke-linejoin="round"/>
<path d="M271.531 376.464H257.216C256.778 376.464 256.359 376.291 256.049 375.981C255.74 375.672 255.566 375.252 255.566 374.815C255.566 374.377 255.74 373.957 256.049 373.648C256.359 373.338 256.778 373.165 257.216 373.165H271.519C271.957 373.165 272.377 373.338 272.686 373.648C272.996 373.957 273.169 374.377 273.169 374.815C273.169 375.25 272.997 375.668 272.69 375.977C272.383 376.286 271.966 376.461 271.531 376.464Z" fill="white"/>
<path d="M264.373 186.775C265.68 186.775 266.74 185.715 266.74 184.408C266.74 183.101 265.68 182.041 264.373 182.041C263.066 182.041 262.006 183.101 262.006 184.408C262.006 185.715 263.066 186.775 264.373 186.775Z" fill="white"/>
<path d="M448.533 388.242H80.2144L99.5588 383.69H429.188L448.533 388.242Z" stroke="#263238" stroke-linecap="round" stroke-linejoin="round"/>
<path opacity="0.15" d="M306.226 190.382C306.226 190.382 231.67 291.44 104.816 277.717V190.382H306.226Z" fill="white"/>
<path opacity="0.3" d="M104.861 348.7C104.861 348.7 124.558 298.803 228.245 283.054C331.931 267.305 413.087 225.772 423.874 201.466V364.631H104.861V348.7Z" fill="white"/>
<path opacity="0.5" d="M423.874 190.382H104.861V196.573H423.874V190.382Z" fill="#30AB5E"/>
<path d="M104.861 196.572H423.885" stroke="#263238" stroke-linecap="round" stroke-linejoin="round"/>
<path d="M109.242 193.341H118.494" stroke="#263238" stroke-linecap="round" stroke-linejoin="round"/>
<path d="M128.609 193.341H136.939" stroke="#263238" stroke-linecap="round" stroke-linejoin="round"/>
<path d="M147.726 193.341H155.828" stroke="#263238" stroke-linecap="round" stroke-linejoin="round"/>
<g opacity="0.7">
<path opacity="0.7" d="M157.842 346.822H147.59C146.194 346.822 145.063 347.953 145.063 349.348V359.601C145.063 360.996 146.194 362.127 147.59 362.127H157.842C159.237 362.127 160.368 360.996 160.368 359.601V349.348C160.368 347.953 159.237 346.822 157.842 346.822Z" fill="#FFFFFE"/>
<path opacity="0.7" d="M180.179 346.822H169.927C168.532 346.822 167.401 347.953 167.401 349.348V359.601C167.401 360.996 168.532 362.127 169.927 362.127H180.179C181.575 362.127 182.706 360.996 182.706 359.601V349.348C182.706 347.953 181.575 346.822 180.179 346.822Z" fill="#FFFFFE"/>
<path opacity="0.7" d="M202.505 346.822H192.252C190.857 346.822 189.726 347.953 189.726 349.348V359.601C189.726 360.996 190.857 362.127 192.252 362.127H202.505C203.9 362.127 205.031 360.996 205.031 359.601V349.348C205.031 347.953 203.9 346.822 202.505 346.822Z" fill="#FFFFFE"/>
<path opacity="0.7" d="M224.842 346.822H214.59C213.194 346.822 212.063 347.953 212.063 349.348V359.601C212.063 360.996 213.194 362.127 214.59 362.127H224.842C226.237 362.127 227.368 360.996 227.368 359.601V349.348C227.368 347.953 226.237 346.822 224.842 346.822Z" fill="#FFFFFE"/>
<path opacity="0.7" d="M247.168 346.822H236.915C235.52 346.822 234.389 347.953 234.389 349.348V359.601C234.389 360.996 235.52 362.127 236.915 362.127H247.168C248.563 362.127 249.694 360.996 249.694 359.601V349.348C249.694 347.953 248.563 346.822 247.168 346.822Z" fill="#FFFFFE"/>
<path opacity="0.7" d="M269.494 346.822H259.241C257.846 346.822 256.715 347.953 256.715 349.348V359.601C256.715 360.996 257.846 362.127 259.241 362.127H269.494C270.889 362.127 272.02 360.996 272.02 359.601V349.348C272.02 347.953 270.889 346.822 269.494 346.822Z" fill="#FFFFFE"/>
<path opacity="0.7" d="M291.831 346.822H281.578C280.183 346.822 279.052 347.953 279.052 349.348V359.601C279.052 360.996 280.183 362.127 281.578 362.127H291.831C293.226 362.127 294.357 360.996 294.357 359.601V349.348C294.357 347.953 293.226 346.822 291.831 346.822Z" fill="#FFFFFE"/>
<path opacity="0.7" d="M314.157 346.822H303.904C302.509 346.822 301.378 347.953 301.378 349.348V359.601C301.378 360.996 302.509 362.127 303.904 362.127H314.157C315.552 362.127 316.683 360.996 316.683 359.601V349.348C316.683 347.953 315.552 346.822 314.157 346.822Z" fill="#FFFFFE"/>
<path opacity="0.7" d="M336.494 346.822H326.241C324.846 346.822 323.715 347.953 323.715 349.348V359.601C323.715 360.996 324.846 362.127 326.241 362.127H336.494C337.889 362.127 339.02 360.996 339.02 359.601V349.348C339.02 347.953 337.889 346.822 336.494 346.822Z" fill="#FFFFFE"/>
<path opacity="0.7" d="M358.82 346.822H348.567C347.172 346.822 346.041 347.953 346.041 349.348V359.601C346.041 360.996 347.172 362.127 348.567 362.127H358.82C360.215 362.127 361.346 360.996 361.346 359.601V349.348C361.346 347.953 360.215 346.822 358.82 346.822Z" fill="#FFFFFE"/>
<path opacity="0.7" d="M381.145 346.822H370.893C369.498 346.822 368.367 347.953 368.367 349.348V359.601C368.367 360.996 369.498 362.127 370.893 362.127H381.145C382.541 362.127 383.672 360.996 383.672 359.601V349.348C383.672 347.953 382.541 346.822 381.145 346.822Z" fill="#FFFFFE"/>
</g>
<path opacity="0.5" d="M398.294 364.631V358.202C398.294 357.52 398.023 356.865 397.54 356.383C397.058 355.901 396.404 355.63 395.722 355.63H383.683V359.601C383.683 360.271 383.417 360.914 382.943 361.387C382.469 361.861 381.827 362.127 381.157 362.127H370.916C370.246 362.127 369.603 361.861 369.129 361.387C368.656 360.914 368.389 360.271 368.389 359.601V355.63H361.369V359.601C361.369 359.935 361.302 360.265 361.174 360.573C361.046 360.881 360.858 361.161 360.621 361.396C360.384 361.63 360.102 361.816 359.793 361.942C359.484 362.067 359.153 362.13 358.82 362.127H348.578C347.908 362.127 347.266 361.861 346.792 361.387C346.318 360.914 346.052 360.271 346.052 359.601V355.63H339.02V359.601C339.02 360.271 338.754 360.914 338.28 361.387C337.806 361.861 337.164 362.127 336.494 362.127H326.253C325.921 362.127 325.592 362.062 325.286 361.935C324.979 361.808 324.701 361.622 324.466 361.387C324.232 361.153 324.046 360.874 323.919 360.568C323.792 360.261 323.727 359.933 323.727 359.601V355.63H316.717V359.601C316.717 360.271 316.451 360.914 315.977 361.387C315.503 361.861 314.861 362.127 314.191 362.127H303.95C303.28 362.127 302.637 361.861 302.163 361.387C301.69 360.914 301.423 360.271 301.423 359.601V355.63H294.403V359.601C294.403 360.271 294.136 360.914 293.663 361.387C293.189 361.861 292.546 362.127 291.876 362.127H281.635C281.304 362.127 280.975 362.062 280.669 361.935C280.362 361.808 280.084 361.622 279.849 361.387C279.614 361.153 279.428 360.874 279.301 360.568C279.174 360.261 279.109 359.933 279.109 359.601V355.63H272.088V359.601C272.088 360.271 271.822 360.914 271.348 361.387C270.875 361.861 270.232 362.127 269.562 362.127H259.321C258.651 362.127 258.008 361.861 257.535 361.387C257.061 360.914 256.795 360.271 256.795 359.601V355.63H249.694V359.601C249.694 360.271 249.428 360.914 248.954 361.387C248.48 361.861 247.838 362.127 247.168 362.127H236.927C236.257 362.127 235.614 361.861 235.141 361.387C234.667 360.914 234.401 360.271 234.401 359.601V355.63H227.38V359.601C227.38 360.271 227.114 360.914 226.64 361.387C226.166 361.861 225.524 362.127 224.854 362.127H214.612C213.942 362.127 213.3 361.861 212.826 361.387C212.352 360.914 212.086 360.271 212.086 359.601V355.63H205.065V359.601C205.065 360.271 204.799 360.914 204.325 361.387C203.852 361.861 203.209 362.127 202.539 362.127H192.298C191.628 362.127 190.985 361.861 190.512 361.387C190.038 360.914 189.772 360.271 189.772 359.601V355.63H182.751V359.601C182.751 359.938 182.684 360.271 182.553 360.581C182.423 360.891 182.232 361.173 181.991 361.408C181.75 361.643 181.465 361.828 181.152 361.952C180.839 362.075 180.504 362.135 180.168 362.127H169.927C169.257 362.127 168.614 361.861 168.14 361.387C167.667 360.914 167.401 360.271 167.401 359.601V355.63H160.38V359.601C160.38 360.271 160.114 360.914 159.64 361.387C159.166 361.861 158.523 362.127 157.853 362.127H147.612C146.942 362.127 146.3 361.861 145.826 361.387C145.352 360.914 145.086 360.271 145.086 359.601V355.63H133.024C132.342 355.63 131.688 355.901 131.206 356.383C130.724 356.865 130.453 357.52 130.453 358.202V364.631" fill="#30AB5E"/>
<path d="M398.294 364.631V358.202C398.294 357.52 398.023 356.865 397.54 356.383C397.058 355.901 396.404 355.63 395.722 355.63H383.683V359.601C383.683 360.271 383.417 360.914 382.943 361.387C382.469 361.861 381.827 362.127 381.157 362.127H370.916C370.246 362.127 369.603 361.861 369.129 361.387C368.656 360.914 368.389 360.271 368.389 359.601V355.63H361.369V359.601C361.369 359.935 361.302 360.265 361.174 360.573C361.046 360.881 360.858 361.161 360.621 361.396C360.384 361.63 360.102 361.816 359.793 361.942C359.484 362.067 359.153 362.13 358.82 362.127H348.578C347.908 362.127 347.266 361.861 346.792 361.387C346.318 360.914 346.052 360.271 346.052 359.601V355.63H339.02V359.601C339.02 360.271 338.754 360.914 338.28 361.387C337.806 361.861 337.164 362.127 336.494 362.127H326.253C325.921 362.127 325.592 362.062 325.286 361.935C324.979 361.808 324.701 361.622 324.466 361.387C324.232 361.153 324.046 360.874 323.919 360.568C323.792 360.261 323.726 359.933 323.726 359.601V355.63H316.717V359.601C316.717 360.271 316.451 360.914 315.977 361.387C315.503 361.861 314.861 362.127 314.191 362.127H303.95C303.28 362.127 302.637 361.861 302.163 361.387C301.69 360.914 301.423 360.271 301.423 359.601V355.63H294.403V359.601C294.403 360.271 294.136 360.914 293.663 361.387C293.189 361.861 292.546 362.127 291.876 362.127H281.635C281.304 362.127 280.975 362.062 280.669 361.935C280.362 361.808 280.084 361.622 279.849 361.387C279.614 361.153 279.428 360.874 279.301 360.568C279.174 360.261 279.109 359.933 279.109 359.601V355.63H272.088V359.601C272.088 360.271 271.822 360.914 271.348 361.387C270.875 361.861 270.232 362.127 269.562 362.127H259.321C258.651 362.127 258.008 361.861 257.535 361.387C257.061 360.914 256.795 360.271 256.795 359.601V355.63H249.694V359.601C249.694 360.271 249.428 360.914 248.954 361.387C248.48 361.861 247.838 362.127 247.168 362.127H236.927C236.257 362.127 235.614 361.861 235.141 361.387C234.667 360.914 234.401 360.271 234.401 359.601V355.63H227.38V359.601C227.38 360.271 227.114 360.914 226.64 361.387C226.166 361.861 225.524 362.127 224.854 362.127H214.612C213.942 362.127 213.3 361.861 212.826 361.387C212.352 360.914 212.086 360.271 212.086 359.601V355.63H205.065V359.601C205.065 360.271 204.799 360.914 204.325 361.387C203.852 361.861 203.209 362.127 202.539 362.127H192.298C191.628 362.127 190.985 361.861 190.512 361.387C190.038 360.914 189.772 360.271 189.772 359.601V355.63H182.751V359.601C182.751 359.938 182.684 360.271 182.553 360.581C182.423 360.891 182.232 361.173 181.991 361.408C181.75 361.643 181.465 361.828 181.152 361.952C180.839 362.075 180.504 362.135 180.168 362.127H169.927C169.257 362.127 168.614 361.861 168.14 361.387C167.667 360.914 167.401 360.271 167.401 359.601V355.63H160.38V359.601C160.38 360.271 160.114 360.914 159.64 361.387C159.166 361.861 158.523 362.127 157.853 362.127H147.612C146.942 362.127 146.3 361.861 145.826 361.387C145.352 360.914 145.086 360.271 145.086 359.601V355.63H133.024C132.342 355.63 131.688 355.901 131.206 356.383C130.724 356.865 130.453 357.52 130.453 358.202V364.631" stroke="#263238" stroke-linecap="round" stroke-linejoin="round"/>
<path d="M157.842 346.822H147.59C146.194 346.822 145.063 347.953 145.063 349.348V359.601C145.063 360.996 146.194 362.127 147.59 362.127H157.842C159.237 362.127 160.368 360.996 160.368 359.601V349.348C160.368 347.953 159.237 346.822 157.842 346.822Z" stroke="#263238" stroke-miterlimit="10"/>
<path d="M180.179 346.822H169.927C168.532 346.822 167.401 347.953 167.401 349.348V359.601C167.401 360.996 168.532 362.127 169.927 362.127H180.179C181.575 362.127 182.706 360.996 182.706 359.601V349.348C182.706 347.953 181.575 346.822 180.179 346.822Z" stroke="#263238" stroke-miterlimit="10"/>
<path d="M202.505 346.822H192.253C190.858 346.822 189.727 347.953 189.727 349.348V359.601C189.727 360.996 190.858 362.127 192.253 362.127H202.505C203.9 362.127 205.031 360.996 205.031 359.601V349.348C205.031 347.953 203.9 346.822 202.505 346.822Z" stroke="#263238" stroke-miterlimit="10"/>
<path d="M224.842 346.822H214.59C213.195 346.822 212.064 347.953 212.064 349.348V359.601C212.064 360.996 213.195 362.127 214.59 362.127H224.842C226.238 362.127 227.369 360.996 227.369 359.601V349.348C227.369 347.953 226.238 346.822 224.842 346.822Z" stroke="#263238" stroke-miterlimit="10"/>
<path d="M247.168 346.822H236.916C235.521 346.822 234.39 347.953 234.39 349.348V359.601C234.39 360.996 235.521 362.127 236.916 362.127H247.168C248.564 362.127 249.695 360.996 249.695 359.601V349.348C249.695 347.953 248.564 346.822 247.168 346.822Z" stroke="#263238" stroke-miterlimit="10"/>
<path d="M269.494 346.822H259.241C257.846 346.822 256.715 347.953 256.715 349.348V359.601C256.715 360.996 257.846 362.127 259.241 362.127H269.494C270.889 362.127 272.02 360.996 272.02 359.601V349.348C272.02 347.953 270.889 346.822 269.494 346.822Z" stroke="#263238" stroke-miterlimit="10"/>
<path d="M291.831 346.822H281.579C280.183 346.822 279.052 347.953 279.052 349.348V359.601C279.052 360.996 280.183 362.127 281.579 362.127H291.831C293.226 362.127 294.357 360.996 294.357 359.601V349.348C294.357 347.953 293.226 346.822 291.831 346.822Z" stroke="#263238" stroke-miterlimit="10"/>
<path d="M314.157 346.822H303.904C302.509 346.822 301.378 347.953 301.378 349.348V359.601C301.378 360.996 302.509 362.127 303.904 362.127H314.157C315.552 362.127 316.683 360.996 316.683 359.601V349.348C316.683 347.953 315.552 346.822 314.157 346.822Z" stroke="#263238" stroke-miterlimit="10"/>
<path d="M336.494 346.822H326.241C324.846 346.822 323.715 347.953 323.715 349.348V359.601C323.715 360.996 324.846 362.127 326.241 362.127H336.494C337.889 362.127 339.02 360.996 339.02 359.601V349.348C339.02 347.953 337.889 346.822 336.494 346.822Z" stroke="#263238" stroke-miterlimit="10"/>
<path d="M358.82 346.822H348.567C347.172 346.822 346.041 347.953 346.041 349.348V359.601C346.041 360.996 347.172 362.127 348.567 362.127H358.82C360.215 362.127 361.346 360.996 361.346 359.601V349.348C361.346 347.953 360.215 346.822 358.82 346.822Z" stroke="#263238" stroke-miterlimit="10"/>
<path d="M381.146 346.822H370.893C369.498 346.822 368.367 347.953 368.367 349.348V359.601C368.367 360.996 369.498 362.127 370.893 362.127H381.146C382.541 362.127 383.672 360.996 383.672 359.601V349.348C383.672 347.953 382.541 346.822 381.146 346.822Z" stroke="#263238" stroke-miterlimit="10"/>
<path d="M232.512 386.535C231.635 382.143 230.976 380.846 223.738 379.071C219.082 378.131 214.265 378.361 209.719 379.742L209.059 379.947C209.059 379.947 207.284 373.813 205.976 372.163C204.667 370.513 198.522 354.071 197.874 352.534C197.128 351.407 196.145 350.456 194.995 349.747C192.844 348.21 189.863 346.72 187.325 346.708H187.155C182.808 346.788 166.934 345.707 166.934 345.707C166.934 345.707 164.522 341.246 162.553 339.596C160.584 337.946 153.12 336.092 150.935 336.535C150.672 336.6 150.417 336.692 150.173 336.809C147.237 338.163 140.432 343.534 140.432 343.534C140.432 343.534 140.193 343.249 139.806 342.874C139.049 342.025 138.033 341.449 136.916 341.235C135.528 341.235 129.645 339.528 127.244 340.757C127.003 340.874 126.786 341.036 126.606 341.235C125.582 342.441 120.974 347.357 116.707 351.59C114.488 353.94 112.079 356.101 109.504 358.053C106.431 359.863 101.151 360.716 98.1246 361.615C95.0978 362.514 85.6076 371.856 85.6076 371.856C77.4943 373.461 49.0808 375.179 30.2028 376.169C20.0641 376.715 1.28857 379.321 1.28857 379.321L30.7604 467.452L37.0075 465.278C54.0762 459.304 100.981 443.101 107.945 442.122C116.502 440.916 121.11 436.751 127.471 436.011C133.832 435.272 139.522 434.35 148.921 436.011C158.32 437.673 172.419 431.46 183.058 429.07C193.698 426.681 198.158 418.579 200.263 414.687C202.368 410.795 205.52 408.246 211.221 405.584C216.922 402.921 218.902 400.099 222.851 397.687C226.504 395.411 232.387 391.565 232.569 387.525C232.593 387.194 232.574 386.861 232.512 386.535ZM194.961 386.535C194.961 386.535 193.766 387.104 193.095 386.467C191.815 385.676 190.467 385.002 189.066 384.453C189.715 382.689 188.566 380.459 187.655 378.627C186.882 376.863 186.206 375.059 185.63 373.222C185.63 373.222 189.715 379.025 190.921 379.901C191.445 380.347 192.052 380.683 192.708 380.891C193.111 382.865 193.859 384.752 194.915 386.467C194.92 386.508 194.936 386.547 194.961 386.581V386.535Z" fill="white"/>
<path opacity="0.4" d="M30.1799 376.145C49.0578 375.155 77.4714 373.437 85.5847 371.833C85.5847 371.833 95.0294 362.536 98.1017 361.591C101.174 360.647 106.431 359.839 109.481 358.03C112.056 356.078 114.465 353.916 116.684 351.566C113.19 356.824 108.718 363.15 106.01 365.597C101.003 370.148 99.3079 365.597 99.3079 365.597C93.5842 375.645 44.3583 376.202 30.1799 376.145Z" fill="#99D88A"/>
<path opacity="0.4" d="M127.221 340.733C129.622 339.505 135.505 341.211 136.893 341.211C138.01 341.425 139.026 342.001 139.783 342.85C138.179 344.204 137.109 345.24 137.109 345.24C137.109 345.24 134.264 343.51 130.782 341.223C130.253 340.904 129.664 340.696 129.052 340.612C128.44 340.527 127.816 340.569 127.221 340.733Z" fill="#99D88A"/>
<path opacity="0.4" d="M150.173 336.808C150.417 336.691 150.672 336.599 150.935 336.535C153.12 336.091 160.584 337.957 162.553 339.596C164.522 341.234 166.934 345.706 166.934 345.706C166.934 345.706 182.808 346.787 187.155 346.708H187.325C188.953 352.795 180.725 355.39 180.725 355.39C180.725 355.39 178.723 346.423 170.735 345.957C162.747 345.49 160.084 347.459 160.084 347.459C159.936 340.096 157.273 338.993 152.46 337.001C151.729 336.732 150.939 336.665 150.173 336.808Z" fill="#99D88A"/>
<path opacity="0.4" d="M185.664 373.267C186.24 375.104 186.916 376.909 187.689 378.672C188.6 380.504 189.749 382.735 189.1 384.498C190.501 385.047 191.849 385.721 193.129 386.512C190.602 385.192 185.664 382.882 185.664 382.882C187.234 379.287 183.195 365.893 183.195 365.893C187.485 365.036 191.522 363.207 194.995 360.545C198.022 358.042 196.611 353.217 194.995 349.747C196.145 350.456 197.127 351.407 197.874 352.534C198.522 354.071 204.701 370.525 205.976 372.163C207.25 373.802 209.059 379.947 209.059 379.947L209.719 379.742C205.168 382.211 198.397 385.784 194.926 386.512C193.87 384.797 193.123 382.91 192.719 380.937C192.063 380.729 191.456 380.392 190.932 379.947C189.749 379.07 185.664 373.267 185.664 373.267Z" fill="#99D88A"/>
<path opacity="0.4" d="M228.062 384.839C229.77 385.374 231.328 386.302 232.614 387.547C232.432 391.586 226.549 395.512 222.896 397.708C218.948 400.121 216.968 402.966 211.267 405.606C205.566 408.245 202.402 410.783 200.309 414.709C198.215 418.635 193.754 426.68 183.103 429.092C172.453 431.504 158.354 437.695 148.966 436.033C139.578 434.372 133.889 435.305 127.517 436.033C121.144 436.761 116.445 440.869 107.945 442.121C100.981 443.1 54.1215 459.303 37.0073 465.277C54.076 446.9 108.889 429.49 116.866 430.435C125.571 431.482 140.273 427.897 146.577 426.657C152.881 425.417 153.927 422.799 153.927 422.799C153.927 424.893 151.652 427.613 151.652 427.613C152.811 428.625 154.065 429.525 155.395 430.298C157.501 431.504 184.355 424.745 189.066 420.694C193.777 416.643 200.263 408.541 202.664 406.698C205.065 404.854 218.458 400.94 220.37 397.276C222.282 393.612 217.969 386.033 217.07 384.839C216.171 383.644 219.653 381.983 228.062 384.839Z" fill="#99D88A"/>
<path opacity="0.4" d="M235.709 395.979V394.841C235.737 395.22 235.737 395.6 235.709 395.979Z" fill="#99D88A"/>
<path d="M1.26587 379.297C1.26587 379.297 73.1134 374.302 85.5849 371.844C85.5849 371.844 95.041 362.547 98.1019 361.603C101.163 360.658 106.431 359.839 109.481 358.041C112.531 356.243 124.831 343.248 126.55 341.212C128.268 339.175 135.323 341.212 136.859 341.212C138.395 341.212 140.364 343.487 140.364 343.487C140.364 343.487 148.693 336.91 150.89 336.466C153.086 336.023 160.539 337.9 162.508 339.539C164.476 341.177 166.889 345.638 166.889 345.638C166.889 345.638 182.751 346.776 187.098 346.639C191.445 346.503 197.18 350.941 197.828 352.477C198.477 354.013 204.656 370.467 205.93 372.106C207.205 373.744 209.014 379.889 209.014 379.889C209.014 379.889 216.456 377.261 223.693 379.013C230.93 380.765 231.59 382.085 232.466 386.466C233.342 390.847 226.777 395.239 222.817 397.652C218.857 400.064 216.9 402.909 211.199 405.549C205.498 408.189 202.334 410.726 200.229 414.652C198.124 418.578 193.675 426.634 183.024 429.047C172.373 431.459 158.275 437.649 148.887 435.988C139.499 434.327 133.81 435.248 127.437 435.988C121.065 436.728 116.445 440.87 107.945 442.121C99.4447 443.373 30.7605 467.451 30.7605 467.451" stroke="#263238" stroke-linecap="round" stroke-linejoin="round"/>
<path d="M166.934 345.707C163.97 345.798 161.088 346.703 158.604 348.324" stroke="#263238" stroke-linecap="round" stroke-linejoin="round"/>
<path d="M176.424 348.312C179.337 349.655 181.556 358.064 181.556 358.064" stroke="#263238" stroke-linecap="round" stroke-linejoin="round"/>
<path d="M184.48 368.328C184.48 368.328 186.085 376.293 187.689 378.672C188.674 380.243 189.158 382.076 189.078 383.929" stroke="#263238" stroke-linecap="round" stroke-linejoin="round"/>
<path d="M184.48 382.37C187.331 383.565 190.092 384.964 192.742 386.557C194.79 388.071 201.401 382.814 209.059 379.958" stroke="#263238" stroke-linecap="round" stroke-linejoin="round"/>
<path d="M185.141 371.241C186.584 370.246 188.233 369.589 189.965 369.318C193.254 368.658 196.019 363.731 196.793 360.545" stroke="#263238" stroke-linecap="round" stroke-linejoin="round"/>
<path d="M194.961 386.58C193.867 384.835 193.096 382.908 192.685 380.89C192.031 380.679 191.424 380.342 190.898 379.9C189.692 379.024 185.607 373.221 185.607 373.221" stroke="#263238" stroke-linecap="round" stroke-linejoin="round"/>
<path d="M192.742 380.936C192.742 380.936 198.431 381.483 201.845 378.74" stroke="#263238" stroke-linecap="round" stroke-linejoin="round"/>
<path d="M140.398 343.544C138.352 344.945 136.143 346.091 133.821 346.958" stroke="#263238" stroke-linecap="round" stroke-linejoin="round"/>
<path d="M127.301 340.734C130.976 340.393 133.821 343.124 134.253 343.567" stroke="#263238" stroke-linecap="round" stroke-linejoin="round"/>
<path d="M150.935 336.535C150.935 336.535 157.296 338.288 158.616 340.04C159.394 341.051 159.854 342.271 159.936 343.545" stroke="#263238" stroke-linecap="round" stroke-linejoin="round"/>
<path d="M85.585 371.833C85.585 371.833 91.3883 371.833 94.8475 369.637" stroke="#263238" stroke-linecap="round" stroke-linejoin="round"/>
<path d="M127.471 436.011C127.471 436.011 139.988 432.142 145.006 431.266C147.985 430.767 150.655 429.136 152.46 426.714" stroke="#263238" stroke-linecap="round" stroke-linejoin="round"/>
<path d="M216.501 388.72C216.501 388.72 219.733 392.93 218.697 397.277" stroke="#263238" stroke-linecap="round" stroke-linejoin="round"/>
<path d="M194.961 392.998C198.467 395.409 200.911 399.076 201.788 403.239" stroke="#263238" stroke-linecap="round" stroke-linejoin="round"/>
<path d="M140.398 349.587C140.398 349.587 128.575 362.354 121.884 365.893" stroke="#263238" stroke-linecap="round" stroke-linejoin="round"/>
<path d="M159.924 353.251C159.924 353.251 147.646 366.189 142.605 368.385" stroke="#263238" stroke-linecap="round" stroke-linejoin="round"/>
<path d="M292.354 382.45C292.537 386.49 298.42 390.415 302.072 392.611C306.021 395.024 308.001 397.869 313.702 400.509C319.403 403.149 322.566 405.686 324.66 409.612C326.754 413.538 331.214 421.583 341.865 423.995C352.516 426.407 366.614 432.598 376.002 430.936C385.39 429.275 391.079 430.208 397.452 430.936C403.824 431.665 408.421 435.841 416.978 437.047C423.942 438.025 470.801 454.229 487.916 460.203L494.163 462.377L523.657 374.223C523.657 374.223 516.261 373.893 506.122 373.347C487.244 372.357 447.452 368.363 439.338 366.758C439.338 366.758 429.894 357.461 426.821 356.517C423.749 355.573 418.492 354.765 415.442 352.955C412.867 351.003 410.458 348.842 408.239 346.492C403.972 342.259 399.363 337.389 398.339 336.137C398.16 335.938 397.943 335.776 397.702 335.659C395.301 334.43 389.418 336.137 388.03 336.137C386.913 336.351 385.897 336.927 385.14 337.776C384.753 338.151 384.514 338.436 384.514 338.436C384.514 338.436 377.686 333.065 374.773 331.711C374.529 331.594 374.274 331.502 374.011 331.437C371.826 330.994 364.361 332.86 362.393 334.498C360.424 336.137 358.012 340.609 358.012 340.609C358.012 340.609 342.138 341.69 337.791 341.61H337.621C335.083 341.61 332.102 343.112 329.951 344.649C328.801 345.358 327.818 346.309 327.072 347.437C326.424 348.973 320.245 365.427 318.97 367.065C317.696 368.704 315.886 374.849 315.886 374.849L315.226 374.644C310.681 373.263 305.864 373.033 301.207 373.973C293.97 375.736 293.31 377.045 292.434 381.437C292.362 381.77 292.336 382.11 292.354 382.45ZM329.985 381.414C331.042 379.699 331.789 377.812 332.193 375.839C332.848 375.631 333.456 375.294 333.979 374.849C335.185 373.973 339.271 368.169 339.271 368.169C338.694 370.006 338.018 371.811 337.245 373.574C336.335 375.406 335.185 377.637 335.834 379.4C334.433 379.949 333.085 380.623 331.806 381.414C331.134 382.052 329.94 381.483 329.94 381.483C329.959 381.463 329.974 381.44 329.985 381.414Z" fill="white"/>
<path opacity="0.4" d="M506.134 373.324C487.256 372.334 447.463 368.34 439.35 366.735C439.35 366.735 429.905 357.439 426.833 356.494C423.76 355.55 418.503 354.742 415.454 352.933C412.878 350.981 410.469 348.819 408.251 346.469C411.744 351.726 416.216 358.053 418.924 360.5C423.931 365.051 425.626 360.5 425.626 360.5C431.35 370.547 491.955 373.381 506.134 373.324Z" fill="#99D88A"/>
<path opacity="0.4" d="M397.713 335.671C395.313 334.442 389.43 336.149 388.041 336.149C386.924 336.363 385.908 336.939 385.151 337.788C386.755 339.142 387.825 340.177 387.825 340.177C387.825 340.177 390.681 338.459 394.152 336.183C394.68 335.86 395.268 335.648 395.88 335.56C396.492 335.472 397.116 335.51 397.713 335.671Z" fill="#99D88A"/>
<path opacity="0.4" d="M374.751 331.711C374.506 331.594 374.251 331.502 373.988 331.437C371.803 330.994 364.339 332.86 362.37 334.498C360.402 336.137 357.989 340.609 357.989 340.609C357.989 340.609 342.115 341.69 337.769 341.61H337.598C335.971 347.698 344.198 350.293 344.198 350.293C344.198 350.293 346.2 341.326 354.189 340.859C362.177 340.393 364.839 342.361 364.839 342.361C364.987 334.999 367.65 333.895 372.463 331.904C373.194 331.635 373.985 331.568 374.751 331.711Z" fill="#99D88A"/>
<path opacity="0.4" d="M339.271 368.169C338.694 370.006 338.018 371.811 337.245 373.574C336.335 375.406 335.186 377.636 335.834 379.4C334.434 379.949 333.085 380.623 331.806 381.414C334.332 380.094 339.271 377.784 339.271 377.784C337.7 374.189 341.74 360.795 341.74 360.795C337.449 359.938 333.413 358.108 329.94 355.447C326.913 352.944 328.324 348.119 329.94 344.648C328.789 345.358 327.807 346.309 327.061 347.436C326.412 348.973 320.233 365.427 318.959 367.065C317.684 368.704 315.875 374.849 315.875 374.849L315.215 374.644C319.767 377.113 326.537 380.686 330.008 381.471C331.065 379.756 331.812 377.869 332.216 375.895C332.871 375.688 333.478 375.351 334.002 374.905C335.186 373.972 339.271 368.169 339.271 368.169Z" fill="#99D88A"/>
<path opacity="0.4" d="M296.872 379.741C295.164 380.277 293.606 381.204 292.32 382.449C292.502 386.489 298.385 390.415 302.038 392.611C305.987 395.023 307.967 397.868 313.667 400.508C319.368 403.148 322.532 405.685 324.626 409.611C326.719 413.537 331.18 421.582 341.831 423.994C352.482 426.407 366.58 432.597 375.968 430.936C385.356 429.274 391.045 430.207 397.418 430.936C403.79 431.664 408.387 435.84 416.944 437.046C423.908 438.025 470.767 454.229 487.881 460.203C470.813 441.825 416 424.415 408.023 425.36C399.318 426.407 384.616 422.822 378.312 421.582C372.008 420.342 370.961 417.725 370.961 417.725C370.961 419.818 373.237 422.538 373.237 422.538C372.078 423.551 370.824 424.45 369.493 425.223C367.388 426.43 340.534 419.67 335.823 415.619C331.112 411.568 324.626 403.467 322.225 401.623C319.824 399.78 306.43 395.865 304.519 392.201C302.607 388.537 306.92 380.959 307.819 379.764C308.718 378.569 305.338 376.885 296.872 379.741Z" fill="#BBE6B1"/>
<path opacity="0.4" d="M289.225 390.882V389.744C289.197 390.122 289.197 390.503 289.225 390.882Z" fill="#99D88A"/>
<path d="M523.68 374.2C523.68 374.2 451.832 369.205 439.361 366.747C439.361 366.747 429.905 357.45 426.844 356.506C423.783 355.561 418.514 354.742 415.465 352.944C412.415 351.146 400.114 338.151 398.396 336.114C396.678 334.078 389.623 336.114 388.087 336.114C386.551 336.114 384.582 338.39 384.582 338.39C384.582 338.39 376.253 331.813 374.056 331.369C371.86 330.926 364.407 332.803 362.438 334.442C360.47 336.08 358.057 340.541 358.057 340.541C358.057 340.541 342.195 341.679 337.848 341.542C333.501 341.406 327.766 345.843 327.118 347.38C326.469 348.916 320.29 365.37 319.016 367.009C317.741 368.647 315.932 374.792 315.932 374.792C315.932 374.792 308.49 372.163 301.253 373.916C294.016 375.668 293.356 376.988 292.48 381.369C291.604 385.75 298.169 390.142 302.129 392.555C306.089 394.967 308.046 397.812 313.747 400.452C319.448 403.092 322.612 405.629 324.717 409.555C326.822 413.481 331.271 421.537 341.922 423.95C352.573 426.362 366.671 432.552 376.059 430.891C385.447 429.229 391.136 430.151 397.509 430.891C403.881 431.63 408.478 435.795 417.035 437.001C425.592 438.208 494.231 462.354 494.231 462.354" stroke="#263238" stroke-linecap="round" stroke-linejoin="round"/>
<path d="M358 340.609C360.965 340.7 363.847 341.606 366.33 343.227" stroke="#263238" stroke-linecap="round" stroke-linejoin="round"/>
<path d="M348.51 343.215C345.597 344.558 343.378 352.967 343.378 352.967" stroke="#263238" stroke-linecap="round" stroke-linejoin="round"/>
<path d="M340.454 363.23C340.454 363.23 338.85 371.196 337.245 373.574C336.261 375.146 335.777 376.979 335.857 378.831" stroke="#263238" stroke-linecap="round" stroke-linejoin="round"/>
<path d="M340.454 377.261C337.603 378.456 334.842 379.856 332.193 381.448C330.144 382.962 323.533 377.705 315.875 374.849" stroke="#263238" stroke-linecap="round" stroke-linejoin="round"/>
<path d="M339.805 366.144C338.362 365.148 336.713 364.491 334.981 364.221C331.692 363.561 328.927 358.633 328.153 355.447" stroke="#263238" stroke-linecap="round" stroke-linejoin="round"/>
<path d="M329.951 381.482C331.045 379.737 331.816 377.81 332.227 375.793C332.881 375.581 333.487 375.245 334.013 374.803C335.22 373.926 339.305 368.123 339.305 368.123" stroke="#263238" stroke-linecap="round" stroke-linejoin="round"/>
<path d="M332.193 375.838C332.193 375.838 326.503 376.384 323.089 373.642" stroke="#263238" stroke-linecap="round" stroke-linejoin="round"/>
<path d="M384.537 338.459C386.583 339.859 388.791 341.005 391.114 341.873" stroke="#263238" stroke-linecap="round" stroke-linejoin="round"/>
<path d="M397.634 335.625C393.958 335.283 391.114 338.014 390.681 338.458" stroke="#263238" stroke-linecap="round" stroke-linejoin="round"/>
<path d="M374.011 331.438C374.011 331.438 367.65 333.19 366.33 334.943C365.551 335.954 365.092 337.174 365.01 338.448" stroke="#263238" stroke-linecap="round" stroke-linejoin="round"/>
<path d="M439.361 366.735C439.361 366.735 433.558 366.735 430.098 364.539" stroke="#263238" stroke-linecap="round" stroke-linejoin="round"/>
<path d="M397.509 430.913C397.509 430.913 384.992 427.045 379.974 426.168C376.995 425.669 374.325 424.038 372.52 421.617" stroke="#263238" stroke-linecap="round" stroke-linejoin="round"/>
<path d="M308.433 383.622C308.433 383.622 305.202 387.832 306.237 392.179" stroke="#263238" stroke-linecap="round" stroke-linejoin="round"/>
<path d="M329.951 387.901C326.445 390.312 324.001 393.979 323.124 398.142" stroke="#263238" stroke-linecap="round" stroke-linejoin="round"/>
<path d="M384.537 344.489C384.537 344.489 396.359 357.257 403.062 360.784" stroke="#263238" stroke-linecap="round" stroke-linejoin="round"/>
<path d="M365.021 348.097C365.021 348.097 377.3 361.035 382.34 363.231" stroke="#263238" stroke-linecap="round" stroke-linejoin="round"/>
<path d="M313.19 271.567C311.271 271.567 309.351 271.844 307.606 272.399C307.781 271.382 307.868 270.271 307.868 269.161C307.868 256.301 298.008 245.847 285.88 245.847C280.296 245.847 275.148 248.068 271.222 251.768C266.248 239.741 254.905 231.322 241.73 231.322C223.931 231.322 209.534 246.587 209.534 265.461C209.534 266.663 209.621 267.773 209.708 268.976C206.567 267.311 203.077 266.293 199.325 266.293C186.674 266.293 176.465 277.117 176.465 290.532C176.465 303.947 186.674 314.771 199.325 314.771H315.197V314.679C325.493 313.569 333.607 304.41 333.607 293.215C333.607 281.281 324.446 271.567 313.19 271.567Z" fill="#30AB5E"/>
<path d="M323.834 274.804C330.029 282.853 326.714 298.488 313.975 298.488C299.229 298.488 297.135 277.579 307.693 271.751C307.78 270.918 307.867 270.178 307.867 269.345C307.867 259.631 302.283 251.397 294.43 247.789C298.444 251.027 301.061 256.116 301.061 261.667C301.061 271.103 293.47 279.152 284.571 279.152C275.583 279.152 268.08 271.103 268.08 261.667C268.08 257.966 269.214 254.543 271.134 251.675C266.16 239.74 254.905 231.414 241.729 231.414C232.132 231.414 223.494 235.947 217.56 243.071C222.621 238.445 229.165 235.577 235.883 235.577C251.589 235.577 263.106 249.177 263.804 265.182C264.502 281.187 250.455 294.787 235.883 294.787C229.165 294.787 223.232 292.289 218.52 288.126C217.822 299.228 207.875 308.295 197.579 308.295C186.237 308.295 177.773 298.858 176.726 287.386C176.639 288.404 176.552 289.421 176.552 290.532C176.552 303.946 186.76 314.771 199.412 314.771H315.284V314.678C325.579 313.568 333.694 304.409 333.694 293.214C333.607 285.443 329.68 278.597 323.834 274.804Z" fill="#30AB5E"/>
<path d="M258.832 287.942H238.502V317.64H258.832V287.942Z" fill="white"/>
<path d="M279.075 295.343L248.711 251.398L218.259 295.343H279.075Z" fill="white"/>
</svg>
