<svg width="175" height="33" viewBox="0 0 175 33" fill="none" xmlns="http://www.w3.org/2000/svg">
<g clip-path="url(#clip0_679_6543)">
<path d="M19.4983 19.4718L0 10.749V15.9981L19.4983 24.721L39.1519 15.9981V10.749L19.4983 19.4718ZM36.3581 16.249C35.8731 16.2683 35.4462 15.5736 35.388 14.6859C35.3298 13.7981 35.679 13.0455 36.1641 13.0262C36.6491 13.0069 37.0759 13.7017 37.1341 14.5894C37.1924 15.4771 36.8431 16.2104 36.3581 16.249Z" fill="#30AB5E"/>
<path d="M39.1519 19.0088V24.2772L19.4983 33L0 24.2772V19.0088L19.4983 27.7509L39.1519 19.0088Z" fill="#333333"/>
<path d="M19.4983 16.1719L0 8.06667L19.0327 0L39.1519 8.10526L19.4983 16.1719Z" fill="#333333"/>
<path d="M60.6297 23.3314V26.1683H64.413V26.8244H60.6491V29.9121H59.873V22.6753H64.8592V23.3314H60.6297Z" fill="#1A1A1A"/>
<path d="M70.2132 26.5351V29.9123H69.5148V29.0632C69.185 29.6229 68.5447 29.9702 67.6329 29.9702C66.3912 29.9702 65.6345 29.3334 65.6345 28.3878C65.6345 27.558 66.1778 26.8439 67.7493 26.8439H69.4954V26.5158C69.4954 25.5895 68.9716 25.0685 67.9433 25.0685C67.2448 25.0685 66.5658 25.3194 66.1196 25.7053L65.7897 25.165C66.333 24.7018 67.1478 24.4316 68.0209 24.4316C69.3984 24.4316 70.2132 25.1264 70.2132 26.5351ZM69.476 28.272V27.3843H67.7687C66.7016 27.3843 66.3718 27.7895 66.3718 28.3492C66.3718 28.986 66.8762 29.372 67.7493 29.372C68.5641 29.372 69.185 28.986 69.476 28.272Z" fill="#1A1A1A"/>
<path d="M71.4551 29.2945L71.7849 28.7156C72.2311 29.063 72.9684 29.3331 73.725 29.3331C74.7727 29.3331 75.1995 28.9858 75.1995 28.4454C75.1995 27.0366 71.6491 28.1367 71.6491 25.9945C71.6491 25.1068 72.4251 24.4507 73.822 24.4507C74.5205 24.4507 75.2965 24.6437 75.7622 24.9524L75.4324 25.5507C74.9473 25.2226 74.3847 25.0875 73.822 25.0875C72.8326 25.0875 72.4057 25.4735 72.4057 25.9945C72.4057 27.4612 75.9562 26.3612 75.9562 28.4454C75.9562 29.391 75.1219 29.9893 73.7056 29.9893C72.7744 29.97 71.9013 29.6612 71.4551 29.2945Z" fill="#1A1A1A"/>
<path d="M80.1856 29.584C79.8946 29.8348 79.4484 29.9699 79.0215 29.9699C77.9933 29.9699 77.4112 29.391 77.4112 28.3875V25.0875H76.4412V24.4699H77.4112V23.2734H78.1485V24.4699H79.817V25.0875H78.1485V28.3296C78.1485 28.9664 78.4783 29.3138 79.0991 29.3138C79.4096 29.3138 79.7006 29.2173 79.914 29.0436L80.1856 29.584Z" fill="#1A1A1A"/>
<path d="M82.2615 29.3912C82.2615 29.5649 82.2227 29.7 82.1063 29.9894L81.6601 31.4175H81.1556L81.5049 29.9122C81.2914 29.8544 81.1362 29.6614 81.1362 29.3912C81.1362 29.0631 81.369 28.8315 81.6795 28.8315C82.0287 28.8315 82.2615 29.0824 82.2615 29.3912Z" fill="#1A1A1A"/>
<path d="M86.0254 29.0245L86.3358 28.4262C86.8596 28.928 87.7909 29.3139 88.7416 29.3139C90.0997 29.3139 90.7011 28.7543 90.7011 28.0403C90.7011 26.0525 86.2194 27.2683 86.2194 24.5859C86.2194 23.5245 87.0537 22.5981 88.8968 22.5981C89.7116 22.5981 90.5653 22.8297 91.1473 23.235L90.8951 23.8525C90.2743 23.4473 89.537 23.2543 88.8968 23.2543C87.5581 23.2543 86.9761 23.8525 86.9761 24.5666C86.9761 26.5543 91.4577 25.3578 91.4577 27.9824C91.4577 29.0438 90.6041 29.9508 88.7416 29.9508C87.6357 29.9701 86.5686 29.5841 86.0254 29.0245Z" fill="#1A1A1A"/>
<path d="M97.7243 27.4229H93.1456C93.2232 28.5615 94.0962 29.3141 95.2991 29.3141C95.9588 29.3141 96.5602 29.0825 96.9676 28.6001L97.3751 29.0825C96.89 29.6615 96.1334 29.9702 95.2603 29.9702C93.553 29.9702 92.3889 28.8123 92.3889 27.1913C92.3889 25.5702 93.5142 24.4316 95.0663 24.4316C96.599 24.4316 97.7243 25.5509 97.7243 27.1913C97.7437 27.2492 97.7243 27.3264 97.7243 27.4229ZM93.1456 26.8632H97.0259C96.9288 25.8018 96.1528 25.0492 95.0857 25.0492C94.0186 25.0492 93.2426 25.8018 93.1456 26.8632Z" fill="#1A1A1A"/>
<path d="M98.6946 27.1913C98.6946 25.5702 99.8781 24.4316 101.508 24.4316C102.439 24.4316 103.215 24.7983 103.642 25.5123L103.099 25.879C102.73 25.3387 102.148 25.0685 101.508 25.0685C100.305 25.0685 99.4318 25.9176 99.4318 27.1913C99.4318 28.465 100.305 29.3141 101.508 29.3141C102.148 29.3141 102.73 29.0632 103.099 28.5229L103.642 28.8895C103.196 29.5843 102.42 29.9702 101.508 29.9702C99.8781 29.9702 98.6946 28.8123 98.6946 27.1913Z" fill="#1A1A1A"/>
<path d="M110.025 24.4702V29.9123H109.326V28.9281C108.938 29.5842 108.24 29.9702 107.367 29.9702C105.97 29.9702 105.058 29.1983 105.058 27.6351V24.4702H105.795V27.5579C105.795 28.7158 106.397 29.3141 107.444 29.3141C108.589 29.3141 109.307 28.5807 109.307 27.3457V24.4895H110.025V24.4702Z" fill="#1A1A1A"/>
<path d="M114.856 24.4316V25.1457C114.798 25.1457 114.739 25.1264 114.681 25.1264C113.537 25.1264 112.838 25.8597 112.838 27.1334V29.9123H112.101V24.4702H112.799V25.5316C113.149 24.8176 113.847 24.4316 114.856 24.4316Z" fill="#1A1A1A"/>
<path d="M120.909 27.4229H116.33C116.408 28.5615 117.281 29.3141 118.484 29.3141C119.144 29.3141 119.745 29.0825 120.152 28.6001L120.56 29.0825C120.075 29.6615 119.318 29.9702 118.445 29.9702C116.738 29.9702 115.574 28.8123 115.574 27.1913C115.574 25.5702 116.699 24.4316 118.251 24.4316C119.784 24.4316 120.909 25.5509 120.909 27.1913C120.909 27.2492 120.909 27.3264 120.909 27.4229ZM116.33 26.8632H120.211C120.114 25.8018 119.338 25.0492 118.271 25.0492C117.203 25.0492 116.427 25.8018 116.33 26.8632Z" fill="#1A1A1A"/>
<path d="M130.513 30.0277L129.504 28.9856C128.883 29.6417 128.049 29.9698 127.079 29.9698C125.662 29.9698 124.634 29.2172 124.634 28.1365C124.634 27.2874 125.138 26.6505 126.458 25.8786C125.759 25.1453 125.546 24.7207 125.546 24.161C125.546 23.2347 126.264 22.6172 127.389 22.6172C128.417 22.6172 129.077 23.1575 129.077 24.0646C129.077 24.7979 128.631 25.2996 127.447 25.9751L129.446 28.0207C129.659 27.6347 129.834 27.1716 129.931 26.6312L130.532 26.8242C130.396 27.4803 130.183 28.04 129.892 28.4839L130.939 29.5453L130.513 30.0277ZM129.077 28.5417L126.885 26.3032C125.721 26.9593 125.371 27.4224 125.371 28.0593C125.371 28.8505 126.07 29.3716 127.137 29.3716C127.913 29.3523 128.573 29.0821 129.077 28.5417ZM126.225 24.1417C126.225 24.5663 126.38 24.8751 127.04 25.5312C128.087 24.933 128.437 24.5663 128.437 24.0453C128.437 23.5049 128.049 23.1382 127.37 23.1382C126.652 23.1575 126.225 23.5628 126.225 24.1417Z" fill="#1A1A1A"/>
<path d="M139.961 29.9121L138.292 27.577C138.098 27.5963 137.924 27.6156 137.71 27.6156H135.751V29.9121H134.975V22.6753H137.691C139.534 22.6753 140.659 23.6016 140.659 25.1648C140.659 26.3034 140.058 27.0946 138.991 27.442L140.776 29.9314H139.961V29.9121ZM139.922 25.1455C139.922 23.9876 139.146 23.3314 137.691 23.3314H135.751V26.9595H137.691C139.146 26.9595 139.922 26.2841 139.922 25.1455Z" fill="#1A1A1A"/>
<path d="M147.12 27.4229H142.542C142.619 28.5615 143.492 29.3141 144.695 29.3141C145.355 29.3141 145.956 29.0825 146.364 28.6001L146.771 29.0825C146.286 29.6615 145.529 29.9702 144.656 29.9702C142.949 29.9702 141.785 28.8123 141.785 27.1913C141.785 25.5702 142.91 24.4316 144.462 24.4316C145.995 24.4316 147.12 25.5509 147.12 27.1913C147.14 27.2492 147.12 27.3264 147.12 27.4229ZM142.542 26.8632H146.422C146.325 25.8018 145.549 25.0492 144.482 25.0492C143.415 25.0492 142.639 25.8018 142.542 26.8632Z" fill="#1A1A1A"/>
<path d="M148.634 22.2314H149.371V29.9121H148.634V22.2314Z" fill="#1A1A1A"/>
<path d="M151.272 22.7525C151.272 22.4823 151.505 22.2314 151.815 22.2314C152.126 22.2314 152.358 22.463 152.358 22.7332C152.358 23.042 152.126 23.2736 151.815 23.2736C151.505 23.2736 151.272 23.042 151.272 22.7525ZM151.447 24.47H152.184V29.9121H151.447V24.47Z" fill="#1A1A1A"/>
<path d="M158.373 26.5351V29.9123H157.674V29.0632C157.345 29.6229 156.704 29.9702 155.793 29.9702C154.551 29.9702 153.794 29.3334 153.794 28.3878C153.794 27.558 154.337 26.8439 155.909 26.8439H157.655V26.5158C157.655 25.5895 157.131 25.0685 156.103 25.0685C155.404 25.0685 154.725 25.3194 154.279 25.7053L153.949 25.165C154.493 24.7018 155.307 24.4316 156.181 24.4316C157.558 24.4316 158.373 25.1264 158.373 26.5351ZM157.636 28.272V27.3843H155.928C154.861 27.3843 154.531 27.7895 154.531 28.3492C154.531 28.986 155.036 29.372 155.909 29.372C156.724 29.372 157.345 28.986 157.636 28.272Z" fill="#1A1A1A"/>
<path d="M165.92 27.1908C165.92 28.8312 164.756 29.9698 163.204 29.9698C162.292 29.9698 161.535 29.5838 161.089 28.8505V29.9312H160.391V22.2505H161.128V25.5119C161.594 24.8172 162.331 24.4312 163.204 24.4312C164.756 24.4312 165.92 25.5505 165.92 27.1908ZM165.183 27.1908C165.183 25.9172 164.29 25.068 163.146 25.068C161.982 25.068 161.108 25.9172 161.108 27.1908C161.108 28.4645 161.982 29.3136 163.146 29.3136C164.29 29.3136 165.183 28.4645 165.183 27.1908Z" fill="#1A1A1A"/>
<path d="M167.433 22.2314H168.171V29.9121H167.433V22.2314Z" fill="#1A1A1A"/>
<path d="M174.981 27.4229H170.402C170.48 28.5615 171.353 29.3141 172.555 29.3141C173.215 29.3141 173.817 29.0825 174.224 28.6001L174.631 29.0825C174.146 29.6615 173.39 29.9702 172.517 29.9702C170.809 29.9702 169.645 28.8123 169.645 27.1913C169.645 25.5702 170.771 24.4316 172.323 24.4316C173.855 24.4316 174.981 25.5509 174.981 27.1913C175 27.2492 174.981 27.3264 174.981 27.4229ZM170.421 26.8632H174.302C174.205 25.8018 173.429 25.0492 172.361 25.0492C171.294 25.0492 170.499 25.8018 170.421 26.8632Z" fill="#1A1A1A"/>
<path d="M72.2893 14.8596V17.8315H59.853V1.85254H71.9789V4.82447H63.5393V8.29815H71.0088V11.1736H63.5587V14.8596H72.2893Z" fill="#30AB5E"/>
<path d="M74.1907 9.84168C74.1907 5.03642 77.8963 1.58203 82.9019 1.58203C85.6762 1.58203 87.985 2.58554 89.4983 4.41887L87.1119 6.59958C86.0255 5.36449 84.6868 4.72765 83.0765 4.72765C80.0693 4.72765 77.9351 6.83116 77.9351 9.84168C77.9351 12.8522 80.0693 14.9557 83.0765 14.9557C84.6868 14.9557 86.0255 14.3189 87.1119 13.0645L89.5177 15.2452C88.0044 17.0978 85.6957 18.1013 82.8825 18.1013C77.9157 18.082 74.1907 14.6469 74.1907 9.84168Z" fill="#30AB5E"/>
<path d="M106.727 1.85254V17.8122H103.681L95.6874 8.12447V17.8122H92.0205V1.85254H95.0859L103.06 11.5403V1.85254H106.727Z" fill="#30AB5E"/>
<path d="M125.255 1.85254V17.8122H121.549V11.2701H114.254V17.8122H110.549V1.85254H114.254V8.14377H121.549V1.85254H125.255Z" fill="#30AB5E"/>
<path d="M145.626 9.84168C145.626 14.6084 141.882 18.1013 136.838 18.1013C131.774 18.1013 128.068 14.5891 128.068 9.84168C128.068 5.09431 131.774 1.58203 136.838 1.58203C141.882 1.58203 145.626 5.07501 145.626 9.84168Z" fill="#30AB5E"/>
<path d="M147.159 16.249L148.42 13.47C149.778 14.4542 151.796 15.1297 153.717 15.1297C155.909 15.1297 156.821 14.3963 156.821 13.4121C156.821 10.4209 147.489 12.4858 147.489 6.54194C147.489 3.82088 149.681 1.56299 154.26 1.56299C156.278 1.56299 158.334 2.04544 159.828 2.97176L158.683 5.7893C157.189 4.94018 155.657 4.53492 154.24 4.53492C152.048 4.53492 151.194 5.36474 151.194 6.36825C151.194 9.30158 160.526 7.27527 160.526 13.1419C160.526 15.8051 158.295 18.0823 153.717 18.0823C151.156 18.0823 148.595 17.3297 147.159 16.249Z" fill="#30AB5E"/>
<path d="M166.153 4.86307H161.012V1.85254H175V4.86307H169.859V17.8122H166.153V4.86307Z" fill="#30AB5E"/>
<path d="M139.515 4.66994C139.36 4.59275 139.185 4.59275 139.01 4.65064C138.836 4.70854 138.719 4.82433 138.642 4.99801C138.487 5.32608 138.622 5.71205 138.952 5.86643C140.679 6.67696 141.785 8.4138 141.785 10.305C141.785 13.0261 139.573 15.2261 136.837 15.2261C134.121 15.2261 131.89 13.0261 131.89 10.305C131.89 8.4331 132.977 6.69626 134.684 5.88573C134.839 5.80854 134.956 5.67345 135.014 5.49977C135.072 5.32608 135.053 5.1524 134.975 4.99801C134.897 4.84363 134.761 4.72784 134.606 4.66994C134.432 4.61205 134.257 4.63134 134.102 4.70854C131.968 5.73135 130.571 7.93135 130.571 10.305C130.571 13.7401 133.384 16.5384 136.837 16.5384C140.291 16.5384 143.104 13.7401 143.104 10.305C143.104 7.91205 141.707 5.69275 139.515 4.66994Z" fill="white"/>
<path d="M136.837 9.84177C137.206 9.84177 137.497 9.55229 137.497 9.18563V3.78212C137.497 3.41545 137.206 3.12598 136.837 3.12598C136.469 3.12598 136.178 3.41545 136.178 3.78212V9.18563C136.178 9.53299 136.488 9.84177 136.837 9.84177Z" fill="white"/>
</g>
<defs>
<clipPath id="clip0_679_6543">
<rect width="175" height="33" fill="white"/>
</clipPath>
</defs>
</svg>
