<svg width="625" height="574" viewBox="0 0 625 574" fill="none" xmlns="http://www.w3.org/2000/svg">
<path fill-rule="evenodd" clip-rule="evenodd" d="M201.822 113.725C254.425 98.5948 324.942 130.699 374.599 133.583C424.028 136.454 509.043 133.05 532.699 162.774C557.167 193.518 503.995 237.56 504.154 277.756C504.325 320.803 565.706 355.69 541.142 399.976C517.658 442.313 426.265 432.705 370.713 447.816C322.59 460.906 280.883 449.039 234.421 449.2C182.859 449.378 133.404 452.202 102.92 426.108C72.4687 400.044 94.6392 370.653 96.1007 330.804C97.5763 290.57 70.0257 237.862 96.101 197.349C123.203 155.24 145.944 129.796 201.822 113.725Z" fill="#30AB5E"/>
<path d="M152.772 158.014L155.989 152.398L159.205 158.014H152.772Z" fill="url(#paint0_linear_673_6577)"/>
<path d="M176.653 168.597L173.437 174.214L170.221 168.597H176.653Z" fill="#DEEAFF"/>
<path d="M174.884 145.967L169.336 142.71L174.884 139.454V145.967Z" fill="url(#paint1_linear_673_6577)"/>
<path d="M483.81 338.075L207.208 316.666C205.358 316.504 203.911 314.55 203.911 312.352V128.139C203.911 125.86 205.358 123.988 207.208 123.825L483.81 102.416C486.544 102.172 488.715 104.289 488.715 107.056V333.435C488.715 336.203 486.544 338.238 483.81 338.075Z" fill="#E6F4E4"/>
<path d="M473.839 333.029L197.237 311.62C195.388 311.457 193.94 309.504 193.94 307.306V123.174C193.94 120.895 195.388 119.023 197.237 118.86L473.839 97.4513C476.573 97.2071 478.744 99.3236 478.744 102.091V328.47C478.744 331.238 476.493 333.273 473.839 333.029Z" fill="white"/>
<path d="M478.744 102.091C478.744 99.3237 476.573 97.2887 473.839 97.4515L197.237 118.86C195.388 119.023 193.94 120.977 193.94 123.175V140.35L478.744 123.175V102.091Z" fill="#E6F4E4"/>
<path d="M474.161 333.517C474 333.517 473.92 333.517 473.759 333.517L197.156 312.108C195.146 311.945 193.538 309.829 193.538 307.387V123.174C193.538 120.732 195.146 118.615 197.156 118.453L473.759 97.0438C476.734 96.7996 479.146 99.0789 479.146 102.091V328.47C479.146 331.237 476.975 333.517 474.161 333.517ZM474.161 97.8578C474.08 97.8578 473.92 97.8578 473.839 97.8578L197.237 119.267C195.629 119.429 194.342 121.139 194.342 123.174V307.305C194.342 309.34 195.629 311.131 197.237 311.212L473.839 332.621C476.332 332.865 478.342 330.912 478.342 328.388V102.091C478.342 99.7301 476.493 97.8578 474.161 97.8578Z" fill="#BCD5C5"/>
<path d="M203.429 129.035C203.429 130.337 202.625 131.395 201.58 131.477C200.535 131.558 199.73 130.581 199.73 129.279C199.73 127.977 200.535 126.918 201.58 126.837C202.625 126.837 203.429 127.814 203.429 129.035Z" fill="url(#paint2_linear_673_6577)"/>
<path d="M209.701 128.628C209.701 129.93 208.817 130.988 207.772 131.07C206.726 131.151 205.842 130.174 205.842 128.872C205.842 127.569 206.726 126.511 207.772 126.43C208.817 126.348 209.701 127.325 209.701 128.628Z" fill="url(#paint3_linear_673_6577)"/>
<path d="M216.053 128.221C216.053 129.523 215.168 130.663 214.123 130.663C213.078 130.744 212.193 129.768 212.193 128.465C212.193 127.163 213.078 126.104 214.123 126.023C215.168 125.942 216.053 126.918 216.053 128.221Z" fill="url(#paint4_linear_673_6577)"/>
<path d="M364.404 135.629V154.351L475.045 149.549V129.361L364.404 135.629Z" fill="#E6F4E4"/>
<path d="M440.55 325.947L364.404 320.33V159.642L440.55 156.631V325.947Z" fill="#E6F4E4"/>
<path d="M357.57 238.276L273.544 236.893V140.675L357.57 135.954V238.276Z" fill="#E6F4E4"/>
<path d="M211.792 309.992L196.515 308.853V145.072L211.792 144.176V309.992Z" fill="#30AB5E"/>
<path d="M423.102 256.918L421.092 256.836C419.645 256.836 418.438 255.534 418.438 253.987V251.952C418.438 250.405 419.645 249.184 421.092 249.266H423.102C424.55 249.266 425.756 250.568 425.756 252.115V254.231C425.756 255.778 424.55 256.999 423.102 256.918Z" fill="#B0D7BF"/>
<path d="M432.831 257.162L430.82 257.08C429.373 257.08 428.167 255.778 428.167 254.231V252.115C428.167 250.568 429.373 249.347 430.82 249.428H432.831C434.278 249.428 435.484 250.731 435.484 252.277V254.394C435.484 256.022 434.278 257.243 432.831 257.162Z" fill="#B0D7BF"/>
<path d="M376.385 265.628L374.536 265.546C373.169 265.465 372.043 264.244 372.043 262.779V260.744C372.043 259.278 373.169 258.139 374.536 258.139L376.385 258.22C377.752 258.22 378.878 259.523 378.878 260.988V263.023C378.878 264.488 377.752 265.709 376.385 265.628Z" fill="white"/>
<path d="M385.471 265.953L383.622 265.872C382.255 265.79 381.129 264.569 381.129 263.104V261.069C381.129 259.604 382.255 258.383 383.622 258.464L385.471 258.546C386.838 258.546 387.964 259.848 387.964 261.313V263.348C387.964 264.814 386.838 265.953 385.471 265.953Z" fill="white"/>
<path d="M394.718 266.197L392.789 266.116C391.422 266.035 390.296 264.814 390.296 263.348V261.313C390.296 259.848 391.422 258.627 392.789 258.708L394.718 258.79C396.085 258.79 397.291 260.092 397.291 261.558V263.593C397.211 265.058 396.085 266.279 394.718 266.197Z" fill="white"/>
<path d="M404.046 266.523L402.116 266.442C400.669 266.36 399.543 265.139 399.543 263.674V261.639C399.543 260.174 400.669 258.953 402.116 258.953L404.046 259.034C405.493 259.034 406.619 260.336 406.619 261.802V263.837C406.619 265.383 405.493 266.523 404.046 266.523Z" fill="white"/>
<path d="M413.534 266.767L411.604 266.686C410.157 266.604 409.031 265.383 409.031 263.837V261.802C409.031 260.255 410.157 259.115 411.604 259.115L413.534 259.197C414.981 259.197 416.107 260.499 416.107 262.046V264.081C416.107 265.628 414.981 266.849 413.534 266.767Z" fill="white"/>
<path d="M423.102 267.093L421.092 267.011C419.645 266.93 418.438 265.709 418.438 264.162V262.127C418.438 260.581 419.645 259.36 421.092 259.441L423.102 259.523C424.55 259.523 425.756 260.825 425.756 262.372V264.488C425.756 265.953 424.55 267.174 423.102 267.093Z" fill="#B0D7BF"/>
<path d="M432.831 267.418L430.82 267.337C429.373 267.256 428.167 266.035 428.167 264.488V262.372C428.167 260.825 429.373 259.604 430.82 259.685L432.831 259.767C434.278 259.767 435.484 261.069 435.484 262.616V264.732C435.484 266.197 434.278 267.418 432.831 267.418Z" fill="#B0D7BF"/>
<path d="M376.385 275.477L374.536 275.396C373.169 275.314 372.043 274.093 372.043 272.628V270.593C372.043 269.128 373.169 267.988 374.536 267.988L376.385 268.07C377.752 268.151 378.878 269.372 378.878 270.837V272.872C378.878 274.338 377.752 275.477 376.385 275.477Z" fill="white"/>
<path d="M385.471 275.803L383.622 275.721C382.255 275.64 381.129 274.419 381.129 272.954V270.919C381.129 269.453 382.255 268.232 383.622 268.314L385.471 268.395C386.838 268.476 387.964 269.697 387.964 271.163V273.198C387.964 274.663 386.838 275.884 385.471 275.803Z" fill="white"/>
<path d="M394.718 276.128L392.789 276.047C391.422 275.966 390.296 274.745 390.296 273.279V271.244C390.296 269.779 391.422 268.558 392.789 268.639L394.718 268.721C396.085 268.802 397.291 270.023 397.291 271.488V273.523C397.211 275.07 396.085 276.21 394.718 276.128Z" fill="white"/>
<path d="M404.046 276.536L402.116 276.454C400.669 276.373 399.543 275.152 399.543 273.605V271.57C399.543 270.105 400.669 268.884 402.116 268.965L404.046 269.047C405.493 269.128 406.619 270.349 406.619 271.896V273.931C406.619 275.396 405.493 276.536 404.046 276.536Z" fill="white"/>
<path d="M413.534 276.861L411.604 276.78C410.157 276.698 409.031 275.477 409.031 273.931V271.896C409.031 270.349 410.157 269.209 411.604 269.209L413.534 269.291C414.981 269.372 416.107 270.593 416.107 272.14V274.175C416.107 275.722 414.981 276.943 413.534 276.861Z" fill="white"/>
<path d="M423.102 277.268L421.092 277.186C419.645 277.105 418.438 275.884 418.438 274.337V272.302C418.438 270.756 419.645 269.616 421.092 269.616L423.102 269.697C424.55 269.779 425.756 271 425.756 272.546V274.663C425.756 276.128 424.55 277.268 423.102 277.268Z" fill="#B0D7BF"/>
<path d="M432.831 277.594L430.82 277.512C429.373 277.431 428.167 276.129 428.167 274.663V272.547C428.167 271 429.373 269.779 430.82 269.861L432.831 269.942C434.278 270.023 435.484 271.244 435.484 272.791V274.908C435.484 276.454 434.278 277.675 432.831 277.594Z" fill="#B0D7BF"/>
<path d="M376.385 285.246L374.536 285.164C373.169 285.083 372.043 283.862 372.043 282.396V280.361C372.043 278.896 373.169 277.757 374.536 277.757L376.385 277.838C377.752 277.919 378.878 279.14 378.878 280.606V282.641C378.878 284.187 377.752 285.327 376.385 285.246Z" fill="white"/>
<path d="M385.471 285.652L383.622 285.571C382.255 285.49 381.129 284.269 381.129 282.803V280.768C381.129 279.303 382.255 278.163 383.622 278.163L385.471 278.245C386.838 278.326 387.964 279.547 387.964 281.012V283.047C387.964 284.594 386.838 285.734 385.471 285.652Z" fill="white"/>
<path d="M394.718 286.141L392.789 286.059C391.422 285.978 390.296 284.757 390.296 283.21V281.175C390.296 279.71 391.422 278.489 392.789 278.57L394.718 278.652C396.085 278.733 397.291 279.954 397.291 281.501V283.536C397.211 285.001 396.085 286.141 394.718 286.141Z" fill="white"/>
<path d="M404.046 286.548L402.116 286.467C400.669 286.385 399.543 285.164 399.543 283.617V281.582C399.543 280.117 400.669 278.896 402.116 278.977L404.046 279.059C405.493 279.14 406.619 280.361 406.619 281.908V283.943C406.619 285.408 405.493 286.548 404.046 286.548Z" fill="white"/>
<path d="M413.534 286.955L411.604 286.873C410.157 286.792 409.031 285.49 409.031 284.024V281.989C409.031 280.443 410.157 279.303 411.604 279.384L413.534 279.466C414.981 279.547 416.107 280.768 416.107 282.315V284.35C416.107 285.815 414.981 287.036 413.534 286.955Z" fill="white"/>
<path d="M423.102 287.362L421.092 287.28C419.645 287.199 418.438 285.896 418.438 284.431V282.396C418.438 280.85 419.645 279.71 421.092 279.71L423.102 279.791C424.55 279.873 425.756 281.175 425.756 282.64V284.757C425.756 286.222 424.55 287.443 423.102 287.362Z" fill="#B0D7BF"/>
<path d="M432.831 287.85L430.82 287.769C429.373 287.687 428.167 286.385 428.167 284.838V282.722C428.167 281.175 429.373 279.954 430.82 280.036L432.831 280.117C434.278 280.198 435.484 281.501 435.484 283.047V285.164C435.484 286.711 434.278 287.85 432.831 287.85Z" fill="#B0D7BF"/>
<path d="M376.385 295.095L374.536 295.014C373.169 294.932 372.043 293.711 372.043 292.246V290.211C372.043 288.746 373.169 287.606 374.536 287.688L376.385 287.769C377.752 287.851 378.878 289.072 378.878 290.537V292.572C378.878 294.037 377.752 295.177 376.385 295.095Z" fill="white"/>
<path d="M385.471 295.583L383.622 295.502C382.255 295.421 381.129 294.199 381.129 292.653V290.618C381.129 289.153 382.255 288.013 383.622 288.013L385.471 288.094C386.838 288.176 387.964 289.397 387.964 290.943V292.978C387.964 294.525 386.838 295.665 385.471 295.583Z" fill="white"/>
<path d="M394.718 296.072L392.789 295.991C391.422 295.909 390.296 294.688 390.296 293.142V291.106C390.296 289.641 391.422 288.42 392.789 288.502L394.718 288.583C396.085 288.664 397.291 289.885 397.291 291.432V293.467C397.211 294.932 396.085 296.153 394.718 296.072Z" fill="white"/>
<path d="M404.046 296.561L402.116 296.479C400.669 296.398 399.543 295.095 399.543 293.63V291.595C399.543 290.13 400.669 288.909 402.116 288.99L404.046 289.072C405.493 289.153 406.619 290.455 406.619 291.921V293.956C406.619 295.421 405.493 296.642 404.046 296.561Z" fill="white"/>
<path d="M413.534 297.049L411.604 296.967C410.157 296.886 409.031 295.583 409.031 294.118V292.083C409.031 290.536 410.157 289.397 411.604 289.478L413.534 289.56C414.981 289.641 416.107 290.943 416.107 292.409V294.444C416.107 295.909 414.981 297.13 413.534 297.049Z" fill="white"/>
<path d="M423.102 297.537L421.092 297.456C419.645 297.374 418.438 296.072 418.438 294.525V292.49C418.438 290.944 419.645 289.804 421.092 289.885L423.102 289.967C424.55 290.048 425.756 291.351 425.756 292.897V295.014C425.756 296.398 424.55 297.619 423.102 297.537Z" fill="#B0D7BF"/>
<path d="M432.831 298.025L430.82 297.944C429.373 297.863 428.167 296.56 428.167 295.014V292.897C428.167 291.351 429.373 290.211 430.82 290.211L432.831 290.292C434.278 290.374 435.484 291.676 435.484 293.223V295.339C435.484 296.886 434.278 298.107 432.831 298.025Z" fill="#B0D7BF"/>
<path d="M376.385 304.945L374.536 304.863C373.169 304.782 372.043 303.561 372.043 302.014V299.979C372.043 298.514 373.169 297.374 374.536 297.456L376.385 297.537C377.752 297.618 378.878 298.839 378.878 300.386V302.421C378.878 303.886 377.752 305.026 376.385 304.945Z" fill="white"/>
<path d="M437.416 150.118L432.511 150.362C428.893 150.525 425.998 147.839 425.998 144.338V139.617C425.998 136.117 428.893 133.105 432.511 132.942L437.416 132.698C441.034 132.535 444.009 135.221 444.009 138.722V143.443C444.009 146.943 441.034 149.955 437.416 150.118Z" fill="white"/>
<path d="M462.985 148.979L457.919 149.223C454.221 149.386 451.165 146.618 451.165 143.118V138.315C451.165 134.733 454.14 131.721 457.919 131.477L462.985 131.233C466.764 130.989 469.82 133.756 469.82 137.338V142.222C469.82 145.804 466.764 148.816 462.985 148.979Z" fill="white"/>
<path d="M455.667 135.954V142.629L458.24 142.466V144.827L460.893 142.385L465.316 142.141V135.384L455.667 135.954Z" fill="#B0D7BF"/>
<path d="M437.979 146.13C434.762 146.211 430.822 142.304 430.822 138.966C430.822 138.396 431.305 137.745 431.707 137.42L432.43 136.931C432.591 136.85 432.752 136.768 432.832 136.768C433.074 136.768 433.395 136.85 433.556 137.094L434.843 138.885C435.084 139.21 435.003 139.78 434.682 140.024L433.958 140.594C434.119 140.838 434.441 141.327 435.003 141.815C435.566 142.385 436.049 142.629 436.29 142.792L436.853 141.978C437.094 141.652 437.657 141.49 437.979 141.734L439.908 142.955C440.31 143.199 440.391 143.687 440.15 144.094L439.748 144.827C439.426 145.397 438.541 146.048 437.979 146.13Z" fill="#B0D7BF"/>
<path opacity="0.47" d="M348.404 313.899C348.404 315.445 347.278 316.666 345.831 316.503C344.464 316.422 343.258 315.038 343.258 313.492C343.258 311.945 344.384 310.724 345.831 310.887C347.278 311.049 348.404 312.352 348.404 313.899Z" fill="#B0D7BF"/>
<path opacity="0.47" d="M339.156 313.247C339.156 314.794 338.03 315.934 336.664 315.852C335.297 315.771 334.171 314.387 334.171 312.84C334.171 311.294 335.297 310.154 336.664 310.236C338.03 310.398 339.156 311.701 339.156 313.247Z" fill="#B0D7BF"/>
<path opacity="0.47" d="M330.634 312.678C330.634 314.225 329.508 315.364 328.141 315.283C326.774 315.201 325.648 313.899 325.648 312.352C325.648 310.806 326.774 309.666 328.141 309.748C329.508 309.829 330.634 311.131 330.634 312.678Z" fill="#B0D7BF"/>
<path opacity="0.47" d="M322.191 312.108C322.191 313.655 321.065 314.794 319.778 314.713C318.412 314.632 317.366 313.329 317.366 311.783C317.366 310.236 318.492 309.096 319.778 309.178C321.065 309.259 322.191 310.562 322.191 312.108Z" fill="#B0D7BF"/>
<path opacity="0.47" d="M314.714 311.538C314.714 313.085 313.588 314.224 312.302 314.143C310.935 314.062 309.89 312.759 309.89 311.213C309.89 309.666 310.935 308.526 312.302 308.608C313.669 308.77 314.714 310.073 314.714 311.538Z" fill="#B0D7BF"/>
<g opacity="0.47">
<path opacity="0.47" d="M346.234 318.539C346.153 318.539 346.073 318.539 345.912 318.539C343.58 318.376 341.65 316.097 341.65 313.492C341.65 310.887 343.58 308.852 345.992 309.015C348.405 309.178 350.334 311.457 350.334 314.062C350.254 316.585 348.485 318.539 346.234 318.539ZM345.671 309.829C343.821 309.829 342.374 311.457 342.374 313.492C342.374 315.69 343.982 317.562 345.912 317.725C347.842 317.888 349.45 316.178 349.45 314.062C349.45 311.864 347.842 309.992 345.912 309.829C345.832 309.829 345.751 309.829 345.671 309.829Z" fill="#B0D7BF"/>
</g>
<path d="M350.012 283.699C349.53 279.629 344.384 257.162 330.795 256.755C320.02 256.429 314.472 271 311.577 271.326C308.683 271.57 306.512 264.244 302.25 265.139C297.908 266.034 296.863 273.116 293.647 275.07C290.43 277.024 288.259 275.233 282.631 274.582C278.53 274.093 275.153 277.919 273.625 279.954L350.012 283.699Z" fill="#B0D7BF"/>
<path d="M358.053 290.211L267.675 285.408V244.952H268.077L357.973 246.987V290.211H358.053ZM268.479 284.676L357.249 289.397V247.882L268.479 245.847V284.676Z" fill="#B0D7BF"/>
<path d="M318.331 147.188C302.25 148.083 289.545 163.305 289.465 181.295L318.331 180.562V147.188Z" fill="white"/>
<path d="M293.566 181.62C293.647 197.005 304.582 209.46 318.332 209.46V180.969L293.566 181.62Z" fill="#B0D7BF"/>
<path d="M339.961 179.992C339.881 166.805 330.312 156.549 318.733 156.874V180.481L339.961 179.992Z" fill="#B0D7BF"/>
<path d="M318.733 199.773C327.9 199.529 335.458 190.982 335.539 180.562L318.733 180.969V199.773Z" fill="white"/>
<path d="M279.414 215.077C279.173 215.077 279.012 214.914 279.012 214.67C279.012 214.426 279.173 214.263 279.414 214.263H280.862C281.103 214.263 281.264 214.426 281.264 214.67C281.264 214.914 281.103 215.077 280.862 215.077H279.414ZM286.41 215.077C286.168 215.077 286.008 214.914 286.008 214.67C286.008 214.426 286.168 214.263 286.41 214.263H287.857C288.098 214.263 288.259 214.426 288.259 214.67C288.259 214.914 288.098 215.077 287.857 215.077H286.41ZM293.486 215.077C293.244 215.077 293.083 214.914 293.083 214.67C293.083 214.426 293.244 214.263 293.486 214.263H294.933C295.174 214.263 295.335 214.426 295.335 214.67C295.335 214.914 295.174 215.077 294.933 215.077H293.486ZM300.481 215.077C300.24 215.077 300.079 214.914 300.079 214.67C300.079 214.426 300.24 214.263 300.481 214.263H301.928C302.17 214.263 302.33 214.426 302.33 214.67C302.33 214.914 302.17 215.077 301.928 215.077H300.481ZM307.476 215.077C307.235 215.077 307.074 214.914 307.074 214.67C307.074 214.426 307.235 214.263 307.476 214.263H308.924C309.165 214.263 309.326 214.426 309.326 214.67C309.326 214.914 309.165 215.077 308.924 215.077H307.476ZM314.552 215.077C314.311 215.077 314.15 214.914 314.15 214.67C314.15 214.426 314.311 214.263 314.552 214.263H316C316.241 214.263 316.402 214.426 316.402 214.67C316.402 214.914 316.241 215.077 316 215.077H314.552ZM321.548 215.077C321.307 215.077 321.146 214.914 321.146 214.67C321.146 214.426 321.307 214.263 321.548 214.263H322.995C323.236 214.263 323.397 214.426 323.397 214.67C323.397 214.914 323.236 215.077 322.995 215.077H321.548ZM328.543 215.077C328.302 215.077 328.141 214.914 328.141 214.67C328.141 214.426 328.302 214.263 328.543 214.263H329.991C330.232 214.263 330.393 214.426 330.393 214.67C330.393 214.914 330.232 215.077 329.991 215.077H328.543ZM335.619 215.077C335.378 215.077 335.217 214.914 335.217 214.67C335.217 214.426 335.378 214.263 335.619 214.263H337.066C337.308 214.263 337.468 214.426 337.468 214.67C337.468 214.914 337.308 215.077 337.066 215.077H335.619ZM342.615 215.077C342.373 215.077 342.213 214.914 342.213 214.67C342.213 214.426 342.373 214.263 342.615 214.263H344.062C344.303 214.263 344.464 214.426 344.464 214.67C344.464 214.914 344.303 215.077 344.062 215.077H342.615ZM349.61 215.077C349.369 215.077 349.208 214.914 349.208 214.67C349.208 214.426 349.369 214.263 349.61 214.263H351.057C351.299 214.263 351.459 214.426 351.459 214.67C351.459 214.914 351.299 215.077 351.057 215.077H349.61ZM353.148 212.554C352.907 212.554 352.746 212.391 352.746 212.147V210.681C352.746 210.437 352.907 210.274 353.148 210.274C353.389 210.274 353.55 210.437 353.55 210.681V212.147C353.55 212.391 353.389 212.554 353.148 212.554ZM277.404 210.6C277.163 210.6 277.002 210.437 277.002 210.193V208.728C277.002 208.484 277.163 208.321 277.404 208.321C277.645 208.321 277.806 208.484 277.806 208.728V210.193C277.806 210.356 277.645 210.6 277.404 210.6ZM353.148 205.472C352.907 205.472 352.746 205.309 352.746 205.065V203.6C352.746 203.355 352.907 203.193 353.148 203.193C353.389 203.193 353.55 203.355 353.55 203.6V205.065C353.55 205.309 353.389 205.472 353.148 205.472ZM277.404 203.437C277.163 203.437 277.002 203.274 277.002 203.03V201.564C277.002 201.32 277.163 201.157 277.404 201.157C277.645 201.157 277.806 201.32 277.806 201.564V203.03C277.806 203.274 277.645 203.437 277.404 203.437ZM353.148 198.308C352.907 198.308 352.746 198.146 352.746 197.901V196.436C352.746 196.192 352.907 196.029 353.148 196.029C353.389 196.029 353.55 196.192 353.55 196.436V197.901C353.55 198.146 353.389 198.308 353.148 198.308ZM277.404 196.355C277.163 196.355 277.002 196.192 277.002 195.948V194.482C277.002 194.238 277.163 194.075 277.404 194.075C277.645 194.075 277.806 194.238 277.806 194.482V195.948C277.806 196.192 277.645 196.355 277.404 196.355ZM353.148 191.226C352.907 191.226 352.746 191.064 352.746 190.819V189.354C352.746 189.11 352.907 188.947 353.148 188.947C353.389 188.947 353.55 189.11 353.55 189.354V190.819C353.55 191.064 353.389 191.226 353.148 191.226ZM277.404 189.273C277.163 189.273 277.002 189.11 277.002 188.866V187.401C277.002 187.156 277.163 186.994 277.404 186.994C277.645 186.994 277.806 187.156 277.806 187.401V188.866C277.806 189.029 277.645 189.273 277.404 189.273ZM353.148 184.144C352.907 184.144 352.746 183.982 352.746 183.737V182.272C352.746 182.028 352.907 181.865 353.148 181.865C353.389 181.865 353.55 182.028 353.55 182.272V183.737C353.55 183.9 353.389 184.144 353.148 184.144ZM277.404 182.109C277.163 182.109 277.002 181.947 277.002 181.702V180.237C277.002 179.993 277.163 179.83 277.404 179.83C277.645 179.83 277.806 179.993 277.806 180.237V181.702C277.806 181.947 277.645 182.109 277.404 182.109ZM353.148 176.981C352.907 176.981 352.746 176.818 352.746 176.574V175.109C352.746 174.865 352.907 174.702 353.148 174.702C353.389 174.702 353.55 174.865 353.55 175.109V176.574C353.55 176.818 353.389 176.981 353.148 176.981ZM277.404 175.027C277.163 175.027 277.002 174.865 277.002 174.62V173.155C277.002 172.911 277.163 172.748 277.404 172.748C277.645 172.748 277.806 172.911 277.806 173.155V174.62C277.806 174.865 277.645 175.027 277.404 175.027ZM353.148 169.899C352.907 169.899 352.746 169.736 352.746 169.492V168.027C352.746 167.783 352.907 167.62 353.148 167.62C353.389 167.62 353.55 167.783 353.55 168.027V169.492C353.55 169.736 353.389 169.899 353.148 169.899ZM277.404 167.864C277.163 167.864 277.002 167.701 277.002 167.457V165.992C277.002 165.748 277.163 165.585 277.404 165.585C277.645 165.585 277.806 165.748 277.806 165.992V167.457C277.806 167.701 277.645 167.864 277.404 167.864ZM353.148 162.817C352.907 162.817 352.746 162.654 352.746 162.41V160.945C352.746 160.701 352.907 160.538 353.148 160.538C353.389 160.538 353.55 160.701 353.55 160.945V162.41C353.55 162.573 353.389 162.817 353.148 162.817ZM277.404 160.782C277.163 160.782 277.002 160.619 277.002 160.375V158.91C277.002 158.666 277.163 158.503 277.404 158.503C277.645 158.503 277.806 158.666 277.806 158.91V160.375C277.806 160.619 277.645 160.782 277.404 160.782ZM353.148 155.654C352.907 155.654 352.746 155.491 352.746 155.247V153.782C352.746 153.537 352.907 153.374 353.148 153.374C353.389 153.374 353.55 153.537 353.55 153.782V155.247C353.55 155.491 353.389 155.654 353.148 155.654ZM277.404 153.7C277.163 153.7 277.002 153.537 277.002 153.293V151.828C277.002 151.584 277.163 151.421 277.404 151.421C277.645 151.421 277.806 151.584 277.806 151.828V153.293C277.806 153.456 277.645 153.7 277.404 153.7ZM353.148 148.572C352.907 148.572 352.746 148.409 352.746 148.165V146.7C352.746 146.455 352.907 146.293 353.148 146.293C353.389 146.293 353.55 146.455 353.55 146.7V148.165C353.55 148.409 353.389 148.572 353.148 148.572ZM277.404 146.537C277.163 146.537 277.002 146.374 277.002 146.13V145.397C277.002 145.071 277.082 144.827 277.163 144.502C277.243 144.257 277.484 144.176 277.645 144.257C277.886 144.339 277.967 144.583 277.886 144.746C277.806 144.99 277.806 145.153 277.806 145.397V146.13C277.806 146.374 277.645 146.537 277.404 146.537ZM282.389 143.443C282.148 143.443 281.987 143.281 281.987 143.036C281.987 142.792 282.148 142.629 282.389 142.629L283.837 142.548C284.078 142.548 284.239 142.711 284.239 142.955C284.239 143.199 284.078 143.362 283.837 143.362L282.389 143.443C282.47 143.443 282.389 143.443 282.389 143.443ZM289.465 143.036C289.224 143.036 289.063 142.874 289.063 142.629C289.063 142.385 289.224 142.222 289.465 142.222L290.912 142.141C291.154 142.141 291.315 142.304 291.315 142.548C291.315 142.792 291.154 142.955 290.912 142.955L289.465 143.036ZM296.461 142.629C296.219 142.629 296.059 142.467 296.059 142.222C296.059 141.978 296.219 141.815 296.461 141.815H297.908C298.149 141.815 298.31 141.978 298.31 142.222C298.31 142.467 298.149 142.629 297.908 142.629H296.461ZM303.456 142.304C303.215 142.304 303.054 142.141 303.054 141.897C303.054 141.653 303.215 141.49 303.456 141.49L304.903 141.408C305.145 141.408 305.305 141.571 305.305 141.815C305.305 142.06 305.145 142.222 304.903 142.222L303.456 142.304ZM310.452 141.897C310.21 141.897 310.049 141.734 310.049 141.49C310.049 141.246 310.21 141.083 310.452 141.083L311.899 141.001C312.14 141.001 312.301 141.164 312.301 141.408C312.301 141.653 312.14 141.815 311.899 141.815L310.452 141.897C310.532 141.897 310.452 141.897 310.452 141.897ZM317.527 141.49C317.286 141.49 317.125 141.327 317.125 141.083C317.125 140.839 317.286 140.676 317.527 140.676L318.975 140.594C319.216 140.594 319.377 140.757 319.377 141.001C319.377 141.246 319.216 141.408 318.975 141.408L317.527 141.49ZM353.148 141.49C352.987 141.49 352.826 141.327 352.746 141.164C352.666 140.757 352.505 140.35 352.183 140.106C352.022 139.943 352.022 139.699 352.183 139.536C352.344 139.373 352.585 139.373 352.746 139.536C353.148 139.943 353.47 140.432 353.55 141.001C353.55 141.164 353.47 141.408 353.148 141.49C353.228 141.408 353.148 141.49 353.148 141.49ZM324.523 141.164C324.282 141.164 324.121 141.001 324.121 140.757C324.121 140.513 324.282 140.35 324.523 140.35L325.97 140.269C326.211 140.269 326.372 140.432 326.372 140.676C326.372 140.92 326.211 141.083 325.97 141.083L324.523 141.164ZM331.518 140.757C331.277 140.757 331.116 140.594 331.116 140.35C331.116 140.106 331.277 139.943 331.518 139.943L332.966 139.862C333.207 139.862 333.368 140.025 333.368 140.269C333.368 140.513 333.207 140.676 332.966 140.676L331.518 140.757ZM338.514 140.35C338.273 140.35 338.112 140.187 338.112 139.943C338.112 139.699 338.273 139.536 338.514 139.536L339.961 139.455C340.202 139.455 340.363 139.618 340.363 139.862C340.363 140.106 340.202 140.269 339.961 140.269L338.514 140.35ZM345.59 140.025C345.348 140.025 345.188 139.862 345.188 139.618C345.188 139.373 345.348 139.211 345.59 139.211L347.037 139.129C347.278 139.129 347.439 139.292 347.439 139.536C347.439 139.78 347.278 139.943 347.037 139.943L345.59 140.025Z" fill="#B0D7BF"/>
<path d="M209.7 149.141L198.282 149.711V147.595L209.7 146.943V149.141Z" fill="#B0D7BF"/>
<path d="M209.7 154.84L198.282 155.328V151.095L209.7 150.526V154.84Z" fill="#B0D7BF"/>
<path d="M209.7 160.538L198.282 161.027V156.794L209.7 156.224V160.538Z" fill="#B0D7BF"/>
<path d="M246.286 147.025L215.49 148.653V144.013L246.286 142.222V147.025Z" fill="#E6F4E4"/>
<path d="M246.286 155.817L215.49 157.2V152.56L246.286 151.095V155.817Z" fill="#E6F4E4"/>
<path d="M246.286 164.608L215.49 165.829V161.189L246.286 159.887V164.608Z" fill="#E6F4E4"/>
<path d="M246.286 173.48L215.49 174.457V169.817L246.286 168.678V173.48Z" fill="#E6F4E4"/>
<path d="M246.286 182.272L215.49 183.005V178.365L246.286 177.469V182.272Z" fill="#E6F4E4"/>
<path d="M246.286 191.064L215.49 191.633V186.994L246.286 186.342V191.064Z" fill="#E6F4E4"/>
<path d="M246.286 199.855L215.49 200.262V195.622L246.286 195.134V199.855Z" fill="#E6F4E4"/>
<path d="M269.042 208.565L215.49 208.809V204.169L269.042 203.762V208.565Z" fill="#E6F4E4"/>
<path d="M269.042 217.519L215.49 217.437V212.797L269.042 212.716V217.519Z" fill="#E6F4E4"/>
<path d="M269.042 226.473L215.49 226.066V221.426L269.042 221.67V226.473Z" fill="#E6F4E4"/>
<path d="M269.042 235.509L215.49 234.613V229.973L269.042 230.625V235.509Z" fill="#E6F4E4"/>
<path d="M257.704 244.219L215.49 243.242V238.603L257.704 239.417V244.219Z" fill="#E6F4E4"/>
<path d="M257.704 253.092L215.49 251.871V247.231L257.704 248.289V253.092Z" fill="#E6F4E4"/>
<path d="M257.704 261.965L215.49 260.418V255.778L257.704 257.162V261.965Z" fill="#E6F4E4"/>
<path d="M257.704 270.837L215.49 269.046V264.406L257.704 266.034V270.837Z" fill="#E6F4E4"/>
<path d="M257.704 279.71L215.49 277.675V273.035L257.704 274.908V279.71Z" fill="#E6F4E4"/>
<path d="M257.704 288.665L215.49 286.223V281.583L257.704 283.862V288.665Z" fill="#E6F4E4"/>
<path d="M257.704 297.537L215.49 294.851V290.211L257.704 292.734V297.537Z" fill="#E6F4E4"/>
<path d="M257.704 306.411L215.49 303.48V298.84L257.704 301.608V306.411Z" fill="#E6F4E4"/>
<path d="M298.712 312.515L295.576 312.271C295.576 303.887 289.626 296.642 282.469 296.235C275.313 295.828 269.604 302.177 269.604 310.399L266.629 310.155C266.629 299.979 273.705 292.165 282.469 292.653C291.394 293.223 298.712 302.096 298.712 312.515Z" fill="#E6F4E4"/>
<path d="M269.604 310.399L266.629 310.155C266.629 303.073 270.167 296.723 275.715 294.037L277.002 297.293C272.499 299.491 269.604 304.619 269.604 310.399Z" fill="#B0D7BF"/>
<path d="M283.917 310.236C281.746 306.817 280.218 304.456 279.575 303.398C279.414 303.154 279.093 303.072 278.851 303.154C278.61 303.316 278.53 303.642 278.61 303.886C278.932 305.107 279.736 307.956 280.862 311.945C280.862 312.026 280.942 312.189 280.942 312.271C281.424 313.329 282.47 313.736 283.354 313.329C284.239 312.84 284.56 311.619 284.078 310.561C283.998 310.398 283.998 310.317 283.917 310.236ZM282.872 312.271C282.47 312.515 281.987 312.271 281.746 311.782C281.505 311.294 281.666 310.724 282.068 310.48C282.47 310.236 282.952 310.48 283.193 310.968C283.435 311.457 283.274 312.026 282.872 312.271Z" fill="#B0D7BF"/>
<path d="M341.892 150.526L335.298 150.851C335.218 150.851 335.218 150.933 335.218 150.933V154.189C335.218 154.27 335.298 154.27 335.298 154.27L337.791 154.189C337.791 154.189 337.871 154.189 337.871 154.27L338.434 155.41C338.434 155.491 338.595 155.491 338.595 155.41L339.158 154.189L339.238 154.107L341.731 154.026C341.811 154.026 341.811 153.945 341.811 153.945V150.688C342.052 150.526 341.972 150.526 341.892 150.526Z" fill="#B0D7BF"/>
<path d="M345.348 196.355L338.754 196.436C338.674 196.436 338.674 196.518 338.674 196.518V199.774C338.674 199.855 338.754 199.855 338.754 199.855H341.247C341.247 199.855 341.327 199.855 341.327 199.936L341.89 201.076C341.89 201.157 342.051 201.157 342.051 201.076L342.614 199.936L342.694 199.855H345.187C345.267 199.855 345.267 199.774 345.267 199.774V196.518C345.428 196.436 345.428 196.355 345.348 196.355Z" fill="white"/>
<path d="M287.294 193.587L281.263 193.668C281.183 193.668 281.183 193.749 281.183 193.749V196.924C281.183 197.006 281.263 197.006 281.263 197.006H283.595C283.595 197.006 283.675 197.006 283.675 197.087L284.238 198.227C284.238 198.308 284.399 198.308 284.399 198.227L284.962 197.087L285.042 197.006H287.374C287.454 197.006 287.454 196.924 287.454 196.924V193.749C287.454 193.668 287.374 193.587 287.294 193.587Z" fill="#B0D7BF"/>
<path d="M288.661 155.328L282.55 155.572C282.47 155.572 282.47 155.653 282.47 155.653V158.828C282.47 158.91 282.55 158.91 282.55 158.91L284.882 158.828C284.882 158.828 284.962 158.828 284.962 158.91L285.525 159.968C285.525 160.049 285.686 160.049 285.686 159.968L286.249 158.828L286.329 158.747L288.661 158.665C288.742 158.665 288.742 158.584 288.742 158.584V155.409C288.742 155.328 288.742 155.328 288.661 155.328Z" fill="white"/>
<path d="M269.041 199.611L248.617 199.855V142.141L269.041 141.001V199.611Z" fill="#E6F4E4"/>
<path d="M474.886 160.456L442.884 161.596V156.712L474.886 155.491V160.456Z" fill="#E6F4E4"/>
<path d="M474.886 168.516L442.884 169.492V164.608L474.886 163.55V168.516Z" fill="#E6F4E4"/>
<path d="M474.886 176.574L442.884 177.388V172.585L474.886 171.608V176.574Z" fill="#E6F4E4"/>
<path d="M474.886 184.714L442.884 185.365V180.481L474.886 179.748V184.714Z" fill="#E6F4E4"/>
<path d="M474.886 192.773L442.884 193.261V188.377L474.886 187.807V192.773Z" fill="#E6F4E4"/>
<path d="M474.886 200.832L442.884 201.157V196.355L474.886 195.948V200.832Z" fill="#E6F4E4"/>
<path d="M474.886 208.972L442.884 209.054V204.251L474.886 204.007V208.972Z" fill="#E6F4E4"/>
<path d="M474.886 217.031H442.884V212.147L474.886 212.065V217.031Z" fill="#E6F4E4"/>
<path d="M474.886 225.171L442.884 224.926V220.042L474.886 220.205V225.171Z" fill="#E6F4E4"/>
<path d="M474.886 233.23L442.884 232.823V228.02L474.886 228.264V233.23Z" fill="#E6F4E4"/>
<path d="M474.886 241.288L442.884 240.8V235.916L474.886 236.323V241.288Z" fill="#E6F4E4"/>
<path d="M474.886 249.428L442.884 248.696V243.812L474.886 244.463V249.428Z" fill="#E6F4E4"/>
<path d="M474.886 257.487L442.884 256.592V251.789L474.886 252.522V257.487Z" fill="#E6F4E4"/>
<path d="M474.886 265.546L442.884 264.488V259.685L474.886 260.58V265.546Z" fill="#E6F4E4"/>
<path d="M474.886 273.687L442.884 272.466V267.582L474.886 268.721V273.687Z" fill="#E6F4E4"/>
<path d="M474.886 281.746L442.884 280.362V275.478L474.886 276.78V281.746Z" fill="#E6F4E4"/>
<path d="M474.886 289.804L442.884 288.258V283.455L474.886 284.92V289.804Z" fill="#E6F4E4"/>
<path d="M474.886 297.944L442.884 296.235V291.351L474.886 292.979V297.944Z" fill="#E6F4E4"/>
<path d="M474.886 306.003L442.884 304.131V299.247L474.886 301.038V306.003Z" fill="#E6F4E4"/>
<path d="M474.886 314.143L442.884 312.026V307.142L474.886 309.177V314.143Z" fill="#E6F4E4"/>
<path d="M474.886 322.202L442.884 319.923V315.12L474.886 317.237V322.202Z" fill="#E6F4E4"/>
<path d="M474.886 330.261L442.884 327.9V323.016L474.886 325.295V330.261Z" fill="#E6F4E4"/>
<path d="M400.75 167.213V195.134L375.1 195.459C375.26 210.275 386.518 222.322 400.508 222.322C414.901 222.404 426.802 209.868 426.802 194.401C426.802 179.016 415.062 166.887 400.75 167.213Z" fill="white"/>
<path d="M375.1 195.134V195.216L400.508 194.89V167.213C386.357 167.702 375.1 180.156 375.1 195.134Z" fill="#B0D7BF"/>
<path d="M429.133 228.183H427.685C427.444 228.183 427.283 228.02 427.283 227.776C427.283 227.532 427.444 227.369 427.685 227.369H429.133C429.535 227.369 429.937 227.288 430.259 227.043C430.419 226.881 430.661 226.962 430.821 227.125C430.982 227.288 430.902 227.532 430.741 227.695C430.259 228.02 429.696 228.183 429.133 228.183ZM422.137 228.102H420.69C420.449 228.102 420.288 227.939 420.288 227.695C420.288 227.45 420.449 227.288 420.69 227.288H422.137C422.379 227.288 422.539 227.45 422.539 227.695C422.539 227.939 422.379 228.102 422.137 228.102ZM415.142 228.102H413.695C413.453 228.102 413.293 227.939 413.293 227.695C413.293 227.45 413.453 227.288 413.695 227.288H415.142C415.383 227.288 415.544 227.45 415.544 227.695C415.544 227.857 415.303 228.102 415.142 228.102ZM408.066 228.02H406.619C406.377 228.02 406.217 227.857 406.217 227.613C406.217 227.369 406.377 227.206 406.619 227.206H408.066C408.307 227.206 408.468 227.369 408.468 227.613C408.468 227.857 408.307 228.02 408.066 228.02ZM401.071 227.939H399.623C399.382 227.939 399.221 227.776 399.221 227.532C399.221 227.288 399.382 227.125 399.623 227.125H401.071C401.312 227.125 401.473 227.288 401.473 227.532C401.473 227.776 401.312 227.939 401.071 227.939ZM394.075 227.939H392.628C392.387 227.939 392.226 227.776 392.226 227.532C392.226 227.288 392.387 227.125 392.628 227.125H394.075C394.316 227.125 394.477 227.288 394.477 227.532C394.477 227.776 394.236 227.939 394.075 227.939ZM386.999 227.857H385.552C385.311 227.857 385.15 227.695 385.15 227.45C385.15 227.206 385.311 227.043 385.552 227.043H386.999C387.24 227.043 387.401 227.206 387.401 227.45C387.401 227.695 387.24 227.857 386.999 227.857ZM380.004 227.857H378.556C378.315 227.857 378.154 227.695 378.154 227.45C378.154 227.206 378.315 227.043 378.556 227.043H380.004C380.245 227.043 380.406 227.206 380.406 227.45C380.406 227.695 380.245 227.857 380.004 227.857ZM372.928 227.776H372.767C372.285 227.776 371.722 227.613 371.32 227.288C371.159 227.125 371.079 226.881 371.239 226.718C371.4 226.555 371.641 226.474 371.802 226.636C372.124 226.881 372.445 226.962 372.847 226.962H373.008C373.249 226.962 373.41 227.125 373.41 227.369C373.33 227.613 373.169 227.776 372.928 227.776ZM431.706 222.485C431.465 222.485 431.304 222.322 431.304 222.078V220.613C431.304 220.368 431.465 220.206 431.706 220.206C431.947 220.206 432.108 220.368 432.108 220.613V222.078C432.108 222.322 431.947 222.485 431.706 222.485ZM370.435 222.159C370.194 222.159 370.033 221.996 370.033 221.752V220.287C370.033 220.043 370.194 219.88 370.435 219.88C370.676 219.88 370.837 220.043 370.837 220.287V221.752C370.837 221.996 370.676 222.159 370.435 222.159ZM431.706 215.403C431.465 215.403 431.304 215.24 431.304 214.996V213.531C431.304 213.286 431.465 213.124 431.706 213.124C431.947 213.124 432.108 213.286 432.108 213.531V214.996C432.108 215.24 431.947 215.403 431.706 215.403ZM370.435 215.077C370.194 215.077 370.033 214.914 370.033 214.67V213.205C370.033 212.961 370.194 212.798 370.435 212.798C370.676 212.798 370.837 212.961 370.837 213.205V214.67C370.837 214.833 370.676 215.077 370.435 215.077ZM431.706 208.321C431.465 208.321 431.304 208.158 431.304 207.914V206.449C431.304 206.204 431.465 206.042 431.706 206.042C431.947 206.042 432.108 206.204 432.108 206.449V207.914C432.108 208.077 431.947 208.321 431.706 208.321ZM370.435 207.914C370.194 207.914 370.033 207.751 370.033 207.507V206.042C370.033 205.797 370.194 205.635 370.435 205.635C370.676 205.635 370.837 205.797 370.837 206.042V207.507C370.837 207.751 370.676 207.914 370.435 207.914ZM431.706 201.158C431.465 201.158 431.304 200.995 431.304 200.75V199.285C431.304 199.041 431.465 198.878 431.706 198.878C431.947 198.878 432.108 199.041 432.108 199.285V200.75C432.108 200.995 431.947 201.158 431.706 201.158ZM370.435 200.832C370.194 200.832 370.033 200.669 370.033 200.425V198.96C370.033 198.715 370.194 198.553 370.435 198.553C370.676 198.553 370.837 198.715 370.837 198.96V200.425C370.837 200.669 370.676 200.832 370.435 200.832ZM431.706 194.076C431.465 194.076 431.304 193.913 431.304 193.669V192.203C431.304 191.959 431.465 191.796 431.706 191.796C431.947 191.796 432.108 191.959 432.108 192.203V193.669C432.108 193.913 431.947 194.076 431.706 194.076ZM370.435 193.75C370.194 193.75 370.033 193.587 370.033 193.343V191.878C370.033 191.633 370.194 191.471 370.435 191.471C370.676 191.471 370.837 191.633 370.837 191.878V193.343C370.837 193.506 370.676 193.75 370.435 193.75ZM431.706 186.912C431.465 186.912 431.304 186.749 431.304 186.505V185.04C431.304 184.796 431.465 184.633 431.706 184.633C431.947 184.633 432.108 184.796 432.108 185.04V186.505C432.108 186.749 431.947 186.912 431.706 186.912ZM370.435 186.587C370.194 186.587 370.033 186.424 370.033 186.18V184.714C370.033 184.47 370.194 184.307 370.435 184.307C370.676 184.307 370.837 184.47 370.837 184.714V186.18C370.837 186.424 370.676 186.587 370.435 186.587ZM431.706 179.83C431.465 179.83 431.304 179.667 431.304 179.423V177.958C431.304 177.714 431.465 177.551 431.706 177.551C431.947 177.551 432.108 177.714 432.108 177.958V179.423C432.108 179.667 431.947 179.83 431.706 179.83ZM370.435 179.505C370.194 179.505 370.033 179.342 370.033 179.098V177.632C370.033 177.388 370.194 177.225 370.435 177.225C370.676 177.225 370.837 177.388 370.837 177.632V179.098C370.837 179.342 370.676 179.505 370.435 179.505ZM431.706 172.748C431.465 172.748 431.304 172.585 431.304 172.341V170.876C431.304 170.632 431.465 170.469 431.706 170.469C431.947 170.469 432.108 170.632 432.108 170.876V172.341C432.108 172.585 431.947 172.748 431.706 172.748ZM370.435 172.341C370.194 172.341 370.033 172.178 370.033 171.934V170.469C370.033 170.225 370.194 170.062 370.435 170.062C370.676 170.062 370.837 170.225 370.837 170.469V171.934C370.837 172.178 370.676 172.341 370.435 172.341ZM431.706 165.585C431.465 165.585 431.304 165.422 431.304 165.178V163.794C431.304 163.55 431.465 163.306 431.706 163.306C431.947 163.306 432.108 163.468 432.108 163.631C432.108 163.713 432.108 163.713 432.108 163.794V165.178C432.108 165.422 431.947 165.585 431.706 165.585ZM370.596 165.259C370.516 165.259 370.516 165.259 370.435 165.259C370.194 165.178 370.114 164.934 370.194 164.771C370.355 164.201 370.757 163.794 371.159 163.387C371.32 163.224 371.561 163.306 371.722 163.468C371.883 163.631 371.802 163.875 371.641 164.038C371.32 164.282 371.078 164.608 370.918 165.015C370.918 165.178 370.757 165.259 370.596 165.259ZM376.948 163.468C376.707 163.468 376.546 163.306 376.546 163.061C376.546 162.817 376.707 162.654 376.948 162.654L378.396 162.573C378.637 162.573 378.798 162.736 378.798 162.98C378.798 163.224 378.637 163.387 378.396 163.387L376.948 163.468ZM383.944 163.224C383.702 163.224 383.542 163.061 383.542 162.817C383.542 162.573 383.702 162.41 383.944 162.41L385.391 162.329C385.632 162.329 385.793 162.492 385.793 162.736C385.793 162.98 385.632 163.143 385.391 163.143L383.944 163.224ZM390.939 162.98C390.698 162.98 390.537 162.817 390.537 162.573C390.537 162.329 390.698 162.166 390.939 162.166L392.387 162.085C392.628 162.085 392.789 162.247 392.789 162.492C392.789 162.736 392.628 162.899 392.387 162.899L390.939 162.98ZM398.015 162.736C397.774 162.736 397.613 162.573 397.613 162.329C397.613 162.085 397.774 161.922 398.015 161.922L399.462 161.84C399.704 161.84 399.864 162.003 399.864 162.247C399.864 162.492 399.704 162.654 399.462 162.654L398.015 162.736ZM405.011 162.492C404.769 162.492 404.608 162.329 404.608 162.085C404.608 161.84 404.769 161.678 405.011 161.678L406.458 161.596C406.699 161.596 406.86 161.759 406.86 162.003C406.86 162.247 406.699 162.41 406.458 162.41L405.011 162.492ZM412.006 162.247C411.765 162.247 411.604 162.085 411.604 161.84C411.604 161.596 411.765 161.433 412.006 161.433L413.453 161.352C413.695 161.352 413.855 161.515 413.855 161.759C413.855 162.003 413.695 162.166 413.453 162.166L412.006 162.247ZM419.082 162.003C418.841 162.003 418.68 161.84 418.68 161.596C418.68 161.352 418.841 161.189 419.082 161.189L420.529 161.108C420.77 161.108 420.931 161.271 420.931 161.515C420.931 161.759 420.77 161.922 420.529 161.922L419.082 162.003ZM426.077 161.759C425.836 161.759 425.675 161.596 425.675 161.352C425.675 161.108 425.836 160.945 426.077 160.945L427.525 160.864C427.766 160.864 427.927 161.026 427.927 161.271C427.927 161.515 427.766 161.678 427.525 161.678L426.077 161.759Z" fill="#B0D7BF"/>
<path d="M110.235 257.65H98.0134C97.9329 257.65 97.8525 257.732 97.8525 257.813V263.348C97.8525 263.43 97.9329 263.511 98.0134 263.511H102.677C102.757 263.511 102.838 263.511 102.838 263.592L103.964 265.546C104.044 265.709 104.205 265.709 104.285 265.546L105.411 263.592C105.411 263.511 105.491 263.511 105.572 263.511H110.235C110.316 263.511 110.396 263.43 110.396 263.348V257.813C110.396 257.732 110.316 257.65 110.235 257.65Z" fill="#DEEAFF"/>
<path d="M130.981 235.997H118.759C118.679 235.997 118.599 236.079 118.599 236.16V241.695C118.599 241.777 118.679 241.858 118.759 241.858H123.423C123.503 241.858 123.584 241.858 123.584 241.94L124.71 243.893C124.79 244.056 124.951 244.056 125.031 243.893L126.157 241.94C126.157 241.858 126.237 241.858 126.318 241.858H130.981C131.062 241.858 131.142 241.777 131.142 241.695V236.16C131.142 236.079 131.062 235.997 130.981 235.997Z" fill="#DEEAFF"/>
<path d="M150.762 214.263H138.54C138.459 214.263 138.379 214.344 138.379 214.426V219.961C138.379 220.042 138.459 220.124 138.54 220.124H143.203C143.284 220.124 143.364 220.124 143.364 220.205L144.49 222.159C144.57 222.322 144.731 222.322 144.812 222.159L145.937 220.205C145.937 220.124 146.018 220.124 146.098 220.124H150.762C150.842 220.124 150.922 220.042 150.922 219.961V214.426C150.922 214.344 150.842 214.263 150.762 214.263Z" fill="#DEEAFF"/>
<path d="M170.703 193.832H158.481C158.401 193.832 158.32 193.913 158.32 193.994V199.53C158.32 199.611 158.401 199.692 158.481 199.692H163.145C163.225 199.692 163.306 199.692 163.306 199.774L164.431 201.728C164.512 201.89 164.673 201.89 164.753 201.728L165.879 199.774C165.879 199.692 165.959 199.692 166.039 199.692H170.703C170.783 199.692 170.864 199.611 170.864 199.53V193.994C170.864 193.913 170.783 193.832 170.703 193.832Z" fill="#DEEAFF"/>
<path d="M104.126 282.397C109.099 282.397 113.131 280.611 113.131 278.408C113.131 276.205 109.099 274.419 104.126 274.419C99.1521 274.419 95.1201 276.205 95.1201 278.408C95.1201 280.611 99.1521 282.397 104.126 282.397Z" fill="#F1FAEF"/>
<path d="M104.126 282.315C99.1405 282.315 95.1201 280.524 95.1201 278.326V296.56C95.1201 298.758 99.1405 300.549 104.126 300.549C109.111 300.549 113.131 298.758 113.131 296.56V278.326C113.131 280.606 109.111 282.315 104.126 282.315Z" fill="#E6F4E4"/>
<path d="M144.65 240.068C149.624 240.068 153.656 238.282 153.656 236.079C153.656 233.876 149.624 232.09 144.65 232.09C139.677 232.09 135.645 233.876 135.645 236.079C135.645 238.282 139.677 240.068 144.65 240.068Z" fill="#F1FAEF"/>
<path d="M144.65 240.067C139.665 240.067 135.645 238.276 135.645 236.079V272.628C135.645 274.826 139.665 276.617 144.65 276.617C149.635 276.617 153.656 274.826 153.656 272.628V236.079C153.656 238.276 149.635 240.067 144.65 240.067Z" fill="#E6F4E4"/>
<path d="M164.592 219.879C169.565 219.879 173.597 218.093 173.597 215.891C173.597 213.688 169.565 211.902 164.592 211.902C159.618 211.902 155.586 213.688 155.586 215.891C155.586 218.093 159.618 219.879 164.592 219.879Z" fill="#F1FAEF"/>
<path d="M164.592 219.88C159.606 219.88 155.586 218.089 155.586 215.891V261.557C155.586 263.755 159.606 265.546 164.592 265.546C169.577 265.546 173.597 263.755 173.597 261.557V215.891C173.597 218.089 169.577 219.88 164.592 219.88Z" fill="#E6F4E4"/>
<path d="M124.871 261.151C129.845 261.151 133.877 259.365 133.877 257.162C133.877 254.959 129.845 253.173 124.871 253.173C119.897 253.173 115.865 254.959 115.865 257.162C115.865 259.365 119.897 261.151 124.871 261.151Z" fill="#F1FAEF"/>
<path d="M124.871 261.069C119.886 261.069 115.865 259.278 115.865 257.08V284.431C115.865 286.629 119.886 288.42 124.871 288.42C129.856 288.42 133.877 286.71 133.877 284.513V257.161C133.877 259.359 129.856 261.069 124.871 261.069Z" fill="#E6F4E4"/>
<path opacity="0.3" d="M343.418 199.61C342.614 200.262 340.362 202.948 340.362 202.948C340.362 202.948 343.337 197.901 343.659 197.413C343.9 196.924 343.498 196.354 343.096 196.517C343.096 196.517 343.257 196.029 343.418 195.947C343.82 195.54 343.016 194.808 342.051 195.785C341.086 196.761 338.191 200.831 337.709 200.75C337.226 200.75 339.558 195.785 339.96 194.889C340.282 193.994 339.236 193.831 337.628 196.354C336.02 198.959 334.171 202.622 333.286 203.436C332.482 204.169 331.919 203.111 331.678 202.378C331.437 201.645 329.829 199.203 329.025 200.017C328.221 200.831 329.507 201.645 329.507 202.541C329.507 203.436 329.185 204.902 330.15 207.099C330.472 207.913 330.874 208.646 331.196 209.297C330.954 209.46 330.794 209.704 330.633 209.948L330.231 210.518C329.829 210.6 329.427 210.844 329.185 211.169C324.763 217.275 324.683 217.356 319.054 225.171C309.727 225.252 308.279 225.252 293.806 225.415C293.726 225.415 293.726 225.415 293.645 225.415C293.243 225.415 292.761 225.496 292.359 225.578C290.831 224.519 286.971 222.403 280.78 221.589C280.378 220.042 279.252 218.74 277.885 218.089C277.725 217.275 277.483 216.461 277.322 215.728C282.067 213.449 284.559 207.913 283.031 202.704L281.021 195.866C280.378 193.831 279.252 192.04 277.725 190.738L277.564 190.412L279.252 189.842V189.761C278.287 187.075 275.393 185.691 272.82 186.667L266.628 188.865L263.251 190.086C258.668 191.714 256.336 196.761 257.944 201.401L261.482 211.576C261.965 213.042 263.171 214.1 264.538 214.426C264.94 215.972 265.181 217.193 265.422 218.333C263.894 218.577 262.769 219.961 262.849 221.508L263.01 223.054C253.924 225.903 249.501 231.113 248.858 232.171C248.858 232.171 248.858 232.253 248.858 232.334C248.456 233.067 248.135 233.881 247.893 234.695C247.893 234.695 245.24 246.986 243.149 256.836C242.988 257.324 242.908 257.813 242.908 258.301C242.747 261.15 244.436 263.592 246.928 264.569C251.753 267.5 255.371 269.697 258.588 271.733C258.427 278.733 258.185 287.199 258.105 291.595C258.105 292.083 258.185 292.49 258.427 292.897C257.301 301.444 256.256 309.259 255.371 316.422L273.865 317.887C275.634 309.829 277.001 303.235 277.805 299.491C277.805 304.131 277.885 310.643 277.885 318.132L295.816 319.515C297.103 305.433 298.068 294.769 298.068 294.769L298.148 294.118L298.228 293.385C298.228 293.06 298.309 292.734 298.309 292.409C298.309 291.676 298.228 291.025 298.068 290.292C298.148 290.048 298.228 289.722 298.228 289.478C298.148 284.757 295.977 258.952 294.449 241.777C294.53 241.777 294.691 241.777 294.771 241.777C310.692 239.66 310.692 239.579 323.155 237.951C325.487 237.625 327.416 235.997 328.221 233.799C328.623 233.311 329.025 232.822 329.346 232.171C333.849 222.973 337.307 215.647 337.548 214.995C337.709 214.588 337.628 214.1 337.387 213.612C337.467 213.449 337.548 213.205 337.548 213.042C337.628 212.716 337.628 212.391 337.628 212.146C337.789 211.821 337.95 211.658 337.95 211.576C340.684 206.448 344.141 199.855 344.222 199.773C344.543 199.529 344.222 198.959 343.418 199.61ZM256.819 256.51C256.899 256.348 256.979 256.185 256.979 256.022C257.14 256.348 257.221 256.673 257.381 256.917C257.221 256.755 256.979 256.592 256.819 256.51Z" fill="#3D4F44"/>
<path d="M549.584 392.208C549.021 389.685 542.428 375.765 524.658 375.765C510.345 375.765 502.948 385.208 499.008 385.533C495.068 385.777 492.173 381.056 486.223 381.789C480.273 382.44 478.826 387.08 474.323 388.464C469.82 389.847 466.764 388.708 458.884 388.464C453.015 388.301 448.19 390.906 446.1 392.29H549.584V392.208Z" fill="#E6F4E4"/>
<path opacity="0.2" d="M299.194 407.104L355.158 409.221L375.903 390.417L332.724 389.033L299.194 407.104Z" fill="#DFF1DC"/>
<path d="M299.758 404.174L355.722 406.29L376.467 387.405L334.333 385.695L299.758 404.174Z" fill="#E6F4E4"/>
<path opacity="0.2" d="M268.881 414.675L324.925 416.791L345.59 397.906L302.411 396.604L268.881 414.675Z" fill="#C4E8BF"/>
<path d="M88.0439 366.037L207.128 370.555L251.272 330.42L161.616 326.598L88.0439 366.037Z" fill="#E6F4E4"/>
<path d="M264.779 397.255C289.514 397.255 309.566 392.408 309.566 386.428C309.566 380.449 289.514 375.602 264.779 375.602C240.044 375.602 219.992 380.449 219.992 386.428C219.992 392.408 240.044 397.255 264.779 397.255Z" fill="#E6F4E4"/>
<path d="M237.602 385.94V382.277C237.602 381.625 238.164 381.056 238.808 381.056H246.768L246.688 379.346C246.607 378.858 247.17 378.532 247.572 378.776L251.673 381.381C252.397 381.87 253.281 382.114 254.166 382.032L258.266 381.788C259.151 381.707 259.955 382.439 260.035 383.335L260.196 385.94H237.602Z" fill="#172B36"/>
<path d="M321.306 198.715C321.95 200.18 322.593 201.402 323.075 202.134C322.352 203.437 320.422 206.937 321.146 205.634L326.372 208.646C326.694 207.832 329.267 203.518 329.347 203.274C332.081 198.145 335.539 191.552 335.619 191.47C335.78 191.226 335.539 190.656 334.735 191.308C333.93 191.959 331.679 194.645 331.679 194.645C331.679 194.645 334.654 189.598 334.976 189.11C335.217 188.621 334.815 188.052 334.413 188.214C334.413 188.214 334.574 187.726 334.735 187.645C335.137 187.238 334.333 186.505 333.368 187.482C332.403 188.459 329.508 192.529 329.026 192.447C328.543 192.447 330.875 187.482 331.277 186.586C331.599 185.691 330.553 185.528 328.945 188.052C327.337 190.656 325.488 194.32 324.603 195.134C323.799 195.866 323.236 194.808 322.995 194.075C322.754 193.343 321.146 190.901 320.342 191.715C319.537 192.529 320.824 193.343 320.824 194.238C320.663 195.052 320.342 196.517 321.306 198.715Z" fill="url(#paint5_linear_673_6577)"/>
<path d="M327.015 380.893C335.764 380.893 342.855 379.18 342.855 377.067C342.855 374.954 335.764 373.241 327.015 373.241C318.267 373.241 311.175 374.954 311.175 377.067C311.175 379.18 318.267 380.893 327.015 380.893Z" fill="#E6F4E4"/>
<path d="M261.725 194.645C258.428 194.075 255.212 196.273 254.649 199.611C254.488 200.425 254.569 201.32 254.73 202.134C256.659 210.6 256.659 210.6 258.589 218.985C258.589 218.985 258.589 218.985 258.589 219.066C259.152 221.427 261.001 223.299 263.414 223.706C266.71 224.276 269.927 222.078 270.489 218.74C270.65 217.926 270.57 217.031 270.409 216.217C268.479 207.751 268.479 207.751 266.55 199.367C266.55 199.367 266.55 199.367 266.55 199.285C266.067 197.006 264.218 195.134 261.725 194.645Z" fill="url(#paint6_linear_673_6577)"/>
<path d="M266.871 207.995L266.63 208.076C260.921 209.867 254.89 206.53 253.121 200.75L251.111 193.913C249.342 188.133 252.639 182.028 258.348 180.237L258.589 180.156C264.298 178.365 270.329 181.702 272.098 187.482L274.108 194.32C275.877 200.099 272.58 206.286 266.871 207.995Z" fill="url(#paint7_linear_673_6577)"/>
<path d="M254.327 181.702L257.704 180.481L263.896 178.283C266.549 177.306 269.444 178.69 270.328 181.376V181.458L268.64 182.027L270.489 187.237C271.213 189.272 270.409 191.389 268.64 192.447L268.559 192.203C268.077 190.982 266.71 190.249 265.504 190.737H265.424C264.217 191.226 263.494 192.61 263.976 193.831L265.584 198.471C266.469 200.913 265.182 203.518 262.85 204.413L258.428 206.041C256.016 206.936 253.443 205.634 252.558 203.273L249.02 193.098C247.412 188.458 249.744 183.33 254.327 181.702Z" fill="#172B36"/>
<path d="M272.258 216.543L254.408 218.008L254.006 213.124C253.845 211.496 255.051 210.03 256.739 209.868L266.228 209.054C269.283 208.809 271.937 211.089 272.178 214.182L272.258 216.543Z" fill="url(#paint8_linear_673_6577)"/>
<path d="M272.982 384.882C271.293 384.149 270.167 382.358 270.408 380.404L274.992 345.646C275.313 343.367 277.404 341.739 279.655 341.983C281.907 342.308 283.515 344.425 283.274 346.704L278.69 381.463C278.369 383.742 276.278 385.37 274.027 385.126C273.625 385.126 273.303 384.963 272.982 384.882Z" fill="#0056EC"/>
<path d="M269.283 385.94V382.277C269.283 381.625 269.846 381.056 270.489 381.056H278.45L278.369 379.346C278.289 378.858 278.852 378.532 279.254 378.776L283.355 381.381C284.078 381.87 284.963 382.114 285.847 382.032L289.948 381.788C290.832 381.707 291.637 382.439 291.717 383.335L291.878 385.94H269.283Z" fill="#172B36"/>
<path d="M266.227 262.29C258.669 256.347 254.327 253.01 244.276 245.114C242.426 243.649 239.853 243.323 237.682 244.381C234.546 245.928 233.18 249.754 234.707 252.929C235.27 254.068 236.155 255.045 237.12 255.615C247.975 262.29 252.638 265.139 260.84 270.186C262.207 271 263.895 271.163 265.423 270.43C267.835 269.29 268.8 266.36 267.674 263.918C267.272 263.348 266.79 262.778 266.227 262.29Z" fill="#F2E3B5"/>
<path d="M254.488 231.113C254.81 230.299 254.971 229.485 255.051 228.59C255.292 224.031 251.835 220.206 247.413 219.961C243.392 219.717 239.935 222.566 239.05 226.392C239.05 226.392 236.316 239.009 234.145 248.941C234.065 249.266 233.984 249.592 233.984 249.999C233.824 253.58 236.477 256.592 240.015 256.755C242.829 256.918 245.322 255.208 246.287 252.685C246.287 252.685 246.287 252.685 246.287 252.604C246.287 252.604 246.287 252.604 246.287 252.522C249.905 243.242 249.905 243.161 254.488 231.113Z" fill="#F2E3B5"/>
<path d="M240.899 383.66C239.21 382.928 238.084 381.137 238.325 379.183L242.909 344.425C243.23 342.145 245.321 340.517 247.572 340.762C249.824 341.087 251.432 343.204 251.191 345.483L246.607 380.242C246.286 382.521 244.195 384.149 241.944 383.905C241.542 383.905 241.22 383.823 240.899 383.66Z" fill="#0056EC"/>
<path d="M280.62 380.567C281.022 376.009 289.304 286.548 289.304 286.548L289.384 285.897L289.465 285.164C289.465 284.838 289.545 284.513 289.545 284.187C289.545 278.489 284.962 273.768 279.253 273.768C273.625 273.768 268.961 278.408 268.961 284.106C268.961 284.106 269.363 377.23 269.363 380.73C269.202 384.23 280.218 385.126 280.62 380.567Z" fill="#1F8846"/>
<path d="M249.261 381.625C250.628 376.009 269.605 288.013 269.605 288.013L269.926 286.385C270.087 285.653 270.167 284.92 270.167 284.187C270.167 278.489 265.584 273.768 259.875 273.768C254.729 273.768 250.307 277.675 249.744 282.885L249.663 283.78C239.693 360.38 237.924 378.695 237.683 381.951C237.361 385.533 248.297 385.533 249.261 381.625Z" fill="#1F8846"/>
<path d="M314.473 224.764C311.498 224.113 309.648 221.101 310.292 218.089C310.452 217.356 310.774 216.624 311.257 216.054L311.819 215.24L321.71 201.564C322.674 200.18 324.283 199.611 325.81 199.936C327.981 200.425 329.268 202.622 328.785 204.739C328.705 205.065 328.625 205.309 328.464 205.634L328.142 206.286L320.986 220.938L320.584 221.752C319.539 224.113 317.046 225.334 314.473 224.764Z" fill="url(#paint9_linear_673_6577)"/>
<path d="M319.939 223.054C319.859 219.554 316.964 216.786 313.506 216.786C300.882 216.949 300.882 216.949 284.801 217.112C284.721 217.112 284.721 217.112 284.64 217.112C280.137 217.193 276.599 221.019 276.76 225.496C276.841 230.055 280.62 233.636 285.042 233.473C285.364 233.473 285.605 233.473 285.927 233.392C301.847 231.276 301.847 231.194 314.311 229.566C317.607 229.159 320.019 226.392 319.939 223.054Z" fill="#FFEEBD"/>
<path d="M328.864 206.693C329.909 204.251 321.868 200.262 320.341 202.786C315.838 208.972 315.838 208.972 309.888 217.275C309.405 217.926 309.003 218.74 308.842 219.636C308.038 223.136 310.209 226.555 313.586 227.369C316.481 228.02 319.456 226.555 320.662 223.95C325.085 214.752 328.542 207.426 328.864 206.693Z" fill="#FFEEBD"/>
<path d="M239.935 223.868C240.659 222.484 247.574 214.426 262.45 213.123C277.245 211.821 284.24 217.844 284.24 217.844C284.24 217.844 289.225 274.093 289.386 281.175C289.547 288.339 249.022 291.513 249.182 283.292C249.343 275.07 249.906 251.952 249.906 251.952C249.906 251.952 239.131 225.496 239.935 223.868Z" fill="#FFEEBD"/>
<path d="M184.774 302.014C184.774 302.014 184.694 302.014 184.774 302.014C184.533 302.014 184.452 301.852 184.452 301.689C184.855 298.921 183.488 295.502 183.488 295.502C183.407 295.339 183.488 295.177 183.648 295.095C183.809 295.014 183.97 295.095 184.05 295.258C184.131 295.421 185.498 298.84 185.096 301.77C185.015 301.933 184.935 302.014 184.774 302.014Z" fill="#B0D7BF"/>
<path d="M183.327 305.026C183.247 305.026 183.247 305.026 183.166 304.945C183.006 304.863 183.006 304.7 183.086 304.538C185.82 300.468 191.609 300.712 191.85 300.712C192.011 300.712 192.172 300.875 192.172 301.037C192.172 301.2 192.011 301.363 191.85 301.363C191.77 301.363 186.142 301.119 183.649 304.945C183.568 305.026 183.408 305.026 183.327 305.026Z" fill="#B0D7BF"/>
<path d="M446.742 304.375C446.421 304.375 440.471 299.084 440.471 299.084L442.079 292.979C442.079 292.979 447.145 295.014 447.305 297.13C447.627 299.247 448.994 304.456 446.742 304.375Z" fill="url(#paint10_linear_673_6577)"/>
<path d="M444.652 305.922H413.856C412.891 305.922 411.926 305.189 411.685 304.212L405.252 282.885C404.93 281.908 405.493 281.176 406.458 281.176H437.254C438.219 281.176 439.184 281.908 439.425 282.885L445.858 304.212C446.099 305.189 445.617 305.922 444.652 305.922Z" fill="#154326"/>
<path d="M413.534 305.107C413.051 305.107 412.569 304.7 412.408 304.212L405.975 282.885C405.815 282.396 406.056 281.989 406.538 281.989H437.334C437.817 281.989 438.299 282.396 438.46 282.885L444.893 304.212C445.054 304.7 444.812 305.107 444.33 305.107H413.534Z" fill="#B0D7BF"/>
<path d="M430.902 305.677H427.444C427.364 305.677 427.203 305.596 427.203 305.433C427.203 305.352 427.203 305.189 427.364 305.189H430.821C430.902 305.189 431.063 305.27 431.063 305.433C431.063 305.596 430.982 305.677 430.902 305.677Z" fill="#B0D7BF"/>
<path d="M416.268 297.13C414.419 297.13 412.409 295.583 411.846 293.711C411.524 292.734 411.685 291.758 412.168 291.106C412.65 290.455 413.454 290.048 414.339 290.048C416.188 290.048 418.198 291.595 418.761 293.467C419.083 294.444 418.922 295.421 418.439 296.072C418.037 296.723 417.233 297.13 416.268 297.13ZM414.419 290.781C413.776 290.781 413.213 291.025 412.891 291.513C412.57 292.002 412.489 292.653 412.65 293.386C413.133 294.932 414.741 296.235 416.349 296.235C416.992 296.235 417.555 295.99 417.877 295.502C418.198 295.014 418.279 294.362 418.118 293.63C417.555 292.083 415.947 290.781 414.419 290.781Z" fill="white"/>
<path d="M411.444 293.793C411.123 292.653 411.283 291.595 411.846 290.781C412.409 289.967 413.294 289.56 414.339 289.56V291.188C413.776 291.188 413.374 291.351 413.133 291.758C412.811 292.165 412.811 292.735 412.972 293.304L411.444 293.793Z" fill="#30AB5E"/>
<path d="M426.479 297.13C424.63 297.13 422.62 295.583 422.057 293.711C421.735 292.734 421.896 291.758 422.379 291.106C422.861 290.455 423.665 290.048 424.55 290.048C426.399 290.048 428.409 291.595 428.972 293.467C429.294 294.444 429.133 295.421 428.65 296.072C428.168 296.723 427.364 297.13 426.479 297.13ZM424.55 290.781C423.906 290.781 423.344 291.025 423.022 291.513C422.7 292.002 422.62 292.653 422.781 293.386C423.263 294.932 424.871 296.235 426.479 296.235C427.123 296.235 427.686 295.99 428.007 295.502C428.329 295.014 428.409 294.362 428.248 293.63C427.766 292.083 426.077 290.781 424.55 290.781Z" fill="white"/>
<path d="M421.655 293.793C421.334 292.653 421.494 291.595 422.057 290.781C422.62 289.967 423.504 289.56 424.55 289.56V291.188C423.987 291.188 423.585 291.351 423.344 291.758C423.022 292.165 423.022 292.735 423.183 293.304L421.655 293.793Z" fill="#30AB5E"/>
<path d="M436.611 297.13C434.762 297.13 432.752 295.583 432.189 293.711C431.867 292.734 432.028 291.758 432.51 291.106C432.993 290.455 433.797 290.048 434.681 290.048C436.531 290.048 438.541 291.595 439.104 293.467C439.426 294.444 439.265 295.421 438.782 296.072C438.3 296.723 437.496 297.13 436.611 297.13ZM434.681 290.781C434.038 290.781 433.475 291.025 433.154 291.513C432.832 292.002 432.752 292.653 432.912 293.386C433.395 294.932 435.003 296.235 436.611 296.235C437.255 296.235 437.817 295.99 438.139 295.502C438.461 295.014 438.541 294.362 438.38 293.63C437.898 292.083 436.209 290.781 434.681 290.781Z" fill="white"/>
<path d="M431.787 293.793C431.465 292.653 431.626 291.595 432.189 290.781C432.752 289.967 433.636 289.56 434.682 289.56V291.188C434.119 291.188 433.717 291.351 433.476 291.758C433.154 292.165 433.154 292.735 433.315 293.304L431.787 293.793Z" fill="#30AB5E"/>
<path opacity="0.5" d="M416.912 294.199H414.097L413.695 292.897H416.51L416.912 294.199Z" fill="white"/>
<path opacity="0.5" d="M427.123 294.199H424.308L423.906 292.897H426.721L427.123 294.199Z" fill="white"/>
<path opacity="0.5" d="M437.254 294.199H434.44L434.038 292.897H436.852L437.254 294.199Z" fill="white"/>
<path d="M457.115 306.735C455.185 305.596 453.416 304.456 451.808 303.317L449.959 301.607C449.959 301.607 447.788 294.444 447.225 293.792C446.662 293.141 441.838 291.269 441.838 291.269L442.561 293.792C441.677 293.385 440.551 292.734 440.471 292.734C440.23 292.653 439.023 293.711 440.39 294.688C441.757 295.665 443.768 296.723 443.768 296.723C443.768 296.723 445.295 302.991 446.18 304.7C446.582 305.514 451.326 311.213 456.954 316.748V306.735H457.115Z" fill="url(#paint11_linear_673_6577)"/>
<path d="M404.53 426.56C428.377 426.56 447.708 421.858 447.708 416.059C447.708 410.259 428.377 405.558 404.53 405.558C380.682 405.558 361.351 410.259 361.351 416.059C361.351 421.858 380.682 426.56 404.53 426.56Z" fill="#E6F4E4"/>
<path d="M472.15 428.839C486.361 428.839 497.881 426.032 497.881 422.571C497.881 419.109 486.361 416.303 472.15 416.303C457.94 416.303 446.42 419.109 446.42 422.571C446.42 426.032 457.94 428.839 472.15 428.839Z" fill="#E6F4E4"/>
<path d="M421.977 405.232C419.887 406.046 417.394 405.151 416.51 403.035C416.429 402.872 416.349 402.628 416.268 402.383L415.947 400.918L406.298 358.996L405.896 357.205C405.172 354.193 406.78 351.182 409.755 350.042C413.052 348.739 416.831 350.205 418.279 353.461C418.52 353.949 418.681 354.519 418.761 355.089L419.002 356.798L424.39 399.453L424.55 401C424.711 402.79 423.666 404.5 421.977 405.232Z" fill="url(#paint12_linear_673_6577)"/>
<path d="M425.837 399.046L425.435 396.522L419.887 398.15L419.404 400.186L417.796 398.72L412.811 400.104L412.73 410.849C412.73 411.663 412.328 412.396 411.605 412.803L407.102 415.733C406.619 416.059 406.378 416.629 406.539 417.117C406.7 417.687 407.343 418.094 407.986 418.013L417.474 416.71C418.198 416.629 418.841 416.222 419.243 415.652L423.103 410.035L424.952 415.082L427.606 414.349L428.651 403.36L425.837 399.046Z" fill="#154326"/>
<path d="M423.102 410.116L424.871 415.082L427.604 414.349L428.408 405.802L423.102 410.116Z" fill="url(#paint13_linear_673_6577)"/>
<path d="M423.666 387.649C423.264 384.474 419.485 352.158 419.485 352.158L419.405 351.425L419.244 350.367C419.163 349.634 419.003 348.983 418.681 348.413C417.475 345.564 414.661 343.773 411.525 343.773C410.479 343.773 409.514 343.936 408.55 344.343C405.012 345.727 403.082 349.39 403.966 352.972L404.368 354.925C404.368 354.925 411.042 383.986 412.409 389.359C413.776 394.731 423.988 390.824 423.666 387.649Z" fill="#154326"/>
<path d="M461.939 277.594C465.075 276.373 468.694 277.838 469.98 280.85C470.302 281.664 470.463 282.396 470.463 283.21C470.302 291.595 470.302 291.595 470.061 299.979C470.061 299.979 470.061 299.979 470.061 300.06C469.98 302.34 468.533 304.538 466.201 305.433C463.065 306.654 459.447 305.189 458.16 302.177C457.839 301.363 457.678 300.63 457.678 299.816C457.839 291.432 457.839 291.432 458.08 283.047C458.08 283.047 458.08 283.047 458.08 282.966C458.16 280.687 459.608 278.489 461.939 277.594Z" fill="url(#paint14_linear_673_6577)"/>
<path d="M459.287 286.792L459.528 286.874C465.156 288.176 470.785 284.839 472.152 279.385L473.76 272.954C475.127 267.5 471.589 262.046 465.961 260.744L465.719 260.662C460.091 259.36 454.462 262.697 453.095 268.151L451.487 274.582C450.12 280.036 453.658 285.49 459.287 286.792Z" fill="url(#paint15_linear_673_6577)"/>
<path d="M456.07 295.258L472.071 294.526L471.83 290.537C471.75 289.642 470.946 289.072 470.061 289.235L459.126 291.188C457.196 291.595 455.909 293.305 456.07 295.258Z" fill="url(#paint16_linear_673_6577)"/>
<path d="M387.402 409.302C385.07 409.302 383.221 407.511 383.221 405.314C383.221 405.069 383.221 404.907 383.301 404.581L383.542 403.116L391.261 360.787L391.583 358.996C392.146 355.984 394.799 353.786 397.935 353.786C401.554 353.786 404.448 356.635 404.448 360.054C404.448 360.624 404.368 361.194 404.207 361.764L403.725 363.392L391.744 404.744L391.261 406.29C390.94 408.081 389.251 409.302 387.402 409.302Z" fill="url(#paint17_linear_673_6577)"/>
<path d="M392.949 404.743L393.271 402.464L382.657 401.162L377.35 410.93C377.029 411.662 375.662 412.232 374.858 412.395L369.551 413.372C368.988 413.453 368.586 413.942 368.505 414.512C368.425 415.163 368.827 415.733 369.47 415.895L378.717 418.256C379.441 418.419 380.164 418.337 380.727 417.93L386.517 414.186L386.195 419.477L389.009 419.803L394.397 410.034L392.949 404.743Z" fill="#154326"/>
<path d="M386.518 414.268L386.196 419.559L389.011 419.884L393.192 412.233L386.518 414.268Z" fill="url(#paint18_linear_673_6577)"/>
<path d="M469.98 349.96V349.716C469.98 342.878 464.19 337.587 457.516 338.238L399.06 343.936H398.899C398.658 343.936 398.497 344.018 398.256 344.018H398.095C397.934 344.018 397.693 344.099 397.532 344.181L397.371 344.262C397.211 344.344 397.05 344.344 396.889 344.425L396.728 344.506C396.567 344.588 396.407 344.669 396.246 344.669L396.004 344.751C395.844 344.832 395.763 344.913 395.602 344.995C395.522 345.076 395.442 345.076 395.361 345.158C395.281 345.239 395.12 345.32 395.04 345.402C394.959 345.483 394.879 345.565 394.798 345.646C394.718 345.727 394.638 345.809 394.557 345.809C394.477 345.89 394.316 345.972 394.235 346.053L394.075 346.216C393.994 346.297 393.833 346.46 393.753 346.541L393.673 346.704C393.592 346.867 393.431 346.948 393.351 347.111L393.271 347.193C393.19 347.355 393.029 347.518 392.949 347.681C392.467 348.414 392.145 349.309 391.984 350.123L391.823 351.018C390.778 356.554 389.572 363.392 388.366 370.148C387.16 376.741 385.391 386.998 384.747 390.661C384.104 394.324 394.879 396.522 395.844 393.592C396.809 390.661 405.895 359.403 405.895 359.403L458.16 361.357C464.592 361.764 469.98 356.472 469.98 349.96Z" fill="#154326"/>
<path d="M469.738 352.647C467.567 358.182 433.877 343.53 436.932 339.866C440.952 334.982 443.928 331.482 443.928 331.482C443.928 331.482 441.837 301.526 443.606 299.41C446.34 296.072 455.265 294.77 464.592 293.712C472.392 292.898 475.447 296.072 476.251 297.863C478.181 302.259 468.452 338.157 468.452 338.157C468.452 338.157 470.945 349.472 469.738 352.647Z" fill="#30AB5E"/>
<path d="M433.958 323.097C431.546 321.306 421.173 312.678 417.313 309.015C416.188 307.712 415.464 306.736 415.384 306.736C415.223 306.491 415.544 304.375 415.464 303.886C415.384 303.317 415.303 300.956 415.223 300.712C415.142 300.468 412.971 297.456 412.73 297.13C412.489 296.804 411.524 296.804 411.765 297.944C412.087 299.084 412.811 300.386 412.408 300.386C412.006 300.386 410.72 299.247 410.559 299.084C410.398 298.921 410.398 294.2 410.398 293.793C410.398 293.386 409.273 292.49 409.031 293.386C408.79 294.281 408.308 298.595 408.308 298.595C408.308 298.595 406.78 301.363 407.021 301.933C407.102 302.014 407.182 302.34 407.182 302.34C407.182 302.34 406.86 302.828 406.86 303.154C406.86 303.479 407.182 304.049 407.182 304.049C407.182 304.049 407.102 305.107 407.182 305.352C407.262 305.596 410.398 309.829 411.765 311.05C411.765 311.05 427.364 338.075 434.762 333.273C438.782 330.424 436.611 325.132 433.958 323.097Z" fill="url(#paint19_linear_673_6577)"/>
<path d="M424.47 314.713C424.47 314.713 423.907 314.387 422.138 312.922C420.369 311.457 414.901 317.236 416.509 319.272C417.715 320.818 419.323 322.853 419.323 322.853L424.47 314.713Z" fill="url(#paint20_linear_673_6577)"/>
<path d="M455.186 303.317C455.186 299.816 452.211 296.967 448.593 296.967C446.02 296.967 443.849 298.351 442.723 300.386C438.22 308.689 435.165 314.387 431.868 320.411C429.536 318.62 425.757 315.69 424.873 315.038C422.702 313.492 416.751 320.085 418.52 322.446C419.646 323.993 424.068 329.121 425.757 330.749C427.285 332.214 428.812 333.354 430.34 334.005C431.064 334.412 431.948 334.575 432.833 334.575C432.833 334.575 432.833 334.575 432.913 334.575C434.682 334.575 436.29 333.68 437.255 332.296C442.884 323.83 447.065 317.562 454.221 306.817C454.784 305.759 455.186 304.619 455.186 303.317Z" fill="#30AB5E"/>
<path d="M485.339 307.55H453.659C452.05 307.55 450.603 308.608 450.121 310.154L434.763 359.972H408.711C407.424 359.972 406.379 361.031 406.379 362.333V362.414C406.379 363.717 407.424 364.775 408.711 364.775H433.235H471.429H472.635L488.797 312.515C489.601 309.992 487.832 307.55 485.339 307.55Z" fill="#F7EDE2"/>
<path d="M452.451 364.694H446.742V404.906H452.451V364.694Z" fill="#FFF5DC"/>
<path d="M453.98 364.694H445.376V371.124H453.98V364.694Z" fill="#F0DAA5"/>
<path d="M452.933 386.102H446.42V407.674H452.933V386.102Z" fill="#F7EDE2"/>
<path d="M421.655 417.768C421.655 419.804 423.263 421.35 425.193 421.35C427.123 421.35 428.731 419.722 428.731 417.768C428.731 415.815 427.123 414.187 425.193 414.187C423.263 414.187 421.655 415.815 421.655 417.768Z" fill="#172B36"/>
<path d="M423.344 417.768C423.344 418.827 424.148 419.641 425.193 419.641C426.238 419.641 427.042 418.827 427.042 417.768C427.042 416.71 426.238 415.896 425.193 415.896C424.228 415.896 423.344 416.71 423.344 417.768Z" fill="white"/>
<path d="M424.63 410.198H423.344V414.838H424.63V410.198Z" fill="#172B36"/>
<path d="M477.619 417.768C477.619 419.804 476.011 421.35 474.081 421.35C472.151 421.35 470.543 419.722 470.543 417.768C470.543 415.815 472.151 414.187 474.081 414.187C476.011 414.187 477.619 415.815 477.619 417.768Z" fill="#172B36"/>
<path d="M475.849 417.768C475.849 418.827 475.045 419.641 474 419.641C472.954 419.641 472.15 418.827 472.15 417.768C472.15 416.71 472.954 415.896 474 415.896C475.045 415.896 475.849 416.71 475.849 417.768Z" fill="white"/>
<path d="M475.93 410.198H474.644V414.838H475.93V410.198Z" fill="#172B36"/>
<path d="M448.513 418.908C450.467 418.908 452.051 417.304 452.051 415.326C452.051 413.348 450.467 411.744 448.513 411.744C446.559 411.744 444.975 413.348 444.975 415.326C444.975 417.304 446.559 418.908 448.513 418.908Z" fill="#172B36"/>
<path d="M450.362 415.326C450.362 416.384 449.558 417.198 448.512 417.198C447.467 417.198 446.663 416.384 446.663 415.326C446.663 414.268 447.467 413.454 448.512 413.454C449.558 413.454 450.362 414.268 450.362 415.326Z" fill="white"/>
<path d="M450.442 407.756H449.155V412.396H450.442V407.756Z" fill="#172B36"/>
<path d="M423.344 412.965L446.34 407.756V403.279L423.344 409.872V412.965Z" fill="#F7EDE2"/>
<path d="M476.012 412.965L452.935 407.756V403.279L476.012 409.872V412.965Z" fill="#F7EDE2"/>
<path d="M436.611 353.867L436.853 353.053H476.252L476.011 353.867H436.611ZM440.953 339.866L440.712 340.68H480.112L480.353 339.866H440.953ZM438.943 346.459L438.702 347.274H478.102L478.343 346.459H438.943ZM447.064 320.248L446.823 321.062H486.223L486.464 320.248H447.064ZM449.075 313.655L448.833 314.469H488.233L488.474 313.655H449.075ZM444.974 326.76L444.733 327.574H484.132L484.373 326.76H444.974ZM442.964 333.354L442.722 334.168H482.122L482.363 333.354H442.964Z" fill="#F0DAA5"/>
<path d="M476.251 274.256C476.171 274.256 476.171 274.256 476.091 274.256C476.171 273.442 476.251 272.71 476.332 271.977C476.975 264.976 473.598 261.476 469.176 260.255L468.13 259.93L467.969 259.848L464.271 258.79C463.788 258.546 463.306 258.301 462.823 258.139C459.285 257.162 455.587 259.115 454.461 262.534L458.883 263.755C457.918 265.953 457.918 270.756 461.215 272.71C461.376 272.628 461.617 272.628 461.778 272.628C463.065 272.628 464.19 273.686 464.19 275.07C464.19 276.128 463.547 277.024 462.582 277.35C462.984 278.245 467.165 308.201 476.412 308.201C485.659 308.201 493.217 300.63 493.217 291.188C492.976 281.827 485.498 274.256 476.251 274.256Z" fill="#154326"/>
<path d="M143.525 377.637L199.489 379.753L220.234 360.95L178.101 359.159L143.525 377.637Z" fill="#C4E8BF"/>
<defs>
<linearGradient id="paint0_linear_673_6577" x1="152.111" y1="158.46" x2="157.724" y2="155.231" gradientUnits="userSpaceOnUse">
<stop stop-color="#FA902F"/>
<stop offset="0.1685" stop-color="#F7A030"/>
<stop offset="0.4545" stop-color="#F3B530"/>
<stop offset="0.7347" stop-color="#F1C231"/>
<stop offset="1" stop-color="#F0C631"/>
</linearGradient>
<linearGradient id="paint1_linear_673_6577" x1="175.283" y1="146.656" x2="171.975" y2="141.044" gradientUnits="userSpaceOnUse">
<stop stop-color="#D0471E"/>
<stop offset="0.2198" stop-color="#D95E13"/>
<stop offset="0.4881" stop-color="#E17308"/>
<stop offset="0.751" stop-color="#E68002"/>
<stop offset="1" stop-color="#E88400"/>
</linearGradient>
<linearGradient id="paint2_linear_673_6577" x1="199.691" y1="129.201" x2="203.444" y2="129.201" gradientUnits="userSpaceOnUse">
<stop stop-color="#0056EC"/>
<stop offset="1" stop-color="#008BEC"/>
</linearGradient>
<linearGradient id="paint3_linear_673_6577" x1="205.541" y1="130.109" x2="209.675" y2="127.731" gradientUnits="userSpaceOnUse">
<stop stop-color="#FA902F"/>
<stop offset="0.1685" stop-color="#F7A030"/>
<stop offset="0.4545" stop-color="#F3B530"/>
<stop offset="0.7347" stop-color="#F1C231"/>
<stop offset="1" stop-color="#F0C631"/>
</linearGradient>
<linearGradient id="paint4_linear_673_6577" x1="212.196" y1="128.339" x2="216.025" y2="128.339" gradientUnits="userSpaceOnUse">
<stop stop-color="#0056EC"/>
<stop offset="1" stop-color="#008BEC"/>
</linearGradient>
<linearGradient id="paint5_linear_673_6577" x1="329.869" y1="187.284" x2="319.822" y2="207.741" gradientUnits="userSpaceOnUse">
<stop stop-color="#EEC9C8"/>
<stop offset="0.2498" stop-color="#EDC4C2"/>
<stop offset="0.5696" stop-color="#ECB4B3"/>
<stop offset="0.926" stop-color="#E99A98"/>
<stop offset="1" stop-color="#E89492"/>
</linearGradient>
<linearGradient id="paint6_linear_673_6577" x1="261.753" y1="196.78" x2="263.151" y2="216.863" gradientUnits="userSpaceOnUse">
<stop stop-color="#E85F5A"/>
<stop offset="1" stop-color="#EEC9C8"/>
</linearGradient>
<linearGradient id="paint7_linear_673_6577" x1="259.987" y1="194.492" x2="282.792" y2="191.486" gradientUnits="userSpaceOnUse">
<stop stop-color="#E89492"/>
<stop offset="0.0740336" stop-color="#E99A98"/>
<stop offset="0.4304" stop-color="#ECB4B3"/>
<stop offset="0.7502" stop-color="#EDC4C2"/>
<stop offset="1" stop-color="#EEC9C8"/>
</linearGradient>
<linearGradient id="paint8_linear_673_6577" x1="253.391" y1="220.858" x2="269.978" y2="209.429" gradientUnits="userSpaceOnUse">
<stop stop-color="#FA902F"/>
<stop offset="0.1685" stop-color="#F7A030"/>
<stop offset="0.4545" stop-color="#F3B530"/>
<stop offset="0.7347" stop-color="#F1C231"/>
<stop offset="1" stop-color="#F0C631"/>
</linearGradient>
<linearGradient id="paint9_linear_673_6577" x1="306.222" y1="220.829" x2="331.494" y2="206.29" gradientUnits="userSpaceOnUse">
<stop stop-color="#FA902F"/>
<stop offset="0.1685" stop-color="#F7A030"/>
<stop offset="0.4545" stop-color="#F3B530"/>
<stop offset="0.7347" stop-color="#F1C231"/>
<stop offset="1" stop-color="#F0C631"/>
</linearGradient>
<linearGradient id="paint10_linear_673_6577" x1="440.624" y1="298.897" x2="447.086" y2="298.599" gradientUnits="userSpaceOnUse">
<stop stop-color="#E85F5A"/>
<stop offset="1" stop-color="#EEC9C8"/>
</linearGradient>
<linearGradient id="paint11_linear_673_6577" x1="437.546" y1="283.312" x2="450.908" y2="303.962" gradientUnits="userSpaceOnUse">
<stop stop-color="#EEC9C8"/>
<stop offset="0.2498" stop-color="#EDC4C2"/>
<stop offset="0.5696" stop-color="#ECB4B3"/>
<stop offset="0.926" stop-color="#E99A98"/>
<stop offset="1" stop-color="#E89492"/>
</linearGradient>
<linearGradient id="paint12_linear_673_6577" x1="417.14" y1="388.939" x2="420.499" y2="410.97" gradientUnits="userSpaceOnUse">
<stop stop-color="#E89492"/>
<stop offset="0.0740336" stop-color="#E99A98"/>
<stop offset="0.4304" stop-color="#ECB4B3"/>
<stop offset="0.7502" stop-color="#EDC4C2"/>
<stop offset="1" stop-color="#EEC9C8"/>
</linearGradient>
<linearGradient id="paint13_linear_673_6577" x1="425.079" y1="410.39" x2="430.187" y2="410.528" gradientUnits="userSpaceOnUse">
<stop stop-color="#172B36"/>
<stop offset="1" stop-color="#325D75"/>
</linearGradient>
<linearGradient id="paint14_linear_673_6577" x1="463.858" y1="284.691" x2="464.612" y2="308.503" gradientUnits="userSpaceOnUse">
<stop stop-color="#E89492"/>
<stop offset="0.0740336" stop-color="#E99A98"/>
<stop offset="0.4304" stop-color="#ECB4B3"/>
<stop offset="0.7502" stop-color="#EDC4C2"/>
<stop offset="1" stop-color="#EEC9C8"/>
</linearGradient>
<linearGradient id="paint15_linear_673_6577" x1="464.989" y1="274.457" x2="444.429" y2="268.275" gradientUnits="userSpaceOnUse">
<stop stop-color="#E89492"/>
<stop offset="0.0740336" stop-color="#E99A98"/>
<stop offset="0.4304" stop-color="#ECB4B3"/>
<stop offset="0.7502" stop-color="#EDC4C2"/>
<stop offset="1" stop-color="#EEC9C8"/>
</linearGradient>
<linearGradient id="paint16_linear_673_6577" x1="456.062" y1="292.263" x2="472.077" y2="292.263" gradientUnits="userSpaceOnUse">
<stop stop-color="#FFF5DC"/>
<stop offset="0.3425" stop-color="#FFF6E0"/>
<stop offset="0.6721" stop-color="#FFF9EB"/>
<stop offset="0.9965" stop-color="white"/>
<stop offset="1" stop-color="white"/>
</linearGradient>
<linearGradient id="paint17_linear_673_6577" x1="395.291" y1="392.054" x2="398.455" y2="412.801" gradientUnits="userSpaceOnUse">
<stop stop-color="#E89492"/>
<stop offset="0.0740336" stop-color="#E99A98"/>
<stop offset="0.4304" stop-color="#ECB4B3"/>
<stop offset="0.7502" stop-color="#EDC4C2"/>
<stop offset="1" stop-color="#EEC9C8"/>
</linearGradient>
<linearGradient id="paint18_linear_673_6577" x1="388.902" y1="415.986" x2="395.497" y2="416.164" gradientUnits="userSpaceOnUse">
<stop stop-color="#172B36"/>
<stop offset="1" stop-color="#325D75"/>
</linearGradient>
<linearGradient id="paint19_linear_673_6577" x1="425.665" y1="313.69" x2="393.912" y2="311.679" gradientUnits="userSpaceOnUse">
<stop stop-color="#E89492"/>
<stop offset="0.0740336" stop-color="#E99A98"/>
<stop offset="0.4304" stop-color="#ECB4B3"/>
<stop offset="0.7502" stop-color="#EDC4C2"/>
<stop offset="1" stop-color="#EEC9C8"/>
</linearGradient>
<linearGradient id="paint20_linear_673_6577" x1="416.213" y1="317.802" x2="424.451" y2="317.802" gradientUnits="userSpaceOnUse">
<stop stop-color="#FFF5DC"/>
<stop offset="0.3425" stop-color="#FFF6E0"/>
<stop offset="0.6721" stop-color="#FFF9EB"/>
<stop offset="0.9965" stop-color="white"/>
<stop offset="1" stop-color="white"/>
</linearGradient>
</defs>
</svg>
