<svg width="484" height="315" viewBox="0 0 484 315" fill="none" xmlns="http://www.w3.org/2000/svg">
<path fill-rule="evenodd" clip-rule="evenodd" d="M381.402 293.301C335.148 322.502 274.394 304.846 223.763 306.859C179.091 308.635 208.558 311.192 173.255 297.978C139.423 297.978 74.443 340.66 17.2873 229.576C7.61693 195.862 -5.91989 171.78 8.37384 133.097C26.8729 83.0336 51.0675 52.5075 110.105 17.3308C169.282 -17.9295 196.082 34.7602 260.399 29.6776C318.883 25.056 314.749 36.6257 376.14 22.0086C446.302 -2.54811 474.367 52.4122 478.242 69.3823C482.014 85.8991 485.534 133.271 442.173 168.969C412.107 207.388 427.667 264.092 381.402 293.301Z" fill="#30AB5E"/>
<path d="M241.147 313.304C342.58 313.304 424.807 308.453 424.807 302.469C424.807 296.485 342.58 291.633 241.147 291.633C139.715 291.633 57.4873 296.485 57.4873 302.469C57.4873 308.453 139.715 313.304 241.147 313.304Z" fill="#0B7231"/>
<path d="M396.338 58.7163H188.146L186.536 60.1547L185.684 86.908L185.305 91.0313L184.452 100.812L183.789 108.579L183.41 112.894H134.725H132.736H130.273L128.663 114.333L121.369 216.36C121.18 219.045 123.074 221.154 125.727 221.154H174.412L174.791 216.551H174.507L175.454 205.524L176.117 197.757L176.685 191.62L177.348 183.853L177.917 177.62L178.58 169.949L178.864 166.88H232.285L231.338 177.62V177.716L228.023 216.455L227.928 218.086L227.833 218.661L227.644 221.058L279.55 222.497L281.16 221.25L282.486 205.428L283.149 197.661L284.854 177.62L285.517 169.949L285.801 166.88H339.223L340.644 150.004L341.212 143.771L341.875 136.1L342.538 128.333L343.864 112.702H392.834L395.77 114.141L397.38 112.702L401.453 64.182C401.643 61.6889 399.369 58.7163 396.338 58.7163Z" fill="#30AB5E"/>
<path d="M335.055 222.592H383.74C386.392 222.592 388.666 220.483 388.95 217.798L393.117 167.36L339.317 167.168L337.707 168.415L335.055 222.592Z" fill="#30AB5E"/>
<path d="M393.97 114.333L398.043 67.6345H185.967L181.895 114.333H131.22L122.127 220.196H172.802L177.253 168.415H230.675L226.223 220.196H279.739L284.191 168.415H337.612L333.161 220.196H384.877L389.329 168.415H337.612L342.254 114.333H393.97Z" fill="#30AB5E"/>
<path d="M393.97 114.333L398.043 67.6345H185.967L181.895 114.333H131.22L122.127 220.196H172.802L177.253 168.415H230.675L226.223 220.196H279.739L284.191 168.415H337.612L333.161 220.196H384.877L389.329 168.415H337.612L342.254 114.333H393.97Z" fill="white"/>
<path d="M254.26 123.825H146.659C145.617 123.825 144.765 122.962 144.86 121.908L145.239 118.072C145.333 117.017 146.281 116.154 147.322 116.154H254.923C255.965 116.154 256.817 117.017 256.723 118.072L256.344 121.908C256.249 122.962 255.302 123.825 254.26 123.825Z" fill="#30AB5E"/>
<path opacity="0.5" d="M254.26 123.825H146.659C145.617 123.825 144.765 122.962 144.86 121.908L145.239 118.072C145.333 117.017 146.281 116.154 147.322 116.154H254.923C255.965 116.154 256.817 117.017 256.723 118.072L256.344 121.908C256.249 122.962 255.302 123.825 254.26 123.825Z" fill="white"/>
<path d="M313.268 123.825H261.363C260.321 123.825 259.468 122.962 259.563 121.908L259.942 118.072C260.036 117.017 260.984 116.154 262.026 116.154H313.931C314.973 116.154 315.826 117.017 315.731 118.072L315.352 121.908C315.258 122.962 314.31 123.825 313.268 123.825Z" fill="#30AB5E"/>
<path opacity="0.5" d="M313.268 123.825H261.363C260.321 123.825 259.468 122.962 259.563 121.908L259.942 118.072C260.036 117.017 260.984 116.154 262.026 116.154H313.931C314.973 116.154 315.826 117.017 315.731 118.072L315.352 121.908C315.258 122.962 314.31 123.825 313.268 123.825Z" fill="white"/>
<path d="M253.03 137.73H145.429C144.387 137.73 143.535 136.867 143.629 135.812L144.008 131.976C144.103 130.922 145.05 130.059 146.092 130.059H253.693C254.734 130.059 255.587 130.922 255.492 131.976L255.113 135.812C255.019 136.867 254.071 137.73 253.03 137.73Z" fill="#30AB5E"/>
<path opacity="0.5" d="M253.03 137.73H145.429C144.387 137.73 143.535 136.867 143.629 135.812L144.008 131.976C144.103 130.922 145.05 130.059 146.092 130.059H253.693C254.734 130.059 255.587 130.922 255.492 131.976L255.113 135.812C255.019 136.867 254.071 137.73 253.03 137.73Z" fill="white"/>
<path d="M228.781 165.443H143.061C142.019 165.443 141.166 164.579 141.261 163.525L141.64 159.689C141.735 158.634 142.682 157.771 143.724 157.771H229.444C230.486 157.771 231.339 158.634 231.244 159.689L230.865 163.525C230.77 164.579 229.823 165.443 228.781 165.443Z" fill="#30AB5E"/>
<path d="M187.957 102.25H182.936L182.273 110.017H187.294C188.335 110.017 189.283 109.154 189.377 108.099L189.756 104.264C189.851 103.113 188.998 102.25 187.957 102.25Z" fill="#30AB5E"/>
<path d="M245.262 88.3462H184.168L183.505 96.1131H244.599C245.64 96.1131 246.588 95.2501 246.682 94.1953L247.061 90.3598C247.156 89.2092 246.398 88.3462 245.262 88.3462Z" fill="#30AB5E"/>
<path opacity="0.5" d="M245.262 88.3462H184.168L183.505 96.1131H244.599C245.64 96.1131 246.588 95.2501 246.682 94.1953L247.061 90.3598C247.156 89.2092 246.398 88.3462 245.262 88.3462Z" fill="white"/>
<path d="M339.791 143.771H144.954C143.912 143.771 142.965 144.634 142.87 145.688L142.491 149.524C142.397 150.579 143.154 151.442 144.291 151.442H339.128L339.791 143.771Z" fill="#30AB5E"/>
<path opacity="0.5" d="M339.791 143.771H144.954C143.912 143.771 142.965 144.634 142.87 145.688L142.491 149.524C142.397 150.579 143.154 151.442 144.291 151.442H339.128L339.791 143.771Z" fill="white"/>
<path d="M340.928 129.963H260.891C259.849 129.963 258.902 130.826 258.807 131.881L258.428 135.716C258.333 136.771 259.091 137.634 260.228 137.634H340.265L340.928 129.963Z" fill="#30AB5E"/>
<path d="M254.734 171.483H230.486L229.823 179.25H254.071C255.113 179.25 256.06 178.387 256.155 177.332L256.534 173.497C256.534 172.346 255.776 171.483 254.734 171.483Z" fill="#30AB5E"/>
<path d="M176.97 171.483H142.492C141.45 171.483 140.503 172.346 140.408 173.401L140.029 177.237C139.935 178.291 140.692 179.154 141.829 179.154H176.307L176.97 171.483Z" fill="#30AB5E"/>
<g opacity="0.5">
<path opacity="0.5" d="M254.734 171.483H230.486L229.823 179.25H254.071C255.113 179.25 256.06 178.387 256.155 177.332L256.534 173.497C256.534 172.346 255.776 171.483 254.734 171.483Z" fill="white"/>
<path opacity="0.5" d="M176.97 171.483H142.492C141.45 171.483 140.503 172.346 140.408 173.401L140.029 177.237C139.935 178.291 140.692 179.154 141.829 179.154H176.307L176.97 171.483Z" fill="white"/>
</g>
<path d="M175.832 185.387H141.354C140.313 185.387 139.365 186.25 139.271 187.305L138.892 191.141C138.797 192.195 139.555 193.058 140.691 193.058H175.169L175.832 185.387Z" fill="#30AB5E"/>
<path opacity="0.5" d="M175.832 185.387H141.354C140.313 185.387 139.365 186.25 139.271 187.305L138.892 191.141C138.797 192.195 139.555 193.058 140.691 193.058H175.169L175.832 185.387Z" fill="white"/>
<path d="M174.602 199.196H140.124C139.082 199.196 138.135 200.059 138.04 201.114L137.661 204.949C137.567 206.004 138.324 206.867 139.461 206.867H173.939L174.602 199.196Z" fill="#30AB5E"/>
<path d="M235.696 199.196H228.023L227.36 206.963H235.033C236.075 206.963 237.022 206.1 237.116 205.045L237.495 201.209C237.59 200.059 236.738 199.196 235.696 199.196Z" fill="#30AB5E"/>
<g opacity="0.5">
<path opacity="0.5" d="M174.602 199.196H140.124C139.082 199.196 138.135 200.059 138.04 201.114L137.661 204.949C137.567 206.004 138.324 206.867 139.461 206.867H173.939L174.602 199.196Z" fill="white"/>
<path opacity="0.5" d="M235.696 199.196H228.023L227.36 206.963H235.033C236.075 206.963 237.022 206.1 237.116 205.045L237.495 201.209C237.59 200.059 236.738 199.196 235.696 199.196Z" fill="white"/>
</g>
<path d="M400.032 65.045C400.222 62.3601 398.327 60.2505 395.675 60.2505H186.631L185.494 73.771H391.697C393.402 73.771 394.728 75.2093 394.539 76.9354L391.318 114.332H395.865L400.032 65.045Z" fill="#30AB5E"/>
<path opacity="0.3" d="M400.032 65.045C400.222 62.3601 398.327 60.2505 395.675 60.2505H186.631L185.494 73.771H391.697C393.402 73.771 394.728 75.2093 394.539 76.9354L391.318 114.332H395.865L400.032 65.045Z" fill="white"/>
<path d="M386.582 168.415L382.603 214.825C382.414 216.551 380.898 217.99 379.194 217.99H333.35L332.971 222.592H381.656C384.308 222.592 386.582 220.483 386.866 217.798L391.128 168.51H386.582V168.415Z" fill="#30AB5E"/>
<path opacity="0.3" d="M386.582 168.415L382.603 214.825C382.414 216.551 380.898 217.99 379.194 217.99H333.35L332.971 222.592H381.656C384.308 222.592 386.582 220.483 386.866 217.798L391.128 168.51H386.582V168.415Z" fill="white"/>
<path d="M133.209 114.333L124.495 214.826C124.306 216.552 125.632 217.99 127.337 217.99H173.181L172.802 222.593H124.116C121.464 222.593 119.57 220.483 119.759 217.798L128.663 114.333H133.209Z" fill="#30AB5E"/>
<path opacity="0.3" d="M133.209 114.333L124.495 214.826C124.306 216.552 125.632 217.99 127.337 217.99H173.181L172.802 222.593H124.116C121.464 222.593 119.57 220.483 119.759 217.798L128.663 114.333H133.209Z" fill="white"/>
<path d="M279.833 217.99H226.412L226.033 222.593H279.455L279.833 217.99Z" fill="#30AB5E"/>
<path opacity="0.3" d="M279.833 217.99H226.412L226.033 222.593H279.455L279.833 217.99Z" fill="white"/>
<path d="M281.54 199.196H242.989C241.947 199.196 241 200.059 240.905 201.114L240.527 204.949C240.432 206.004 241.19 206.867 242.326 206.867H280.877L281.54 199.196Z" fill="#30AB5E"/>
<path d="M338.466 199.196H334.961L334.298 206.963H337.802C338.844 206.963 339.792 206.1 339.886 205.045L340.265 201.209C340.36 200.059 339.602 199.196 338.466 199.196Z" fill="#30AB5E"/>
<path d="M283.906 171.483H261.932C260.89 171.483 259.943 172.346 259.848 173.401L259.469 177.236C259.374 178.291 260.132 179.154 261.269 179.154H283.243L283.906 171.483Z" fill="#30AB5E"/>
<path d="M404.296 81.4408C404.012 81.4408 403.823 81.1531 403.823 80.9613L405.528 60.8244C405.622 59.386 405.243 58.0435 404.296 56.9887C403.349 55.934 402.118 55.4545 400.697 55.4545H384.595C384.311 55.4545 384.121 55.2627 384.121 54.9751C384.121 54.6874 384.311 54.4956 384.595 54.4956H400.697C402.402 54.4956 403.917 55.1668 405.054 56.4134C406.191 57.66 406.664 59.2901 406.569 61.0161L404.865 81.1531C404.77 81.249 404.58 81.4408 404.296 81.4408Z" fill="#30AB5E"/>
<path d="M380.995 55.36H376.922C376.638 55.36 376.448 55.1683 376.448 54.8807C376.448 54.5931 376.638 54.4014 376.922 54.4014H380.995C381.279 54.4014 381.468 54.5931 381.468 54.8807C381.468 55.1683 381.279 55.36 380.995 55.36Z" fill="#30AB5E"/>
<path d="M280.403 231.414H274.341C274.057 231.414 273.867 231.222 273.867 230.935C273.867 230.647 274.057 230.455 274.341 230.455H280.403C280.687 230.455 280.876 230.647 280.876 230.935C280.876 231.222 280.592 231.414 280.403 231.414Z" fill="#30AB5E"/>
<path d="M269.225 231.414H225.56C225.275 231.414 225.086 231.222 225.086 230.935C225.086 230.647 225.275 230.455 225.56 230.455H269.225C269.509 230.455 269.699 230.647 269.699 230.935C269.699 231.222 269.509 231.414 269.225 231.414Z" fill="#30AB5E"/>
<path d="M242.517 69.1683C242.138 68.9765 241.854 68.6888 241.664 68.2094C241.475 67.8258 241.38 67.3463 241.475 66.8669C241.475 66.3874 241.664 65.908 241.948 65.5244C242.232 65.1409 242.517 64.8532 242.99 64.5655C243.369 64.3737 243.843 64.2778 244.316 64.2778C244.79 64.2778 245.263 64.3737 245.642 64.5655C246.021 64.7573 246.305 65.045 246.495 65.4285C246.684 65.8121 246.779 66.2915 246.684 66.771C246.684 67.2504 246.495 67.7299 246.211 68.1135C245.926 68.497 245.642 68.7847 245.169 68.9765C244.79 69.1683 244.316 69.2642 243.843 69.2642C243.369 69.4559 242.895 69.3601 242.517 69.1683ZM244.885 68.5929C245.169 68.4011 245.453 68.2094 245.642 67.9217C245.832 67.634 245.926 67.3463 246.021 66.9628C246.021 66.5792 246.021 66.2915 245.832 66.0039C245.737 65.7162 245.453 65.5244 245.169 65.3326C244.885 65.1408 244.6 65.045 244.221 65.045C243.843 65.045 243.558 65.1408 243.18 65.3326C242.895 65.5244 242.611 65.7162 242.422 66.0039C242.232 66.2915 242.138 66.5792 242.043 66.9628C242.043 67.3463 242.043 67.634 242.232 67.9217C242.327 68.2094 242.611 68.4011 242.895 68.5929C243.18 68.7847 243.464 68.8806 243.843 68.8806C244.222 68.8806 244.6 68.7847 244.885 68.5929Z" fill="white"/>
<path d="M250.661 65.9079C250.945 66.0997 251.134 66.2915 251.229 66.5792C251.324 66.8668 251.419 67.1545 251.419 67.5381C251.419 67.9216 251.229 68.2093 251.134 68.497C250.945 68.7847 250.661 68.9764 250.377 69.1682C250.093 69.36 249.714 69.4559 249.43 69.4559C249.145 69.4559 248.956 69.36 248.672 69.2641C248.482 69.1682 248.293 68.9764 248.103 68.7847L247.914 70.7025H247.346L247.819 65.5244H248.482L248.388 66.0997C248.577 65.9079 248.766 65.7161 248.956 65.6203C249.24 65.5244 249.43 65.4285 249.714 65.4285C250.093 65.6202 250.377 65.7161 250.661 65.9079ZM250.093 68.6888C250.282 68.5929 250.471 68.4011 250.566 68.2093C250.661 68.0175 250.756 67.7299 250.756 67.5381C250.756 67.2504 250.756 67.0586 250.661 66.8668C250.566 66.675 250.471 66.4833 250.282 66.3874C250.093 66.2915 249.903 66.1956 249.619 66.1956C249.43 66.1956 249.145 66.2915 248.956 66.3874C248.766 66.4833 248.577 66.675 248.482 66.8668C248.388 67.0586 248.293 67.2504 248.293 67.5381C248.293 67.8257 248.293 68.0175 248.388 68.2093C248.482 68.4011 248.577 68.5929 248.766 68.6888C248.956 68.7847 249.145 68.8805 249.43 68.8805C249.619 68.8805 249.808 68.8805 250.093 68.6888Z" fill="white"/>
<path d="M255.682 67.8254H252.651C252.651 68.113 252.746 68.4007 253.03 68.5925C253.22 68.7843 253.599 68.8802 253.883 68.8802C254.356 68.8802 254.735 68.6884 255.019 68.4007L255.398 68.8802C255.209 69.0719 255.019 69.2637 254.735 69.3596C254.451 69.4555 254.167 69.5514 253.883 69.5514C253.504 69.5514 253.125 69.4555 252.841 69.2637C252.557 69.0719 252.367 68.8802 252.178 68.5925C252.083 68.3048 251.988 67.9213 251.988 67.6336C251.988 67.25 252.083 66.9624 252.272 66.6747C252.462 66.387 252.746 66.1953 253.03 66.0035C253.314 65.8117 253.693 65.7158 253.977 65.7158C254.356 65.7158 254.64 65.8117 254.925 66.0035C255.209 66.1953 255.398 66.387 255.493 66.6747C255.588 66.9624 255.682 67.3459 255.682 67.7295C255.777 67.6336 255.682 67.7295 255.682 67.8254ZM253.22 66.4829C253.03 66.6747 252.841 66.9624 252.746 67.25H255.114C255.114 66.9624 255.019 66.6747 254.83 66.4829C254.64 66.2912 254.356 66.1953 254.072 66.1953C253.693 66.1953 253.409 66.2912 253.22 66.4829Z" fill="white"/>
<path d="M259.945 66.1001C260.229 66.3877 260.324 66.7713 260.229 67.3466L260.04 69.5521H259.377L259.566 67.4425C259.566 67.059 259.566 66.7713 259.377 66.5795C259.187 66.3877 258.998 66.2918 258.619 66.2918C258.24 66.2918 257.956 66.3877 257.767 66.5795C257.577 66.7713 257.388 67.059 257.388 67.5384L257.198 69.4562H256.535L256.819 65.7165H257.482L257.388 66.2918C257.577 66.1001 257.767 65.9083 257.956 65.8124C258.24 65.7165 258.43 65.6206 258.714 65.6206C259.282 65.6206 259.661 65.8124 259.945 66.1001Z" fill="white"/>
<path d="M263.637 69.3597C263.258 69.2638 263.068 69.072 262.879 68.8803L263.163 68.3049C263.353 68.4967 263.542 68.5926 263.826 68.6885C264.11 68.7844 264.394 68.8803 264.679 68.8803C265.057 68.8803 265.436 68.7844 265.626 68.6885C265.815 68.5926 265.91 68.4008 266.005 68.1132C266.005 67.9214 266.005 67.8255 265.91 67.7296C265.815 67.6337 265.72 67.5378 265.531 67.442C265.342 67.3461 265.152 67.3461 264.868 67.2502C264.489 67.1543 264.205 67.0584 264.016 66.9625C263.826 66.8666 263.637 66.7708 263.447 66.579C263.258 66.3872 263.258 66.0995 263.258 65.8119C263.258 65.5242 263.353 65.3325 263.542 65.1407C263.731 64.9489 263.921 64.7571 264.205 64.6613C264.489 64.5654 264.868 64.4695 265.247 64.4695C265.531 64.4695 265.815 64.4695 266.099 64.5654C266.384 64.6613 266.573 64.7571 266.762 64.853L266.478 65.4283C266.289 65.3325 266.099 65.2366 265.815 65.1407C265.626 65.0448 265.342 65.0448 265.152 65.0448C264.773 65.0448 264.489 65.1407 264.205 65.2366C264.016 65.4283 263.921 65.6201 263.826 65.8119C263.826 66.0037 263.826 66.0996 263.921 66.1954C264.016 66.2913 264.11 66.3872 264.3 66.4831C264.489 66.579 264.679 66.579 264.963 66.6749C265.342 66.7708 265.626 66.8666 265.815 66.9625C266.005 67.0584 266.194 67.1543 266.384 67.3461C266.573 67.5378 266.573 67.8255 266.573 68.1132C266.573 68.4008 266.478 68.5926 266.289 68.7844C266.099 68.9761 265.91 69.1679 265.626 69.2638C265.342 69.3597 264.963 69.4556 264.584 69.4556C264.3 69.4556 264.016 69.4556 263.637 69.3597Z" fill="white"/>
<path d="M268.185 69.2637C267.901 69.0719 267.712 68.8802 267.522 68.5925C267.428 68.3048 267.333 68.0172 267.333 67.6336C267.333 67.25 267.522 66.9624 267.712 66.6747C267.901 66.387 268.185 66.1953 268.47 66.0035C268.754 65.8117 269.133 65.7158 269.512 65.7158C269.89 65.7158 270.175 65.8117 270.459 66.0035C270.743 66.1953 270.932 66.387 271.122 66.6747C271.216 66.9624 271.311 67.25 271.311 67.6336C271.311 68.0172 271.122 68.3048 270.932 68.5925C270.743 68.8802 270.459 69.0719 270.175 69.2637C269.89 69.4555 269.512 69.5514 269.133 69.5514C268.754 69.5514 268.47 69.3596 268.185 69.2637ZM269.796 68.6884C269.985 68.5925 270.175 68.4007 270.269 68.2089C270.364 68.0172 270.459 67.7295 270.459 67.5377C270.459 67.25 270.459 67.0583 270.364 66.8665C270.269 66.6747 270.175 66.4829 269.985 66.387C269.796 66.2912 269.606 66.1953 269.322 66.1953C269.038 66.1953 268.849 66.2912 268.659 66.387C268.47 66.4829 268.28 66.6747 268.185 66.8665C268.091 67.0583 267.996 67.3459 267.996 67.5377C267.996 67.8254 267.996 68.0172 268.091 68.2089C268.185 68.4007 268.28 68.5925 268.47 68.6884C268.659 68.7843 268.849 68.8802 269.133 68.8802C269.417 68.8802 269.606 68.8802 269.796 68.6884Z" fill="white"/>
<path d="M275.762 65.7158L275.478 69.4555H274.815L274.909 68.8802C274.72 69.0719 274.53 69.2637 274.341 69.3596C274.152 69.4555 273.867 69.5514 273.583 69.5514C273.11 69.5514 272.731 69.4555 272.447 69.1678C272.162 68.8802 272.068 68.4966 272.162 67.9213L272.352 65.7158H273.015L272.825 67.8254C272.825 68.2089 272.826 68.4966 273.015 68.6884C273.204 68.8802 273.394 68.9761 273.773 68.9761C274.152 68.9761 274.436 68.8802 274.625 68.6884C274.815 68.4966 275.004 68.2089 275.004 67.7295L275.193 65.8117H275.762V65.7158Z" fill="white"/>
<path d="M278.224 65.8124C278.509 65.7165 278.793 65.6206 279.077 65.6206L278.982 66.2919C278.982 66.2919 278.888 66.2919 278.793 66.2919C278.414 66.2919 278.13 66.3877 277.94 66.5795C277.751 66.7713 277.561 67.1549 277.561 67.5385L277.372 69.4563H276.709L276.993 65.7165H277.656L277.561 66.3877C277.751 66.1001 277.94 65.9083 278.224 65.8124Z" fill="white"/>
<path d="M280.119 69.2637C279.835 69.0719 279.645 68.8802 279.456 68.5925C279.267 68.3048 279.267 68.0172 279.267 67.6336C279.267 67.25 279.456 66.9624 279.645 66.6747C279.835 66.387 280.119 66.1953 280.403 66.0035C280.687 65.8117 281.066 65.7158 281.445 65.7158C281.824 65.7158 282.108 65.8117 282.298 65.9076C282.582 66.0035 282.771 66.2912 282.866 66.4829L282.298 66.7706C282.203 66.5788 282.108 66.4829 281.919 66.387C281.729 66.2912 281.54 66.2912 281.35 66.2912C281.066 66.2912 280.877 66.387 280.687 66.4829C280.498 66.5788 280.309 66.7706 280.214 66.9624C280.119 67.1542 280.024 67.4418 280.024 67.6336C280.024 67.9213 280.024 68.113 280.119 68.3048C280.214 68.4966 280.308 68.6884 280.498 68.7843C280.687 68.8802 280.877 68.9761 281.161 68.9761C281.35 68.9761 281.54 68.9761 281.729 68.8802C281.919 68.7843 282.108 68.6884 282.203 68.4966L282.676 68.7843C282.487 69.0719 282.298 69.2637 282.013 69.3596C281.729 69.4555 281.445 69.5514 281.066 69.5514C280.782 69.4555 280.403 69.3596 280.119 69.2637Z" fill="white"/>
<path d="M286.938 67.8254H283.907C283.907 68.113 284.002 68.4007 284.286 68.5925C284.475 68.7843 284.854 68.8802 285.139 68.8802C285.612 68.8802 285.991 68.6884 286.275 68.4007L286.654 68.8802C286.465 69.0719 286.275 69.2637 285.991 69.3596C285.707 69.4555 285.423 69.5514 285.139 69.5514C284.76 69.5514 284.381 69.4555 284.097 69.2637C283.812 69.0719 283.623 68.8802 283.434 68.5925C283.339 68.3048 283.244 67.9213 283.244 67.6336C283.244 67.25 283.339 66.9624 283.528 66.6747C283.718 66.387 284.002 66.1953 284.286 66.0035C284.57 65.8117 284.949 65.7158 285.233 65.7158C285.517 65.7158 285.896 65.8117 286.18 66.0035C286.465 66.1953 286.654 66.387 286.749 66.6747C286.843 66.9624 286.938 67.3459 286.938 67.7295C287.033 67.6336 287.033 67.7295 286.938 67.8254ZM284.475 66.4829C284.286 66.6747 284.097 66.9624 284.002 67.25H286.37C286.37 66.9624 286.275 66.6747 286.086 66.4829C285.896 66.2912 285.612 66.1953 285.328 66.1953C284.949 66.1953 284.665 66.2912 284.475 66.4829Z" fill="white"/>
<path d="M187.863 55.1689H193.925C194.209 55.1689 194.399 54.9771 194.399 54.6894C194.399 54.4018 194.209 54.21 193.925 54.21H187.863C187.579 54.21 187.39 54.4018 187.39 54.6894C187.39 54.9771 187.579 55.1689 187.863 55.1689Z" fill="#30AB5E"/>
<path d="M198.942 55.1687H242.608C242.892 55.1687 243.081 54.9769 243.081 54.6892C243.081 54.4015 242.892 54.2097 242.608 54.2097H198.942C198.658 54.2097 198.469 54.4015 198.469 54.6892C198.469 54.9769 198.753 55.1687 198.942 55.1687Z" fill="#30AB5E"/>
<path d="M399.465 106.182L416.609 304.195H419.261L418.503 295.853H456.201L456.959 304.195H459.706L442.562 106.182H439.815L440.573 114.525H402.875L402.117 106.182H399.465ZM403.159 117.305H440.857L443.225 144.346H405.527L403.159 117.305ZM405.716 147.031H443.414L445.782 174.072H408.084L405.716 147.031ZM408.274 176.757H445.972L448.34 203.798H410.642L408.274 176.757ZM410.831 206.579H448.529L450.897 233.62H413.199L410.831 206.579ZM413.389 236.305H451.087L453.455 263.346H415.756L413.389 236.305ZM456.012 293.168H418.314L415.946 266.127H453.644L456.012 293.168Z" fill="#263238"/>
<path opacity="0.3" d="M399.465 106.182L416.609 304.195H419.261L418.503 295.853H456.201L456.959 304.195H459.706L442.562 106.182H439.815L440.573 114.525H402.875L402.117 106.182H399.465ZM403.159 117.305H440.857L443.225 144.346H405.527L403.159 117.305ZM405.716 147.031H443.414L445.782 174.072H408.084L405.716 147.031ZM408.274 176.757H445.972L448.34 203.798H410.642L408.274 176.757ZM410.831 206.579H448.529L450.897 233.62H413.199L410.831 206.579ZM413.389 236.305H451.087L453.455 263.346H415.756L413.389 236.305ZM456.012 293.168H418.314L415.946 266.127H453.644L456.012 293.168Z" fill="white"/>
<path d="M423.049 117.307L418.218 121.91L409.031 119.8V117.978C409.031 117.403 408.462 117.019 407.894 117.307C407.894 117.307 407.42 117.594 407.326 117.594C406.568 117.499 404.958 115.581 404.958 115.581C404.768 115.389 404.484 115.389 404.2 115.485L403.537 115.773C403.158 115.868 402.968 116.252 403.063 116.636L404.105 121.334C404.2 121.622 404.389 121.91 404.673 121.91L407.61 122.389C407.61 122.389 415.945 127.567 418.976 126.896C422.007 126.225 426.459 121.91 426.459 121.91L423.049 117.307Z" fill="#FF8B7B"/>
<path d="M352.198 108.58L350.114 109.827L346.799 162.854L398.326 164.484L400.22 163.333L405.43 109.06L352.198 108.58Z" fill="#30AB5E"/>
<path d="M401.831 110.306L350.115 109.826L344.905 164.004L396.622 164.484L401.831 110.306Z" fill="#30AB5E"/>
<path opacity="0.8" d="M401.831 110.306L350.115 109.826L344.905 164.004L396.622 164.484L401.831 110.306Z" fill="white"/>
<path d="M376.161 125.744L348.692 125.457L347.935 133.224L375.403 133.511C376.445 133.511 377.392 132.648 377.487 131.594L377.866 127.758C377.96 126.607 377.203 125.744 376.161 125.744Z" fill="#30AB5E"/>
<path d="M348.408 139.361H347.271L346.514 147.128H347.65C348.692 147.128 349.639 146.265 349.734 145.21L350.113 141.375C350.208 140.224 349.45 139.361 348.408 139.361Z" fill="#30AB5E"/>
<path opacity="0.5" d="M348.408 139.361H347.271L346.514 147.128H347.65C348.692 147.128 349.639 146.265 349.734 145.21L350.113 141.375C350.208 140.224 349.45 139.361 348.408 139.361Z" fill="white"/>
<path d="M393.873 164.484H398.325L403.534 110.402L398.988 110.306L393.873 164.484Z" fill="#30AB5E"/>
<path opacity="0.3" d="M393.873 164.484H398.325L403.534 110.402L398.988 110.306L393.873 164.484Z" fill="white"/>
<path d="M415.469 96.6902C415.469 96.6902 411.965 96.9779 411.965 99.3752C411.965 100.909 413.196 98.3204 414.901 97.5532C416.606 96.7861 415.469 96.6902 415.469 96.6902Z" fill="#263238"/>
<path d="M428.824 178.867C428.824 178.867 430.529 184.717 431.287 186.538C435.36 196.415 443.506 210.703 448.715 225.47L452.883 223.84C452.883 223.84 450.894 213.867 446.631 201.689C444.548 195.648 440.948 189.607 438.77 182.991C438.201 181.169 437.538 175.319 437.538 175.319L428.824 178.867Z" fill="#FF8B7B"/>
<path d="M432.424 141.662C432.424 141.662 436.97 146.361 437.823 152.306C438.58 158.251 436.876 168.32 439.622 179.155L429.014 182.128C429.014 182.128 420.394 151.731 419.637 144.347L432.424 141.662Z" fill="#263238"/>
<path opacity="0.4" d="M425.508 169.567L428.255 159.882L431.57 154.512C431.57 154.512 432.517 162.567 430.623 170.717C429.77 174.745 429.012 178.101 428.444 180.402C427.876 178.197 426.739 174.169 425.508 169.567Z" fill="black"/>
<path d="M419.067 229.785C418.499 229.785 417.836 229.689 417.741 229.401C417.646 229.209 417.646 229.018 417.741 228.922C417.836 228.826 417.93 228.73 418.12 228.634C418.878 228.442 420.488 229.401 420.583 229.497L420.677 229.593C420.677 229.593 420.677 229.689 420.583 229.689C420.014 229.785 419.541 229.785 419.067 229.785ZM418.404 228.826C418.309 228.826 418.215 228.826 418.215 228.826C418.12 228.826 418.025 228.922 418.025 229.018C417.93 229.114 417.93 229.209 418.025 229.305C418.215 229.593 419.446 229.689 420.298 229.593C419.635 229.209 418.972 228.922 418.404 228.826Z" fill="#30AB5E"/>
<path d="M420.488 229.689C419.92 229.402 418.783 228.347 418.878 227.867C418.878 227.771 418.972 227.58 419.257 227.58C419.446 227.58 419.73 227.675 419.825 227.771C420.393 228.251 420.488 229.593 420.488 229.593C420.677 229.593 420.583 229.689 420.488 229.689C420.583 229.689 420.488 229.689 420.488 229.689ZM419.446 227.771C419.162 227.771 419.162 227.867 419.162 227.867C419.162 228.155 419.825 229.018 420.393 229.402C420.393 228.826 420.109 228.347 419.825 227.963C419.73 227.771 419.541 227.771 419.446 227.771Z" fill="#30AB5E"/>
<path d="M421.057 229.018L426.172 229.114C426.361 229.114 426.551 229.306 426.551 229.498L427.403 233.717C427.498 234.1 427.214 234.484 426.835 234.58C426.74 234.58 426.74 234.58 426.645 234.58C424.751 234.484 423.141 234.388 420.867 234.292C418.121 234.196 418.878 234.58 415.658 234.58C413.763 234.58 413.479 232.374 414.237 232.278C418.026 231.895 418.405 230.744 419.825 229.402C420.204 229.114 420.583 229.018 421.057 229.018Z" fill="#263238"/>
<path d="M446.821 226.524C446.253 226.716 445.685 226.812 445.4 226.62C445.211 226.524 445.211 226.332 445.211 226.141C445.211 225.949 445.306 225.853 445.495 225.757C446.158 225.278 448.053 225.661 448.147 225.661C448.147 225.661 448.242 225.661 448.242 225.757C448.242 225.757 448.242 225.853 448.147 225.853C447.768 226.237 447.295 226.428 446.821 226.524ZM445.874 225.949C445.779 225.949 445.779 226.045 445.685 226.045C445.59 226.045 445.59 226.141 445.495 226.237C445.495 226.428 445.495 226.428 445.59 226.524C445.874 226.716 447.011 226.332 447.768 225.949C447.105 225.853 446.442 225.853 445.874 225.949Z" fill="#30AB5E"/>
<path d="M448.148 225.949C447.485 225.949 446.064 225.278 445.97 224.798C445.97 224.703 445.97 224.511 446.254 224.319C446.443 224.223 446.727 224.223 446.917 224.319C447.675 224.607 448.148 225.757 448.243 225.853C448.243 225.853 448.243 225.949 448.148 225.949C448.243 225.949 448.148 225.949 448.148 225.949ZM446.443 224.511C446.159 224.607 446.254 224.703 446.254 224.703C446.349 224.99 447.296 225.566 447.959 225.661C447.769 225.182 447.391 224.798 446.917 224.511C446.727 224.511 446.538 224.511 446.443 224.511Z" fill="#30AB5E"/>
<path d="M448.432 225.183L453.263 223.457C453.452 223.361 453.642 223.457 453.737 223.648L456.01 227.292C456.199 227.58 456.105 228.059 455.82 228.251C455.82 228.251 455.726 228.251 455.726 228.347C453.926 228.922 452.41 229.402 450.232 230.169C447.675 231.032 448.432 231.128 445.401 232.279C443.602 232.95 442.56 230.936 443.317 230.553C446.727 228.826 446.727 227.676 447.58 225.95C447.674 225.566 448.053 225.278 448.432 225.183Z" fill="#263238"/>
<path d="M416.512 178.772C416.512 178.772 416.322 184.909 416.512 186.922C417.364 197.566 420.774 213.676 421.153 229.402H425.605C425.605 229.402 426.931 217.607 426.363 203.224C426.173 197.758 424.752 191.909 424.658 186.155C424.658 184.237 425.889 178.484 425.889 178.484L416.512 178.772Z" fill="#FF8B7B"/>
<path d="M427.877 142.813C427.877 142.813 434.224 151.923 430.245 163.717C426.078 176.183 427.12 182.416 427.12 182.416H415.564C415.564 182.416 415.564 166.019 415.09 160.649C414.711 156.813 413.764 152.594 414.048 145.306L427.877 142.813Z" fill="#263238"/>
<path d="M427.308 180.019L427.686 182.799H415.184V180.019H427.308Z" fill="#263238"/>
<path opacity="0.4" d="M427.308 180.019L427.686 182.799H415.184V180.019H427.308Z" fill="white"/>
<path d="M439.621 176.662L427.971 180.21L428.823 182.799L440.379 179.443L439.621 176.662Z" fill="#263238"/>
<path opacity="0.4" d="M439.621 176.662L427.971 180.21L428.823 182.799L440.379 179.443L439.621 176.662Z" fill="white"/>
<path d="M423.9 114.142C423.9 114.142 421.342 113.854 421.342 109.06C421.342 109.06 418.974 107.909 417.364 109.347C415.754 110.786 418.785 114.142 416.796 115.484C416.891 115.58 418.596 116.731 423.9 114.142Z" fill="#7F3E3B"/>
<path d="M412.533 102.251C412.533 101.963 412.344 101.676 412.154 101.676C411.965 101.676 411.775 101.963 411.775 102.251C411.775 102.539 411.965 102.826 412.154 102.826C412.438 102.922 412.533 102.635 412.533 102.251Z" fill="#263238"/>
<path d="M412.345 102.923L410.64 105.225C410.64 105.225 411.397 105.896 412.534 105.608L412.345 102.923Z" fill="#FF8B7B"/>
<path d="M423.617 101.772C423.428 105.895 423.428 107.621 421.438 109.731C418.313 111.936 413.482 111.841 412.44 107.717C411.493 104.073 411.967 98.0324 415.945 96.3064C418.786 95.0598 422.007 96.4023 423.143 99.279C423.522 100.046 423.617 100.909 423.617 101.772Z" fill="#FF8B7B"/>
<path d="M413.102 101.292C413.008 101.292 413.008 101.292 412.913 101.292C412.534 101.004 412.06 100.813 411.587 100.908C411.492 100.908 411.397 100.908 411.397 100.813C411.397 100.717 411.397 100.621 411.492 100.621C412.06 100.525 412.724 100.621 413.102 101.1C413.197 101.196 413.197 101.292 413.102 101.388C413.197 101.292 413.197 101.292 413.102 101.292Z" fill="#263238"/>
<path d="M412.248 101.772L411.395 101.676C411.301 101.58 411.869 102.251 412.248 101.772Z" fill="#263238"/>
<path opacity="0.2" d="M419.543 110.69C419.259 111.169 418.596 112.032 417.364 112.704C417.27 112.128 417.08 111.649 416.985 111.169C417.838 111.169 418.69 110.978 419.543 110.69Z" fill="black"/>
<path d="M425.89 114.813C425.89 114.813 425.89 111.553 422.196 112.224C418.502 112.799 415.66 114.621 415.471 116.539L425.89 114.813Z" fill="#E3C97C"/>
<path d="M428.163 114.43C428.163 114.43 433.183 114.622 433.183 118.649C433.183 122.677 430.342 124.403 430.342 124.403L428.163 114.43Z" fill="#E3C97C"/>
<path opacity="0.1" d="M428.163 114.43C428.163 114.43 433.183 114.622 433.183 118.649C433.183 122.677 430.342 124.403 430.342 124.403L428.163 114.43Z" fill="#E3C97C"/>
<path d="M433.844 142.237C433.844 142.237 431.381 137.251 430.813 131.306C430.339 125.361 433.939 114.717 427.498 114.429C421.057 114.142 417.552 115.101 413.764 116.635C409.975 118.169 410.733 128.621 411.396 132.552C411.964 136.484 413.764 146.552 413.764 146.552C413.764 146.552 424.751 147.991 433.844 142.237Z" fill="#FFEEBD"/>
<path opacity="0.1" d="M411.114 129.964C410.925 127.854 410.83 125.265 411.019 122.964L415.376 122.389C415.376 122.389 413.671 127.087 411.114 129.964Z" fill="black"/>
<path d="M407.513 121.718L402.683 126.32L393.495 124.211V122.197C393.495 121.718 393.021 121.334 392.548 121.622C392.548 121.622 391.885 121.814 391.695 121.718C390.937 121.622 389.422 119.896 389.422 119.896C389.232 119.704 388.948 119.704 388.759 119.8L386.77 121.622C386.486 121.814 386.296 122.101 386.391 122.485L388.475 125.553C388.569 125.841 388.948 126.129 389.232 126.225L392.074 126.8C392.074 126.8 400.409 131.978 403.44 131.307C406.471 130.635 410.923 126.32 410.923 126.32L407.513 121.718Z" fill="#FF8B7B"/>
<path d="M413.861 116.635C413.861 116.635 410.83 117.499 406.473 121.334C406.473 121.334 406.662 124.403 410.451 127.759C410.451 127.759 414.524 125.17 415.85 121.334C417.081 117.499 413.861 116.635 413.861 116.635Z" fill="#E3C97C"/>
<path d="M415.376 95.827C415.376 95.827 412.535 97.1694 413.293 99.1831C414.05 101.293 414.429 103.019 413.956 103.69C413.387 104.361 415.282 104.553 415.187 102.252C415.187 102.252 415.471 105.128 416.892 105.512C418.313 105.895 419.355 110.115 418.123 112.224C416.892 114.238 416.608 119.032 417.839 120.087C419.07 121.142 421.344 122.197 421.059 124.115C420.775 126.032 423.806 124.69 423.238 122.484C423.238 122.484 424.848 125.073 426.932 122.772C428.921 120.471 425.701 118.265 425.701 118.265C425.701 118.265 428.163 119.032 428.163 120.375C428.258 121.717 429.016 122.389 429.963 120.854C430.91 119.416 430.342 117.69 429.395 116.731C429.395 116.731 431.005 116.443 431.194 117.594C431.384 118.745 433.278 116.827 431.668 115.293C430.058 113.758 427.216 112.991 427.311 107.238C427.406 101.484 426.269 96.4982 421.912 95.5393C417.46 94.4845 415.376 95.827 415.376 95.827Z" fill="#263238"/>
<path d="M416.418 103.21C415.85 103.786 415.471 104.553 415.376 105.416C415.376 106.567 416.418 106.854 417.27 106.279C418.123 105.799 419.07 104.649 418.691 103.69C418.312 102.635 417.176 102.539 416.418 103.21Z" fill="#FF8B7B"/>
<path d="M347.844 173.113L294.044 172.826L292.433 174.072L292.149 204.853L291.391 212.62L290.35 223.648L290.16 225.853L289.971 228.25L340.929 228.442L343.297 226.045L347.844 173.113Z" fill="#30AB5E"/>
<path d="M287.794 225.853L341.215 226.14L345.951 174.36L292.435 174.072L287.794 225.853Z" fill="#30AB5E"/>
<path opacity="0.8" d="M287.794 225.853L341.215 226.14L345.951 174.36L292.435 174.072L287.794 225.853Z" fill="white"/>
<path d="M317.63 177.237L292.245 177.141L291.487 184.908L316.872 185.004C317.914 185.004 318.861 184.141 318.956 183.086L319.335 179.25C319.524 178.195 318.672 177.237 317.63 177.237Z" fill="#30AB5E"/>
<path d="M288.93 212.62L342.351 212.907L343.109 205.14L289.687 204.853L288.93 212.62Z" fill="#30AB5E"/>
<path d="M287.983 223.647L287.51 228.154L340.931 228.442L341.405 223.935L287.983 223.647Z" fill="#30AB5E"/>
<path opacity="0.3" d="M287.983 223.647L287.51 228.154L340.931 228.442L341.405 223.935L287.983 223.647Z" fill="white"/>
<path d="M170.339 172.634L165.319 228.058L217.131 228.25L218.741 226.908L223.856 172.921L170.339 172.634Z" fill="#30AB5E"/>
<path d="M163.896 225.661L217.413 225.853L222.054 174.168L168.632 173.977L163.896 225.661Z" fill="#30AB5E"/>
<path opacity="0.8" d="M163.896 225.661L217.413 225.853L222.054 174.168L168.632 173.977L163.896 225.661Z" fill="white"/>
<path d="M165.128 212.428L218.549 212.716L219.307 204.949L165.791 204.661L165.128 212.428Z" fill="#30AB5E"/>
<path opacity="0.5" d="M165.128 212.428L218.549 212.716L219.307 204.949L165.791 204.661L165.128 212.428Z" fill="white"/>
<path d="M206.427 191.045L167.024 190.853L166.361 198.62L205.764 198.812C206.806 198.812 207.753 197.949 207.848 196.894L208.227 193.058C208.322 191.908 207.564 191.045 206.427 191.045Z" fill="#30AB5E"/>
<path opacity="0.5" d="M206.427 191.045L167.024 190.853L166.361 198.62L205.764 198.812C206.806 198.812 207.753 197.949 207.848 196.894L208.227 193.058C208.322 191.908 207.564 191.045 206.427 191.045Z" fill="white"/>
<path d="M167.592 184.716L221.108 185.004L221.771 177.236L168.35 176.949L167.592 184.716Z" fill="#30AB5E"/>
<path opacity="0.5" d="M167.592 184.716L221.108 185.004L221.771 177.236L168.35 176.949L167.592 184.716Z" fill="white"/>
<path d="M164.182 223.456L163.708 228.058L217.129 228.25L217.603 223.743L164.182 223.456Z" fill="#30AB5E"/>
<path opacity="0.3" d="M164.182 223.456L163.708 228.058L217.129 228.25L217.603 223.743L164.182 223.456Z" fill="white"/>
<path d="M122.509 104.072L121.751 112.415H84.0531L84.8109 104.072H82.064L65.0146 302.086H67.6668L68.4245 293.743H106.123L105.365 302.086H108.112L125.161 104.072H122.509ZM119.194 142.237H81.4957L83.8637 115.196H121.562L119.194 142.237ZM116.636 171.963H78.9383L81.3063 144.921H119.004L116.636 171.963ZM114.079 201.784H76.3809L78.7489 174.743H116.447L114.079 201.784ZM111.522 231.51H73.7288L76.0968 204.469H113.795L111.522 231.51ZM108.869 261.236H71.1714L73.5393 234.195H111.237L108.869 261.236ZM70.9819 264.017H108.68L106.312 291.058H68.614L70.9819 264.017Z" fill="#263238"/>
<path opacity="0.3" d="M122.509 104.072L121.751 112.415H84.0531L84.8109 104.072H82.064L65.0146 302.086H67.6668L68.4245 293.743H106.123L105.365 302.086H108.112L125.161 104.072H122.509ZM119.194 142.237H81.4957L83.8637 115.196H121.562L119.194 142.237ZM116.636 171.963H78.9383L81.3063 144.921H119.004L116.636 171.963ZM114.079 201.784H76.3809L78.7489 174.743H116.447L114.079 201.784ZM111.522 231.51H73.7288L76.0968 204.469H113.795L111.522 231.51ZM108.869 261.236H71.1714L73.5393 234.195H111.237L108.869 261.236ZM70.9819 264.017H108.68L106.312 291.058H68.614L70.9819 264.017Z" fill="white"/>
<path d="M95.6092 102.921L101.671 106.565L112.28 101.866L112.374 99.2771C112.374 98.6059 112.943 98.1264 113.606 98.1264H114.648L115.784 97.0716C116.353 96.5922 117.205 96.6881 117.679 97.2634L118.342 98.2223C118.531 98.51 118.531 98.7977 118.531 98.9894L118.247 102.154C118.152 102.633 117.868 103.017 117.489 103.209L114.648 104.263C114.648 104.263 105.839 110.592 102.618 111.359C99.3979 112.126 93.0518 108.674 93.0518 108.674L95.6092 102.921Z" fill="#FF8B7B"/>
<path d="M175.551 50.6609L126.771 50.8527C124.119 50.8527 121.372 52.6746 121.182 55.2636L117.772 104.647L168.921 106.469L170.626 105.127L175.551 50.6609Z" fill="#30AB5E"/>
<path d="M168.921 106.469L172.994 59.7707L122.414 59.6748L118.246 106.469H168.921Z" fill="#30AB5E"/>
<path d="M168.921 106.469L172.994 59.7707L122.414 59.6748L118.246 106.469H168.921Z" fill="white"/>
<path d="M169.962 94.3864L135.484 94.2905C134.442 94.2905 133.495 95.1535 133.401 96.2083L133.022 100.044C132.927 101.099 133.685 101.962 134.727 101.962L169.204 102.058L169.962 94.3864Z" fill="#30AB5E"/>
<path d="M171.192 80.4826L136.715 80.3867C135.673 80.3867 134.726 81.2497 134.631 82.3045L134.252 86.1401C134.157 87.1949 134.915 88.0579 136.052 88.0579L170.529 88.1538L171.192 80.4826Z" fill="#30AB5E"/>
<path opacity="0.5" d="M171.192 80.4826L136.715 80.3867C135.673 80.3867 134.726 81.2497 134.631 82.3045L134.252 86.1401C134.157 87.1949 134.915 88.0579 136.052 88.0579L170.529 88.1538L171.192 80.4826Z" fill="white"/>
<path d="M123.266 68.9759C123.455 67.2499 124.971 65.8115 126.676 65.8115L172.425 65.9074L173.656 52.3869L124.971 52.291C122.319 52.291 120.046 54.4006 119.761 57.0855L115.404 106.469H119.856L123.266 68.9759Z" fill="#30AB5E"/>
<path opacity="0.3" d="M123.266 68.9759C123.455 67.2499 124.971 65.8115 126.676 65.8115L172.425 65.9074L173.656 52.3869L124.971 52.291C122.319 52.291 120.046 54.4006 119.761 57.0855L115.404 106.469H119.856L123.266 68.9759Z" fill="white"/>
<path d="M154.426 58.8117C154.237 60.5377 152.722 61.9761 151.017 61.9761C149.312 61.9761 148.08 60.5377 148.175 58.8117C148.364 57.0856 149.88 55.6472 151.585 55.6472C153.29 55.6472 154.521 57.0856 154.426 58.8117Z" fill="#30AB5E"/>
<path opacity="0.5" d="M154.426 58.8117C154.237 60.5377 152.722 61.9761 151.017 61.9761C149.312 61.9761 148.08 60.5377 148.175 58.8117C148.364 57.0856 149.88 55.6472 151.585 55.6472C153.29 55.6472 154.521 57.0856 154.426 58.8117Z" fill="white"/>
<path d="M142.873 58.8117C142.683 60.5377 141.168 61.9761 139.463 61.9761C137.758 61.9761 136.527 60.5377 136.621 58.8117C136.811 57.0856 138.326 55.6472 140.031 55.6472C141.831 55.6472 143.062 57.0856 142.873 58.8117Z" fill="#30AB5E"/>
<path d="M131.412 58.8117C131.222 60.5377 129.707 61.9761 128.002 61.9761C126.297 61.9761 125.066 60.5377 125.16 58.8117C125.255 57.0856 126.865 55.6472 128.57 55.6472C130.37 55.6472 131.601 57.0856 131.412 58.8117Z" fill="#30AB5E"/>
<path opacity="0.2" d="M131.412 58.8117C131.222 60.5377 129.707 61.9761 128.002 61.9761C126.297 61.9761 125.066 60.5377 125.16 58.8117C125.255 57.0856 126.865 55.6472 128.57 55.6472C130.37 55.6472 131.601 57.0856 131.412 58.8117Z" fill="black"/>
<path d="M129.896 59.7709C129.612 59.4832 129.233 59.0997 128.949 58.812C129.233 58.5244 129.612 58.1408 129.896 57.8532C130.275 57.4696 129.707 56.7984 129.233 57.182C128.949 57.4696 128.57 57.8532 128.286 58.1408C128.002 57.8532 127.623 57.4696 127.339 57.182C126.96 56.7984 126.297 57.3737 126.676 57.8532C126.96 58.1408 127.339 58.5244 127.623 58.812C127.339 59.0997 126.96 59.4832 126.676 59.7709C126.297 60.1544 126.865 60.8256 127.339 60.4421C127.623 60.1544 128.002 59.7709 128.286 59.4832C128.57 59.7709 128.949 60.1544 129.233 60.4421C129.707 60.8256 130.37 60.1544 129.896 59.7709Z" fill="white"/>
<path d="M141.641 58.332C140.409 58.332 139.178 58.332 137.947 58.332C137.378 58.332 137.378 59.195 137.947 59.195C139.178 59.195 140.409 59.195 141.641 59.195C142.209 59.2909 142.209 58.332 141.641 58.332Z" fill="white"/>
<path d="M149.79 60.3448H151.59L149.79 58.427V60.3448Z" fill="white"/>
<path d="M151.021 57.1807L152.916 59.0986V57.1807H151.021Z" fill="white"/>
<path d="M77.6123 217.03L76.9492 225.66L81.6852 226.14L83.1059 218.085L77.6123 217.03Z" fill="#FF8B7B"/>
<path d="M82.5381 226.139L82.4434 226.043C82.4434 225.948 82.4434 225.948 82.5381 225.948C82.6328 225.948 84.4325 225.18 85.2849 225.468C85.4744 225.564 85.5691 225.66 85.5691 225.756C85.6638 225.948 85.6638 226.139 85.4744 226.235C85.1902 226.427 84.6219 226.523 83.9589 226.427C83.4853 226.427 83.0117 226.331 82.5381 226.139ZM82.917 226.043C83.7694 226.331 85.0955 226.427 85.2849 226.139C85.2849 226.139 85.3796 226.043 85.2849 225.852C85.2849 225.756 85.1902 225.66 85.0955 225.66C85.0008 225.66 84.906 225.564 84.906 225.564C84.243 225.66 83.4853 225.852 82.917 226.043Z" fill="#30AB5E"/>
<path d="M82.4434 226.139V226.044C82.4434 225.948 82.8222 224.701 83.4853 224.222C83.6747 224.126 83.9589 224.03 84.1483 224.126C84.4325 224.222 84.5272 224.413 84.5272 224.509C84.5272 225.085 83.2011 225.948 82.6328 226.139C82.5381 226.139 82.5381 226.139 82.4434 226.139ZM83.9589 224.317C83.7694 224.317 83.6747 224.317 83.58 224.413C83.2011 224.797 82.8222 225.276 82.7275 225.852C83.3905 225.564 84.243 224.797 84.3377 224.509C84.243 224.509 84.243 224.413 83.9589 224.317Z" fill="#30AB5E"/>
<path d="M82.0649 225.372L76.6659 224.605C76.4765 224.605 76.2871 224.701 76.1923 224.893L74.5821 229.208C74.3927 229.591 74.5821 229.975 74.961 230.167C75.0557 230.167 75.0557 230.167 75.1504 230.167C77.0448 230.454 78.8445 230.55 81.2124 230.934C84.054 231.317 83.2963 231.605 86.6114 232.084C88.6005 232.372 89.2635 230.167 88.5058 229.879C84.6223 228.824 84.4329 227.578 83.1068 225.947C82.9174 225.66 82.5385 225.468 82.0649 225.372Z" fill="#263238"/>
<path opacity="0.2" d="M83.1069 218.085L77.6132 217.03L77.2344 221.537L82.3492 222.304L83.1069 218.085Z" fill="#263238"/>
<path d="M104.512 81.346C104.512 81.346 108.301 79.5242 108.017 81.0583C107.638 82.5925 104.891 83.2637 104.038 82.6884C103.281 82.1131 104.512 81.346 104.512 81.346Z" fill="#263238"/>
<path d="M94.6611 99.4682C94.6611 99.4682 97.5027 99.1806 97.5027 93.8107C97.5027 93.8107 100.155 92.5642 101.86 94.1943C103.565 95.7285 100.344 99.4682 102.428 101.002C102.428 101.002 100.534 102.249 94.6611 99.4682Z" fill="#FF8B7B"/>
<path d="M107.163 86.3324C107.163 85.9489 107.353 85.6612 107.637 85.7571C107.826 85.7571 108.016 86.0448 108.016 86.4283C108.016 86.8119 107.826 87.0995 107.542 87.0036C107.353 87.0036 107.163 86.716 107.163 86.3324Z" fill="#263238"/>
<path d="M107.448 87.0034L109.343 89.4967C109.343 89.4967 108.49 90.168 107.259 89.8803L107.448 87.0034Z" fill="#FF5652"/>
<path d="M95.0388 85.8527C95.2282 90.3595 95.2282 92.2773 97.5015 94.5787C100.911 96.976 106.31 96.8801 107.352 92.3732C108.394 88.3458 107.826 81.6335 103.469 79.8116C100.343 78.4691 96.8384 79.9075 95.5124 83.0719C95.1335 83.9349 94.9441 84.8938 95.0388 85.8527Z" fill="#FF8B7B"/>
<path d="M106.501 85.2771C106.595 85.2771 106.595 85.2771 106.69 85.2771C107.069 84.8936 107.637 84.7977 108.111 84.8936C108.206 84.8936 108.3 84.8936 108.395 84.7977C108.395 84.7018 108.395 84.6059 108.3 84.51C107.637 84.3182 106.974 84.51 106.501 84.9895C106.406 85.0854 106.406 85.1813 106.501 85.2771C106.406 85.2771 106.501 85.2771 106.501 85.2771Z" fill="#263238"/>
<path opacity="0.2" d="M99.4932 95.6338C99.7773 96.1132 100.535 97.168 101.861 97.8392C102.051 97.2639 102.145 96.6886 102.24 96.1132C101.388 96.1132 100.44 96.0173 99.4932 95.6338Z" fill="black"/>
<path d="M97.4086 95.2499C97.4086 95.2499 97.6928 94.8664 98.9241 95.4417C98.9241 95.4417 101.86 92.0855 102.334 89.6882C102.334 89.6882 103.849 88.8252 103.944 86.8115C104.039 84.7978 104.134 83.5512 104.891 83.0717C105.649 82.5923 107.828 80.5786 106.217 78.5648C104.607 76.5511 104.702 78.9484 104.702 78.9484C104.702 78.9484 100.061 73.5785 100.724 77.1265C100.724 77.1265 95.4195 75.8799 98.1664 78.8525C98.1664 78.8525 92.1991 80.3868 94.1882 86.0444C94.2829 86.0444 92.2938 91.6061 97.4086 95.2499Z" fill="#263238"/>
<path d="M102.902 87.3868C103.565 87.9622 103.944 88.8252 104.038 89.7841C104.133 91.0306 102.902 91.3183 101.955 90.7429C101.007 90.2635 99.9656 89.0169 100.344 87.8663C100.818 86.7156 102.049 86.6197 102.902 87.3868Z" fill="#FF8B7B"/>
<path d="M99.3981 98.1269C100.44 98.2228 101.766 98.4145 103.187 98.894C102.619 98.031 101.482 96.5926 99.3034 96.305C96.6512 95.9214 95.7041 97.2639 95.1357 98.2228C96.3671 97.9351 97.7879 97.9351 99.3981 98.1269Z" fill="#30AB5E"/>
<path d="M99.3981 98.1269C100.44 98.2228 101.766 98.4145 103.187 98.894C102.619 98.031 101.482 96.5926 99.3034 96.305C96.6512 95.9214 95.7041 97.2639 95.1357 98.2228C96.3671 97.9351 97.7879 97.9351 99.3981 98.1269Z" fill="#E6E6E6"/>
<path d="M84.433 132.168C84.433 132.168 81.9703 137.825 83.0122 153.168C83.0122 153.168 85.0013 171.291 83.7699 177.14C81.5914 187.688 77.8974 189.606 76.666 219.716L83.2016 220.675C83.2016 220.675 91.821 190.181 93.8101 179.921C95.0415 173.497 96.6517 154.223 96.6517 154.223L97.22 133.702L84.433 132.168Z" fill="#263238"/>
<path d="M93.998 218.66L94.0928 227.291L98.8287 227.387L99.5865 219.14L93.998 218.66Z" fill="#FF8B7B"/>
<path d="M99.6826 226.907C99.5879 226.907 99.5879 226.811 99.5879 226.811C99.5879 226.715 99.5879 226.715 99.6826 226.715C99.7773 226.715 101.577 225.756 102.335 226.044C102.524 226.14 102.619 226.236 102.714 226.332C102.808 226.524 102.808 226.715 102.714 226.811C102.524 227.099 101.861 227.195 101.198 227.099C100.63 227.099 100.156 227.003 99.6826 226.907ZM100.061 226.715C101.009 226.907 102.24 226.907 102.429 226.619C102.429 226.619 102.524 226.524 102.429 226.332C102.429 226.236 102.335 226.14 102.24 226.14C102.145 226.14 102.051 226.14 102.051 226.14C101.293 226.236 100.63 226.428 100.061 226.715Z" fill="#30AB5E"/>
<path d="M99.587 226.907C99.587 226.907 99.4923 226.811 99.587 226.811C99.587 226.716 99.7765 225.373 100.439 224.894C100.629 224.702 100.913 224.702 101.103 224.702C101.387 224.798 101.481 224.894 101.481 225.085C101.576 225.661 100.345 226.716 99.6817 226.907C99.6817 226.907 99.6817 226.907 99.587 226.907C99.6817 226.907 99.587 226.907 99.587 226.907ZM101.008 224.894C100.818 224.894 100.724 224.894 100.629 224.99C100.25 225.373 99.9659 225.948 99.8712 226.524C100.534 226.236 101.292 225.373 101.292 225.085C101.292 225.085 101.292 224.99 101.008 224.894Z" fill="#30AB5E"/>
<path d="M99.2091 226.14L93.8101 225.853C93.6207 225.853 93.4313 225.948 93.3365 226.14L92.1052 230.551C92.0105 230.935 92.1999 231.318 92.5788 231.414C92.6735 231.414 92.6735 231.414 92.7682 231.414C94.7573 231.51 96.4623 231.51 98.9249 231.606C101.767 231.798 101.009 232.086 104.419 232.277C106.408 232.373 106.976 230.072 106.124 229.976C102.24 229.305 101.861 228.058 100.44 226.524C100.062 226.332 99.588 226.14 99.2091 226.14Z" fill="#263238"/>
<path opacity="0.2" d="M94.0928 223.647L99.1129 223.743L99.5865 219.14L93.998 218.66L94.0928 223.647Z" fill="#263238"/>
<path opacity="0.4" d="M96.3684 157.003L95.0424 154.51L91.5378 151.154C91.5378 151.154 90.4011 165.633 94.1899 177.14C95.0424 171.291 95.9896 161.798 96.3684 157.003Z" fill="black"/>
<path d="M92.4822 133.606C92.4822 133.606 91.3455 139.072 91.535 151.154C91.7244 163.236 96.0815 172.441 95.9867 179.633C95.892 190.085 91.4403 195.839 93.3346 221.537H100.344C100.344 221.537 105.838 189.702 106.595 178.962C107.353 167.935 106.501 134.565 106.501 134.565L92.4822 133.606Z" fill="#263238"/>
<path d="M92.9568 98.6064C92.9568 98.6064 87.9367 98.99 86.8 102.538C85.6634 106.086 87.6525 108.579 87.6525 108.579L90.3993 109.346L92.9568 98.6064Z" fill="white"/>
<path opacity="0.1" d="M92.9568 98.6064C92.9568 98.6064 87.9367 98.99 86.8 102.538C85.6634 106.086 87.6525 108.579 87.6525 108.579L90.3993 109.346L92.9568 98.6064Z" fill="white"/>
<path d="M99.3981 98.1271C102.619 98.4148 109.344 99.949 110.007 106.757C110.67 113.565 107.544 137.73 107.544 137.73C107.544 137.73 94.9463 138.209 83.2012 134.757C83.2012 134.757 87.0846 121.428 87.7477 105.798C87.9371 100.62 91.8206 97.36 99.3981 98.1271Z" fill="white"/>
<path opacity="0.1" d="M103.756 105.606C103.756 105.606 106.029 112.414 109.723 116.729C110.007 113.277 110.102 110.209 110.102 108.003L103.756 105.606Z" fill="black"/>
<path d="M113.797 106.661L119.196 111.263L130.467 108.483L131.035 105.893C131.225 105.222 131.793 104.839 132.456 104.935L133.498 105.126L134.729 104.359C135.392 103.976 136.245 104.167 136.529 104.935L137.003 105.989C137.097 106.277 137.097 106.565 137.097 106.852L136.245 109.921C136.15 110.4 135.771 110.688 135.298 110.784L132.267 111.359C132.267 111.359 122.511 116.058 119.196 116.25C115.88 116.441 110.197 111.935 110.197 111.935L113.797 106.661Z" fill="#FF8B7B"/>
<path d="M104.608 99.373C104.608 99.373 110.007 100.716 116.258 106.757C116.258 106.757 114.838 111.551 109.817 113.948C109.817 113.948 98.7353 102.442 104.608 99.373Z" fill="white"/>
<path d="M76.4765 217.797L76.2871 220.29L83.391 221.249L84.0541 219.14L76.4765 217.797Z" fill="#263238"/>
<path opacity="0.3" d="M76.4765 217.797L76.2871 220.29L83.391 221.249L84.0541 219.14L76.4765 217.797Z" fill="white"/>
<path d="M93.0518 219.907L93.2412 222.304H100.44L100.819 219.907H93.0518Z" fill="#263238"/>
<path opacity="0.3" d="M93.0518 219.907L93.2412 222.304H100.44L100.819 219.907H93.0518Z" fill="white"/>
<g clip-path="url(#clip0_673_6579)">
<path d="M261.678 203.903C260.784 203.177 253.833 206.22 253.924 207.279C254.015 208.339 249.078 218.619 249.078 218.619L240.552 211.821C240.476 211.579 239.673 208.93 239.628 208.46C239.583 207.961 238.144 207.098 237.478 207.219C236.811 207.34 238.053 208.188 238.129 208.339C238.356 208.763 237.493 208.915 237.493 208.915C237.493 208.915 235.055 208.127 235.009 207.34C234.964 206.538 233.298 208.733 233.495 209.036C233.692 209.338 237.659 212.533 238.235 213.229C238.235 213.229 249.26 225.841 250.047 226.159C250.729 226.446 253.197 222.101 255.514 219.225C257.831 216.348 264.494 206.174 261.678 203.903Z" fill="#F7A491"/>
<path d="M283.939 296.573C283.939 296.573 285.453 298.056 285.484 298.586C285.514 299.131 285.62 304.945 284.999 305.49C284.378 306.035 282.561 306.414 283.152 307.034C283.591 307.488 286.983 307.398 289.239 307.277C289.891 307.246 290.724 301.993 290.981 301.221C291.36 300.1 292.283 297.587 291.935 296.8C291.769 296.421 290.966 295.634 289.83 294.907C288.649 294.135 287.513 292.44 287.513 292.44L283.939 296.573Z" fill="#F48C7F"/>
<path d="M268.235 300.025C268.235 300.025 269.598 303.855 269.598 303.87C269.704 304.476 270.098 305.975 270.098 306.535C270.098 308.609 260.754 304.779 262.844 303.855C263.041 303.779 263.631 303.113 263.692 302.402C263.783 301.312 262.904 299.949 262.904 299.949L268.235 300.025Z" fill="#F7A491"/>
<path d="M253.575 228.702C253.575 228.702 252.893 235.575 252.893 235.666C252.893 246.779 250.698 268.474 251.106 270.563C252.121 275.65 263.131 301.644 263.131 301.644L269.067 300.933L262.692 269.533L264.176 257.301L268.204 232.547L253.575 228.702Z" fill="#50BF97"/>
<path d="M273.52 234.773L274.64 241.283L277.699 268.065L289.315 294.241C289.315 294.241 287.679 298.056 285.271 298.586L266.78 271.714L255.286 237.316L255.695 229.671L273.52 234.773Z" fill="#6ACCA9"/>
<path d="M251.198 212.351L259.437 213.199C259.437 213.199 259.815 206.447 259.815 203.222C259.815 199.316 259.482 194.275 259.013 194.381C257.68 194.683 255.908 195.41 254.833 196.879C251.168 201.92 251.198 212.351 251.198 212.351Z" fill="#B75742"/>
<path d="M255.257 202.526C255.075 203.722 251.91 236.12 251.91 236.12C266.918 243.372 275.202 237.407 275.202 237.407C275.202 237.407 274.717 214.653 275.293 211.564C275.686 209.52 276.171 195.895 274.838 195.516C273.127 195.032 271.173 194.502 269.053 194.29C267.236 194.108 260.179 193.987 258.907 194.411C258.907 194.411 255.984 197.515 255.257 202.526Z" fill="#F47458"/>
<path d="M289.769 294.877C289.769 294.877 286.271 304.703 284.908 305.187C284.545 305.308 282.803 305.626 282.47 306.398C282.364 306.626 282.47 307.413 282.47 307.413H289.754C289.754 307.413 290.678 303.083 291.041 301.175C291.041 301.175 292.965 296.527 292.753 296.104C292.541 295.68 289.769 294.877 289.769 294.877Z" fill="#322C2B"/>
<path d="M270.628 307.201L269.552 303.825C269.552 303.825 267.311 304.779 266.175 304.612C265.055 304.461 262.859 303.825 262.859 303.825C258.376 305.308 254.696 306.02 255.362 307.201H270.628Z" fill="#322C2B"/>
<path d="M250.046 226.174C250.016 226.159 249.895 226.068 249.819 226.007C250.092 222.828 250.031 219.755 249.047 218.71C249.077 218.664 249.289 218.195 249.516 217.711C250.667 218.604 251.212 220.981 251 224.826C250.985 225.084 250.91 225.296 250.849 225.629C250.516 226.007 250.213 226.234 250.046 226.174Z" fill="#F7A491"/>
<path d="M267.053 188.022L268.022 194.396C268.022 194.396 264.494 201.98 262.374 201.329C260.602 200.784 261.692 194.062 261.692 194.062C261.692 194.062 262.661 190.459 262.374 188.658C262.071 186.841 267.053 188.022 267.053 188.022Z" fill="#F7A491"/>
<path d="M262.375 188.643C262.087 186.841 267.054 188.022 267.054 188.022L267.13 188.552C266.978 188.9 266.812 189.203 266.585 189.445C265.479 190.641 263.738 191.353 262.238 191.413C262.39 190.429 262.481 189.385 262.375 188.643Z" fill="#F47458"/>
<path d="M267.856 178.999C267.993 178.953 268.977 186.251 267.114 188.264C265.252 190.278 261.602 190.929 260.3 189.354C258.861 187.598 258.922 179.741 261.829 177.682C264.737 175.608 267.856 178.999 267.856 178.999Z" fill="#F7A491"/>
<path d="M262.935 173.776C265.176 174.23 266.63 175.607 267.175 176.198C268.19 176.319 269.583 176.879 271.007 179.256C272.764 182.163 271.461 185.403 269.417 186.977C267.372 188.567 267.403 190.399 267.403 190.399L267.085 189.445C266.842 188.733 266.751 187.961 266.827 187.22C266.873 186.765 266.979 186.281 267.16 185.872C267.66 184.812 266.1 184.116 265.661 183.238C265.328 182.557 265.313 181.012 264.783 179.892L264.147 179.044C264.147 179.044 262.693 177.909 261.269 178.227C259.846 178.529 260.058 173.185 262.935 173.776Z" fill="#0E2E35"/>
<path d="M265.751 184.525C265.736 185.418 266.145 186.145 266.66 186.16C267.175 186.175 267.599 185.448 267.614 184.555C267.629 183.662 267.22 182.935 266.705 182.92C266.206 182.92 265.767 183.631 265.751 184.525Z" fill="#F7A491"/>
<path d="M262.723 186.584L259.906 186.432C259.906 186.432 259.921 187.507 261.148 187.613C262.662 187.734 262.723 186.584 262.723 186.584Z" fill="white"/>
<path d="M239.658 203.252C240.324 202.571 240.93 201.875 241.505 201.163L253.802 213.169C254.559 213.911 254.302 215.394 253.227 216.499C252.152 217.605 250.667 217.892 249.91 217.166L237.613 205.16C238.31 204.569 238.991 203.934 239.658 203.252Z" fill="#0E2E35"/>
<path opacity="0.6" d="M239.415 203.009C251.39 190.754 251.103 171.057 238.773 159.015C226.442 146.973 206.739 147.145 194.763 159.4C182.787 171.655 183.075 191.352 195.405 203.394C207.735 215.436 227.439 215.264 239.415 203.009Z" fill="#C5F9D4"/>
<path d="M239.461 202.692C234.357 208.112 227.376 211.655 219.713 212.351L186.048 178.151C186.048 178.09 186.063 178.015 186.063 177.954C186.896 170.142 190.53 163.314 195.846 158.379L239.461 202.692Z" fill="white" fill-opacity="0.36"/>
<path d="M216.821 150.067L247.942 181.694C247.927 182.648 247.866 183.616 247.76 184.585C247.29 189.006 245.912 193.109 243.853 196.742L201.828 154.019C206.296 151.505 211.429 150.082 216.821 150.067Z" fill="white" fill-opacity="0.36"/>
<path d="M192.575 206.295C206.523 219.906 228.799 219.709 242.338 205.856C255.877 192.004 255.544 169.733 241.596 156.123C227.649 142.512 205.372 142.709 191.833 156.562C178.294 170.415 178.627 192.685 192.575 206.295ZM195.407 203.404C183.08 191.353 182.777 171.656 194.756 159.408C206.735 147.145 226.437 146.978 238.764 159.03C251.107 171.066 251.394 190.777 239.415 203.025C227.452 215.273 207.749 215.44 195.407 203.404Z" fill="#185538"/>
<path opacity="0.5" d="M194.06 204.782C207.159 217.575 228.088 217.393 240.794 204.373C253.515 191.353 253.197 170.445 240.097 157.652C227.013 144.859 206.084 145.041 193.363 158.061C180.657 171.066 180.975 191.989 194.06 204.782ZM195.407 203.404C183.08 191.353 182.777 171.656 194.756 159.408C206.735 147.145 226.437 146.979 238.765 159.03C251.107 171.066 251.395 190.777 239.416 203.025C227.452 215.273 207.75 215.44 195.407 203.404Z" fill="#50BFA5"/>
<path d="M292.026 255.953L293.934 253.97C295.842 251.987 295.781 248.838 293.813 246.93L258.285 212.503C256.301 210.595 253.151 210.656 251.243 212.639L249.335 214.622C247.427 216.606 247.487 219.755 249.471 221.662L284.984 256.09C286.952 257.997 290.102 257.937 292.026 255.953Z" fill="#185538"/>
<path d="M290.057 236.469C290.072 236.393 290.072 236.333 290.057 236.257C289.83 234.016 287.967 215.167 287.664 214.365C287.377 213.638 279.017 201.693 279.017 201.693L274.913 207.295L282.955 218.014C283.136 218.695 286.029 231.412 286.029 231.412C286.029 231.412 286.619 233.729 286.892 235.121C286.771 235.454 286.65 235.772 286.544 236.03C286.271 236.59 285.968 237.044 285.68 237.423C285.317 237.907 284.726 238.952 284.651 239.239C284.56 239.572 284.408 240.254 284.333 240.662C284.242 241.071 284.121 241.556 284.106 241.768C284.09 241.904 283.954 242.176 283.848 242.358C283.681 242.646 283.954 242.979 284.272 242.873C284.56 242.782 284.787 242.403 284.938 242.161C285.332 241.495 285.544 240.284 285.65 240.345C285.741 240.405 286.089 242.464 286.15 242.706C286.211 242.933 286.619 245.325 286.862 245.764C287.089 246.204 287.407 246.128 287.483 245.855C287.558 245.613 287.225 242.267 287.225 242.267C287.225 242.267 287.18 241.843 287.377 241.98C287.558 242.116 287.876 245.144 287.998 245.598C288.134 246.037 288.422 246.279 288.679 245.916C288.982 245.477 288.452 242.267 288.452 242.267C288.452 242.267 288.391 241.858 288.573 241.904C288.74 241.934 288.967 244.523 289.103 244.75C289.239 244.977 289.573 245.053 289.739 244.674C289.936 244.235 289.436 241.359 289.436 241.359C289.436 241.359 289.467 241.132 289.573 241.207C289.679 241.283 290.027 243.478 290.239 243.675C290.421 243.842 290.587 243.675 290.587 243.675C290.996 243.403 290.375 241.313 290.375 240.269C290.375 239.224 289.906 238.058 290.042 236.832C290.027 236.772 290.042 236.575 290.057 236.469Z" fill="#F8A492"/>
<path d="M285.56 209.263L278.428 214.062C278.428 214.062 274.399 208.082 272.249 205.947C269.538 203.283 273.233 195.092 274.975 195.562C278.867 196.576 285.56 209.263 285.56 209.263Z" fill="#F47458"/>
</g>
<path d="M338.519 303.258C338.519 303.258 367.092 296.643 372.542 290.613C377.985 284.569 371.118 282.365 371.118 282.365C371.118 282.365 384.553 273.286 383.373 267.681C382.193 262.077 375.283 265.331 375.283 265.331C375.283 265.331 385.064 249.142 381.549 246.361C375.01 241.179 363.365 258.072 363.365 258.072C363.365 258.072 366.307 250.175 361.536 249.215C354.342 247.757 352.687 266.918 352.687 266.918C352.687 266.918 351.469 262.827 346.919 264.078C338.773 266.327 338.519 303.258 338.519 303.258Z" fill="#C9FFDD"/>
<path d="M168.285 303.263C168.285 303.263 141.28 297.011 136.129 291.312C130.985 285.6 137.475 283.517 137.475 283.517C137.475 283.517 124.777 274.936 125.892 269.639C127.008 264.342 133.538 267.417 133.538 267.417C133.538 267.417 124.294 252.117 127.616 249.488C133.796 244.592 144.802 260.557 144.802 260.557C144.802 260.557 142.022 253.094 146.531 252.186C153.331 250.808 154.895 268.918 154.895 268.918C154.895 268.918 156.045 265.051 160.346 266.234C168.045 268.359 168.285 303.263 168.285 303.263Z" fill="#C9FFDD"/>
<defs>
<clipPath id="clip0_673_6579">
<rect width="113.429" height="161.373" fill="white" transform="translate(181.898 146.04)"/>
</clipPath>
</defs>
</svg>
