<svg width="43" height="23" viewBox="0 0 43 23" fill="none" xmlns="http://www.w3.org/2000/svg">
<rect width="43" height="23" fill="white"/>
<path fill-rule="evenodd" clip-rule="evenodd" d="M14.0419 11.8506C13.6322 13.5116 11.968 14.5225 10.3247 14.1083C8.68201 13.6941 7.68202 12.0117 8.09187 10.3508C8.50133 8.68963 10.1656 7.67867 11.8084 8.09278C13.4516 8.50689 14.4515 10.1895 14.0419 11.8506C14.0419 11.8506 14.4515 10.1895 14.0419 11.8506ZM12.4187 10.6588C12.4797 10.2463 12.169 10.0245 11.7441 9.87654L11.8819 9.31768L11.5454 9.2329L11.4112 9.77704C11.3227 9.75475 11.2319 9.73373 11.1416 9.71289L11.2767 9.16517L10.9404 9.08039L10.8025 9.63906C10.7292 9.6222 10.6574 9.60554 10.5876 9.588L10.588 9.58626L10.1239 9.46912L10.0343 9.83246C10.0343 9.83246 10.284 9.8903 10.2788 9.89389C10.4151 9.92828 10.4397 10.0195 10.4356 10.0917L10.2786 10.7284C10.288 10.7308 10.3001 10.7343 10.3135 10.7397C10.3023 10.7369 10.2904 10.7338 10.278 10.7308L10.0579 11.6227C10.0412 11.6646 9.99897 11.7274 9.9037 11.7035C9.90705 11.7085 9.65909 11.6418 9.65909 11.6418L9.49203 12.0312L9.92996 12.1416C10.0114 12.1622 10.0913 12.1838 10.1699 12.2042L10.0306 12.7694L10.3667 12.8542L10.5047 12.2949C10.5965 12.3201 10.6856 12.3434 10.7729 12.3653L10.6354 12.9219L10.9719 13.0067L11.1112 12.4425C11.685 12.5523 12.1166 12.508 12.2982 11.9833C12.4446 11.5609 12.2909 11.3172 11.989 11.1583C12.2089 11.1071 12.3745 10.9608 12.4187 10.6588C12.4187 10.6588 12.3745 10.9608 12.4187 10.6588ZM11.6498 11.7488C11.5458 12.1712 10.8422 11.9428 10.614 11.8856L10.7988 11.1367C11.0269 11.1943 11.7585 11.3082 11.6498 11.7488C11.6498 11.7488 11.7585 11.3082 11.6498 11.7488ZM11.7539 10.6527C11.659 11.037 11.0733 10.8418 10.8834 10.7939L11.0509 10.1147C11.2409 10.1626 11.8527 10.2519 11.7539 10.6527C11.7539 10.6527 11.8527 10.2519 11.7539 10.6527Z" fill="#F7931A"/>
<path fill-rule="evenodd" clip-rule="evenodd" d="M16.7912 9.87625C17.0399 9.87625 17.2548 9.92131 17.4354 10.0098C17.6168 10.0991 17.7665 10.2194 17.8866 10.3708C18.0051 10.5229 18.0933 10.7007 18.1502 10.9045C18.2067 11.1088 18.2351 11.3285 18.2351 11.5636C18.2351 11.9248 18.1697 12.2661 18.0375 12.5877C17.9053 12.9099 17.726 13.1893 17.4978 13.4277C17.2699 13.6658 17.0008 13.8534 16.6904 13.9921C16.3805 14.1308 16.0436 14.2002 15.6819 14.2002C15.6351 14.2002 15.5529 14.1988 15.4367 14.1964C15.3205 14.194 15.187 14.1819 15.0375 14.1614C14.887 14.1402 14.7279 14.1088 14.5599 14.0668C14.392 14.0255 14.2325 13.9677 14.0823 13.8942L15.4253 8.18967L16.6282 8.00122L16.1473 10.0256C16.2503 9.97867 16.354 9.94233 16.4575 9.91588C16.5611 9.88982 16.6723 9.87625 16.7912 9.87625C16.7912 9.87625 16.6723 9.87625 16.7912 9.87625ZM15.7822 13.2356C15.9633 13.2356 16.134 13.1905 16.2944 13.102C16.4552 13.0135 16.594 12.8939 16.7103 12.745C16.8265 12.5954 16.9185 12.4269 16.9856 12.2386C17.0527 12.0504 17.0867 11.854 17.0867 11.6496C17.0867 11.3986 17.0452 11.2028 16.9624 11.0612C16.8797 10.9203 16.7266 10.8493 16.5044 10.8493C16.4315 10.8493 16.3377 10.8634 16.2213 10.8885C16.1046 10.9151 16.0001 10.9704 15.9065 11.0537L15.3944 13.2035C15.4253 13.209 15.4526 13.2142 15.4759 13.2192C15.4987 13.2245 15.5239 13.2283 15.549 13.2309C15.5756 13.2339 15.606 13.2355 15.6427 13.2355C15.6794 13.2355 15.7253 13.2356 15.7822 13.2356C15.7822 13.2356 15.7253 13.2356 15.7822 13.2356ZM19.2861 14.0905H18.1371L19.1074 9.96326H20.2642L19.2861 14.0905ZM19.8452 9.4604C19.6848 9.4604 19.5394 9.41215 19.4104 9.31545C19.2803 9.21933 19.2159 9.07138 19.2159 8.87198C19.2159 8.7623 19.238 8.6594 19.2817 8.56232C19.326 8.46543 19.384 8.382 19.4567 8.31108C19.5292 8.24074 19.6133 8.18454 19.7088 8.1422C19.8048 8.10053 19.907 8.0797 20.0159 8.0797C20.1761 8.0797 20.3208 8.12795 20.4502 8.22465C20.5793 8.32183 20.6441 8.46979 20.6441 8.66812C20.6441 8.77819 20.6222 8.88147 20.5781 8.97837C20.5343 9.07526 20.4763 9.15868 20.4037 9.2296C20.3317 9.30004 20.2469 9.35605 20.1516 9.398C20.0554 9.44034 19.9537 9.4604 19.8452 9.4604ZM21.0741 8.93515L22.2775 8.7467L21.982 9.96326H23.2708L23.038 10.9203H21.757L21.4158 12.364C21.3844 12.4844 21.3665 12.5968 21.3615 12.7012C21.3559 12.8061 21.369 12.8962 21.4001 12.9721C21.4309 13.0482 21.4864 13.1068 21.5669 13.1483C21.6471 13.1904 21.7618 13.2116 21.9123 13.2116C22.0362 13.2116 22.157 13.1997 22.2737 13.1761C22.3898 13.1528 22.5074 13.1204 22.6265 13.0781L22.7121 13.973C22.5569 14.0305 22.3888 14.0801 22.2076 14.1217C22.0262 14.164 21.8114 14.1843 21.5631 14.1843C21.2062 14.1843 20.9295 14.1307 20.7323 14.0241C20.5354 13.9166 20.3963 13.7698 20.313 13.584C20.2308 13.3988 20.1941 13.1854 20.2044 12.9449C20.215 12.7038 20.2509 12.4504 20.313 12.1836L21.0741 8.93515ZM23.2201 12.4429C23.2201 12.0874 23.277 11.7522 23.3908 11.4383C23.5043 11.1242 23.668 10.8495 23.8803 10.6138C24.0918 10.3792 24.3495 10.1934 24.6529 10.057C24.9548 9.92131 25.2929 9.8529 25.6654 9.8529C25.8986 9.8529 26.1069 9.87519 26.2902 9.91985C26.4742 9.96491 26.6407 10.0231 26.7913 10.0962L26.395 11.007C26.2915 10.9645 26.1841 10.9271 26.073 10.8932C25.9618 10.8586 25.8261 10.842 25.6655 10.842C25.282 10.842 24.9789 10.9756 24.7533 11.2419C24.5285 11.5085 24.4153 11.8673 24.4153 12.3173C24.4153 12.5841 24.4722 12.7997 24.5865 12.9647C24.7001 13.1298 24.9102 13.2118 25.215 13.2118C25.3655 13.2118 25.5107 13.1959 25.6498 13.1649C25.79 13.1335 25.9137 13.094 26.0227 13.0473L26.1085 13.9809C25.9631 14.0379 25.8029 14.0894 25.6271 14.1344C25.4509 14.1779 25.2412 14.2005 24.998 14.2005C24.677 14.2005 24.4053 14.153 24.183 14.0595C23.9607 13.9646 23.7769 13.8385 23.6322 13.6788C23.4867 13.5188 23.3822 13.3319 23.3176 13.1173C23.253 12.903 23.2201 12.6779 23.2201 12.4429C23.2201 12.4429 23.2201 12.6779 23.2201 12.4429ZM28.127 14.2003C27.8528 14.2003 27.6146 14.1581 27.4125 14.0744C27.2111 13.9908 27.0442 13.8735 26.9122 13.7214C26.78 13.57 26.6811 13.3907 26.6134 13.184C26.5456 12.9774 26.513 12.7487 26.513 12.498C26.513 12.1836 26.5629 11.8693 26.6639 11.5559C26.7643 11.2417 26.9134 10.9595 27.1106 10.7086C27.3063 10.4574 27.5478 10.252 27.8321 10.0918C28.1161 9.93274 28.4427 9.85271 28.8096 9.85271C29.0789 9.85271 29.3158 9.89505 29.5206 9.97867C29.7245 10.0621 29.8924 10.1804 30.0252 10.3317C30.1565 10.4839 30.2563 10.6624 30.3234 10.8694C30.3909 11.0756 30.4243 11.3049 30.4243 11.5558C30.4243 11.8692 30.375 12.1835 30.2773 12.4979C30.1794 12.8108 30.0342 13.0937 29.8425 13.3451C29.6512 13.596 29.4119 13.8013 29.1246 13.9608C28.8376 14.1203 28.5048 14.2003 28.127 14.2003ZM28.7012 10.8419C28.5309 10.8419 28.3803 10.8919 28.2514 10.9906C28.122 11.0905 28.0133 11.2161 27.9257 11.3675C27.8372 11.5196 27.7715 11.6855 27.7271 11.8658C27.6831 12.0465 27.6616 12.2173 27.6616 12.3796C27.6616 12.6415 27.7033 12.8455 27.7855 12.9923C27.8688 13.1383 28.0184 13.2117 28.2359 13.2117C28.4068 13.2117 28.5566 13.1621 28.6863 13.0623C28.8149 12.9632 28.9237 12.8375 29.012 12.6858C29.1 12.5345 29.1662 12.3681 29.2106 12.1875C29.254 12.0074 29.2761 11.8356 29.2761 11.6736C29.2761 11.4124 29.2345 11.2079 29.1516 11.0613C29.0688 10.9153 28.9185 10.8419 28.7012 10.8419ZM31.4799 14.0905H30.33L31.3002 9.96326H32.4576L31.4799 14.0905ZM32.0381 9.4604C31.8778 9.4604 31.7325 9.41215 31.6037 9.31545C31.4743 9.21933 31.4093 9.07138 31.4093 8.87198C31.4093 8.7623 31.4316 8.6594 31.4754 8.56232C31.5192 8.46543 31.5776 8.382 31.6503 8.31108C31.7224 8.24074 31.8073 8.18454 31.9025 8.1422C31.998 8.10053 32.1002 8.0797 32.2087 8.0797C32.3693 8.0797 32.5144 8.12795 32.6436 8.22465C32.7729 8.32183 32.8382 8.46979 32.8382 8.66812C32.8382 8.77819 32.815 8.88147 32.7716 8.97837C32.7282 9.07526 32.6698 9.15868 32.5975 9.2296C32.5246 9.30004 32.4408 9.35605 32.3454 9.398C32.2491 9.44034 32.1472 9.4604 32.0381 9.4604ZM32.8915 10.1513C32.9788 10.1256 33.0762 10.0945 33.1821 10.0608C33.2884 10.0271 33.4071 9.99572 33.5398 9.96743C33.671 9.93826 33.8191 9.91462 33.9819 9.89631C34.1448 9.87761 34.3303 9.8685 34.5365 9.8685C35.1425 9.8685 35.5602 10.0469 35.7908 10.4026C36.0212 10.7582 36.0611 11.245 35.9116 11.862L35.383 14.0905H34.2265L34.7387 11.9089C34.77 11.7727 34.7945 11.641 34.8126 11.5124C34.831 11.3848 34.8299 11.2724 34.8085 11.1752C34.7881 11.0791 34.74 11.0004 34.6653 10.9394C34.5895 10.8795 34.475 10.8493 34.3196 10.8493C34.1698 10.8493 34.0174 10.8656 33.8618 10.897L33.1087 14.0904H31.9517L32.8915 10.1513Z" fill="#4D4D4D"/>
</svg>
