<svg width="43" height="23" viewBox="0 0 43 23" fill="none" xmlns="http://www.w3.org/2000/svg">
<rect width="43" height="23" fill="#3498D8"/>
<path fill-rule="evenodd" clip-rule="evenodd" d="M36 1H8C6.9 1 6 1.9 6 3V20C6 21.1 6.9 22 8 22H36C37.1 22 38 21.1 38 20V3C38 1.9 37.1 1 36 1Z" fill="#3498D8"/>
<path fill-rule="evenodd" clip-rule="evenodd" d="M12.7 11.8H14.3L13.5 9.8L12.7 11.8ZM35 8H30.9L29.9 9.1L29 8H20.3L19.5 9.8L18.7 8H15.2V8.8L14.8 8H11.8L8.90002 15H12.4L12.8 13.9H13.8L14.2 15H18.1V14.2L18.4 15H20.4L20.7 14.1V15H28.7L29.7 13.9L30.6 15H34.7L32.1 11.5L35 8ZM22.9 14H21.8V10.1L20.1 14H19.1L17.4 10.1V14H15.1L14.7 12.9H12.3L11.9 14H10.6L12.7 9H14.4L16.3 13.7V9H18.2L19.7 12.4L21.1 9H23V14H22.9ZM32.8 14H31.3L30 12.3L28.5 14H24V9H28.6L30 10.6L31.5 9H32.9L30.7 11.5L32.8 14ZM25.1 10V10.9H27.6V11.9H25.1V12.9H27.9L29.2 11.4L28 10H25.1Z" fill="white"/>
</svg>
