<svg width="43" height="23" viewBox="0 0 43 23" fill="none" xmlns="http://www.w3.org/2000/svg">
<rect width="43" height="23" fill="white"/>
<path d="M35 11.8C35 16.0921 31.5334 19.6 27.2 19.6C22.908 19.6 19.4 16.0921 19.4 11.8C19.4 7.50794 22.8667 4 27.1588 4C31.5334 4 35 7.50794 35 11.8Z" fill="#FFB600"/>
<path d="M27.2 4C31.4921 4 35 7.50794 35 11.8C35 16.0921 31.5334 19.6 27.2 19.6C22.908 19.6 19.4 16.0921 19.4 11.8" fill="#F7981D"/>
<path d="M27.2 4C31.492 4 35 7.50794 35 11.8C35 16.0921 31.5333 19.6 27.2 19.6" fill="#FF8500"/>
<path d="M16.7175 4C12.4667 4.04127 9 7.50794 9 11.8C9 16.0921 12.4667 19.6 16.8 19.6C18.8222 19.6 20.6381 18.8159 22.0413 17.5778C22.3302 17.3302 22.5778 17.0413 22.8254 16.7524H21.2159C21.0095 16.5048 20.8032 16.2159 20.6381 15.9683H23.4032C23.5683 15.7206 23.7333 15.4317 23.8571 15.1429H20.1841C20.0603 14.8952 19.9365 14.6063 19.854 14.3175H24.146C24.3937 13.5333 24.5587 12.7079 24.5587 11.8413C24.5587 11.2635 24.4762 10.727 24.3937 10.1905H19.6063C19.6476 9.90159 19.7302 9.65397 19.8127 9.36508H24.1048C24.0222 9.07619 23.8984 8.7873 23.7746 8.53968H20.1429C20.2667 8.25079 20.4317 8.00317 20.5968 7.71429H23.3619C23.1968 7.4254 22.9905 7.13651 22.7429 6.88889H21.2159C21.4635 6.6 21.7111 6.35238 22 6.10476C20.6381 4.8254 18.781 4.08254 16.7587 4.08254C16.7587 4 16.7587 4 16.7175 4Z" fill="#FF5050"/>
<path d="M9 11.8C9 16.092 12.4667 19.6 16.8 19.6C18.8222 19.6 20.6381 18.8159 22.0413 17.5778C22.3302 17.3301 22.5778 17.0413 22.8254 16.7524H21.2159C21.0095 16.5047 20.8032 16.2159 20.6381 15.9682H23.4032C23.5683 15.7206 23.7333 15.4317 23.8571 15.1428H20.1841C20.0603 14.8952 19.9365 14.6063 19.854 14.3174H24.146C24.3937 13.5333 24.5587 12.7079 24.5587 11.8412C24.5587 11.2635 24.4762 10.727 24.3937 10.1905H19.6063C19.6476 9.90157 19.7302 9.65395 19.8127 9.36506H24.1048C24.0222 9.07617 23.8984 8.78728 23.7746 8.53966H20.1429C20.2667 8.25077 20.4317 8.00315 20.5968 7.71427H23.3619C23.1968 7.42538 22.9905 7.13649 22.7429 6.88887H21.2159C21.4635 6.59998 21.7111 6.35236 22 6.10474C20.6381 4.82538 18.781 4.08252 16.7587 4.08252H16.7175" fill="#E52836"/>
<path d="M16.8001 19.6C18.8223 19.6 20.6382 18.8159 22.0413 17.5778C22.3302 17.3301 22.5778 17.0413 22.8255 16.7524H21.2159C21.0096 16.5047 20.8032 16.2159 20.6382 15.9682H23.4032C23.5683 15.7206 23.7334 15.4317 23.8572 15.1428H20.1842C20.0604 14.8952 19.9366 14.6063 19.854 14.3174H24.1461C24.3937 13.5333 24.5588 12.7079 24.5588 11.8412C24.5588 11.2635 24.4763 10.727 24.3937 10.1905H19.6064C19.6477 9.90157 19.7302 9.65395 19.8128 9.36506H24.1048C24.0223 9.07617 23.8985 8.78728 23.7747 8.53966H20.1429C20.2667 8.25077 20.4318 8.00315 20.5969 7.71427H23.362C23.1969 7.42538 22.9905 7.13649 22.7429 6.88887H21.2159C21.4636 6.59998 21.7112 6.35236 22.0001 6.10474C20.6382 4.82538 18.781 4.08252 16.7588 4.08252H16.7175" fill="#CB2026"/>
<path d="M19.5647 13.7816L19.6886 13.0801C19.6473 13.0801 19.5647 13.1213 19.4822 13.1213C19.1933 13.1213 19.152 12.9563 19.1933 12.8737L19.4409 11.4293H19.8949L20.0187 10.6451H19.606L19.6886 10.1499H18.8632C18.8632 10.1499 18.3679 12.8737 18.3679 13.2039C18.3679 13.6991 18.6568 13.9055 19.0282 13.9055C19.2759 13.9055 19.4822 13.8229 19.5647 13.7816Z" fill="white"/>
<path d="M19.8533 12.4605C19.8533 13.6161 20.6374 13.905 21.2977 13.905C21.9168 13.905 22.1644 13.7811 22.1644 13.7811L22.3295 12.997C22.3295 12.997 21.8755 13.2034 21.4628 13.2034C20.5549 13.2034 20.7199 12.543 20.7199 12.543H22.412C22.412 12.543 22.5358 12.0065 22.5358 11.8002C22.5358 11.2637 22.2469 10.6034 21.339 10.6034C20.4723 10.5208 19.8533 11.4288 19.8533 12.4605ZM21.2977 11.2637C21.7517 11.2637 21.6691 11.8002 21.6691 11.8415H20.7612C20.7612 11.8002 20.8437 11.2637 21.2977 11.2637Z" fill="white"/>
<path d="M26.5397 13.781L26.7048 12.8731C26.7048 12.8731 26.2921 13.0794 26.0032 13.0794C25.4255 13.0794 25.1778 12.6255 25.1778 12.1302C25.1778 11.1397 25.6731 10.6032 26.2508 10.6032C26.6635 10.6032 26.9937 10.8508 26.9937 10.8508L27.1175 9.98418C27.1175 9.98418 26.6223 9.77783 26.1683 9.77783C25.2191 9.77783 24.2699 10.6032 24.2699 12.1715C24.2699 13.2032 24.7651 13.9048 25.7556 13.9048C26.0858 13.9048 26.5397 13.781 26.5397 13.781Z" fill="white"/>
<path d="M15.0255 10.5205C14.4478 10.5205 14.0351 10.6856 14.0351 10.6856L13.9112 11.3872C13.9112 11.3872 14.2827 11.2221 14.8192 11.2221C15.1081 11.2221 15.3557 11.2634 15.3557 11.511C15.3557 11.6761 15.3144 11.7173 15.3144 11.7173C15.3144 11.7173 15.0668 11.7173 14.943 11.7173C14.2414 11.7173 13.4573 12.0062 13.4573 12.9554C13.4573 13.6983 13.9525 13.8634 14.2414 13.8634C14.8192 13.8634 15.0668 13.4919 15.1081 13.4919L15.0668 13.8221H15.8097L16.1398 11.5523C16.1398 10.5618 15.3144 10.5205 15.0255 10.5205ZM15.1906 12.3777C15.1906 12.5015 15.1081 13.1618 14.6128 13.1618C14.3652 13.1618 14.2827 12.9554 14.2827 12.8316C14.2827 12.6253 14.4065 12.3364 15.0255 12.3364C15.1493 12.3777 15.1906 12.3777 15.1906 12.3777Z" fill="white"/>
<path d="M16.9241 13.8641C17.1304 13.8641 18.1622 13.9054 18.1622 12.7911C18.1622 11.7593 17.1717 11.9657 17.1717 11.553C17.1717 11.3466 17.3368 11.2641 17.6256 11.2641C17.7495 11.2641 18.2034 11.3054 18.2034 11.3054L18.3272 10.5625C18.3272 10.5625 18.0383 10.48 17.5431 10.48C16.9241 10.48 16.305 10.7276 16.305 11.553C16.305 12.5022 17.3368 12.4197 17.3368 12.7911C17.3368 13.0387 17.0479 13.08 16.8415 13.08C16.4701 13.08 16.0987 12.9562 16.0987 12.9562L15.9749 13.699C16.0161 13.7816 16.2225 13.8641 16.9241 13.8641Z" fill="white"/>
<path d="M33.3902 9.86035L33.2251 10.9746C33.2251 10.9746 32.895 10.5619 32.441 10.5619C31.6982 10.5619 31.0378 11.4699 31.0378 12.5429C31.0378 13.2032 31.368 13.9048 32.0696 13.9048C32.5648 13.9048 32.8537 13.5746 32.8537 13.5746L32.8124 13.8635H33.6378L34.2569 9.90162L33.3902 9.86035ZM33.0188 12.0477C33.0188 12.5016 32.8124 13.0794 32.3585 13.0794C32.0696 13.0794 31.9045 12.8318 31.9045 12.4191C31.9045 11.7588 32.1934 11.3461 32.5648 11.3461C32.8537 11.3461 33.0188 11.5524 33.0188 12.0477Z" fill="white"/>
<path d="M10.5268 13.8223L11.022 10.8508L11.1046 13.8223H11.6824L12.7554 10.8508L12.3014 13.8223H13.1681L13.8284 9.86035H12.4665L11.6411 12.2953L11.5998 9.86035H10.403L9.74268 13.8223H10.5268Z" fill="white"/>
<path d="M23.3205 13.8221C23.5682 12.4602 23.6094 11.3459 24.1872 11.5522C24.2697 11.0157 24.3936 10.8094 24.4761 10.603C24.4761 10.603 24.4348 10.603 24.311 10.603C23.9396 10.603 23.6507 11.0983 23.6507 11.0983L23.7332 10.6443H22.9491L22.4126 13.8633H23.3205V13.8221Z" fill="white"/>
<path d="M28.4381 10.5205C27.8603 10.5205 27.4477 10.6856 27.4477 10.6856L27.3238 11.3872C27.3238 11.3872 27.6953 11.2221 28.2318 11.2221C28.5207 11.2221 28.7683 11.2634 28.7683 11.511C28.7683 11.6761 28.727 11.7173 28.727 11.7173C28.727 11.7173 28.4794 11.7173 28.3556 11.7173C27.654 11.7173 26.8699 12.0062 26.8699 12.9554C26.8699 13.6983 27.3651 13.8634 27.654 13.8634C28.2318 13.8634 28.4794 13.4919 28.5207 13.4919L28.4794 13.8221H29.2223L29.5524 11.5523C29.5937 10.5618 28.727 10.5205 28.4381 10.5205ZM28.6445 12.3777C28.6445 12.5015 28.5619 13.1618 28.0667 13.1618C27.8191 13.1618 27.7365 12.9554 27.7365 12.8316C27.7365 12.6253 27.8603 12.3364 28.4794 12.3364C28.6032 12.3777 28.6032 12.3777 28.6445 12.3777Z" fill="white"/>
<path d="M30.2534 13.8221C30.501 12.4602 30.5423 11.3459 31.1201 11.5522C31.2026 11.0157 31.3264 10.8094 31.409 10.603C31.409 10.603 31.3677 10.603 31.2439 10.603C30.8724 10.603 30.5836 11.0983 30.5836 11.0983L30.6661 10.6443H29.882L29.3455 13.8633H30.2534V13.8221Z" fill="white"/>
<path d="M18.2854 13.2039C18.2854 13.6991 18.5743 13.9055 18.9457 13.9055C19.2346 13.9055 19.4822 13.8229 19.5648 13.7816L19.6886 13.0801C19.6473 13.0801 19.5648 13.1213 19.4822 13.1213C19.1933 13.1213 19.1521 12.9563 19.1933 12.8737L19.441 11.4293H19.8949L20.0187 10.6451H19.606L19.6886 10.1499" fill="#DCE5E5"/>
<path d="M20.2671 12.4605C20.2671 13.6161 20.6385 13.905 21.2988 13.905C21.9179 13.905 22.1655 13.7811 22.1655 13.7811L22.3306 12.997C22.3306 12.997 21.8766 13.2034 21.4639 13.2034C20.556 13.2034 20.7211 12.543 20.7211 12.543H22.4131C22.4131 12.543 22.5369 12.0065 22.5369 11.8002C22.5369 11.2637 22.248 10.6034 21.3401 10.6034C20.4734 10.5208 20.2671 11.4288 20.2671 12.4605ZM21.2988 11.2637C21.7528 11.2637 21.8353 11.8002 21.8353 11.8415H20.7623C20.7623 11.8002 20.8449 11.2637 21.2988 11.2637Z" fill="#DCE5E5"/>
<path d="M26.5396 13.781L26.7047 12.8731C26.7047 12.8731 26.292 13.0794 26.0031 13.0794C25.4254 13.0794 25.1777 12.6255 25.1777 12.1302C25.1777 11.1397 25.673 10.6032 26.2507 10.6032C26.6634 10.6032 26.9936 10.8508 26.9936 10.8508L27.1174 9.98418C27.1174 9.98418 26.6222 9.77783 26.1682 9.77783C25.219 9.77783 24.6825 10.6032 24.6825 12.1715C24.6825 13.2032 24.765 13.9048 25.7555 13.9048C26.0857 13.9048 26.5396 13.781 26.5396 13.781Z" fill="#DCE5E5"/>
<path d="M13.9112 11.4284C13.9112 11.4284 14.2827 11.2633 14.8192 11.2633C15.1081 11.2633 15.3557 11.3046 15.3557 11.5522C15.3557 11.7173 15.3144 11.7586 15.3144 11.7586C15.3144 11.7586 15.0668 11.7586 14.943 11.7586C14.2414 11.7586 13.4573 12.0475 13.4573 12.9967C13.4573 13.7395 13.9525 13.9046 14.2414 13.9046C14.8192 13.9046 15.0668 13.5332 15.1081 13.5332L15.0668 13.8633H15.8097L16.1398 11.5935C16.1398 10.6443 15.3144 10.603 14.9843 10.603L13.9112 11.4284ZM15.6033 12.3776C15.6033 12.5014 15.1081 13.1618 14.6128 13.1618C14.3652 13.1618 14.2827 12.9554 14.2827 12.8316C14.2827 12.6252 14.4065 12.3364 15.0255 12.3364C15.1493 12.3776 15.6033 12.3776 15.6033 12.3776Z" fill="#DCE5E5"/>
<path d="M16.0154 13.7816C16.0154 13.7816 16.263 13.8641 16.9646 13.8641C17.1709 13.8641 18.2027 13.9054 18.2027 12.7911C18.2027 11.7593 17.2122 11.9657 17.2122 11.553C17.2122 11.3466 17.3773 11.2641 17.6662 11.2641C17.79 11.2641 18.244 11.3054 18.244 11.3054L18.3678 10.5625C18.3678 10.5625 18.0789 10.48 17.5836 10.48C16.9646 10.48 16.7582 10.7276 16.7582 11.553C16.7582 12.5022 17.3773 12.4197 17.3773 12.7911C17.3773 13.0387 17.0884 13.08 16.882 13.08" fill="#DCE5E5"/>
<path d="M33.2255 10.9754C33.2255 10.9754 32.8953 10.5627 32.4413 10.5627C31.6985 10.5627 31.4509 11.4706 31.4509 12.5436C31.4509 13.2039 31.3683 13.9055 32.0699 13.9055C32.5652 13.9055 32.854 13.5754 32.854 13.5754L32.8128 13.8642H33.6382L34.2572 9.90234L33.2255 10.9754ZM33.1842 12.0484C33.1842 12.5023 32.8128 13.0801 32.3588 13.0801C32.0699 13.0801 31.9048 12.8325 31.9048 12.4198C31.9048 11.7595 32.1937 11.3468 32.5652 11.3468C32.854 11.3468 33.1842 11.5531 33.1842 12.0484Z" fill="#DCE5E5"/>
<path d="M10.5268 13.8223L11.022 10.8508L11.1046 13.8223H11.6824L12.7554 10.8508L12.3014 13.8223H13.1681L13.8284 9.86035H12.7966L11.6411 12.2953L11.5998 9.86035H11.1459L9.74268 13.8223H10.5268Z" fill="#DCE5E5"/>
<path d="M22.4532 13.8221H23.3199C23.5675 12.4602 23.6088 11.3459 24.1866 11.5522C24.2691 11.0157 24.3929 10.8094 24.4755 10.603C24.4755 10.603 24.4342 10.603 24.3104 10.603C23.939 10.603 23.6501 11.0983 23.6501 11.0983L23.7326 10.6443" fill="#DCE5E5"/>
<path d="M27.3238 11.4284C27.3238 11.4284 27.6953 11.2633 28.2318 11.2633C28.5207 11.2633 28.7683 11.3046 28.7683 11.5522C28.7683 11.7173 28.727 11.7586 28.727 11.7586C28.727 11.7586 28.4794 11.7586 28.3556 11.7586C27.654 11.7586 26.8699 12.0475 26.8699 12.9967C26.8699 13.7395 27.3651 13.9046 27.654 13.9046C28.2318 13.9046 28.4794 13.5332 28.5207 13.5332L28.4794 13.8633H29.2223L29.5524 11.5935C29.5524 10.6443 28.727 10.603 28.3969 10.603L27.3238 11.4284ZM29.0159 12.3776C29.0159 12.5014 28.5207 13.1618 28.0254 13.1618C27.7778 13.1618 27.6953 12.9554 27.6953 12.8316C27.6953 12.6252 27.8191 12.3364 28.4381 12.3364C28.6032 12.3776 29.0159 12.3776 29.0159 12.3776Z" fill="#DCE5E5"/>
<path d="M29.3875 13.8221H30.2541C30.5017 12.4602 30.543 11.3459 31.1208 11.5522C31.2033 11.0157 31.3271 10.8094 31.4097 10.603C31.4097 10.603 31.3684 10.603 31.2446 10.603C30.8732 10.603 30.5843 11.0983 30.5843 11.0983L30.6668 10.6443" fill="#DCE5E5"/>
</svg>
