<svg width="43" height="23" viewBox="0 0 43 23" fill="none" xmlns="http://www.w3.org/2000/svg">
<rect width="43" height="23" fill="white"/>
<path d="M18.079 7.14844L16.7944 14.9548H18.8201L20.1047 7.14844H18.079Z" fill="#0072FF"/>
<path d="M29.7884 7.14844C29.2944 7.14844 28.9485 7.29666 28.7509 7.79073L25.7371 15.0042H27.8616C27.8616 15.0042 28.2074 14.016 28.3062 13.8184C28.5533 13.8184 30.579 13.8184 30.8754 13.8184C30.9248 14.1148 31.1224 15.0042 31.1224 15.0042H32.9999L31.3695 7.14844H29.7884ZM28.8497 12.188C28.9979 11.7433 29.6402 10.0141 29.6402 10.0141C29.6402 10.0141 29.7884 9.56939 29.8873 9.27294L30.0355 9.96464C30.0355 9.96464 30.4307 11.8421 30.5296 12.2374H28.8497V12.188Z" fill="#0072FF"/>
<path d="M24.1561 10.3103C23.4644 9.96443 23.0197 9.71739 23.0197 9.32213C23.0197 8.97628 23.3656 8.63044 24.1561 8.63044C24.7984 8.63044 25.2925 8.77866 25.6877 8.92688L25.8853 9.02569L26.1818 7.34585C25.7865 7.19763 25.1442 7 24.3537 7C22.3774 7 20.9446 8.08696 20.9446 9.56917C20.9446 10.7055 21.9328 11.3478 22.7233 11.6937C23.5138 12.0889 23.7608 12.336 23.7608 12.6818C23.7608 13.2253 23.1185 13.4229 22.5257 13.4229C21.7351 13.4229 21.2905 13.3241 20.5988 13.0277L20.3517 12.8794L20.0553 14.6087C20.5494 14.8063 21.3893 15.004 22.328 15.004C24.4525 15.004 25.8359 13.9664 25.8359 12.336C25.8853 11.5455 25.3419 10.8538 24.1561 10.3103Z" fill="#0072FF"/>
<path d="M15.1146 7.14844L13.1383 12.4844L12.9407 11.3974L12.249 7.79073C12.1502 7.29666 11.7549 7.14844 11.3103 7.14844H8.09881C8.04941 7.14844 8.04941 7.19784 8 7.19784C8 7.24725 8 7.29666 8.04941 7.29666C8.54348 7.44488 8.98814 7.5931 9.3834 7.79073C9.82806 7.98836 10.1245 8.38362 10.2727 8.82828L11.9032 14.9548H14.0277L17.1897 7.14844H15.1146Z" fill="#0072FF"/>
</svg>
