<svg width="43" height="23" viewBox="0 0 43 23" fill="none" xmlns="http://www.w3.org/2000/svg">
<rect width="43" height="23" fill="white"/>
<path fill-rule="evenodd" clip-rule="evenodd" d="M37.6745 7H36.7388C36.7382 7 36.7377 7.00017 36.7374 7.00017L36.7368 7C36.5227 7 36.3053 7.15974 36.2446 7.36296C36.2422 7.37118 36.238 7.37906 36.236 7.38762C36.236 7.38762 36.2137 7.48675 36.175 7.65813L34.8897 13.3303C34.86 13.4585 34.8402 13.5421 34.8342 13.5638L34.8366 13.5669C34.7922 13.7652 34.9145 13.9292 35.1155 13.9475L35.1182 13.9513H36.0894C36.3021 13.9513 36.5181 13.7931 36.5807 13.5924C36.5837 13.5827 36.5884 13.5736 36.5907 13.5638L37.9927 7.38728L37.9906 7.38659C38.0383 7.17532 37.8985 7 37.6745 7ZM32.8751 12.5747C32.7453 12.6543 32.6082 12.7225 32.4645 12.7805C32.2714 12.8563 32.0884 12.8961 31.919 12.8961C31.6591 12.8961 31.4594 12.8603 31.3243 12.7838C31.1891 12.7112 31.1182 12.585 31.1205 12.4044C31.1205 12.1958 31.1699 12.034 31.2723 11.9072C31.3753 11.7851 31.5285 11.6868 31.7184 11.6135C31.9073 11.5512 32.1396 11.4999 32.4077 11.463C32.6462 11.4338 33.1176 11.3809 33.1779 11.3805C33.2382 11.38 33.2783 11.3476 33.2514 11.5041C33.2395 11.5721 33.1034 12.1162 33.0409 12.3636C33.0228 12.4377 32.9215 12.5458 32.8751 12.5747C32.8751 12.5747 32.9215 12.5458 32.8751 12.5747ZM34.7254 8.75057C34.3283 8.53484 33.7072 8.42578 32.8574 8.42578C32.4371 8.42578 32.0147 8.45865 31.5909 8.52269C31.2798 8.56909 31.2478 8.57679 31.0546 8.61771C30.657 8.70194 30.5956 9.08956 30.5956 9.08956L30.468 9.60079C30.3955 9.9278 30.5868 9.91428 30.6721 9.88894C30.8457 9.83792 30.9398 9.78724 31.2939 9.70917C31.6324 9.63435 31.9901 9.57837 32.2755 9.58059C32.694 9.58059 33.0123 9.62528 33.2238 9.71122C33.4355 9.80111 33.5403 9.95417 33.5403 10.1731C33.541 10.2252 33.5425 10.2743 33.5231 10.3173C33.5057 10.3574 33.4723 10.3961 33.3722 10.4092C32.7749 10.4438 32.3462 10.4969 31.8299 10.5702C31.3205 10.64 30.8747 10.7597 30.5021 10.9254C30.1048 11.097 29.8077 11.3266 29.6028 11.6175C29.4034 11.9097 29.3031 12.2636 29.3026 12.6805C29.3026 13.0745 29.448 13.3958 29.7294 13.6453C30.0141 13.8915 30.3844 14.0134 30.8325 14.0134C31.1124 14.0115 31.3315 13.9918 31.4886 13.9536C31.644 13.9154 31.8135 13.8612 31.9925 13.7857C32.1264 13.7312 32.2707 13.6525 32.4232 13.5537C32.5758 13.4546 32.6815 13.3842 32.8171 13.2977L32.822 13.3059L32.7839 13.4698C32.7837 13.4713 32.7814 13.4722 32.7814 13.4737L32.7826 13.4768C32.739 13.6742 32.8609 13.8384 33.0617 13.8577L33.0642 13.8612H33.0819L33.0826 13.862C33.2159 13.862 33.6735 13.8619 33.8873 13.8612H34.0366C34.0464 13.8612 34.0475 13.8583 34.0514 13.856C34.2564 13.8316 34.453 13.6689 34.4992 13.4737L35.2629 10.2644C35.2805 10.1889 35.2944 10.1018 35.3027 10.0014C35.3122 9.90007 35.3234 9.81669 35.3201 9.75642C35.3218 9.3022 35.1214 8.96646 34.7254 8.75057ZM30.1266 8.01955C29.9963 7.77267 29.7995 7.57389 29.5507 7.41912C29.2955 7.26469 28.9924 7.157 28.6414 7.09417C28.2943 7.03493 27.8816 7.00103 27.4113 7L25.2235 7.00103C24.9982 7.00479 24.7772 7.17703 24.7251 7.38916L23.2542 13.6215C23.2005 13.8333 23.3468 14.0098 23.568 14.0086L24.6178 14.0068C24.8405 14.0086 25.0673 13.8333 25.1199 13.6215L25.4747 12.1091C25.5245 11.8971 25.7508 11.7196 25.9771 11.7226H26.2756C27.5561 11.7226 28.5489 11.4665 29.2598 10.9567C29.969 10.4442 30.326 9.77205 30.326 8.93604C30.3237 8.57102 30.2599 8.26353 30.1266 8.01955ZM27.8694 10.058C27.5561 10.2799 27.1163 10.3911 26.5504 10.3911H26.2901C26.0651 10.3937 25.9196 10.2165 25.9731 10.004L26.2868 8.68128C26.3336 8.47206 26.562 8.294 26.7839 8.29571L27.1277 8.294C27.529 8.29571 27.8292 8.36112 28.0365 8.49106C28.2403 8.62255 28.3391 8.82646 28.3407 9.09817C28.3416 9.51233 28.1842 9.83095 27.8694 10.058Z" fill="#306FC5"/>
<path fill-rule="evenodd" clip-rule="evenodd" d="M22.7652 8.42581C22.566 8.42581 22.3047 8.58373 22.181 8.77458C22.181 8.77458 20.8484 11.0124 20.7175 11.236C20.6464 11.3562 20.5743 11.2798 20.5623 11.2351C20.5526 11.1807 20.1493 8.78928 20.1493 8.78928C20.1039 8.59675 19.8986 8.43148 19.6419 8.43224L18.8109 8.43347C18.6106 8.43347 18.4856 8.59062 18.5302 8.78055C18.5302 8.78055 19.1654 12.3071 19.2892 13.1365C19.351 13.5953 19.2828 13.6766 19.2828 13.6766L18.4594 15.083C18.3388 15.2737 18.4048 15.4299 18.6042 15.4299L19.5671 15.4292C19.7665 15.4292 20.0306 15.2737 20.1493 15.0827L23.8538 8.94567C23.8538 8.94567 24.2081 8.42137 23.8813 8.42581C23.6584 8.42887 22.7652 8.42581 22.7652 8.42581ZM15.8103 12.5747C15.6805 12.6543 15.5435 12.7221 15.3999 12.7803C15.2068 12.8558 15.0229 12.8959 14.854 12.8959C14.5948 12.8959 14.3946 12.8599 14.2593 12.7838C14.1243 12.711 14.0531 12.5848 14.0553 12.404C14.0553 12.196 14.1053 12.0337 14.2075 11.907C14.3107 11.7847 14.4631 11.6863 14.6531 11.6132C14.8424 11.5505 15.0754 11.4999 15.3427 11.463C15.5812 11.4338 16.0531 11.381 16.1133 11.3802C16.1731 11.38 16.2133 11.3473 16.1864 11.5038C16.1748 11.5718 16.0385 12.1162 15.9761 12.3634C15.9573 12.4379 15.856 12.5459 15.8103 12.5747C15.8103 12.5747 15.856 12.5459 15.8103 12.5747ZM17.6606 8.7504C17.2635 8.53467 16.6426 8.42578 15.7927 8.42578C15.3723 8.42578 14.9501 8.45831 14.5261 8.52252C14.2145 8.56857 14.1832 8.57645 13.9898 8.61737C13.592 8.70194 13.5308 9.08922 13.5308 9.08922L13.4031 9.60079C13.3309 9.92763 13.5224 9.91411 13.6073 9.88877C13.7805 9.83775 13.8751 9.78724 14.2293 9.70883C14.5672 9.63435 14.9254 9.57854 15.2105 9.58042C15.6294 9.58042 15.9473 9.62494 16.1588 9.71088C16.3707 9.80077 16.475 9.95417 16.475 10.173C16.4764 10.225 16.4775 10.2743 16.4586 10.317C16.4409 10.3574 16.4071 10.3959 16.3071 10.4089C15.7104 10.444 15.2819 10.4969 14.7647 10.5702C14.2553 10.64 13.8097 10.7597 13.4369 10.9253C13.0397 11.0968 12.7428 11.3268 12.5383 11.6175C12.3382 11.9096 12.2382 12.2634 12.2378 12.6805C12.2378 13.0743 12.3834 13.3958 12.6644 13.6451C12.9493 13.8913 13.3193 14.0134 13.7673 14.0134C14.0474 14.0115 14.2664 13.9915 14.4239 13.9536C14.5792 13.9151 14.7489 13.8612 14.9272 13.7857C15.0615 13.7312 15.2056 13.6521 15.3582 13.5535C15.5105 13.4546 15.6167 13.3842 15.7528 13.2977L15.757 13.3058L15.7189 13.4694C15.7185 13.471 15.7164 13.472 15.7164 13.4739L15.718 13.4765C15.6744 13.6744 15.7959 13.8384 15.9969 13.8574L15.9993 13.8612H16.0169L16.0174 13.8624C16.1511 13.8624 16.6088 13.8617 16.8221 13.8612H16.9716C16.9816 13.8612 16.983 13.8579 16.9862 13.8559C17.1917 13.8307 17.3876 13.6684 17.4344 13.4739L18.1981 10.2642C18.2154 10.1889 18.2294 10.1018 18.2372 10.0016C18.2474 9.89973 18.2584 9.81669 18.2554 9.7566C18.2572 9.30203 18.0564 8.96629 17.6606 8.7504ZM12.8835 8.01955C12.7532 7.77267 12.5565 7.57389 12.3077 7.41912C12.0525 7.26469 11.7493 7.157 11.3983 7.09417C11.0512 7.03493 10.6385 7.00103 10.1683 7L7.98042 7.00103C7.75516 7.00479 7.53412 7.17703 7.48207 7.38916L6.01111 13.6215C5.95748 13.8333 6.10378 14.0098 6.325 14.0086L7.3748 14.0068C7.59742 14.0086 7.82427 13.8333 7.87684 13.6215L8.2317 12.1091C8.28147 11.8971 8.50778 11.7196 8.7341 11.7226H9.03251C10.313 11.7226 11.3059 11.4665 12.0168 10.9567C12.726 10.4442 13.083 9.77206 13.083 8.93604C13.0807 8.57102 13.0168 8.26353 12.8835 8.01955ZM10.6264 10.058C10.313 10.2799 9.87323 10.3911 9.30736 10.3911H9.0471C8.82202 10.3937 8.67659 10.2165 8.73005 10.004L9.04376 8.68128C9.09054 8.47206 9.31896 8.294 9.54088 8.29571L9.88466 8.294C10.2859 8.29571 10.5861 8.36112 10.7934 8.49106C10.9972 8.62255 11.0961 8.82646 11.0977 9.09817C11.0985 9.51233 10.9411 9.83095 10.6264 10.058Z" fill="#265697"/>
</svg>
