<svg width="43" height="23" viewBox="0 0 43 23" fill="none" xmlns="http://www.w3.org/2000/svg">
<rect width="43" height="23" fill="white"/>
<path d="M22.0419 11.7579C23.6168 11.7579 24.8935 10.4812 24.8935 8.9063C24.8935 7.3314 23.6168 6.05469 22.0419 6.05469C20.467 6.05469 19.1903 7.3314 19.1903 8.9063C19.1903 10.4812 20.467 11.7579 22.0419 11.7579Z" fill="#EF9122"/>
<path d="M19.1903 8.9063C19.1903 7.31598 20.4516 6.05469 22.0419 6.05469C23.6322 6.05469 24.8935 7.31598 24.8935 8.9063C24.8935 10.4966 23.6322 11.7579 22.0419 11.7579" fill="#F26E21"/>
<path d="M20.0677 6.87727C21.1645 5.78049 22.9742 5.78049 24.071 6.87727C25.1677 7.97404 25.1677 9.78372 24.071 10.8805" fill="#F44500"/>
<path d="M5.53548 6.21924H4V11.5934H5.53548C6.35806 11.5934 6.96129 11.3741 7.45484 10.9902C8.05806 10.4967 8.44194 9.72892 8.44194 8.90633C8.44194 7.31601 7.29032 6.21924 5.53548 6.21924ZM6.79677 10.2773C6.46774 10.5515 6.02903 10.716 5.37097 10.716H5.04194V7.1515H5.31613C5.97419 7.1515 6.4129 7.26117 6.74194 7.59021C7.12581 7.91924 7.34516 8.41279 7.34516 8.90633C7.4 9.39988 7.18064 9.94827 6.79677 10.2773Z" fill="#595A5B"/>
<path d="M9.97736 6.21924H8.93542V11.5934H9.97736V6.21924Z" fill="#595A5B"/>
<path d="M12.6097 8.30326C11.9516 8.08391 11.7871 7.91939 11.7871 7.6452C11.7871 7.31616 12.1161 7.04197 12.5548 7.04197C12.8839 7.04197 13.1581 7.15165 13.4323 7.48068L13.9807 6.76778C13.5419 6.38391 12.9936 6.16455 12.3903 6.16455C11.4581 6.16455 10.6903 6.82262 10.6903 7.70004C10.6903 8.46778 11.0194 8.79681 12.0065 9.18068C12.4452 9.3452 12.6097 9.40003 12.7194 9.50971C12.9387 9.61939 13.0484 9.83874 13.0484 10.0581C13.0484 10.4968 12.7194 10.8258 12.2258 10.8258C11.7323 10.8258 11.2936 10.5516 11.0742 10.1129L10.4161 10.771C10.9097 11.4839 11.5129 11.8129 12.2807 11.8129C13.3774 11.8129 14.1452 11.1 14.1452 10.0581C14.1452 9.12584 13.8161 8.74197 12.6097 8.30326Z" fill="#595A5B"/>
<path d="M14.4742 8.90645C14.4742 10.4968 15.7355 11.7032 17.3259 11.7032C17.7646 11.7032 18.1484 11.5935 18.642 11.3742V10.1129C18.2033 10.5516 17.8194 10.7161 17.3807 10.7161C16.3388 10.7161 15.571 9.94839 15.571 8.85161C15.571 7.80968 16.3388 6.9871 17.3259 6.9871C17.8194 6.9871 18.2033 7.15161 18.642 7.59032V6.32903C18.2033 6.10968 17.8194 6 17.3259 6C15.7904 6.10968 14.4742 7.37097 14.4742 8.90645Z" fill="#3B3D3F"/>
<path d="M27.2516 9.83859L25.8258 6.21924H24.6742L26.9226 11.7579H27.5258L29.8839 6.21924H28.7323L27.2516 9.83859Z" fill="black"/>
<path d="M30.3226 11.5934H33.3388V10.716H31.4194V9.23537H33.2839V8.30311H31.4194V7.1515H33.3388V6.21924H30.3226V11.5934Z" fill="black"/>
<path d="M36.3 9.34505C37.1226 9.18053 37.5613 8.63214 37.5613 7.80956C37.5613 6.82246 36.8484 6.21924 35.642 6.21924H34.0516V11.5934H35.0936V9.45472H35.2581L36.7387 11.5934H38L36.3 9.34505ZM35.4226 8.68698H35.0936V7.04182H35.4226C36.0807 7.04182 36.4645 7.31601 36.4645 7.8644C36.4645 8.41279 36.0807 8.68698 35.4226 8.68698Z" fill="#595A5B"/>
<path d="M5.53548 6.21924H4V11.5934H5.53548C6.35806 11.5934 6.96129 11.3741 7.45484 10.9902C8.05806 10.4967 8.44194 9.72892 8.44194 8.90633C8.44194 7.31601 7.29032 6.21924 5.53548 6.21924ZM6.79677 10.2773C6.46774 10.5515 6.02903 10.716 5.37097 10.716H5.04194V7.1515H5.31613C5.97419 7.1515 6.4129 7.26117 6.74194 7.59021C7.12581 7.91924 7.34516 8.41279 7.34516 8.90633C7.4 9.39988 7.18064 9.94827 6.79677 10.2773Z" fill="#595A5B"/>
<path d="M9.97736 6.21924H8.93542V11.5934H9.97736V6.21924Z" fill="#595A5B"/>
<path d="M12.6097 8.30326C11.9516 8.08391 11.7871 7.91939 11.7871 7.6452C11.7871 7.31616 12.1161 7.04197 12.5548 7.04197C12.8839 7.04197 13.1581 7.15165 13.4323 7.48068L13.9807 6.76778C13.5419 6.38391 12.9936 6.16455 12.3903 6.16455C11.4581 6.16455 10.6903 6.82262 10.6903 7.70004C10.6903 8.46778 11.0194 8.79681 12.0065 9.18068C12.4452 9.3452 12.6097 9.40003 12.7194 9.50971C12.9387 9.61939 13.0484 9.83874 13.0484 10.0581C13.0484 10.4968 12.7194 10.8258 12.2258 10.8258C11.7323 10.8258 11.2936 10.5516 11.0742 10.1129L10.4161 10.771C10.9097 11.4839 11.5129 11.8129 12.2807 11.8129C13.3774 11.8129 14.1452 11.1 14.1452 10.0581C14.1452 9.12584 13.8161 8.74197 12.6097 8.30326Z" fill="#595A5B"/>
<path d="M17.3806 11.7031C17.8193 11.7031 18.2031 11.5934 18.6967 11.374V10.1127C18.258 10.5514 17.8741 10.716 17.4354 10.716C16.3935 10.716 15.6257 9.94822 15.6257 8.85145C15.6257 8.30306 15.8451 7.86435 16.1741 7.48048L15.4612 6.76758C14.9128 7.26113 14.5289 8.02887 14.5289 8.85145C14.4741 10.4966 15.7354 11.7031 17.3806 11.7031Z" fill="#595A5B"/>
<path d="M36.3 9.34505C37.1226 9.18053 37.5613 8.63214 37.5613 7.80956C37.5613 6.82246 36.8484 6.21924 35.642 6.21924H34.0516V11.5934H35.0936V9.45472H35.2581L36.7387 11.5934H38L36.3 9.34505ZM35.4226 8.68698H35.0936V7.04182H35.4226C36.0807 7.04182 36.4645 7.31601 36.4645 7.8644C36.4645 8.41279 36.0807 8.68698 35.4226 8.68698Z" fill="black"/>
<path d="M11.7323 16.584V13.5679L13.8162 15.7066V13.7324H14.2549V16.7485L12.171 14.6098V16.584H11.7323Z" fill="#F26E21"/>
<path d="M16.4484 14.1711H15.2967V14.8292H16.3935V15.2679H15.2967V16.2002H16.4484V16.584H14.858V13.7324H16.4484V14.1711Z" fill="#F26E21"/>
<path d="M17.8193 14.171V16.5839H17.3806V14.171H16.7225V13.7871H18.4774V14.171H17.8193Z" fill="#F26E21"/>
<path d="M19.1354 13.7869L19.8483 15.7063L20.616 13.6772L21.3289 15.7063L22.0967 13.7869H22.645L21.3838 16.8031L20.6708 14.774L19.9031 16.8031L18.6967 13.7869H19.1354Z" fill="#F26E21"/>
<path d="M22.7 15.1579C22.7 14.774 22.8645 14.3902 23.1387 14.116C23.4129 13.8418 23.7967 13.6772 24.1806 13.6772C24.5645 13.6772 24.9483 13.8418 25.2225 14.116C25.4967 14.3902 25.6612 14.774 25.6612 15.1579C25.6612 15.5418 25.4967 15.9256 25.2225 16.1998C24.9483 16.474 24.5645 16.6385 24.1806 16.6385C23.7967 16.6385 23.4677 16.5289 23.1935 16.2547C22.8645 15.9805 22.7 15.6514 22.7 15.1579ZM23.1387 15.1579C23.1387 15.4869 23.2483 15.7063 23.4677 15.9256C23.687 16.145 23.9064 16.2547 24.1806 16.2547C24.4548 16.2547 24.729 16.145 24.9483 15.9256C25.1677 15.7063 25.2774 15.4869 25.2774 15.1579C25.2774 14.8289 25.1677 14.6095 24.9483 14.3902C24.729 14.1708 24.5096 14.0611 24.1806 14.0611C23.9064 14.0611 23.6322 14.1708 23.4129 14.3902C23.2483 14.6095 23.1387 14.8837 23.1387 15.1579Z" fill="#F26E21"/>
<path d="M27.1967 15.3776L28.0741 16.584H27.5257L26.7031 15.4324H26.6483V16.584H26.2096V13.7324H26.7031C27.087 13.7324 27.3612 13.7873 27.5257 13.9518C27.6902 14.1163 27.7999 14.3356 27.7999 14.555C27.7999 14.7744 27.7451 14.9389 27.6354 15.0485C27.5257 15.2679 27.3612 15.3776 27.1967 15.3776ZM26.6483 15.0485H26.758C27.1419 15.0485 27.3612 14.884 27.3612 14.6098C27.3612 14.3356 27.1419 14.1711 26.758 14.1711H26.5935V15.0485H26.6483Z" fill="#F26E21"/>
<path d="M28.8966 14.8837L29.9934 13.7321H30.5418L29.2805 14.9934L30.5418 16.5289H29.9934L28.9515 15.2676L28.8418 15.3772V16.5289H28.4031V13.6772H28.8418V14.8837H28.8966Z" fill="#F26E21"/>
<path d="M32.4065 10.7162H31.4194V9.7291L30.3226 8.63232V11.5936H33.2839L32.4065 10.7162Z" fill="#3B3D3F"/>
<path d="M28.4581 6.76763L27.2516 9.83859L25.8258 6.21924H24.6742L26.9226 11.7579H27.5258L29.2806 7.59021L28.4581 6.76763Z" fill="#3B3D3F"/>
</svg>
