<svg width="71" height="59" viewBox="0 0 71 59" fill="none" xmlns="http://www.w3.org/2000/svg">
<path d="M18.4951 45.8852H53.7956C53.8485 45.8852 53.8994 45.8891 53.9517 45.8972C58.8135 46.6514 68.7305 45.9548 70.1152 37.1852C71.4026 29.0316 65.8435 24.88 62.2479 23.5374C61.7771 23.3616 61.4721 22.8809 61.5274 22.3815C63.1605 7.63597 50.9477 6.54573 43.7506 7.98709C43.2407 8.08922 42.7351 7.80247 42.4826 7.34778C39.7559 2.43747 27.8268 -1.94388 18.4951 3.5453C11.4379 7.69657 10.3542 16.4903 10.758 21.6195C10.8171 22.3707 10.0498 23.2077 9.31997 23.3954C5.80684 24.2987 -1.19683 28.5693 1.67512 37.1852C4.45912 45.5372 14.0485 46.4652 18.4951 45.8852Z" fill="#F4FFF8" stroke="#30AB5E"/>
<circle cx="35.22" cy="42.18" r="16.32" fill="#30AB5E" stroke="white"/>
<path d="M26.52 41.02L29.8729 37.6671C30.2634 37.2766 30.8966 37.2766 31.2871 37.6671L34.64 41.02" stroke="white" stroke-linecap="round"/>
<path d="M30.5802 46.82V37.54" stroke="white" stroke-linecap="round"/>
<path d="M43.92 45.08L40.5671 48.4329C40.1766 48.8234 39.5434 48.8234 39.1529 48.4329L35.8 45.08" stroke="white" stroke-linecap="round"/>
<path d="M39.8597 39.28L39.8597 48.56" stroke="white" stroke-linecap="round"/>
</svg>
