<svg width="458" height="417" viewBox="0 0 458 417" fill="none" xmlns="http://www.w3.org/2000/svg">
<rect y="4.60352" width="458" height="391.256" rx="170" fill="#30AB5E"/>
<path d="M185.082 28.6412C147.378 31.3851 106.22 36.3648 76.1382 47.9503L85.6911 112.381C85.6911 112.381 144.126 91.4464 191.687 92.8691L185.082 28.6412Z" fill="#5ECE88"/>
<g opacity="0.8">
<g opacity="0.8">
<g opacity="0.8">
<path opacity="0.8" d="M185.082 28.6412C147.378 31.3851 106.22 36.3648 76.1382 47.9503L85.6911 112.381C85.6911 112.381 144.126 91.4464 191.687 92.8691L185.082 28.6412Z" fill="white"/>
</g>
</g>
</g>
<path d="M161.095 36.7711C161.095 36.7711 161.501 36.5678 162.314 36.4662C163.127 36.3646 164.347 36.1613 165.77 35.9581C168.818 35.5516 173.087 34.9418 178.27 34.332H178.473V34.5353C178.879 38.9052 179.286 43.8849 179.794 49.1695V49.3727V49.6776H179.591C173.392 50.389 167.599 51.1004 162.721 51.7102H162.517V51.5069C162.009 47.137 161.603 43.3768 161.4 40.7345C161.298 39.515 161.196 38.4987 161.095 37.7873C161.095 37.1776 161.095 36.7711 161.095 36.7711C161.095 36.7711 161.196 37.1776 161.298 37.889C161.4 38.6003 161.501 39.6166 161.704 40.8361C162.009 43.4784 162.517 47.137 163.026 51.5069L162.822 51.3036C167.7 50.6939 173.493 49.9825 179.692 49.1695L179.489 49.4744V49.2711C178.981 43.9865 178.574 39.0068 178.168 34.6369L178.473 34.8402C168.615 35.9581 162.924 36.5678 161.095 36.7711Z" fill="#5ECE88"/>
<path d="M176.746 39.3124C176.746 39.5156 173.799 39.5156 170.344 39.8205C166.787 40.227 163.941 40.8368 163.941 40.6335C163.941 40.5319 166.685 39.6173 170.242 39.3124C173.799 39.0075 176.746 39.2108 176.746 39.3124Z" fill="#5ECE88"/>
<path d="M176.851 43.1738C176.851 43.3771 174.107 43.4787 170.855 43.7836C167.501 44.0885 164.859 44.495 164.859 44.3933C164.859 44.2917 167.501 43.5803 170.855 43.2754C174.209 42.8689 176.952 42.9706 176.851 43.1738Z" fill="#5ECE88"/>
<path d="M172.886 46.426C172.886 46.5276 171.361 46.9341 169.43 47.1374C167.499 47.3407 165.975 47.4423 165.975 47.3407C165.975 47.239 167.499 46.8325 169.43 46.6293C171.26 46.3244 172.886 46.3244 172.886 46.426Z" fill="#5ECE88"/>
<path d="M116.611 95.0682C121.935 93.4547 135.004 90.0342 144.685 89.2598" stroke="#5ECE88" stroke-linecap="round"/>
<path d="M156.786 63.1235L147.106 65.5437C145.557 69.8032 147.751 82.8076 149.042 88.7773C150.591 87.6156 157.754 87.0025 161.143 86.8412L156.786 63.1235Z" stroke="#5ECE88" stroke-linecap="round"/>
<path d="M91.4426 104.264L84.1821 52.9568L97.7351 50.0526L106.448 99.908L91.4426 104.264Z" stroke="#5ECE88"/>
<path d="M156.787 38.4358C133.166 40.7592 113.385 45.8576 106.448 48.1165H104.512L106.448 61.6694C118.452 55.0865 145.977 51.182 158.239 50.0526L156.787 38.4358Z" stroke="#5ECE88"/>
<path d="M112.74 99.908L108.868 67.9618C124.744 61.7662 150.011 58.2812 160.659 57.3131L166.468 90.7114C156.013 90.3242 126.293 96.6811 112.74 99.908Z" stroke="#5ECE88"/>
<path d="M168.888 80.0626L166.468 57.3131L181.957 54.4089L185.829 74.2542L168.888 80.0626Z" stroke="#5ECE88"/>
<path d="M368.723 47.5436C331.832 36.263 300.735 26.7102 258.966 27.015L252.564 92.6657C295.958 96.5275 310.491 99.3731 350.532 113.804L368.723 47.5436Z" fill="#5ECE88"/>
<g opacity="0.8">
<g opacity="0.8">
<g opacity="0.8">
<path opacity="0.8" d="M368.723 47.5436C331.832 36.263 300.735 26.7102 258.966 27.015L252.564 92.6657C295.958 96.5275 310.491 99.3731 350.532 113.804L368.723 47.5436Z" fill="white"/>
</g>
</g>
</g>
<path d="M285.184 58.8248L286.81 44.902C282.948 44.4955 278.781 45.6134 275.428 48.0524C271.464 50.9996 268.517 55.6744 268.415 61.8736C268.415 62.585 268.415 63.1947 268.517 63.9061L284.777 62.0768L285.184 58.8248Z" fill="#5ECE88"/>
<path d="M302.055 56.5894C300.429 51.4065 296.567 46.9349 290.47 45.5122C290.266 45.5122 290.165 45.4105 289.962 45.4105C289.86 45.4105 289.758 45.4105 289.657 45.3089C289.352 45.2073 289.047 45.2073 288.742 45.2073L287.116 59.1301L286.709 62.3821L302.055 67.9716C302.462 66.8537 302.665 65.6342 302.868 64.4147C303.071 61.874 302.766 59.1301 302.055 56.5894Z" fill="#5ECE88"/>
<g opacity="0.3">
<g opacity="0.3">
<g opacity="0.3">
<g opacity="0.3">
<path opacity="0.3" d="M302.055 56.5894C300.429 51.4065 296.567 46.9349 290.47 45.5122C290.266 45.5122 290.165 45.4105 289.962 45.4105C289.86 45.4105 289.758 45.4105 289.657 45.3089C289.352 45.2073 289.047 45.2073 288.742 45.2073L287.116 59.1301L286.709 62.3821L302.055 67.9716C302.462 66.8537 302.665 65.6342 302.868 64.4147C303.071 61.874 302.766 59.1301 302.055 56.5894Z" fill="black"/>
</g>
</g>
</g>
</g>
<path d="M285.39 64.0092L269.129 65.8384C269.841 73.7653 275.532 80.2694 283.255 81.184C290.979 82.0987 298.195 77.119 300.735 69.5986L285.39 64.0092Z" fill="#5ECE88"/>
<path d="M354.494 60.0451C354.494 60.0451 353.986 59.8419 353.071 59.4354C352.156 59.0288 350.835 58.4191 349.209 57.8093C345.957 56.3866 341.282 54.6589 336.099 53.2361C330.916 51.7117 326.038 50.7971 322.583 50.1873C320.855 49.8825 319.433 49.6792 318.416 49.5776C317.4 49.476 316.892 49.3743 316.892 49.2727C316.892 49.2727 317.4 49.2727 318.416 49.3743C319.433 49.476 320.855 49.5776 322.583 49.7808C326.14 50.289 331.018 51.102 336.201 52.6264C341.485 54.1508 346.059 55.8784 349.311 57.4028C350.937 58.1142 352.258 58.724 353.071 59.2321C353.986 59.7402 354.494 60.0451 354.494 60.0451Z" fill="#5ECE88"/>
<path d="M353.375 66.9545C353.375 66.9545 352.867 66.7513 351.952 66.3448C351.038 65.9383 349.716 65.3285 348.09 64.7187C344.838 63.296 340.164 61.5683 334.981 60.1455C329.798 58.6211 324.92 57.7065 321.464 57.0967C319.737 56.7919 318.314 56.5886 317.298 56.487C316.281 56.3854 315.773 56.2837 315.773 56.1821C315.773 56.0805 316.281 56.1821 317.298 56.2837C318.314 56.3854 319.737 56.487 321.464 56.6902C325.021 57.1984 329.899 58.0114 335.082 59.5358C340.367 61.0602 344.94 62.7878 348.192 64.3122C349.818 65.0236 351.139 65.6334 351.952 66.1415C352.867 66.6496 353.375 66.9545 353.375 66.9545Z" fill="#5ECE88"/>
<path d="M352.256 73.7643C352.256 73.7643 351.748 73.5611 350.834 73.1546C349.919 72.7481 348.598 72.1383 346.972 71.5286C343.72 70.1058 339.045 68.3781 333.862 66.9554C328.679 65.431 323.801 64.5163 320.346 63.9066C318.618 63.6017 317.195 63.3984 316.179 63.2968C315.163 63.1952 314.655 63.0936 314.655 62.9919C314.655 62.9919 315.163 62.9919 316.179 63.0936C317.195 63.1952 318.618 63.2968 320.346 63.5001C323.903 64.0082 328.781 64.8212 333.964 66.3456C339.248 67.87 343.821 69.5977 347.073 71.1221C348.699 71.8334 350.021 72.4432 350.834 72.9513C351.748 73.4595 352.256 73.7643 352.256 73.7643Z" fill="#5ECE88"/>
<path d="M350.022 80.674C350.022 80.674 349.514 80.4708 348.599 80.0643C347.685 79.6578 346.465 79.048 344.839 78.4382C341.689 77.1171 337.217 75.2878 332.136 73.865C327.055 72.3406 322.38 71.426 318.924 70.8162C317.197 70.5114 315.876 70.3081 314.859 70.2065C313.945 70.1049 313.335 70.0032 313.335 69.9016C313.335 69.9016 313.843 69.9016 314.859 70.0032C315.876 70.1049 317.197 70.2065 318.924 70.4097C322.38 70.9179 327.055 71.8325 332.136 73.2553C337.217 74.7797 341.689 76.5073 344.839 78.0317C346.364 78.7431 347.685 79.3529 348.498 79.861C349.514 80.3691 350.022 80.674 350.022 80.674Z" fill="#5ECE88"/>
<path d="M345.143 86.1626C345.143 86.1626 344.635 86.061 343.924 85.6545C343.009 85.248 341.891 84.7399 340.57 84.1301C337.725 82.9106 333.761 81.2846 329.188 79.9634C324.615 78.6423 320.448 77.9309 317.298 77.5244C315.875 77.3211 314.655 77.1179 313.639 77.0162C312.826 76.9146 312.318 76.813 312.318 76.813C312.318 76.813 312.826 76.813 313.639 76.813C314.554 76.813 315.773 77.0162 317.298 77.1179C320.346 77.5244 324.615 78.1341 329.29 79.4553C333.863 80.7764 337.826 82.5041 340.672 83.8252C342.094 84.5366 343.212 85.0447 343.924 85.4512C344.737 85.8577 345.143 86.061 345.143 86.1626Z" fill="#5ECE88"/>
<path d="M328.782 86.8738C328.782 86.9754 327.766 86.6705 326.14 86.3657C324.514 85.9592 322.278 85.5526 319.839 85.0445C317.4 84.638 315.063 84.3331 313.437 84.0283C311.811 83.825 310.794 83.6217 310.794 83.5201C310.794 83.4185 311.811 83.5201 313.437 83.6218C315.063 83.7234 317.4 84.0283 319.839 84.4348C322.38 84.8413 324.616 85.451 326.14 85.8575C327.766 86.4673 328.782 86.8738 328.782 86.8738Z" fill="#5ECE88"/>
<path d="M265.265 34.7406C265.265 34.7406 265.57 34.7406 266.078 34.7406C266.688 34.7406 267.501 34.7406 268.619 34.639C270.854 34.5374 274.107 34.639 278.273 34.8422C286.505 35.3504 298.395 36.7731 312.115 40.9398L312.318 41.0415V41.2447C309.777 55.7773 306.729 73.1554 303.477 91.6514C303.375 92.3628 303.172 93.1758 303.07 93.8872V94.1921L302.765 94.0905C295.042 92.0579 287.42 90.5335 280.204 89.4156C272.887 88.2978 265.976 87.4847 259.472 87.0782H259.269V86.875C261.098 71.3261 262.521 58.318 263.537 49.1716C264.045 44.5984 264.452 41.0415 264.757 38.6024C264.858 37.3829 265.062 36.4683 265.062 35.8585C265.062 35.5536 265.163 35.3504 265.163 35.1471C265.265 34.8422 265.265 34.7406 265.265 34.7406C265.265 34.7406 265.265 34.8422 265.265 35.0455C265.265 35.2487 265.265 35.452 265.163 35.7569C265.062 36.4683 264.96 37.3829 264.858 38.6024C264.554 41.0415 264.249 44.7 263.741 49.2732C262.724 58.4196 261.302 71.4278 259.676 86.875L259.472 86.5701C265.976 86.9766 272.887 87.7896 280.204 88.8059C287.521 89.9238 295.143 91.4482 302.867 93.4807L302.562 93.684C302.664 92.9726 302.867 92.1596 302.968 91.4482C306.22 72.9522 309.269 55.6757 311.81 41.0415L311.912 41.2447C298.294 37.078 286.403 35.6553 278.172 35.0455C274.005 34.7406 270.753 34.7406 268.619 34.7406C267.501 34.7406 266.688 34.7406 266.078 34.7406C265.672 34.7406 265.265 34.7406 265.265 34.7406Z" fill="#5ECE88"/>
<path d="M225.023 168.989L260.999 176.915L266.487 168.989L265.572 158.724L260.186 153.745H241.283L223.702 169.598" fill="#E8505B"/>
<g opacity="0.3">
<g opacity="0.3">
<path opacity="0.3" d="M225.023 168.989L260.999 176.915L266.487 168.989L265.572 158.724L260.186 153.745H241.283L223.702 169.598" fill="black"/>
</g>
</g>
<path d="M279.899 94.9018L325.326 88.8043L332.44 86.7717C332.44 86.7717 348.802 83.2148 350.326 82.605C352.054 81.9953 352.867 82.7067 352.968 83.3164C353.273 84.3327 352.257 85.5522 350.733 86.0603C350.224 86.2636 341.891 89.1091 341.891 89.1091C341.891 89.1091 342.704 89.2108 344.737 89.9221C346.769 90.6335 348.598 93.1742 349.615 96.1214C350.529 99.0685 350.529 99.9832 349.411 100.491C348.903 100.695 348.497 100.491 348.09 100.288C347.481 99.8815 346.972 99.2718 346.769 98.5604C345.143 93.784 342.196 93.3774 342.196 93.3774L341.281 93.6823C341.281 93.6823 344.33 95.8165 344.33 98.4588C344.33 98.8653 344.228 99.2718 344.127 99.5767C344.533 100.796 344.33 102.321 343.517 103.337C342.602 104.455 341.18 104.963 339.757 104.76C339.147 104.658 338.436 104.251 338.334 103.642C338.334 103.337 338.436 102.93 338.537 102.625C338.639 102.422 338.639 102.321 338.741 102.117L335.997 102.524C335.997 102.524 329.798 103.032 327.155 103.54L284.574 116.345C278.679 118.073 272.48 114.719 270.753 108.825C268.923 102.321 273.293 95.8165 279.899 94.9018Z" fill="#FFBE9D"/>
<path d="M326.341 89.921C326.443 90.8356 327.358 91.547 328.272 91.7502C329.187 91.9535 330.203 91.8519 331.118 91.9535C333.963 92.36 336.097 94.9007 338.943 95.1039C339.349 95.1039 339.858 95.1039 339.959 94.6974C340.061 94.3925 339.756 93.986 339.451 93.7828C337.114 91.6486 334.776 89.6161 332.337 87.4819" fill="#FFBE9D"/>
<path d="M332.439 87.5845C332.439 87.5845 332.743 87.7877 333.252 88.1942C333.76 88.6007 334.471 89.2105 335.386 90.0235C336.3 90.8365 337.418 91.7512 338.536 92.7674C338.841 93.0723 339.146 93.2756 339.451 93.5804C339.756 93.8853 340.162 94.0886 340.264 94.6983C340.264 95.0032 340.061 95.3081 339.756 95.4097C339.451 95.5113 339.248 95.5113 338.943 95.5113C338.434 95.5113 338.028 95.4097 337.621 95.2065C335.792 94.5967 334.471 93.5804 333.048 92.8691C332.337 92.5642 331.727 92.2593 331.016 92.1577C330.406 92.056 329.695 92.056 329.085 92.056C327.865 92.056 326.849 91.5479 326.544 90.9381C326.138 90.3284 326.239 89.9219 326.239 89.9219C326.341 89.9219 326.239 90.3284 326.747 90.7349C327.154 91.243 328.069 91.6495 329.186 91.6495C329.796 91.6495 330.406 91.6495 331.117 91.7512C331.829 91.8528 332.54 92.056 333.252 92.4625C334.674 93.0723 336.097 94.1902 337.723 94.6983C338.13 94.8 338.536 94.9016 338.943 94.9016C339.349 94.9016 339.654 94.8 339.654 94.5967C339.654 94.3934 339.349 94.0886 339.044 93.7837C338.739 93.4788 338.435 93.2756 338.13 92.9707C337.012 91.9544 335.995 91.0398 335.081 90.2268C334.166 89.4138 333.556 88.804 333.048 88.2959C332.743 87.7877 332.439 87.5845 332.439 87.5845Z" fill="#EB996E"/>
<path d="M341.178 93.7836C341.178 93.8853 341.89 93.4788 343.007 93.7836C343.516 93.8853 344.125 94.2918 344.532 94.9015C345.04 95.5113 345.345 96.2227 345.65 97.0357C345.955 97.8487 346.26 98.6617 346.666 99.2715C347.073 99.8812 347.581 100.389 348.19 100.694C348.699 100.999 349.308 100.897 349.613 100.694C349.918 100.491 350.02 100.389 350.02 100.389C350.02 100.389 349.816 100.491 349.613 100.593C349.308 100.694 348.902 100.694 348.394 100.491C347.886 100.186 347.479 99.7796 347.073 99.0682C346.666 98.4585 346.361 97.6454 346.056 96.8324C345.751 96.0194 345.345 95.2064 344.837 94.5967C344.329 93.9869 343.719 93.5804 343.109 93.4788C342.499 93.3771 341.991 93.4788 341.686 93.4788C341.381 93.5804 341.178 93.682 341.178 93.7836Z" fill="#EB996E"/>
<path d="M351.444 85.9585C351.444 85.9585 350.834 86.1617 349.818 86.5683C348.7 86.9748 347.379 87.4829 345.855 87.991C344.33 88.4992 343.009 89.0073 341.891 89.4138C340.875 89.7187 340.265 90.0236 340.265 90.0236C340.265 90.0236 340.977 89.9219 341.993 89.617C343.009 89.3122 344.432 88.9057 345.956 88.2959C347.481 87.7878 348.903 87.178 349.92 86.7715C350.834 86.2634 351.444 85.9585 351.444 85.9585Z" fill="#EB996E"/>
<path d="M339.96 96.2236C339.96 96.2236 340.062 96.4269 340.367 96.6301C340.57 96.8334 340.976 97.3415 340.875 97.8497C340.875 98.1545 340.671 98.3578 340.367 98.561C340.062 98.7643 339.655 98.7643 339.249 98.8659C338.842 98.9676 338.334 99.0692 338.029 99.4757C337.724 99.8822 337.623 100.492 337.826 101C338.029 101.508 338.436 101.915 338.842 102.118C339.249 102.321 339.757 102.423 340.163 102.321C340.976 102.118 341.688 101.813 342.298 101.508C342.907 101.203 343.314 100.898 343.517 100.594C343.72 100.289 343.822 100.085 343.822 100.085C343.822 100.085 343.72 100.289 343.415 100.492C343.212 100.695 342.704 101 342.196 101.305C341.688 101.61 340.976 101.813 340.163 102.016C339.452 102.118 338.436 101.711 338.131 100.898C338.029 100.492 338.029 99.9838 338.232 99.6789C338.436 99.3741 338.842 99.2724 339.249 99.1708C339.655 99.0692 340.062 98.9675 340.367 98.7643C340.773 98.561 340.976 98.2562 340.976 97.8497C340.976 97.1383 340.57 96.7318 340.265 96.4269C340.163 96.3253 339.96 96.2236 339.96 96.2236Z" fill="#EB996E"/>
<path d="M339.044 101.915C339.044 101.915 338.841 101.915 338.638 102.118C338.434 102.321 338.129 102.728 338.129 103.338C338.129 103.947 338.638 104.659 339.349 104.964C340.06 105.269 340.975 105.269 341.788 104.964C342.601 104.659 343.312 104.151 343.719 103.439C344.125 102.83 344.329 102.118 344.329 101.508C344.329 100.899 344.227 100.492 344.227 100.187C344.125 99.8824 344.024 99.7808 344.024 99.7808C343.922 99.7808 344.227 100.492 344.125 101.508C344.024 102.017 343.82 102.626 343.414 103.236C343.007 103.846 342.398 104.354 341.585 104.557C340.772 104.862 339.959 104.862 339.349 104.557C338.739 104.252 338.333 103.744 338.231 103.236C338.129 102.728 338.434 102.321 338.638 102.118C338.841 102.017 339.044 101.915 339.044 101.915Z" fill="#EB996E"/>
<path d="M331.422 98.1542C331.422 98.1542 331.422 97.8493 331.118 97.3412C330.813 96.9347 330.305 96.3249 329.492 96.0201V96.3249C329.796 96.1217 330.203 96.02 330.508 95.7152C332.439 94.4957 333.455 92.768 333.353 92.768C333.252 92.6664 332.235 94.1908 330.305 95.4103C330 95.6135 329.593 95.8168 329.288 96.0201L328.983 96.2233L329.39 96.3249C330.101 96.6298 330.711 97.1379 331.016 97.4428C331.321 97.951 331.422 98.2558 331.422 98.1542Z" fill="#EB996E"/>
<path d="M345.653 93.3773C345.551 93.2757 345.144 93.8854 345.043 94.6984C344.941 95.5114 345.348 96.1212 345.449 96.1212C345.551 96.1212 345.348 95.5114 345.348 94.8001C345.348 93.9871 345.653 93.3773 345.653 93.3773Z" fill="#EB996E"/>
<path d="M133.659 109.131C133.659 109.131 127.053 98.3584 125.834 97.4437C124.614 96.5291 114.147 92.6673 113.232 92.9722C112.317 93.2771 99.614 95.4112 101.037 96.9356C102.46 98.46 111.403 96.834 111.403 96.834L112.622 97.4437C112.622 97.4437 105 98.6633 103.374 99.5779C101.85 100.391 102.358 102.22 103.781 102.119C105.204 102.017 111.809 100.696 112.216 101.001C112.622 101.306 105 102.83 104.187 103.236C103.069 103.846 102.968 105.879 104.39 105.777C105.204 105.675 112.419 103.846 112.419 103.846C112.419 103.846 106.728 106.082 106.22 106.59C105.407 107.403 106.017 108.623 107.236 108.419C108.049 108.216 112.114 106.285 113.232 106.082C113.232 106.082 114.248 106.387 115.265 108.521C115.671 109.537 117.805 115.838 121.565 115.736C124.919 115.635 128.171 118.379 128.171 118.379L133.659 109.131Z" fill="#FFBE9D"/>
<path d="M101.139 97.0369C101.139 97.1386 101.952 97.4434 103.477 97.6467C104.188 97.7483 105.103 97.8499 106.119 97.7483C107.135 97.6467 108.152 97.4434 109.27 97.3418C110.083 97.2402 110.896 97.1386 111.607 97.0369H111.505C114.656 98.1548 116.993 98.8662 116.993 98.7646C116.993 98.663 114.859 97.6467 111.709 96.5288H111.607H111.505C110.794 96.6304 109.981 96.7321 109.168 96.8337C108.05 97.0369 107.034 97.1386 106.017 97.2402C105.103 97.3418 104.188 97.3418 103.477 97.2402C102.054 97.1386 101.241 96.9353 101.139 97.0369Z" fill="#EB996E"/>
<path d="M128.78 107.909C127.967 108.62 126.747 108.417 125.832 107.909C124.918 107.401 124.206 106.486 123.393 105.876C120.853 104.047 117.093 104.453 114.552 102.522C114.247 102.218 113.84 101.811 114.044 101.405C114.247 100.998 114.755 100.998 115.162 100.998C118.617 101.1 122.174 101.201 125.629 101.201" fill="#FFBE9D"/>
<path d="M125.529 101.305C125.529 101.305 125.122 101.203 124.411 101.203C123.699 101.101 122.581 101.101 121.362 101C120.041 100.898 118.415 100.898 116.789 100.796C116.382 100.796 115.874 100.796 115.468 100.796C115.061 100.796 114.451 100.695 113.943 101.101C113.638 101.305 113.638 101.813 113.74 102.118C113.842 102.422 114.045 102.626 114.248 102.829C114.655 103.134 115.061 103.439 115.569 103.642C117.5 104.557 119.431 104.658 120.955 105.166C121.768 105.37 122.48 105.776 123.09 106.183C123.699 106.589 124.207 107.097 124.716 107.504C125.732 108.418 126.951 108.723 127.663 108.52C128.476 108.418 128.679 107.91 128.679 107.91C128.679 107.809 128.374 108.215 127.663 108.215C126.951 108.317 125.935 108.012 125.021 107.097C124.512 106.691 124.004 106.183 123.394 105.675C122.785 105.166 121.972 104.862 121.159 104.557C119.533 103.947 117.602 103.845 115.773 103.032C115.366 102.829 114.959 102.524 114.553 102.321C114.248 102.016 114.045 101.711 114.248 101.508C114.451 101.305 114.858 101.305 115.366 101.305C115.773 101.305 116.281 101.305 116.687 101.305C118.415 101.305 119.939 101.305 121.26 101.305C122.581 101.305 123.598 101.305 124.309 101.305C125.122 101.406 125.529 101.305 125.529 101.305Z" fill="#EB996E"/>
<path d="M185.388 347.139L182.949 373.765L174.92 394.294C174.311 395.818 175.124 397.444 176.648 397.952C177.461 398.257 178.376 398.054 179.087 397.546C183.559 394.091 200.124 381.387 200.124 379.456C200.225 377.221 204.595 351.509 204.595 351.509L185.388 347.139Z" fill="#F2994A"/>
<g opacity="0.6">
<g opacity="0.6">
<g opacity="0.6">
<g opacity="0.6">
<path opacity="0.6" d="M176.646 397.953L200.427 377.628L200.325 378.746C200.224 379.762 199.715 380.575 199.004 381.286C197.073 383.116 191.687 387.892 179.187 397.547C178.476 398.156 177.561 398.258 176.646 397.953Z" fill="white"/>
</g>
</g>
</g>
</g>
<g opacity="0.6">
<g opacity="0.6">
<g opacity="0.6">
<g opacity="0.6">
<g opacity="0.6">
<path opacity="0.6" d="M195.957 368.481C195.245 368.888 194.941 369.802 195.245 370.615C195.55 371.327 196.567 371.733 197.278 371.327C197.989 370.92 198.396 369.802 197.989 369.091C197.583 368.38 196.363 368.075 195.754 368.583" fill="white"/>
</g>
</g>
</g>
</g>
</g>
<path d="M184.064 387.077C183.861 387.179 183.455 385.655 181.93 384.74C180.508 383.724 178.983 383.927 178.983 383.825C178.983 383.724 179.288 383.622 179.999 383.622C180.609 383.622 181.524 383.825 182.337 384.333C183.15 384.842 183.658 385.553 183.963 386.163C184.166 386.671 184.166 387.077 184.064 387.077Z" fill="#062D74"/>
<path d="M181.83 390.433C181.728 390.534 180.915 389.62 179.594 389.01C178.273 388.4 177.053 388.502 177.053 388.4C176.952 388.299 178.375 387.79 179.797 388.502C181.322 389.112 181.932 390.331 181.83 390.433Z" fill="#062D74"/>
<path d="M188.131 382.913C188.03 383.014 186.81 381.49 184.879 380.474C182.948 379.356 181.017 379.254 181.017 379.152C181.017 379.051 183.05 378.848 185.082 379.965C187.217 381.083 188.233 382.811 188.131 382.913Z" fill="#062D74"/>
<path d="M189.555 374.882C189.453 374.984 188.03 374.273 186.201 373.968C184.27 373.663 182.746 373.968 182.644 373.765C182.542 373.663 184.168 373.053 186.201 373.358C188.335 373.663 189.656 374.781 189.555 374.882Z" fill="#062D74"/>
<path d="M190.47 367.057C190.369 367.159 188.946 366.143 187.015 366.041C184.982 365.838 183.458 366.651 183.356 366.549C183.356 366.447 183.661 366.143 184.271 365.939C184.881 365.634 185.897 365.431 187.015 365.533C188.133 365.634 189.048 366.041 189.657 366.346C190.267 366.651 190.47 366.956 190.47 367.057Z" fill="#062D74"/>
<path d="M187.117 364.517C187.117 364.517 187.015 364.111 187.218 363.501C187.32 362.891 187.625 361.977 188.336 360.96C188.641 360.452 189.048 359.944 189.861 359.639C190.267 359.538 190.775 359.639 191.08 360.046C191.385 360.452 191.385 360.859 191.385 361.265C191.182 362.993 189.556 364.416 187.625 364.416C185.694 364.416 184.068 363.094 183.458 361.57C183.356 361.164 183.255 360.655 183.56 360.249C183.865 359.842 184.373 359.741 184.779 359.842C185.592 360.046 185.999 360.554 186.405 360.96C187.218 361.773 187.726 362.688 188.031 363.196C188.336 363.806 188.336 364.111 188.336 364.212C188.235 364.314 187.828 362.79 186.202 361.265C185.795 360.859 185.287 360.452 184.779 360.351C184.474 360.249 184.271 360.351 184.169 360.554C184.068 360.757 184.068 361.062 184.169 361.367C184.678 362.586 186.1 363.806 187.726 363.806C189.352 363.806 190.775 362.485 190.978 361.164C190.978 360.859 190.978 360.452 190.775 360.249C190.674 360.046 190.369 359.944 190.064 360.046C189.556 360.147 189.149 360.757 188.743 361.164C187.32 362.993 187.32 364.517 187.117 364.517Z" fill="#062D74"/>
<path d="M209.878 362.79L229.797 204.761L223.394 168.074L185.792 170.106L181.118 359.945C181.118 361.367 182.032 362.587 183.455 362.892L205.406 366.245C207.541 366.55 209.573 365.026 209.878 362.79Z" fill="#062D74"/>
<path d="M229.289 210.147L265.57 246.021L213.334 258.725L217.094 285.046L287.724 275.391C293.72 274.578 299.208 271.326 302.765 266.347C308.253 258.725 308.354 248.562 303.07 240.838L247.988 160.045L223.395 168.074L229.289 210.147Z" fill="#062D74"/>
<path d="M227.256 201C227.357 201 227.967 203.033 228.475 205.472C228.983 208.013 229.39 210.045 229.187 210.147C229.085 210.147 228.475 208.114 227.967 205.675C227.459 203.135 227.154 201 227.256 201Z" fill="#455A64"/>
<path d="M221.972 262.078C221.972 262.078 222.277 261.976 222.785 261.773C223.395 261.57 224.208 261.366 225.325 260.96C227.561 260.248 230.813 259.232 235.082 258.013C243.517 255.472 255.712 251.813 270.549 247.342L270.448 247.647C258.151 234.537 243.212 218.683 226.85 201.305L227.256 201.204C226.443 208.521 225.529 216.143 224.614 223.866C220.143 261.468 215.874 295.513 212.622 320.106C210.996 332.403 209.573 342.363 208.557 349.273C207.947 352.729 207.642 355.371 207.236 357.2C207.033 358.115 206.931 358.725 206.829 359.233C206.728 359.741 206.626 359.944 206.626 359.944C206.626 359.944 206.626 359.741 206.728 359.233C206.829 358.725 206.931 358.115 207.134 357.2C207.541 355.371 207.846 352.729 208.354 349.273C209.37 342.363 210.691 332.403 212.317 320.106C215.468 295.513 219.634 261.468 224.106 223.765C225.021 216.041 225.935 208.419 226.748 201.102L226.85 200.594L227.256 201C243.618 218.48 258.456 234.334 270.752 247.444L270.956 247.647L270.651 247.748C255.813 252.118 243.618 255.777 235.183 258.216C231.017 259.435 227.663 260.452 225.427 261.061C224.309 261.366 223.496 261.671 222.886 261.773C222.277 261.976 221.972 262.078 221.972 262.078Z" fill="white" fill-opacity="0.38"/>
<path d="M210.185 359.842C210.083 359.842 214.148 326.306 219.433 284.944C224.718 243.582 229.087 210.146 229.189 210.146C229.291 210.146 225.226 243.683 219.941 285.045C214.758 326.407 210.388 359.842 210.185 359.842Z" fill="#EBF1F3"/>
<path d="M223.395 184.334C223.497 184.334 223.802 185.249 224.208 186.774C224.615 188.298 225.224 190.432 225.732 192.871C226.241 195.209 226.647 197.444 226.85 198.969C227.054 200.595 227.155 201.509 227.155 201.509C227.054 201.509 226.85 200.595 226.545 198.969C226.139 197.241 225.732 195.209 225.224 192.871C224.716 190.635 224.208 188.501 223.903 186.774C223.497 185.249 223.293 184.334 223.395 184.334Z" fill="#455A64"/>
<path d="M225.731 181.184C225.63 181.184 226.239 180.676 227.256 180.981C227.662 181.184 228.272 181.591 228.374 182.302C228.475 182.912 228.272 183.827 227.561 184.233C226.849 184.64 226.036 184.437 225.426 184.03C224.918 183.623 224.817 182.81 224.918 182.404C225.02 181.896 225.325 181.591 225.63 181.489C225.833 181.388 226.036 181.388 226.036 181.388C226.036 181.489 225.528 181.693 225.325 182.506C225.223 182.912 225.325 183.42 225.731 183.725C226.138 184.03 226.748 184.132 227.256 183.827C227.764 183.522 227.967 182.912 227.865 182.404C227.764 181.896 227.459 181.591 227.052 181.388C226.239 180.981 225.731 181.286 225.731 181.184Z" fill="#455A64"/>
<path d="M276.24 252.221C276.138 252.323 274.106 250.494 271.158 248.766C268.211 247.038 265.569 246.225 265.671 246.022C265.671 245.92 268.414 246.53 271.463 248.258C274.41 249.985 276.341 252.12 276.24 252.221Z" fill="#96D8F8"/>
<path d="M197.786 60.4518L176.953 70.5128L185.896 133.216L182.339 161.367C181.932 165.025 183.253 168.582 185.997 171.021L219.636 170.31L243.213 157.403L254.087 155.473L249.616 134.029L251.648 103.643L276.242 116.753C278.173 117.769 280.307 118.074 282.441 117.464L327.563 105.777L325.226 88.3991L284.372 92.9723L253.274 65.4315L230.103 60.2485L225.937 53.4396H202.258L200.632 54.6591C199.819 55.2689 199.209 56.0819 198.904 56.9965L197.786 60.4518Z" fill="white"/>
<path d="M176.953 70.5127C176.953 70.5127 170.144 74.8826 167.603 82.7079C165.266 90.1266 159.88 120.005 159.88 120.005L136.201 105.371L122.583 119.7L154.189 147.546C159.067 151.814 165.977 152.728 171.77 149.985C176.648 147.647 180.002 143.074 180.713 137.688L184.575 109.334L176.953 70.5127Z" fill="white"/>
<path d="M248.093 160.146L246.568 157.911L231.019 160.858L228.174 167.464L248.093 160.146Z" fill="#FFBE9D"/>
<path d="M186.097 170.918C200.02 176.508 214.857 174.475 228.171 167.463C232.134 165.329 235.894 162.687 239.858 160.654C243.923 158.52 248.293 156.996 252.866 157.301C257.337 157.605 261.91 160.146 263.74 164.313C265.569 168.479 263.74 174.171 259.471 175.695C259.98 176.101 260.488 176.61 260.996 177.016C267.195 174.069 270.244 165.736 267.195 159.536C264.858 154.76 259.98 152.016 256.321 148.053C251.036 142.361 250.427 131.386 250.427 122.748" fill="white"/>
<path d="M216.586 72.5448C216.586 72.5448 216.18 72.5448 215.57 72.6464C214.96 72.748 213.944 72.8497 213.131 73.7643C212.318 74.6789 211.912 76.1017 211.912 77.7277C211.912 79.3538 212.216 81.2847 213.029 83.0123L213.436 83.9269L212.623 83.3172C210.895 81.996 209.066 80.4716 207.338 78.6424C203.273 74.4757 200.631 69.8009 199.31 66.2439C198.598 64.5163 198.192 62.9919 197.989 61.9756C197.785 60.9594 197.684 60.3496 197.785 60.3496C197.887 60.3496 198.192 62.687 199.716 66.1423C201.139 69.5976 203.883 74.1708 207.846 78.2359C209.574 79.9635 211.302 81.5895 213.029 82.8091L212.623 83.1139C212.216 82.1993 211.912 81.183 211.708 80.2684C211.505 79.3538 211.403 78.4391 211.505 77.5245C211.505 75.7968 212.013 74.2724 212.928 73.3578C213.842 72.4432 214.96 72.3415 215.57 72.2399C216.281 72.4432 216.586 72.5448 216.586 72.5448Z" fill="#062D74"/>
<path d="M217.907 72.546C219.634 71.8347 222.175 72.8509 223.395 74.2737C224.208 75.1883 224.716 76.5095 225.732 77.1192C226.85 77.729 230.204 78.2371 231.22 77.4241C231.22 77.4241 231.83 74.5786 232.134 73.3591C233.354 68.5826 233.964 64.3143 234.472 59.4362C231.22 57.8102 232.134 55.7777 226.24 56.1842C226.24 56.1842 227.765 60.5541 226.443 64.5176" fill="white"/>
<path d="M226.342 64.5167C226.24 64.5167 226.545 63.7037 226.647 62.2809C226.748 60.8581 226.647 58.724 225.935 56.285L225.834 56.0817H226.037C227.358 55.9801 228.883 55.8785 230.407 56.4882C231.22 56.7931 231.83 57.4028 232.44 57.911C233.049 58.4191 233.659 58.9272 234.472 59.3338L234.675 59.4354V59.6386C234.37 62.0777 234.066 64.8216 233.659 67.5655C233.354 69.3948 232.948 71.1224 232.541 72.8501C232.135 74.5777 231.83 76.1021 231.423 77.6265V77.7281H231.322C230.712 78.1346 230.102 78.1346 229.594 78.1346C228.984 78.1346 228.476 78.1346 227.968 78.033C227.46 77.9314 226.952 77.8298 226.444 77.7281C225.935 77.6265 225.427 77.3216 225.122 77.0168C224.411 76.3054 224.005 75.4924 223.598 74.8826C223.09 74.2728 222.582 73.7647 221.972 73.4598C220.854 72.7484 219.736 72.5452 219.025 72.5452C218.313 72.5452 217.907 72.7484 217.907 72.7484C217.907 72.7484 218.212 72.5452 219.025 72.4436C219.736 72.3419 220.854 72.5452 222.074 73.2566C222.683 73.5615 223.293 74.0696 223.801 74.781C224.309 75.3907 224.716 76.2037 225.326 76.8135C225.935 77.4233 226.952 77.5249 227.968 77.7281C228.476 77.8298 228.984 77.8298 229.492 77.8298C230.001 77.8298 230.61 77.7281 230.915 77.5249L230.814 77.6265C231.118 76.1021 231.525 74.4761 231.931 72.7484C232.338 71.1224 232.744 69.2931 233.049 67.5655C233.557 64.8216 233.862 62.0777 234.066 59.6386L234.167 59.8419C233.354 59.4354 232.643 58.9272 232.033 58.3175C231.423 57.7077 230.814 57.1996 230.204 56.8947C228.781 56.3866 227.358 56.3866 226.037 56.4882L226.24 56.1833C226.952 58.724 226.952 60.8582 226.85 62.3825C226.748 63.0939 226.647 63.7037 226.545 64.0086C226.444 64.3134 226.342 64.5167 226.342 64.5167Z" fill="#062D74"/>
<path d="M260.997 160.451C260.997 160.451 260.997 160.045 260.997 159.333C260.896 158.622 260.692 157.403 259.981 156.183C259.27 154.963 258.05 153.642 256.221 152.524C254.493 151.508 252.156 150.898 249.514 150.695C246.973 150.492 244.026 150.594 240.977 150.39C237.928 150.187 234.574 149.679 231.322 148.358C228.07 147.037 224.92 144.902 222.684 141.854C221.566 140.329 220.652 138.5 220.143 136.671C219.635 134.74 219.534 132.707 219.534 130.776C219.737 126.711 220.652 122.951 221.16 119.293C221.77 115.634 222.074 111.976 222.176 108.52C222.379 101.61 221.77 95.4104 220.855 90.3291C219.94 85.2478 218.721 81.1827 217.908 78.3372C217.501 76.9144 217.095 75.8981 216.79 75.1867C216.688 74.8819 216.587 74.577 216.485 74.3737C216.383 74.1705 216.383 74.0688 216.383 74.0688C216.383 74.0688 216.485 74.1705 216.485 74.3737C216.587 74.577 216.688 74.8819 216.79 75.1867C217.095 75.8981 217.501 76.9144 218.009 78.3372C218.924 81.0811 220.245 85.1461 221.16 90.3291C222.176 95.512 222.786 101.711 222.583 108.622C222.481 112.077 222.176 115.736 221.566 119.394C221.058 123.154 220.143 126.915 219.94 130.878C219.737 134.841 220.652 138.703 222.887 141.65C225.123 144.598 228.172 146.732 231.322 147.951C234.473 149.272 237.725 149.781 240.774 149.984C243.822 150.187 246.668 150.085 249.31 150.39C251.953 150.594 254.29 151.203 256.119 152.321C257.949 153.439 259.168 154.76 259.879 156.081C260.591 157.403 260.794 158.52 260.794 159.333C260.794 159.74 260.794 160.045 260.794 160.248C261.099 160.35 261.099 160.451 260.997 160.451Z" fill="#062D74"/>
<path d="M245.858 141.956C245.858 141.956 245.451 142.363 244.638 143.176C244.232 143.582 243.724 143.989 243.216 144.497C242.606 145.005 241.996 145.615 241.183 146.123C239.659 147.343 237.728 148.664 235.594 149.985C233.358 151.306 230.817 152.627 228.175 153.745C225.431 154.863 222.687 155.778 220.248 156.387C217.707 156.997 215.472 157.404 213.541 157.708C212.626 157.81 211.711 157.912 210.898 158.013C210.085 158.115 209.476 158.115 208.967 158.115C207.85 158.115 207.24 158.115 207.24 158.115C207.24 158.115 207.85 158.013 208.866 157.912C209.374 157.912 210.085 157.81 210.797 157.708C211.61 157.607 212.423 157.505 213.337 157.404C215.268 157.099 217.504 156.692 219.943 155.981C222.382 155.269 225.126 154.456 227.768 153.339C230.512 152.221 232.951 150.899 235.187 149.578C237.423 148.257 239.252 146.936 240.878 145.818C241.691 145.31 242.301 144.7 242.911 144.192C243.52 143.684 244.029 143.278 244.435 142.973C245.35 142.261 245.858 141.855 245.858 141.956Z" fill="#062D74"/>
<path d="M239.248 108.52C239.248 108.52 239.248 108.723 239.146 109.13C239.044 109.536 238.943 110.044 238.841 110.756C238.739 111.467 238.435 112.28 238.13 113.195C237.825 114.109 237.52 115.227 237.012 116.447C236.809 117.057 236.504 117.666 236.3 118.276C236.097 118.886 235.691 119.597 235.386 120.207C234.776 121.528 234.065 122.951 233.252 124.475C231.626 127.423 229.491 130.471 227.052 133.418C224.512 136.366 221.869 138.906 219.329 141.04C218.008 142.057 216.788 143.073 215.569 143.886C214.959 144.293 214.349 144.699 213.739 145.106C213.13 145.41 212.621 145.817 212.012 146.122C210.894 146.833 209.878 147.24 209.065 147.748C208.15 148.256 207.438 148.561 206.727 148.866C206.117 149.069 205.609 149.374 205.203 149.475C204.898 149.577 204.695 149.679 204.695 149.679C204.695 149.679 204.898 149.577 205.203 149.374C205.609 149.171 206.117 148.967 206.625 148.662C207.235 148.358 208.048 147.951 208.861 147.443C209.776 146.935 210.792 146.427 211.808 145.715C212.317 145.41 212.926 145.004 213.434 144.699C214.044 144.293 214.552 143.886 215.162 143.48C216.382 142.667 217.601 141.65 218.922 140.634C221.463 138.5 224.105 135.959 226.544 133.012C228.983 130.065 231.016 127.016 232.743 124.17C233.556 122.748 234.268 121.325 234.878 120.004C235.183 119.292 235.487 118.683 235.792 118.073C236.097 117.463 236.3 116.853 236.504 116.244C237.012 115.126 237.317 114.008 237.622 113.093C237.926 112.179 238.231 111.366 238.333 110.654C238.536 110.044 238.638 109.536 238.739 109.13C239.248 108.723 239.248 108.52 239.248 108.52Z" fill="#062D74"/>
<path d="M196.466 176.001C196.466 176.001 195.653 175.594 194.637 174.578C193.621 173.562 192.401 172.037 191.487 170.005C190.674 167.972 190.369 165.94 190.369 164.517C190.369 163.094 190.674 162.18 190.674 162.18C190.775 162.18 190.674 163.094 190.775 164.415C190.877 165.838 191.182 167.769 191.995 169.7C192.808 171.631 193.926 173.257 194.942 174.273C195.755 175.391 196.466 176.001 196.466 176.001Z" fill="#062D74"/>
<path d="M195.654 168.176C195.755 168.176 195.552 169.498 195.654 171.124C195.755 172.75 196.264 173.969 196.162 174.071C196.06 174.172 195.247 172.953 195.146 171.225C195.044 169.396 195.552 168.075 195.654 168.176Z" fill="#062D74"/>
<path d="M185.693 131.795C185.693 131.795 185.592 131.591 185.592 131.286C185.49 130.88 185.49 130.473 185.388 129.864C185.185 128.542 184.88 126.815 184.575 124.782C183.864 120.514 182.848 114.518 181.628 108.014C180.409 101.51 179.189 95.6155 178.376 91.3472C177.97 89.3147 177.563 87.587 177.36 86.2659C177.258 85.7577 177.157 85.2496 177.055 84.8431C176.953 84.5382 176.953 84.335 176.953 84.335C176.953 84.335 177.055 84.5382 177.157 84.8431C177.258 85.2496 177.36 85.6561 177.563 86.1642C177.868 87.3838 178.275 89.1114 178.783 91.1439C179.799 95.4122 181.018 101.307 182.238 107.811C183.457 114.315 184.372 120.311 184.982 124.579C185.287 126.713 185.49 128.441 185.693 129.66C185.795 130.168 185.795 130.677 185.896 131.083C185.693 131.591 185.693 131.795 185.693 131.795Z" fill="#062D74"/>
<path d="M250.733 131.794C250.733 131.794 250.733 131.591 250.631 131.286C250.631 130.88 250.631 130.371 250.631 129.863C250.631 128.644 250.631 126.815 250.631 124.579C250.631 120.107 250.834 113.908 251.342 107.099C251.851 100.29 252.562 94.0908 253.07 89.7209C253.375 87.5867 253.578 85.7574 253.782 84.4363C253.883 83.8265 253.985 83.42 253.985 83.0135C254.086 82.7086 254.086 82.5054 254.086 82.5054C254.086 82.5054 254.086 82.7086 254.086 83.0135C254.086 83.42 253.985 83.9281 253.985 84.4363C253.883 85.7574 253.68 87.5867 253.477 89.7209C253.07 94.1924 252.46 100.29 251.851 107.099C251.342 113.908 251.038 120.107 250.936 124.579C250.834 126.713 250.834 128.542 250.834 129.863C250.834 130.473 250.834 130.88 250.733 131.286C250.733 131.591 250.733 131.794 250.733 131.794Z" fill="#062D74"/>
<path d="M169.43 134.335C169.227 134.436 167.906 130.676 165.365 126.713C162.723 122.648 159.775 120.107 159.877 120.005C159.877 120.005 160.69 120.514 161.91 121.631C163.027 122.749 164.552 124.375 165.873 126.408C167.194 128.44 168.109 130.473 168.719 131.896C169.227 133.42 169.532 134.335 169.43 134.335Z" fill="#062D74"/>
<path d="M171.161 129.964C171.06 129.964 170.755 129.151 170.043 128.033C169.332 126.814 168.214 125.289 166.486 123.968C164.86 122.647 163.133 121.732 161.812 121.123C160.49 120.513 159.677 120.208 159.779 120.106C159.779 120.005 160.694 120.208 162.015 120.716C163.336 121.224 165.165 122.139 166.893 123.46C168.621 124.883 169.738 126.509 170.348 127.83C171.06 129.05 171.263 129.964 171.161 129.964Z" fill="#062D74"/>
<path d="M181.627 105.473C181.627 105.473 181.627 105.676 181.424 105.879C181.221 106.184 180.916 106.591 180.509 106.997C179.595 107.81 177.766 108.725 175.53 108.318C173.294 108.013 170.855 106.387 169.229 103.847C168.416 102.627 167.705 101.204 167.196 99.7816C166.892 99.0702 166.587 98.2572 166.383 97.4442C166.18 96.6312 165.977 95.8182 166.079 94.9036C166.18 93.9889 166.587 93.1759 167.298 92.5662C168.009 91.9564 169.026 91.9564 169.839 92.1596C171.465 92.5662 172.684 93.8873 173.192 95.3101C173.701 96.7328 173.497 98.3589 172.786 99.4768C172.074 100.595 170.957 101.408 169.839 101.713C168.721 102.017 167.705 101.916 166.79 101.611C165.977 101.306 165.367 100.798 164.961 100.29C164.554 99.7816 164.249 99.3751 164.148 99.0702C164.046 98.7654 163.944 98.5621 164.046 98.5621C164.148 98.5621 164.249 99.2735 165.164 100.087C165.57 100.493 166.18 100.9 166.993 101.204C167.806 101.509 168.822 101.611 169.839 101.306C170.855 101.001 171.871 100.29 172.481 99.1719C173.091 98.1556 173.294 96.7328 172.786 95.4117C172.278 94.0906 171.261 92.9727 169.737 92.5662C169.026 92.3629 168.213 92.4645 167.705 92.9727C167.095 93.3792 166.79 94.1922 166.688 94.9036C166.485 96.428 167.196 98.054 167.705 99.4768C168.314 100.9 168.924 102.322 169.737 103.542C171.261 105.981 173.497 107.505 175.631 107.912C177.766 108.318 179.493 107.505 180.408 106.794C181.322 106.082 181.627 105.473 181.627 105.473Z" fill="#30AB5E"/>
<path d="M221.567 121.123C221.567 121.123 221.466 121.225 221.262 121.326C221.059 121.53 220.754 121.733 220.449 121.936C219.738 122.444 218.519 123.359 216.994 124.172C216.181 124.578 215.266 124.883 214.149 125.087C213.031 125.29 211.811 125.29 210.592 124.883C208.051 124.07 205.815 121.936 204.189 119.192C202.462 116.448 201.344 112.993 201.242 109.131C201.14 105.371 202.055 101.204 204.392 97.5459C205.51 95.7166 207.035 93.9889 209.169 93.0743C210.185 92.6678 211.405 92.4645 212.624 92.6678C213.742 92.871 214.962 93.3792 215.673 94.3954C216.384 95.4117 216.689 96.6312 216.588 97.8507C216.486 99.0703 216.079 100.29 215.47 101.306C214.25 103.44 212.116 104.965 209.779 105.879C207.441 106.794 204.901 106.997 202.563 106.591C200.124 106.286 197.888 105.269 196.059 103.847C192.197 101.103 189.758 97.0377 188.335 93.0743C187.624 91.0418 187.116 89.0092 187.421 86.8751C187.624 85.8588 187.929 84.8426 188.64 84.0295C189.25 83.2165 190.165 82.6068 191.079 82.4035C193.01 81.997 195.043 82.81 196.161 84.1312C197.38 85.554 197.685 87.3832 197.38 89.0092C197.075 90.6353 196.364 92.058 195.246 93.0743C194.23 94.0906 193.01 94.802 191.791 95.3101C189.352 96.2247 187.116 96.3264 185.287 96.3264C183.457 96.2247 182.136 96.0215 181.222 95.9198C180.815 95.8182 180.409 95.8182 180.205 95.7166C180.002 95.7166 179.799 95.615 179.799 95.615C179.799 95.615 179.9 95.615 180.205 95.615C180.51 95.615 180.815 95.7166 181.222 95.7166C182.136 95.8182 183.559 96.0215 185.287 96.0215C187.014 96.0215 189.25 95.9198 191.587 95.0052C192.705 94.4971 193.925 93.7857 194.941 92.7694C195.957 91.7532 196.669 90.3304 196.872 88.806C197.075 87.2816 196.872 85.5539 195.653 84.2328C194.535 83.0133 192.705 82.2003 190.978 82.6068C189.148 83.0133 187.929 84.7409 187.624 86.6718C187.319 88.6027 187.827 90.6353 188.539 92.5662C189.961 96.5296 192.401 100.391 196.059 103.034C197.888 104.355 200.022 105.371 202.36 105.676C204.697 106.082 207.136 105.778 209.372 104.965C211.608 104.152 213.539 102.627 214.758 100.595C215.368 99.5784 215.673 98.4605 215.775 97.3426C215.876 96.2247 215.571 95.1068 214.962 94.1922C214.352 93.2776 213.234 92.7694 212.218 92.6678C211.201 92.4645 210.084 92.6678 209.067 93.0743C207.136 93.8873 205.612 95.615 204.494 97.3426C202.258 100.9 201.344 104.863 201.445 108.623C201.547 112.383 202.665 115.737 204.291 118.481C205.917 121.225 208.153 123.257 210.49 124.07C212.929 124.883 215.165 124.172 216.689 123.461C218.315 122.749 219.433 121.936 220.246 121.326C220.653 121.022 220.856 120.818 221.161 120.717C221.466 121.225 221.567 121.123 221.567 121.123Z" fill="#30AB5E"/>
<path d="M193.62 64.1099C193.62 64.1099 193.518 64.4147 193.315 65.0245C193.112 65.6343 192.604 66.3456 191.994 67.2603C190.774 69.0896 188.539 71.427 185.388 72.8497C182.238 74.3741 179.087 74.5774 176.852 74.4758C175.734 74.3741 174.819 74.1709 174.209 74.0693C173.6 73.866 173.295 73.7644 173.295 73.7644C173.295 73.6627 174.616 74.0693 176.852 74.1709C178.986 74.2725 182.136 73.866 185.083 72.4432C188.132 71.0205 190.266 68.8863 191.587 67.057C192.909 65.3294 193.518 64.0082 193.62 64.1099Z" fill="#30AB5E"/>
<path d="M208.559 68.3796C208.559 68.5829 207.034 68.5829 205.713 69.8024C204.29 70.9203 203.986 72.4447 203.884 72.4447C203.782 72.4447 203.782 72.0382 203.986 71.4284C204.189 70.8187 204.595 70.0057 205.408 69.3959C206.12 68.7861 207.034 68.4813 207.644 68.3796C208.254 68.278 208.559 68.3796 208.559 68.3796Z" fill="#30AB5E"/>
<path d="M230.106 74.3746C230.106 74.3746 229.801 74.273 229.293 73.9681C228.785 73.6633 228.074 73.0535 227.362 72.2405C226.753 71.3258 226.041 70.1063 225.94 68.6836C225.94 67.9722 226.041 67.0575 226.549 66.4478C227.058 65.7364 227.972 65.2283 228.887 65.4315C229.801 65.6348 230.513 66.4478 230.716 67.1592C231.021 67.9722 230.716 68.8868 230.208 69.4966C229.192 70.7161 227.566 70.9193 226.549 70.5128C225.431 70.1063 224.822 69.3949 224.517 68.8868C224.212 68.3787 224.11 67.9722 224.11 67.9722C224.11 67.9722 224.314 68.2771 224.618 68.6836C225.025 69.0901 225.635 69.8015 226.549 70.1063C227.464 70.4112 228.887 70.208 229.7 69.1917C230.106 68.6836 230.31 67.9722 230.005 67.3624C229.801 66.7527 229.192 66.1429 228.582 65.9396C227.871 65.7364 227.159 66.1429 226.753 66.7527C226.346 67.3624 226.143 68.0738 226.245 68.6836C226.346 70.0047 226.854 71.2242 227.464 72.1389C228.887 73.7649 230.106 74.273 230.106 74.3746Z" fill="#30AB5E"/>
<path d="M234.169 62.4852C234.067 62.5868 232.949 60.9608 230.815 60.1477C228.681 59.2331 226.75 59.6396 226.75 59.4364C226.75 59.3347 227.157 59.2331 227.97 59.1315C228.783 59.0299 229.9 59.1315 231.018 59.6396C232.136 60.1477 233.051 60.7575 233.559 61.3673C233.965 62.0787 234.169 62.4852 234.169 62.4852Z" fill="#30AB5E"/>
<path d="M262.114 74.3753C262.114 74.3753 262.012 74.3753 261.91 74.4769C261.707 74.5786 261.504 74.6802 261.301 74.7818C260.792 75.0867 259.979 75.3916 258.861 75.7981C256.727 76.6111 253.475 77.5257 249.309 77.6274C248.292 77.6274 247.174 77.5257 246.057 77.3225C244.939 77.1192 243.821 76.6111 242.804 75.7981C241.89 74.9851 241.28 73.6639 241.28 72.3428C241.28 71.0216 241.687 69.5989 242.601 68.481C244.431 66.2452 247.784 65.5338 250.731 66.4485C253.679 67.2615 256.321 69.5989 257.235 72.7493C258.15 75.7981 257.337 79.355 255.305 81.5908C253.272 83.9282 250.426 85.0461 247.784 85.6559C245.142 86.2656 242.5 86.3672 240.061 86.4689C237.622 86.5705 235.386 86.6721 233.455 87.0786C229.491 87.8916 226.646 89.9242 225.223 91.7534C223.8 93.5827 223.699 94.9039 223.699 94.9039C223.699 94.9039 223.699 94.8022 223.699 94.7006C223.699 94.599 223.8 94.2941 223.902 93.9892C224.105 93.3795 224.41 92.5665 225.121 91.6518C226.443 89.7209 229.288 87.5868 233.353 86.7737C235.386 86.3672 237.622 86.164 240.061 86.0624C242.5 85.9607 245.04 85.8591 247.683 85.2494C250.223 84.6396 252.967 83.5217 254.898 81.2859C256.829 79.1518 257.54 75.8997 256.727 72.9526C255.914 70.0054 253.374 67.7696 250.63 67.0582C247.886 66.2452 244.735 66.9566 243.008 68.9891C242.195 70.0054 241.687 71.2249 241.788 72.4444C241.788 73.6639 242.296 74.7818 243.211 75.5948C244.024 76.4078 245.142 76.8144 246.26 77.1192C247.378 77.4241 248.394 77.4241 249.41 77.4241C253.475 77.4241 256.727 76.5095 258.963 75.7981C260.081 75.3916 260.894 75.0867 261.402 74.8834C261.809 74.4769 262.114 74.3753 262.114 74.3753Z" fill="#30AB5E"/>
<path d="M236.708 114.315C236.607 114.315 236.302 113.502 235.387 112.283C234.473 111.063 232.847 109.64 230.712 108.827C228.578 108.014 226.444 108.116 224.92 108.319C223.395 108.624 222.582 109.03 222.582 108.929C222.582 108.929 223.395 108.319 224.92 107.913C226.444 107.506 228.68 107.404 230.916 108.217C233.151 109.03 234.777 110.657 235.692 111.978C236.505 113.299 236.81 114.213 236.708 114.315Z" fill="#30AB5E"/>
<path d="M248.598 121.937C248.598 121.937 248.293 122.851 247.176 123.969C246.159 125.087 244.228 126.306 241.789 126.51C239.35 126.713 237.318 125.798 236.098 124.884C234.879 123.969 234.371 123.054 234.371 123.054C234.472 122.953 234.98 123.766 236.302 124.579C237.521 125.392 239.554 126.205 241.789 126.002C244.025 125.798 245.854 124.68 246.972 123.766C248.09 122.75 248.497 121.937 248.598 121.937Z" fill="#30AB5E"/>
<path d="M251.648 101.712C251.648 101.814 251.038 101.407 249.921 101.102C248.803 100.798 247.278 100.696 245.652 101.204C244.026 101.712 242.807 102.728 242.095 103.643C241.384 104.456 241.079 105.167 240.977 105.167C240.876 105.167 241.079 104.456 241.79 103.44C242.4 102.525 243.721 101.306 245.449 100.798C247.177 100.289 248.904 100.493 250.022 100.899C251.14 101.204 251.75 101.712 251.648 101.712Z" fill="#30AB5E"/>
<path d="M289.555 92.3633C289.555 92.3633 289.656 92.6682 289.758 93.0747C289.859 93.2779 289.859 93.6844 289.859 93.9893C289.859 94.3958 289.961 94.8023 289.859 95.3105C289.859 97.2414 289.148 100.087 286.912 102.932C285.794 104.254 284.372 105.575 282.542 106.591C280.713 107.506 278.477 108.014 276.242 108.014C271.668 108.014 266.485 105.778 263.233 101.51C262.42 100.493 261.709 99.2739 261.404 97.9528C261.099 96.6316 261.099 95.3105 261.506 94.091C261.912 92.8714 262.725 91.7535 263.843 91.1438C264.961 90.534 266.282 90.534 267.4 90.7373C268.518 90.9405 269.636 91.5503 270.449 92.3633C271.262 93.1763 271.77 94.091 272.075 95.1072C272.685 97.1397 272.583 99.0706 272.075 100.798C271.567 102.424 270.652 103.847 269.636 104.863C268.721 105.88 267.705 106.591 266.79 106.998C265.977 107.506 265.164 107.709 264.758 107.811C264.25 107.912 264.046 108.014 263.945 107.912C263.945 107.811 264.961 107.709 266.689 106.794C268.315 105.88 270.55 103.949 271.668 100.697C272.176 99.0707 272.278 97.1398 271.668 95.3105C271.363 94.3958 270.855 93.4812 270.144 92.7698C269.433 92.0584 268.416 91.5503 267.4 91.347C266.282 91.1438 265.164 91.2454 264.148 91.7535C263.132 92.2617 262.42 93.2779 262.014 94.3958C261.607 95.5137 261.607 96.8349 262.014 97.9528C262.319 99.1723 262.928 100.29 263.741 101.306C266.994 105.371 271.872 107.607 276.343 107.607C278.579 107.607 280.713 107.201 282.441 106.286C284.27 105.371 285.693 104.152 286.709 102.831C288.843 100.189 289.656 97.343 289.656 95.5137C289.758 93.4812 289.453 92.3633 289.555 92.3633Z" fill="#30AB5E"/>
<path d="M297.379 113.4C297.379 113.4 297.074 113.197 296.769 112.688C296.464 112.18 295.956 111.469 295.651 110.351C295.346 109.335 295.245 108.014 295.448 106.591C295.651 105.168 296.058 103.644 296.464 102.119C297.481 98.9689 299.005 96.4282 300.123 94.599C300.733 93.6843 301.139 92.9729 301.546 92.4648C301.85 91.9567 302.054 91.7534 302.155 91.7534C302.257 91.7534 301.546 92.9729 300.529 94.8022C299.513 96.6315 297.989 99.1721 297.074 102.221C296.668 103.745 296.261 105.27 296.058 106.591C295.855 107.912 295.855 109.233 296.058 110.249C296.566 112.384 297.481 113.4 297.379 113.4Z" fill="#30AB5E"/>
<path d="M316.589 90.0254C316.589 90.0254 316.691 90.2286 316.894 90.7368C317.097 91.2449 317.199 91.9563 317.402 92.8709C317.707 94.7002 317.809 97.2409 317.199 99.9848C316.589 102.729 315.471 104.964 314.354 106.489C313.845 107.2 313.337 107.81 313.032 108.217C312.728 108.623 312.524 108.725 312.423 108.725C312.321 108.623 313.134 107.81 314.049 106.286C314.963 104.761 316.081 102.525 316.691 99.8832C317.301 97.2409 317.199 94.7002 316.996 92.9726C316.894 91.1433 316.589 90.0254 316.589 90.0254Z" fill="#30AB5E"/>
<path d="M250.123 137.587C250.123 137.587 249.919 137.485 249.716 137.383C249.411 137.18 249.005 136.977 248.497 136.672C247.379 136.164 245.753 135.452 243.517 135.249C241.383 135.046 238.639 135.249 236.098 136.469C234.777 137.078 233.456 137.891 232.338 138.908C231.728 139.416 231.22 140.026 230.915 140.737C230.509 141.448 230.305 142.16 230.407 142.973C230.509 143.786 230.915 144.497 231.525 144.904C232.135 145.31 232.948 145.31 233.557 145.005C234.98 144.396 235.488 142.769 235.488 141.448C235.387 138.603 233.557 136.265 231.728 135.351C229.797 134.334 227.968 134.436 226.748 134.741C225.529 135.046 224.919 135.351 224.919 135.351C224.919 135.351 225.021 135.249 225.326 135.046C225.631 134.944 226.037 134.741 226.647 134.538C227.866 134.233 229.797 134.03 231.83 135.046C233.862 136.062 235.793 138.4 235.895 141.448C235.895 142.16 235.793 142.973 235.488 143.786C235.183 144.497 234.574 145.209 233.761 145.513C232.948 145.92 231.931 145.92 231.22 145.412C230.407 144.904 230.001 143.989 229.899 143.176C229.797 142.261 230.102 141.347 230.509 140.635C230.915 139.924 231.525 139.213 232.033 138.704C233.253 137.587 234.574 136.774 235.895 136.164C238.639 134.944 241.383 134.741 243.618 135.046C245.854 135.351 247.582 136.062 248.598 136.672C249.106 136.977 249.513 137.282 249.818 137.485C250.021 137.485 250.123 137.587 250.123 137.587Z" fill="#30AB5E"/>
<path d="M253.78 146.022C253.882 146.123 253.374 147.14 252.561 148.359C251.748 149.579 251.036 150.493 250.935 150.392C250.833 150.29 251.341 149.274 252.154 148.054C252.967 146.835 253.679 145.92 253.78 146.022Z" fill="#30AB5E"/>
<path d="M266.688 160.554C266.587 160.554 266.485 160.148 266.079 159.639C265.774 159.131 265.164 158.42 264.249 158.013C263.436 157.505 262.522 157.404 261.912 157.302C261.302 157.302 260.896 157.404 260.896 157.302C260.896 157.2 261.302 156.997 261.912 156.997C262.623 156.895 263.538 157.099 264.554 157.607C265.469 158.115 266.079 158.928 266.384 159.538C266.79 160.046 266.79 160.554 266.688 160.554Z" fill="#30AB5E"/>
<path d="M224.716 155.372C224.716 155.473 223.497 156.083 221.566 157.201C219.635 158.319 216.891 159.945 214.655 162.587C212.42 165.128 211.2 168.177 210.997 170.311C210.692 172.546 211.2 173.868 211.098 173.969C211.098 173.969 210.895 173.664 210.794 173.055C210.692 172.445 210.59 171.53 210.692 170.311C210.794 167.973 212.013 164.823 214.351 162.282C216.688 159.64 219.432 158.014 221.464 156.998C222.481 156.489 223.294 156.083 223.903 155.88C224.412 155.473 224.716 155.27 224.716 155.372Z" fill="#30AB5E"/>
<path d="M239.656 160.351C239.656 160.351 239.046 160.046 238.538 159.132C238.03 158.217 237.522 156.794 237.725 155.27C237.827 153.644 238.538 152.323 239.249 151.611C239.961 150.798 240.469 150.595 240.571 150.595C240.672 150.697 240.164 151.002 239.554 151.815C238.945 152.628 238.436 153.847 238.335 155.372C238.233 156.896 238.538 158.217 238.945 159.03C239.351 159.742 239.758 160.25 239.656 160.351Z" fill="#30AB5E"/>
<path d="M216.281 141.854C216.281 141.854 216.078 141.651 215.672 141.244C215.265 140.939 214.554 140.431 213.538 140.329C212.521 140.228 211.2 140.329 209.981 141.041C208.761 141.752 207.643 143.073 206.627 144.598C205.611 146.122 204.798 147.951 203.477 149.781C202.257 151.61 200.224 153.236 197.887 153.947C195.55 154.76 192.704 154.659 190.163 153.541C187.724 152.423 185.489 150.289 184.472 147.545C183.964 146.224 183.863 144.598 184.269 143.277C184.676 141.854 185.692 140.736 186.911 140.025C188.131 139.313 189.452 139.008 190.875 139.11C192.196 139.313 193.416 139.923 194.33 140.736C196.261 142.464 197.176 144.903 197.074 147.138C197.074 149.374 196.261 151.407 195.143 152.931C194.127 154.455 192.704 155.573 191.485 156.386C190.163 157.199 189.046 157.606 188.029 157.911C187.013 158.216 186.2 158.317 185.692 158.419C185.387 158.419 185.184 158.521 185.082 158.521C184.981 158.521 184.879 158.521 184.879 158.521C184.879 158.521 185.184 158.419 185.692 158.317C186.2 158.216 187.013 158.012 188.029 157.708C189.046 157.403 190.163 156.895 191.383 156.183C192.603 155.37 193.924 154.252 194.94 152.728C195.956 151.203 196.668 149.273 196.668 147.138C196.668 145.004 195.855 142.667 194.025 141.142C193.111 140.329 191.993 139.821 190.773 139.618C189.554 139.516 188.233 139.821 187.216 140.431C186.098 141.142 185.184 142.159 184.777 143.378C184.371 144.598 184.472 146.02 184.981 147.342C185.895 149.984 188.029 152.016 190.367 153.033C192.704 154.151 195.448 154.252 197.684 153.439C200.021 152.728 201.851 151.203 203.07 149.476C204.29 147.748 205.204 145.919 206.22 144.293C207.237 142.768 208.456 141.447 209.777 140.736C211.099 139.923 212.521 139.821 213.538 140.025C214.554 140.228 215.265 140.736 215.672 141.041C216.18 141.651 216.281 141.854 216.281 141.854Z" fill="#30AB5E"/>
<path d="M216.689 157.708C216.689 157.708 215.977 157.403 215.063 156.387C214.148 155.472 213.132 153.948 212.522 152.017C211.912 150.086 212.014 148.257 212.217 146.936C212.42 145.615 212.827 144.903 212.929 144.903C213.03 144.903 212.725 145.716 212.624 146.936C212.522 148.155 212.522 149.985 213.03 151.814C213.538 153.643 214.453 155.168 215.266 156.082C216.079 157.2 216.689 157.607 216.689 157.708Z" fill="#30AB5E"/>
<path d="M220.448 134.335C220.448 134.436 219.737 134.03 218.415 133.522C217.094 133.014 215.163 132.302 212.623 131.997C210.082 131.693 207.033 131.693 203.781 132.404C202.155 132.81 200.428 133.319 198.903 134.233C198.192 134.64 197.48 135.351 197.277 136.164C197.074 136.977 197.582 137.993 198.293 138.197C198.7 138.298 199.106 138.197 199.411 137.892C199.716 137.587 199.919 137.18 200.021 136.774C200.224 135.961 200.326 134.945 200.224 134.03C200.123 132.201 199.716 130.473 198.903 129.05C198.192 127.526 197.175 126.306 196.058 125.392C194.94 124.477 193.72 123.766 192.501 123.359C190.163 122.546 188.029 122.546 186.606 122.749C185.184 122.953 184.472 123.258 184.472 123.258C184.472 123.258 184.675 123.156 184.98 123.054C185.285 122.953 185.895 122.749 186.606 122.648C188.029 122.343 190.163 122.241 192.704 123.054C193.923 123.461 195.245 124.172 196.362 125.087C197.582 126.103 198.598 127.323 199.411 128.847C200.224 130.371 200.732 132.201 200.834 134.03C200.834 134.945 200.834 135.961 200.631 136.876C200.529 137.384 200.326 137.892 199.919 138.197C199.513 138.603 198.903 138.806 198.293 138.603C197.684 138.4 197.277 137.993 197.074 137.485C196.871 136.977 196.769 136.469 196.871 135.961C197.074 134.843 197.887 134.132 198.7 133.725C200.326 132.81 202.054 132.302 203.781 131.896C207.135 131.083 210.285 131.184 212.826 131.591C215.367 131.997 217.298 132.709 218.619 133.319C219.228 133.623 219.737 133.827 220.143 134.03C220.245 134.132 220.448 134.233 220.448 134.335Z" fill="#30AB5E"/>
<path d="M141.18 137.18C141.18 137.18 141.789 136.672 142.806 135.656C143.822 134.639 145.143 133.013 145.956 130.574C146.871 128.237 147.176 124.985 145.651 121.936C144.94 120.412 143.822 118.989 142.399 117.973C140.976 116.855 139.147 116.143 137.318 116.042C136.403 116.042 135.489 116.245 134.676 116.651C133.863 117.058 133.151 117.668 132.846 118.481C132.541 119.294 132.745 120.208 133.253 120.818C133.761 121.529 134.472 122.038 135.184 122.241C136.708 122.749 138.334 122.241 139.554 121.529C140.773 120.716 141.688 119.599 142.196 118.481C143.314 116.143 143.314 114.009 143.517 112.688C143.517 111.977 143.619 111.468 143.619 111.062C143.619 110.655 143.619 110.452 143.619 110.452C143.619 110.452 143.619 110.655 143.72 111.062C143.72 111.468 143.72 111.977 143.72 112.688C143.72 114.111 143.619 116.245 142.602 118.684C142.094 119.903 141.18 121.021 139.859 121.936C138.537 122.749 136.81 123.359 135.082 122.749C134.269 122.444 133.456 121.936 132.846 121.123C132.338 120.31 132.033 119.294 132.44 118.277C132.745 117.261 133.558 116.55 134.472 116.143C135.387 115.737 136.403 115.533 137.42 115.533C139.452 115.635 141.383 116.448 142.806 117.566C144.33 118.684 145.448 120.208 146.159 121.733C146.871 123.257 147.176 124.985 147.176 126.509C147.176 128.034 146.769 129.456 146.363 130.676C145.448 133.115 144.025 134.741 143.009 135.757C142.501 136.265 141.993 136.57 141.688 136.773C141.383 137.18 141.18 137.282 141.18 137.18Z" fill="#30AB5E"/>
<path d="M162.319 152.322C162.319 152.322 162.015 152.017 161.506 151.509C160.998 150.899 160.389 150.086 159.779 148.867C158.458 146.529 157.34 142.871 157.543 138.704C157.848 134.537 159.474 131.082 161.1 128.948C161.913 127.83 162.624 127.017 163.132 126.509C163.641 126.001 164.047 125.797 164.047 125.797C164.149 125.899 162.828 126.915 161.405 129.151C159.982 131.285 158.356 134.74 158.153 138.704C157.848 142.667 158.966 146.326 160.185 148.663C161.202 151.001 162.319 152.322 162.319 152.322Z" fill="#30AB5E"/>
<path d="M182.136 130.27C182.034 130.27 181.628 128.746 180.408 126.51C179.188 124.274 176.953 121.429 173.701 119.193C170.449 117.059 166.892 116.144 164.351 115.839C161.81 115.534 160.184 115.738 160.184 115.636C160.184 115.636 160.591 115.534 161.302 115.433C162.014 115.331 163.131 115.331 164.351 115.433C166.993 115.636 170.55 116.449 173.904 118.685C177.258 120.92 179.493 123.868 180.713 126.205C181.323 127.323 181.729 128.339 181.932 129.051C182.136 129.864 182.136 130.27 182.136 130.27Z" fill="#30AB5E"/>
<g opacity="0.3">
<g opacity="0.3">
<g opacity="0.3">
<path opacity="0.3" d="M209.88 158.725C208.864 159.131 208.965 160.656 209.778 161.367C210.591 162.079 211.709 162.079 212.827 161.977C224.718 161.367 236.201 154.965 242.909 145.107C233.762 152.627 221.669 155.473 210.083 158.115" fill="black"/>
</g>
</g>
</g>
<g opacity="0.3">
<g opacity="0.3">
<g opacity="0.3">
<path opacity="0.3" d="M208.049 148.358C207.033 146.834 207.744 144.7 208.964 143.379C210.285 142.057 212.012 141.346 213.638 140.533C219.634 137.586 224.513 132.505 227.358 126.509C229.187 122.545 230.61 117.565 234.675 115.939C232.541 130.066 222.073 142.566 208.557 147.139" fill="black"/>
</g>
</g>
</g>
<g opacity="0.3">
<g opacity="0.3">
<g opacity="0.3">
<path opacity="0.3" d="M179.291 95.6143C180.307 106.692 179.494 117.972 176.953 128.846C176.445 131.184 175.734 133.521 175.835 135.858C175.835 138.196 177.36 140.94 179.189 142.464C180.917 138.602 180.917 134.842 181.628 130.675C182.238 126.915 183.356 118.074 183.356 117.972C183.457 110.248 181.73 103.643 178.681 96.7321" fill="black"/>
</g>
</g>
</g>
<g opacity="0.3">
<g opacity="0.3">
<g opacity="0.3">
<path opacity="0.3" d="M198.395 62.2805C199.92 70.4106 203.985 78.0326 209.879 83.8253C212.115 86.0611 214.961 87.992 218.009 87.8903C216.18 84.2318 215.672 79.9635 216.485 75.8984C219.127 77.6261 221.871 79.2521 224.818 80.4716C227.765 81.5895 231.017 82.1992 234.168 81.4879C234.778 75.8984 235.489 70.2073 236.099 64.6179C236.2 64.0081 236.2 63.2967 235.896 62.687C235.591 62.0772 234.676 61.874 234.27 62.2805C234.066 62.4837 233.965 62.7886 233.965 62.9919C232.847 67.9715 232.135 72.3415 231.017 77.3212C230.204 78.1342 227.664 77.8293 226.038 77.2196C224.615 76.7114 224.005 75.4919 223.091 74.2724C222.176 73.0529 222.278 73.2561 220.855 72.6464C218.213 71.5285 213.233 72.4431 212.115 74.7805C210.997 77.1179 211.81 80.2683 212.623 82.5041C205.408 77.8293 199.92 70.309 197.786 61.9756" fill="black"/>
</g>
</g>
</g>
<g opacity="0.3">
<g opacity="0.3">
<path opacity="0.3" d="M253.78 86.0615C253.576 86.468 260.08 108.521 260.08 108.521L251.646 103.745L253.78 86.0615Z" fill="black"/>
</g>
</g>
<path d="M201.24 22.1372V57.1984C201.24 59.2309 201.951 61.1618 203.272 62.6862C205.203 65.0236 207.642 67.0561 210.285 68.4789L217.399 72.4423L223.293 67.2594C225.021 65.735 226.037 63.6008 226.138 61.2634C226.24 58.7228 226.24 56.1821 226.24 56.1821C226.24 56.1821 236.199 55.4707 237.114 45.7146C237.521 41.1414 237.724 31.6901 237.724 22.9502C237.724 12.9909 230.102 4.75911 220.244 3.9461H219.939C209.573 3.64122 201.138 11.9746 201.24 22.1372Z" fill="#FFBE9D"/>
<path d="M226.136 56.1827C226.136 56.1827 219.937 56.0811 213.738 51.4062C213.738 51.4062 216.279 58.825 226.136 58.7234V56.1827Z" fill="#EB996E"/>
<path d="M234.677 29.2511C234.677 29.9625 233.966 30.5723 233.254 30.5723C232.441 30.5723 231.933 29.9625 231.933 29.1495C231.933 28.4381 232.644 27.8284 233.356 27.8284C234.067 27.93 234.677 28.5398 234.677 29.2511Z" fill="#062D74"/>
<path d="M235.083 26.9147C234.88 27.118 233.863 26.2033 232.441 26.1017C230.916 26.0001 229.798 26.6098 229.595 26.4066C229.493 26.3049 229.697 26.0001 230.205 25.6952C230.713 25.3903 231.526 25.0854 232.441 25.187C233.355 25.2887 234.168 25.6952 234.575 26.1017C234.981 26.5082 235.184 26.8131 235.083 26.9147Z" fill="#062D74"/>
<path d="M220.448 28.5398C220.448 29.2512 219.736 29.861 219.025 29.861C218.212 29.861 217.704 29.2512 217.704 28.4382C217.704 27.7268 218.415 27.1171 219.126 27.1171C219.939 27.2187 220.549 27.8285 220.448 28.5398Z" fill="#062D74"/>
<path d="M220.246 25.9992C220.042 26.2024 219.026 25.2878 217.603 25.1862C216.079 25.0845 214.961 25.6943 214.758 25.491C214.656 25.3894 214.859 25.0845 215.368 24.7797C215.876 24.4748 216.689 24.1699 217.603 24.2715C218.518 24.3731 219.331 24.7797 219.738 25.1862C220.246 25.5927 220.347 25.8975 220.246 25.9992Z" fill="#062D74"/>
<path d="M224.818 37.5843C224.818 37.4827 225.733 37.381 227.257 37.381C227.663 37.381 227.968 37.2794 228.07 37.0761C228.172 36.7713 228.07 36.3648 227.867 35.9583C227.562 35.0436 227.257 34.0274 226.952 32.9095C225.733 28.6412 224.818 25.0842 225.021 25.0842C225.224 25.0842 226.342 28.4379 227.562 32.8078C227.867 33.8241 228.172 34.8404 228.375 35.8566C228.476 36.2631 228.68 36.7713 228.476 37.381C228.375 37.6859 228.07 37.8892 227.765 37.8892C227.562 37.9908 227.257 37.8892 227.155 37.8892C225.733 37.6859 224.818 37.6859 224.818 37.5843Z" fill="#062D74"/>
<path d="M220.248 38.1956C220.451 38.1956 220.35 39.8216 221.671 41.1427C222.992 42.4639 224.72 42.3622 224.72 42.5655C224.72 42.6671 224.313 42.8704 223.602 42.7687C222.891 42.7687 221.874 42.4639 221.061 41.6509C220.248 40.8378 219.943 39.9232 219.943 39.2118C219.943 38.6021 220.147 38.1956 220.248 38.1956Z" fill="#062D74"/>
<path d="M221.159 20.1052C220.955 20.5117 219.533 20.2068 217.703 20.2068C215.874 20.2068 214.451 20.6133 214.248 20.2068C214.146 20.0036 214.451 19.6987 215.061 19.2922C215.671 18.9873 216.585 18.6824 217.703 18.5808C218.821 18.5808 219.736 18.7841 220.346 19.0889C220.955 19.5971 221.26 19.902 221.159 20.1052Z" fill="#062D74"/>
<path d="M234.877 22.5442C234.572 22.8491 233.556 22.4426 232.336 22.341C231.117 22.1377 229.999 22.341 229.795 22.0361C229.694 21.8329 229.897 21.528 230.405 21.2231C230.913 20.9182 231.625 20.715 232.539 20.8166C233.352 20.9182 234.064 21.3247 234.47 21.6296C234.877 22.0361 234.978 22.341 234.877 22.5442Z" fill="#062D74"/>
<path d="M212.722 12.2793C212.722 12.2793 212.722 12.3809 212.722 12.2793C210.994 13.3972 209.877 15.1249 209.368 17.0558C209.368 17.1574 209.368 17.1574 209.368 17.259C208.759 20.0029 208.555 22.8485 207.946 25.5924C207.336 28.3363 207.437 30.4705 204.694 31.0802C202.966 31.4867 201.442 30.4705 200.832 29.5558C200.629 29.1493 200.629 28.7428 200.629 28.2347C200.629 21.4257 199.307 18.7834 199.917 11.7712C200.12 9.84029 201.137 8.11264 202.763 7.09637C204.287 6.18174 206.218 5.16547 207.844 6.08011C209.47 6.99475 211.299 10.2468 212.417 11.6696" fill="#062D74"/>
<path d="M204.186 26.9136C203.983 26.812 197.58 24.3729 197.276 31.0803C196.971 37.7876 203.78 36.7713 203.78 36.5681C203.78 36.3648 204.186 26.9136 204.186 26.9136Z" fill="#FFBE9D"/>
<path d="M201.847 33.824C201.847 33.824 201.745 33.9256 201.542 34.0273C201.338 34.1289 201.033 34.1289 200.627 34.0273C199.916 33.7224 199.407 32.6045 199.407 31.385C199.407 30.7752 199.611 30.1655 199.814 29.7589C200.017 29.2508 200.424 28.9459 200.729 28.9459C201.135 28.8443 201.338 29.1492 201.44 29.2508C201.542 29.4541 201.44 29.5557 201.542 29.5557C201.542 29.5557 201.643 29.4541 201.643 29.1492C201.643 29.0476 201.542 28.8443 201.44 28.7427C201.237 28.6411 201.034 28.5394 200.83 28.5394C200.322 28.5394 199.814 29.0476 199.509 29.5557C199.204 30.0638 199.001 30.6736 199.001 31.385C199.001 32.7061 199.611 34.0273 200.525 34.3321C201.034 34.4338 201.44 34.3321 201.643 34.2305C201.745 34.0273 201.847 33.9256 201.847 33.824Z" fill="#EB996E"/>
<path d="M207.439 7.19852C206.016 4.35298 210.894 0.897676 214.248 0.186291C217.602 -0.62672 221.87 1.40581 225.02 2.72695C227.053 3.53996 228.984 4.75948 231.22 4.75948C232.642 4.86111 234.167 4.35298 235.59 4.0481C237.012 3.64159 238.537 3.33671 239.959 3.53996C241.382 3.74322 242.805 4.65785 243.313 6.08063C243.72 7.5034 242.805 9.23104 241.382 9.33267C243.313 8.41803 245.854 10.0441 246.057 12.1782C246.159 14.3124 243.821 16.1416 241.789 15.5319C242.805 14.9221 244.126 16.2433 243.923 17.3612C243.72 18.5807 242.602 19.2921 241.382 19.6986C238.537 20.7148 235.285 20.0034 232.439 18.7839C229.594 17.5644 227.053 15.8368 224.309 14.5156C221.565 13.1945 216.89 10.9587 213.943 11.7717C211.809 12.3815 210.081 14.8205 208.963 14.1091C207.845 13.4994 207.236 12.1782 207.134 10.9587C206.829 9.73918 207.134 8.41803 207.439 7.19852Z" fill="#062D74"/>
<path d="M242.094 9.23132C241.993 9.23132 241.688 9.73946 240.875 10.4508C240.062 11.1622 238.842 12.0769 236.911 12.585C235.082 13.0931 232.745 13.0931 230.509 11.772C228.273 10.5525 226.545 8.31669 224.411 6.28416C222.379 4.15 219.838 2.52398 217.196 2.01584C214.553 1.50771 212.114 2.32072 210.59 3.74349C209.066 5.16627 208.659 6.89392 208.761 7.91018C208.761 8.41831 208.862 8.92644 208.964 9.1297C209.066 9.43458 209.167 9.5362 209.167 9.5362C209.269 9.5362 208.964 8.92644 209.066 7.91018C209.167 6.89392 209.574 5.26789 210.997 4.04837C212.419 2.82886 214.757 2.11747 217.196 2.6256C219.635 3.13374 222.074 4.65813 224.106 6.69066C226.139 8.72319 227.968 11.0606 230.306 12.2801C232.643 13.6013 235.184 13.4996 237.115 12.9915C239.045 12.4834 240.367 11.4671 241.078 10.6541C241.484 10.2476 241.688 9.94271 241.891 9.63783C241.993 9.43458 242.094 9.23132 242.094 9.23132Z" fill="#455A64"/>
<path d="M202.458 26.4058C202.458 26.4058 202.763 26.2025 203.068 25.6944C203.373 25.1863 203.678 24.3732 203.576 23.2554C203.576 21.1212 201.849 18.5805 201.849 15.6334C201.849 14.109 202.153 12.6862 202.966 11.6699C203.678 10.6537 204.694 10.0439 205.609 9.73904C206.523 9.43416 207.336 9.53579 207.845 9.63741C208.353 9.73904 208.658 9.94229 208.658 9.84067C208.658 9.84067 208.454 9.53579 207.845 9.33253C207.336 9.12928 206.422 9.02765 205.406 9.23091C204.389 9.43416 203.17 10.1455 202.357 11.2634C201.544 12.3813 201.137 14.0074 201.137 15.5317C201.137 17.1578 201.645 18.5805 202.052 19.9017C202.56 21.1212 202.865 22.2391 202.966 23.2554C203.271 25.3895 202.357 26.4058 202.458 26.4058Z" fill="#455A64"/>
<path d="M230.096 220.207C230.096 220.207 229.588 220.207 228.572 220.207C227.556 220.207 226.031 220.207 224.1 220.308C220.239 220.41 214.446 220.511 207.027 220.918C199.608 221.324 190.564 221.934 180.096 223.154C174.913 223.763 169.324 224.475 163.429 225.491C157.535 226.406 151.336 227.625 144.933 229.048C138.429 230.471 131.722 232.3 124.913 234.536C118.104 236.772 110.99 239.516 104.181 243.072C100.726 244.902 97.3722 246.934 94.2218 249.475C91.0713 251.914 88.1242 254.861 86.0916 258.418C85.8884 258.825 85.5835 259.333 85.3803 259.739L84.7705 261.162L84.4656 261.873C84.364 262.077 84.364 262.382 84.2624 262.585L83.8559 264.109C83.6526 266.142 83.551 268.276 84.1607 270.308C85.177 274.475 87.9209 277.93 90.9697 280.979C97.3722 286.975 105.502 291.142 113.836 294.597C122.271 298.052 131.315 300.796 140.563 303.032C159.059 307.504 178.673 310.146 198.795 311.569C218.917 312.991 238.735 312.89 257.739 311.772C276.743 310.654 295.036 308.317 312.211 304.658C320.747 302.829 328.979 300.593 336.906 298.052C344.731 295.41 352.251 292.26 358.959 288.398C362.312 286.467 365.463 284.231 368.308 281.792C371.052 279.353 373.491 276.508 375.016 273.256L375.524 272.036C375.727 271.63 375.829 271.223 375.93 270.817L376.235 269.495C376.235 269.292 376.337 269.089 376.337 268.886L376.438 268.276C376.642 266.548 376.54 264.821 376.032 263.195C375.524 261.569 374.711 260.044 373.898 258.621C372.983 257.199 371.865 255.877 370.747 254.76C368.41 252.422 365.869 250.39 363.329 248.662C360.686 246.934 358.044 245.308 355.402 243.987C350.117 241.142 344.934 239.007 340.056 237.178C330.198 233.418 321.459 231.081 314.243 229.251C307.028 227.422 301.438 226.304 297.576 225.593C295.645 225.186 294.223 224.983 293.206 224.78C292.19 224.576 291.682 224.475 291.682 224.475C291.682 224.475 293.714 224.78 297.576 225.491C301.438 226.202 307.028 227.32 314.243 229.048C321.459 230.776 330.198 233.215 340.056 236.873C344.934 238.703 350.219 240.938 355.503 243.682C358.146 245.105 360.788 246.629 363.43 248.357C366.073 250.085 368.613 252.117 370.951 254.556C372.17 255.776 373.186 257.097 374.101 258.52C375.016 259.942 375.829 261.467 376.337 263.195C376.845 264.922 376.947 266.65 376.743 268.479L376.642 269.19C376.642 269.394 376.54 269.597 376.54 269.8L376.235 271.121C376.134 271.528 375.93 271.934 375.829 272.443L375.321 273.662C373.796 277.016 371.357 279.861 368.512 282.402C365.666 284.943 362.516 287.077 359.162 289.109C352.353 292.971 344.934 296.121 337.007 298.764C329.081 301.406 320.849 303.642 312.312 305.471C295.137 309.13 276.844 311.467 257.84 312.585C238.836 313.703 219.019 313.703 198.795 312.382C178.673 310.959 158.958 308.317 140.462 303.743C131.214 301.508 122.169 298.764 113.734 295.308C105.299 291.752 97.1689 287.585 90.6648 281.589C87.5144 278.54 84.7705 274.983 83.7542 270.715C83.1445 268.581 83.2461 266.447 83.4494 264.312L83.8559 262.788C83.9575 262.483 83.9575 262.28 84.0591 261.975L84.364 261.264L84.9738 259.841C85.177 259.333 85.4819 258.926 85.7868 258.418C87.9209 254.76 90.8681 251.812 94.1201 249.373C97.2706 246.934 100.726 244.8 104.181 242.971C111.092 239.312 118.206 236.67 125.015 234.434C131.925 232.198 138.633 230.471 145.137 228.946C151.641 227.524 157.84 226.304 163.734 225.389C169.629 224.373 175.218 223.763 180.401 223.154C190.869 222.036 199.913 221.324 207.332 221.02C214.751 220.715 220.442 220.613 224.405 220.511C226.336 220.511 227.861 220.511 228.877 220.511C229.588 220.207 230.096 220.207 230.096 220.207Z" fill="#F2C94C"/>
<path d="M146.969 143.277C146.969 143.277 146.359 143.378 145.241 143.582C144.124 143.785 142.396 144.09 140.262 144.598C135.892 145.513 129.388 146.935 121.156 149.171C112.924 151.509 102.863 154.557 91.7859 159.537C89.042 160.757 86.1964 162.179 83.3509 163.805C80.5054 165.431 77.6598 167.159 74.9159 169.192C72.172 171.224 69.4281 173.561 67.0907 176.305C64.7533 179.049 62.7207 182.301 61.8061 185.96C60.7898 189.618 61.0947 193.683 62.6191 197.342C64.1435 201.001 66.6842 204.354 69.6313 207.2C75.6273 212.993 83.2493 217.362 91.3794 221.123C107.741 228.541 126.441 233.521 146.258 237.281C166.176 240.94 187.315 243.277 209.266 244.192C231.217 245.208 254.083 244.903 277.254 242.972C300.527 241.041 323.088 237.586 344.429 231.997C355.1 229.151 365.364 225.797 375.019 221.529C379.795 219.395 384.47 216.956 388.84 214.11C393.21 211.265 397.173 208.114 400.527 204.253C403.779 200.492 406.116 195.818 406.32 190.94C406.421 190.33 406.32 189.72 406.218 189.11C406.116 188.501 406.218 187.891 406.015 187.281L405.608 185.553C405.507 184.944 405.202 184.435 404.999 183.826C404.186 181.59 402.864 179.557 401.543 177.627C398.596 173.866 395.039 170.818 391.279 168.074C387.519 165.431 383.454 163.196 379.49 161.163C371.462 157.2 363.23 154.151 355.303 151.712C347.376 149.171 339.551 147.24 332.132 145.614C302.254 139.212 277.457 137.382 260.384 136.468C251.848 136.061 245.242 135.96 240.669 135.858C238.433 135.858 236.705 135.756 235.587 135.756C234.469 135.756 233.86 135.655 233.86 135.655C233.86 135.655 234.469 135.655 235.587 135.655C236.705 135.655 238.433 135.655 240.669 135.756C245.14 135.858 251.848 135.858 260.384 136.265C277.457 137.179 302.254 138.805 332.234 145.208C339.754 146.834 347.478 148.866 355.507 151.305C363.433 153.744 371.665 156.793 379.795 160.757C383.86 162.789 387.824 165.025 391.686 167.667C395.446 170.309 399.104 173.46 402.153 177.322C403.576 179.253 404.897 181.387 405.71 183.622C405.913 184.232 406.218 184.74 406.32 185.35L406.726 187.179C406.93 187.789 406.828 188.399 406.929 189.009C406.929 189.618 407.031 190.228 407.031 190.838C406.93 193.379 406.32 195.818 405.303 198.155C404.287 200.492 402.864 202.627 401.238 204.558C397.986 208.419 393.82 211.671 389.45 214.517C385.08 217.362 380.405 219.7 375.527 221.936C365.872 226.306 355.507 229.659 344.836 232.505C323.494 238.094 300.933 241.55 277.661 243.48C254.388 245.411 231.522 245.615 209.571 244.7C187.62 243.684 166.38 241.448 146.563 237.688C126.745 233.928 107.944 228.948 91.5826 221.427C83.4525 217.667 75.7289 213.297 69.733 207.403C66.6842 204.456 64.1435 201.204 62.6191 197.444C61.0947 193.683 60.7898 189.517 61.8061 185.858C62.7207 182.098 64.8549 178.846 67.1923 176.102C69.5297 173.257 72.2736 171.021 75.0175 168.887C77.7614 166.854 80.607 165.025 83.4525 163.5C86.2981 161.874 89.1436 160.553 91.8875 159.232C102.965 154.252 113.026 151.204 121.258 148.968C129.489 146.732 135.993 145.411 140.465 144.496C144.632 143.683 146.969 143.277 146.969 143.277Z" fill="#F2C94C"/>
<path d="M182.639 296.632C182.334 296.733 180.81 296.937 177.558 297.445C174.204 297.953 169.326 298.867 163.127 300.189C156.928 301.611 149.306 303.441 140.769 306.489C136.501 308.014 132.029 309.843 127.456 312.282C125.22 313.502 122.883 314.823 120.749 316.449C118.513 318.075 116.379 319.802 114.549 321.937C113.635 323.055 112.822 324.172 112.11 325.494C111.399 326.713 110.891 328.136 110.586 329.559C110.484 329.965 110.484 330.27 110.383 330.677L110.281 331.794C110.281 332.506 110.383 333.319 110.484 334.03C110.688 334.742 110.789 335.555 111.094 336.266L111.501 337.384L111.704 337.892L112.009 338.4C113.431 341.144 115.667 343.481 118.106 345.616C120.545 347.75 123.391 349.477 126.338 351.103C132.232 354.355 138.736 356.896 145.545 359.132C152.354 361.368 159.468 363.095 166.887 364.62C181.724 367.567 197.476 369.396 213.94 370.209C230.403 371.022 247.375 370.819 264.753 369.295C282.131 367.77 299.001 365.128 314.855 360.656C322.782 358.421 330.404 355.677 337.416 352.018C340.871 350.189 344.225 348.156 347.274 345.717C348.087 345.107 348.697 344.396 349.408 343.786C350.119 343.177 350.729 342.364 351.339 341.652C352.457 340.128 353.575 338.603 354.184 336.774C355.709 333.319 355.302 329.355 353.778 326.103C352.152 322.851 349.51 320.209 346.766 317.973C341.176 313.502 334.774 310.555 328.575 308.014C322.375 305.575 316.075 303.644 310.079 302.119C304.083 300.595 298.188 299.376 292.599 298.359C270.038 294.396 251.542 293.684 238.737 293.481C226.034 293.38 219.631 293.38 218.92 293.38C218.92 293.38 226.034 293.278 238.737 293.38C251.542 293.583 270.038 294.294 292.599 298.258C298.188 299.274 304.083 300.493 310.18 302.018C316.176 303.542 322.477 305.473 328.676 307.912C334.875 310.453 341.278 313.4 346.969 317.872C349.713 320.107 352.355 322.75 354.083 326.103C355.709 329.457 356.115 333.522 354.591 337.079C353.981 338.908 352.863 340.433 351.644 341.957C351.034 342.668 350.424 343.38 349.713 344.091C349.002 344.701 348.29 345.412 347.579 346.022C344.632 348.461 341.176 350.595 337.721 352.425C330.709 356.083 322.985 358.725 315.16 361.063C299.306 365.534 282.436 368.177 265.058 369.701C247.68 371.225 230.607 371.327 214.143 370.616C197.68 369.803 181.928 367.973 167.09 364.925C159.671 363.4 152.558 361.673 145.749 359.437C138.94 357.201 132.436 354.66 126.541 351.408C123.594 349.782 120.749 347.953 118.309 345.92C115.87 343.786 113.635 341.449 112.11 338.603L111.805 338.095L111.602 337.587L111.196 336.469C110.891 335.758 110.789 334.945 110.586 334.233C110.484 333.42 110.383 332.709 110.383 331.896L110.484 330.778C110.484 330.372 110.586 330.067 110.688 329.66C110.992 328.136 111.501 326.815 112.212 325.494C112.923 324.172 113.736 323.055 114.651 321.937C116.582 319.802 118.716 317.973 120.952 316.347C123.188 314.721 125.423 313.4 127.761 312.181C132.334 309.741 136.806 307.912 141.074 306.388C149.61 303.339 157.232 301.51 163.533 300.087C169.732 298.766 174.712 297.953 177.964 297.445C180.911 296.835 182.639 296.632 182.639 296.632Z" fill="#F2C94C"/>
<path d="M315.363 389.518C315.261 389.518 315.465 388.095 314.55 385.859C313.635 383.522 311.095 380.676 307.131 378.034C299.103 372.749 285.79 368.379 269.021 365.635C260.586 364.314 251.338 363.298 241.277 362.892C231.216 362.485 220.545 362.587 209.265 363.501C203.675 363.908 197.883 364.619 192.09 365.534C186.297 366.448 180.301 367.668 174.407 369.294C171.46 370.107 168.513 371.022 165.566 372.038C162.618 373.156 159.773 374.375 156.927 375.798C154.183 377.322 151.439 379.05 149.102 381.184C146.765 383.318 144.935 386.266 144.834 389.518C144.834 392.77 146.765 395.717 149.102 397.851C151.439 400.087 154.082 401.814 156.927 403.237C159.773 404.66 162.618 405.88 165.566 406.997C168.513 408.115 171.46 409.03 174.407 409.741C180.301 411.367 186.196 412.485 192.09 413.502C197.883 414.416 203.675 415.026 209.265 415.534C220.545 416.449 231.216 416.55 241.277 416.144C251.338 415.737 260.586 414.823 269.021 413.4C285.79 410.656 299.204 406.286 307.131 401.001C311.095 398.359 313.635 395.514 314.55 393.176C315.465 390.94 315.261 389.518 315.363 389.518C315.363 389.721 315.363 389.924 315.261 390.534C315.261 390.839 315.16 391.245 315.058 391.753C314.956 392.262 314.753 392.77 314.55 393.278C313.635 395.615 311.095 398.562 307.131 401.205C299.103 406.489 285.79 410.961 269.021 413.603C260.586 415.026 251.338 415.941 241.277 416.347C231.216 416.754 220.545 416.652 209.265 415.737C203.675 415.331 197.883 414.619 192.09 413.705C186.297 412.79 180.301 411.571 174.407 409.945C171.46 409.132 168.513 408.217 165.566 407.099C162.618 405.981 159.773 404.762 156.927 403.339C154.082 401.814 151.439 400.087 149.102 397.851C147.984 396.733 146.866 395.514 146.155 394.091C145.342 392.668 144.834 391.042 144.834 389.416C144.834 387.79 145.342 386.164 146.155 384.741C146.968 383.318 147.984 382.099 149.204 380.981C151.541 378.745 154.285 377.018 157.029 375.493C159.874 373.969 162.72 372.749 165.667 371.733C168.614 370.615 171.561 369.701 174.509 368.888C180.403 367.261 186.399 366.144 192.192 365.127C197.984 364.213 203.777 363.603 209.367 363.095C220.647 362.18 231.318 362.079 241.379 362.485C251.44 362.892 260.688 363.806 269.123 365.229C285.891 367.973 299.306 372.343 307.233 377.627C311.196 380.27 313.737 383.217 314.652 385.554C314.855 386.164 315.058 386.672 315.16 387.079C315.261 387.587 315.363 387.892 315.363 388.298C315.261 389.111 315.363 389.416 315.363 389.518Z" fill="#F2C94C"/>
<path d="M90.7683 231.894C90.7683 233.723 89.3455 235.146 87.5162 235.146C85.6869 235.146 84.2642 233.723 84.2642 231.894C84.2642 230.065 85.6869 228.642 87.5162 228.642C89.3455 228.642 90.7683 230.166 90.7683 231.894Z" fill="#F2C94C"/>
<path d="M381.013 237.383C382.809 237.383 384.265 235.927 384.265 234.13C384.265 232.334 382.809 230.878 381.013 230.878C379.217 230.878 377.761 232.334 377.761 234.13C377.761 235.927 379.217 237.383 381.013 237.383Z" fill="#F2C94C"/>
<path d="M251.948 353.644C251.948 355.473 250.525 356.896 248.696 356.896C246.867 356.896 245.444 355.473 245.444 353.644C245.444 351.814 246.867 350.392 248.696 350.392C250.525 350.392 251.948 351.916 251.948 353.644Z" fill="#F2C94C"/>
<path d="M153.37 270.309C153.37 271.224 152.658 271.935 151.744 271.935C150.829 271.935 150.118 271.224 150.118 270.309C150.118 269.394 150.829 268.683 151.744 268.683C152.658 268.683 153.37 269.394 153.37 270.309Z" fill="#F2C94C"/>
<path d="M355.098 309.639C355.098 310.553 354.386 311.265 353.472 311.265C352.557 311.265 351.846 310.553 351.846 309.639C351.846 308.724 352.557 308.013 353.472 308.013C354.386 308.013 355.098 308.724 355.098 309.639Z" fill="#F2C94C"/>
<path d="M227.049 384.639C227.049 385.554 226.338 386.265 225.423 386.265C224.509 386.265 223.797 385.554 223.797 384.639C223.797 383.725 224.509 383.013 225.423 383.013C226.338 383.013 227.049 383.725 227.049 384.639Z" fill="#F2C94C"/>
<path d="M142.398 101.406C142.847 101.406 143.211 101.042 143.211 100.593C143.211 100.144 142.847 99.7798 142.398 99.7798C141.949 99.7798 141.585 100.144 141.585 100.593C141.585 101.042 141.949 101.406 142.398 101.406Z" fill="#E8505B"/>
<path d="M288.64 225.391C249.209 235.858 211.302 235.045 169.838 225.391L164.96 149.679C207.745 158.012 250.631 156.996 288.538 147.85V225.391H288.64Z" fill="#5ECE88"/>
<g opacity="0.8">
<g opacity="0.8">
<path opacity="0.8" d="M288.64 225.391C249.209 235.858 211.302 235.045 169.838 225.391L164.96 149.679C207.745 158.012 250.631 156.996 288.538 147.85V225.391H288.64Z" fill="white"/>
</g>
</g>
<path d="M282.542 213.907C282.542 213.907 282.44 213.907 282.339 214.008C282.135 214.11 281.932 214.212 281.627 214.313C281.017 214.618 280.001 215.025 278.782 215.431C276.241 216.346 272.582 217.667 267.908 218.886C258.558 221.325 245.245 223.358 230.509 223.155C215.773 222.951 202.562 220.919 193.009 219.191C188.232 218.277 184.472 217.464 181.83 216.854C180.509 216.549 179.493 216.346 178.781 216.143C178.476 216.041 178.171 216.041 177.968 215.939C177.765 215.939 177.663 215.838 177.663 215.838C177.663 215.838 177.765 215.838 177.968 215.838C178.171 215.838 178.476 215.939 178.781 215.939C179.493 216.041 180.509 216.346 181.83 216.549C184.472 217.057 188.334 217.87 193.009 218.683C202.46 220.411 215.672 222.342 230.407 222.545C245.143 222.748 258.355 220.817 267.704 218.48C272.379 217.26 276.139 216.143 278.68 215.228C280.001 214.821 280.916 214.415 281.627 214.212C281.932 214.11 282.237 214.008 282.44 213.907H282.542Z" fill="#5ECE88"/>
<path d="M224.615 217.057C219.635 218.48 214.554 218.175 209.473 216.549V189.618C214.554 188.602 219.635 188.602 224.615 189.618V217.057Z" fill="#5ECE88"/>
<path d="M249.105 215.431C249.105 215.431 249.105 215.329 249.105 215.228C249.105 215.025 249.105 214.923 249.105 214.618C249.105 214.11 249.105 213.297 249.004 212.382C249.004 210.35 248.902 207.606 248.8 204.049C248.699 196.935 248.495 186.874 248.394 175.289L248.597 175.492C243.719 174.476 238.333 174.476 232.947 175.492L233.15 175.187C233.15 175.39 233.15 175.492 233.15 175.695C233.353 191.65 233.455 205.98 233.556 216.244L233.455 216.041C235.894 216.549 238.129 216.854 240.06 216.854C241.991 216.854 243.719 216.651 245.04 216.447C246.361 216.142 247.378 215.838 248.089 215.634C248.394 215.533 248.699 215.431 248.902 215.329C249.004 215.431 249.105 215.431 249.105 215.431C249.105 215.431 249.004 215.431 248.902 215.533C248.699 215.634 248.495 215.736 248.089 215.838C247.378 216.041 246.361 216.447 245.04 216.752C243.719 217.057 241.991 217.26 239.959 217.26C238.028 217.26 235.69 217.057 233.251 216.549H233.15V216.447C233.048 206.183 232.845 191.854 232.54 175.898C232.54 175.695 232.54 175.492 232.54 175.39V175.187H232.743C238.231 174.171 243.719 174.171 248.597 175.187H248.8V175.39C248.902 187.077 249.004 197.037 249.004 204.252C249.004 207.809 249.004 210.553 249.004 212.586C249.004 213.5 249.004 214.212 249.004 214.821C249.004 215.025 249.004 215.228 249.004 215.431C249.105 215.329 249.105 215.431 249.105 215.431Z" fill="#5ECE88"/>
<path d="M272.479 212.28C268.414 214.516 263.028 214.821 257.336 214.414V169.902C262.519 168.784 267.601 168.581 272.479 169.902V212.28Z" fill="#5ECE88"/>
<path d="M200.528 214.821C200.528 214.821 200.528 214.414 200.426 213.703C200.426 212.89 200.426 211.874 200.325 210.553C200.325 207.809 200.223 204.048 200.223 199.679L200.325 199.882C196.26 198.357 191.178 196.935 185.69 197.443L185.894 197.138C185.894 202.727 185.894 207.91 185.894 212.28L185.792 212.077C187.825 212.992 189.857 213.398 191.686 213.703C193.516 214.008 195.04 214.211 196.361 214.313C197.581 214.414 198.597 214.516 199.41 214.618C200.121 214.719 200.528 214.821 200.528 214.821C200.528 214.821 200.223 214.821 199.41 214.821C198.699 214.821 197.682 214.821 196.361 214.719C195.04 214.618 193.414 214.516 191.686 214.211C189.857 213.906 187.825 213.5 185.69 212.585L185.589 212.483V212.28C185.589 207.809 185.589 202.626 185.589 197.138V196.935H185.792C191.382 196.427 196.565 197.951 200.63 199.475L200.731 199.577V199.78C200.731 204.353 200.63 208.114 200.63 210.857C200.63 212.077 200.63 213.195 200.528 213.906C200.63 214.414 200.63 214.821 200.528 214.821Z" fill="#5ECE88"/>
<path d="M207.746 175.493C207.746 175.594 206.628 175.696 204.799 175.696C202.969 175.696 200.429 175.696 197.583 175.493C194.738 175.29 192.299 175.086 190.469 174.781C188.64 174.578 187.522 174.273 187.522 174.273C187.522 174.172 188.64 174.273 190.469 174.477C192.299 174.578 194.839 174.781 197.583 174.985C200.327 175.188 202.868 175.29 204.697 175.29C206.526 175.29 207.746 175.391 207.746 175.493Z" fill="#5ECE88"/>
<path d="M205.409 178.745C205.409 178.846 204.392 178.846 202.766 178.745C201.14 178.643 198.905 178.541 196.466 178.338C194.026 178.135 191.791 177.932 190.165 177.83C188.539 177.627 187.624 177.525 187.624 177.423C187.624 177.322 188.64 177.322 190.266 177.423C191.892 177.525 194.128 177.627 196.567 177.83C199.006 178.033 201.242 178.236 202.868 178.338C204.494 178.541 205.409 178.643 205.409 178.745Z" fill="#5ECE88"/>
<path d="M210.996 183.114C210.996 183.114 210.996 182.809 210.996 182.199C210.996 181.589 211.097 180.675 211.097 179.557C211.199 177.219 211.402 174.069 211.504 170.105L211.707 170.309C204.39 170.41 194.431 170.105 183.658 168.784C183.353 168.988 184.065 168.479 183.963 168.581V168.683V168.784V168.988V169.394V170.207C183.963 170.817 183.862 171.325 183.862 171.935C183.76 173.053 183.76 174.17 183.658 175.288C183.557 177.423 183.353 179.557 183.252 181.589L183.049 181.284C191.179 182.301 198.191 182.707 203.171 182.91C205.61 183.012 207.541 183.012 208.963 183.114C209.573 183.114 210.081 183.114 210.488 183.114C210.793 183.114 210.996 183.114 210.996 183.114C210.996 183.114 210.793 183.114 210.488 183.114C210.183 183.114 209.573 183.114 208.862 183.114C207.541 183.114 205.508 183.114 203.069 183.114C198.089 183.012 191.077 182.605 182.947 181.691H182.744V181.488C182.845 179.455 182.947 177.321 183.15 175.187C183.252 174.069 183.252 172.951 183.353 171.833C183.353 171.223 183.455 170.715 183.455 170.105V169.292V168.886V168.683V168.581V168.479C183.353 168.581 184.065 167.971 183.76 168.276C194.532 169.597 204.492 170.004 211.809 170.004H212.012V170.207C211.707 174.17 211.504 177.524 211.402 179.76C211.301 180.878 211.301 181.691 211.199 182.301C210.996 182.809 210.996 183.114 210.996 183.114Z" fill="#5ECE88"/>
<path d="M214.453 188.805C214.351 188.907 213.436 187.688 212.522 186.061C211.505 184.537 210.896 183.114 210.997 183.114C211.099 183.013 212.014 184.232 212.928 185.858C213.944 187.383 214.554 188.704 214.453 188.805Z" fill="#5ECE88"/>
<path d="M49.8162 90.2266L62.7227 168.174C62.7227 168.174 82.3366 204.963 134.573 213.296L126.138 143.784C126.138 143.784 77.8651 128.845 49.8162 90.2266Z" fill="#5ECE88"/>
<g opacity="0.8">
<g opacity="0.8">
<path opacity="0.8" d="M49.8162 90.2266L62.7227 168.174C62.7227 168.174 82.3366 204.963 134.573 213.296L126.138 143.784C126.138 143.784 77.8651 128.845 49.8162 90.2266Z" fill="white"/>
</g>
</g>
<path d="M127.867 207.708C127.867 207.708 127.765 207.708 127.562 207.606C127.358 207.504 126.952 207.403 126.647 207.301C125.732 206.996 124.513 206.691 122.989 206.183C121.363 205.675 119.432 205.167 117.196 204.252C116.078 203.846 114.858 203.338 113.639 202.931C112.419 202.423 110.997 201.915 109.675 201.305C106.932 200.086 103.984 198.765 100.834 197.037C97.6835 195.411 94.5331 193.48 91.1795 191.346C84.5737 186.976 77.7648 181.386 71.7688 174.476C69.1265 171.325 66.6875 168.175 64.7566 164.72C62.4192 149.577 60.3866 136.163 58.8622 126.61C58.1509 121.833 57.5411 118.073 57.1346 115.329C56.9313 114.008 56.8297 112.992 56.7281 112.28C56.7281 111.976 56.6265 111.671 56.6265 111.467C56.6265 111.264 56.6265 111.163 56.6265 111.163C56.6265 111.163 56.6265 111.264 56.7281 111.467C56.7281 111.671 56.8297 111.874 56.8297 112.28C56.9313 112.992 57.1346 114.008 57.3379 115.329C57.7444 117.972 58.3541 121.833 59.1671 126.508C60.6915 136.061 62.8257 149.374 65.2647 164.618V164.516C67.094 167.87 69.533 171.122 72.1753 174.171C78.1713 180.98 84.8786 186.569 91.4843 190.939C94.838 193.073 97.9884 195.106 101.139 196.63C104.188 198.358 107.236 199.679 109.879 200.899C111.2 201.508 112.521 202.118 113.842 202.525C115.062 203.033 116.281 203.439 117.399 203.948C119.635 204.862 121.566 205.472 123.09 205.98C124.615 206.488 125.834 206.895 126.749 207.2C127.155 207.301 127.46 207.403 127.663 207.504C127.765 207.708 127.867 207.708 127.867 207.708Z" fill="#5ECE88"/>
<path d="M123.292 185.146C123.292 185.146 123.19 185.248 123.089 185.35C122.987 185.451 122.784 185.655 122.581 185.756C122.073 186.163 121.361 186.772 120.447 187.484C118.516 189.008 115.772 191.142 112.215 193.785L112.113 193.886L112.012 193.785C109.268 189.923 105.812 185.248 101.951 179.862L102.255 179.963C99.8164 181.691 97.2758 183.52 94.5318 185.451L94.227 185.655L94.1253 185.35C91.0765 177.22 87.7229 168.073 84.1659 158.419C83.6578 157.097 83.2513 155.776 82.7432 154.557H83.2513C81.1172 158.825 78.983 162.992 76.9505 166.955L76.6456 167.463L76.4423 166.854C70.9545 151.102 66.3813 137.788 63.3325 129.15H63.6374C62.8244 132.606 62.2146 135.349 61.7065 137.28C61.5032 138.195 61.3 138.906 61.1984 139.414C61.0967 139.618 61.0967 139.821 61.0967 139.923C61.0967 140.024 60.9951 140.126 60.9951 140.126C60.9951 140.126 60.9951 140.024 60.9951 139.923C60.9951 139.821 61.0967 139.618 61.0967 139.414C61.1984 138.906 61.4016 138.195 61.5032 137.28C61.9098 135.349 62.5195 132.606 63.3325 129.15L63.4342 128.642L63.6374 129.15C66.6862 137.788 71.361 151.102 76.9505 166.854H76.4423C78.4749 162.89 80.5074 158.724 82.7432 154.455L83.0481 153.947L83.2513 154.557C83.7594 155.878 84.1659 157.097 84.6741 158.419C88.231 168.073 91.5847 177.22 94.5318 185.35L94.1253 185.248C96.8693 183.317 99.4099 181.488 101.849 179.76L102.052 179.659L102.154 179.862C106.016 185.248 109.369 190.024 112.113 193.785H111.91C115.467 191.142 118.211 189.11 120.243 187.585C121.158 186.874 121.971 186.366 122.479 185.959C122.682 185.756 122.886 185.655 123.089 185.553C123.19 185.146 123.292 185.146 123.292 185.146Z" fill="#5ECE88"/>
<path d="M121.463 147.748C121.463 147.748 121.056 147.646 120.345 147.545C119.633 147.342 118.617 147.037 117.398 146.63C114.959 145.817 111.605 144.598 108.048 142.972C104.491 141.346 101.341 139.618 99.1048 138.398C97.9869 137.789 97.0723 137.179 96.4625 136.772C95.8527 136.366 95.5479 136.163 95.5479 136.163C95.5479 136.163 95.9544 136.264 96.5641 136.671C97.2755 137.077 98.1901 137.585 99.2064 138.093C101.442 139.313 104.593 140.939 108.251 142.565C111.808 144.191 115.162 145.512 117.499 146.325C118.617 146.732 119.532 147.138 120.345 147.342C121.158 147.545 121.463 147.748 121.463 147.748Z" fill="#5ECE88"/>
<path d="M123.497 151C123.497 151.101 122.48 150.898 120.956 150.593C119.432 150.187 117.297 149.678 115.062 148.865C112.826 148.052 110.793 147.138 109.371 146.528C107.948 145.817 107.135 145.309 107.135 145.309C107.135 145.207 108.049 145.613 109.472 146.223C110.895 146.833 112.927 147.646 115.163 148.459C117.399 149.272 119.533 149.882 120.956 150.39C122.582 150.593 123.598 150.898 123.497 151Z" fill="#5ECE88"/>
<path d="M102.968 179.862C102.968 180.471 102.562 180.979 102.054 180.979C101.546 180.979 101.139 180.471 101.139 179.862C101.139 179.252 101.546 178.744 102.054 178.744C102.562 178.744 102.968 179.15 102.968 179.862Z" fill="#5ECE88"/>
<path d="M82.9481 156.285C83.4532 156.285 83.8627 155.785 83.8627 155.167C83.8627 154.55 83.4532 154.049 82.9481 154.049C82.4429 154.049 82.0334 154.55 82.0334 155.167C82.0334 155.785 82.4429 156.285 82.9481 156.285Z" fill="#5ECE88"/>
<path d="M64.551 129.455C64.551 130.065 64.1445 130.573 63.6363 130.573C63.1282 130.573 62.7217 130.065 62.7217 129.455C62.7217 128.846 63.1282 128.337 63.6363 128.337C64.1445 128.337 64.551 128.846 64.551 129.455Z" fill="#5ECE88"/>
<path d="M390.57 104.15L384.066 183.317C384.066 183.317 365.265 217.159 313.333 218.48L319.736 138.805C319.838 138.805 365.061 136.976 390.57 104.15Z" fill="#5ECE88"/>
<path d="M389.656 99.984C387.929 94.4962 383.864 86.6709 374.107 85.0449L362.522 191.549C362.522 191.549 384.168 187.18 384.778 175.391C384.778 174.375 389.148 121.427 390.266 108.317C390.469 105.472 390.469 102.83 389.656 99.984Z" fill="#5ECE88"/>
<g opacity="0.8">
<g opacity="0.8">
<path opacity="0.8" d="M390.57 104.15L384.066 183.317C384.066 183.317 365.265 217.159 313.333 218.48L319.736 138.805C319.838 138.805 365.061 136.976 390.57 104.15Z" fill="white"/>
</g>
</g>
<path d="M389.046 124.374C383.863 131.894 380.916 140.838 380.814 149.984C380.713 152.626 380.916 155.37 379.9 157.809C378.883 160.248 376.241 162.281 373.802 161.569C371.16 160.858 369.94 157.707 367.603 156.285C365.57 154.964 362.725 155.167 360.692 156.386C358.558 157.606 357.135 159.74 356.119 161.976C354.188 166.346 354.087 171.224 352.765 175.695C351.343 180.269 347.989 184.74 343.213 184.943C341.485 185.045 339.757 184.537 338.03 184.537C334.371 184.639 331.221 187.382 329.493 190.634C327.765 193.887 327.257 197.545 326.749 201.204C326.749 201.204 354.391 203.846 385.489 167.159L389.046 124.374Z" fill="#5ECE88"/>
<path d="M345.042 172.342C345.042 173.358 344.534 174.07 343.924 174.07C343.314 174.07 342.806 173.257 342.806 172.342C342.806 171.427 343.314 170.614 343.924 170.614C344.635 170.614 345.042 171.427 345.042 172.342Z" fill="#5ECE88"/>
<path d="M358.152 139.414C358.152 140.43 357.644 141.142 357.034 141.142C356.424 141.142 355.916 140.329 355.916 139.414C355.916 138.5 356.424 137.687 357.034 137.687C357.644 137.687 358.152 138.5 358.152 139.414Z" fill="#5ECE88"/>
<path d="M388.437 128.133C388.437 128.133 388.437 128.337 388.234 128.54C388.132 128.845 387.929 129.251 387.624 129.861C387.116 130.979 386.303 132.605 385.388 134.739C383.356 138.906 380.51 144.8 377.156 151.914L377.055 152.117L376.852 152.016C371.059 148.357 364.453 144.19 357.238 139.617L357.644 139.515C357.339 140.125 357.136 140.837 356.831 141.548C351.953 153.438 347.583 164.211 344.229 172.442L344.128 172.646L343.925 172.544C339.047 169.8 335.083 167.564 332.339 166.142C330.916 165.43 329.9 164.82 329.087 164.414C328.782 164.211 328.477 164.109 328.274 164.007C328.071 163.906 327.969 163.906 327.969 163.906C327.969 163.804 329.595 164.516 332.441 165.938C335.286 167.361 339.25 169.495 344.128 172.239L343.823 172.341C347.177 164.109 351.547 153.235 356.323 141.345C356.628 140.633 356.831 140.024 357.136 139.312L357.238 139.007L357.543 139.211C364.656 143.784 371.364 147.95 377.055 151.609L376.75 151.711C380.205 144.698 383.152 138.804 385.185 134.637C386.201 132.605 387.014 130.979 387.624 129.861C387.929 129.353 388.132 128.946 388.234 128.641C388.335 128.337 388.437 128.133 388.437 128.133Z" fill="#5ECE88"/>
<path d="M87.5713 58.2821L96.2839 56.3459" stroke="#5ECE88"/>
<path d="M108.87 51.021C118.067 48.6009 140.138 43.5669 154.853 42.7925" stroke="#5ECE88"/>
<path d="M110.32 56.3453C117.096 53.6024 135.586 48.0199 155.335 47.6327" stroke="#5ECE88"/>
<path d="M90.9585 77.1598L99.6711 75.2236" stroke="#5ECE88" stroke-linecap="round"/>
<path d="M94.8301 93.6171L102.091 91.1969" stroke="#5ECE88" stroke-linecap="round"/>
<path d="M113.709 73.771C119.033 72.1576 132.102 68.7371 141.783 67.9626" stroke="#5ECE88" stroke-linecap="round"/>
<path d="M113.709 79.5799C119.033 77.9664 132.102 74.5459 141.783 73.7715" stroke="#5ECE88" stroke-linecap="round"/>
<path d="M114.677 85.3876C120.001 83.7742 133.07 80.3537 142.75 79.5792" stroke="#5ECE88" stroke-linecap="round"/>
<path d="M115.646 90.2291C120.971 88.6156 134.04 85.1951 143.72 84.4207" stroke="#5ECE88" stroke-linecap="round"/>
</svg>
