<svg width="441" height="414" viewBox="0 0 441 414" fill="none" xmlns="http://www.w3.org/2000/svg">
<path d="M421.561 279.695C378.87 373.384 265.155 425.874 166.537 411.712C150.494 409.409 106.503 402.545 67.5504 370.169C-7.41973 307.854 -23.463 184.436 37.0201 97.4617C81.0427 34.1601 159.959 -1.73029 234.93 0.0642293C251.085 0.453042 312.98 2.83078 367.383 44.6431C375.372 50.7893 392.988 65.3847 408.87 88.534C446.171 142.893 449.38 218.637 421.561 279.695Z" fill="#30AB5E"/>
<path d="M195.04 126.455C194.79 126.441 194.541 126.289 194.403 126.054C193.891 125.154 193.351 124.241 192.797 123.369C192.562 122.995 192.673 122.511 193.046 122.275C193.42 122.04 193.905 122.151 194.14 122.524C194.707 123.424 195.261 124.351 195.787 125.279C196.008 125.666 195.87 126.137 195.482 126.358C195.344 126.441 195.192 126.469 195.04 126.455Z" fill="#91B3FA"/>
<path d="M132.077 225.903C130.873 225.834 129.655 225.695 128.451 225.529C128.022 225.474 127.703 225.072 127.772 224.643C127.828 224.214 128.229 223.91 128.658 223.965C129.821 224.117 131.039 224.228 132.202 224.325C133.06 224.394 133.946 224.436 134.817 224.463C135.26 224.45 135.593 224.851 135.579 225.28C135.565 225.723 135.191 226.055 134.762 226.041C133.862 226.014 132.949 225.972 132.077 225.903ZM144.866 225.598C144.492 225.571 144.188 225.28 144.132 224.906C144.077 224.477 144.395 224.076 144.825 224.021C146.804 223.785 148.797 223.453 150.748 223.038L150.915 222.996C151.344 222.899 151.759 223.176 151.856 223.605C151.953 224.034 151.676 224.45 151.247 224.547L151.081 224.588C149.074 225.017 147.039 225.349 145.018 225.598C144.963 225.612 144.921 225.612 144.866 225.598ZM160.769 221.709C160.479 221.681 160.202 221.501 160.091 221.197C159.939 220.782 160.147 220.325 160.548 220.173C162.472 219.439 164.382 218.609 166.209 217.709C166.596 217.515 167.081 217.681 167.275 218.069C167.468 218.456 167.302 218.941 166.915 219.135C165.032 220.062 163.081 220.906 161.115 221.654C160.991 221.695 160.88 221.709 160.769 221.709ZM175.233 214.041C174.998 214.027 174.79 213.903 174.638 213.709C174.389 213.349 174.472 212.851 174.832 212.602C176.507 211.425 178.154 210.152 179.718 208.823C180.05 208.546 180.548 208.588 180.839 208.92C181.116 209.252 181.088 209.75 180.742 210.041C179.136 211.398 177.462 212.699 175.732 213.903C175.593 214.013 175.413 214.055 175.233 214.041ZM187.386 203.079C187.22 203.065 187.053 203.01 186.929 202.885C186.597 202.595 186.569 202.096 186.846 201.764C188.188 200.214 189.476 198.581 190.666 196.906C190.915 196.546 191.413 196.463 191.773 196.726C192.133 196.975 192.216 197.473 191.953 197.833C190.735 199.55 189.42 201.211 188.036 202.802C187.884 203.01 187.635 203.107 187.386 203.079ZM196.521 189.487C196.424 189.473 196.313 189.46 196.216 189.404C195.829 189.21 195.676 188.726 195.87 188.338C196.798 186.511 197.656 184.615 198.403 182.705C198.569 182.304 199.026 182.096 199.427 182.262C199.829 182.428 200.036 182.885 199.87 183.286C199.095 185.238 198.223 187.176 197.282 189.058C197.144 189.349 196.825 189.515 196.521 189.487ZM202.085 174.082C202.043 174.082 202.002 174.068 201.974 174.068C201.545 173.971 201.282 173.542 201.379 173.127C201.836 171.12 202.196 169.072 202.459 167.037C202.514 166.608 202.915 166.29 203.344 166.359C203.773 166.414 204.078 166.816 204.023 167.245C203.76 169.321 203.386 171.425 202.915 173.473C202.818 173.861 202.472 174.124 202.085 174.082ZM203.704 157.791C203.303 157.764 202.984 157.431 202.971 157.016C202.915 154.968 202.777 152.892 202.528 150.857C202.472 150.428 202.791 150.026 203.22 149.971C203.663 149.916 204.05 150.234 204.106 150.663C204.355 152.753 204.507 154.871 204.562 156.975C204.576 157.418 204.23 157.777 203.787 157.791C203.746 157.791 203.718 157.791 203.704 157.791ZM201.296 141.583C200.978 141.556 200.687 141.334 200.59 141.002C200.036 139.023 199.4 137.044 198.666 135.134C198.514 134.718 198.721 134.262 199.123 134.109C199.524 133.957 199.995 134.165 200.147 134.566C200.894 136.518 201.545 138.552 202.112 140.573C202.223 140.988 201.988 141.431 201.559 141.542C201.476 141.583 201.379 141.597 201.296 141.583Z" fill="#91B3FA"/>
<path d="M118.513 223.467C118.457 223.467 118.402 223.453 118.347 223.439C117.322 223.148 116.298 222.816 115.288 222.47C114.873 222.332 114.651 221.875 114.789 221.46C114.928 221.045 115.385 220.823 115.8 220.962C116.783 221.294 117.793 221.612 118.79 221.903C119.205 222.027 119.454 222.47 119.329 222.886C119.232 223.259 118.886 223.495 118.513 223.467Z" fill="#91B3FA"/>
<path d="M77.8201 190.124C77.5571 190.11 77.308 189.958 77.1696 189.695C76.6851 188.754 76.2146 187.785 75.7578 186.816C75.5779 186.415 75.744 185.944 76.1453 185.764C76.5467 185.584 77.0173 185.75 77.1973 186.152C77.6402 187.107 78.0969 188.048 78.5675 188.961C78.7751 189.349 78.6229 189.833 78.2353 190.027C78.1108 190.11 77.9585 190.138 77.8201 190.124Z" fill="#30AB5E"/>
<path d="M72.9481 177.916C72.6297 177.889 72.3391 177.667 72.2422 177.349C71.7993 175.785 71.3979 174.193 71.0518 172.601C70.955 172.159 70.8719 171.729 70.7889 171.287C70.7058 170.857 70.9826 170.442 71.4117 170.359C71.8408 170.276 72.256 170.553 72.3391 170.982C72.4221 171.411 72.5051 171.84 72.602 172.269C72.9342 173.819 73.3218 175.383 73.7647 176.906C73.8892 177.321 73.6401 177.764 73.2249 177.889C73.1418 177.903 73.0449 177.916 72.9481 177.916ZM70.3736 161.999C69.9722 161.972 69.6539 161.653 69.6401 161.238C69.557 159.176 69.5709 157.072 69.6816 155.01C69.7093 154.567 70.083 154.234 70.512 154.262C70.9273 154.29 71.2871 154.663 71.2595 155.093C71.1487 157.113 71.1487 159.148 71.2179 161.169C71.2318 161.612 70.8996 161.972 70.4567 161.999C70.429 162.013 70.4013 162.013 70.3736 161.999ZM71.6747 145.944C71.647 145.944 71.6055 145.93 71.5778 145.93C71.1487 145.847 70.8719 145.418 70.955 144.989C71.3702 142.968 71.8961 140.933 72.4913 138.954C72.6159 138.539 73.0588 138.303 73.474 138.428C73.8892 138.553 74.1245 138.995 74 139.411C73.4048 141.335 72.9065 143.328 72.5051 145.293C72.4359 145.708 72.0761 145.971 71.6747 145.944ZM76.8235 130.677C76.7267 130.663 76.6298 130.649 76.5467 130.608C76.1453 130.414 75.9792 129.943 76.173 129.556C77.0588 127.687 78.0554 125.847 79.1073 124.075C79.3288 123.701 79.8132 123.577 80.1869 123.798C80.5606 124.019 80.6852 124.504 80.4637 124.878C79.4257 126.608 78.4706 128.407 77.5986 130.234C77.4464 130.525 77.128 130.691 76.8235 130.677ZM85.4603 117.071C85.3081 117.057 85.142 117.002 85.0174 116.891C84.6852 116.615 84.6299 116.116 84.9067 115.77C86.2216 114.179 87.6195 112.614 89.0728 111.147C89.3773 110.843 89.8756 110.829 90.194 111.134C90.5123 111.438 90.5123 111.936 90.2078 112.255C88.796 113.694 87.4258 115.217 86.1385 116.767C85.9586 116.988 85.7095 117.099 85.4603 117.071ZM97.1006 105.943C96.8792 105.929 96.6716 105.819 96.5193 105.625C96.2563 105.279 96.3255 104.78 96.6854 104.517C98.3325 103.286 100.076 102.109 101.834 101.03C102.208 100.808 102.692 100.919 102.928 101.293C103.163 101.666 103.038 102.151 102.665 102.386C100.948 103.438 99.246 104.587 97.6404 105.791C97.4743 105.902 97.2806 105.957 97.1006 105.943ZM111.066 97.9292C110.776 97.9015 110.513 97.7354 110.388 97.4447C110.222 97.0434 110.402 96.5728 110.817 96.4067C112.727 95.6039 114.693 94.8842 116.658 94.2613C117.073 94.1229 117.516 94.3582 117.655 94.7734C117.793 95.1887 117.558 95.6316 117.142 95.77C115.219 96.379 113.295 97.0849 111.44 97.86C111.315 97.9153 111.191 97.943 111.066 97.9292ZM126.554 93.5139C126.194 93.4862 125.89 93.2232 125.835 92.8495C125.765 92.4205 126.056 92.0052 126.499 91.936C128.547 91.6038 130.624 91.3685 132.686 91.2301C133.115 91.2024 133.502 91.5346 133.53 91.9637C133.558 92.4066 133.226 92.7803 132.797 92.808C130.79 92.9464 128.755 93.1679 126.762 93.4862C126.679 93.5139 126.623 93.5139 126.554 93.5139ZM148.755 93.7077C148.728 93.7077 148.7 93.7077 148.672 93.6938C146.679 93.334 144.658 93.071 142.651 92.9049C142.208 92.8634 141.89 92.4897 141.932 92.0468C141.973 91.6177 142.347 91.2855 142.776 91.327C142.776 91.327 142.776 91.327 142.79 91.327C144.852 91.5069 146.928 91.7699 148.963 92.1436C149.392 92.2267 149.683 92.6281 149.6 93.0571C149.53 93.4724 149.157 93.7492 148.755 93.7077Z" fill="#30AB5E"/>
<path d="M161.448 97.3201C161.365 97.3201 161.296 97.2924 161.213 97.2647C160.244 96.8772 159.261 96.5173 158.278 96.1851C157.863 96.0467 157.642 95.59 157.78 95.1747C157.918 94.7595 158.375 94.538 158.79 94.6764C159.801 95.0225 160.811 95.3962 161.794 95.7837C162.195 95.9498 162.403 96.4066 162.237 96.808C162.112 97.1402 161.78 97.3339 161.448 97.3201Z" fill="#30AB5E"/>
<path d="M161.696 113.653C161.419 113.459 161.046 113.459 160.769 113.666L152.893 119.41C148.672 117.736 144.132 116.711 139.467 116.462L134.72 107.964C134.554 107.659 134.222 107.507 133.876 107.562L122.374 109.625C122.042 109.68 121.779 109.957 121.723 110.289L120.228 119.909C115.924 121.763 112.035 124.282 108.657 127.327L99.2869 124.67C98.9548 124.573 98.6087 124.698 98.415 124.988L91.7436 134.58C91.5498 134.857 91.5498 135.231 91.7574 135.507L97.5014 143.369C95.8267 147.591 94.8025 152.131 94.5533 156.795L86.0549 161.542C85.7504 161.709 85.5982 162.041 85.6535 162.387L87.7159 173.889C87.7712 174.221 88.048 174.484 88.3802 174.539L97.9997 176.034C99.8544 180.339 102.373 184.228 105.419 187.605L102.761 196.975C102.664 197.308 102.789 197.654 103.079 197.847L112.671 204.519C112.948 204.713 113.322 204.713 113.599 204.505L121.46 198.761C125.682 200.436 130.222 201.46 134.886 201.709L139.633 210.207C139.8 210.512 140.132 210.664 140.478 210.609L151.98 208.546C152.312 208.491 152.575 208.214 152.63 207.882L154.125 198.263C158.43 196.408 162.319 193.889 165.696 190.844L175.066 193.501C175.399 193.598 175.745 193.474 175.938 193.183L182.61 183.591C182.804 183.314 182.804 182.941 182.596 182.664L176.852 174.802C178.527 170.581 179.551 166.041 179.8 161.376L188.298 156.629C188.603 156.463 188.755 156.131 188.7 155.785L186.638 144.283C186.582 143.951 186.305 143.688 185.973 143.632L176.354 142.137C174.499 137.833 171.98 133.943 168.935 130.566L171.592 121.196C171.689 120.864 171.565 120.518 171.274 120.324L161.696 113.653Z" fill="#BCD5C5"/>
<path d="M136.325 170.636C135.232 170.553 134.139 170.318 133.087 169.916C130.194 168.823 127.91 166.677 126.637 163.854C125.363 161.044 125.266 157.902 126.36 155.009C127.453 152.117 129.599 149.833 132.422 148.56C135.232 147.286 138.374 147.189 141.267 148.283C144.159 149.376 146.443 151.522 147.717 154.345C148.99 157.155 149.087 160.297 147.993 163.19C146.9 166.082 144.755 168.366 141.931 169.639C140.159 170.456 138.235 170.788 136.325 170.636ZM137.848 149.944C136.339 149.833 134.817 150.096 133.391 150.733C128.782 152.823 126.72 158.276 128.81 162.885C129.82 165.127 131.647 166.83 133.931 167.702C136.229 168.574 138.72 168.491 140.962 167.48C143.204 166.47 144.907 164.643 145.779 162.359C146.651 160.061 146.568 157.57 145.557 155.328C144.547 153.086 142.72 151.383 140.422 150.511C139.578 150.193 138.72 149.999 137.848 149.944Z" fill="#FCFFFD"/>
<path d="M134.817 188.629C129.64 188.242 124.644 186.484 120.27 183.439C113.834 178.954 109.516 172.228 108.131 164.504C107.689 162.027 107.564 159.535 107.744 157.085C108.131 151.909 109.889 146.912 112.934 142.539C117.419 136.102 124.146 131.784 131.869 130.4C132.076 130.358 132.27 130.331 132.478 130.303C134.139 130.04 135.814 129.916 137.488 129.943C137.696 129.943 137.904 129.957 138.111 129.957L138.028 132.338C136.118 132.269 134.194 132.407 132.298 132.753C125.571 133.957 119.675 137.57 115.564 142.981C115.329 143.286 115.107 143.59 114.886 143.909C112.09 147.923 110.471 152.518 110.111 157.279C109.945 159.535 110.055 161.819 110.471 164.103C111.744 171.203 115.703 177.39 121.626 181.501C127.55 185.626 134.72 187.19 141.821 185.916C154.194 183.702 163.094 173.335 163.994 161.335C164.16 159.12 164.049 156.85 163.648 154.566C162.79 149.75 160.63 145.265 157.433 141.597L159.219 140.033C162.707 144.033 165.046 148.905 165.973 154.151C166.416 156.643 166.541 159.106 166.361 161.515C165.392 174.567 155.703 185.847 142.236 188.255C139.758 188.684 137.267 188.809 134.817 188.629Z" fill="#FCFFFD"/>
<path d="M281.186 95.7149C280.826 95.6872 280.494 95.4796 280.328 95.1474C279.705 93.9294 279.027 92.7252 278.293 91.5626C277.975 91.0643 278.127 90.4138 278.626 90.1093C279.124 89.8048 279.774 89.9432 280.079 90.4415C280.84 91.6456 281.56 92.919 282.21 94.1924C282.473 94.7183 282.266 95.3412 281.754 95.618C281.56 95.6872 281.366 95.7287 281.186 95.7149Z" fill="#30AB5E"/>
<path d="M243.718 161.944C243.206 161.903 242.777 161.501 242.75 160.962C242.708 160.38 243.151 159.868 243.732 159.84C245.781 159.688 247.843 159.398 249.864 158.968C250.584 158.816 251.289 158.65 251.981 158.47C252.549 158.318 253.116 158.664 253.269 159.218C253.421 159.785 253.075 160.353 252.521 160.505C251.788 160.699 251.054 160.879 250.307 161.031C248.189 161.488 246.03 161.792 243.884 161.944C243.815 161.944 243.76 161.944 243.718 161.944ZM264.881 155.01C264.563 154.982 264.258 154.816 264.065 154.526C263.76 154.027 263.899 153.377 264.397 153.072C266.75 151.591 268.978 149.875 271.013 147.965C271.442 147.563 272.106 147.591 272.508 148.02C272.909 148.449 272.881 149.114 272.452 149.515C270.321 151.508 267.996 153.308 265.532 154.858C265.324 154.982 265.089 155.024 264.881 155.01ZM280.217 138.885C280.065 138.871 279.913 138.83 279.774 138.747C279.262 138.456 279.082 137.819 279.373 137.307C280.743 134.885 281.892 132.311 282.792 129.681C282.985 129.127 283.581 128.837 284.134 129.017C284.688 129.21 284.978 129.805 284.799 130.359C283.857 133.113 282.653 135.799 281.214 138.345C281.02 138.719 280.619 138.927 280.217 138.885ZM286.141 117.432C285.587 117.39 285.158 116.919 285.172 116.352C285.228 113.57 285.02 110.774 284.563 108.02C284.466 107.438 284.854 106.899 285.435 106.802C286.003 106.705 286.556 107.092 286.653 107.66C287.138 110.539 287.359 113.487 287.29 116.394C287.276 116.975 286.792 117.445 286.21 117.432C286.169 117.432 286.155 117.432 286.141 117.432Z" fill="#30AB5E"/>
<path d="M229.85 160.795C229.794 160.795 229.739 160.781 229.684 160.768C228.286 160.435 226.888 160.02 225.545 159.563C224.992 159.37 224.701 158.774 224.895 158.221C225.089 157.667 225.684 157.377 226.237 157.57C227.525 158.013 228.867 158.401 230.196 158.719C230.763 158.857 231.109 159.425 230.971 159.992C230.819 160.491 230.348 160.823 229.85 160.795Z" fill="#30AB5E"/>
<path d="M200.023 137.459C199.664 137.432 199.345 137.224 199.165 136.892C198.501 135.618 197.892 134.303 197.352 132.975C197.131 132.435 197.394 131.826 197.933 131.604C198.473 131.383 199.082 131.646 199.304 132.186C199.816 133.459 200.397 134.719 201.034 135.923C201.297 136.435 201.103 137.072 200.577 137.349C200.411 137.432 200.203 137.473 200.023 137.459Z" fill="#30AB5E"/>
<path d="M195.054 120.352C194.542 120.31 194.127 119.909 194.085 119.397C193.864 116.905 193.85 114.372 194.03 111.881C194.058 111.521 194.085 111.147 194.127 110.788C194.182 110.206 194.722 109.819 195.276 109.846C195.857 109.902 196.272 110.428 196.217 110.995C196.189 111.341 196.148 111.687 196.12 112.033C195.94 114.414 195.954 116.836 196.161 119.217C196.217 119.798 195.788 120.31 195.206 120.365C195.179 120.365 195.11 120.365 195.054 120.352ZM198.459 98.7182C198.348 98.7043 198.238 98.6905 198.127 98.6351C197.587 98.4137 197.338 97.7908 197.559 97.251C198.681 94.6074 200.037 92.0606 201.615 89.6661C201.933 89.1817 202.584 89.0433 203.082 89.3616C203.566 89.68 203.705 90.3305 203.386 90.8288C201.878 93.1125 200.577 95.5486 199.511 98.0676C199.331 98.5105 198.902 98.7597 198.459 98.7182ZM211.553 81.1678C211.276 81.1539 211.013 81.0155 210.819 80.7802C210.445 80.3235 210.515 79.6591 210.958 79.2992C213.172 77.4722 215.567 75.8528 218.086 74.4687C218.598 74.1919 219.234 74.3718 219.525 74.8839C219.802 75.3961 219.622 76.0327 219.11 76.3234C216.715 77.6383 214.418 79.2023 212.314 80.9325C212.079 81.1124 211.816 81.1816 211.553 81.1678ZM231.318 71.742C230.861 71.7143 230.46 71.3822 230.363 70.8977C230.252 70.3302 230.612 69.7628 231.179 69.652C234.003 69.0707 236.882 68.7524 239.733 68.697C240.328 68.6555 240.799 69.1538 240.813 69.7351C240.826 70.3164 240.356 70.8008 239.775 70.8147C237.048 70.87 234.293 71.1745 231.608 71.7282C231.511 71.742 231.415 71.742 231.318 71.742Z" fill="#30AB5E"/>
<path d="M257.228 73.9703C257.131 73.9565 257.021 73.9427 256.924 73.9011C255.65 73.4029 254.335 72.9461 253.02 72.5724C252.467 72.4063 252.135 71.825 252.301 71.2575C252.467 70.7039 253.048 70.3717 253.616 70.5378C254.986 70.9392 256.37 71.4098 257.699 71.9357C258.239 72.1433 258.501 72.7662 258.294 73.306C258.114 73.7489 257.671 73.998 257.228 73.9703Z" fill="#30AB5E"/>
<path d="M257.436 84.6419C257.242 84.5035 256.993 84.5173 256.799 84.6557L251.415 88.5866C248.522 87.4378 245.422 86.7457 242.224 86.5796L238.972 80.7664C238.861 80.5588 238.626 80.4481 238.391 80.4896L230.529 81.9014C230.294 81.9429 230.114 82.1228 230.086 82.3581L229.062 88.9326C226.127 90.206 223.456 91.9223 221.145 94.0123L214.736 92.1991C214.515 92.1299 214.266 92.2268 214.141 92.4067L209.574 98.9673C209.435 99.1611 209.449 99.4103 209.587 99.604L213.518 104.988C212.369 107.881 211.677 110.981 211.511 114.179L205.698 117.431C205.49 117.542 205.38 117.777 205.421 118.013L206.833 125.888C206.875 126.123 207.054 126.303 207.29 126.331L213.864 127.355C215.138 130.29 216.854 132.961 218.944 135.272L217.131 141.681C217.062 141.902 217.158 142.151 217.338 142.276L223.899 146.843C224.093 146.982 224.342 146.968 224.536 146.83L229.92 142.899C232.813 144.048 235.913 144.74 239.11 144.906L242.363 150.719C242.474 150.926 242.709 151.037 242.944 150.996L250.82 149.584C251.055 149.542 251.235 149.362 251.263 149.127L252.287 142.553C255.221 141.279 257.893 139.563 260.204 137.473L266.612 139.286C266.834 139.355 267.083 139.259 267.208 139.079L271.775 132.518C271.913 132.324 271.9 132.075 271.761 131.881L267.83 126.497C268.979 123.604 269.671 120.504 269.837 117.307L275.651 114.054C275.858 113.943 275.969 113.708 275.927 113.473L274.516 105.611C274.474 105.376 274.294 105.196 274.059 105.168L267.484 104.144C266.211 101.21 264.495 98.5383 262.405 96.2268L264.218 89.8184C264.287 89.597 264.19 89.3478 264.01 89.2233L257.436 84.6419Z" fill="#BCD4C5"/>
<path d="M240.037 124.379C236.965 124.144 234.113 122.289 232.757 119.3C230.792 114.94 232.729 109.791 237.089 107.812C241.449 105.846 246.598 107.784 248.577 112.144C250.543 116.504 248.605 121.653 244.245 123.632C242.875 124.255 241.435 124.49 240.037 124.379ZM238.39 110.704C235.622 111.95 234.39 115.23 235.636 117.999C236.895 120.767 240.162 121.999 242.93 120.753C245.698 119.507 246.93 116.227 245.685 113.459C244.439 110.691 241.159 109.445 238.39 110.704Z" fill="#FCFFFD"/>
<path d="M238.985 136.698C235.304 136.421 231.76 135.175 228.646 133.002C224.065 129.819 221.006 125.044 220.023 119.549C219.705 117.791 219.622 116.019 219.746 114.275C220.023 110.594 221.269 107.05 223.442 103.95C226.625 99.3687 231.401 96.3098 236.896 95.3271C238.363 95.0641 239.857 94.9534 241.325 95.0088L241.214 98.1784C239.968 98.1368 238.695 98.2199 237.449 98.4413C232.992 99.2441 229.089 101.652 226.404 105.251C226.362 105.306 226.321 105.362 226.279 105.417C226.196 105.528 226.113 105.639 226.044 105.749C224.217 108.379 223.151 111.397 222.916 114.511C222.805 115.992 222.888 117.487 223.151 118.981C223.982 123.632 226.584 127.687 230.459 130.386C234.335 133.085 239.041 134.123 243.691 133.279C248.342 132.449 252.397 129.847 255.096 125.971C256.923 123.341 257.989 120.324 258.225 117.21C258.335 115.729 258.252 114.234 257.989 112.739C257.422 109.583 256.01 106.635 253.92 104.227L256.301 102.151C258.778 104.988 260.439 108.448 261.103 112.185C261.422 113.943 261.505 115.715 261.38 117.459C261.103 121.141 259.858 124.684 257.685 127.784C254.501 132.366 249.726 135.425 244.231 136.407C242.501 136.739 240.729 136.822 238.985 136.698Z" fill="#FCFFFD"/>
<path d="M212.022 307.537C184.59 301.489 205.254 260.783 206.223 259.219L157.06 276.478C157.06 276.478 152.672 300.133 183.261 321.918C190.998 327.427 198.832 329.808 206.223 330.292C205.725 320.783 208.535 313.198 212.022 307.537Z" fill="#206B3C"/>
<path d="M267.871 309.42C259.815 299.565 246.431 303.316 246.431 303.316C230.486 308.285 219.483 309.185 212.022 307.537C208.534 313.185 205.725 320.783 206.223 330.278C222.196 331.33 236.064 323.496 242.348 319.233C244.604 317.697 247.691 318.195 249.282 320.41C250.902 322.652 252.3 325.503 251.248 327.773C249.185 332.258 254.21 335.303 255.109 333.725C256.009 332.133 256.604 321.392 256.604 321.392C256.604 321.392 264.383 335.455 267.442 340.88C270.501 346.306 277.047 343.621 277.047 343.621C277.047 343.621 275.926 319.261 267.871 309.42Z" fill="url(#paint0_linear_658_7404)"/>
<path d="M102.596 204.159C102.596 204.159 137.115 176.961 227.663 215.647C227.663 215.647 237.449 226.443 234.113 239.606C230.777 252.769 183.621 326.001 183.856 358.846C183.856 358.846 149.793 382.182 102.277 364.632C102.263 364.632 80.879 279.33 102.596 204.159Z" fill="white"/>
<path d="M175.842 167.384L163.454 196.408C162.222 199.287 162.748 202.637 164.866 204.948C169.143 209.612 177.835 215.689 191.579 210.443C195.662 208.879 198.638 205.266 199.344 200.948L204.617 169.128L175.842 167.384Z" fill="url(#paint1_linear_658_7404)"/>
<path d="M101.751 313.102C91.7579 295.939 125.627 241.128 125.627 241.128L102.595 204.159C102.595 204.159 22.7051 299.579 63.7022 345.31C69.5846 351.87 75.9792 355.787 82.609 357.711C84.2561 333.822 94.1109 320.188 101.751 313.102Z" fill="white"/>
<path d="M100.921 313.088C100.436 313.226 99.8964 313.033 99.6196 312.576C89.4049 295.025 122.111 241.71 123.509 239.44C123.841 238.914 124.533 238.748 125.073 239.066C125.599 239.398 125.765 240.09 125.447 240.63C125.115 241.17 92.0486 295.053 101.585 311.427C101.903 311.967 101.71 312.659 101.17 312.977C101.101 313.019 101.004 313.06 100.921 313.088Z" fill="#E1E1E1"/>
<path d="M182.07 311.219C175.939 312.922 170.236 315.967 164.077 317.531C157.24 319.275 150.471 321.323 143.592 322.873C132.879 325.282 118.789 328.05 109.377 320.687C108.588 320.064 102.208 312.853 101.751 313.116C84.6712 322.984 81.3494 346.057 81.3494 357.241C112.492 374.279 161.489 341.102 174.679 331.413C176.852 329.822 179.537 329.13 182.209 329.49C187.607 330.223 196.908 331.22 201.808 330.126C208.977 328.507 221.144 353.379 232.355 344.687C232.355 344.687 219.247 300.908 182.07 311.219Z" fill="url(#paint2_linear_658_7404)"/>
<path d="M215.981 126.359C215.981 126.359 223.801 151.688 223.095 164.449C222.389 177.211 224.203 185.737 209.254 186.664C194.306 187.578 182.763 178.899 177.489 165.515C177.489 165.515 169.171 144.878 172.41 137.169C175.662 129.473 215.981 126.359 215.981 126.359Z" fill="url(#paint3_linear_658_7404)"/>
<path d="M183.51 157.003L185.365 157.21C185.365 157.21 179.468 140.698 186.486 138.691C193.503 136.684 220.687 134.234 227.483 125.445C234.03 116.974 230.403 104.67 223.4 100.559C222.957 100.296 222.376 100.462 222.099 100.877L221.365 101.971C220.853 102.718 219.704 102.469 219.552 101.583C219.414 100.739 218.32 100.434 217.794 101.113C215.718 103.742 210.458 107.798 197.448 108.725C178.984 110.04 166.209 116.033 164.52 128.504C164.409 129.293 163.524 129.639 162.887 129.155C161.641 128.186 159.551 127.577 156.423 129.653C150.984 133.279 151.814 144.338 161.71 154.47C162.181 154.954 162.084 155.757 161.489 156.061C159.371 157.127 156.091 159.854 163.261 164.781C170.596 169.819 175.261 169.875 177.06 169.626C177.545 169.556 177.904 169.169 177.932 168.684L178.486 157.529C178.513 156.947 179.026 156.518 179.593 156.587L183.51 157.003Z" fill="#0E2617"/>
<path d="M183.717 159.37C183.717 159.37 181.42 143.494 174.029 147.037C166.624 150.594 175.69 164.726 181.184 165.93L183.717 159.37Z" fill="url(#paint4_linear_658_7404)"/>
<path d="M159.413 359.344C159.51 359.344 159.607 359.344 159.703 359.344L285.408 357.393C288.508 357.351 290.985 354.915 290.93 351.967C290.875 349.019 288.286 346.611 285.186 346.707L159.482 348.659C156.368 348.701 153.904 351.137 153.959 354.085C154.029 356.95 156.437 359.247 159.413 359.344Z" fill="#72B08A"/>
<path d="M211.89 178.167C189.496 180.063 171.17 162.527 171.046 162.264V158.305C171.17 158.555 190.478 178.043 211.766 176.243L211.89 178.167Z" fill="#165F31"/>
<path d="M221.026 177.185C221.026 178.679 219.946 179.884 218.617 179.884H212.209C210.88 179.884 209.801 178.679 209.801 177.185C209.801 175.69 210.88 174.486 212.209 174.486H218.617C219.946 174.486 221.026 175.704 221.026 177.185Z" fill="#165F31"/>
<path d="M178.942 135.563C178.942 135.563 173.821 108.268 205.379 108.116C205.822 108.116 205.891 107.493 205.462 107.396C196.825 105.403 171.731 102.455 171.357 135.203C176.16 136.933 178.942 135.563 178.942 135.563Z" fill="#165F31"/>
<path d="M173.157 132.241C160.852 134.746 162.361 150.304 162.361 150.304C161.475 161.598 164.769 167.204 168.991 169.875C171.883 171.702 175.51 171.868 178.555 170.332C181.6 168.795 183.621 165.764 183.87 162.359C184.091 159.286 184.354 156.366 184.589 155.328C185.157 152.809 185.461 129.736 173.157 132.241Z" fill="#165F31"/>
<path d="M174.292 136.172C171.731 135.729 169.212 137.085 168.188 139.466C160.824 156.518 169.862 167.605 174.305 167.826C178.984 168.075 178.887 145.584 177.89 139.812C177.461 137.404 175.925 136.463 174.292 136.172Z" fill="#30AB5E"/>
<path d="M58.568 363.635C58.3604 362.085 58.6372 360.479 59.3431 359.261C60.049 358.043 61.0871 357.337 62.1944 357.337H436.275C437.729 357.337 439.085 358.403 439.86 360.147C440.649 361.905 440.746 364.106 440.137 365.988L436.082 378.556C435.154 381.435 433.147 383.275 430.933 383.275H64.7688C62.7065 383.275 60.9348 381.185 60.5473 378.293L58.568 363.635Z" fill="#C8EED6"/>
<path d="M430.946 383.732H64.7685C62.4848 383.732 60.5055 381.462 60.0903 378.348L58.111 363.704C57.8896 362.043 58.1941 360.341 58.9415 359.04C59.7304 357.67 60.9207 356.881 62.1941 356.881H436.275C437.922 356.881 439.417 358.029 440.289 359.967C441.119 361.836 441.23 364.133 440.58 366.14L436.524 378.708C435.542 381.753 433.355 383.732 430.946 383.732ZM59.0245 363.58L61.0038 378.223C61.3636 380.881 62.9415 382.805 64.7685 382.805H430.946C432.953 382.805 434.794 381.075 435.652 378.403L439.708 365.836C440.289 364.05 440.192 361.988 439.445 360.327C438.739 358.735 437.549 357.794 436.275 357.794H62.208C61.2668 357.794 60.3809 358.417 59.7581 359.483C59.0937 360.632 58.8307 362.113 59.0245 363.58Z" fill="#C8EED6"/>
<path d="M256.384 214.581C254.266 231.841 244.771 302.001 242.045 322.043C241.657 324.866 243.899 327.344 246.751 327.261L407.998 322.652C410.102 322.596 411.902 321.102 412.372 319.039L437.452 206.069C438.116 203.079 435.736 200.297 432.677 200.463L260.689 210.54C258.46 210.664 256.647 212.367 256.384 214.581Z" fill="#FCC72F"/>
<path d="M321.201 285.42L297.367 353.061L352.787 354.237L357.396 285.821C357.617 282.61 354.946 279.939 351.735 280.16L325.852 281.876C323.734 282.015 321.907 283.413 321.201 285.42Z" fill="#5ECE88"/>
<path d="M353.216 354.708L352.773 354.694L296.717 353.503L320.759 285.253C321.534 283.067 323.513 281.558 325.824 281.406L351.707 279.689C353.368 279.579 355.001 280.188 356.178 281.378C357.354 282.554 357.963 284.188 357.853 285.849L353.216 354.708ZM298.018 352.604L352.344 353.753L356.925 285.779C357.022 284.381 356.51 283.011 355.513 282.028C354.531 281.032 353.16 280.52 351.763 280.617L325.88 282.333C323.942 282.458 322.267 283.731 321.631 285.558L298.018 352.604Z" fill="#5ECE88"/>
<path d="M274.903 354.016C274.294 355.87 275.678 357.794 277.644 357.794H364.427C366.019 357.794 367.306 356.507 367.306 354.915V351.192C367.306 349.559 365.936 348.244 364.302 348.313L277.519 352.036C276.315 352.092 275.277 352.881 274.903 354.016Z" fill="#B1E7C5"/>
<path d="M253.948 285.946L252.799 285.807L260.716 223.329C261.201 219.453 264.398 216.464 268.287 216.228L416.912 207.26L416.981 208.408L268.357 217.377C265.007 217.585 262.28 220.146 261.851 223.467L253.948 285.946Z" fill="#FCFFFD"/>
<path d="M250.531 303.615L248.825 317.141L249.965 317.284L251.67 303.759L250.531 303.615Z" fill="#FCFFFD"/>
<path d="M305.407 48.6275V83.41C305.407 87.5484 308.66 90.9533 312.784 91.1471L356.287 93.1956C360.702 93.4032 364.384 89.8876 364.384 85.4584V48.6275C364.384 44.3506 360.924 40.8904 356.647 40.8904H313.144C308.867 40.8904 305.407 44.3506 305.407 48.6275Z" fill="#A7D1B7"/>
<path d="M322.018 57.9838L320.315 51.7L315.36 49.001L314.696 50.2051L319.125 52.5996L324.412 71.9771L324.579 72.5584H346.143C348.247 72.5584 350.171 71.5341 351.319 69.7625L352.288 68.4891C353.326 66.8836 354.018 65.0289 354.018 63.105V57.9838H322.018ZM352.44 63.105C352.44 64.752 351.915 66.3576 351.029 67.7555L350.171 69.195C349.285 70.5653 347.762 71.5341 346.143 71.5341H325.644L324.523 67.3957L322.392 59.5617H352.454V63.105H352.44Z" fill="white"/>
<path d="M351.098 79.5896C351.098 79.9771 350.793 80.3647 350.406 80.3647H325.104C324.717 80.3647 324.329 79.7695 324.329 79.382V67.451C324.329 67.3265 324.412 67.3403 324.468 67.2434L325.63 71.5064H325.893V78.8007H350.406C350.793 78.8145 351.098 79.2159 351.098 79.5896Z" fill="white"/>
<path d="M337.99 58.6895H337.063V71.6723H337.99V58.6895Z" fill="white"/>
<path d="M329.824 58.6899H328.897V71.6728H329.824V58.6899Z" fill="white"/>
<path d="M345.949 58.6895H345.021V71.6723H345.949V58.6895Z" fill="white"/>
<path d="M352.773 62.5098H322.738V63.3402H352.773V62.5098Z" fill="white"/>
<path d="M352.025 67.0217H324.053V67.8522H352.025V67.0217Z" fill="white"/>
<path d="M328.343 81.2644C326.696 81.2644 325.354 82.5931 325.354 84.2541C325.354 85.9011 326.682 87.2437 328.343 87.2437C329.99 87.2437 331.333 85.915 331.333 84.2541C331.333 82.607 329.99 81.2644 328.343 81.2644ZM328.343 86.0534C327.347 86.0534 326.544 85.2506 326.544 84.2541C326.544 83.2575 327.347 82.4547 328.343 82.4547C329.34 82.4547 330.143 83.2575 330.143 84.2541C330.143 85.2506 329.34 86.0534 328.343 86.0534Z" fill="white"/>
<path d="M346.89 81.2644C345.243 81.2644 343.901 82.5931 343.901 84.2541C343.901 85.9011 345.229 87.2437 346.89 87.2437C348.537 87.2437 349.88 85.915 349.88 84.2541C349.866 82.607 348.537 81.2644 346.89 81.2644ZM346.89 86.0534C345.894 86.0534 345.091 85.2506 345.091 84.2541C345.091 83.2575 345.894 82.4547 346.89 82.4547C347.887 82.4547 348.69 83.2575 348.69 84.2541C348.69 85.2506 347.887 86.0534 346.89 86.0534Z" fill="white"/>
<path d="M318.433 50.219C318.433 50.9941 317.81 51.6169 317.035 51.6169H312.371C311.595 51.6169 310.973 50.9941 310.973 50.219C310.973 49.4439 311.595 48.821 312.371 48.821H317.035C317.796 48.821 318.433 49.4439 318.433 50.219Z" fill="white"/>
<path d="M211.109 8.40568V45.721C211.109 50.1502 214.597 53.8042 219.026 54.0118L265.684 56.1987C270.418 56.4201 274.377 52.6415 274.377 47.9079V8.40568C274.377 3.82431 270.653 0.101074 266.072 0.101074H219.414C214.819 0.114915 211.109 3.82431 211.109 8.40568Z" fill="#A7D1B7"/>
<path d="M258.888 45.043H226.735C224.327 45.043 222.361 43.0776 222.361 40.6693V17.1672C222.361 14.7589 224.327 12.7935 226.735 12.7935H258.888C261.296 12.7935 263.262 14.7589 263.262 17.1672V40.6831C263.262 43.0914 261.296 45.043 258.888 45.043ZM226.735 15.6724C225.918 15.6724 225.24 16.3368 225.24 17.1672V40.6831C225.24 41.4997 225.905 42.1779 226.735 42.1779H258.888C259.704 42.1779 260.383 41.5136 260.383 40.6831V17.1672C260.383 16.3506 259.718 15.6724 258.888 15.6724H226.735Z" fill="white"/>
<path d="M242.846 29.4441C242.555 29.4441 242.265 29.361 242.015 29.1811L223.994 16.4059C223.344 15.9491 223.192 15.0494 223.648 14.3989C224.105 13.7484 225.005 13.5961 225.655 14.0529L242.846 26.2468L259.801 14.2051C260.452 13.7484 261.351 13.9006 261.808 14.5512C262.265 15.2017 262.113 16.1013 261.462 16.5581L243.662 29.1949C243.427 29.3472 243.136 29.4441 242.846 29.4441Z" fill="white"/>
<path d="M225.046 44.0463L224.631 41.195L224.825 42.6206L223.621 41.8317C223.953 41.2919 230.458 29.9284 234.735 22.4128C235.122 21.7207 236.008 21.4854 236.7 21.873C237.392 22.2605 237.628 23.1463 237.24 23.8384C237.24 23.8384 234.458 28.7104 231.676 33.5825C230.278 36.0185 228.894 38.4545 227.842 40.2815C225.738 43.9355 225.738 43.9355 225.046 44.0463Z" fill="white"/>
<path d="M260.535 44.0461C259.843 43.9354 259.843 43.9354 257.753 40.2952C256.701 38.4682 255.303 36.0322 253.919 33.5961C251.137 28.7241 248.355 23.8521 248.355 23.8521C247.967 23.16 248.202 22.288 248.894 21.8866C249.587 21.4991 250.459 21.7344 250.86 22.4264C255.151 29.9283 261.642 41.3056 261.974 41.8454L260.77 42.6343L260.535 44.0461Z" fill="white"/>
<path d="M359.417 124.213V157.03C359.417 160.933 362.476 164.145 366.379 164.324L407.417 166.248C411.583 166.442 415.058 163.12 415.058 158.954V124.213C415.058 120.185 411.791 116.905 407.75 116.905H366.711C362.697 116.919 359.417 120.185 359.417 124.213Z" fill="#A7D1B7"/>
<path d="M369.921 163.66C369.326 163.66 368.786 163.48 368.371 163.093L367.18 161.999C366.599 161.473 366.364 160.657 366.502 159.715C366.641 158.829 367.097 157.916 367.803 157.141L368.592 156.283C368.648 156.227 368.703 156.158 368.758 156.103L383.568 141.293C383.707 141.155 383.942 141.155 384.08 141.293C384.219 141.431 384.219 141.667 384.08 141.805L369.27 156.615C369.215 156.67 369.174 156.712 369.118 156.767L368.329 157.625C367.72 158.29 367.319 159.065 367.208 159.812C367.097 160.504 367.264 161.086 367.651 161.445L368.841 162.539C369.672 163.3 371.402 162.843 372.592 161.542L373.381 160.684C373.437 160.629 373.478 160.573 373.52 160.518L385.34 146.456C385.464 146.303 385.7 146.276 385.852 146.414C386.004 146.539 386.032 146.774 385.893 146.926L374.073 160.989C374.018 161.058 373.963 161.113 373.907 161.182L373.118 162.041C372.205 163.093 370.987 163.66 369.921 163.66ZM370.281 161.335C369.879 161.335 369.52 161.21 369.229 160.961C368.398 160.2 368.675 158.608 369.866 157.321C370.405 156.739 371.056 156.31 371.693 156.117C372.399 155.909 373.021 156.006 373.437 156.38C373.852 156.767 374.004 157.376 373.852 158.096C373.713 158.746 373.34 159.425 372.8 160.02C372.025 160.864 371.07 161.335 370.281 161.335ZM372.399 156.726C372.219 156.726 372.039 156.767 371.9 156.809C371.388 156.961 370.848 157.321 370.405 157.805C369.547 158.733 369.229 159.951 369.727 160.407C370.17 160.809 371.319 160.546 372.26 159.508C372.717 159.009 373.021 158.456 373.132 157.93C373.187 157.667 373.243 157.182 372.938 156.906C372.786 156.781 372.592 156.726 372.399 156.726ZM390.835 140.905C390.752 140.905 390.669 140.878 390.599 140.822C390.447 140.698 390.42 140.462 390.558 140.31L394.821 135.244L395.084 135.41C398.406 137.431 402.392 136.878 404.994 134.04C406.683 132.199 407.499 129.75 407.25 127.314C407.209 126.981 407.001 126.732 406.697 126.621C406.447 126.538 406.088 126.552 405.811 126.857L401.216 131.867C400.814 132.31 400.219 132.532 399.638 132.49L397.16 132.282C396.288 132.213 395.582 131.549 395.43 130.691L395.001 128.241C394.904 127.66 395.084 127.051 395.485 126.608L400.081 121.597C400.357 121.307 400.33 120.933 400.233 120.698C400.108 120.393 399.831 120.199 399.499 120.199C397.063 120.158 394.683 121.182 392.994 123.023C390.392 125.86 390.184 129.888 392.482 133.016L392.662 133.265L387.139 138.788C387.001 138.926 386.765 138.926 386.627 138.788C386.489 138.649 386.489 138.414 386.627 138.276L391.707 133.196C389.381 129.819 389.672 125.57 392.454 122.538C394.281 120.545 396.856 119.424 399.513 119.479C400.122 119.493 400.662 119.853 400.897 120.421C401.146 121.002 401.036 121.639 400.606 122.109L396.011 127.12C395.762 127.397 395.651 127.77 395.721 128.13L396.15 130.58C396.247 131.12 396.689 131.521 397.229 131.563L399.707 131.77C400.081 131.798 400.44 131.66 400.69 131.383L405.285 126.372C405.714 125.916 406.337 125.749 406.932 125.943C407.513 126.137 407.928 126.635 407.984 127.244C408.261 129.888 407.375 132.545 405.548 134.539C402.766 137.57 398.558 138.22 394.987 136.199L391.125 140.795C391.042 140.864 390.932 140.905 390.835 140.905Z" fill="white"/>
<path d="M401.922 163.84C401.825 163.84 401.728 163.84 401.631 163.826C400.704 163.743 399.873 163.314 399.292 162.594L385.562 145.778C384.966 145.044 385.063 143.992 385.769 143.383L388.482 141.016C389.188 140.394 390.24 140.449 390.89 141.141L405.686 157.03C406.323 157.709 406.642 158.594 406.586 159.522C406.545 160.449 406.129 161.293 405.424 161.902L404.15 163.01C403.527 163.55 402.738 163.84 401.922 163.84ZM389.105 141.75L386.392 144.117C386.088 144.394 386.046 144.85 386.309 145.169L400.039 161.985C400.455 162.498 401.05 162.816 401.714 162.871C402.378 162.927 403.015 162.719 403.5 162.29L404.773 161.183C405.271 160.754 405.562 160.145 405.603 159.494C405.631 158.83 405.41 158.207 404.953 157.722L390.157 141.833C389.88 141.501 389.423 141.487 389.105 141.75Z" fill="white"/>
<path d="M386.418 143.687L374.501 129.736C374.308 129.736 374.142 129.666 373.989 129.556L370.418 126.815C370.321 126.746 370.238 126.649 370.183 126.538L368.605 123.396C368.411 123.009 368.536 122.524 368.896 122.206L369.795 121.431C370.155 121.113 370.654 121.057 371.013 121.306L373.906 123.3C374.003 123.369 374.086 123.452 374.142 123.549L376.453 127.383C376.578 127.59 376.605 127.826 376.55 128.061L388.827 141.86L386.418 143.687ZM374.792 128.961L386.529 142.691L387.747 141.777L375.664 128.213L375.789 127.992C375.83 127.909 375.844 127.826 375.816 127.784L373.505 123.95C373.505 123.936 373.491 123.936 373.477 123.922L370.584 121.929C370.515 121.888 370.377 121.902 370.252 121.999L369.353 122.774C369.228 122.871 369.2 123.023 369.242 123.092L370.82 126.234C370.82 126.248 370.834 126.262 370.847 126.262L374.418 129.002C374.446 129.03 374.501 129.03 374.571 129.016L374.792 128.961Z" fill="white"/>
<path d="M110.872 32.0599V71.313C110.872 75.9774 114.54 79.8113 119.191 80.0328L168.271 82.3442C173.254 82.5795 177.406 78.6072 177.406 73.6244V32.0599C177.406 27.2432 173.503 23.3262 168.672 23.3262H119.606C114.775 23.3262 110.872 27.2293 110.872 32.0599Z" fill="#A7D1B7"/>
<path d="M145.959 56.2814C145.959 59.7694 145.71 63.2573 145.101 66.7037C144.949 67.5618 144.769 68.42 144.547 69.2643C144.326 70.1086 144.091 70.9529 143.786 71.7695C143.482 72.5861 143.122 73.3889 142.637 74.1363C142.388 74.4962 142.125 74.8561 141.779 75.1467C141.613 75.2851 141.419 75.4235 141.212 75.5066C141.004 75.6035 140.783 75.6588 140.561 75.6588C140.34 75.6588 140.105 75.6173 139.897 75.5343C139.689 75.4512 139.496 75.3267 139.316 75.1882C138.97 74.9114 138.693 74.5654 138.444 74.2055C137.959 73.472 137.599 72.6692 137.281 71.8526C136.976 71.0359 136.727 70.1916 136.506 69.3473C136.284 68.503 136.104 67.6449 135.952 66.7868C135.634 65.0705 135.426 63.3403 135.288 61.5964C135.149 59.8524 135.08 58.1084 135.066 56.3645C135.066 55.4925 135.08 54.6205 135.122 53.7485C135.149 52.8765 135.205 52.0045 135.26 51.1326C135.385 49.3886 135.579 47.6585 135.869 45.9422C136.008 45.084 136.174 44.2259 136.381 43.3816C136.589 42.5373 136.81 41.693 137.101 40.8625C137.253 40.4473 137.406 40.0459 137.585 39.6445C137.765 39.2431 137.973 38.8556 138.208 38.4957C138.444 38.1359 138.72 37.776 139.066 37.4992C139.233 37.3608 139.426 37.2362 139.634 37.1531C139.842 37.0701 140.063 37.0286 140.284 37.0424C140.506 37.0424 140.727 37.0978 140.935 37.1947C141.143 37.2777 141.323 37.4023 141.489 37.5407C141.835 37.8175 142.111 38.1635 142.361 38.5234C142.859 39.2431 143.233 40.0459 143.565 40.8487C143.883 41.6653 144.16 42.4958 144.381 43.3401C144.617 44.1844 144.81 45.0287 144.977 45.8868C145.669 49.3056 145.945 52.7935 145.959 56.2814ZM145.696 56.2814C145.696 54.5375 145.627 52.8073 145.489 51.0772C145.35 49.3471 145.129 47.617 144.81 45.9145C144.644 45.0564 144.464 44.2121 144.243 43.3678C144.022 42.5235 143.759 41.693 143.454 40.8902C143.136 40.0874 142.776 39.2847 142.291 38.5788C142.042 38.2189 141.779 37.8867 141.447 37.6099C141.281 37.4715 141.101 37.3469 140.907 37.2639C140.714 37.1808 140.506 37.1255 140.298 37.1116C140.091 37.1116 139.869 37.1531 139.675 37.2223C139.482 37.3054 139.302 37.4161 139.136 37.5545C138.803 37.8314 138.54 38.1774 138.305 38.5372C138.07 38.8971 137.876 39.2847 137.696 39.6861C137.516 40.0874 137.364 40.4888 137.226 40.9041C136.949 41.7207 136.727 42.565 136.534 43.4093C136.34 44.2536 136.188 45.1117 136.049 45.9699C135.786 47.6862 135.606 49.4163 135.495 51.1464C135.385 52.8765 135.343 54.6205 135.357 56.3645C135.357 58.1084 135.412 59.8386 135.537 61.5687C135.662 63.2988 135.869 65.0289 136.16 66.7452C136.312 67.6034 136.478 68.4477 136.686 69.292C136.893 70.1363 137.143 70.9667 137.433 71.7834C137.738 72.6 138.084 73.3889 138.554 74.1087C138.79 74.4685 139.066 74.8007 139.399 75.0775C139.565 75.2159 139.745 75.3267 139.938 75.4097C140.132 75.4927 140.34 75.5343 140.547 75.5204C140.755 75.5204 140.963 75.4651 141.143 75.3682C141.336 75.2851 141.502 75.1606 141.669 75.0222C141.987 74.7453 142.25 74.3993 142.485 74.0394C142.956 73.3197 143.302 72.5169 143.592 71.7003C143.883 70.8837 144.132 70.0532 144.326 69.2089C144.534 68.3646 144.7 67.5203 144.852 66.6622C145.143 64.9459 145.35 63.2158 145.475 61.4856C145.641 59.7555 145.696 58.0254 145.696 56.2814Z" fill="white"/>
<path d="M140.52 76.1572C140.257 76.1572 139.98 76.1018 139.717 75.9911C139.482 75.8942 139.246 75.7558 139.011 75.5758C138.665 75.299 138.347 74.953 138.028 74.4686C137.585 73.8042 137.198 73.0291 136.81 72.0049C136.52 71.2298 136.257 70.3993 136.021 69.4443C135.814 68.6276 135.634 67.7833 135.454 66.856C135.149 65.2089 134.928 63.4926 134.776 61.6103C134.637 59.9078 134.554 58.1362 134.554 56.3368C134.554 55.4095 134.582 54.4821 134.61 53.707C134.637 52.8212 134.693 51.9354 134.762 51.0772C134.9 49.181 135.108 47.4786 135.371 45.8315C135.523 44.9042 135.689 44.046 135.883 43.2294C136.104 42.2744 136.354 41.4301 136.63 40.6688C136.796 40.1982 136.963 39.7968 137.129 39.4093C137.336 38.9525 137.558 38.5511 137.793 38.1913C138.111 37.7068 138.416 37.3608 138.762 37.084C138.997 36.904 139.232 36.7518 139.468 36.6687C139.745 36.558 140.035 36.5027 140.326 36.5165C140.603 36.5303 140.88 36.5857 141.156 36.7103C141.392 36.8072 141.613 36.9456 141.835 37.1255C142.181 37.4023 142.485 37.7483 142.803 38.2051C143.26 38.8695 143.662 39.6307 144.063 40.6273C144.367 41.4024 144.644 42.2328 144.907 43.1602C145.129 43.9768 145.336 44.8211 145.516 45.7485C146.153 49.0011 146.471 52.4337 146.485 56.2538C146.485 60.0877 146.194 63.5342 145.627 66.7591C145.461 67.6865 145.281 68.5308 145.073 69.3612C144.838 70.3024 144.575 71.1467 144.284 71.9218C143.911 72.9322 143.523 73.7211 143.094 74.3855C142.776 74.8561 142.471 75.216 142.139 75.4928C141.918 75.6866 141.696 75.825 141.461 75.9357C141.17 76.0603 140.893 76.1295 140.603 76.1295C140.561 76.1572 140.534 76.1572 140.52 76.1572ZM140.257 37.6238C140.132 37.6238 139.994 37.6515 139.869 37.7068C139.731 37.7622 139.592 37.8452 139.454 37.9698C139.205 38.1774 138.969 38.4542 138.734 38.8279C138.54 39.1463 138.347 39.4923 138.167 39.9075C138.014 40.2536 137.862 40.6411 137.71 41.084C137.461 41.8176 137.239 42.6204 137.032 43.5339C136.852 44.3228 136.7 45.1533 136.561 46.0668C136.312 47.6723 136.132 49.361 136.021 51.2018C135.924 52.7797 135.869 54.4821 135.883 56.3783C135.883 58.1362 135.938 59.8801 136.063 61.5549C136.201 63.3957 136.409 65.0705 136.686 66.6761C136.838 67.5757 137.018 68.3923 137.212 69.1951C137.433 70.1086 137.682 70.8976 137.945 71.6311C138.291 72.5585 138.623 73.2644 139.011 73.8595C139.26 74.2332 139.495 74.4962 139.745 74.7038C139.883 74.8146 140.021 74.8976 140.146 74.953C140.284 75.0084 140.423 75.036 140.547 75.036C140.686 75.036 140.81 74.9945 140.949 74.9392C141.087 74.8838 141.226 74.7869 141.35 74.6623C141.599 74.4547 141.835 74.1779 142.084 73.7903C142.457 73.1952 142.803 72.4893 143.136 71.5619C143.399 70.8284 143.634 70.0256 143.855 69.1259C144.049 68.337 144.215 67.5204 144.367 66.6069C144.644 65.0151 144.838 63.3404 144.976 61.4857C145.101 59.8109 145.17 58.0808 145.17 56.3091C145.17 54.5513 145.101 52.8212 144.963 51.1464C144.81 49.3056 144.589 47.6308 144.298 46.0391C144.132 45.1533 143.952 44.3228 143.745 43.5339C143.509 42.6342 143.246 41.8453 142.97 41.1117C142.61 40.1982 142.264 39.4923 141.862 38.8972C141.599 38.5234 141.364 38.2466 141.115 38.039C140.976 37.9144 140.824 37.8314 140.686 37.7622C140.547 37.693 140.395 37.6653 140.271 37.6515C140.271 37.6238 140.271 37.6238 140.257 37.6238Z" fill="white"/>
<path d="M154.721 56.2813C154.707 58.5235 154.416 60.7796 153.821 62.9388C153.212 65.098 152.299 67.1742 151.039 69.0427C150.416 69.9701 149.71 70.8559 148.921 71.6448C148.132 72.4338 147.261 73.1535 146.305 73.7487C145.35 74.3438 144.326 74.8283 143.26 75.1466C142.195 75.4649 141.074 75.6449 139.952 75.6449C138.831 75.6449 137.71 75.4788 136.644 75.1466C135.579 74.8283 134.541 74.3438 133.599 73.7487C132.644 73.1535 131.772 72.4338 130.983 71.6448C130.195 70.8559 129.489 69.9701 128.866 69.0427C127.62 67.1742 126.693 65.098 126.084 62.9388C125.779 61.8592 125.558 60.7519 125.406 59.6308C125.253 58.5097 125.184 57.3886 125.184 56.2675C125.184 55.1463 125.267 54.0252 125.419 52.9041C125.572 51.7968 125.793 50.6895 126.098 49.6099C126.707 47.4507 127.634 45.3746 128.88 43.506C129.502 42.5787 130.208 41.6929 130.997 40.9039C131.786 40.115 132.658 39.3953 133.613 38.8001C134.568 38.2049 135.593 37.7343 136.658 37.416C137.724 37.0977 138.845 36.9177 139.966 36.9177C141.087 36.9177 142.195 37.0838 143.274 37.416C144.34 37.7343 145.364 38.2188 146.319 38.8139C147.26 39.4091 148.132 40.1288 148.921 40.9178C149.71 41.7067 150.416 42.5925 151.039 43.5199C152.285 45.3884 153.212 47.4646 153.821 49.6238C154.416 51.783 154.707 54.0391 154.721 56.2813ZM154.43 56.2813C154.43 54.0667 154.153 51.8383 153.572 49.693C152.991 47.5476 152.105 45.4853 150.887 43.6306C150.278 42.7033 149.586 41.8313 148.811 41.0285C148.036 40.2396 147.177 39.5198 146.25 38.9247C145.309 38.3295 144.299 37.8589 143.247 37.5267C142.181 37.2084 141.087 37.0285 139.98 37.0285C138.873 37.0285 137.766 37.2084 136.714 37.5267C135.648 37.8451 134.651 38.3295 133.71 38.9247C132.783 39.5198 131.925 40.2396 131.15 41.0423C130.374 41.8313 129.682 42.7171 129.087 43.6445C127.869 45.4991 126.997 47.5615 126.402 49.7068C126.111 50.7726 125.904 51.866 125.752 52.9733C125.613 54.0667 125.544 55.1879 125.53 56.2951C125.53 57.4024 125.599 58.5097 125.752 59.617C125.89 60.7104 126.111 61.8039 126.402 62.8835C126.983 65.015 127.869 67.0911 129.087 68.9458C129.696 69.8732 130.388 70.7452 131.15 71.5479C131.925 72.3369 132.769 73.0566 133.71 73.6518C134.637 74.2469 135.648 74.7175 136.714 75.0497C137.766 75.3681 138.873 75.548 139.98 75.548C141.087 75.548 142.195 75.3681 143.247 75.0497C144.299 74.7314 145.309 74.2469 146.25 73.6656C147.191 73.0704 148.036 72.3507 148.811 71.5618C149.586 70.7728 150.278 69.887 150.887 68.9735C152.105 67.1188 152.991 65.0565 153.572 62.9111C154.139 60.7243 154.416 58.4959 154.43 56.2813Z" fill="white"/>
<path d="M139.966 76.157C138.804 76.157 137.641 75.9909 136.506 75.6449C135.413 75.3127 134.347 74.8282 133.336 74.1916C132.381 73.5964 131.468 72.8628 130.637 72.0185C129.848 71.2296 129.115 70.3161 128.45 69.3334C127.205 67.4787 126.25 65.3748 125.599 63.0772C125.295 61.9838 125.059 60.8488 124.907 59.7C124.755 58.5789 124.686 57.4301 124.672 56.2674C124.672 55.1048 124.755 53.956 124.907 52.8349C125.059 51.6861 125.295 50.5511 125.599 49.4715C126.25 47.1739 127.205 45.0701 128.45 43.2154C129.115 42.2327 129.848 41.333 130.637 40.5441C131.482 39.6998 132.381 38.9662 133.336 38.371C134.347 37.7482 135.413 37.2499 136.506 36.9315C137.627 36.5855 138.79 36.4194 139.952 36.4194C141.115 36.4194 142.278 36.5994 143.399 36.9315C144.492 37.2637 145.558 37.7482 146.568 38.3849C147.523 38.98 148.423 39.7136 149.267 40.5579C150.056 41.3607 150.79 42.2603 151.454 43.2292C152.7 45.0839 153.655 47.1877 154.305 49.4715C154.901 51.6307 155.219 53.9145 155.233 56.2674C155.219 58.6204 154.914 60.9042 154.319 63.0634C153.669 65.361 152.714 67.4648 151.482 69.3195C150.831 70.3022 150.084 71.2019 149.295 72.0047C148.465 72.849 147.551 73.5826 146.596 74.1916C145.586 74.8282 144.52 75.3127 143.426 75.6449C142.291 75.9909 141.129 76.157 139.966 76.157ZM139.966 37.5406C138.914 37.5406 137.862 37.7066 136.838 38.0112C135.855 38.3157 134.887 38.7586 133.959 39.3537C133.101 39.9074 132.271 40.5856 131.496 41.3884C130.762 42.1358 130.098 42.9939 129.489 43.9074C128.354 45.6514 127.468 47.6445 126.873 49.8314C126.596 50.8418 126.388 51.9214 126.236 53.0286C126.098 54.0944 126.028 55.1878 126.028 56.2813C126.028 57.3747 126.098 58.4682 126.236 59.5339C126.374 60.6412 126.596 61.7208 126.873 62.7312C127.468 64.9181 128.354 66.8973 129.489 68.6413C130.098 69.5687 130.762 70.413 131.496 71.1604C132.271 71.9632 133.101 72.6414 133.959 73.195C134.873 73.7763 135.842 74.2192 136.838 74.5237C137.862 74.8421 138.9 74.9943 139.952 75.0082C141.004 75.0082 142.056 74.8421 143.067 74.5376C144.063 74.2331 145.032 73.7902 145.946 73.2088C146.804 72.669 147.634 71.977 148.409 71.1742C149.143 70.4268 149.821 69.5825 150.416 68.6552C151.551 66.9112 152.437 64.9181 153.046 62.745C153.6 60.6966 153.89 58.5235 153.89 56.2951C153.89 54.0667 153.6 51.8937 153.046 49.8452C152.451 47.6583 151.565 45.6652 150.43 43.9213C149.821 42.9939 149.143 42.1496 148.423 41.4022C147.648 40.5994 146.817 39.9212 145.946 39.3676C145.018 38.7862 144.049 38.3295 143.067 38.025C142.07 37.7066 141.018 37.5406 139.966 37.5406Z" fill="white"/>
<path d="M122.748 48.6136L127.177 48.5721L131.606 48.5583L140.465 48.5444L149.323 48.5583L153.752 48.586L158.181 48.6275C158.195 48.6275 158.195 48.6275 158.195 48.6413C158.195 48.6413 158.195 48.6552 158.181 48.6552L153.752 48.6967L149.323 48.7244L140.465 48.7382L131.606 48.7244L127.177 48.7105L122.748 48.669C122.734 48.669 122.734 48.6552 122.734 48.6552C122.72 48.6275 122.734 48.6136 122.748 48.6136Z" fill="white"/>
<path d="M140.478 49.2362L127.177 49.1946L122.526 49.1669L122.222 48.8486V48.6271L122.236 48.1289L122.748 48.115L131.606 48.0458L140.464 48.032L153.766 48.0735L158.707 48.115L158.721 49.1393L158.195 49.1531L149.336 49.2223L140.478 49.2362Z" fill="white"/>
<path d="M127.883 41.1671C128.935 41.1533 129.987 41.1394 131.025 41.1256L134.167 41.1117C135.219 41.0979 136.271 41.0979 137.309 41.0979H140.451L146.749 41.1117L149.89 41.1394C150.942 41.1533 151.994 41.1671 153.032 41.1809C153.046 41.1809 153.046 41.1809 153.046 41.1809C153.046 41.1948 153.046 41.1948 153.032 41.1948C151.98 41.2086 150.929 41.2225 149.89 41.2363L146.749 41.264L140.451 41.2778H137.309C136.257 41.2778 135.205 41.2778 134.167 41.264L131.025 41.2502C129.973 41.2363 128.921 41.2363 127.883 41.2086C127.869 41.2086 127.869 41.1948 127.869 41.1948C127.869 41.1809 127.883 41.1671 127.883 41.1671Z" fill="white"/>
<path d="M140.478 41.79L136.52 41.7762C135.745 41.7762 134.97 41.7762 134.181 41.7623L129.987 41.7347C129.281 41.7208 128.589 41.7208 127.883 41.707L127.385 41.6931L127.371 40.6689L127.883 40.6551C128.561 40.6412 129.239 40.6412 129.918 40.6274L134.181 40.5997C134.914 40.5997 135.662 40.5859 136.395 40.5859L140.478 40.572L151.067 40.6274C151.731 40.6412 152.409 40.6412 153.074 40.6551L153.586 40.6689L153.558 41.6931L153.06 41.707C152.368 41.7208 151.662 41.7208 150.97 41.7347L146.776 41.7623L140.478 41.79Z" fill="white"/>
<path d="M121.212 56.0738L126.028 56.0323L130.845 56.0185L140.478 56.0046L150.112 56.0185L154.928 56.0462L159.745 56.0877C159.759 56.0877 159.759 56.0877 159.759 56.1015C159.759 56.1015 159.759 56.1154 159.745 56.1154L154.928 56.1569L150.112 56.1846L140.478 56.1984L130.845 56.1846L126.028 56.1707L121.212 56.1292C121.198 56.1292 121.198 56.1154 121.198 56.1154C121.184 56.0738 121.198 56.0738 121.212 56.0738Z" fill="white"/>
<path d="M140.478 56.6828L126.015 56.6551L120.7 56.6136L120.686 55.5755L121.198 55.5616L130.831 55.5063L140.478 55.4924L154.928 55.534L159.953 55.5616L160.257 55.88L160.243 56.5997L159.731 56.6136L150.112 56.6689L140.478 56.6828Z" fill="white"/>
<path d="M122.748 63.5201L127.177 63.4786L131.606 63.4648L140.465 63.4509L149.323 63.4648L153.752 63.4925L158.181 63.534C158.195 63.534 158.195 63.534 158.195 63.534C158.195 63.5478 158.195 63.5478 158.181 63.5478L153.752 63.5893L149.323 63.617L140.465 63.6309L131.606 63.617L127.177 63.6032L122.748 63.5617C122.734 63.5617 122.734 63.5478 122.734 63.5478C122.72 63.534 122.734 63.5201 122.748 63.5201Z" fill="white"/>
<path d="M140.478 64.1431L127.177 64.1016L122.526 64.0601L122.222 63.7556V63.5203L122.236 63.0358L122.748 63.0082L131.606 62.9528L140.464 62.939L153.766 62.9805L158.707 63.022L158.721 64.0462L158.195 64.0601L149.336 64.1155L140.478 64.1431Z" fill="white"/>
<path d="M153.697 71.0635H128.52C128.478 71.0635 128.451 71.0358 128.451 70.9943C128.451 70.9527 128.478 70.925 128.52 70.925H153.683C153.724 70.925 153.752 70.9527 153.752 70.9943C153.766 71.0219 153.724 71.0635 153.697 71.0635Z" fill="white"/>
<path d="M153.696 71.5621H128.52C128.201 71.5621 127.938 71.2991 127.938 70.9807C127.938 70.6624 128.201 70.3994 128.52 70.3994H153.683C154.001 70.3994 154.25 70.6624 154.25 70.9807C154.264 71.3129 154.001 71.5621 153.696 71.5621Z" fill="white"/>
<path d="M140.464 76.5587C129.045 76.5587 119.772 67.3682 119.772 56.0878C119.772 44.7935 129.059 35.6169 140.464 35.6169C151.883 35.6169 161.157 44.8074 161.157 56.0878C161.17 67.3821 151.883 76.5587 140.464 76.5587ZM140.464 37.4301C130.056 37.4301 121.585 45.8039 121.585 56.0878C121.585 66.3717 130.056 74.7455 140.464 74.7455C150.873 74.7455 159.343 66.3717 159.343 56.0878C159.357 45.8039 150.887 37.4301 140.464 37.4301Z" fill="white"/>
<path d="M160.369 39.5201H154.431V37.9837L156.397 35.1878C156.937 34.4127 157.31 33.8453 157.518 33.4716C157.726 33.0978 157.864 32.738 157.961 32.4058C158.058 32.0598 158.099 31.7137 158.099 31.3539C158.099 30.9248 158.002 30.6065 157.809 30.3989C157.615 30.1912 157.379 30.0805 157.075 30.0805C156.812 30.0805 156.563 30.1497 156.328 30.2881C156.092 30.4265 155.815 30.6895 155.483 31.0494L154.334 29.8314C154.86 29.2362 155.359 28.821 155.815 28.5995C156.272 28.3781 156.757 28.2673 157.296 28.2673C158.196 28.2673 158.888 28.5303 159.386 29.0563C159.885 29.5822 160.134 30.3158 160.134 31.2432C160.134 31.6722 160.092 32.0736 159.995 32.4473C159.899 32.821 159.76 33.2086 159.58 33.5823C159.4 33.9698 159.165 34.3574 158.888 34.7726C158.611 35.1878 157.892 36.129 156.729 37.61V37.6654H160.369V39.5201Z" fill="white"/>
<path d="M168.009 37.195H166.888V39.5202H164.95V37.195H161.338V35.5202L164.687 28.4336H166.888V35.4787H168.009V37.195ZM164.95 35.4925V33.1534L164.992 32.1291L165.047 31.1464H164.992C164.812 31.7001 164.618 32.1983 164.411 32.6413L163.082 35.4925H164.95Z" fill="white"/>
<path d="M217.414 150.786C217.745 151.605 217.376 152.473 216.723 152.637C215.977 152.826 215.227 152.241 214.848 151.304C214.517 150.485 214.886 149.618 215.539 149.453C216.239 149.406 217.082 149.967 217.414 150.786Z" fill="#0E2617"/>
<path d="M217.225 148.435C217.121 148.746 215.659 147.856 214.188 148.104C212.615 148.379 211.795 149.447 211.493 149.244C211.342 149.142 211.396 148.702 211.756 148.181C212.115 147.66 212.778 147.058 213.742 146.945C214.706 146.831 215.716 147.131 216.321 147.539C216.925 147.946 217.277 148.279 217.225 148.435Z" fill="#0E2617"/>
<path d="M202.26 154.808C202.591 155.627 202.222 156.494 201.569 156.659C200.822 156.847 200.072 156.263 199.693 155.326C199.362 154.506 199.731 153.639 200.384 153.474C201.178 153.403 202.022 153.964 202.26 154.808Z" fill="#0E2617"/>
<path d="M201.365 152.446C201.261 152.757 199.8 151.867 198.328 152.115C196.755 152.39 195.935 153.459 195.633 153.255C195.482 153.153 195.536 152.713 195.895 152.192C196.255 151.671 196.918 151.069 197.882 150.956C198.846 150.842 199.857 151.142 200.461 151.55C201.167 151.93 201.417 152.29 201.365 152.446Z" fill="#0E2617"/>
<path d="M210.79 162.668C210.75 162.558 211.481 162.234 212.766 161.876C213.109 161.781 213.326 161.6 213.331 161.357C213.297 161.005 213.051 160.59 212.719 160.2C212.1 159.286 211.442 158.263 210.744 157.129C208.03 152.816 205.854 149.198 206.026 149.15C206.197 149.103 208.464 152.454 211.218 156.877C211.876 157.9 212.534 158.924 213.107 159.971C213.353 160.386 213.725 160.885 213.795 161.59C213.829 161.943 213.652 162.233 213.395 162.305C213.264 162.462 212.967 162.424 212.881 162.448C211.601 162.562 210.83 162.777 210.79 162.668Z" fill="#0E2617"/>
<path d="M210.513 169.058C210.651 168.914 211.656 170.013 213.427 169.916C215.198 169.819 216.305 168.536 216.439 168.664C216.506 168.729 216.365 169.144 215.814 169.581C215.331 170.083 214.439 170.607 213.349 170.667C212.259 170.727 211.447 170.364 210.977 169.915C210.574 169.53 210.444 169.129 210.513 169.058Z" fill="#0E2617"/>
<path d="M200.309 145.94C200.301 146.518 198.717 146.516 196.87 147.016C195.023 147.516 193.783 148.428 193.381 147.961C193.18 147.728 193.34 147.252 193.76 146.563C194.228 146.005 195.004 145.363 196.083 144.926C197.212 144.621 198.234 144.632 198.997 144.857C199.858 145.343 200.314 145.651 200.309 145.94Z" fill="#0E2617"/>
<path d="M215.533 143.901C215.379 144.363 214.172 144.117 212.912 144.307C211.602 144.369 210.592 144.915 210.241 144.585C210.041 144.356 210.094 143.92 210.449 143.406C210.805 142.891 211.411 142.451 212.369 142.34C213.226 142.257 214.13 142.582 214.683 142.859C215.285 143.263 215.535 143.62 215.533 143.901Z" fill="#0E2617"/>
<defs>
<linearGradient id="paint0_linear_658_7404" x1="209.649" y1="310.371" x2="280.75" y2="330.605" gradientUnits="userSpaceOnUse">
<stop stop-color="#FEBBBA"/>
<stop offset="1" stop-color="#FF928E"/>
</linearGradient>
<linearGradient id="paint1_linear_658_7404" x1="133.289" y1="257.461" x2="192.61" y2="178.674" gradientUnits="userSpaceOnUse">
<stop stop-color="#FEBBBA"/>
<stop offset="1" stop-color="#FF928E"/>
</linearGradient>
<linearGradient id="paint2_linear_658_7404" x1="164.852" y1="326.758" x2="-0.232346" y2="665.102" gradientUnits="userSpaceOnUse">
<stop stop-color="#FEBBBA"/>
<stop offset="1" stop-color="#FF928E"/>
</linearGradient>
<linearGradient id="paint3_linear_658_7404" x1="215.819" y1="147.871" x2="150.559" y2="187.166" gradientUnits="userSpaceOnUse">
<stop stop-color="#FEBBBA"/>
<stop offset="1" stop-color="#FF928E"/>
</linearGradient>
<linearGradient id="paint4_linear_658_7404" x1="209.448" y1="137.292" x2="144.188" y2="176.588" gradientUnits="userSpaceOnUse">
<stop stop-color="#FEBBBA"/>
<stop offset="1" stop-color="#FF928E"/>
</linearGradient>
</defs>
</svg>
