<svg width="53" height="57" viewBox="0 0 53 57" fill="none" xmlns="http://www.w3.org/2000/svg">
<path d="M0.499932 9.98633V13.0274L0.5 18.6027V35.3287L0.499932 37.863C0.166599 39.7214 -0.200068 43.9452 0.999932 45.9726C2.49993 48.5068 1.49993 48 6.49993 51.0411C11.4999 54.0822 12.4999 53.0685 13.9999 53.5753C15.1999 53.9808 17.8333 54.0822 18.9999 54.0822V38.8767H43.4999V18.0958V14.0411V11L42.9999 8.46571L40.4999 5.93146C38.4999 3.90407 32.9999 2.38359 28.9999 1.36989C25.7999 0.558933 17.9999 1.03199 14.4999 1.36989C12.4999 1.87674 7.79993 3.29592 4.99993 4.91784C2.19993 6.53975 0.833265 8.97263 0.499932 9.98633Z" fill="#F4FFF8"/>
<rect x="17.5" y="37.3494" width="35" height="9.13699" rx="2.5" fill="#30AB5E" stroke="white"/>
<rect x="17.5" y="46.4727" width="35" height="9.13699" rx="2.5" fill="#30AB5E" stroke="white"/>
<ellipse cx="22" cy="41.918" rx="1" ry="1.0137" fill="white"/>
<ellipse cx="22" cy="51.0413" rx="1" ry="1.0137" fill="white"/>
<path d="M43.5 10.4932C43.5 12.9794 41.2917 15.3894 37.3471 17.207C33.4452 19.0049 28.0197 20.1302 22 20.1302C15.9803 20.1302 10.5548 19.0049 6.65289 17.207C2.70827 15.3894 0.5 12.9794 0.5 10.4932C0.5 8.00696 2.70827 5.59694 6.65289 3.77937C10.5548 1.9815 15.9803 0.856201 22 0.856201C28.0197 0.856201 33.4452 1.9815 37.3471 3.77937C41.2917 5.59694 43.5 8.00696 43.5 10.4932Z" stroke="#30AB5E"/>
<path d="M43.5 21.6436C43.5 27.8019 33.8741 31.2737 22 31.2737C10.1259 31.2737 0.5 27.8019 0.5 21.6436" stroke="#30AB5E" stroke-linecap="round"/>
<path d="M15 41.4111C3.5 39.8906 0.5 34.3153 0.5 31.781" stroke="#30AB5E" stroke-linecap="round"/>
<path d="M15 53.5752C3.5 52.0547 0.5 46.4793 0.5 43.9451" stroke="#30AB5E" stroke-linecap="round"/>
<path d="M0.5 43.9452V10.4932" stroke="#30AB5E"/>
<path d="M43.5 35.3288V10.4932" stroke="#30AB5E" stroke-linecap="round"/>
<rect x="35" y="40.9043" width="13" height="2.0274" rx="1" fill="white"/>
<rect x="35" y="50.0276" width="13" height="2.0274" rx="1" fill="white"/>
</svg>
