<svg width="51" height="40" viewBox="0 0 51 40" fill="none" xmlns="http://www.w3.org/2000/svg">
<path d="M6.42286 1C4.98463 1 3.6053 1.57357 2.58832 2.59453C1.57133 3.6155 1 5.00022 1 6.44408V14.6102C2.43823 14.6102 3.81756 15.1838 4.83454 16.2047C5.85152 17.2257 6.42286 18.6104 6.42286 20.0543C6.42286 21.4981 5.85152 22.8829 4.83454 23.9038C3.81756 24.9248 2.43823 25.4984 1 25.4984V33.6645C1 35.1084 1.57133 36.4931 2.58832 37.514C3.6053 38.535 4.98463 39.1086 6.42286 39.1086H44.3829C45.8211 39.1086 47.2004 38.535 48.2174 37.514C49.2344 36.4931 49.8057 35.1084 49.8057 33.6645V25.4984C48.3675 25.4984 46.9882 24.9248 45.9712 23.9038C44.9542 22.8829 44.3829 21.4981 44.3829 20.0543C44.3829 18.6104 44.9542 17.2257 45.9712 16.2047C46.9882 15.1838 48.3675 14.6102 49.8057 14.6102V6.44408C49.8057 5.00022 49.2344 3.6155 48.2174 2.59453C47.2004 1.57357 45.8211 1 44.3829 1H6.42286Z" fill="#30AB5E"/>
<path d="M33.5371 1V6.44408M33.5371 17.3322V22.7763M33.5371 33.6645V39.1086M6.42286 1C4.98463 1 3.6053 1.57357 2.58832 2.59453C1.57133 3.6155 1 5.00022 1 6.44408V14.6102C2.43823 14.6102 3.81756 15.1838 4.83454 16.2047C5.85152 17.2257 6.42286 18.6104 6.42286 20.0543C6.42286 21.4981 5.85152 22.8829 4.83454 23.9038C3.81756 24.9248 2.43823 25.4984 1 25.4984V33.6645C1 35.1084 1.57133 36.4931 2.58832 37.514C3.6053 38.535 4.98463 39.1086 6.42286 39.1086H44.3829C45.8211 39.1086 47.2004 38.535 48.2174 37.514C49.2344 36.4931 49.8057 35.1084 49.8057 33.6645V25.4984C48.3675 25.4984 46.9882 24.9248 45.9712 23.9038C44.9542 22.8829 44.3829 21.4981 44.3829 20.0543C44.3829 18.6104 44.9542 17.2257 45.9712 16.2047C46.9882 15.1838 48.3675 14.6102 49.8057 14.6102V6.44408C49.8057 5.00022 49.2344 3.6155 48.2174 2.59453C47.2004 1.57357 45.8211 1 44.3829 1H6.42286Z" stroke="#F4FFF8" stroke-linecap="round" stroke-linejoin="round"/>
</svg>
