<svg width="595" height="343" viewBox="0 0 595 343" fill="none" xmlns="http://www.w3.org/2000/svg">
<path d="M98.4021 285.483C98.1204 271.68 95.773 257.877 90.0454 245.295C84.4117 232.714 75.3039 221.54 63.3792 214.592C54.9287 209.709 43.2857 207.456 35.868 213.841C33.4267 216 31.6427 218.911 30.422 221.916C27.1357 229.803 27.0418 239.004 30.2342 246.986C32.8633 253.746 37.5581 259.38 42.6284 264.544C56.1493 278.253 74.0832 289.144 93.3317 289.051" fill="#30AB5E"/>
<path d="M95.9608 313.087C87.6981 303.698 75.8673 297.595 63.4732 295.999C59.0601 295.435 49.3889 293.933 46.7598 298.628C44.2247 303.228 50.2339 310.271 53.3325 312.806C56.9005 315.81 60.8441 318.627 65.1633 320.317C75.3978 324.355 87.9798 321.914 95.867 314.214" fill="#30AB5E"/>
<path d="M417.27 287.924C410.415 268.3 407.692 246.516 413.89 226.61C419.993 206.704 436.049 189.146 456.518 185.015C459.335 184.451 462.246 184.076 464.968 184.827C467.785 185.578 470.133 187.362 472.198 189.334C481.963 198.911 484.686 214.216 481.776 227.549C478.865 240.976 470.978 252.807 462.152 263.323C452.48 274.872 440.18 285.858 425.157 287.454" fill="#30AB5E"/>
<path d="M426.847 310.365C429.664 305.951 434.359 303.041 438.959 300.506C448.255 295.435 458.208 291.116 468.818 289.614C474.546 288.769 481.494 289.426 484.405 294.496C486.846 298.628 485.25 304.074 482.527 308.017C478.114 314.59 470.978 319.191 463.184 320.411C458.208 321.162 453.232 320.693 448.255 319.942C441.401 319.003 434.359 317.688 428.443 314.214" fill="#30AB5E"/>
<path d="M451.823 208.958C435.767 228.77 420.838 249.521 407.223 271.023C403.373 277.032 399.617 283.229 396.049 289.332C395.58 290.083 396.801 290.741 397.176 289.989C409.946 268.206 424.124 247.079 439.335 226.986C443.748 221.164 448.161 215.531 452.762 209.897C453.325 209.24 452.386 208.301 451.823 208.958Z" fill="white"/>
<path d="M468.067 305.482C449.476 309.332 430.603 310.928 411.636 310.458C410.791 310.458 410.791 311.773 411.636 311.773C430.697 312.242 449.757 310.552 468.443 306.703C469.288 306.609 468.912 305.294 468.067 305.482Z" fill="white"/>
<path d="M46.9476 235.906C69.9519 249.802 91.266 266.61 110.139 285.764C115.397 291.116 120.467 296.656 125.35 302.29C125.913 302.947 126.852 302.008 126.289 301.351C108.824 280.882 88.8248 262.666 66.8533 247.173C60.6562 242.76 54.2714 238.629 47.6987 234.685C46.8537 234.31 46.1964 235.436 46.9476 235.906Z" fill="white"/>
<path d="M60.5623 307.36C75.116 312.242 90.327 315.435 105.632 316.749C109.951 317.125 114.364 317.313 118.683 317.407C119.528 317.407 119.528 316.092 118.683 316.092C103.378 315.81 88.1674 313.745 73.4259 309.895C69.2006 308.768 64.9753 307.548 60.8439 306.139C60.0928 305.764 59.8111 307.078 60.5623 307.36Z" fill="white"/>
<path d="M378.116 104.265L80.3744 104.828L432.537 341.351L432.453 340.851M378.116 104.265V104.765M378.116 104.265L378.117 104.765L378.116 104.765M378.116 104.265C386.754 104.265 394.266 110.556 395.674 119.1L432.96 340.85L432.453 340.851M378.116 104.765L80.3753 105.328L80.3744 105.328C69.698 105.328 61.5775 114.908 63.4026 125.494L63.403 125.496L99.6702 341.506M378.116 104.765C386.512 104.765 393.813 110.881 395.181 119.181L395.181 119.183L432.453 340.851M99.6702 341.506L99.2463 341.507L99.2473 342.007L99.7404 341.924L99.6702 341.506ZM99.6702 341.506L432.453 340.851" fill="white" stroke="#A8CFD0"/>
<path d="M123.566 180.319C119.341 177.033 113.895 177.033 111.547 180.319C109.106 183.606 110.515 189.052 114.74 192.338C118.965 195.624 124.411 195.624 126.758 192.338C129.2 189.052 127.791 183.7 123.566 180.319Z" fill="#8FC6C6"/>
<path d="M138.12 186.704H319.713" stroke="#30AB5E" stroke-width="1.133" stroke-miterlimit="10"/>
<path d="M142.341 265.077C145.039 261.994 143.935 256.616 139.876 253.064C135.817 249.513 130.34 249.133 127.643 252.217C124.945 255.3 126.048 260.678 130.107 264.23C134.166 267.781 139.643 268.16 142.341 265.077Z" fill="#8FC6C6"/>
<path d="M153.988 259.004H335.581" stroke="#30AB5E" stroke-width="1.133" stroke-miterlimit="10"/>
<path d="M63.0974 127.739L62.8157 125.58C61.0317 114.782 69.2945 104.829 80.2802 104.829L378.022 104.265C386.754 104.265 394.171 110.556 395.58 119.101L397.082 128.209C398.021 126.8 63.0974 127.739 63.0974 127.739Z" fill="#29894D"/>
<path d="M90.6086 114.781C88.449 113.091 85.6322 113.091 84.3176 114.781C83.0031 116.471 83.8482 119.288 86.0078 121.072C88.1673 122.762 90.9842 122.762 92.2987 121.072C93.5194 119.288 92.7682 116.471 90.6086 114.781Z" fill="white"/>
<path d="M105.068 114.781C102.909 113.091 100.092 113.091 98.7774 114.781C97.4628 116.471 98.3079 119.288 100.467 121.072C102.627 122.762 105.444 122.762 106.758 121.072C107.979 119.288 107.228 116.471 105.068 114.781Z" fill="#006965"/>
<path d="M119.622 114.781C117.462 113.091 114.646 113.091 113.331 114.781C112.017 116.471 112.862 119.288 115.021 121.072C117.181 122.762 119.998 122.762 121.312 121.072C122.533 119.288 121.782 116.471 119.622 114.781Z" fill="#8FC6C6"/>
<path d="M312.202 92.9973C318.476 92.9973 323.563 87.9106 323.563 81.636C323.563 75.3613 318.476 70.2747 312.202 70.2747C305.927 70.2747 300.84 75.3613 300.84 81.636C300.84 87.9106 305.927 92.9973 312.202 92.9973Z" fill="#30AB5E" stroke="#30AB5E" stroke-width="2.4305" stroke-miterlimit="10"/>
<path d="M290.606 119.757L319.338 71.9648C321.028 68.0212 316.333 56.0965 313.328 52.998C305.065 44.5474 293.141 40.3222 281.31 39.571C274.737 39.1015 262.249 46.2376 258.587 54.4064C254.456 63.5143 252.015 72.4343 240.747 76.8473C216.616 86.3308 221.499 112.715 221.499 112.715" fill="#000400"/>
<path d="M286.568 45.3929C288.822 43.7967 291.169 42.576 293.61 41.731C291.263 41.0737 288.822 40.5103 286.381 40.1348C285.911 40.3226 285.535 40.4165 285.066 40.6042C273.423 45.2051 265.348 61.3551 268.259 73.4675C269.667 73.4675 272.86 74.0309 274.174 73.8431C274.362 63.5146 278.118 51.59 286.568 45.3929Z" fill="#30AB5E"/>
<path d="M276.052 74.5003C275.958 75.0636 275.395 75.3453 274.831 75.2514C272.578 74.5942 267.413 72.6224 264.972 78.4439C262.531 84.2654 267.32 89.3357 270.7 90.4624C271.639 90.838 273.892 91.6831 274.362 92.622C275.77 95.4389 271.733 118.068 267.883 125.767C267.601 140.415 289.479 160.414 289.479 160.414C289.479 160.414 295.206 152.339 299.901 134.593C299.901 134.593 301.31 102.669 301.591 102.481C305.159 100.509 319.337 101.542 318.962 76.566C318.68 53.3739 302.53 50.4631 298.305 50.0875C294.831 49.712 282.906 47.1768 276.052 74.5003Z" fill="#FFB4A5"/>
<path d="M309.948 51.0263C309.948 51.0263 296.521 81.8239 275.395 75.1573C275.395 75.2512 270.324 35.6275 309.948 51.0263Z" fill="#000400"/>
<path d="M267.132 80.885C267.132 80.885 272.859 74.3123 274.549 85.7675L267.132 80.885Z" fill="#FF8164"/>
<path d="M295.958 80.1339C298.962 80.885 300.746 83.9836 299.995 86.8943C299.244 89.899 296.145 91.683 293.235 90.9318C290.324 90.1806 288.446 87.0821 289.197 84.1714C289.948 81.1667 292.953 79.3827 295.958 80.1339Z" fill="#FF9E87"/>
<path d="M317.741 88.3965C315.394 87.2697 314.079 84.6407 314.83 82.0116C315.394 80.0398 316.896 78.5375 318.774 77.9741C318.774 78.068 319.337 84.6407 317.741 88.3965Z" fill="#FF9E87"/>
<path d="M313.985 84.3591L304.69 86.1431C304.69 86.1431 307.882 90.1806 310.511 89.2417C313.046 88.2088 313.985 84.3591 313.985 84.3591Z" fill="white"/>
<path d="M309.385 76.6597L309.009 82.8567L312.201 82.3873C312.765 82.2934 313.047 81.6361 312.765 81.1666L309.385 76.6597Z" fill="#FF8164"/>
<path d="M299.525 71.5893C298.493 72.3405 299.901 69.0542 301.309 68.5847C302.718 68.1152 304.126 68.6786 304.596 69.8992C304.596 69.8992 301.873 69.6175 299.525 71.5893Z" fill="black"/>
<path d="M316.615 70.0869C317.741 70.7442 315.863 67.6456 314.455 67.2701C313.047 66.9884 311.638 67.7395 311.356 68.9602C311.356 69.0541 313.986 68.4907 316.615 70.0869Z" fill="black"/>
<path d="M303 77.2232C303.093 78.35 303.657 79.195 304.22 79.1011C304.784 79.0072 305.065 78.0683 304.971 77.0354C304.877 75.9087 304.314 75.0636 303.751 75.1575C303.281 75.1575 302.906 76.0965 303 77.2232Z" fill="black"/>
<path d="M311.638 75.7209C311.732 76.7537 312.295 77.5988 312.765 77.5049C313.234 77.411 313.61 76.5659 313.516 75.5331C313.422 74.5003 312.859 73.6552 312.389 73.7491C311.826 73.7491 311.544 74.688 311.638 75.7209Z" fill="black"/>
<path d="M302.436 102.011C302.436 102.011 297.366 103.044 292.296 101.26C287.319 99.4761 297.178 112.34 302.436 102.011Z" fill="#FF8164"/>
<path d="M271.357 341.913C272.953 335.059 274.268 329.613 275.113 326.139C276.24 321.35 283.657 322.383 283.094 327.265C282.718 330.833 282.343 335.81 282.061 341.913H338.586C334.924 292.43 326.943 248.3 311.263 222.479C290.418 219.568 264.972 223.324 243.846 223.981C233.33 242.572 227.79 256.187 221.687 279.848C219.715 287.454 214.832 310.928 208.729 341.913H271.357Z" fill="#2D2F3D"/>
<path opacity="0.21" d="M310.981 231.868L216.522 300.787C216.522 300.787 223.846 260.13 239.057 231.586L310.981 231.868Z" fill="black"/>
<path d="M409.759 183.324C409.759 183.324 391.355 200.319 361.59 222.009V222.103C361.497 222.103 361.497 222.009 361.403 222.009C359.619 222.29 352.483 225.952 350.98 225.765C350.98 225.765 332.577 232.995 319.807 190.742C317.929 186.986 291.263 141.353 290.794 140.883C290.794 140.883 293.986 131.4 294.174 131.212C310.981 116.752 329.197 174.78 345.722 194.498C346.379 195.343 347.506 195.624 348.539 195.155C350.605 194.31 353.422 192.901 353.422 192.901L370.792 184.451L401.214 164.639C401.214 164.639 403.562 154.123 404.407 152.996C405.909 152.526 412.2 152.245 412.2 152.245C412.2 152.245 431.448 136.001 431.448 139.945C431.448 142.292 421.026 153.935 421.026 153.935C421.026 153.935 426.378 160.414 426.66 164.639C427.129 168.958 409.759 183.324 409.759 183.324Z" fill="#FF9E87"/>
<path d="M404.313 153.372C406.378 153.278 408.444 153.184 410.51 153.184C411.543 153.184 412.575 153.184 413.608 153.184H415.204C415.674 153.184 416.237 153.09 416.895 153.372C417.27 153.466 417.552 153.841 417.74 154.123C417.927 154.499 417.927 154.78 417.927 155.156C417.927 155.813 417.552 156.47 417.082 156.846C416.143 157.691 415.111 158.067 414.078 158.254C412.106 158.818 410.04 159.287 407.975 159.663C409.946 158.818 411.824 158.16 413.796 157.409C414.735 157.034 415.674 156.658 416.331 156.095C416.613 155.813 416.801 155.437 416.801 155.062C416.801 154.686 416.613 154.405 416.425 154.311C416.143 154.217 415.58 154.217 415.111 154.217L413.514 154.123C412.481 154.029 411.449 154.029 410.416 153.935C408.444 153.841 406.378 153.653 404.313 153.372Z" fill="#D18478"/>
<path d="M420.275 153.935C419.711 154.592 419.054 155.249 418.491 155.907C417.927 156.564 417.364 157.315 416.894 157.972C415.862 159.381 415.017 160.883 414.265 162.479L414.078 161.822C414.641 162.198 415.486 162.104 416.237 161.728C416.988 161.446 417.74 160.883 418.491 160.32C419.242 159.85 419.993 159.287 420.744 158.817C421.495 158.348 422.246 157.878 423.092 157.409C422.434 158.066 421.777 158.63 421.026 159.193C420.369 159.756 419.617 160.414 418.96 160.977C418.303 161.54 417.552 162.104 416.613 162.573C416.143 162.761 415.674 162.949 415.11 163.043C414.547 163.137 413.984 162.949 413.514 162.667L413.139 162.573L413.326 162.104C414.078 160.507 415.11 158.911 416.237 157.597C416.801 156.939 417.458 156.282 418.115 155.625C418.772 155.062 419.524 154.498 420.275 153.935Z" fill="#D18478"/>
<path d="M416.707 162.386C416.613 162.949 416.519 163.418 416.613 163.888C416.613 164.357 416.988 164.733 417.27 164.921C417.552 165.015 417.927 164.921 418.397 164.639C418.866 164.357 419.336 164.17 419.805 163.888C420.744 163.418 421.589 162.855 422.528 162.292C423.467 161.728 424.312 161.165 425.251 160.602C423.937 162.292 422.247 163.7 420.369 164.733C419.899 165.015 419.43 165.202 418.96 165.484C418.679 165.578 418.397 165.766 418.115 165.766C417.74 165.86 417.364 165.766 417.082 165.578C416.425 165.202 416.237 164.451 416.331 163.888C416.143 163.325 416.331 162.855 416.707 162.386Z" fill="#D18478"/>
<path d="M425.721 164.639C425.439 165.296 424.97 165.766 424.406 166.141C423.843 166.517 423.186 166.705 422.434 166.799C421.777 166.892 421.026 166.799 420.369 166.517C419.711 166.235 419.148 165.86 418.866 165.202C419.524 165.484 420.087 165.578 420.65 165.672C421.214 165.766 421.777 165.766 422.341 165.766C422.904 165.766 423.467 165.578 424.031 165.39C424.688 165.296 425.157 165.014 425.721 164.639Z" fill="#D18478"/>
<path d="M292.296 130.931C292.296 130.931 301.028 122.95 312.202 129.616C323.375 136.189 344.22 181.54 350.793 190.46L377.365 174.216C377.365 174.216 391.731 196.845 397.177 201.07C397.177 201.07 356.426 237.783 341.309 230.741C326.004 223.793 292.296 130.931 292.296 130.931Z" fill="#8FC6C6"/>
<path opacity="0.93" d="M325.253 174.592C319.901 157.973 310.324 143.419 298.493 130.743C297.742 129.898 297.272 128.959 297.085 128.114C294.08 129.335 292.296 130.931 292.296 130.931C292.296 130.931 314.361 191.587 330.793 218.535C331.169 203.7 329.854 188.864 325.253 174.592Z" fill="#008890"/>
<path d="M300.371 125.11C299.807 126.612 323.187 171.118 322.436 185.578C321.685 200.132 319.15 226.422 319.995 228.676C319.995 228.676 301.31 235.718 239.057 225.859C239.527 213.277 243.189 134.217 243.189 134.217C243.189 134.217 263.564 121.729 268.822 121.354C268.822 121.354 272.578 126.33 277.93 127.739C281.498 128.678 285.723 129.429 289.667 129.429C296.239 129.617 297.554 128.678 300.371 125.11Z" fill="#8FC6C6"/>
<g opacity="0.93">
<path opacity="0.93" d="M284.596 221.352C241.405 200.601 252.015 155.25 245.254 132.997C243.94 133.748 243.189 134.311 243.189 134.311C243.189 134.311 239.527 213.371 239.057 225.953C282.718 232.807 304.972 231.399 314.267 229.99C309.76 227.643 289.197 223.606 284.596 221.352Z" fill="#008890"/>
</g>
<path d="M280.199 88.6363C282.618 82.8467 279.885 76.1923 274.096 73.7734C268.306 71.3545 261.652 74.087 259.233 79.8767C256.814 85.6663 259.547 92.3207 265.336 94.7396C271.126 97.1585 277.78 94.426 280.199 88.6363Z" fill="#30AB5E" stroke="#30AB5E" stroke-width="2.4305" stroke-miterlimit="10"/>
<path d="M275.864 85.6738L282.343 92.716C284.878 95.4389 288.54 96.6596 292.108 96.0023L309.854 92.716" stroke="#30AB5E" stroke-width="1.133" stroke-miterlimit="10"/>
<path d="M310.699 94.0306L307.601 94.6879C306.662 94.8757 305.817 94.3123 305.629 93.3734L305.535 92.9978C305.347 92.0588 305.911 91.2138 306.85 91.026L309.948 90.3687C310.887 90.181 311.732 90.7443 311.92 91.6833L312.014 92.0588C312.202 92.9039 311.638 93.8429 310.699 94.0306Z" fill="#30AB5E"/>
<path d="M269.761 91.7769C273.909 91.7769 277.272 88.4138 277.272 84.2653C277.272 80.1167 273.909 76.7537 269.761 76.7537C265.612 76.7537 262.249 80.1167 262.249 84.2653C262.249 88.4138 265.612 91.7769 269.761 91.7769Z" stroke="#000400" stroke-width="1.133" stroke-miterlimit="10"/>
<path d="M255.395 132.621C243.376 122.856 214.926 159.381 214.926 159.381L191.077 187.456L151.641 152.996C151.077 149.522 150.045 143.7 148.918 140.977C147.697 138.067 148.167 133.466 148.448 131.119C148.542 130.367 147.791 129.804 147.134 130.086C146.007 130.555 144.599 131.588 144.411 133.935C144.223 136.471 142.909 140.132 142.815 142.104C142.815 142.574 142.345 142.855 141.97 142.668C139.904 141.823 138.965 140.696 136.242 138.442C135.397 137.503 132.862 135.438 130.233 131.494C127.604 127.644 124.13 122.198 122.909 124.17C122.064 125.579 126.665 133.56 127.51 134.687C129.294 137.128 131.172 141.823 131.266 142.01C131.453 142.762 125.538 137.222 123.003 133.748C120.468 130.273 118.12 126.518 116.712 126.705C115.303 126.893 117.275 130.367 117.275 130.367C117.275 130.367 114.646 128.302 113.989 129.147C113.519 129.71 116.242 135.438 118.214 139.193C114.552 136.564 114.552 138.536 114.552 138.536C114.552 138.536 120.186 147.456 122.815 149.146C124.975 150.461 127.791 154.123 128.261 154.874C128.73 155.625 136.054 162.949 143.002 166.423C149.012 174.404 196.335 237.596 202.25 232.244C246.287 192.244 272.578 146.517 255.395 132.621Z" fill="#FF9E87"/>
<path d="M118.214 138.818L120.28 140.79C120.937 141.447 121.688 142.01 122.439 142.48C123.191 142.949 124.036 143.419 124.881 143.982C125.726 144.545 126.477 145.203 127.228 145.86H126.101C126.946 145.203 127.791 144.545 128.73 143.888C129.669 143.231 130.514 142.668 131.547 142.198C130.89 143.137 130.233 143.982 129.482 144.733C128.73 145.578 127.979 146.329 127.228 147.081L126.665 147.55L126.101 147.081C125.444 146.423 124.693 145.954 123.942 145.391C123.191 144.827 122.346 144.358 121.594 143.7C120.843 143.043 120.186 142.292 119.623 141.447C118.965 140.602 118.59 139.757 118.214 138.818Z" fill="#D18478"/>
<path d="M143.284 143.701C143.472 144.64 143.566 145.391 143.66 146.236C143.754 147.081 143.847 147.832 143.847 148.677L144.129 153.56C143.378 152.996 143.002 152.151 142.627 151.306C142.345 150.461 142.157 149.616 142.063 148.771C141.97 147.926 142.063 146.987 142.251 146.142C142.533 145.297 142.815 144.452 143.284 143.701Z" fill="#D18478"/>
<path d="M117.557 130.837C118.402 132.057 119.153 133.09 120.092 134.123C120.937 135.156 121.876 136.189 122.815 137.128C123.754 138.16 124.693 139.099 125.632 140.226C126.571 141.259 127.416 142.386 128.073 143.7C126.946 142.855 125.82 142.01 124.693 141.165C123.566 140.32 122.533 139.287 121.594 138.254C120.655 137.222 119.716 136.095 119.059 134.874C118.308 133.654 117.745 132.245 117.557 130.837Z" fill="#D18478"/>
<path d="M255.395 132.621C243.376 122.856 214.926 159.381 214.926 159.381L191.077 187.455L169.669 168.77C165.819 174.78 156.617 185.953 153.143 192.15C169.481 212.995 198.307 235.905 202.25 232.337C246.287 192.244 272.578 146.517 255.395 132.621Z" fill="#8FC6C6"/>
<path d="M43.7552 341.444H502.996" stroke="#30AB5E" stroke-width="1.133" stroke-miterlimit="10"/>
<path d="M356.801 79.1947L365.44 70.5563H398.115C404.782 70.5563 410.134 65.2043 410.134 58.5378V55.9087C410.134 49.2422 404.782 43.8901 398.115 43.8901H368.82C362.153 43.8901 356.801 49.2422 356.801 55.9087V79.1947Z" fill="#8FC6C6"/>
<path d="M392.763 56.8477C392.763 58.5378 394.078 59.8523 395.768 59.8523C397.458 59.8523 398.772 58.5378 398.772 56.8477C398.772 55.1575 397.458 53.843 395.768 53.843C394.171 53.843 392.763 55.1575 392.763 56.8477Z" fill="white"/>
<path d="M381.777 56.8477C381.777 58.5378 383.092 59.8523 384.782 59.8523C386.472 59.8523 387.787 58.5378 387.787 56.8477C387.787 55.1575 386.472 53.843 384.782 53.843C383.092 53.843 381.777 55.1575 381.777 56.8477Z" fill="white"/>
<path d="M370.792 56.8479C370.792 58.538 372.106 59.8526 373.796 59.8526C375.486 59.8526 376.801 58.538 376.801 56.8479C376.801 55.1578 375.486 53.8433 373.796 53.8433C372.106 53.8433 370.792 55.1578 370.792 56.8479Z" fill="white"/>
<path d="M406.19 49.7118C409.613 49.7118 412.387 46.9373 412.387 43.5147C412.387 40.0922 409.613 37.3176 406.19 37.3176C402.768 37.3176 399.993 40.0922 399.993 43.5147C399.993 46.9373 402.768 49.7118 406.19 49.7118Z" fill="#FCC72F"/>
<path d="M349.571 42.1063L340.933 33.468H308.258C301.591 33.468 296.239 28.1159 296.239 21.4494V18.8203C296.239 12.1538 301.591 6.80176 308.258 6.80176H337.553C344.219 6.80176 349.571 12.1538 349.571 18.8203V42.1063Z" fill="#006965"/>
<path d="M313.516 19.7595C313.516 21.4496 312.201 22.7642 310.511 22.7642C308.821 22.7642 307.506 21.4496 307.506 19.7595C307.506 18.0694 308.821 16.7549 310.511 16.7549C312.201 16.7549 313.516 18.1633 313.516 19.7595Z" fill="white"/>
<path d="M324.595 19.7593C324.595 21.4494 323.281 22.7639 321.591 22.7639C319.901 22.7639 318.586 21.4494 318.586 19.7593C318.586 18.0692 319.901 16.7546 321.591 16.7546C323.187 16.7546 324.595 18.1631 324.595 19.7593Z" fill="white"/>
<path d="M335.581 19.7593C335.581 21.4494 334.266 22.7639 332.576 22.7639C330.886 22.7639 329.572 21.4494 329.572 19.7593C329.572 18.0692 330.886 16.7546 332.576 16.7546C334.266 16.7546 335.581 18.1631 335.581 19.7593Z" fill="white"/>
<path opacity="0.51" d="M419.242 154.686L447.692 129.71H554.826C576.61 129.71 594.262 114.218 594.262 95.063V87.5513C594.262 68.3967 576.61 52.9041 554.826 52.9041H458.677C436.894 52.9041 419.242 68.3967 419.242 87.5513V154.686Z" fill="#9DDDB5"/>
<path d="M566.786 82.5101H451.69C448.601 82.5101 446 80.3363 446 77.7549C446 75.1736 448.601 72.9998 451.69 72.9998H566.786C569.874 72.9998 572.475 75.1736 572.475 77.7549C572.638 80.3363 570.037 82.5101 566.786 82.5101Z" fill="white"/>
<path d="M512.652 97.999H449.089C447.301 97.999 446 96.7762 446 95.4176C446 93.9231 447.463 92.8362 449.089 92.8362H512.652C514.44 92.8362 515.74 94.0589 515.74 95.4176C515.903 96.912 514.44 97.999 512.652 97.999Z" fill="white"/>
<path d="M512.652 109.683H449.089C447.301 109.683 446 108.46 446 107.101C446 105.607 447.463 104.52 449.089 104.52H512.652C514.44 104.52 515.74 105.743 515.74 107.101C515.903 108.46 514.44 109.683 512.652 109.683Z" fill="white"/>
<path d="M367.24 289.259C368.845 287.425 368.216 284.249 365.836 282.166C363.455 280.083 360.224 279.881 358.619 281.716C357.014 283.55 357.643 286.725 360.024 288.808C362.404 290.891 365.635 291.093 367.24 289.259Z" fill="#30AB5E"/>
<path d="M368.632 268.581C370.134 274.027 375.768 278.534 381.214 278.534C386.66 278.534 389.946 274.121 388.444 268.581C386.942 263.135 381.308 258.628 375.862 258.628C370.416 258.628 367.224 263.135 368.632 268.581Z" fill="#30AB5E"/>
<path d="M372.012 274.59L366.191 272.712C365.627 272.525 365.439 271.773 365.909 271.68L376.707 268.018C377.082 267.924 377.646 268.299 377.646 268.769L376.801 280.6C376.801 281.163 376.05 281.069 375.768 280.6L372.482 274.966C372.388 274.778 372.2 274.59 372.012 274.59Z" fill="#8FC6C6"/>
<path d="M24.2505 289.37C30.2799 287.632 33.7586 281.335 32.0205 275.306C30.2824 269.276 23.9856 265.798 17.9563 267.536C11.9269 269.274 8.4482 275.57 10.1863 281.6C11.9244 287.629 18.2212 291.108 24.2505 289.37Z" fill="#FCC72F"/>
<path d="M11.0796 251.492C11.0796 248.394 8.54445 245.952 5.53981 245.952C2.44127 245.952 0 248.488 0 251.492C0 254.497 2.53517 257.032 5.53981 257.032C8.63835 257.032 11.0796 254.591 11.0796 251.492Z" fill="#006965"/>
<path d="M64.9754 46.4253C64.9754 43.3268 62.4402 40.8855 59.4356 40.8855C56.4309 40.8855 53.8958 43.4207 53.8958 46.4253C53.8958 49.5238 56.4309 51.9651 59.4356 51.9651C62.4402 51.9651 64.9754 49.5238 64.9754 46.4253Z" fill="#FCC72F"/>
<path d="M506.376 325.294C506.376 322.195 503.841 319.754 500.836 319.754C497.738 319.754 495.297 322.289 495.297 325.294C495.297 328.298 497.832 330.834 500.836 330.834C503.935 330.834 506.376 328.392 506.376 325.294Z" fill="#006965"/>
<path d="M462.527 151.118C462.527 148.02 459.992 145.579 456.987 145.579C453.889 145.579 451.448 148.114 451.448 151.118C451.448 154.123 453.983 156.658 456.987 156.658C459.992 156.658 462.527 154.217 462.527 151.118Z" fill="#FCC72F"/>
<path d="M229.104 71.5892C234.393 71.5892 238.681 67.3013 238.681 62.0119C238.681 56.7225 234.393 52.4346 229.104 52.4346C223.815 52.4346 219.527 56.7225 219.527 62.0119C219.527 67.3013 223.815 71.5892 229.104 71.5892Z" fill="#006965"/>
<path d="M117.517 13.2871L113.711 7.83915C112.666 6.34657 110.577 5.89881 109.009 6.79435C103.935 9.70487 99.5315 13.2871 95.6508 17.6155C94.4567 19.0335 94.4567 21.1231 95.6508 22.4664L100.278 27.3919C101.323 28.5113 101.546 30.3024 100.726 31.6457C99.3076 33.9592 98.1882 36.3474 97.218 38.8847C96.6956 40.2281 95.4269 41.1236 94.0089 41.1236L86.3222 41.4221C84.6057 41.4967 83.1878 42.7654 82.8893 44.4819C81.9191 50.3029 81.9937 56.3479 83.0385 62.1689C83.337 63.96 84.9042 65.2287 86.6953 65.1541L93.8597 64.9302C95.3523 64.8555 96.7702 65.7511 97.2926 67.169C97.7404 68.4377 98.2628 69.7064 98.9344 70.9005C99.5315 72.0945 100.129 73.214 100.8 74.2588C101.546 75.5275 101.472 77.0947 100.576 78.2887L96.0239 84.1844C94.9791 85.6024 95.0537 87.5427 96.2478 88.8114C100.203 93.1399 104.979 96.8713 110.129 99.7072C111.696 100.528 113.636 100.155 114.681 98.737L119.084 92.916C119.98 91.7219 121.547 91.1995 122.965 91.6473C125.652 92.5428 128.487 93.1399 131.323 93.4384C132.965 93.5876 134.234 94.8563 134.458 96.4235L135.428 102.916C135.726 104.782 137.368 106.051 139.234 105.976C145.055 105.528 150.801 104.185 156.249 101.871C157.817 101.2 158.712 99.6326 158.414 97.9161L156.996 90.0055C156.772 88.6621 157.294 87.2442 158.414 86.4979C160.578 85.0053 162.593 83.3635 164.384 81.4978C165.503 80.3783 167.22 80.1545 168.638 80.9007L174.533 84.1844C176.175 85.08 178.19 84.5575 179.235 83.065C182.519 78.2141 185.056 72.8408 186.623 67.2437C187.071 65.6018 186.325 63.8107 184.758 63.0645L177.966 59.7062C176.698 59.0345 175.877 57.6912 175.951 56.2732C176.175 53.6612 176.101 51.0492 175.802 48.3626C175.653 46.87 176.474 45.3774 177.892 44.7804L184.31 41.9445C185.952 41.1982 186.773 39.3325 186.25 37.616C185.429 34.8548 184.384 32.1681 183.041 29.5561C181.772 26.9441 180.205 24.4067 178.489 22.0186C177.444 20.526 175.429 20.0783 173.862 20.9738L167.817 24.3321C166.473 25.0784 164.757 24.8545 163.638 23.8097C161.548 21.7947 159.309 20.0783 156.846 18.5111C155.503 17.6902 154.906 16.0483 155.279 14.5557L157.07 7.91378C157.518 6.12269 156.623 4.3316 154.906 3.65994C149.533 1.4957 143.712 0.301643 137.965 0.00312736C136.174 -0.0715014 134.532 1.19719 134.234 2.98828L133.04 9.85413C132.741 11.3467 131.547 12.5408 130.055 12.7647C127.219 13.1378 124.383 13.8095 121.622 14.7796C120.129 15.0781 118.413 14.5557 117.517 13.2871ZM144.607 27.2426C175.578 43.0639 161.249 85.1546 127.069 78.8111C126.696 78.7365 126.323 78.5872 126.025 78.438C95.0537 62.6167 109.382 20.526 143.562 26.8695C143.936 26.9441 144.309 27.0934 144.607 27.2426Z" fill="#73C4A2"/>
<path d="M35.6492 62.7657L32.5894 58.3626C31.6939 57.1685 30.0521 56.7954 28.7834 57.5417C24.7534 59.8552 21.0966 62.7657 18.0368 66.2732C17.0667 67.3927 17.0667 69.1091 18.0368 70.1539L21.7683 74.1839C22.6638 75.0794 22.8131 76.4974 22.1414 77.6168C21.022 79.4825 20.0518 81.4229 19.3055 83.4379C18.9324 84.4827 17.8876 85.229 16.7681 85.229L10.574 85.4528C9.156 85.5275 8.03657 86.5723 7.81268 87.9156C7.0664 92.6172 7.06639 97.4681 7.88731 102.17C8.1112 103.588 9.37989 104.632 10.7978 104.558L16.5443 104.334C17.7383 104.259 18.8577 105.006 19.3055 106.125C19.6787 107.17 20.1264 108.14 20.5742 109.11C21.022 110.08 21.5444 110.976 22.0668 111.797C22.6638 112.767 22.5892 114.11 21.8429 115.006L18.1861 119.707C17.2905 120.827 17.3652 122.394 18.3353 123.439C21.5444 126.946 25.3505 129.932 29.5297 132.17C30.7984 132.842 32.3656 132.544 33.1865 131.424L36.7687 126.723C37.5149 125.752 38.7836 125.379 39.9031 125.752C42.0673 126.424 44.3062 126.946 46.6197 127.17C47.8883 127.32 48.9332 128.29 49.157 129.558L49.978 134.782C50.2018 136.275 51.5452 137.32 53.0377 137.245C57.7393 136.872 62.3663 135.827 66.7694 133.887C68.0381 133.365 68.7844 132.021 68.4859 130.753L67.3665 124.409C67.1426 123.29 67.5903 122.17 68.4859 121.573C70.2024 120.379 71.8442 119.036 73.2621 117.543C74.1577 116.648 75.5756 116.424 76.6951 117.095L81.4713 119.707C82.74 120.454 84.3818 120.006 85.2774 118.812C87.964 114.931 89.979 110.603 91.2477 106.05C91.6208 104.707 91.0238 103.289 89.7551 102.692L84.2326 100.005C83.1878 99.4831 82.5161 98.4383 82.6654 97.2442C82.8146 95.1546 82.8146 92.9904 82.5907 90.9008C82.4415 89.7067 83.1131 88.5126 84.3072 87.9902L89.4566 85.6767C90.7999 85.0797 91.4716 83.5871 91.0238 82.1692C90.3521 79.9303 89.4566 77.7661 88.4864 75.6765C87.4416 73.5869 86.2475 71.4973 84.8296 69.6315C84.0087 68.4375 82.3668 68.0643 81.0982 68.8106L76.1727 71.4973C75.0532 72.0943 73.7099 71.945 72.8144 71.0495C71.1725 69.4076 69.3068 67.9897 67.3665 66.7956C66.3217 66.124 65.7993 64.8553 66.0978 63.5866L67.5157 58.2133C67.8889 56.7954 67.1426 55.3028 65.7993 54.7804C61.4708 53.064 56.8438 52.0191 52.1422 51.7953C50.6496 51.7206 49.3809 52.7654 49.157 54.1834L48.1869 59.7059C47.963 60.9 46.9928 61.8701 45.7241 62.0194C43.4106 62.3179 41.1718 62.8403 38.9329 63.6612C37.7388 64.2583 36.3209 63.8851 35.6492 62.7657ZM57.4408 74.1093C82.4415 86.8708 70.874 120.752 43.336 115.678C43.0375 115.603 42.739 115.528 42.4404 115.379C17.4398 102.617 29.0073 68.736 56.5453 73.8108C56.9184 73.8108 57.2169 73.96 57.4408 74.1093Z" fill="#73C4A2"/>
<path d="M93.0572 158.347C91.0456 154.998 86.4945 154.096 82.9133 156.336C79.332 158.576 78.0548 163.124 80.0664 166.473C82.078 169.822 91.4326 171.242 91.4326 171.242C91.4326 171.242 95.0886 161.728 93.0572 158.347Z" fill="#30AB5E"/>
<path opacity="0.55" d="M79.4196 160.646C79.5128 161.441 79.7653 162.182 80.2356 162.966C81.784 165.546 85.4389 167.077 88.5636 165.885C91.564 164.725 93.4564 161.159 92.8086 158.24L92.789 158.207C90.7244 155.007 86.3496 154.196 82.8253 156.402C81.1461 157.364 79.9832 158.945 79.4196 160.646Z" fill="#30AB5E"/>
<path d="M89.9848 170.35C89.5118 170.513 89.0194 170.643 88.5615 170.751C90.3469 171.191 91.692 171.373 91.692 171.373C91.692 171.373 92.0382 170.445 92.4516 169.073C91.6414 169.625 90.8422 170.036 89.9848 170.35Z" fill="#FFE25E"/>
<path d="M88.2555 169.513C88.2555 169.513 85.2775 162.627 84.5675 163.612C83.8574 164.598 83.9223 165.91 85.0918 165.449C86.2614 164.988 90.3139 162.182 90.3139 162.182C90.3139 162.182 90.0301 160.826 89.1717 161.002C87.884 161.266 90.1086 164.971 91.4929 167.758" stroke="white" stroke-width="0.4928" stroke-miterlimit="10"/>
<path d="M93.3097 168.407L88.224 171.576C87.8144 171.831 87.3349 171.736 87.1051 171.354C86.8753 170.973 87.0102 170.495 87.4198 170.24L92.5054 167.071C92.915 166.816 93.3945 166.911 93.6243 167.293C93.8541 167.674 93.7193 168.152 93.3097 168.407Z" fill="#73C4A2"/>
<path d="M92.8488 173.129C91.1881 174.169 89.0815 173.751 88.1495 172.197L87.8583 171.712L93.8438 167.965L94.135 168.451C95.067 170.004 94.5095 172.09 92.8488 173.129Z" fill="#73C4A2"/>
<path d="M93.9273 172.09C94.6932 170.987 94.8372 169.562 94.1579 168.429L93.8667 167.944L88.2634 171.451C90.1643 171.686 92.0458 171.888 93.9273 172.09Z" fill="#73C4A2"/>
<path d="M75.2839 169.401L78.1203 167.65" stroke="#30AB5E" stroke-width="1.2648" stroke-miterlimit="10" stroke-linecap="round"/>
<path d="M95.1688 157.128L98.0052 155.377" stroke="#30AB5E" stroke-width="1.2648" stroke-miterlimit="10" stroke-linecap="round"/>
<path d="M73.667 159.365L76.8889 160.002" stroke="#30AB5E" stroke-width="1.2648" stroke-miterlimit="10" stroke-linecap="round"/>
<path d="M79.6393 151.001L81.3898 153.838" stroke="#30AB5E" stroke-width="1.2648" stroke-miterlimit="10" stroke-linecap="round"/>
<path d="M89.7757 149.405L88.8693 152.626" stroke="#30AB5E" stroke-width="1.2648" stroke-miterlimit="10" stroke-linecap="round"/>
</svg>
