<svg width="47" height="56" viewBox="0 0 47 56" fill="none" xmlns="http://www.w3.org/2000/svg">
<path d="M46.1667 27.4104L46.1668 27.4141L46.1668 27.4142V27.4144L46.1668 27.4157L46.1668 27.4242L46.1665 27.4623C46.1661 27.497 46.1652 27.5502 46.163 27.6207C46.1587 27.7619 46.1493 27.9729 46.129 28.2461C46.0886 28.7925 46.0049 29.5875 45.832 30.5705C45.4861 32.5372 44.7837 35.2524 43.3584 38.2352C40.5274 44.1602 34.8317 51.1701 23.3334 55.4666C11.8351 51.1701 6.13944 44.1602 3.30836 38.2352C1.88308 35.2524 1.18067 32.5372 0.834746 30.5705C0.661834 29.5875 0.578173 28.7925 0.537732 28.2461C0.517514 27.9729 0.508107 27.7619 0.503743 27.6207C0.501562 27.5502 0.500641 27.497 0.50026 27.4623L0.500002 27.4242L0.500008 27.4157L0.500013 27.4144H0.500028V27.4104V11.4501C12.3486 10.1729 21.4375 2.41223 23.3334 0.683603C25.2293 2.41223 34.3182 10.1729 46.1667 11.4501L46.1667 27.4104Z" fill="#30AB5E" stroke="#30AB5E"/>
<path d="M42.0001 27.5157L42.0002 27.5193L42.0002 27.5197L42.0002 27.5204L42.0002 27.5269L42 27.5574C41.9996 27.5853 41.9989 27.6283 41.9971 27.6857C41.9936 27.8004 41.9859 27.9725 41.9694 28.1955C41.9364 28.6418 41.868 29.2918 41.7266 30.0961C41.4435 31.7051 40.8687 33.9275 39.702 36.369C37.3883 41.2114 32.7342 46.945 23.3335 50.4665C13.9327 46.945 9.27868 41.2114 6.96489 36.369C5.79826 33.9275 5.2234 31.7051 4.94037 30.096C4.7989 29.2918 4.73052 28.6418 4.6975 28.1955C4.68099 27.9725 4.67333 27.8004 4.66978 27.6857C4.66801 27.6283 4.66726 27.5853 4.66696 27.5574L4.66675 27.5269L4.66675 27.5204L4.66676 27.5197H4.66677V27.5157V14.4855C14.2683 13.4206 21.651 7.20473 23.3335 5.68216C25.016 7.20473 32.3986 13.4206 42.0001 14.4855L42.0001 27.5157Z" fill="url(#paint0_linear_659_13799)" stroke="#F4FFF8"/>
<mask id="path-3-inside-1_659_13799" fill="white">
<path fill-rule="evenodd" clip-rule="evenodd" d="M26 28.4003C27.7808 27.4899 29 25.6373 29 23.5C29 20.4624 26.5376 18 23.5 18C20.4624 18 18 20.4624 18 23.5C18 25.6373 19.2192 27.4899 21 28.4003V36.5C21 37.8807 22.1193 39 23.5 39C24.8807 39 26 37.8807 26 36.5V28.4003Z"/>
</mask>
<path fill-rule="evenodd" clip-rule="evenodd" d="M26 28.4003C27.7808 27.4899 29 25.6373 29 23.5C29 20.4624 26.5376 18 23.5 18C20.4624 18 18 20.4624 18 23.5C18 25.6373 19.2192 27.4899 21 28.4003V36.5C21 37.8807 22.1193 39 23.5 39C24.8807 39 26 37.8807 26 36.5V28.4003Z" fill="#F4FFF8"/>
<path d="M26 28.4003L25.5448 27.5099L25 27.7884V28.4003H26ZM21 28.4003H22V27.7884L21.4552 27.5099L21 28.4003ZM28 23.5C28 25.2473 27.0044 26.7638 25.5448 27.5099L26.4552 29.2907C28.5573 28.2161 30 26.0274 30 23.5H28ZM23.5 19C25.9853 19 28 21.0147 28 23.5H30C30 19.9101 27.0899 17 23.5 17V19ZM19 23.5C19 21.0147 21.0147 19 23.5 19V17C19.9101 17 17 19.9101 17 23.5H19ZM21.4552 27.5099C19.9956 26.7638 19 25.2473 19 23.5H17C17 26.0274 18.4427 28.2161 20.5448 29.2907L21.4552 27.5099ZM22 36.5V28.4003H20V36.5H22ZM23.5 38C22.6716 38 22 37.3284 22 36.5H20C20 38.433 21.567 40 23.5 40V38ZM25 36.5C25 37.3284 24.3284 38 23.5 38V40C25.433 40 27 38.433 27 36.5H25ZM25 28.4003V36.5H27V28.4003H25Z" fill="#30AB5E" mask="url(#path-3-inside-1_659_13799)"/>
<defs>
<linearGradient id="paint0_linear_659_13799" x1="23.3335" y1="5" x2="23.3335" y2="51" gradientUnits="userSpaceOnUse">
<stop stop-color="#30AB5E"/>
<stop offset="1" stop-color="#41AB30"/>
</linearGradient>
</defs>
</svg>
