<svg width="38" height="51" viewBox="0 0 38 51" fill="none" xmlns="http://www.w3.org/2000/svg">
<path fill-rule="evenodd" clip-rule="evenodd" d="M5.45981 5.09948C8.95541 1.83434 13.6965 0 18.64 0C23.5835 0 28.3246 1.83434 31.8202 5.09948C35.3158 8.36463 37.2796 12.7931 37.2796 17.4107C37.2796 22.0283 35.3158 26.4568 31.8202 29.722L18.64 42.0332L5.45981 29.722C3.72885 28.1053 2.35576 26.186 1.41896 24.0736C0.482166 21.9612 0 19.6972 0 17.4107C0 15.1243 0.482166 12.8602 1.41896 10.7479C2.35576 8.63548 3.72885 6.71616 5.45981 5.09948Z" fill="#30AB5E"/>
<circle cx="18.6387" cy="18" r="13" fill="white"/>
<rect x="2.63867" y="47" width="32" height="2" rx="1" fill="#30AB5E"/>
<circle cx="18.6387" cy="48" r="3" fill="#30AB5E"/>
<path d="M15.3491 24H13.8054V12.5977H15.3491V24ZM20.0936 19.7351V24H18.5579V12.5977H21.9237C22.6451 12.5977 23.2711 12.6826 23.8016 12.8524C24.3373 13.0168 24.7803 13.2528 25.1304 13.5605C25.4805 13.8682 25.7404 14.2395 25.9101 14.6745C26.0852 15.1095 26.1727 15.5948 26.1727 16.1306C26.1727 16.6611 26.0799 17.1464 25.8942 17.5867C25.7086 18.027 25.4354 18.4063 25.0747 18.7246C24.7193 19.0428 24.2763 19.2922 23.7459 19.4725C23.2154 19.6476 22.608 19.7351 21.9237 19.7351H20.0936ZM20.0936 18.5097H21.9237C22.364 18.5097 22.7512 18.4514 23.0854 18.3347C23.4249 18.218 23.7087 18.0562 23.9368 17.8493C24.1649 17.6371 24.3373 17.3851 24.454 17.0934C24.5707 16.8016 24.6291 16.4807 24.6291 16.1306C24.6291 15.4039 24.4036 14.8363 23.9527 14.4278C23.5071 14.0194 22.8308 13.8151 21.9237 13.8151H20.0936V18.5097Z" fill="#30AB5E"/>
</svg>
