<svg width="26" height="35" viewBox="0 0 26 35" fill="none" xmlns="http://www.w3.org/2000/svg">
<path d="M0.375476 2.54607C0.356917 1.33128 1.33657 0.336538 2.5515 0.336538H23.1152C24.3301 0.336538 25.3097 1.33128 25.2912 2.54607L24.8333 32.5204C24.8151 33.7092 23.8462 34.6635 22.6572 34.6635H3.00944C1.82048 34.6635 0.85158 33.7093 0.833418 32.5204L0.375476 2.54607Z" fill="white" stroke="#30AB5E" stroke-width="0.673077"/>
<path d="M1.90449 8.87502C1.88831 8.12043 2.49558 7.5 3.25033 7.5H22.3747C23.1294 7.5 23.7367 8.12043 23.7205 8.87502L23.3225 27.4327C23.3068 28.1648 22.7089 28.75 21.9767 28.75H3.64832C2.91611 28.75 2.31818 28.1648 2.30248 27.4327L1.90449 8.87502Z" fill="#30AB5E"/>
<circle cx="3.50065" cy="3.50016" r="1.16667" fill="#30AB5E"/>
<circle cx="22.1662" cy="3.50016" r="1.16667" fill="#30AB5E"/>
<circle cx="22.1662" cy="32.6664" r="1.16667" fill="#30AB5E"/>
<circle cx="3.50065" cy="32.6664" r="1.16667" fill="#30AB5E"/>
<path d="M0.625 6.4165H25" stroke="#30AB5E" stroke-width="0.628205" stroke-linecap="round" stroke-linejoin="round"/>
<path d="M1.25 30.3335H25" stroke="#30AB5E" stroke-width="0.604294" stroke-linecap="round" stroke-linejoin="round"/>
<path d="M9.57994 15.8187C9.54513 15.8825 9.49146 15.9144 9.41894 15.9144C9.37542 15.9144 9.32611 15.8985 9.27099 15.8665C9.21587 15.8346 9.1477 15.7998 9.06647 15.7621C8.98815 15.7215 8.89386 15.6852 8.78363 15.6533C8.67339 15.6185 8.54285 15.6011 8.392 15.6011C8.26146 15.6011 8.14397 15.6185 8.03953 15.6533C7.9351 15.6852 7.84517 15.7302 7.76974 15.7882C7.69722 15.8462 7.64065 15.9144 7.60004 15.9927C7.56232 16.0682 7.54347 16.1508 7.54347 16.2408C7.54347 16.3539 7.57538 16.4482 7.6392 16.5236C7.70592 16.599 7.79295 16.6643 7.90029 16.7194C8.00762 16.7745 8.12946 16.8239 8.26581 16.8674C8.40215 16.908 8.5414 16.953 8.68355 17.0023C8.82859 17.0487 8.96929 17.1009 9.10564 17.1589C9.24198 17.2169 9.36382 17.2895 9.47116 17.3765C9.57849 17.4635 9.66407 17.5709 9.72789 17.6985C9.79461 17.8232 9.82797 17.9741 9.82797 18.1511C9.82797 18.3541 9.79171 18.5427 9.71919 18.7167C9.64666 18.8879 9.53933 19.0373 9.39718 19.1649C9.25503 19.2897 9.08098 19.3883 8.87501 19.4608C8.66904 19.5334 8.43116 19.5696 8.16137 19.5696C7.85387 19.5696 7.57538 19.5203 7.32589 19.4217C7.07641 19.3201 6.86464 19.191 6.69058 19.0344L6.87334 18.7385C6.89655 18.7008 6.92411 18.6718 6.95602 18.6515C6.98793 18.6312 7.03 18.621 7.08221 18.621C7.13443 18.621 7.18955 18.6413 7.24757 18.6819C7.30559 18.7225 7.37521 18.7675 7.45644 18.8168C7.54057 18.8661 7.64065 18.9111 7.75669 18.9517C7.87563 18.9923 8.02358 19.0126 8.20053 19.0126C8.35138 19.0126 8.48338 18.9938 8.59652 18.9561C8.70965 18.9155 8.80393 18.8618 8.87936 18.7951C8.95478 18.7283 9.0099 18.6515 9.04471 18.5644C9.08243 18.4774 9.10128 18.3846 9.10128 18.2859C9.10128 18.1641 9.06792 18.064 9.0012 17.9857C8.93738 17.9045 8.8518 17.8363 8.74447 17.7812C8.63713 17.7232 8.51384 17.6738 8.37459 17.6332C8.23825 17.5897 8.09755 17.5448 7.9525 17.4983C7.81036 17.4519 7.66966 17.3997 7.53041 17.3417C7.39407 17.2808 7.27223 17.2053 7.16489 17.1154C7.05756 17.0255 6.97053 16.9152 6.90381 16.7847C6.83998 16.6513 6.80807 16.4903 6.80807 16.3017C6.80807 16.1334 6.84288 15.9724 6.91251 15.8187C6.98213 15.662 7.08366 15.5257 7.21711 15.4096C7.35055 15.2907 7.51446 15.1964 7.70882 15.1268C7.90319 15.0572 8.12511 15.0224 8.37459 15.0224C8.66469 15.0224 8.92432 15.0688 9.1535 15.1616C9.38558 15.2515 9.58574 15.3763 9.754 15.5358L9.57994 15.8187ZM13.3535 15.8187C13.3186 15.8825 13.265 15.9144 13.1925 15.9144C13.1489 15.9144 13.0996 15.8985 13.0445 15.8665C12.9894 15.8346 12.9212 15.7998 12.84 15.7621C12.7617 15.7215 12.6674 15.6852 12.5571 15.6533C12.4469 15.6185 12.3164 15.6011 12.1655 15.6011C12.035 15.6011 11.9175 15.6185 11.813 15.6533C11.7086 15.6852 11.6187 15.7302 11.5433 15.7882C11.4707 15.8462 11.4142 15.9144 11.3736 15.9927C11.3358 16.0682 11.317 16.1508 11.317 16.2408C11.317 16.3539 11.3489 16.4482 11.4127 16.5236C11.4794 16.599 11.5665 16.6643 11.6738 16.7194C11.7811 16.7745 11.903 16.8239 12.0393 16.8674C12.1757 16.908 12.3149 16.953 12.4571 17.0023C12.6021 17.0487 12.7428 17.1009 12.8792 17.1589C13.0155 17.2169 13.1373 17.2895 13.2447 17.3765C13.352 17.4635 13.4376 17.5709 13.5014 17.6985C13.5681 17.8232 13.6015 17.9741 13.6015 18.1511C13.6015 18.3541 13.5652 18.5427 13.4927 18.7167C13.4202 18.8879 13.3128 19.0373 13.1707 19.1649C13.0286 19.2897 12.8545 19.3883 12.6485 19.4608C12.4426 19.5334 12.2047 19.5696 11.9349 19.5696C11.6274 19.5696 11.3489 19.5203 11.0994 19.4217C10.8499 19.3201 10.6382 19.191 10.4641 19.0344L10.6469 18.7385C10.6701 18.7008 10.6976 18.6718 10.7295 18.6515C10.7614 18.6312 10.8035 18.621 10.8557 18.621C10.9079 18.621 10.9631 18.6413 11.0211 18.6819C11.0791 18.7225 11.1487 18.7675 11.23 18.8168C11.3141 18.8661 11.4142 18.9111 11.5302 18.9517C11.6491 18.9923 11.7971 19.0126 11.9741 19.0126C12.1249 19.0126 12.2569 18.9938 12.37 18.9561C12.4832 18.9155 12.5775 18.8618 12.6529 18.7951C12.7283 18.7283 12.7834 18.6515 12.8182 18.5644C12.8559 18.4774 12.8748 18.3846 12.8748 18.2859C12.8748 18.1641 12.8414 18.064 12.7747 17.9857C12.7109 17.9045 12.6253 17.8363 12.518 17.7812C12.4106 17.7232 12.2874 17.6738 12.1481 17.6332C12.0118 17.5897 11.8711 17.5448 11.726 17.4983C11.5839 17.4519 11.4432 17.3997 11.3039 17.3417C11.1676 17.2808 11.0457 17.2053 10.9384 17.1154C10.8311 17.0255 10.744 16.9152 10.6773 16.7847C10.6135 16.6513 10.5816 16.4903 10.5816 16.3017C10.5816 16.1334 10.6164 15.9724 10.686 15.8187C10.7556 15.662 10.8572 15.5257 10.9906 15.4096C11.1241 15.2907 11.288 15.1964 11.4823 15.1268C11.6767 15.0572 11.8986 15.0224 12.1481 15.0224C12.4382 15.0224 12.6978 15.0688 12.927 15.1616C13.1591 15.2515 13.3593 15.3763 13.5275 15.5358L13.3535 15.8187ZM17.7057 19.5C17.5955 19.5 17.5259 19.4463 17.4968 19.339L17.4272 18.8038C17.2387 19.0329 17.0225 19.2172 16.7789 19.3564C16.5381 19.4927 16.261 19.5609 15.9477 19.5609C15.6954 19.5609 15.4662 19.5131 15.2602 19.4173C15.0542 19.3187 14.8787 19.1751 14.7337 18.9865C14.5886 18.798 14.4769 18.563 14.3986 18.2816C14.3203 18.0002 14.2811 17.6767 14.2811 17.3112C14.2811 16.9863 14.3246 16.6846 14.4117 16.4061C14.4987 16.1247 14.6234 15.8811 14.7859 15.6751C14.9513 15.4691 15.1514 15.3081 15.3864 15.1921C15.6214 15.0731 15.8883 15.0137 16.1871 15.0137C16.4569 15.0137 16.6875 15.0601 16.8789 15.1529C17.0704 15.2428 17.2416 15.3705 17.3924 15.5358V13.0903H18.167V19.5H17.7057ZM16.2045 18.9343C16.4569 18.9343 16.6773 18.8763 16.8659 18.7603C17.0574 18.6442 17.2329 18.4803 17.3924 18.2685V16.1363C17.2503 15.9449 17.0936 15.8114 16.9225 15.736C16.7542 15.6577 16.5671 15.6185 16.3611 15.6185C15.9492 15.6185 15.633 15.765 15.4125 16.058C15.192 16.351 15.0818 16.7687 15.0818 17.3112C15.0818 17.5984 15.1065 17.845 15.1558 18.051C15.2051 18.254 15.2776 18.4223 15.3733 18.5557C15.4691 18.6863 15.5866 18.782 15.7258 18.8429C15.8651 18.9039 16.0246 18.9343 16.2045 18.9343Z" fill="white"/>
</svg>
